<svg xmlns="http://www.w3.org/2000/svg" width="800" height="800" fill="none" viewBox="0 0 24 24"><g fill="#a85c44"><path d="M6.94028 2c.41586 0 .75298.32421.75298.72414v1.46073c.66791-.01246 1.41657-.01246 2.25893-.01246h4.01591c.8423 0 1.591 0 2.2589.01246V2.72414c0-.39993.3371-.72414.753-.72414.4158 0 .753.32421.753.72414v1.5248c1.445.11128 2.3937.38439 3.0906 1.05465.697.67026.981 1.58257 1.0967 2.97227L22 9H2v-.72414c.11571-1.3897.3997-2.30201 1.09665-2.97227.69696-.67026 1.64561-.94337 3.09065-1.05465v-1.5248c0-.39993.33712-.72414.75298-.72414Z"/><path d="M21.9995 14.0001v-2c0-.8391-.0032-2.33483-.0161-3.0001H2.00917c-.01291.66527-.00964 2.161-.00964 3.0001v2c0 3.7712 0 5.6568 1.17157 6.8284 1.17157 1.1716 3.05719 1.1716 6.82843 1.1716h3.99997c3.7713 0 5.6569 0 6.8285-1.1716 1.1715-1.1716 1.1715-3.0572 1.1715-6.8284Z" opacity=".5"/><path d="M18 17c0 .5523-.4477 1-1 1s-1-.4477-1-1 .4477-1 1-1 1 .4477 1 1Zm0-4c0 .5523-.4477 1-1 1s-1-.4477-1-1 .4477-1 1-1 1 .4477 1 1Zm-5 4c0 .5523-.4477 1-1 1s-1-.4477-1-1 .4477-1 1-1 1 .4477 1 1Zm0-4c0 .5523-.4477 1-1 1s-1-.4477-1-1 .4477-1 1-1 1 .4477 1 1Zm-5 4c0 .5523-.44772 1-1 1s-1-.4477-1-1 .44772-1 1-1 1 .4477 1 1Zm0-4c0 .5523-.44772 1-1 1s-1-.4477-1-1 .44772-1 1-1 1 .4477 1 1Z"/></g></svg>