<svg xmlns="http://www.w3.org/2000/svg" xml:space="preserve" width="800" height="800" viewBox="0 0 470 470"><path fill="#b68b4e" d="M417.001 376.687c-1.287 6.926-4.311 13.248-8.615 18.485h20.629c11.721 0 21.65-7.803 24.877-18.485h-36.891zm.7-275.873v260.873H455V108.314h-14.799c-4.142 0-7.5-3.358-7.5-7.5s3.358-7.5 7.5-7.5h13.691c-3.227-10.683-13.156-18.485-24.877-18.485h-20.629c5.817 7.077 9.315 16.129 9.315 25.985z"/><path fill="#fff" d="M303.132 121.897H62.069v226.205h293.563V121.897h-22.5c-4.142 0-7.499-3.357-7.5-7.499h-15c0 4.142-3.358 7.499-7.5 7.499zm18.292 72.663c3.952.127 7.126 3.302 7.254 7.254 1.191 36.888-9.505 67.711-30.932 89.138-20.351 20.351-49.178 31.022-83.626 31.022-1.742 0-3.499-.031-5.27-.086-1.768.055-3.53.086-5.27.086-34.451 0-63.274-10.67-83.626-31.022-21.427-21.426-32.123-52.25-30.932-89.138.127-3.952 3.302-7.126 7.254-7.254 17.889-.583 34.43 1.631 49.176 6.566 3.928 1.314 6.047 5.564 4.732 9.492-.03.089-.069.173-.102.261 4.888 2.036 9.549 4.433 13.965 7.188 4.286-24.255 17.785-47.494 39.673-68.012 2.885-2.705 7.373-2.705 10.259 0 21.888 20.518 35.387 43.757 39.672 68.012 4.416-2.755 9.077-5.152 13.965-7.188-.033-.087-.072-.171-.102-.261-1.314-3.928.804-8.178 4.732-9.492 14.748-4.934 31.292-7.143 49.178-6.566z"/><path fill="#e63a2a" d="M40.985 395.172h335.731c14.328 0 25.985-11.657 25.985-25.985V100.814c0-14.328-11.657-25.985-25.985-25.985H40.985C26.657 74.828 15 86.486 15 100.814v268.373c0 14.328 11.657 25.985 25.985 25.985zm6.084-280.775c0-4.142 3.358-7.5 7.5-7.5h248.563c4.142 0 7.5 3.358 7.5 7.5 0 .001 15 .001 15 .001 0-4.143 3.358-7.501 7.5-7.501h30c4.142 0 7.5 3.358 7.5 7.5v241.205c0 4.142-3.358 7.5-7.5 7.5H54.569c-4.142 0-7.5-3.358-7.5-7.5V114.397z"/><path fill="#34150c" d="M429.015 59.828H40.985C18.386 59.828 0 78.214 0 100.814v268.373c0 22.599 18.386 40.985 40.985 40.985h388.03c22.599 0 40.985-18.386 40.985-40.985V100.814c0-22.6-18.386-40.986-40.985-40.986zm0 335.344h-20.629c4.305-5.237 7.329-11.559 8.615-18.485h36.891c-3.227 10.682-13.156 18.485-24.877 18.485zM15 100.814c0-14.328 11.657-25.985 25.985-25.985h335.731c14.328 0 25.985 11.657 25.985 25.985v268.373c0 14.328-11.657 25.985-25.985 25.985H40.985C26.657 395.172 15 383.515 15 369.187V100.814zm438.892-7.5h-13.691c-4.142 0-7.5 3.358-7.5 7.5s3.358 7.5 7.5 7.5H455v253.373h-37.299V100.814c0-9.855-3.498-18.908-9.315-25.985h20.629c11.721-.001 21.65 7.802 24.877 18.485z"/><path fill="#b9a550" d="m251.556 261.075 50.971-50.97c-9.076.86-17.618 2.602-25.519 5.246-3.838 1.284-7.976-.714-9.39-4.472-4.888 2.036-9.549 4.433-13.965 7.188.986 5.583 1.485 11.22 1.485 16.89 0 8.812-1.213 17.544-3.582 26.118zm-24.054 45.268c24.414-2.333 44.807-11.167 59.638-25.998 14.832-14.832 23.665-35.22 25.997-59.637l-85.635 85.635z"/><path fill="#34150c" d="M267.515 210.618c.03.089.069.173.102.261 1.414 3.757 5.552 5.756 9.39 4.472 7.901-2.644 16.444-4.385 25.519-5.246l-50.971 50.97c2.369-8.575 3.582-17.306 3.582-26.119 0-5.67-.499-11.307-1.485-16.89-4.286-24.255-17.785-47.494-39.672-68.012-2.886-2.705-7.374-2.705-10.259 0-21.888 20.518-35.387 43.757-39.673 68.012-.987 5.583-1.485 11.22-1.485 16.89 0 8.813 1.212 17.543 3.582 26.118l-50.97-50.97c9.075.861 17.618 2.602 25.518 5.246 3.84 1.285 7.977-.714 9.39-4.472.033-.088.072-.171.102-.261 1.314-3.928-.804-8.178-4.732-9.492-14.747-4.935-31.288-7.15-49.176-6.566-3.952.127-7.126 3.302-7.254 7.254-1.191 36.888 9.505 67.711 30.932 89.138 20.352 20.352 49.175 31.022 83.626 31.022 1.74 0 3.501-.031 5.27-.086 1.77.055 3.528.086 5.27.086 34.448 0 63.275-10.671 83.626-31.022 21.427-21.426 32.123-52.25 30.932-89.138-.127-3.952-3.302-7.126-7.254-7.254-17.886-.577-34.431 1.632-49.177 6.566-3.929 1.316-6.047 5.566-4.733 9.493zm-136.953 69.727c-14.832-14.832-23.665-35.22-25.997-59.637l85.637 85.637c-24.415-2.331-44.809-11.168-59.64-26zm85.789-105.947c15.618 18.916 23.787 39.583 23.787 60.559s-8.169 41.643-23.787 60.559V174.398zm-15 121.117c-15.618-18.915-23.788-39.583-23.788-60.559s8.169-41.643 23.788-60.559v121.118zm26.151 10.828 85.635-85.635c-2.332 24.417-11.165 44.806-25.997 59.637-14.832 14.831-35.224 23.665-59.638 25.998z"/><path fill="#b9a550" d="M140.693 215.351c-7.9-2.644-16.443-4.384-25.518-5.246l50.97 50.97c-2.369-8.575-3.582-17.306-3.582-26.118 0-5.67.499-11.307 1.485-16.89-4.416-2.755-9.077-5.151-13.965-7.188-1.413 3.757-5.549 5.756-9.39 4.472zm-10.131 64.994c14.832 14.832 35.226 23.669 59.64 26l-85.637-85.637c2.332 24.417 11.165 44.805 25.997 59.637z"/><path fill="#9e8d44" d="M201.351 295.515V174.398c-15.618 18.916-23.788 39.583-23.788 60.559s8.169 41.643 23.788 60.558zm15-121.117v121.117c15.618-18.916 23.787-39.583 23.787-60.559 0-20.975-8.169-41.642-23.787-60.558z"/><path fill="#34150c" d="M54.569 363.102h308.563c4.142 0 7.5-3.358 7.5-7.5V114.397c0-4.142-3.358-7.5-7.5-7.5h-30c-4.142 0-7.5 3.358-7.5 7.5.001 4.143 3.358 7.5 7.5 7.5h22.5v226.205H62.069V121.897h241.063c4.142 0 7.499-3.357 7.5-7.499 0-4.143-3.358-7.501-7.5-7.501H54.569c-4.142 0-7.5 3.358-7.5 7.5v241.205c0 4.142 3.358 7.5 7.5 7.5z"/></svg>