<svg xmlns="http://www.w3.org/2000/svg" xml:space="preserve" viewBox="0 0 1024 1024"><path fill="#FEFEFE" d="M471 1025H1V1h1024v1024zm45.323-453.2c.555-.631 1.11-1.262 2.02-2.449 2.54-2.118 5.08-4.237 8.365-6.327 5.632-1.395 6.779-5.737 7.02-11.267.626-.965 1.252-1.93 2.623-2.764 1.395 1.29 2.594 3.287 4.222 3.738 5.499 1.525 7.743 5.499 5.569 10.941-3.485 8.724-9.098 15.173-19.141 17.064 1.465 2.35 2.237 4.04 5.033 1.686 1.127-.949 3.995-.85 5.496-.09 2.084 1.053 1.118 16.424-.911 17.734-3.07 1.981-6.179 3.922-9.395 5.648-4.463 2.396-4.614 6.57-.002 10.097l3.32-3.053c4.242 3.17 8.327 6.226 12.912 9.654l8.59-6.8c2.315.318 4.657.047 6.151-1.221 2.659-2.256 2.65-4.82-2.382-6.823 2.772-1.6 4.48-2.584 6.201-2.786 1.802 4.014 3.314 4.265 7.636 1.18-1.62-4.306-4.762-2.663-7.65-2.799l-1.012-16.46 23.74-5.816c.057-.796.163-2.236 1.203-3.776 11.02.301 22.042.603 33.083 1.645 2.416 1.6 4.644 4.044 7.284 4.628 6.318 1.397 9.508-1.025 10.382-6.352.44-.012.88-.023 1.391.68 1.553 5.54 6.348 7.155 11.005 8.03 2.015.38 5.487-1.148 6.605-2.893 3.91-6.105 8.888-8.2 15.735-5.557 7.418 2.865 10.252 13.43 4.93 18.375 3.776 11.695 3.776 11.695.299 13.734-.14-4.931-.14-4.931-10.932-1.258l6.706 14.232c2.546-.305 5.777-.974 9.015-1.011 4.67-.053 9.39.85 14.003.424 4.55-.421 9.923-.726 10.28-7.43.01-.2.564-.331.786-.568 3.63-3.877 9.245-2.1 13.384-4.633.362-.222 1.886.686 2.27 1.395 2.191 4.055 5.503 2.723 8.177 1.326 2.689-1.405 4.857-3.806 7.999-6.381l-13.928-4.268c1.579-4.18 3.481-9.004 5.21-13.89.859-2.428 1.628-4.933 2.02-7.469.437-2.825.4-5.724.568-8.59l1.83-.033 1.833 3.46 1.618-.221c-.149-1.799-.41-3.597-.417-5.396-.008-2.09.206-4.182.959-6.215 1.325 1.04 2.65 2.08 4.04 3.828 2.538 4.666 6.708 6.133 12.174 5.756.253.195.506.39.866 1.29 3.188 1.44 5.788 4.764 10.643 2.932.413.206.827.412 1.323 1.173.652.022 1.303.044 2.661-.123.418.218.837.437 1.353 1.196.648-.005 1.295-.01 2.697-.211.735.2 1.471.4 2.402 1.29 2.096.939 4.7 1.386 6.185 2.918 3.34 3.446 6.966 3.584 11.482 3.52 4.992-.072 7.642-3.266 11.818-5.384 1.11-.344 2.218-.687 3.77-1.279.193-.45.386-.9 1.119-1.847.477.012.954.025 1.705.499a37 37 0 0 0 2.313-1.48c.466-.008.932-.015 1.779.502 2.218-1.054 4.436-2.109 7.146-3.633.83-.282 1.66-.564 2.854-.344 1.216-.795 2.431-1.59 3.942-2.923.934-.353 1.868-.706 3.601-.805.678-.643 1.356-1.286 2.373-2.502 7.372-6.82 14.744-13.642 22.952-20.414.47-1.075.94-2.15 1.659-2.96 0 0-.285-.227.545-.033l3.336-1.857c-.616-.765-1.233-1.53-1.809-3.067 1.344-2.64 2.688-5.278 4.635-7.964.1-.663.2-1.326.143-2.544.355-.63.71-1.262 1.902-1.504.398 2.009 1.452 4.163 1.046 5.994-.664 3-2.182 5.834-3.513 8.657-1.547 3.28-2.731 6.957-5.055 9.596-3.979 4.518-8.81 8.274-13.108 12.526-2.379 2.353-4.403 5.064-6.711 7.759 9.86 2.589 19.202 5.217 21.546 17.117-4.844 2.234-9.58 4.22-14.079 6.646-1.031.556-1.247 2.625-1.839 3.997l1.295.733c2.353-2.484 4.474-3.118 7.855-1.386 2.027 1.039 5.645.116 8.067-.985 6.006-2.73 11.735-6.069 17.728-9.244l-3.982-4.402c2.839-3.043 4.577-7.024 9.333-2.626 2.474 2.287 6.727-.403 6.724-3.989-.002-2.999.564-4.746 3.98-5.732 3.31-.955 6.696-2.806 4.322-7.831-1.45-3.069.459-5.024 3.794-5.23 1.749-.108 3.51-.02 5.274-.02 1.014-5.11.678-5.35-4.215-4.158-1.118.273-2.515-.595-3.783-.938.6-1.026 1.041-2.212 1.854-3.026.626-.627 1.758-1.176 2.599-1.093 6.768.669 6.764.717 7.463-5.242 2.7-2.623 5.374-4.26 6.646-6.645 3.302-6.192 6.403-12.495 6.272-19.942-.05-2.862 1.566-5.753 2.423-8.63 3.437 8.405 3.655 8.554 8.443 4.24 0 4.193-.2 7.799.116 11.359.102 1.142 1.487 2.255 2.493 3.146.163.144 2.132-1.087 2.062-1.443-1.309-6.597 9.315-12.19.37-19.284l5.073-1.616c8.069 5.922 4.277 14.812 7.109 21.853 2.773-4.447 5.371-8.65 6.56-13.219 1.025-3.935 2.58-4.354 5.626-3.314-.788 4.022-1.829 7.698-2.062 11.425-.08 1.274 1.654 3.558 2.92 3.858 4.384 1.04 5.816-.78 4.966-5.547-1.317-7.378-.226-9.422 4.353-10.131 1.16-5.103 2.233-9.76 3.262-14.426.141-.638.058-1.325.09-1.988.294-6.256.624-12.51.873-18.767.156-3.904.297-7.814.245-11.719-.045-3.412-.644-6.832-.495-10.227.152-3.448 1.491-6.91 1.248-10.29-.218-3.023.043-6.911-2.728-8.335l-5.5 4.54c-1.205-1.891-2.57-3.703-3.562-5.699-.752-1.514-1.03-3.263-1.563-5.052-.846.54-1.167.66-1.363.886-1.102 1.27-2.174 2.567-3.257 3.854-.987-1.45-1.76-3.13-3.014-4.294-1.71-1.588-3.684-2.989-5.77-4.007-.563-.275-1.943 1.123-2.825 1.676 1.478 1.612 2.768 2.696 3.531 4.072.203.365-1.036 2.024-1.912 2.406-2.896 1.265-5.929 2.217-9.539 3.516-1.872-3.503-2.053-7.77-1.014-12.332.321-1.408.022-3.168-.59-4.492-.322-.7-2.683-1.315-2.829-1.098-.843 1.254-1.6 2.72-1.833 4.202-.808 5.149-.9 10.464-2.235 15.457-.826 3.09-3.189 5.902-5.363 8.402-.512.588-4.26-.267-4.452-1.002-1.05-3.988-1.54-8.136-2.055-12.25-.733-5.851-1.247-11.731-2.116-17.56-.066-.439-2.818-1.203-3.308-.74-5.982 5.641-5.932 5.693-8.583-2.344-1.404-4.26-6.108-7.12-10.47-6.65-2.402.26-4.855.047-7.285.047l-.136-2.104 9.558-1.979c-7.643-3.125-7.643-3.125-10.175-9.663-.898 1.137-1.21 2.463-1.429 3.804-.256 1.56-.024 3.364-.745 4.644-.913 1.618-2.574 2.813-4.385 4.678-.409-2.406-1.74-5.468-1.23-8.184 1.217-6.487-.046-9.925-5.877-12.507-.25-.11-.37-.513-.703-1.003l2.103-3.826c-6.849-3.029-13.437-6.09-20.168-8.793-1.354-.544-4.23-.302-4.733.557-2.386 4.073-5.68 3.943-9.74 2.614v3.432c-3.447.805-6.49 1.437-6.408-3.409-5.344 1.007-6.871-.007-9.345-4.754-.632-1.213-2.686-2.02-4.231-2.363-6.698-1.488-12.112 2.504-16.77 4.304-3.265-2.809-5.95-5.078-8.584-7.403-1.093-.965-2.078-2.05-3.113-3.081 1.28-.96 2.463-2.515 3.862-2.743 2.079-.337 4.31.264 7.856.595-2.224-1.774-3.204-3.077-4.467-3.469-4.519-1.403-7.916-3.506-8.938-8.703-.191-.97-3.442-1.577-5.357-1.9-1.9-.32-4.263.61-5.778-.207-3.723-2.007-6.525-.999-9.587 1.233-1.322.964-3.702 2.094-4.756 1.54-5.687-2.988-10.921-1.712-15.794 1.348-3.18 1.996-7.913 2.129-9.171 6.933-.086.326-3.21.317-4.535-.329-.712-.347-.603-2.38-.817-3.426-3.548-1.046-6.829-1.991-10.095-2.984-1.782-.541-3.79-2.033-5.269-1.608-10.89 3.127-21.68 1.436-32.522.002-1.013-.134-2.536.24-3.15.956-7.055 8.201-15.818 2.193-23.742 2.95-.12.011-.293-.542-.452-.84l2.072-5.658c-4.284 1.174-7.636 3.132-10.653 2.708-6.84-.963-13.296-1.202-19.506 2.304-1.235.698-3.043.683-3.939 1.618-2.492 2.601-4.264 1.864-6.033-.662-1.026-1.465-1.949-3.044-3.192-4.302-1.463-1.481-3.223-2.67-5.512-4.517-3.68.6-8.732 1.536-13.818 2.206-2.935.386-6.256 1.23-8.818.284-3.903-1.441-7.248-3.417-10.75.473-.336.372-1.299.372-1.92.263-8.519-1.507-16.996-3.29-25.555-4.507-4.08-.58-8.309-.102-12.47-.108-3.719-.006-7.747 3.86-11.927-1.503l14.231-3.467c-3.792-1.663-7.477-2.337-11.147-3.087-7.494-1.53-12.161 3.334-9.724 11.045-6.123 2.004-12.256 2.923-18.67 1.692-4.52-.868-9.365-3.489-12.548 2.6-.41.785-1.912 1.24-2.976 1.402-5.95.906-11.7 1.766-17.947.331-6.933-1.592-14.318-1.213-21.895-1.718-1.288 3.99-4.872 4.806-8.925 4.323-3.753-.447-7.468-1.22-11.548-1.909l2.586-4.14c-2.387-.555-5.478-2.063-6.195-1.31-4.786 5.02-10.651 3.227-16.273 3.46-4.607.192-8.074-1.225-10.467-5.286-1.398-2.37-3.022-3.77-6.461-3.08-2.163.433-5.13-1.013-7.147-2.446-3.531-2.51-6.388-2.422-9.32.98-1.931 2.243-3.925 4.483-6.19 6.364-.88.731-2.92 1.075-3.85.554-3.535-1.98-6.443-1.15-9.806.587-1.492.77-4.778.391-5.781-.753-1.573-1.795-1.817-4.715-2.795-7.088-.421-1.021-1.199-2.546-1.946-2.627-1.037-.112-3.062.803-3.153 1.482-.367 2.725-.152 5.528-.152 8.735-.075.026-1.15.44-1.168.397-2.805-6.479-9.425-5.86-14.59-7.924-.427-.17-.696-.707-1.077-1.029-.63-.532-1.256-1.412-1.947-1.477-5.866-.551-11.744-.991-17.623-1.386-7.023-.471-14.153-.296-21.036-1.526-3.59-.641-8.33-1.898-8.084-7.847.048-1.164-2.762-3.345-4.385-3.48-2.783-.231-5.67.78-8.803 1.32l-1.15-5.672-30.197-1.336-1.972 5.442c-4.831-.656-8.585-6.629-14.826-2.42 1.538 1.31 2.885 2.174 3.835 3.358.734.914 1.588 3.044 1.33 3.24-2.703 2.055-5.402 4.694-8.528 5.483-5.023 1.268-10.369 1.262-15.578 1.795-.126 2.978-.35 5.18-1.557 6.11-4.803 3.71-10.023 6.876-14.863 10.543-2.508 1.9-5.249 4.063-6.631 6.751-2.333 4.537-3.565 9.628-5.464 14.406-1.145 2.881-2.674 5.61-4.484 9.345.941 4.479-.874 5.956-6.963 5.903-3.045-.027-7.373.866-8.884 2.958-2.751 3.812-5.28 5.495-9.535 3.446l-4.252 10.085c-2.283-5.574-3.468-10.45-4.858-15.267-.466-1.611-1.458-3.07-2.21-4.6-.915 1.66-2.096 3.23-2.69 4.998-1.24 3.692-2.17 7.488-3.227 11.241-.81 1.326.524 3.35.024 4.686-3.117 8.328 1.297 16.83-1.15 25.408-1.206 4.23-4.142 10.257 1.126 14.743.255.217.132.967.068 1.453-.626 4.797-1.157 9.611-1.978 14.375-.346 2.009-1.318 3.91-2.26 6.578l-7.82-4.64c2.644-1.328 4.278-1.685 5.119-2.7.87-1.048.969-2.736 1.405-4.145-5.69-.694-3.622-5.543-4.846-8.723-1.018-2.645-2.36-6.062-6.285-4.78-3.347 1.092-3.929 5.178-2.293 8.981.892 2.073.888 4.56 1.122 6.877.2 1.975.185 3.973.23 5.962.106 4.753.51 9.536.064 14.238-.112 1.179-2.87 2.517-4.628 3-1.45.397-3.266-.706-4.826-.485-1.011.144-1.855 1.472-2.774 2.27.74.851 1.377 1.836 2.255 2.507.578.442 1.501.433 2.823.765-.333 2.602.246 5.935-1.112 7.22-4.108 3.89-1.976 7.768-1.277 11.848.228 1.328-.286 2.838-.675 4.204-.827 2.911-3.11 6.147-2.433 8.595 1.492 5.388 2.031 9.727-3.311 13.182-.842.545-.972 2.19-1.842 4.343 5.386-2.443 3.975 1.816 5.487 4.298l7.267-2.879c.703 1.462 1.391 2.927 2.108 4.378 2.531 5.121 5.656 10.046 7.417 15.419 1.315 4.011.392 8.705 1.323 12.905 1.455 6.568-1.572 11.846-3.298 16.936l-13.432 2.625c.608 1.682 2.295 4.019 1.698 5.147-1.557 2.94-4.468 3.47-7.744 2.095-2.939-1.235-4.477-2.602-3.951-6.32.439-3.103-.395-6.471-1.102-9.624-.563-2.514-1.784-4.881-2.644-7.134-3.973 3.793-3.743 3.767-3.222 8.273.191 1.652-.991 3.463-1.547 5.201l-3.773-1.318c-.333 3.578-.948 7.607-.98 11.64-.017 1.922 1.094 3.847 1.652 5.783.253.879.555 1.786.568 2.685.061 4.041.027 8.084.027 10.885 2.953 1.422 5.274 2.352 7.398 3.614 2.342 1.393 4.525 3.062 6.716 4.693.294.218.47 1.054.292 1.378-2.299 4.153 2.211 6.135 3.106 9.265.205.717 2.98 1.187 4.452.967 6.03-.9 8.226-5.899 10.417-10.723 9.163 1.804 17.1 7.179 27.14 5.075 6.18-1.295 10.178-2.455 11.633-8.617 9.85-5.405 20.397-3.279 31.83-3.679-3.326 5.93 7.302 7.137 3.657 12.498 1.054 2.133 2.637 3.873 2.627 5.604-.027 4.365 3.332 5.311 6.085 6.471 2.943 1.24 5.451.378 6.434-3.326.222-.835 3.046-1.802 3.079-1.749 3.916 6.507 10.145 1.308 15.028 3.77l1.073-4.53c2.514-.507 4.673-1.075 6.868-1.327 1.004-.115 2.079.39 3.122.615-.203.878-.288 1.805-.64 2.618-.36.833-.98 1.553-1.554 2.427 3.537.912 13.506-1.871 14.517-4.499 2.07-5.38 7.297-3.111 10.558-6.085l1.168 5.077c3.502.592 5.772.98 8.043 1.357 1.607.268 3.691 1.295 4.743.65 4.999-3.068 8.373.427 12.308 2.29 1.862.882 4.115 1.043 6.219 1.286 4.107.473 7.22-1.202 9.87-4.385.942-1.132 2.95-1.377 4.472-2.026l-.508 1.948c1.518 1.263 2.86 2.924 4.597 3.694 2.384 1.057 4.53 1.052 6.034-2.186 1.988-4.283 8.188-6.261 12.74-5.243 1.884.422 4.031 0 5.998-.363 3.989-.736 8.075-3.914 11.626 1.148.467.665 2.662.561 3.865.192 6.733-2.066 13.224-4.171 20.296-.451 2.948 1.55 6.924 3.664 10.255-.343.54-.65 1.896-1.043 2.777-.909 2.735.418 5.527.897 8.053 1.94.587.243.258 2.823.262 4.328.007 2.995 1.64 3.625 4.276 3.238 1.552-.227 3.187-.275 4.736-.057 3.824.539 7.62 1.277 11.427 1.936.722-.698 1.027.134 1.535.285 1.992.593 4.05 1.256 6.081 1.244.56-.004 1.83-2.506 1.515-3.433-.752-2.21.021-6.165-4.077-5.682-5.365.632-8.316-1.22-7.972-5.746l-5.475-3.233c1.526-1.07 2.922-2.453 4.603-3.15 4.06-1.685 8.252-3.05 12.706-4.657 2.479 1.479 4.679 5.849 8.62 2.534 5.38-4.525-3.858-4.961-2.165-9.546 1.602.165 3.504.427 5.415.533 1.331.074 3.238.475 3.904-.217 1.8-1.87 3.075-4.247 4.558-6.422-2.706.239-5.408.573-8.119.683-1.734.07-4.555.428-5.037-.41-2.116-3.673-5.531-3.659-8.598-3.168-4.442.71-7-1.387-7.79-4.955-.809-3.655-3.278-3.24-5.593-3.533-.903-.115-2.747.66-2.727.767.313 1.716.86 3.39 1.435 5.358-.033.043-.276.709-.647.79-7.509 1.638-15.032 3.21-22.555 4.781-.132.028-.306-.188-.454-.179-3.152.187-6.3.479-9.454.564-2.994.081-5.999-.172-8.99-.053-2.703.107-5.527.15-8.004 1.039-.668.24-.278 3.451-.356 5.299-.028.65-.004 1.303-.004 1.903-1.794.853-3.383 1.687-5.031 2.38-5.464 2.294-11.297-1.44-11.927-7.209-.28-2.551-1.625-4.986-2.724-8.16-3.48 3.177-6.078 3.748-8.027.167-4.378 4.208-8.895 3.811-14.118 3.025-5.022-.756-10.283-2.158-15.645.514-2.836 1.413-6.863 1.337-10.14.75-4.602-.823-9.078-4.124-13.477-3.89-7.149.38-13.116.207-15.747-6.414-3.776 1.347-7.076 2.961-10.556 3.613-2.388.447-4.428-.774-2.448-3.88 2.461-3.863-.697-6.758-3.026-7.481-3.436-1.068-7.59-4.254-11.804-.084.611-1.993 1.733-3.212 2.889-4.397 1.627-1.666 3.28-3.306 5.843-4.991 3.692-.013 7.385-.026 11.215.71 5.733 1.35 11.466 2.698 17.64 4.15.458-1.838.842-3.375 1.892-4.92.444.003.888.006 1.424.765 1.124.754 2.486 2.356 3.333 2.12 4.02-1.128 7.272.22 10.799 1.886 1.888.892 4.488.617 6.712.371 2.877-.318 5.676-1.458 8.55-1.663 5.22-.372 10.486-.125 15.697-.566 1.341-.113 2.548-1.824 4.753-2.837 7.022-.012 14.043-.024 21.077.73 1.907 6.532 6.09 7.76 11.51 3.497.766-.602 2.021-.863 3.03-.818 2.307.101 4.601.49 6.9.762 1.535.16 3.752 1.786 4.594 1.25 1.998-1.27 3.344-3.566 5.891-5.453 10.355.01 20.71.021 31.165.785 1.132.74 2.177 1.862 3.414 2.147 3.02.696 6.245.632 9.173 1.556 4.489 1.417 5.782-.262 6.141-4.451 1.387-.018 2.774-.036 4.165.739l-.517 5.01c4.461.787 8.821 1.068 12.841 2.386 5.425 1.779 8.102-.65 10.15-5.064.685-1.476 1.591-2.848 2.289-4.077l-7.973-10.915c-.744 2.003-.932 3.898-1.97 4.971-1.513 1.566-3.522 2.946-5.57 3.528-.643.183-2.035-2.5-3.183-3.784-.904-1.012-1.959-1.889-2.988-3.495.307-.78.615-1.562 1.348-1.837 6.204-1.037 6.673-1.943 3.675-7.254-.632-1.12-1.396-2.167-2.121-3.825-.287-.462-.573-.923-1-2.156.223-.74.446-1.48 1.16-2.346-.023-.632-.045-1.264-.203-2.659.189-.738.377-1.477 1.059-2.19.326-.044.654-.07 1.676-.136 2.764-1.977 5.528-3.954 8.524-5.502.418.206.837.412 1.642 1.225-.012.47-.023.94-.513 1.82.392 1.188.784 2.376 1.61 4.21.037.769.073 1.536-.352 2.555.298.6.595 1.2 1.318 2.502.054 1.08.109 2.16-.302 3.493.3.601.6 1.202 1.284 2.479.025.767.049 1.535-.413 2.626a44 44 0 0 0 1.31 3.39c.04.768.08 1.536-.308 2.54.272.592.545 1.185 1.259 2.3.756.815 1.512 1.63 2.286 3.035.66.143 1.318.287 2.666.38.763.48 1.526.96 2.417 2.035 1.298.336 2.597.673 4.645.92 1.407.512 2.815 1.024 4.33 2.206 2.31 3.585 2.8 3.67 5.628.73.42.189.841.378 1.3 1.07.334.352.668.704.99 1.817-.804 1.78-2.08 3.512-2.267 5.355-.154 1.517.596 4.209 1.609 4.583 5.764 2.13 12.186-2.492 13.585-8.71 2.629.043 5.401-.436 7.856.24 5.056 1.39 8.542-1.327 12.835-4.159.462-.029.925-.058 1.786.445 3.862-1.175 7.723-2.35 12.374-3.539.635-1.114 1.27-2.228 1.845-3.321 0 0 .013-.063.71.145M166.605 328.973c4.729-1.28 8.925.786 9.291 4.242.169 1.591 1.387 3.07 2.13 4.601 1.638-1.116 3.463-2.044 4.85-3.414.978-.964 1.516-2.48 1.967-3.842.434-1.31 1.052-3.01.551-4.03-.36-.733-2.426-.624-3.728-.902-1.691-.361-3.828-.259-4.905-1.275-.68-.641-.153-3.15.501-4.496 1.705-3.513 3.778-6.847 5.705-10.251q-.308-.863-.616-1.723l-18.476 3.168c-1.32-3.558 5.85-4.105 1.393-7.856-1.123.93-1.986 2.132-3.12 2.502-4.853 1.583-4.094 6.09-4.801 9.52-.609 2.952.11 6.178.276 10.069.976.732 2.92 2.399 5.082 3.708.796.483 2.103.123 3.9-.02m595.7 293.904 11.156-10.352-.84-1.976c-4.066-.538-8.168-.9-12.177-1.72-1.226-.251-2.468-1.587-3.2-2.745-.655-1.032-.617-2.503-.884-3.78-1.06.973-2.114 1.954-3.183 2.917-.604.545-1.234 1.06-1.55 1.332-2.234-.578-4.106-1.416-5.979-1.415-1.118 0-2.79 1.063-3.253 2.083-1.517 3.34-2.5 6.919-3.918 10.31-.289.691-1.549 1.298-2.412 1.376-5.177.467-5.63 3.486-4.622 7.434l12.067-4.515-3.195-2.94.435-.774 4.718 1.475c.858-7.519 4.48-8.252 16.232-1.908-2.203.923-4.533 1.302-6.843 1.78-1.245.258-2.455.685-3.68 1.035 1.206.825 2.334 2.16 3.637 2.362 2.184.337 4.48-.048 7.49.02M458.18 614.81c-.538-.712-1.074-2.037-1.615-2.039-4.232-.012-8.477.098-12.688.49-.976.09-1.838 1.41-2.753 2.164.705.766 1.295 1.725 2.153 2.232.59.347 1.55.066 2.852.066-3.844 6.127-13.118 4.654-14.8 13.012 6.395 2.868 14.633-3.02 20.407 3.006l.077 1.985-17.762 2.17c5.035 3.124 25.183 4.236 30.906 1.28-1.49-1.072-3.185-2.095-4.869-2.077-3.496.037-5.4-.95-5.121-4.823.274-3.83-1.83-5.333-5.526-5.338-1.431-.002-2.862-.713-5.17-1.339 4.143-3.704 4.54-10.041 11.229-9.036.6.09 1.356-.87 2.68-1.753m59.683 8.337c3.125-3.595 2.697-4.472-3.26-5.955l-4.373 11.208 4.609 3.43-.653 1.047-6.28-1.277c-.642-2.052-.946-3.518-1.606-4.8-.174-.336-2.05-.323-2.133-.097-.914 2.472-1.628 5.019-2.416 7.609 2.551.616 4.128 1.15 5.746 1.346 1.586.192 3.214.041 4.913.041 2.755 5.038 2.755 5.038 10.305 1.518 3.013 4.777 4.575 5.066 8.749 1.765-1.88-7.784-9.374-4.933-13.228-6.566-.34-3.605-.584-6.176-.373-9.269m140.03-284.568 4.632-.252c-2.38-2.495-4.143-4.633-6.225-6.395-.926-.783-2.484-.845-3.773-1.164-1.63-.405-3.308-1.138-4.911-1.017a44.5 44.5 0 0 0-9.242 1.674c-.47.14-.651 2.858-.22 4.13 1.135 3.344 3.479 3.693 6.704 2.515 1.274-.466 3.249.338 4.652 1.057 1.388.711 2.457 2.045 3.743 3.173 1.57-1.331 2.794-2.37 4.64-3.72m178.646 277.55c-.83 1.363-2.312 2.745-2.273 4.083.028.977 1.923 2.35 3.227 2.739 2.203.657 4.597.675 6.344.892l.603 3.762c1.82-.351 4.548-.093 5.276-1.177 1.697-2.528 2.432-5.703 3.372-8.137-5.83-.76-10.8-1.406-16.55-2.161m-359.535 7.22c.275.18.58.327.82.546 4.316 3.94 7.456-.676 11.07-1.632.347-.092.66-1.79.385-2.512-1.678-4.379-5.573-2.238-8.576-2.745-.32-.054-.658-.01-.988-.006-5.316.068-5.586.551-2.71 6.349M358.057 323.388l-4.528 1.85 1.75 2.372c3.84.458 7.672 1.117 11.523 1.254 1.19.042 3.06-1.091 3.472-2.138.4-1.017-.355-2.847-1.151-3.91-2.002-2.67-7.195-2.572-11.066.572m254.805 299.47c6.016-1.042 12.06-2.456 18.702 2.43-1.855-4.883-4.1-7.348-8.006-7.92-2.689-.396-5.427-.651-8.137-.602-1.136.02-2.82.714-3.246 1.591-.611 1.262-3.855 3.006.687 4.501M111.089 423.707c1.122-4.301-.37-6.778-4.587-7.363-5.803 5.743-.9 11.038-.048 16.422a624 624 0 0 1 4.635-9.06m366.779 204.677-7.793.62 1.234 9.43c6.189.924 7.625-.12 7.666-5.357.012-1.463-.27-2.927-1.107-4.693m140.259-34.015c2.5 3.053 4.89 6.212 7.603 9.064.492.516 2.51.091 3.421-.51.478-.315.36-2.057.016-2.97-.482-1.28-1.73-2.294-2.115-3.583-1.42-4.752-4.183-5.683-8.925-2.001m35.94 32.265c-1.978 3.53.018 3.167 2.65 3.077 3.362-.114 6.744.533 10.125.646 2.213.075 4.439-.214 6.658-.34l-.428-1.013-12.56-5.907.057 1.512c-1.954.55-3.908 1.1-6.503 2.025m-392.592-36.338-7.371 1.364-.498 1.397c2.741 1.95 5.278 4.61 8.328 5.491 1.167.337 3.508-3.39 5.938-5.91-2.515-1.121-4.068-1.814-6.397-2.342m572.284 18.254 1.414-2.852-9.424 4.203-4.593-4c1.052 7.736 2.686 9.434 7.052 7.878 1.977-.704 3.322-3.18 5.551-5.229M304.901 322.168l-3.68 4.861 10.58 2.767c-.73-5.075-1.606-8.105-6.9-7.628m146.065 284.05c-3.898-.727-7.88-2.792-11.673.53 1.456 4.16 4.678 4.94 8.009 4.03 1.67-.458 2.864-2.662 3.664-4.56M107.407 411.172c2.24 1.205 4.299 1.31 5.178-1.537 1.333-4.319-2.12-5.623-5.074-7.791-1.503 3.19-4.336 5.727-.104 9.328m236.127-89.096-3.303 3.13c2.433 1.226 4.778 2.764 7.351 3.49.788.223 2.437-1.635 3.186-2.852.213-.347-1.175-2.137-2.151-2.642-1.261-.651-2.846-.676-5.083-1.126m275.055 281.226c-.454.204-.913.4-1.363.614-3.594 1.717-2.012 4.258-.516 6.104.781.965 3.25 1.617 4.313 1.096 2.86-1.4 1.939-3.813.491-5.872-.548-.78-1.46-1.303-2.925-1.942M767.756 642.5l1.161-4.114 4.168-1.103c-3.352-3.411-6.227-1.132-8.853-.212-.98.344-1.427 2.213-2.116 3.386 1.656.784 3.312 1.568 5.64 2.043m-484.394-46.576c-1.496-1.483-2.924-3.043-4.516-4.414-.744-.641-1.932-1.41-2.684-1.215-.74.191-1.523 1.47-1.677 2.377-.224 1.312.102 2.717.15 3.44 2.957.952 5.353 1.819 7.804 2.485 2.329.634 2.927-.13.923-2.673m144.096 44.001 3.937-.725c-4.3-4.48-8.778-3.038-12.938-2.933-.445.011-.853 1.451-1.279 2.228.919.445 1.813 1.2 2.76 1.273 2.233.172 4.49.019 7.52.157m-315.812-246.35-3.331-2.114c-.764 2.035-1.719 4.029-2.17 6.13-.131.61 1.182 1.529 1.834 2.306 1.01-1.22 2.09-2.39 2.994-3.684.344-.494.281-1.273.673-2.639m708.668 235.718 1.164-7.886-1.157-.66c-1.066 1.48-2.194 2.922-3.178 4.455-.73 1.138-1.274 2.396-1.9 3.6 1.47.275 2.94.55 5.07.491m-9.948-7.32c-1.398-2.213-1.86-2.36-3.59-1.142-3.65 2.567-3.176 5.394 1.265 8.55.617-2.241 1.25-4.54 2.325-7.408M494.12 599.497l-3.72-1.818c.79 3.337 1.27 5.565 1.946 7.732.043.136 2.35-.133 2.372-.34.174-1.7.057-3.431-.598-5.574m10.555 7.623c.64-3.462-.153-5.997-4.026-6.575 1.428 2.272-2.33 7.168 4.026 6.575m206.684 20.202-2.837 3.62 6.548 3.069.398-1.122c-1.164-1.747-2.327-3.494-4.11-5.567m-55.662-12.203 3.963.034c-.234-1.208-.167-2.624-.806-3.554-.451-.658-1.86-.66-2.84-.954-.282 1.328-.564 2.655-.317 4.474M176.693 304.342l-4.449-1.822.08 3.252c1.376-.254 2.752-.508 4.37-1.43M752.66 641.953l4.456-.861c-2.358-1.789-3.614-2.883-5.033-3.693-.266-.151-1.767.99-1.693 1.268.295 1.108.986 2.111 2.27 3.286m-69.626-305.209-.407-2.58-6.448 2.063.562 1.774c1.855-.351 3.71-.703 6.293-1.257m129.72 267.73-5.39.667.193 1.442 7.707 1.454c-.982-1.597-1.45-2.359-2.51-3.562m183.591-133.531-1.092-2.86-4.235 2.43.666 1.476c1.372-.178 2.743-.356 4.661-1.046M98.47 399.088l-.196 3.874c5.455-1.628 2.286-4.248 1.409-6.587-.307.681-.615 1.362-1.213 2.713m281.59-69.371.012-2.383h-5.584l-.086 1.508c1.637.361 3.274.723 5.659.875M113.342 634.032l-2.005-2.56-2.081 3.519c1.21-.139 2.419-.277 4.086-.959m315.56-7.645-.56-3.308-3.035.949c.977.909 1.955 1.818 3.595 2.36M103 638.597l.428 3.995 1.944-.212-.694-6.822-1.245.04c-.143.737-.286 1.474-.433 2.999M958.499 418.1l-1.47 3.376 2.46.47c-.105-1.251-.21-2.501-.99-3.846M455.227 607.158c3.082 2.244 3.082 2.244 4.363-2.616-1.84.782-3.132 1.331-4.363 2.616m321.64-7.695-2.67 1.002 4.992 2.571.667-1.176c-.78-.692-1.562-1.384-2.988-2.397m-366.302-6.479 3.266-1.508-.68-1.709-4.645 1.68c.438.504.876 1.007 2.059 1.537m58.503 17.658 3.594.859.37-1.74-5.357-1.594-1.107 1.527c.643.184 1.286.367 2.5.948m137.527 19.2.583-3.484-2.249.428c.316 1.002.632 2.004 1.666 3.055m-18.11.473 4.149-.415-.59-2.04c-1.217.585-2.435 1.169-3.558 2.455m267.65-43.886 2.658-.72-2.522-2.342c-.216.856-.432 1.712-.136 3.062m-356.451 47.855L497 632.262l-.707 2.08c1.032.188 2.065.376 3.392-.06m265.106-29.098.133-2.975-2.615.74c.644.887 1.288 1.774 2.482 2.235m22.69-2.214.52-2.737-2.741 1.443c.561.573 1.123 1.147 2.22 1.294M118.614 440.224l-2.116-2.09-1.221 1.681c.93.303 1.86.605 3.337.409m349.774 179.552 2.116 2.09 1.221-1.681c-.93-.303-1.86-.605-3.337-.409M352.45 637.91l.856-2.459-2.215.19c.218.765.437 1.53 1.36 2.27M94.32 580.62l1.104-3.044-1.319-.304c-.158 1.074-.317 2.147.215 3.347m447.77 45.93 1.329 2.013 1.39-2.245c-.84-.15-1.681-.3-2.72.233m242.54 20.689-1.636-2.033-1.573 1.584c.898.309 1.797.617 3.208.449m-5.154-55.022-2.265-.078.71 2.533c.62-.61 1.241-1.218 1.555-2.455M96.349 540.784l1.255 2.975 1.62-1.098c-.783-.785-1.567-1.569-2.875-1.877m3.428-99.419-.556 3.041 2.097-.076c-.286-1.05-.573-2.101-1.541-2.965m360.77 180.55 1.925-.908-2.584-1.584c0 .77-.001 1.54.658 2.493m-153.913-22.623-2.908-1.157-.369 1.756c1.01 0 2.02 0 3.277-.599m418.96 26.257.439 3.366 1.75-.573c-.51-.966-1.02-1.932-2.19-2.793m-315.93 3.633-1.236-1.989-1.23 1.208c.656.423 1.312.845 2.465.781m238.868-35.84-1.45-1.935-.885.916c.615.478 1.229.955 2.335 1.019m334.219-170.388-2.217.375.23 1.249c.696-.326 1.391-.652 1.987-1.624m-3.07 90.495.353 2.295 1.316-.251c-.34-.714-.682-1.428-1.669-2.044M699.325 624.36l-.815 2.041 1.71.208c-.101-.66-.203-1.32-.895-2.25M75.611 638.896l1.987.324-.195-1.711c-.687.265-1.373.53-1.792 1.387m524.93-301.183-1.733-.336-.016 1.23c.58-.097 1.161-.195 1.749-.894M99.276 450.882l.576 1.629.836-.382c-.326-.559-.651-1.118-1.412-1.247m417.183 127.406 1.733.335.016-1.23c-.58.098-1.161.196-1.749.895m-96.577 47.436 1.629-.576-.382-.836c-.559.326-1.118.652-1.247 1.412m-312.764-45.448-1.629.576.382.836c.559-.326 1.118-.652 1.247-1.412m-26.644-13.59 1.641 1.016.404-.823c-.535-.205-1.07-.41-2.045-.193m107.822-249.253-.855.816c.112.118.317.345.325.338.3-.253.583-.529.53-1.154m249.502 27.96-.012 1.18c.163.002.468.014.47.003.03-.391.031-.785-.458-1.184m-148.406 250.81 1.181.012c.002-.163.014-.468.003-.47-.391-.03-.785-.031-1.184.458m23.175-1.906-.816-.855c-.118.112-.345.317-.339.325.254.3.53.583 1.155.53m53.825 44.906 1.181.012c.002-.163.014-.468.003-.47-.391-.03-.785-.031-1.184.458m430.041-13.498.816.856c.118-.113.345-.318.338-.326-.254-.3-.529-.583-1.154-.53m-342.729-5.137.856-.816c-.113-.118-.318-.345-.326-.338-.3.254-.583.529-.53 1.154m35.729-10.863.816.855c.118-.112.345-.317.339-.325-.254-.3-.53-.583-1.155-.53m273.96 22.498 1.18.012c.002-.163.014-.468.003-.47-.391-.03-.785-.03-1.183.458m218.405-105.81-.012 1.181c.163.002.468.014.47.003.03-.392.031-.785-.458-1.184m-1.365 9.312.816.856c.118-.113.345-.318.338-.326-.254-.3-.529-.583-1.154-.53m-14.231 6.903.012-1.18c-.163-.002-.468-.014-.47-.003-.03.391-.031.785.458 1.183m-187 44 .012-1.18c-.163-.002-.468-.014-.47-.003-.03.391-.031.785.458 1.183"/><path fill="#FEFFFF" d="M309.998 578.065c-1.268.977-2.475 2.688-3.816 2.801-5.21.44-10.477.194-15.698.566-2.873.205-5.672 1.345-8.55 1.663-2.223.246-4.823.52-6.711-.371-3.527-1.665-6.779-3.014-10.8-1.887-.846.237-2.208-1.365-2.91-2.498 8.227-.362 16.03-.324 23.833-.34 4.873-.01 6.117-1.687 5.624-7.41-.368-4.276-2.248-5.551-7.317-4.674-7.6-2.51-14.31-5.631-15.935-14.622-3.52-10.782-7.06-21.194-10.865-31.508-1.137-3.082-3.01-5.891-4.736-9.18-1.105-3.453-2.02-6.553-2.696-9.88-1.72-5.888-3.563-11.592-5.681-17.193-1.12-2.96-2.715-5.74-4.298-8.878-.455-1.149-.707-2.02-.807-3.259-.61-2.063-1.372-3.759-2.37-5.726-.54-1.416-.841-2.56-.916-3.85-.214-.714-.655-1.284-1.29-2.155-.717-2.116-1.24-3.929-1.556-5.893-.207-.71-.62-1.27-1.245-2.147-1.102-3.134-1.992-5.949-2.711-9.176a311 311 0 0 0-4.879-18.346c-.142-.478-1.322-.648-2.226-1.175-.255-.794-.305-1.374-.13-2.103-.202-.715-.63-1.28-1.265-2.133-.504-1.417-.801-2.545-.842-3.888-.004-.71-.18-1.563-.536-1.646-5.796-1.342-14.955 3.804-16.997 9.444-.616 1.702-1.441 3.338-1.94 5.07-1.362 4.743-2.602 9.521-3.821 14.585-.239.789-.546 1.278-1.222 1.78-2.103 2.415-4.498 4.585-5.438 7.266-2.177 6.214-3.677 12.667-5.396 19.038-.85 3.145-1.577 6.322-2.35 9.78-.246.818-.502 1.339-1.092 1.92-1.867 2.117-3.964 3.967-4.81 6.274-1.382 3.779-5.54 7.332-1.863 12.325-.328 1.029-.673 1.684-1.354 2.406-1.897 4.612-3.456 9.156-4.945 14.003-.21.844-.49 1.385-1.103 1.997-2.19 5.296-4.045 10.522-5.828 15.995-.148.483-.369.718-.939.999-1.433 3.348-2.517 6.65-3.578 10.248-.252.794-.526 1.293-1.15 1.8-.859 1.638-1.37 3.27-1.855 5.257-2.572 5.644-6.175 9.785-12.613 10.97-2.059.543-3.754 1.22-5.738 2.12-.763.248-1.238.272-1.861.08-.739.215-1.33.645-1.983 1.228-.062.153-.383.071-.73.233-.168 3.267.01 6.373.189 9.479 3.276-.252 6.553-.504 10.181-.919 2.135-.14 3.919-.117 6.02.156 7.351.089 14.383-.073 21.847-.388 2.832.038 5.232.23 7.798.745 2.374.53 4.596.94 6.785.806.562-.034 1.019-1.783 1.408-3.175-.128-3.81.644-7.588-4.379-8.786-.975-.352-1.795-.414-2.832-.383-.573.126-.841-.01-1.21-.638-1.85-.791-3.516-1.26-5.456-1.753-.738-.546-1.2-1.066-1.574-2.001-.355-1.35-.8-2.286-1.385-3.562-.017-1.052.107-1.762.555-2.646.92-2.743 1.515-5.311 2.1-8.232.189-.772.388-1.191.887-1.729 2.383-5.456 4.716-10.715 6.46-16.162 1.032-3.23 2.86-3.872 5.867-3.842 13.411.134 26.824.095 40.454.341.368.81.519 1.397.515 2.4 1.656 6.42 3.305 12.48 5.332 18.411 1.393 4.076 3.31 7.973 5.12 12.268-.017.736-.16 1.154-.6 1.656-.536.81-.774 1.536-1.078 2.572-1.078.96-2.092 1.612-3.297 2.026-1.737.46-3.283 1.16-5.118 2.053-.745.232-1.202.268-1.832.052-2.916-.266-3.472.933-1.963 3.605.041 1.5-.045 2.602-.38 3.956.157 6.261 4.89 2.684 7.522 3.761-1.642 1.652-3.295 3.292-4.922 4.958-1.156 1.185-2.278 2.404-2.889 4.397 4.214-4.17 8.368-.984 11.804.084 2.329.723 5.487 3.618 3.026 7.48-1.98 3.107.06 4.328 2.448 3.881 3.48-.652 6.78-2.266 10.556-3.613 2.631 6.621 8.598 6.794 15.747 6.414 4.399-.234 8.875 3.067 13.476 3.89 3.278.587 7.305.663 10.141-.75 5.362-2.672 10.623-1.27 15.645-.514 5.223.786 9.74 1.183 14.118-3.025 1.95 3.581 4.548 3.01 8.027-.167 1.1 3.174 2.445 5.609 2.724 8.16.63 5.77 6.463 9.503 11.927 7.208 1.648-.692 3.237-1.526 5.03-2.38 0-.6-.023-1.252.005-1.902.078-1.848-.312-5.06.356-5.299 2.477-.888 5.3-.932 8.004-1.039 2.991-.119 5.996.134 8.99.053 3.154-.085 6.302-.377 9.454-.564.148-.009.322.207.454.18 7.523-1.572 15.046-3.144 22.555-4.782.37-.081.614-.747.647-.79-.576-1.968-1.122-3.642-1.435-5.358-.02-.107 1.824-.882 2.727-.767 2.315.293 4.784-.122 5.593 3.533.79 3.568 3.348 5.665 7.79 4.955 3.067-.49 6.482-.505 8.598 3.169.482.837 3.303.48 5.037.41 2.711-.11 5.413-.445 8.12-.684-1.484 2.175-2.759 4.551-4.559 6.422-.666.692-2.573.29-3.904.217-1.91-.106-3.813-.368-5.415-.533-1.693 4.585 7.545 5.021 2.165 9.546-3.941 3.315-6.141-1.055-8.62-2.534-4.454 1.607-8.646 2.972-12.706 4.656-1.68.698-3.077 2.08-4.603 3.151l5.475 3.233c-.344 4.526 2.607 6.378 7.972 5.746 4.098-.483 3.325 3.472 4.077 5.682.315.927-.955 3.43-1.515 3.433-2.03.012-4.089-.651-6.081-1.244-.508-.151-.813-.983-1.535-.285-3.807-.659-7.603-1.397-11.427-1.936-1.549-.218-3.184-.17-4.736.057-2.635.387-4.269-.243-4.276-3.238-.004-1.505.325-4.085-.262-4.327-2.526-1.044-5.318-1.523-8.053-1.94-.88-.135-2.237.258-2.777.908-3.331 4.007-7.307 1.894-10.255.343-7.072-3.72-13.563-1.615-20.296.45-1.203.37-3.398.474-3.865-.191-3.551-5.062-7.637-1.884-11.626-1.148-1.967.364-4.114.785-5.997.363-4.553-1.018-10.753.96-12.741 5.243-1.503 3.238-3.65 3.243-6.034 2.186-1.737-.77-3.079-2.43-4.597-3.694l.508-1.948c-1.522.65-3.53.894-4.472 2.026-2.65 3.183-5.763 4.858-9.87 4.385-2.104-.243-4.357-.404-6.22-1.286-3.934-1.863-7.308-5.358-12.307-2.29-1.052.645-3.136-.382-4.743-.65-2.271-.378-4.54-.765-8.043-1.357-.11-.483-.526-2.286-1.168-5.077-3.26 2.974-8.488.705-10.558 6.085-1.011 2.628-10.98 5.41-14.517 4.5.574-.875 1.194-1.595 1.555-2.428.35-.813.436-1.74.639-2.618-1.043-.224-2.118-.73-3.122-.615-2.195.252-4.354.82-6.868 1.328l-1.073 4.528c-4.883-2.461-11.112 2.738-15.028-3.769-.033-.053-2.857.914-3.079 1.749-.983 3.704-3.491 4.567-6.434 3.326-2.753-1.16-6.112-2.106-6.085-6.471.01-1.73-1.573-3.47-2.627-5.604 3.645-5.36-6.983-6.568-3.656-12.498-11.434.4-21.981-1.726-31.831 3.679-1.455 6.162-5.454 7.322-11.633 8.617-10.04 2.104-17.977-3.271-27.14-5.075-2.191 4.824-4.386 9.824-10.417 10.723-1.472.22-4.247-.25-4.452-.967-.895-3.13-5.405-5.112-3.106-9.265.179-.324.002-1.16-.292-1.378-2.19-1.631-4.374-3.3-6.716-4.693-2.124-1.262-4.445-2.192-7.398-3.614 0-2.8.034-6.844-.027-10.885-.013-.899-.315-1.806-.568-2.685-.558-1.936-1.669-3.86-1.653-5.782.033-4.034.648-8.063.981-11.641l3.773 1.318c.556-1.738 1.738-3.549 1.547-5.201-.521-4.506-.75-4.48 3.222-8.273.86 2.253 2.08 4.62 2.644 7.134.707 3.153 1.541 6.52 1.102 9.623-.526 3.719 1.012 5.086 3.951 6.32 3.276 1.377 6.187.846 7.744-2.094.597-1.128-1.09-3.465-1.698-5.147l13.432-2.625c1.726-5.09 4.753-10.368 3.298-16.936-.93-4.2-.008-8.894-1.323-12.905-1.76-5.373-4.886-10.298-7.417-15.419-.717-1.45-1.405-2.916-2.108-4.378l-7.267 2.88c-1.512-2.483-.101-6.742-5.487-4.3.87-2.153 1-3.797 1.842-4.342 5.342-3.455 4.803-7.794 3.311-13.182-.677-2.448 1.606-5.684 2.433-8.595.389-1.366.903-2.876.675-4.204-.699-4.08-2.831-7.958 1.277-11.847 1.358-1.286.779-4.619 1.112-7.221-1.322-.332-2.245-.323-2.823-.765-.878-.671-1.516-1.656-2.255-2.507.919-.798 1.763-2.126 2.774-2.27 1.56-.22 3.376.882 4.826.484 1.757-.482 4.516-1.82 4.628-2.999.447-4.702.042-9.485-.065-14.238-.044-1.989-.028-3.987-.229-5.962-.234-2.317-.23-4.804-1.122-6.877-1.636-3.803-1.054-7.89 2.293-8.982 3.925-1.28 5.267 2.136 6.285 4.781 1.224 3.18-.844 8.029 4.846 8.723-.436 1.409-.535 3.097-1.405 4.146-.84 1.014-2.475 1.371-5.12 2.699l7.822 4.64c.94-2.668 1.913-4.57 2.259-6.578.82-4.764 1.352-9.578 1.978-14.375.064-.486.187-1.236-.068-1.453-5.268-4.486-2.332-10.513-1.126-14.743 2.447-8.578-1.967-17.08 1.15-25.408.5-1.337-.835-3.36-.024-4.686 1.058-3.753 1.988-7.549 3.228-11.24.593-1.768 1.774-3.339 2.689-4.998.752 1.528 1.744 2.988 2.21 4.599 1.39 4.817 2.575 9.693 4.858 15.267l4.252-10.085c4.255 2.049 6.784.366 9.535-3.446 1.51-2.092 5.839-2.985 8.884-2.958 6.09.053 7.904-1.424 6.963-5.903 1.81-3.735 3.34-6.464 4.484-9.345 1.899-4.778 3.13-9.869 5.464-14.406 1.382-2.688 4.123-4.85 6.631-6.75 4.84-3.668 10.06-6.835 14.863-10.544 1.206-.93 1.431-3.132 1.557-6.11 5.21-.533 10.555-.527 15.578-1.795 3.126-.79 5.825-3.428 8.528-5.483.258-.196-.596-2.326-1.33-3.24-.95-1.184-2.297-2.049-3.835-3.359 6.241-4.208 9.995 1.765 14.826 2.42l1.972-5.44 30.197 1.335 1.15 5.672c3.134-.54 6.02-1.551 8.803-1.32 1.623.135 4.433 2.316 4.385 3.48-.247 5.949 4.493 7.206 8.084 7.847 6.883 1.23 14.013 1.055 21.036 1.526 5.88.395 11.757.835 17.623 1.386.69.065 1.316.945 1.947 1.477.381.322.65.858 1.078 1.029 5.164 2.064 11.784 1.445 14.59 7.924.018.043 1.092-.371 1.167-.397 0-3.207-.215-6.01.152-8.735.091-.679 2.116-1.594 3.153-1.482.747.081 1.525 1.606 1.946 2.627.978 2.373 1.222 5.293 2.795 7.088 1.003 1.144 4.289 1.523 5.78.753 3.364-1.736 6.272-2.566 9.807-.587.93.52 2.97.177 3.85-.554 2.265-1.88 4.259-4.12 6.19-6.364 2.932-3.402 5.789-3.49 9.32-.98 2.017 1.433 4.984 2.879 7.147 2.445 3.439-.69 5.063.71 6.46 3.081 2.394 4.06 5.86 5.478 10.468 5.286 5.622-.233 11.487 1.56 16.273-3.46.717-.753 3.808.755 6.195 1.31l-2.586 4.14c4.08.688 7.795 1.462 11.548 1.91 4.053.482 7.637-.333 8.925-4.324 7.577.505 14.962.126 21.895 1.718 6.247 1.435 11.997.575 17.947-.33 1.064-.163 2.565-.618 2.976-1.403 3.183-6.089 8.028-3.468 12.548-2.6 6.414 1.231 12.547.312 18.67-1.692-2.437-7.711 2.23-12.575 9.724-11.045 3.67.75 7.355 1.424 11.147 3.087l-14.23 3.467c4.18 5.364 8.207 1.497 11.926 1.503 4.161.006 8.39-.472 12.47.108 8.559 1.217 17.036 3 25.555 4.507.621.11 1.584.109 1.92-.263 3.502-3.89 6.847-1.914 10.75-.473 2.562.946 5.883.102 8.818-.284 5.086-.67 10.137-1.607 13.818-2.206 2.29 1.847 4.049 3.036 5.512 4.517 1.243 1.258 2.166 2.837 3.192 4.302 1.77 2.526 3.541 3.263 6.033.662.896-.935 2.704-.92 3.939-1.618 6.21-3.506 12.665-3.267 19.506-2.304 3.017.424 6.369-1.534 10.653-2.708-1 2.73-1.536 4.194-2.066 5.662.153.294.326.847.446.836 7.924-.757 16.687 5.251 23.741-2.95.615-.716 2.138-1.09 3.151-.956 10.842 1.434 21.632 3.125 32.522-.002 1.479-.425 3.487 1.067 5.269 1.608 3.266.993 6.547 1.938 10.095 2.984.214 1.046.105 3.079.817 3.426 1.325.646 4.45.655 4.535.33 1.258-4.805 5.992-4.938 9.17-6.934 4.874-3.06 10.108-4.336 15.795-1.347 1.054.553 3.434-.577 4.756-1.541 3.062-2.232 5.864-3.24 9.587-1.233 1.515.817 3.878-.114 5.778.207 1.915.323 5.166.93 5.357 1.9 1.022 5.197 4.419 7.3 8.938 8.703 1.263.392 2.243 1.695 4.467 3.469-3.547-.33-5.777-.932-7.856-.595-1.399.228-2.582 1.782-3.862 2.743 1.035 1.03 2.02 2.116 3.113 3.08 2.635 2.326 5.319 4.595 8.584 7.404 4.658-1.8 10.072-5.792 16.77-4.304 1.545.343 3.599 1.15 4.23 2.363 2.475 4.747 4.002 5.76 9.346 4.754-.082 4.846 2.96 4.214 6.407 3.409v-3.432c4.061 1.329 7.355 1.46 9.74-2.614.504-.86 3.38-1.1 4.734-.557 6.731 2.703 13.32 5.764 20.168 8.793l-2.103 3.826c.333.49.454.892.703 1.003 5.83 2.582 7.094 6.02 5.877 12.507-.51 2.716.821 5.778 1.23 8.184 1.811-1.865 3.472-3.06 4.385-4.678.721-1.28.49-3.083.745-4.644.22-1.341.53-2.667 1.43-3.804 2.531 6.538 2.531 6.538 10.174 9.663l-9.558 1.98.135 2.103c2.43 0 4.884.213 7.286-.046 4.362-.47 9.066 2.388 10.47 6.649 2.65 8.037 2.601 7.985 8.583 2.343.49-.462 3.242.302 3.308.74.869 5.83 1.383 11.71 2.116 17.561.515 4.114 1.005 8.262 2.055 12.25.193.735 3.94 1.59 4.452 1.002 2.174-2.5 4.537-5.311 5.363-8.402 1.334-4.993 1.427-10.308 2.235-15.457.233-1.482.99-2.948 1.833-4.202.146-.217 2.507.399 2.83 1.098.611 1.324.91 3.084.59 4.492-1.04 4.561-.86 8.829 1.013 12.332 3.61-1.299 6.643-2.251 9.539-3.516.876-.382 2.115-2.04 1.912-2.406-.763-1.376-2.053-2.46-3.53-4.072.881-.553 2.26-1.951 2.824-1.676 2.086 1.018 4.06 2.419 5.77 4.007 1.253 1.163 2.027 2.844 3.014 4.294 1.083-1.287 2.155-2.584 3.257-3.854.196-.227.517-.345 1.363-.886.532 1.789.81 3.538 1.563 5.052.993 1.996 2.357 3.808 3.561 5.698l5.501-4.539c2.771 1.424 2.51 5.312 2.728 8.336.243 3.38-1.096 6.841-1.247 10.29-.15 3.394.449 6.814.494 10.226.052 3.905-.09 7.815-.245 11.719-.249 6.257-.58 12.511-.873 18.767-.032.663.051 1.35-.09 1.988-1.03 4.667-2.102 9.323-3.262 14.426-4.579.709-5.67 2.753-4.353 10.131.85 4.767-.582 6.587-4.965 5.547-1.267-.3-3.001-2.584-2.921-3.858.233-3.727 1.274-7.403 2.062-11.425-3.045-1.04-4.6-.621-5.625 3.314-1.19 4.57-3.788 8.772-6.561 13.219-2.832-7.04.96-15.931-7.109-21.853l-5.072 1.616c8.944 7.094-1.68 12.687-.371 19.284.07.356-1.9 1.587-2.062 1.443-1.006-.89-2.391-2.004-2.493-3.146-.316-3.56-.116-7.166-.116-11.359-4.788 4.314-5.006 4.165-8.443-4.24-.857 2.877-2.473 5.768-2.423 8.63.13 7.447-2.97 13.75-6.272 19.942-1.272 2.385-3.946 4.022-6.646 6.645-.7 5.959-.695 5.91-7.463 5.242-.841-.083-1.973.466-2.599 1.093-.813.814-1.254 2-1.854 3.026 1.268.343 2.665 1.21 3.783.938 4.893-1.192 5.23-.953 4.215 4.159-1.764 0-3.525-.09-5.274.019-3.335.206-5.243 2.161-3.794 5.23 2.374 5.025-1.012 6.876-4.321 7.831-3.417.986-3.983 2.733-3.98 5.732.002 3.586-4.25 6.276-6.725 3.989-4.756-4.398-6.494-.417-9.333 2.626l3.982 4.402c-5.993 3.175-11.722 6.514-17.728 9.244-2.422 1.1-6.04 2.024-8.067.985-3.381-1.732-5.502-1.098-7.855 1.386l-1.295-.733c.592-1.372.808-3.441 1.84-3.997 4.498-2.426 9.234-4.412 14.078-6.646-2.344-11.9-11.685-14.528-21.546-17.117 2.308-2.695 4.332-5.406 6.71-7.759 4.3-4.252 9.13-8.008 13.109-12.526 2.324-2.64 3.508-6.316 5.055-9.596 1.331-2.823 2.85-5.657 3.513-8.657.406-1.831-.648-3.985-1.472-6.596.473-3.497 1.372-6.39 2.589-9.385 1.976-2.598 3.755-5.029 5.233-7.63.58-1.022.963-2.585.613-3.625-.997-2.966-2.416-5.79-3.826-9.027-.055-1.113.047-1.869.449-2.887-.101-3.096-.5-5.929-1.117-9.088-.224-1.095-.23-1.863.027-2.798-.09-1.071-.443-1.975-.996-3.226-.553-2.435-.905-4.523-.997-6.795-.461-1.741-1.184-3.297-2.16-5.135-1.915-4.273-3.575-8.263-5.166-12.632-1.486-2.623-3.043-4.867-4.787-7.204-.188-.092-.24-.507-.2-.86-.587-.91-1.214-1.467-2.142-2.179-5.776-5.385-11.251-10.615-16.774-16.207-.842-.71-1.637-1.059-2.61-1.403-.177.005-.331-.315-.373-.663-2.15-1.357-4.26-2.367-6.662-3.353-.616-.179-.94-.38-1.344-.936-1.644-.79-3.207-1.224-5.113-1.698-1.157-.45-1.97-.862-2.875-1.55-1.378-.559-2.665-.842-4.3-1.081-.771-.132-1.195-.307-1.662-.74-.692-.274-1.34-.292-2.333-.26-.772-.11-1.2-.27-1.738-.766-3.695-.718-7.28-1.1-11.205-1.372-.79-.015-1.24-.14-1.828-.615-4.082-.13-8.025.093-12.36.473-1.793.166-3.194.175-4.86-.093-4.43.76-8.594 1.796-13.054 3.021-.756.215-1.217.24-1.81.041-.715.159-1.298.542-2.148 1.162-1.804.76-3.341 1.283-5.268 1.64-5.395 2.748-10.402 5.663-15.553 8.8-.612.453-1.079.683-1.893.882-.895.585-1.444 1.203-2.097 2.103-.932.826-1.76 1.37-2.95 1.873-1.21.952-2.058 1.946-2.99 3.22-.696.75-1.307 1.22-2.252 1.707-.773.683-1.214 1.35-1.667 2-.012-.015.022.004-.319.006-1.145 1.194-1.95 2.385-2.868 3.874-.675.903-1.238 1.508-2.153 2.117-5.174 4.59-8.498 9.97-9.181 17.04-.291.839-.612 1.366-1.264 1.982-.728.604-1.283 1.06-1.5 1.641-7.36 19.763-7.507 39.62-.61 59.521.593 1.712 1.756 3.227 2.875 4.99.258.501.295.847.217 1.524.357 1.002.83 1.674 1.532 2.63 1.022 2.042 1.815 3.8 2.243 5.608-5.934 4.33-.125 7.255 1.159 10.452 1.255 3.125 4.066 4.785 7.657 2.7.248-.144.343-.55.843-.705 3.473 3.226 6.611 6.323 9.75 9.42-.118 2.091-.332 4.182-.324 6.273.007 1.799.268 3.597.417 5.396l-1.618.22-1.832-3.46-1.83.034c-.17 2.866-.132 5.765-.569 8.59-.392 2.536-1.161 5.041-2.02 7.47-1.729 4.885-3.631 9.709-5.21 13.89l13.928 4.267c-3.142 2.575-5.31 4.976-7.999 6.38-2.674 1.398-5.986 2.73-8.178-1.325-.383-.709-1.907-1.617-2.27-1.395-4.138 2.532-9.754.756-13.383 4.633-.222.237-.776.368-.786.568-.357 6.704-5.73 7.009-10.28 7.43-4.613.427-9.333-.477-14.003-.424-3.238.037-6.469.706-9.015 1.011l-6.706-14.232c10.792-3.673 10.792-3.673 10.932 1.258 3.477-2.039 3.477-2.039-.3-13.734 5.323-4.945 2.489-15.51-4.929-18.375-6.847-2.644-11.825-.548-15.735 5.557-1.118 1.745-4.59 3.273-6.605 2.894-4.657-.876-9.452-2.49-10.812-8.638 1.714-1.264 3.234-1.92 5.078-2.717.783-.164 1.245-.19 1.887.022 1.735-.376 3.29-.989 5.156-1.818 2.209-.78 4.104-1.345 6.316-1.802 1-.295 1.685-.698 2.607-1.352 1.485-.786 2.733-1.321 4.345-1.738 1.03-.453 1.696-1.024 2.48-1.756.116-.162.511-.11.844-.046.909-.498 1.485-1.06 2.204-1.803.143-.18.602-.196.935-.162.872-.56 1.412-1.155 2.094-2.042 1.65-1.51 3.159-2.728 5.018-3.948.801-.7 1.252-1.399 1.77-2.4.787-1.04 1.505-1.776 2.562-2.56.65-.816.961-1.582 1.288-2.565.015-.217.417-.38.756-.43 3.702-3.709 5.318-7.94 4.487-13.29.069-.777.212-1.212.714-1.783 1.425-5.578 2.661-11.035-1.446-16.257-.253-.74-.282-1.206-.076-1.825-.233-.72-.701-1.285-1.41-2.116-3.622-8.67-10.677-13.48-17.884-18.547-5.028-1.68-9.983-3.026-15.28-4.29-.779-.052-1.218-.183-1.697-.637.44-1.53.626-3.032 1.47-3.877 1.276-1.278 3.011-2.099 4.85-3.315 6.171-4.807 12.043-9.412 18.26-14.08.619-.877.89-1.69 1.17-2.774.208-.563.407-.857.95-1.227 4.47-7.247 4.222-14.83 1.92-22.363-.839-2.745-2.969-5.095-4.678-7.69-.167-.063-.183-.422-.119-.786-.572-.951-1.208-1.54-2.135-2.264-1.416-1.41-2.54-2.683-3.701-4.292-.76-.717-1.485-1.097-2.496-1.51-.672-.431-1.057-.83-1.49-1.568-3.363-1.745-6.681-3.15-10.352-4.547-.767-.206-1.18-.42-1.654-.873-.692-.252-1.325-.263-2.308-.253-.778-.155-1.205-.33-1.723-.77-1.033-.272-1.976-.278-3.265-.21-.781-.09-1.216-.254-1.774-.731-2.038-.334-3.954-.354-6.212-.252-1.77-.08-3.198-.285-4.877-.844-5.656-.57-11.061-.927-16.466-.927-2.155 0-4.31.794-6.874 1.37-8.802.179-17.197.215-25.861-.01-2.702-.092-5.134.076-8.006.387-3.488-.032-6.536-.208-9.731-.718-2.376-.537-4.757-1.304-6.782-.756-1.481.402-3.232 2.393-3.522 3.929-.335 1.772.802 3.823 1.335 5.736.035-.017.018.059.056.396 1.35.453 2.663.57 4.318.616.773.078 1.205.225 1.745.717 2.312.806 4.515 1.267 6.965 1.702.605.046.844.254.958.978.825.922 1.657 1.464 2.486 2.057-.003.05.09.088-.057.449.617 2.277 1.38 4.193 2.314 6.546.214 36.974.269 73.511.272 110.048 0 1.8-.443 3.598-.918 5.461-.244.696-.25 1.329-.22 2.308-1.28 2.123-2.597 3.898-4.249 5.643-1.785.744-3.235 1.516-4.98 2.506-.777.203-1.256.188-1.946-.048-1.391.172-2.572.567-4.05 1.156-.765.198-1.23.202-1.819-.005-.712.091-1.301.394-2.169 1.063-.593 2.763-.909 5.16-1.394 7.847 1.226 1.04 2.57 2.291 4.028 2.44 3.21.326 6.476.095 10.035.092 1.067-.243 1.818-.486 3.038-.774 4.86-.035 9.252-.025 13.643-.015l-.27 3.676-23.74 5.816c.369 5.985.69 11.223 1.013 16.878-1.707 1.403-3.415 2.388-6.187 3.987 5.032 2.004 5.04 4.567 2.382 6.823-1.494 1.268-3.836 1.539-6.151 1.221l-8.59 6.8-12.912-9.654-3.32 3.053c-4.612-3.527-4.461-7.701.002-10.097 3.216-1.726 6.326-3.667 9.395-5.648 2.03-1.31 2.995-16.681.911-17.735-1.501-.758-4.369-.858-5.496.091-2.796 2.355-3.568.664-5.033-1.686 10.043-1.89 15.656-8.34 19.14-17.064 2.175-5.442-.07-9.416-5.568-10.94-1.628-.452-2.827-2.45-4.652-4.143-.21-.795.01-1.185.515-1.598.384-.677.483-1.331.544-2.334.14-.773.318-1.197.757-1.667.281-.688.301-1.33.26-2.324.133-.778.327-1.203.823-1.723.283-1.372.264-2.648.146-4.375-.014-3.837.072-7.222.426-10.84-.44-2.413-1.144-4.59-2.058-7.091-3.263-9.452-9.359-16.399-16.33-23.085-.783-.703-1.526-1.066-2.551-1.468-.649-.455-1.015-.87-1.448-1.624-.857-.648-1.646-.956-2.73-1.352-1.283-.774-2.27-1.461-3.318-2.524-.922-.651-1.783-.927-2.978-1.226-2.87-1.556-5.407-3.09-8.008-4.967-1.52-.956-2.978-1.568-4.769-2.216-2.279-1.161-4.224-2.286-6.219-3.75-1.459-.99-2.868-1.64-4.602-2.327-2.039-1.331-3.751-2.624-5.472-4.288-.777-.79-1.547-1.207-2.626-1.721-2.4-2.896-4.489-5.694-6.488-8.861-.673-2.01-1.436-3.651-2.394-5.705-.037-3.094.12-5.776.585-8.624.294-1.012.28-1.857.257-3.008.264-.832.538-1.357 1.177-1.933.72-1.122 1.076-2.194 1.545-3.574 3.194-2.79 6.275-5.273 9.807-7.645 3.247-.178 6.06-.805 8.838-.677 4.404.204 8.786.913 13.43 1.383.483.2.713.427.961 1.008 1.117.986 2.217 1.616 3.169 2.387-.148.14.133-.156.058.198 1.82 2.232 3.714 4.11 5.853 6.225 1.291 2.154 2.338 4.071 3.257 6.35.669 1.72 1.465 3.079 2.452 4.692.288.88.385 1.504.397 2.531.873 2.327 1.832 4.25 3.06 6.187.418.117.565.221.79.65 1.961.32 3.87.511 5.725.274 4.724-.603 5.68-3.604 2.495-8.31-.12-.775-.075-1.237.238-1.977-.807-6.425-1.883-12.572-3.123-19.093-.18-1.453-.195-2.532.054-3.845 1.118-3.906-.699-5.901-4.015-6.784-6.202-1.65-12.4-3.346-18.666-4.71-1.772-.385-3.78.316-6.09.629-1.808-.06-3.203-.23-4.734-.729-2.75-.093-5.363.143-8.285.563-.775.141-1.242.1-1.972-.206-5.463 1.032-10.86 1.829-15.796 3.787-3.61 1.431-6.616 4.388-10.192 6.832-4.425 4.743-8.55 9.32-13.058 13.965-.623.95-.863 1.832-1.07 3.029-.328.824-.687 1.335-1.37 1.949-1.603 4.15-3.566 8.131-3.969 12.264-.406 4.172.735 8.495 1.37 13.063.153.779.134 1.246-.128 1.966 1.018 3.39 2.28 6.526 3.81 9.806.426.713.585 1.283.51 2.02.27.72.775 1.273 1.407 2.09.352.795.576 1.327.751 2.108.159.658.366 1.067.89 1.657 4.27 3.784 8.225 7.387 12.22 11.343 1.45 1.01 2.86 1.667 4.135 2.471-.135.147.116-.163.085.247 1.103.807 2.24 1.203 3.514 1.629.14.03.225.302.275.683.917.656 1.785.932 2.76 1.225.108.018.232.196.233.504.653.5 1.305.693 2.25.887.78.294 1.269.587 1.806 1.275.925.661 1.801.927 2.924 1.178.603.056.844.263 1.027.979.913.647 1.768.92 2.94 1.199 1.549.789 2.78 1.571 4.038 2.706 1.645 1.125 3.264 1.897 5.121 2.707.558.157.783.375.96 1.095.924.713 1.8 1.023 2.766 1.36.088.027.222.154.247.555.855.805 1.687 1.208 2.646 1.623.128.011.248.239.262.597 1.069 1.091 2.123 1.824 3.1 2.59-.077.033.045-.083.003.27.65.83 1.341 1.306 2.3 1.951 1.043 1.393 1.821 2.617 2.56 4.23.714 1.454 1.467 2.518 2.433 3.786.274.782.335 1.36.177 2.07.148.715.514 1.297 1.053 2.186.154.771.135 1.234-.148 1.967-.088 2.717.089 5.163.345 7.952-.067.782-.213 1.22-.678 1.751-1.268 2.718-2.219 5.342-3.234 8.278-1.236 1.492-2.407 2.673-3.93 3.808-.907.591-1.46 1.228-2.205 2.135-1.404.73-2.616 1.193-4.078 1.395-6.733-.094-13.217.072-20.06.268-5.569-3.72-10.777-7.472-15.892-11.67.512-3.743-.53-5.664-4.53-5.195-1.034-1.55-1.794-2.96-2.468-4.772-1.478-3.365-3.044-6.332-4.851-9.485-.31-.78-.377-1.373-.297-2.37-.289-2.106-.532-3.891-1.235-5.473-.387-.871-1.545-1.4-2.701-1.99-.812.018-1.278-.058-2.009-.4-1.892-.343-3.6-.739-5.114-.362-.752.188-1.151 1.793-1.631 3.104.02.812-.04 1.277-.355 1.969.178 1.735.611 3.244 1.22 5.06.149.77.123 1.232-.15 1.848-.395.708-.544 1.261-.693 1.814-2.764 1.977-5.528 3.954-8.634 5.624-.664-1.077-.988-1.848-1.4-2.961.07-.774.225-1.206.686-1.686.36-1.016.415-1.984.37-3.34-.066-1.462-.03-2.533-.027-3.983-4.892-3.632-7.851-3.603-9.83.064-3.066 6.66-6.106 12.97-9.482 19.32-.79.968-1.245 1.895-1.805 3.125-1.076 1.127-2.047 1.95-3.36 2.76-1.055.683-1.767 1.377-2.537 2.21-.058.14-.358.158-.696.06-.989.412-1.64.922-2.58 1.647-1.426.486-2.563.759-3.825.811-.718.104-1.311.428-2.25.946-1.128.149-1.91.102-3.003-.2-8.327-.48-16.342-.701-24.69-.969-4.5-1.797-6.047-5.11-5.614-9.702.443-1.094.692-1.903.693-2.713.023-35.776.035-71.552-.012-107.328-.002-1.226-.614-2.452-1.031-4.055.737-5.13 2.734-8.846 8.303-9.315 1.158.612 2.223 1.41 2.998 1.188 3.347-.954 7.476-1.376 9.618-3.618 1.639-1.715 1.629-6.233.594-8.794-.582-1.443-4.711-1.513-7.272-2.068-.948-.205-2-.155-2.97-.002-2.755.434-5.493.982-8.672 1.667-15.454.032-30.473-.12-45.649-.604-2.893-.561-5.634-.955-8.363-.879-.555.016-1.06 1.805-1.488 3.196.077 2.43.053 4.439.024 6.789.982.484 1.968.628 3.336.684 1.111.136 1.842.36 2.642.877 1.03.29 1.993.29 3.298.23.776.096 1.207.254 1.751.756.982.498 1.85.652 3.026.796.823.281 1.337.573 1.842 1.186.864.989 1.737 1.657 2.883 2.574.598 1.392.924 2.536.936 3.948-.46 9.154-.8 18.042-.713 26.926.173 17.443.638 34.883.874 52.326.125 9.245-.02 18.494.06 27.74.015 1.575.552 3.146 1.003 5.122-.063 1.805-.283 3.208-.763 4.666-.227.704-.194 1.353-.127 2.37-2.03 2.725-4.092 5.081-6.368 7.205-2.066.486-3.92 1.204-6.067 2.12-.754.223-1.213.248-1.891-.006-2.4.593-4.58 1.464-6.777 2.6-.134.397-.25.53-.717.768-2.485 6.457-.94 8.902 5.228 8.943 1.162.008 2.324.03 3.486.045m-116.21-183.897c1.74 1.257 3.482 2.513 5.265 4.419.97.192 1.938.385 3.599.534.428.156.856.312 1.494 1.063 1.282-.05 2.564-.102 4.583-.375.759.07 1.518.14 2.743.778 4.283.25 8.262-.198 10.936-5.114 2.584-3.15 5.167-6.3 8.476-9.572 2.489-3.85 3.335-7.803.384-12.674-1.206-6.594-5.29-11.27-10.33-16.068-2.791-1.266-5.481-3.083-8.407-3.626-2.38-.442-5.043.642-8.17 1.423-.46-.008-.92-.016-1.653-.495-.581.419-1.163.838-2.278 1.715-1.85.934-3.701 1.868-6.23 2.753-.756.884-1.511 1.768-2.5 3.25-.578.603-1.156 1.205-2.436 1.863-2.214 2.944-5.37 5.572-3.151 10.773-.086 1.409-.173 2.817-.802 4.7.2 3.185-.599 6.751 3.75 8.976.675 1.107 1.35 2.215 2.004 4.036.713.46 1.425.92 2.722 1.641"/><path fill="#070707" d="M815.06 416.459c.423.175.847.35 1.825.729 1.765.506 2.974.808 4.184 1.11.813.412 1.627.823 3.005 1.53 2.034.795 3.504 1.296 4.973 1.797l1.421.884a436 436 0 0 0 6.546 3.398s.154.32.473.607c1.051.682 1.783 1.077 2.515 1.473 5.476 5.23 10.951 10.46 16.778 16.158a50 50 0 0 0 2.051 2.22s.052.414.237.848c1.697 2.703 3.209 4.972 4.72 7.24 1.661 3.99 3.321 7.981 5.199 12.595.79 2.076 1.364 3.527 1.937 4.979.352 2.087.704 4.175 1.163 6.922a49 49 0 0 0 .828 3.08c.006.77.011 1.537.113 3.051.378 3.474.659 6.203.94 8.931a95 95 0 0 0-.363 2.97c-.745 7.148-1.435 13.592-2.125 20.037-.9 2.894-1.798 5.788-2.69 9.09-.347 1.04-.702 1.67-1.216 2.763-.301 1.017-.444 1.573-.587 2.129-1.344 2.639-2.688 5.278-4.302 8.452-.875 1.755-1.48 2.975-2.087 4.195 0 0 .285.226-.156.216-.979.967-1.517 1.944-2.054 2.922-7.372 6.82-14.744 13.642-22.635 20.764-1.23.85-1.941 1.398-2.653 1.947-.934.353-1.868.706-3.277 1.307-1.595.89-2.713 1.53-3.832 2.173-.83.282-1.66.564-3.088 1.026a280 280 0 0 0-6.928 2.928c-.466.008-.932.015-1.953.136-1.047.377-1.54.641-2.032.906-.477-.013-.954-.026-1.968.09-1.037.381-1.538.635-2.42.78-1.117.132-1.854.37-2.998.483-9.809-.087-19.212-.049-28.614-.01-.736-.2-1.472-.4-2.777-.725a22 22 0 0 0-2.225-.203c-.418-.219-.837-.438-1.802-.78a34 34 0 0 0-2.196-.307c-.414-.207-.828-.413-1.826-.791-3.778-1.27-6.972-2.368-10.165-3.467-.253-.194-.506-.388-1.22-.76-4.233-2.214-8.005-4.25-11.777-6.287-1.326-1.04-2.65-2.08-4.294-3.15-3.456-3.125-6.594-6.222-10.096-9.768-3.33-4.358-6.298-8.268-9.266-12.178-.792-1.757-1.585-3.515-2.53-5.861-.6-1.278-1.047-1.967-1.494-2.657-.037-.346-.074-.692-.295-1.58-1.618-5.648-3.369-10.688-4.427-15.87-3.473-17.007-1.556-33.653 3.956-49.983.321-.528.642-1.055 1.206-2.117a2793 2793 0 0 1 9.26-16.821c.563-.605 1.126-1.21 2.105-2.167 1.246-1.51 2.075-2.666 2.905-3.822 0 0-.034-.02.279-.073.775-.684 1.237-1.315 1.699-1.946.612-.471 1.223-.942 2.235-1.761 1.279-1.269 2.158-2.189 3.037-3.11.828-.544 1.655-1.088 2.902-1.954.99-.89 1.56-1.46 2.13-2.03.466-.232.933-.462 1.9-.947 5.528-3.037 10.558-5.82 15.588-8.602a158 158 0 0 1 5.16-1.681c1.031-.43 1.515-.746 1.998-1.062.46-.026.922-.051 2.065-.18 4.766-1.011 8.849-1.92 12.932-2.83 1.401-.009 2.802-.018 5.038-.03 4.575-.094 8.316-.185 12.056-.276.45.124.9.249 1.987.504a903 903 0 0 0 11.017 1.47c.428.159.856.319 1.805.665 1.081.218 1.64.25 2.2.281m-69.25 98.884c2.663 13.884 6.854 27.116 16.139 38.212 19.405 23.19 55.976 20.424 67.814-9.848 3.473-8.88 5.696-18.529 6.75-28.019 2.443-21.969.75-43.665-9.34-63.852-5.434-10.874-12.645-20.47-24.621-24.932-20.904-7.788-41.667 1.4-50.869 22.745-9.005 20.889-8.996 42.76-5.872 65.694"/><path fill="#090909" d="M502.361 563.169c1.171-1.181 2.342-2.362 3.906-3.968 1.336-3.036 2.28-5.647 3.224-8.258.147-.438.293-.875.59-1.951-.003-3.068-.157-5.498-.31-7.928.018-.463.037-.926 0-1.972-.353-1.07-.652-1.557-.951-2.044a17 17 0 0 0-.376-2.281c-.933-1.643-1.674-2.737-2.414-3.831-.778-1.224-1.556-2.448-2.632-4.153-.941-.984-1.583-1.488-2.225-1.992 0 0-.122.116-.102-.24-1.005-1.112-2.031-1.868-3.057-2.625 0 0-.12-.228-.373-.563-1.017-.79-1.781-1.245-2.546-1.7 0 0-.134-.127-.398-.45-1.055-.705-1.845-1.087-2.636-1.469-.13-.315-.356-.533-.986-1.016-1.898-1.154-3.486-1.943-5.074-2.733a261 261 0 0 0-4.197-2.624 78 78 0 0 0-2.814-1.304c-.125-.341-.366-.548-1.18-.856-1.225-.599-1.993-.96-2.762-1.321a45 45 0 0 1-1.873-1.177 15 15 0 0 0-2.135-.898s-.124-.178-.39-.485c-1.06-.644-1.856-.98-2.652-1.317 0 0-.085-.272-.405-.588-1.314-.795-2.308-1.274-3.303-1.753 0 0-.25.31-.266-.132-1.352-1.138-2.689-1.834-4.026-2.53-3.954-3.602-7.909-7.205-11.909-11.004-.4-.76-.755-1.325-1.11-1.89a12 12 0 0 1-.715-2.164c-.448-1.029-.853-1.491-1.258-1.954-.16-.57-.32-1.14-.774-2.238-1.376-3.578-2.457-6.625-3.537-9.673.018-.467.037-.934.043-2.16.913-8.833 1.838-16.909 2.763-24.984.36-.51.72-1.02 1.324-2.032.556-1.304.866-2.107 1.176-2.91 4.125-4.577 8.25-9.154 13.032-13.84 8.164-5.761 16.966-8.241 25.894-10.412.467.041.934.083 2.138.102 3.155-.146 5.574-.27 7.993-.393 1.394.17 2.79.34 4.897.65 7.633 1.542 14.535 3.049 21.482 4.304 3.847.695 6.136 2.662 6.724 6.544.016 1.08.03 2.158.066 4.016 1.013 6.84 2.006 12.903 3 18.966-.045.462-.09.924-.105 2.128.836 4.438-.223 6.603-4.433 6.509-1.237-.028-2.486.5-3.73.773-.147-.104-.294-.208-.764-.692-1.19-2.327-2.056-4.275-2.923-6.222a61 61 0 0 0-.427-2.466c-.884-1.968-1.632-3.342-2.38-4.717a259 259 0 0 1-3.37-6.324c-2.085-2.464-3.939-4.353-5.792-6.243 0 0-.281.296-.212-.155-.989-1.111-2.048-1.771-3.107-2.431-.23-.226-.461-.452-1.181-.936-7.78-3.553-15.097-4.754-22.482-.533-3.08 2.482-6.162 4.964-9.66 7.893-.813 1.46-1.209 2.474-1.605 3.487-.275.525-.55 1.05-1.048 2.097-.259 1.334-.294 2.146-.33 2.959-.157 2.682-.314 5.364-.38 8.796.864 2.411 1.636 4.073 2.407 5.735 2.09 2.799 4.179 5.597 6.69 8.796a38 38 0 0 0 2.522 1.79c1.713 1.292 3.425 2.585 5.584 4.224 1.808 1.018 3.17 1.689 4.532 2.36a322 322 0 0 1 6.312 3.716c1.88.981 3.285 1.617 4.69 2.253a2021 2021 0 0 0 8.128 4.893c1.296.64 2.075.986 2.853 1.331a78 78 0 0 1 3.371 2.448c1.167.722 1.926 1.057 2.685 1.393.366.415.732.83 1.485 1.576 1.086.726 1.786 1.12 2.485 1.515 6.933 6.347 13.03 13.294 16.19 23.106.702 2.777 1.298 4.87 1.893 6.964-.087 3.385-.173 6.77-.373 10.886a80 80 0 0 0-.234 4.19c-.194.426-.388.851-.776 1.784a12 12 0 0 0-.265 2.214c-.179.425-.357.849-.762 1.772-.339 1.067-.452 1.637-.565 2.206-.22.39-.44.781-.601 1.51-.57 1.304-1.195 2.269-2.128 3.712-2.69 3.905-5.075 7.333-7.46 10.76-2.539 2.12-5.078 4.238-8.11 6.628a24 24 0 0 0-2.226 1.969s-.013.063-.3.038c-.966.443-1.646.911-2.694 1.392-4.124 1.662-7.88 3.311-11.637 4.96-.462.03-.925.059-2.067.208-9.774.504-18.868.887-28.305 1.09-1.107-.199-1.871-.217-2.87-.465-1.088-.278-1.94-.326-2.79-.374-.422-.189-.842-.378-1.82-.776a118 118 0 0 0-5.179-1.19c-1.407-.513-2.815-1.025-4.785-1.76-1.778-.578-2.995-.936-4.21-1.293-.763-.48-1.526-.96-2.814-1.646a82 82 0 0 0-2.16-.763c-.755-.815-1.511-1.63-2.364-2.966-.309-1.02-.521-1.518-.733-2.015l-.156-2.943a26 26 0 0 0-.789-3.074 59 59 0 0 0-.15-2.904c-.3-1.11-.52-1.62-.742-2.13-.054-1.08-.109-2.161-.252-3.855-.316-1.121-.542-1.63-.769-2.139a46 46 0 0 0-.22-2.968 96 96 0 0 0-1.019-3.957c.011-.47.022-.94-.019-2.015a27 27 0 0 0-.882-3.017c.027-.461.053-.923.02-2.054-.4-2.088-.74-3.507-1.08-4.927.059-.464.118-.929.408-1.975 2.388-1.134 4.545-1.687 6.701-2.24.466.074.932.15 1.912.458 1.55 2.67 2.586 5.106 3.621 7.542.067.592.135 1.185.43 2.33 1.746 3.542 3.262 6.53 4.779 9.52.76 1.411 1.52 2.823 2.592 4.727a209 209 0 0 0 4.399 5.286c5.208 3.752 10.416 7.504 16.262 11.482 7.161 2.346 13.646 2.949 20.033-.266 1.212-.462 2.424-.924 4.146-1.676a23 23 0 0 0 2.24-2.068M401.821 557.935c.97-.823 1.94-1.646 3.331-2.842.89-1.281 1.358-2.189 1.827-3.096 3.04-6.31 6.08-12.62 9.543-19.452 3.437-.185 6.45.151 9.465.487a43 43 0 0 1-.26 3.818 45 45 0 0 0-.42 3.174c-.156.432-.312.864-.58 1.894a47 47 0 0 0-.228 3.123l-.713 2.792c-.145 1.12-.143 1.664-.14 2.208-.224.74-.447 1.48-.828 2.791-.149 1.123-.14 1.674-.347 2.551-.293 1.093-.37 1.859-.69 2.796-.22.736-.195 1.3-.379 2.196-.265 1.099-.324 1.865-.613 2.923-.576 2.776-.92 5.258-1.465 8.071-.259 1.092-.317 1.853-.601 2.803-.384.738-.542 1.289-.711 1.832-.01-.006-.002.016-.47-.036-3.458-.006-6.45.072-9.441.08-32.756.089-65.51.143-98.266.266-7.575.028-7.575.131-8.2-7.343.116-.132.232-.265.737-.722 2.468-.97 4.546-1.615 6.624-2.26.46-.026.92-.051 2.02-.153 2.405-.721 4.17-1.365 5.933-2.01 2.063-2.355 4.125-4.71 6.398-7.613.188-1.114.167-1.681.145-2.249.22-1.402.439-2.805.74-4.938.12-35.614.183-70.499.138-105.383-.003-2.224-.838-4.447-1.286-6.67a60 60 0 0 0-1.245-3.97c-1.137-1.226-2.008-1.916-2.879-2.606-.514-.292-1.028-.584-2.008-1.167-1.304-.474-2.143-.657-2.982-.84-.431-.156-.862-.314-1.858-.659-1.425-.216-2.286-.244-3.146-.273a57 57 0 0 0-2.814-.8c-1.443-.354-2.267-.582-3.09-.81.023-2.009.047-4.018.303-6.711 3.38-1.03 6.527-1.375 9.674-1.72 15.02.15 30.04.302 45.925.455 5.014-.15 9.166-.242 13.31-.481 2.55-.147 4.216.388 4.066 3.449-.127 2.593.689 5.375-3.38 5.908-3.031.396-5.97 1.495-8.95 2.282-5.343.753-7.34 4.469-8.289 9.95-.207 1.723-.367 2.717-.368 3.71-.043 35.325-.079 70.65-.07 105.975.001 1.448.45 2.896.69 4.343-.123 4.31 1.425 7.622 6.162 9.735 8.637.543 16.7.726 24.764.909.782.046 1.563.093 2.949.088 1.109-.324 1.613-.597 2.117-.87 1.137-.272 2.274-.545 4.01-.974 1.268-.64 1.938-1.123 2.608-1.606 0 0 .3-.019.671-.174 1.104-.83 1.836-1.506 2.567-2.181"/><path fill="#FEFFFF" d="M166.242 329.057c-1.435.06-2.742.42-3.538-.063-2.162-1.309-4.106-2.976-5.082-3.708-.165-3.891-.885-7.117-.276-10.068.707-3.432-.052-7.938 4.8-9.521 1.135-.37 1.998-1.571 3.121-2.502 4.456 3.75-2.713 4.298-1.393 7.856l18.476-3.168.616 1.723c-1.927 3.404-4 6.738-5.705 10.25-.654 1.347-1.18 3.856-.501 4.497 1.077 1.016 3.214.914 4.905 1.275 1.302.278 3.367.169 3.728.902.5 1.02-.117 2.72-.55 4.03-.452 1.363-.99 2.878-1.967 3.842-1.388 1.37-3.213 2.298-4.851 3.414-.743-1.53-1.961-3.01-2.13-4.601-.366-3.456-4.562-5.522-9.653-4.158M761.922 622.803c-2.63.006-4.925.391-7.109.054-1.303-.202-2.43-1.537-3.638-2.362 1.226-.35 2.436-.777 3.681-1.035 2.31-.478 4.64-.857 6.843-1.78-11.752-6.344-15.374-5.611-16.232 1.908l-4.718-1.475-.435.773 3.195 2.941-12.067 4.515c-1.008-3.948-.555-6.967 4.622-7.434.863-.078 2.123-.685 2.412-1.376 1.418-3.391 2.401-6.97 3.918-10.31.464-1.02 2.135-2.083 3.253-2.083 1.873 0 3.745.837 5.979 1.415.316-.271.946-.787 1.55-1.332 1.069-.963 2.123-1.944 3.183-2.917.267 1.277.23 2.748.883 3.78.733 1.158 1.975 2.494 3.201 2.745 4.009.82 8.11 1.182 12.177 1.72l.84 1.976c-3.719 3.45-7.438 6.9-11.538 10.277M457.86 615.015c-1.005.677-1.762 1.637-2.361 1.547-6.69-1.005-7.086 5.332-11.229 9.036 2.308.626 3.739 1.337 5.17 1.339 3.696.005 5.8 1.509 5.526 5.338-.278 3.874 1.625 4.86 5.121 4.823 1.684-.018 3.379 1.005 4.869 2.077-5.723 2.956-25.87 1.844-30.906-1.28l17.762-2.17-.077-1.985c-5.774-6.026-14.012-.138-20.407-3.006 1.682-8.358 10.956-6.885 14.8-13.012-1.302 0-2.262.281-2.852-.066-.858-.507-1.448-1.466-2.153-2.232.915-.754 1.777-2.073 2.753-2.164 4.211-.392 8.456-.502 12.688-.49.54.002 1.077 1.327 1.295 2.245M418.948 573.984c.059-.762.117-1.523.678-2.702.831-1.371 1.16-2.325 1.49-3.28.987.937 2.042 1.814 2.946 2.826 1.148 1.284 2.54 3.967 3.184 3.784 2.047-.582 4.056-1.962 5.57-3.528 1.037-1.073 1.225-2.968 1.97-4.971l7.972 10.915c-.698 1.23-1.604 2.601-2.289 4.077-2.048 4.414-4.725 6.843-10.15 5.064-4.02-1.318-8.38-1.6-12.84-2.387.19-1.847.353-3.428.53-5.732a98 98 0 0 0 .001-2.03s-.009-.022.301-.02c.42-.67.528-1.343.637-2.016M517.635 623.407c.016 2.832.26 5.403.6 9.008 3.854 1.633 11.349-1.218 13.228 6.566-4.174 3.3-5.736 3.012-8.749-1.765-7.55 3.52-7.55 3.52-10.305-1.518-1.7 0-3.327.15-4.913-.041-1.618-.197-3.195-.73-5.746-1.346.788-2.59 1.502-5.137 2.416-7.61.083-.225 1.96-.238 2.133.099.66 1.281.964 2.747 1.607 4.8l6.279 1.276.653-1.047-4.609-3.43 4.373-11.208c5.957 1.483 6.385 2.36 3.033 6.216"/><path fill="#EEEEED" d="M417.543 575.968c.471.487.475.923.464 1.686-1.403.344-2.79.362-5.06.376-6.57-.004-12.258-.002-17.944 0L363 577.995l-31-.003c-7.022.012-14.043.024-21.534.054-1.63.003-2.792-.019-3.954-.027-6.169-.041-7.713-2.486-5.228-8.943.976 7.368.976 7.265 8.551 7.237 32.755-.123 65.51-.177 98.266-.266 2.991-.008 5.983-.086 9.442-.08"/><path fill="#E4E4E4" d="M284.022 565.874c4.7-.836 6.58.44 6.948 4.715.493 5.723-.751 7.4-5.624 7.41-7.803.016-15.606-.022-23.878-.038-.913-.002-1.357-.005-2.602-.005-6.824.008-12.847.012-18.869.017-3.692.014-7.385.027-11.538.057-3.092-1.061-7.825 2.516-7.718-3.404 2.247.605 3.979 1.566 5.714 1.573 19.585.077 39.17.012 58.755-.032 1.104-.003 2.207-.15 3.234-.225 1.767-5.062 1.088-8.675-4.422-10.068"/><path fill="#FEFFFF" d="M657.581 338.734c-1.535 1.195-2.76 2.234-4.329 3.565-1.286-1.128-2.355-2.462-3.743-3.173-1.403-.72-3.378-1.523-4.652-1.057-3.225 1.178-5.57.83-6.704-2.515-.431-1.272-.25-3.99.22-4.13a44.5 44.5 0 0 1 9.242-1.674c1.603-.12 3.281.612 4.91 1.017 1.29.32 2.848.381 3.774 1.164 2.082 1.762 3.845 3.9 6.225 6.395-2.163.118-3.398.185-4.943.408M836.928 616.183c5.36.702 10.33 1.349 16.16 2.108-.94 2.434-1.676 5.609-3.373 8.137-.728 1.084-3.456.826-5.276 1.177l-.603-3.762c-1.747-.217-4.141-.235-6.344-.892-1.304-.389-3.199-1.762-3.227-2.74-.04-1.337 1.443-2.719 2.663-4.028"/><path fill="#E4E4E4" d="M585.464 577.16c-4.858.041-9.25.031-14.105-.161-.465-.182-.3-.602.012-.858 24.092-.708 47.87-1.161 71.648-1.614-1.52.657-3.041 1.314-4.79 2.221-.67.26-1.11.272-2.314.289-6.15.33-11.535.655-16.92.98-11.022-.303-22.043-.605-33.531-.856"/><path fill="#FEFFFF" d="M332.006 578.376c10.015-.382 20.036-.381 30.525-.377-1.14 1.885-2.487 4.18-4.485 5.452-.842.535-3.059-1.091-4.593-1.25-2.3-.273-4.594-.662-6.901-.763-1.009-.045-2.264.216-3.03.818-5.42 4.263-9.603 3.035-11.516-3.88"/><path fill="#F7F7F7" d="M776.088 579.66a371 371 0 0 1 28.527-.077c.409.728.4 1.073.39 1.417-3.51 2.178-6.16 5.372-11.153 5.443-4.516.065-8.143-.073-11.482-3.519-1.484-1.532-4.089-1.979-6.282-3.264"/><path fill="#FEFFFF" d="M467.987 579.044c.764.019 1.528.037 2.75.574 2.729 1.131 5 1.744 7.27 2.356-.49 6.233-6.912 10.854-12.676 8.725-1.013-.374-1.763-3.066-1.609-4.583.188-1.843 1.463-3.575 2.569-5.752a11.7 11.7 0 0 1 1.696-1.32M476.742 623.07c-2.615-5.518-2.345-6.001 2.971-6.07.33-.004.667-.047.988.007 3.003.507 6.898-1.634 8.576 2.745.276.721-.038 2.42-.385 2.512-3.614.956-6.754 5.572-11.07 1.632-.24-.219-.545-.365-1.08-.825M358.311 323.084c3.618-2.84 8.811-2.938 10.813-.267.796 1.062 1.552 2.892 1.15 3.91-.412 1.046-2.28 2.179-3.471 2.137-3.85-.137-7.683-.796-11.522-1.254l-1.75-2.372c1.509-.617 3.018-1.233 4.78-2.154M612.474 622.851c-4.153-1.488-.91-3.232-.298-4.494.425-.877 2.11-1.571 3.246-1.591 2.71-.05 5.448.206 8.137.601 3.905.573 6.151 3.038 8.006 7.92-6.642-4.885-12.686-3.47-19.091-2.436M110.893 424.029a1117 1117 0 0 0-4.44 8.737c-.852-5.384-5.754-10.679.049-16.422 4.217.585 5.709 3.062 4.39 7.685"/><path fill="#F8F9F8" d="M619.005 578.386c5.375-.694 10.76-1.02 16.58-1.33.221 5.303-2.969 7.725-9.287 6.328-2.64-.584-4.868-3.029-7.293-4.998"/><path fill="#FEFFFF" d="M478.213 628.534c.492 1.615.774 3.08.762 4.542-.04 5.236-1.477 6.28-7.666 5.357l-1.234-9.43c3.179-.252 5.486-.436 8.138-.469M618.214 593.993c4.655-3.307 7.418-2.376 8.838 2.376.385 1.289 1.633 2.304 2.115 3.584.344.912.462 2.654-.016 2.97-.91.6-2.93 1.025-3.42.509-2.713-2.852-5.104-6.01-7.517-9.44M654.387 626.446c2.274-.738 4.228-1.288 6.182-1.838l-.057-1.512q6.28 2.954 12.56 5.907l.428 1.012c-2.22.127-4.445.416-6.658.341-3.38-.113-6.763-.76-10.126-.646-2.631.09-4.627.453-2.329-3.264M261.862 590.213c1.94.61 3.494 1.303 6.009 2.424-2.43 2.52-4.771 6.247-5.938 5.91-3.05-.882-5.587-3.54-8.328-5.491l.498-1.397c2.457-.455 4.914-.91 7.759-1.446M395.052 578.406c5.637-.378 11.324-.38 17.478-.365.941 4.182-.352 5.861-4.841 4.444-2.928-.924-6.154-.86-9.173-1.556-1.237-.285-2.282-1.406-3.464-2.523M833.46 608.737c-1.93 1.86-3.276 4.337-5.253 5.041-4.366 1.556-6-.142-7.052-7.878l4.593 4 9.424-4.203c-.804 1.622-1.109 2.237-1.713 3.04M305.289 322.106c4.906-.415 5.782 2.615 6.513 7.69l-10.58-2.767c1.226-1.62 2.453-3.24 4.067-4.923M451.27 606.46c-1.104 1.656-2.297 3.86-3.968 4.317-3.331.911-6.553.131-8.009-4.03 3.793-3.32 7.775-1.256 11.978-.287"/><path fill="#EEEEED" d="M478.462 581.981c-2.725-.62-4.996-1.232-7.382-2.182 8.98-.722 18.073-1.105 27.562-1.398-3.328 2.5-6.814 5.217-11.87 3.827-2.455-.675-5.227-.196-8.31-.247"/><path fill="#FEFFFF" d="M240.066 578.349c5.953-.38 11.976-.385 18.467-.39.084 1.54-.3 3.076-.759 4.913-6.173-1.451-11.906-2.8-17.708-4.523M107.058 411.003c-3.883-3.43-1.05-5.969.453-9.158 2.955 2.168 6.407 3.472 5.074 7.79-.88 2.848-2.938 2.743-5.527 1.368M343.93 322.154c1.841.373 3.426.398 4.687 1.05.976.504 2.364 2.294 2.151 2.64-.749 1.218-2.398 3.076-3.186 2.854-2.573-.727-4.918-2.265-7.35-3.492 1.1-1.043 2.201-2.086 3.698-3.052M618.948 603.302c1.105.64 2.018 1.163 2.566 1.943 1.448 2.06 2.368 4.472-.49 5.872-1.064.521-3.533-.13-4.314-1.096-1.496-1.846-3.078-4.387.516-6.104.45-.215.909-.41 1.722-.615M767.42 642.656c-1.992-.63-3.648-1.414-5.304-2.198.69-1.173 1.135-3.042 2.116-3.386 2.626-.92 5.501-3.2 8.853.212l-4.168 1.103c-.425 1.506-.793 2.81-1.497 4.269M421.02 563.006c.058-.766.117-1.532.633-2.692.43-1.031.4-1.669.372-2.306.076-.766.153-1.532.665-2.616.725-.362 1.015-.388 1.308-.397.703 1.08 1.467 2.126 2.1 3.247 2.997 5.311 2.528 6.217-3.906 6.704a19 19 0 0 0-1.172-1.94M283.625 596.179c1.741 2.29 1.143 3.053-1.186 2.42-2.45-.667-4.847-1.534-7.804-2.487-.048-.722-.374-2.127-.15-3.44.154-.905.937-2.185 1.677-2.376.752-.195 1.94.574 2.684 1.215 1.592 1.37 3.02 2.931 4.78 4.668M427.067 639.846c-2.64-.058-4.896.095-7.128-.077-.948-.073-1.842-.828-2.76-1.273.425-.777.833-2.217 1.278-2.228 4.16-.105 8.638-1.547 12.938 2.933-1.788.33-2.863.527-4.328.645M111.511 393.934c-.257 1.007-.194 1.786-.538 2.28-.903 1.294-1.984 2.464-2.994 3.684-.652-.777-1.965-1.696-1.834-2.305.451-2.102 1.406-4.096 2.17-6.131 1.11.704 2.22 1.409 3.196 2.472M819.983 629.46c-1.8-.109-3.27-.383-4.74-.658.626-1.204 1.17-2.462 1.9-3.6.984-1.533 2.112-2.974 3.178-4.455l1.157.66c-.388 2.63-.776 5.258-1.495 8.053M810.144 622.257c-.855 2.584-1.487 4.883-2.104 7.124-4.441-3.156-4.914-5.983-1.265-8.55 1.73-1.217 2.192-1.07 3.369 1.426M494.434 599.708c.342 1.932.46 3.663.285 5.364-.021.206-2.329.475-2.372.339-.676-2.167-1.156-4.395-1.946-7.732 2.103 1.028 2.912 1.423 4.033 2.029M562.007 604.39c2.88-1.09 6.022-2.734 7.643 1.571-4.322 3.086-5.834 2.835-7.643-1.57M504.398 607.396c-6.077.317-2.32-4.579-3.748-6.85 3.873.577 4.666 3.112 3.748 6.85M711.669 627.485c1.473 1.91 2.636 3.657 3.8 5.404l-.398 1.122-6.548-3.07c.946-1.206 1.891-2.412 3.146-3.456"/><path fill="#EEEEED" d="M526.335 563.01c2.011-3.442 4.396-6.87 7.085-10.48.067 4.757-1.08 9.099-7.085 10.48"/><path fill="#F7F7F7" d="M742.034 566.35c3.74 1.681 7.512 3.718 11.513 6.04-4.773.446-8.943-1.021-11.513-6.04"/><path fill="#FEFFFF" d="M655.433 614.873c.017-1.573.3-2.9.58-4.228.982.295 2.39.296 2.841.954.639.93.572 2.346.806 3.554-1.321-.012-2.642-.023-4.227-.28M176.573 304.676c-1.497.588-2.873.842-4.25 1.096l-.079-3.252c1.483.607 2.966 1.215 4.329 2.156M752.291 641.887c-.914-1.109-1.605-2.112-1.9-3.22-.074-.278 1.427-1.42 1.693-1.268 1.419.81 2.675 1.904 5.033 3.693-2.434.47-3.445.666-4.826.795M682.67 336.846c-2.218.452-4.073.804-5.928 1.155l-.562-1.774 6.448-2.063c.136.86.271 1.72.043 2.682"/><path fill="#EEEEED" d="M501.194 578.249a67.5 67.5 0 0 1 11.46-4.897c.369.758.346 1.198.324 1.639-3.862 1.174-7.723 2.35-11.784 3.258"/><path fill="#FEFFFF" d="M813.05 604.696c.765.982 1.233 1.744 2.215 3.341l-7.707-1.454-.192-1.442c1.796-.222 3.593-.444 5.685-.445M996.073 471.2c-1.645.434-3.016.612-4.388.79l-.666-1.476 4.235-2.43c.364.954.728 1.907.819 3.116M98.614 398.753c.453-1.016.76-1.697 1.068-2.378.877 2.34 4.046 4.959-1.409 6.587.08-1.57.138-2.721.341-4.209"/><path fill="#F7F7F7" d="M755.052 573.396c3.14.745 6.334 1.843 9.763 3.2-3.92 1.917-6.52-1.407-9.763-3.2"/><path fill="#FEFFFF" d="M379.686 329.822c-2.011-.257-3.648-.619-5.285-.98l.086-1.508h5.584c-.004.794-.008 1.588-.385 2.488M113.113 634.304c-1.438.41-2.648.548-3.857.687l2.08-3.52c.67.854 1.338 1.708 1.777 2.833M428.57 626.571c-1.308-.725-2.286-1.634-3.263-2.543l3.035-.949c.186 1.103.373 2.206.229 3.492M103.003 638.204c.145-1.13.288-1.868.431-2.605l1.245-.04.694 6.822-1.944.212c-.142-1.332-.285-2.663-.426-4.389M958.836 418.148c.443 1.298.548 2.548.653 3.798l-2.46-.469c.49-1.125.98-2.25 1.807-3.329M455.197 606.79c1.261-.917 2.553-1.466 4.393-2.248-1.281 4.86-1.281 4.86-4.393 2.248M777.19 599.624c1.104.852 1.885 1.544 2.666 2.236l-.667 1.176-4.993-2.571c.89-.334 1.781-.668 2.994-.841M410.193 592.97c-.81-.516-1.248-1.02-1.686-1.523l4.645-1.68.68 1.709c-1.089.503-2.178 1.005-3.639 1.495"/><path fill="#EEEEED" d="M458.017 576.81c1.487-.009 3.028.319 4.776.917-1.921 3.088-2.413 3.002-4.776-.918"/><path fill="#FEFFFF" d="M468.784 610.443c-.929-.382-1.572-.565-2.215-.749l1.107-1.527 5.357 1.593-.37 1.74c-1.198-.286-2.396-.572-3.88-1.057M606.237 629.817c-.675-1.027-.99-2.03-1.307-3.031l2.249-.428c-.195 1.16-.389 2.322-.942 3.459"/><path fill="#F7F7F7" d="M861.013 543.744c.191-1.317.797-2.537 1.652-3.906.866.616 1.483 1.38 2.1 2.146-1.113.619-2.225 1.238-3.752 1.76"/><path fill="#FEFFFF" d="M588.44 629.963c1.17-.935 2.388-1.52 3.605-2.103l.59 2.039c-1.383.138-2.766.277-4.195.064M855.88 586.18c-.04-1.102.177-1.958.393-2.814l2.522 2.343c-.886.24-1.772.48-2.914.472M499.539 634.594c-1.18.124-2.213-.064-3.245-.252l.707-2.08c.895.673 1.79 1.347 2.538 2.332M764.517 605.397c-.92-.674-1.563-1.561-2.207-2.449l2.615-.739c-.044.992-.089 1.984-.408 3.188"/><path fill="#F7F7F7" d="M816.166 577.193c1.919-1.179 4.028-2.095 6.491-2.956a33 33 0 0 1-6.491 2.956"/><path fill="#FEFFFF" d="M787.213 603.183c-.83-.36-1.39-.934-1.952-1.507l2.742-1.443c-.174.912-.348 1.824-.79 2.95M118.34 440.473c-1.204-.053-2.134-.355-3.064-.658l1.22-1.681c.706.696 1.412 1.393 1.844 2.34M468.66 619.527c1.204.053 2.134.355 3.064.658l-1.22 1.681c-.706-.697-1.412-1.393-1.844-2.34"/><path fill="#EEEEED" d="M420.789 563.298c.545.171.86.634 1.19 1.395-.29 1.078-.598 1.86-.884 2.975-.309 1.289-.638 2.243-1.269 3.284.043-2.396.387-4.878.963-7.654"/><path fill="#FEFFFF" d="M352.098 637.922c-.57-.752-.789-1.517-1.007-2.282l2.215-.19c-.286.82-.57 1.64-1.208 2.472M93.976 580.556c-.187-1.137-.028-2.21.13-3.284l1.319.304c-.368 1.015-.736 2.029-1.45 2.98M542.19 626.209c.939-.192 1.78-.042 2.62.108l-1.39 2.245c-.443-.67-.887-1.342-1.23-2.353M784.373 647.477c-1.155-.07-2.054-.378-2.952-.687l1.573-1.584c.545.677 1.09 1.355 1.379 2.271M779.629 592.53c-.468.924-1.089 1.533-1.71 2.142l-.709-2.533c.755.026 1.51.052 2.419.392M96.611 540.546c1.046.546 1.83 1.33 2.614 2.115l-1.621 1.098c-.418-.992-.837-1.983-.993-3.213M100.118 441.271c.627.958.914 2.008 1.2 3.06l-2.097.075c.185-1.013.37-2.027.897-3.135M460.216 621.825c-.33-.861-.329-1.632-.328-2.402l2.584 1.584c-.642.303-1.284.606-2.256.818M306.51 599.593c-1.134.3-2.144.3-3.154.3l.369-1.757c.969.386 1.938.772 2.784 1.457M725.922 625.498c.84.913 1.35 1.879 1.86 2.845l-1.75.573c-.147-1.122-.293-2.244-.11-3.418M409.413 629.427c-.905-.18-1.561-.602-2.217-1.025l1.23-1.208c.411.663.823 1.326.987 2.233M805.337 581.03c-.323-.374-.313-.719-.315-1.32.726-.498 1.463-.736 2.682-.632.752.546 1.023.748 1.294.951-1.11.344-2.219.687-3.66 1M648.283 593.55c-.86-.271-1.474-.748-2.089-1.226l.885-.916c.483.645.967 1.29 1.204 2.141M982.798 423.278c-.646.65-1.341.975-2.036 1.301l-.23-1.249c.738-.125 1.477-.25 2.266-.052"/><path fill="#EEEEED" d="M449.031 573.72c1.152.06 2.369.417 3.773 1.04-1.11-.07-2.41-.406-3.773-1.04"/><path fill="#FEFFFF" d="M980.001 513.401c.664.665 1.005 1.38 1.346 2.093l-1.316.25c-.118-.764-.235-1.529-.03-2.343"/><path fill="#F7F7F7" d="M826.174 573.227c.936-.893 2.054-1.535 3.501-2.155-.888.817-2.103 1.611-3.501 2.155"/><path fill="#FEFFFF" d="M699.62 624.493c.397.795.499 1.455.6 2.115l-1.71-.208c.271-.68.543-1.36 1.11-1.907M75.478 638.599c.552-.561 1.238-.826 1.925-1.091l.195 1.711c-.662-.108-1.324-.216-2.12-.62"/><path fill="#EEEEED" d="M436.56 542.268c.542.892.845 1.99 1.042 3.428-.497-.847-.889-2.035-1.041-3.428"/><path fill="#FEFFFF" d="M513.373 574.984c-.373-.434-.35-.874-.35-1.645.656-.798 1.336-1.266 2.333-1.72-.318 1.13-.954 2.243-1.983 3.365"/><path fill="#EEEEED" d="M467.751 578.815c-.23.537-.694.844-1.455 1.168-.63-.335-.963-.687-1.316-1.29.833-.204 1.684-.156 2.771.122M435.653 537.185c.523.649.8 1.453.936 2.559-.56.096-.979-.11-1.513-.53.033-.768.182-1.32.577-2.029"/><path fill="#FEFFFF" d="M600.537 338.013c-.584.398-1.164.496-1.745.594l.016-1.23c.577.111 1.155.223 1.73.636M99.493 450.667c.544.344.87.903 1.195 1.462l-.836.382c-.192-.543-.384-1.086-.359-1.844M516.463 577.987c.584-.398 1.164-.496 1.745-.594l-.016 1.23c-.577-.111-1.155-.223-1.73-.636M419.667 625.507c.344-.543.903-.87 1.462-1.195l.382.836c-.543.192-1.086.384-1.844.359M107.333 580.493c-.344.543-.903.87-1.462 1.195l-.382-.836c.543-.192 1.086-.384 1.844-.359"/><path fill="#EEEEED" d="M439.71 560.176c.494.65.746 1.461.846 2.57-.464-.606-.777-1.507-.847-2.57M424.745 545.053c-.207-.854-.168-1.696.07-2.793.523.515.847 1.286 1.165 2.393-.334.344-.662.369-1.235.4"/><path fill="#F7F7F7" d="M858.806 546.81c.12-1.003.657-1.98 1.511-3.08-.154.954-.623 2.03-1.511 3.08"/><path fill="#FEFFFF" d="M80.694 566.475c.754-.006 1.29.2 1.825.404l-.404.823c-.547-.339-1.094-.677-1.421-1.227M188.465 317.61c-.116.448-.399.724-.7.977-.007.007-.212-.22-.324-.338.285-.272.57-.544 1.024-.64M438.045 345.395c.242.396.24.79.21 1.181 0 .011-.306-.001-.47-.003.005-.393.009-.787.26-1.178M289.395 595.955c.396-.242.79-.24 1.181-.21.011 0-.001.306-.003.47-.393-.005-.787-.009-1.178-.26M312.39 594.465c-.448-.116-.724-.399-.978-.7-.006-.007.22-.212.339-.324.272.285.544.57.64 1.024M366.395 638.954c.396-.241.79-.24 1.181-.21.011.002-.001.307-.003.47-.393-.004-.787-.008-1.178-.26M796.61 625.535c.448.116.723.399.977.7.007.007-.22.212-.338.325-.272-.286-.544-.57-.64-1.025M453.535 620.39c.116-.448.399-.723.7-.977.007-.007.212.22.325.338-.286.272-.57.544-1.025.64M489.61 609.535c.448.116.724.399.978.7.006.007-.22.212-.339.324-.272-.285-.544-.57-.64-1.024M763.395 631.955c.396-.242.79-.24 1.181-.21.011 0-.001.306-.003.47-.393-.005-.787-.009-1.178-.26M982.045 526.395c.242.396.24.79.21 1.181 0 .011-.306-.001-.47-.003.005-.393.009-.787.26-1.178"/><path fill="#F7F7F7" d="M867.288 530.976c-.158-.532-.015-1.088.365-1.828.137.479.037 1.142-.365 1.828"/><path fill="#EEEEED" d="M440.682 566.15c.427.38.639.877.727 1.635-.396-.332-.669-.925-.727-1.635M438.828 555.107c.454.384.675.894.782 1.667-.414-.339-.715-.94-.782-1.667M423.987 554.706c-.282.298-.572.324-1.08.36-.228-.56-.238-1.111-.02-1.848.516.276.802.737 1.1 1.488"/><path fill="#FEFFFF" d="M980.61 535.535c.448.116.723.399.977.7.007.007-.22.212-.338.325-.272-.286-.544-.57-.64-1.025"/><path fill="#EEEEED" d="M437.81 549.113c.456.383.682.892.785 1.662-.421-.337-.718-.937-.786-1.662M423.89 549.978c-.247-.48-.249-1.025-.036-1.764.237.437.26 1.069.037 1.764"/><path fill="#FEFFFF" d="M965.955 542.605c-.242-.396-.24-.79-.21-1.181 0-.011.306.001.47.003-.005.393-.009.787-.26 1.178M778.954 586.605c-.241-.396-.24-.79-.21-1.181.002-.011.307.001.47.003-.004.393-.008.787-.26 1.178"/><path fill="#F7F7F7" d="M809.219 579.905c-.492-.079-.763-.281-1.135-.72.4-.488.9-.742 1.668-.874.074.57-.119 1.02-.533 1.594M771.037 578.657c.503-.245 1.054-.22 1.799.031-.455.23-1.102.234-1.799-.031M812.127 578.202c.356-.495.848-.76 1.614-.918-.31.454-.893.801-1.614.918M767.031 577.577c.509-.216 1.059-.155 1.802.125-.458.196-1.11.174-1.802-.125"/><path fill="#EEEEED" d="M444.004 571.308c.536-.11 1.08.076 1.806.493-.479.09-1.138-.055-1.806-.493M515.974 571.696c.229-.67.807-1.235 1.7-1.795-.24.637-.796 1.268-1.7 1.795"/><path fill="#F7F7F7" d="M833.5 569.623c.312-.676 1.023-1.225 2.083-1.787-.328.628-1.006 1.271-2.083 1.787"/><path fill="#080808" d="M643.342 574.388c-24.101.592-47.88 1.045-72.319 1.618-1.13.246-1.6.37-2.49.296-4.984-.507-9.547-.816-14.11-1.124.315-2.397.63-4.794 1.488-7.441a218 218 0 0 0 2.027-.968c.466-.004.932-.008 2.033-.084 1.732-.4 2.828-.728 3.924-1.056.48.014.96.03 2.048-.076 2.074-.939 3.54-1.757 5.005-2.575 1.315-1.774 2.631-3.55 4.123-5.871.2-1.089.223-1.63.248-2.172.236-1.8.679-3.599.679-5.398-.003-36.537-.058-73.074-.138-110.392-.792-2.708-1.546-4.635-2.3-6.563-.001 0-.094-.038-.14-.394-.842-.947-1.636-1.54-2.43-2.131-.12-.344-.36-.552-1.19-.887-2.598-.763-4.723-1.26-6.848-1.758-.432-.147-.864-.294-1.912-.591-1.771-.345-2.926-.54-4.08-.734 0 0 .016-.076-.026-.507-.077-7.6-.077-7.586 6.731-7.693.8-.013 1.595-.284 2.392-.435 3.048.177 6.096.353 9.873.613 3.148-.062 5.567-.208 7.987-.353 8.394-.037 16.789-.073 25.96-.065 8.258-.062 15.74-.169 23.223-.275 1.427.204 2.854.408 4.924.722 2.441.184 4.239.258 6.037.332.434.164.869.327 1.878.659 1.425.19 2.276.212 3.127.233.428.176.855.35 1.795.756a9.3 9.3 0 0 0 2.206.243c.413.213.827.427 1.83.883 3.781 1.707 6.973 3.172 10.164 4.636.385.399.77.798 1.547 1.518 1.07.733 1.749 1.145 2.427 1.557a202 202 0 0 1 3.7 4.276c.896 1.074 1.466 1.691 2.036 2.308 0 0 .016.359.226.784 5.734 9.852 5.448 19.707 2.37 29.767-.198.294-.397.588-.897 1.28a26 26 0 0 0-1.224 2.708c-5.871 4.605-11.743 9.21-18.285 13.978-4.518 1.785-8.364 3.408-12.21 5.03l.328 1.591 5.974.932c.438.132.877.263 1.924.566 5.434 1.572 10.26 2.973 15.084 4.374 7.135 4.731 14.19 9.541 17.762 18.507.535 1.032.88 1.503 1.225 1.975.029.465.058.93.27 2.088.5 5.787.814 10.881 1.129 15.976-.144.435-.287.87-.58 1.931-1.633 4.77-3.118 8.912-4.602 13.055 0 0-.402.164-.706.495a24 24 0 0 0-1.337 2.5 532 532 0 0 0-2.523 2.598 60 60 0 0 0-1.822 2.315 338 338 0 0 1-4.976 3.963 33 33 0 0 0-2.118 1.99s-.46.018-.908.173c-1.043.692-1.637 1.227-2.23 1.763 0 0-.396-.052-.84.084-1.135.646-1.825 1.155-2.516 1.664-1.248.535-2.496 1.07-4.28 1.749a24 24 0 0 0-2.624 1.351c-1.896.565-3.791 1.13-6.32 1.777-2.094.627-3.555 1.17-5.017 1.714a10 10 0 0 0-1.706.215m8.965-31.906c.257-5.132 1.13-10.322.652-15.383-1.271-13.443-8.09-23.287-21.242-27.318-5.927-1.817-12.455-1.661-18.704-2.45-4.465-.562-6.143 1.054-6.037 5.807.31 13.826.088 27.664.188 41.496.021 2.98.264 6.008.851 8.923 1.293 6.415 5.391 10.165 11.787 11.228 15.314 2.546 28.467-6.187 32.505-22.303m-20.888-59.366c8.307-3.776 12.894-10.364 13.88-19.276.473-4.269.526-8.695-.026-12.946-2.097-16.16-14.832-25.385-30.953-22.866-4.686.732-7.096 3.167-7.109 7.974-.043 15.33-.074 30.659-.238 45.986-.033 3.043 1.16 4.466 4.096 4.114a370 370 0 0 0 20.35-2.986"/><path fill="#090909" d="M283.653 565.915c5.879 1.352 6.558 4.965 4.79 10.027-1.026.074-2.13.222-3.233.225-19.585.044-39.17.11-58.755.032-1.735-.007-3.467-.968-5.464-1.826-.179-1.442-.093-2.544.099-4.256.705-1.454 1.304-2.297 1.903-3.14.457-.037.914-.073 1.988-.19 2.072-.696 3.526-1.313 4.98-1.93 1.014-.652 2.028-1.304 3.394-2.362.598-1.123.843-1.84 1.088-2.557.142-.419.285-.837.405-1.952-3.483-10.703-6.942-20.71-10.4-30.716-.151-.587-.302-1.174-.693-2.357-.515-.778-.787-1.114-1.064-1.118-14.104-.166-28.207-.361-42.31-.336-1.1.002-2.793 1.346-3.196 2.44-2.331 6.327-4.358 12.767-6.488 19.169-.199.419-.398.838-.873 1.802-.896 3.101-1.518 5.658-2.139 8.215-.123.71-.247 1.42-.425 2.708.46 1.632.975 2.685 1.49 3.74.463.52.926 1.04 1.784 1.884 2.103.807 3.813 1.293 5.522 1.778.183.305.451.441 1.203.58 1.202.252 2.005.33 2.81.41 4.866.906 4.094 4.684 3.868 8.76-2.827 1.058-5.416 1.418-8.004 1.78-2.4-.192-4.801-.384-7.928-.692-7.774.059-14.822.234-21.87.408a253 253 0 0 1-6.047-.131c-3.585-.063-6.472-.063-9.678-.063v-8.434s.32.082.687.005c.853-.413 1.34-.75 1.827-1.087.475-.025.95-.05 2.046-.183 2.336-.772 4.052-1.436 5.768-2.1 6.075-1.319 9.678-5.46 12.52-11.32.807-2.062 1.37-3.555 1.934-5.049.275-.499.55-.998 1.107-1.968 1.396-3.686 2.509-6.902 3.621-10.118.221-.235.442-.47.854-1.207 2.093-5.606 3.996-10.709 5.898-15.812.28-.541.56-1.082 1.044-2.172 1.807-4.974 3.407-9.4 5.007-13.824.344-.655.689-1.31 1.26-2.56 2.406-6.542 4.585-12.49 6.764-18.439.256-.52.512-1.041 1.043-2.09 4.606-12.307 8.937-24.087 13.268-35.866.307-.49.614-.978 1.122-1.995 2.378-6.244 4.59-11.948 6.722-17.682 2.705-7.272 7.957-10.354 16.047-9.328.297 1.128.594 2.256 1.02 3.962.459 1.05.788 1.521 1.118 1.993.05.58.1 1.16.321 2.351 2.437 6.92 4.703 13.228 6.97 19.536.888 2.815 1.778 5.63 2.812 9.05.465 1.073.786 1.542 1.107 2.012.523 1.813 1.045 3.626 1.691 6.04.46 1.067.797 1.536 1.134 2.004.302 1.144.604 2.287 1.062 4.046.87 2.327 1.584 4.039 2.298 5.75.253.872.505 1.743.885 3.245 3.356 9.068 6.586 17.507 9.815 25.945.915 3.1 1.83 6.2 3.021 10.005.744 1.95 1.21 3.194 1.679 4.437l13.712 36.307c1.75 8.583 8.46 11.705 16.059 14.214M188.47 492.95l-6.105 17.335h36.453l-16.923-50.47q-.817.12-1.633.243c-3.821 10.725-7.643 21.45-11.792 32.892"/><path fill="#0D0C0D" d="M203.937 399.59a36 36 0 0 1-1.834-.721 41 41 0 0 0-3.092-.93c-1.741-1.258-3.483-2.514-5.581-4.212a26 26 0 0 0-2.344-1.913c-.675-1.108-1.35-2.216-2.226-3.906a7994 7994 0 0 1-3.006-8.867c.086-1.409.173-2.817.417-4.9 1.337-3.834 2.516-6.994 3.694-10.155a55 55 0 0 1 2.146-2.138c1.196-1.177 1.982-2.023 2.767-2.87 1.85-.934 3.701-1.868 6.109-2.935 1.036-.459 1.515-.785 1.994-1.11.46.007.92.015 2.11-.039 5.797.95 10.863 1.96 15.93 2.972 4.958 4.092 9.041 8.767 10.313 16.153-.348 4.53-.762 8.267-1.175 12.004-2.584 3.15-5.167 6.3-8.324 9.717-3.991 1.604-7.41 2.941-10.83 4.279-.758-.07-1.517-.14-2.937-.29-1.818-.101-2.975-.12-4.131-.14m.75-30.73c-.91.707-1.932 1.31-2.709 2.142-3.359 3.6-3.285 9.085.09 12.56 3.44 3.542 9.118 3.833 12.603.646 3.803-3.477 4.074-8.993.63-12.958-2.697-3.104-6.045-3.854-10.614-2.39"/><path fill="#EEEEED" d="M322.77 437.24c.762 1.956 1.597 4.18 1.6 6.403.045 34.884-.018 69.769-.294 104.981-.533-1.246-1.07-2.817-1.084-4.392-.08-9.246.064-18.495-.061-27.74-.236-17.443-.701-34.883-.874-52.326-.088-8.884.253-17.772.713-26.926M356.283 552.725c-.55-1.164-.999-2.612-1-4.06-.009-35.325.027-70.65.07-105.975 0-.993.161-1.987.458-3.332.54.874 1.151 2.1 1.153 3.326.047 35.776.035 71.552.012 107.328 0 .81-.25 1.62-.693 2.713"/><path fill="#E4E4E4" d="M170.997 544.95c1.83-6.284 3.857-12.724 6.188-19.052.403-1.093 2.096-2.437 3.196-2.44 14.103-.024 28.206.17 42.31.337.277.004.55.34.847.895-13.39.35-26.803.389-40.214.255-3.007-.03-4.835.611-5.868 3.842-1.743 5.447-4.076 10.706-6.46 16.162M713.225 465.036c-5.18 16.242-7.098 32.888-3.625 49.895 1.058 5.182 2.81 10.222 4.206 15.714-.935-1.22-2.098-2.735-2.691-4.447-6.897-19.9-6.75-39.758.61-59.52.217-.583.772-1.038 1.5-1.642"/><path fill="#EEEEED" d="M364.236 429.314c2.754-1.07 5.693-2.17 8.724-2.566 4.069-.533 3.253-3.315 3.38-5.908.15-3.061-1.515-3.596-4.066-3.449-4.144.24-8.296.33-12.876.299 2.313-.688 5.05-1.236 7.807-1.67.97-.153 2.02-.203 2.97.002 2.56.555 6.689.625 7.271 2.068 1.035 2.561 1.045 7.079-.594 8.794-2.142 2.242-6.271 2.664-9.618 3.618-.775.221-1.84-.576-2.998-1.188M194.689 444.036c-3.962 11.766-8.293 23.546-12.909 35.557.498-2.931 1.226-6.108 2.075-9.253 1.72-6.37 3.22-12.824 5.396-19.038.94-2.68 3.335-4.851 5.438-7.266M717.982 540.95c3.332 3.859 6.3 7.769 9.297 11.999-.138.604-.233 1.009-.48 1.153-3.592 2.085-6.403.425-7.658-2.7-1.284-3.197-7.093-6.122-1.159-10.452M219.205 414.803c-8.346-.811-13.598 2.271-16.303 9.543a538 538 0 0 1-6.79 17.383c1.018-4.537 2.258-9.315 3.62-14.057.499-1.733 1.324-3.37 1.94-5.071 2.042-5.64 11.201-10.786 16.997-9.444.355.083.532.936.536 1.646"/><path fill="#E4E4E4" d="M267.718 551.293c-4.695-11.694-9.266-23.797-13.836-35.9-.47-1.242-.935-2.487-1.488-4.082 1.45 2.583 3.322 5.392 4.459 8.474 3.804 10.314 7.346 20.726 10.865 31.508M224.293 527.686c3.613 9.59 7.072 19.597 10.428 29.982-1.786-3.598-3.703-7.495-5.096-11.57-2.027-5.932-3.676-11.991-5.332-18.412M528.426 424.722c-.853-3.648-3.142-5.615-6.99-6.31-6.946-1.255-13.848-2.762-21.069-4.415 1.599-.453 3.606-1.154 5.378-.768 6.267 1.363 12.464 3.06 18.666 4.71 3.316.882 5.133 2.877 4.015 6.783"/><path fill="#F7F7F7" d="M871.798 516.918c.372-6.345 1.062-12.79 1.965-19.58 1.465 2.534 2.884 5.359 3.881 8.325.35 1.04-.033 2.603-.613 3.625-1.478 2.601-3.257 5.032-5.233 7.63"/><path fill="#E4E4E4" d="M677.712 465.97c2.733-9.984 3.02-19.84-2.547-29.628 1.498 2.17 3.628 4.52 4.467 7.265 2.302 7.532 2.55 15.116-1.92 22.363M386.587 563.395c-7.752.074-15.815-.109-24.118-.607 7.776-.093 15.79.129 24.118.607"/><path fill="#EEEEED" d="M180.413 482.04c-1.845 5.888-4.024 11.836-6.445 18.004-3.904-4.398.253-7.951 1.636-11.73.845-2.307 2.942-4.157 4.81-6.273"/><path fill="#E4E4E4" d="M484.664 413.485c-8.665 2.435-17.467 4.915-25.33 10.51 2.918-2.335 5.924-5.292 9.534-6.723 4.937-1.958 10.333-2.755 15.796-3.787M249.42 500.725c-3.467-8.211-6.697-16.65-9.85-25.441 1.455 2.508 3.05 5.288 4.17 8.248 2.118 5.6 3.962 11.305 5.68 17.193M443.177 443.047c-.601 7.971-1.526 16.047-2.61 24.57-.623-3.811-1.764-8.134-1.358-12.306.403-4.133 2.366-8.113 3.968-12.264M632.848 417.017c-7.23.461-14.713.568-22.564.487 1.787-.62 3.943-1.413 6.098-1.414 5.405 0 10.81.358 16.466.927M146.454 576.691c6.729-.424 13.777-.6 21.12-.504-6.738.431-13.77.593-21.12.504M480.772 426.739c6.934-4.33 14.251-3.13 21.779.448-4.155-.212-8.537-.921-12.941-1.125-2.778-.128-5.59.499-8.838.677M495.726 566.653c-6.137 3.475-12.622 2.872-19.422.495 6.205-.423 12.689-.589 19.422-.495M130.063 567.975c.347 2.437.347 5.035.347 8.272 3.206 0 6.093 0 9.326.225-2.931.478-6.208.73-9.484.982-.179-3.106-.357-6.212-.189-9.479M531.495 447.66c-1.262-5.785-2.255-11.847-3.104-18.315a221 221 0 0 1 3.104 18.315M651.012 491.243c-1.95.012-3.942-.3-5.933-.61l-.328-1.59c3.846-1.623 7.692-3.246 11.91-4.83-1.168 1.054-2.903 1.875-4.18 3.153-.843.845-1.03 2.347-1.469 3.877M723.67 446.014c-2.653 5.425-5.658 10.854-8.938 16.507.44-6.538 3.764-11.916 8.938-16.507"/><path fill="#EEEEED" d="M228.547 442.448c-2.436-5.896-4.702-12.205-6.933-18.91.732-.084 1.912.086 2.054.564a311 311 0 0 1 4.879 18.346"/><path fill="#E4E4E4" d="M565.91 417.119a3.9 3.9 0 0 1-2.245.768c-6.808.107-6.808.093-6.766 7.71-.49-1.482-1.628-3.533-1.293-5.305.29-1.536 2.04-3.527 3.522-3.929 2.025-.548 4.406.219 6.782.756M688.805 534.915c-.673-4.959-.987-10.053-1.26-15.565 3.921 4.53 2.685 9.987 1.26 15.565M758.412 419.432c-4.64 2.948-9.67 5.73-15.054 8.545 4.652-2.882 9.659-5.797 15.054-8.545M220.98 357.512c-5.026-.657-10.092-1.669-15.594-2.805 2.102-.532 4.765-1.616 7.145-1.174 2.926.543 5.616 2.36 8.449 3.98M523.037 457.672c1.166-.597 2.415-1.125 3.652-1.097 4.21.094 5.27-2.07 4.598-6.196 3.155 3.964 2.199 6.965-2.525 7.568-1.855.237-3.764.045-5.725-.275M554.253 575.468c4.733.018 9.296.327 14.192 1.042.074.768-.186 1.129-.445 1.49-3.243.003-6.51.234-9.72-.093-1.456-.148-2.801-1.398-4.027-2.439M667.99 496.17c-4.754-1.066-9.58-2.467-14.672-4.12 4.688 1.094 9.643 2.44 14.671 4.12"/><path fill="#EEEEED" d="M166.338 519.045c-1.568 5.032-3.47 10.135-5.637 15.493 1.592-4.971 3.448-10.197 5.637-15.493"/><path fill="#E4E4E4" d="M780.693 413.568c-3.819 1.186-7.902 2.096-12.373 2.919 3.778-1.123 7.943-2.159 12.373-2.919M683.604 549.988c1.145-4.094 2.63-8.237 4.338-12.664.98 4.724-.636 8.955-4.338 12.664M230.521 385.962c.051-3.676.465-7.414.993-11.59 2.705 3.726 1.859 7.679-.993 11.59M797.912 413.188c-3.601.442-7.342.533-11.525.47 3.5-.377 7.443-.6 11.525-.47"/><path fill="#EEEEED" d="M172.386 503.045c-1.263 4.358-2.863 8.783-4.74 13.454a143 143 0 0 1 4.74-13.454M312.883 417.083c-2.991.68-6.138 1.025-9.618 1.634.194-.708.7-2.497 1.255-2.513 2.729-.076 5.47.318 8.363.88"/><path fill="#E4E4E4" d="M211.239 400.303c3.186-1.622 6.605-2.959 10.393-4.297-1.898 4.383-5.877 4.831-10.393 4.297M810.945 415.175c-3.35-.109-6.81-.555-10.567-1.241 3.287.142 6.872.523 10.567 1.241M665.014 425.497c-3.144-1.125-6.336-2.59-9.763-4.304 3.081 1.154 6.399 2.56 9.763 4.304"/><path fill="#EEEEED" d="M425.955 532.653c-2.982.043-5.996-.293-9.408-.457 1.557-3.146 4.516-3.175 9.408.457"/><path fill="#E4E4E4" d="M189.615 364.014c-.828 3.133-2.007 6.293-3.432 9.712-2.29-4.112.867-6.74 3.432-9.712M176.098 577.048c2.423-.685 5.012-1.045 7.955-1.672-.151.695-.608 2.444-1.17 2.478-2.189.134-4.41-.275-6.785-.806"/><path fill="#EEEEED" d="M159.571 536.039c-.763 3.17-1.876 6.386-3.295 9.777a64.5 64.5 0 0 1 3.295-9.777"/><path fill="#E4E4E4" d="M440.45 470.34c1.325 2.795 2.406 5.842 3.515 9.276-1.234-2.75-2.496-5.886-3.514-9.276"/><path fill="#F7F7F7" d="M874.267 493.749c-.58-2.466-.861-5.195-1.02-8.343.52 2.414.919 5.247 1.02 8.343"/><path fill="#E4E4E4" d="M185.583 379.278c1.206 2.524 2.14 5.286 3.03 8.413-3.9-1.425-3.101-4.99-3.03-8.413M168.01 554.91c.296-2.382.918-4.939 1.824-7.688-.31 2.377-.904 4.945-1.824 7.688"/><path fill="#EEEEED" d="M441.683 525.566c-1.891.82-4.048 1.374-6.514 2.161.249-.73.648-2.335 1.4-2.523 1.515-.377 3.222.019 5.114.362M452.776 545.284c-1.603-2.59-3.12-5.578-4.622-8.933a77 77 0 0 1 4.622 8.933"/><path fill="#E4E4E4" d="M509.506 541.334c.418 2.16.572 4.59.496 7.315-.407-2.152-.584-4.598-.496-7.315M507.228 431.038c1.928 1.536 3.782 3.425 5.622 5.65-1.908-1.54-3.802-3.418-5.622-5.65M583.647 417.45c-2.15.407-4.57.553-7.277.47 2.143-.394 4.575-.562 7.277-.47M494.921 413.128c-2.282.453-4.7.577-7.548.54a36 36 0 0 1 7.548-.54M863.858 454.076c-1.581-1.891-3.093-4.16-4.602-6.771 1.56 1.903 3.116 4.147 4.602 6.77"/><path fill="#EEEEED" d="M459.774 555.251c-1.455-1.152-2.817-2.749-4.217-4.702 3.687-.962 4.73.959 4.217 4.702M539.392 523.727c-.862-1.86-1.458-3.953-1.952-6.407a28.5 28.5 0 0 1 1.952 6.407"/><path fill="#E4E4E4" d="M509.173 551.037c-.626 2.517-1.57 5.128-2.842 7.853.623-2.51 1.574-5.135 2.842-7.853"/><path fill="#EEEEED" d="M447.628 533.429c-1.182-2.031-2.218-4.468-3.422-7.23.642.358 1.8.886 2.187 1.757.703 1.582.946 3.367 1.235 5.473M308.778 565.71c-1.86.924-3.938 1.57-6.388 2.275 1.808-.812 3.988-1.683 6.388-2.276"/><path fill="#E4E4E4" d="M836.972 425.559c-1.99-.69-4.021-1.73-6.21-3.073 1.95.706 4.06 1.716 6.21 3.073M643.937 418.113c-1.674.24-3.472.165-5.57-.141 1.616-.213 3.532-.193 5.57.14"/><path fill="#EEEEED" d="M316.736 563.595c-1.55.876-3.315 1.52-5.426 2.043 1.506-.839 3.36-1.557 5.426-2.043"/><path fill="#E4E4E4" d="M573.412 432.943c.902 1.567 1.656 3.494 2.277 5.765-.896-1.572-1.66-3.488-2.277-5.765M519.187 450.836c.952 1.545 1.819 3.493 2.738 5.807a38 38 0 0 1-2.738-5.807M563.06 427.757c2.017.153 4.142.65 6.493 1.438-1.978-.171-4.181-.632-6.493-1.438"/><path fill="#EEEEED" d="M154.844 548.086c-.215 1.487-.779 2.98-1.612 4.688.242-1.417.752-3.049 1.612-4.688M434.583 530.277c.596 1.192.936 2.61 1.161 4.391-.55-1.147-.983-2.656-1.161-4.391"/><path fill="#E4E4E4" d="M229.77 564.62c-1.263.854-2.717 1.47-4.5 1.972 1.217-.814 2.763-1.512 4.5-1.973M570.611 562.95c-1.129.846-2.594 1.664-4.372 2.385 1.137-.87 2.587-1.642 4.372-2.386M222.82 566.724c-.426 1.096-1.025 1.939-1.857 2.994-1.615-2.061-1.059-3.26 1.857-2.994M140.375 564.314c-1.353.798-3.069 1.462-5.117 2.01 1.363-.79 3.058-1.467 5.117-2.01M175.87 564.872c-1.523-.162-3.233-.648-5.061-1.43 1.545.17 3.21.639 5.061 1.43M486.026 514.347c1.563.438 3.151 1.227 4.812 2.343-1.548-.446-3.167-1.218-4.812-2.343M645.23 574.41c1.28-.78 2.741-1.324 4.523-1.735-1.235.746-2.789 1.36-4.524 1.735M469.795 457.228c-.861-1.294-1.633-2.956-2.302-4.955.866 1.304 1.629 2.945 2.302 4.955M238.635 471.395c-.867-1.344-1.581-3.056-2.215-5.111.843 1.352 1.605 3.048 2.215 5.111"/><path fill="#F7F7F7" d="M871.184 471.842c-.833-1.267-1.406-2.718-1.943-4.511a16.7 16.7 0 0 1 1.943 4.51"/><path fill="#E4E4E4" d="M499.971 480.39c-1.34-.29-2.746-.927-4.293-1.87 1.315.303 2.772.915 4.293 1.87M488.983 474.424c-1.312-.33-2.674-1-4.156-1.979 1.288.34 2.697.99 4.156 1.98M828.966 421.27c-1.388-.146-2.858-.647-4.548-1.403 1.341.179 2.904.613 4.548 1.403M563.685 565.407c-.886.55-1.982.878-3.416 1.084.844-.517 2.025-.912 3.416-1.084M556.997 426.424c1.117-.143 2.272.052 3.702.466-1.039.103-2.352-.013-3.702-.466M516.338 443.613c.875 1.013 1.623 2.387 2.316 4.1-.85-1.021-1.647-2.38-2.316-4.1M728.691 440.023c-.489 1.154-1.318 2.31-2.451 3.522.501-1.137 1.306-2.328 2.451-3.522M460.038 499.364c1.297.342 2.634 1.038 4.121 2.029-1.26-.362-2.67-1.019-4.12-2.03"/><path fill="#EEEEED" d="M538.82 538.943c-.262-1.059-.222-2.212.032-3.645.232.997.25 2.273-.032 3.645"/><path fill="#E4E4E4" d="M204.041 399.887c1.052-.278 2.21-.26 3.659-.048-.99.243-2.272.294-3.659.048M820.978 418.023c-1.119-.027-2.328-.33-3.745-.879 1.08.036 2.367.32 3.745.879M498.028 522.284c1.012.399 2.038 1.155 3.12 2.234-.997-.41-2.051-1.143-3.12-2.234M735.92 433.09c-.517.962-1.396 1.882-2.591 2.871.532-.925 1.38-1.919 2.59-2.87M505.99 531.326c.78.704 1.52 1.798 2.241 3.236-.773-.72-1.526-1.783-2.24-3.236M504.001 428.453c1.042.305 2.101.965 3.239 1.935-1.022-.319-2.122-.949-3.239-1.935"/><path fill="#EEEEED" d="M303.056 426.189c.83-.113 1.653.115 2.716.558-.748.07-1.734-.074-2.716-.558"/><path fill="#E4E4E4" d="M464.259 502.082c1.026.069 2.02.548 3.195 1.313-.956-.11-2.092-.506-3.195-1.313"/><path fill="#EEEEED" d="M318.951 430.718c.88.37 1.75 1.059 2.616 2.037-.879-.38-1.752-1.048-2.616-2.037"/><path fill="#E4E4E4" d="M199.032 398.263c.827-.099 1.674.128 2.725.628-.766.08-1.735-.112-2.725-.628"/><path fill="#F7F7F7" d="M873.177 481.863c-.503-.64-.743-1.447-.889-2.566.446.591.798 1.495.889 2.566"/><path fill="#E4E4E4" d="M194.539 358.954c-.446.87-1.232 1.717-2.311 2.595.46-.852 1.216-1.736 2.311-2.595"/><path fill="#EEEEED" d="M309.034 427.75c.792-.263 1.653-.235 2.734.042-.741.248-1.703.249-2.734-.042M425.612 539.976c-.216-.809-.128-1.665.215-2.737.2.753.145 1.721-.215 2.737"/><path fill="#E4E4E4" d="M168.84 561.118c-.605-.64-1.12-1.693-1.44-2.984.64.698 1.085 1.634 1.44 2.984M648.976 419.053c-.76.244-1.612.222-2.69-.042.714-.235 1.657-.23 2.69.042"/><path fill="#FEFEFE" d="M568.316 578c-.057-.361.203-.722.55-1.291.558-.332 1.027-.457 1.844-.447.349.135.184.555.179.782-.755.47-1.506.713-2.573.956"/><path fill="#E4E4E4" d="M469.42 437.958c.032-.962.428-1.975 1.128-3.127-.052.933-.408 2.005-1.128 3.127M401.478 557.923c-.388.687-1.12 1.362-2.166 2.054.4-.678 1.111-1.372 2.166-2.054M406.643 552.037c-.133.867-.602 1.775-1.384 2.752.14-.857.593-1.784 1.384-2.752M570.983 430.437c.801.212 1.595.804 2.44 1.701-.783-.237-1.615-.78-2.44-1.701M202.845 354.696c-.343.562-.822.888-1.592 1.118.292-.515.874-.934 1.592-1.118M858.871 446.011c-.606-.23-1.173-.814-1.79-1.71.576.243 1.203.8 1.79 1.71"/><path fill="#EEEEED" d="M314.083 428.736c.726-.163 1.565.02 2.561.504-.711.148-1.58-.006-2.56-.504"/><path fill="#E4E4E4" d="M653.007 420.077c-.505.235-1.07.231-1.796-.024.47-.239 1.104-.228 1.796.024"/><path fill="#EEEEED" d="M221.313 420.824c-.556-.323-.885-.795-1.137-1.556.506.276.934.841 1.137 1.556"/><path fill="#E4E4E4" d="M839.955 427.625c-.685-.034-1.417-.429-2.29-1.116.653.057 1.448.406 2.29 1.116M765.828 416.63c-.351.54-.835.857-1.6 1.049.302-.507.885-.89 1.6-1.049M668.999 428.575c-.642-.076-1.32-.488-2.104-1.189.62.092 1.344.472 2.104 1.189M815.016 416.201c-.516.227-1.075.195-1.811-.072.47-.22 1.12-.202 1.811.072M467.986 442.899c-.272-.647-.237-1.46.033-2.487.248.63.26 1.475-.033 2.487M740.966 429.114c-.223.602-.793 1.172-1.677 1.782.233-.579.782-1.197 1.677-1.782M674.835 435.131c-.634-.253-1.204-.87-1.81-1.807.602.268 1.238.856 1.81 1.807M191.076 392.17c.672.134 1.334.625 2.061 1.426-.647-.149-1.36-.609-2.061-1.426M445.618 438.069c.073.735-.237 1.538-.825 2.528-.038-.696.202-1.578.825-2.528M730.677 438.017c-.13.616-.591 1.247-1.354 1.947.14-.598.58-1.264 1.354-1.947M677.228 557.943c.134-.64.618-1.282 1.402-2.01-.15.611-.6 1.31-1.402 2.01M495.12 520.064c.74.054 1.504.509 2.393 1.288-.706-.08-1.538-.483-2.393-1.288M132.776 566.515c-.339.553-.826.89-1.617 1.15.287-.506.878-.936 1.617-1.15M501.13 525.144c.685.15 1.327.655 2.002 1.47-.66-.164-1.352-.64-2.001-1.47M179.912 565.893c-.648.213-1.451.134-2.435-.21.64-.204 1.46-.142 2.435.21M666.977 565.898c.261-.6.855-1.135 1.755-1.647-.27.587-.846 1.15-1.755 1.647M502.008 563.123c-.223.638-.8 1.231-1.694 1.845.236-.617.788-1.254 1.694-1.845M670.116 563.933c.222-.595.778-1.156 1.642-1.733-.23.578-.77 1.173-1.642 1.733M391.84 562.65c-.379.493-.883.766-1.646.895.335-.467.928-.791 1.646-.895M398.245 560.192c-.332.581-1.002 1.065-1.982 1.49.341-.568.993-1.078 1.982-1.49M234.145 560.02c.053.635-.192 1.352-.724 2.167-.05-.63.188-1.357.724-2.166M575.08 554.998c.214.478.19 1.02-.044 1.761-.205-.432-.2-1.065.044-1.76M714.207 532.712c.562.359 1.009 1.048 1.379 2.042-.55-.368-1.022-1.04-1.38-2.042"/><path fill="#EEEEED" d="M323.231 554.02c.283.512.304 1.08.083 1.824-.277-.471-.31-1.12-.083-1.824"/><path fill="#E4E4E4" d="M681.56 552.983c.006-.675.35-1.398.983-2.235-.022.653-.333 1.42-.983 2.235"/><path fill="#EEEEED" d="M536.436 546.99c-.173-.546-.06-1.116.318-1.835.165.505.066 1.16-.318 1.836"/><path fill="#E4E4E4" d="M508.601 537.181c.518.354.817.841.998 1.603-.484-.306-.85-.888-.998-1.603"/><path fill="#EEEEED" d="M537.737 542.99c-.237-.524-.213-1.093.066-1.817.235.487.215 1.13-.066 1.817"/><path fill="#E4E4E4" d="M468.048 504.394c.746-.045 1.542.292 2.495.918-.71.014-1.578-.262-2.495-.918M235.35 461.82c-.565-.322-.901-.79-1.168-1.556.512.271.953.84 1.167 1.556M478.91 467.81c-.694-.091-1.394-.554-2.206-1.32.658.113 1.428.53 2.205 1.32M675.593 469.97c-.04-.705.268-1.475.867-2.373.022.683-.25 1.497-.867 2.374M444.771 482.165c.64.296 1.045.758 1.365 1.524-.59-.25-1.095-.804-1.365-1.524M510.957 486.584c-.72.03-1.498-.316-2.46-.932.677.005 1.538.281 2.46.932M446.93 486.364c.404.317.759.881.844 1.461-.479-.394-.686-.803-.845-1.46M517.005 490.46c-.692.004-1.451-.33-2.323-.965.677.009 1.466.317 2.323.965M521.003 493.552c-.66-.055-1.36-.45-2.164-1.136.639.07 1.382.433 2.164 1.136M232.503 453.771c-.527-.319-.848-.788-1.1-1.543.48.274.893.834 1.1 1.543M471.041 506.123c.575-.108 1.15.092 1.841.59-.536.103-1.188-.09-1.84-.59M475.097 508.285c.72-.034 1.488.327 2.467.94-.666-.013-1.542-.279-2.467-.94M479.048 510.442c.713-.033 1.484.31 2.44.922-.672-.002-1.527-.275-2.44-.922M656.7 570.79c.381-.51 1.078-.913 2.073-1.208-.387.51-1.072.913-2.072 1.208M687.283 516.833c-.58-.318-.925-.79-1.22-1.555.519.27.987.836 1.22 1.555M663.653 567.7c.327-.627 1.017-1.136 2.035-1.62-.339.596-1.005 1.167-2.035 1.62M557.816 566.558c-.373.45-.868.69-1.628.813.327-.419.916-.722 1.628-.813M492.107 518.149c.745-.023 1.535.359 2.502 1.036-.701-.013-1.578-.323-2.502-1.036"/><path fill="#FCFCFC" d="M745.746 514.914c-3.059-22.505-3.068-44.376 5.937-65.265 9.202-21.344 29.965-30.533 50.869-22.745 11.976 4.463 19.187 14.058 24.622 24.932 10.089 20.187 11.782 41.883 9.34 63.852-1.055 9.49-3.278 19.139-6.75 28.02-11.839 30.27-48.41 33.037-67.815 9.847-9.285-11.096-13.476-24.328-16.203-38.64"/><path fill="#EEEEED" d="M421.781 558.18c.273.465.301 1.103.08 1.802-.275-.503-.3-1.067-.08-1.803M418.723 574.172c.116.485.007 1.158-.401 1.835-.141-.546.017-1.097.401-1.835"/><path fill="#F8F9F8" d="M652.226 542.897c-3.957 15.7-17.11 24.434-32.424 21.888-6.396-1.063-10.494-4.813-11.787-11.228-.587-2.915-.83-5.943-.851-8.923-.1-13.832.123-27.67-.188-41.496-.106-4.753 1.572-6.37 6.037-5.806 6.249.788 12.777.632 18.704 2.449 13.153 4.03 19.971 13.875 21.242 27.318.478 5.061-.395 10.251-.733 15.798M631.087 483.313c-6.894 1.07-13.447 2.003-20.018 2.79-2.937.35-4.13-1.072-4.096-4.115.164-15.327.195-30.657.238-45.986.013-4.807 2.423-7.242 7.11-7.974 16.12-2.519 28.855 6.705 30.952 22.866.552 4.251.5 8.677.027 12.946-.987 8.912-5.574 15.5-14.213 19.473"/><path fill="#F7F7F7" d="M188.634 492.592c3.985-11.084 7.807-21.809 11.628-32.534l1.633-.243 16.923 50.47h-36.453a3332 3332 0 0 1 6.269-17.693"/><path fill="#EEEEED" d="M205.04 368.696c4.216-1.3 7.564-.55 10.26 2.553 3.445 3.965 3.174 9.48-.629 12.958-3.485 3.187-9.163 2.896-12.603-.646-3.375-3.475-3.449-8.96-.09-12.56.777-.832 1.8-1.435 3.062-2.305"/></svg>