<svg version="1.1" id="Layer_1" xmlns="http://www.w3.org/2000/svg" xmlns:xlink="http://www.w3.org/1999/xlink" x="0px" y="0px"
	 width="100%" viewBox="0 0 1280 800" enable-background="new 0 0 1280 800" xml:space="preserve">
<path fill="#FDFEFE" opacity="1.000000" stroke="none" 
	d="
M1.000000,496.000000 
	C1.000000,331.016357 1.000000,166.032684 1.000000,1.024518 
	C427.608063,1.024518 854.216125,1.024518 1280.912109,1.024518 
	C1280.912109,267.581604 1280.912109,534.163269 1280.912109,800.872437 
	C854.333374,800.872437 427.666687,800.872437 1.000006,800.877197 
	C1.000000,702.891968 1.000000,604.901917 1.294840,506.035217 
	C25.678431,505.158539 49.767181,505.158539 75.391022,505.158539 
	C74.028374,501.579010 73.660202,498.113281 71.735985,496.286804 
	C69.948692,494.590271 66.522217,494.548187 63.780926,493.943176 
	C56.393341,492.312683 52.272194,486.995972 52.033054,479.465240 
	C51.639267,467.064575 55.274303,455.412231 58.574860,443.755554 
	C60.998169,435.197052 66.356094,428.540131 74.360626,424.142365 
	C86.461685,417.493958 99.151619,418.019012 112.176079,420.310028 
	C122.731056,422.166626 130.501678,427.630524 135.353683,437.048615 
	C137.449997,441.117767 139.446823,445.418823 140.418365,449.849274 
	C142.468597,459.198792 144.110123,468.667328 145.252121,478.167206 
	C145.561447,480.740479 143.923676,483.875702 142.418427,486.275604 
	C138.456345,492.592529 131.594681,494.201721 124.962936,495.442932 
	C120.640282,496.251953 120.316139,498.270142 121.432625,502.070740 
	C166.709778,502.070740 212.056061,502.070740 257.355103,502.070740 
	C258.251343,493.835175 258.251099,493.846222 250.724380,493.681854 
	C249.060410,493.645538 247.383224,493.613403 245.738708,493.386566 
	C236.864639,492.162445 229.453903,486.022430 229.233826,479.390961 
	C229.046188,473.736359 229.045120,468.045990 229.449387,462.406433 
	C231.293976,436.674957 233.296173,410.954651 235.281570,385.233459 
	C235.566162,381.546509 236.068161,377.876343 236.613724,372.877167 
	C238.532104,374.649719 239.664856,375.210449 239.997467,376.077942 
	C243.832993,386.081635 247.543884,396.133026 251.294739,406.169220 
	C254.593613,414.996063 257.823700,423.849670 261.224060,432.637329 
	C265.690155,444.179291 270.248566,455.686188 274.849792,467.175110 
	C279.886658,479.751617 284.931213,492.327179 290.223999,504.796326 
	C290.840424,506.248535 293.509613,508.215698 294.438293,507.863586 
	C296.437286,507.105591 298.561676,505.295593 299.476929,503.366760 
	C301.090668,499.966034 301.542297,496.030945 302.998718,492.535553 
	C310.075378,475.551819 317.520844,458.719971 324.461548,441.681885 
	C332.958893,420.822540 341.057373,399.800934 349.436371,378.892792 
	C349.953064,377.603394 351.414001,376.692383 353.270691,374.716675 
	C353.784698,377.399078 354.209045,378.784088 354.295868,380.189911 
	C355.814606,404.782013 357.398315,429.370880 358.723969,453.973633 
	C359.225616,463.283661 359.340210,472.630371 359.199921,481.953857 
	C359.100616,488.553711 357.092499,490.511292 350.900940,491.798431 
	C346.415863,492.730774 341.939056,493.703033 337.398132,494.670380 
	C337.398132,497.117615 337.398132,499.395630 337.398132,502.105255 
	C365.685425,502.105255 393.734955,502.105255 421.748383,502.105255 
	C422.984161,494.228882 422.984161,494.228912 415.655548,493.362518 
	C405.513672,492.163544 397.597290,486.846771 396.090485,479.634430 
	C394.902649,473.949097 394.043549,468.149384 393.624756,462.358063 
	C392.568909,447.756195 391.684906,433.137665 391.021515,418.512634 
	C389.813995,391.892334 388.758728,365.264587 387.798523,338.634216 
	C387.667999,335.014221 388.169373,331.305695 388.873322,327.735779 
	C390.114166,321.442871 395.931488,316.464172 402.233124,315.324188 
	C405.372681,314.756256 408.335205,313.234131 411.470734,312.612091 
	C414.565002,311.998199 414.955078,309.884735 414.025024,307.877472 
	C413.411682,306.553741 411.292786,305.141632 409.827911,305.119812 
	C395.000519,304.898834 380.166351,304.817993 365.341797,305.102325 
	C363.373993,305.140076 360.550262,306.989746 359.678894,308.764282 
	C357.367096,313.472382 355.955750,318.617035 354.099060,323.555237 
	C349.029144,337.039612 344.091980,350.577606 338.777679,363.965515 
	C329.744385,386.722534 320.481049,409.388397 311.269287,432.074310 
	C309.402130,436.672638 307.426483,441.233398 305.291565,445.711700 
	C304.803558,446.735291 303.448608,447.345612 302.492676,448.146149 
	C301.811981,447.301727 300.872650,446.559418 300.492371,445.596344 
	C297.941406,439.135742 295.445129,432.651764 293.050842,426.131378 
	C285.804596,406.397644 278.616455,386.642609 271.398834,366.898407 
	C264.470917,347.946686 257.595978,328.975128 250.532227,310.074158 
	C249.529205,307.390289 248.146347,304.756348 244.211746,304.803680 
	C228.383438,304.994263 212.550751,304.841431 196.723480,305.074005 
	C194.847260,305.101562 192.583542,306.340210 191.286575,307.744476 
	C190.522385,308.571869 190.709747,311.747711 191.511932,312.272003 
	C193.765640,313.745087 196.497452,314.981873 199.151718,315.262604 
	C211.719986,316.592102 221.999664,327.039978 221.961487,339.797394 
	C221.926193,351.589447 221.322815,363.400330 220.453262,375.164734 
	C219.006958,394.731842 217.240173,414.276947 215.433441,433.815186 
	C213.948135,449.877350 212.290085,465.924957 210.533218,481.959808 
	C209.999207,486.833771 204.027390,492.982178 200.012802,493.410950 
	C197.095078,493.722534 191.418976,488.587433 189.806763,484.172241 
	C189.750259,484.017487 189.752106,483.842224 189.702942,483.683929 
	C182.772354,461.359009 175.657547,439.089172 168.960098,416.694580 
	C162.776459,396.018036 157.092133,375.192688 151.091690,354.460724 
	C145.647812,335.651672 139.973419,316.908997 134.583923,298.084595 
	C128.095673,275.422516 121.818359,252.700119 115.402740,230.017120 
	C114.500587,226.827454 112.529182,225.040665 108.875961,225.145905 
	C105.640480,225.239105 103.291718,225.500198 102.288223,229.448776 
	C99.956497,238.623718 97.033020,247.646576 94.458237,256.761810 
	C89.039993,275.943390 83.714249,295.151123 78.307365,314.335938 
	C74.209656,328.875488 70.060776,343.400696 65.905434,357.923920 
	C62.388893,370.214447 58.848408,382.498169 55.284702,394.775116 
	C52.506699,404.345306 49.641468,413.890198 46.878136,423.464569 
	C42.826595,437.502380 39.131874,451.652679 34.677601,465.560486 
	C32.641369,471.918365 30.043350,478.469360 26.121630,483.763519 
	C20.126934,491.856079 10.987469,495.210114 1.000000,496.000000 
M559.051147,331.257141 
	C555.579224,320.281982 546.094299,315.275177 537.175903,310.098419 
	C532.782043,307.547943 527.380981,306.543579 522.307007,305.421234 
	C519.004639,304.690735 515.470459,305.007690 511.124237,305.095154 
	C483.938141,305.144043 456.752014,305.192932 428.760345,305.116577 
	C427.505432,306.600220 425.478607,307.970825 425.239563,309.603210 
	C425.047943,310.911896 426.709625,313.306854 428.100586,313.879395 
	C432.261108,315.592163 436.687469,316.663849 441.019897,317.952728 
	C444.214905,318.903229 447.425354,319.801849 451.004517,320.777771 
	C451.254272,320.942627 451.329987,321.166229 451.105377,322.269989 
	C452.606995,325.525635 454.108612,328.781250 455.910217,332.925446 
	C455.903198,374.621552 455.898438,416.317627 455.875427,458.013733 
	C455.874878,458.996460 455.669739,459.979065 454.841339,461.235443 
	C454.024567,469.618408 453.207794,478.001373 452.057861,485.989166 
	C452.171356,486.120270 452.284821,486.251373 451.646423,486.182465 
	C445.223694,488.114807 438.909180,490.757294 432.344421,491.757843 
	C426.962982,492.578033 428.217834,495.815033 427.952301,498.933533 
	C427.651184,502.470398 428.935516,504.063538 432.746368,504.049072 
	C459.564362,503.947296 486.383026,504.023956 513.200928,503.907318 
	C514.448792,503.901886 515.691101,502.597504 516.981262,501.981842 
	C516.981262,501.981842 516.897705,501.936096 517.668945,501.879486 
	C518.078796,500.408478 518.948730,498.893585 518.813538,497.474518 
	C518.381409,492.939880 514.151428,490.691986 508.281525,489.861633 
	C492.526489,487.632935 490.982086,487.982544 491.035309,472.699188 
	C491.085052,458.410858 491.012451,444.122101 491.071442,429.833862 
	C491.078979,428.008606 491.555023,426.185303 491.804901,424.425262 
	C495.883240,425.791870 499.197235,427.498993 502.675171,427.954468 
	C512.603516,429.254791 522.397705,428.307678 531.247925,423.252930 
	C535.780396,420.664215 539.791443,417.162384 544.008606,414.005798 
	C544.008606,414.005798 544.074402,414.038788 544.778809,414.011902 
	C547.449829,411.253876 550.120789,408.495880 552.871338,405.872375 
	C552.871338,405.872375 552.736938,405.792633 553.467834,405.899689 
	C554.810791,404.756012 556.504395,403.844055 557.438782,402.430298 
	C562.733093,394.419403 566.943665,385.724304 567.784241,376.166718 
	C569.007141,362.263245 568.479980,348.348633 562.121399,335.407440 
	C561.469604,334.080811 560.056030,333.128479 559.000000,332.000000 
	C559.000000,332.000000 558.997498,332.004120 559.051147,331.257141 
M1110.275635,464.273529 
	C1114.347412,466.023987 1116.372925,463.477600 1117.372070,460.313385 
	C1120.000854,451.987671 1124.506226,444.951141 1129.527466,437.792633 
	C1136.252441,428.205200 1144.544678,422.399292 1155.876953,421.315308 
	C1163.623169,420.574371 1171.561035,420.267151 1179.268677,421.101227 
	C1188.187744,422.066437 1196.317749,425.645630 1200.729370,434.334747 
	C1204.361084,441.488098 1206.474243,449.004089 1206.503296,457.220215 
	C1206.569336,475.872437 1200.305786,487.287628 1181.871704,495.088165 
	C1171.802124,499.349182 1161.225464,499.679901 1150.506958,499.343597 
	C1137.256592,498.927917 1124.919434,494.916168 1115.298462,486.264069 
	C1104.639038,476.678101 1094.965454,465.782684 1086.070190,454.505005 
	C1076.255493,442.061554 1067.626709,428.659393 1058.855347,415.426849 
	C1054.955811,409.543884 1055.705688,406.825500 1061.325439,402.337891 
	C1080.930298,386.682861 1087.553467,366.296661 1083.161865,342.073151 
	C1081.979858,335.553680 1079.141968,329.647919 1074.498047,324.506561 
	C1063.686646,312.537109 1050.226074,307.010254 1034.359375,306.985535 
	C1007.532593,306.943787 980.705505,307.031006 953.878906,307.141205 
	C951.524658,307.150879 948.211060,305.836700 948.140015,310.400116 
	C948.085815,313.883759 947.726196,317.211792 952.669128,317.499268 
	C954.643494,317.614075 956.579346,318.283691 958.549561,318.593628 
	C968.152588,320.104340 974.124939,326.899078 974.135376,336.726654 
	C974.184631,383.215515 974.138611,429.704468 974.197083,476.193329 
	C974.214539,490.066284 966.730530,494.691345 954.994202,496.062927 
	C947.224915,496.970886 946.791260,497.229279 948.897583,505.149170 
	C977.113403,505.149170 1005.359741,505.149170 1033.794434,505.149170 
	C1033.794434,502.247131 1033.794434,499.670502 1033.794434,496.720947 
	C1031.886841,496.555450 1030.211182,496.631622 1028.656982,496.233276 
	C1024.187988,495.087982 1019.332764,494.523407 1015.423950,492.320709 
	C1008.328857,488.322479 1005.729126,481.308411 1005.711182,473.352631 
	C1005.604980,426.364136 1005.522827,379.375549 1005.433289,332.386993 
	C1005.428833,330.054230 1004.999817,327.604797 1005.586853,325.430603 
	C1005.964478,324.031769 1007.789490,322.093414 1009.054443,322.024567 
	C1014.697754,321.717468 1020.401245,321.660431 1026.030884,322.133026 
	C1037.779663,323.119293 1046.603149,329.534271 1049.363647,340.581818 
	C1051.760986,350.176331 1051.639648,360.627716 1051.236084,370.644196 
	C1050.538452,387.955688 1040.441895,404.612823 1019.817322,408.164948 
	C1018.328491,408.421326 1015.987061,409.642914 1015.848816,410.661102 
	C1015.503296,413.205109 1014.858154,415.872223 1018.029053,418.110321 
	C1021.895691,420.839417 1025.323120,424.447449 1028.243774,428.215393 
	C1040.598145,444.154175 1052.149414,460.750092 1065.096924,476.180725 
	C1072.348755,484.823395 1081.046875,492.697601 1090.365112,499.053802 
	C1103.306885,507.881927 1118.214478,512.557434 1133.939697,514.547852 
	C1149.385376,516.502930 1164.335938,515.088135 1179.299927,510.842255 
	C1190.051270,507.791687 1200.646362,504.170563 1212.327637,504.632355 
	C1231.127319,505.375549 1249.977661,504.842438 1268.806519,504.848389 
	C1270.761108,504.848999 1272.715576,504.848480 1274.533569,504.848480 
	C1276.136230,497.786804 1275.766968,497.057922 1270.074707,494.814301 
	C1264.495728,492.615448 1259.781128,489.292267 1257.514404,483.541687 
	C1255.143311,477.526581 1252.909668,471.430664 1251.086426,465.231659 
	C1247.201416,452.022095 1243.717651,438.695038 1239.891846,425.467529 
	C1234.770874,407.762573 1229.335693,390.147736 1224.301270,372.418671 
	C1218.086304,350.532471 1212.224243,328.546204 1206.063477,306.644318 
	C1198.774414,280.731415 1191.371460,254.850082 1183.834839,229.008423 
	C1183.430786,227.623016 1181.278076,225.739990 1180.034912,225.808990 
	C1177.121704,225.970734 1173.020264,223.598251 1171.526855,228.298584 
	C1169.921631,233.351059 1168.604004,238.495163 1167.168823,243.601501 
	C1162.856689,258.943115 1158.561890,274.289612 1154.235107,289.627075 
	C1149.948486,304.821533 1145.708740,320.029816 1141.306641,335.190918 
	C1136.395752,352.104034 1131.280884,368.957855 1126.341187,385.862732 
	C1123.500610,395.583527 1120.985352,405.401093 1118.046021,415.090912 
	C1114.297852,427.447815 1110.152344,439.684479 1106.423584,452.047028 
	C1105.088989,456.471741 1105.010986,460.966217 1110.275635,464.273529 
M763.375916,493.926392 
	C762.063660,493.763184 760.741089,493.657928 759.441040,493.426208 
	C754.904053,492.617523 750.169006,492.339264 745.888123,490.803223 
	C738.281555,488.073792 737.556824,481.302094 737.550842,474.366089 
	C737.510437,427.540405 737.440125,380.714691 737.380066,333.889008 
	C737.369934,326.010315 741.982788,319.768524 749.573547,317.809998 
	C754.195190,316.617584 758.916016,315.809479 763.520996,314.843719 
	C764.477600,307.030975 764.477600,307.041687 757.118103,307.036896 
	C732.788757,307.020966 708.459351,306.991394 684.130005,306.986298 
	C682.371582,306.985931 680.613159,307.140320 678.961365,307.217743 
	C677.858948,315.336212 677.914490,315.414429 684.998657,316.201538 
	C685.991821,316.311890 687.002808,316.323212 687.979126,316.514984 
	C698.577820,318.597137 704.300964,321.628357 704.270325,334.504730 
	C704.229858,351.500488 704.146912,368.501678 704.548340,385.489532 
	C704.666565,390.490631 703.129272,391.629669 698.407898,391.583923 
	C674.247131,391.349762 650.083191,391.438324 625.920410,391.414459 
	C624.156189,391.412720 622.392029,391.414246 620.449219,391.414246 
	C620.449219,371.022858 620.030884,351.378540 620.667725,331.768524 
	C620.902405,324.543701 624.730652,318.427765 633.184448,317.161926 
	C638.056458,316.432373 642.886780,315.424652 647.765686,314.536743 
	C648.887146,307.145721 646.981750,304.881287 639.546448,304.897461 
	C615.383850,304.949982 591.221191,305.002441 567.058594,305.064850 
	C559.800110,305.083588 559.621155,305.312805 560.582642,312.792023 
	C564.549500,313.872467 568.465454,315.648193 572.475037,315.893372 
	C582.985535,316.536072 588.086731,326.652527 588.130615,335.008331 
	C588.379883,382.499146 588.204529,429.992371 588.055420,477.484436 
	C588.048584,479.664337 587.189209,481.973358 586.242065,483.995117 
	C582.691650,491.573822 574.945190,491.500275 568.383118,492.963928 
	C561.210022,494.563843 561.101196,494.075989 562.532654,501.975769 
	C591.062195,501.975769 619.631714,501.975769 649.800171,501.975769 
	C648.386169,498.608093 647.962524,494.670166 646.122131,493.827942 
	C642.335938,492.095215 637.811646,491.877594 633.556274,491.287750 
	C624.291138,490.003540 620.276306,486.005188 620.182312,476.504944 
	C619.967834,454.844269 620.106934,433.180237 620.030334,411.517822 
	C620.018555,408.174591 621.121033,406.909058 624.729309,406.970764 
	C649.549927,407.395477 674.374146,407.652740 699.198181,407.800903 
	C703.078491,407.824097 704.565979,409.182404 704.506897,413.061615 
	C704.362122,422.557709 704.517090,432.057922 704.475281,441.556152 
	C704.421753,453.719086 704.508362,465.888580 704.119141,478.041962 
	C703.875793,485.642609 700.439819,489.413269 693.016357,491.193787 
	C688.236633,492.340240 683.371643,493.131165 678.499756,494.090302 
	C678.499756,496.679565 678.499756,499.266693 678.499756,501.934143 
	C707.166443,501.934143 735.533203,501.934143 763.924377,501.934143 
	C763.924377,499.159027 763.924377,496.839355 763.375916,493.926392 
M778.343140,353.572998 
	C775.889038,360.238983 772.581360,366.724731 771.129211,373.602264 
	C765.003357,402.614868 765.257446,431.391266 776.686279,459.295410 
	C782.250183,472.879883 790.776489,484.093811 803.193176,492.445770 
	C815.179138,500.507935 828.429749,504.506470 842.390442,507.004395 
	C871.826660,512.271301 897.746399,504.525604 920.068909,485.206451 
	C938.349976,469.385040 945.902954,447.991455 949.250244,424.696106 
	C952.273865,403.653534 951.386353,382.989227 945.288940,362.485779 
	C942.110168,351.796570 937.359436,342.018585 930.365356,333.546570 
	C917.092163,317.468384 900.573547,306.956360 879.514099,303.161713 
	C860.694397,299.770630 842.484253,300.817352 825.223694,308.316559 
	C804.476929,317.330475 788.140076,331.744385 778.343140,353.572998 
z"/>
<path fill="#090909" opacity="1.000000" stroke="none" 
	d="
M1.000000,496.454102 
	C10.987469,495.210114 20.126934,491.856079 26.121630,483.763519 
	C30.043350,478.469360 32.641369,471.918365 34.677601,465.560486 
	C39.131874,451.652679 42.826595,437.502380 46.878136,423.464569 
	C49.641468,413.890198 52.506699,404.345306 55.284702,394.775116 
	C58.848408,382.498169 62.388893,370.214447 65.905434,357.923920 
	C70.060776,343.400696 74.209656,328.875488 78.307365,314.335938 
	C83.714249,295.151123 89.039993,275.943390 94.458237,256.761810 
	C97.033020,247.646576 99.956497,238.623718 102.288223,229.448776 
	C103.291718,225.500198 105.640480,225.239105 108.875961,225.145905 
	C112.529182,225.040665 114.500587,226.827454 115.402740,230.017120 
	C121.818359,252.700119 128.095673,275.422516 134.583923,298.084595 
	C139.973419,316.908997 145.647812,335.651672 151.091690,354.460724 
	C157.092133,375.192688 162.776459,396.018036 168.960098,416.694580 
	C175.657547,439.089172 182.772354,461.359009 189.702942,483.683929 
	C189.752106,483.842224 189.750259,484.017487 189.806763,484.172241 
	C191.418976,488.587433 197.095078,493.722534 200.012802,493.410950 
	C204.027390,492.982178 209.999207,486.833771 210.533218,481.959808 
	C212.290085,465.924957 213.948135,449.877350 215.433441,433.815186 
	C217.240173,414.276947 219.006958,394.731842 220.453262,375.164734 
	C221.322815,363.400330 221.926193,351.589447 221.961487,339.797394 
	C221.999664,327.039978 211.719986,316.592102 199.151718,315.262604 
	C196.497452,314.981873 193.765640,313.745087 191.511932,312.272003 
	C190.709747,311.747711 190.522385,308.571869 191.286575,307.744476 
	C192.583542,306.340210 194.847260,305.101562 196.723480,305.074005 
	C212.550751,304.841431 228.383438,304.994263 244.211746,304.803680 
	C248.146347,304.756348 249.529205,307.390289 250.532227,310.074158 
	C257.595978,328.975128 264.470917,347.946686 271.398834,366.898407 
	C278.616455,386.642609 285.804596,406.397644 293.050842,426.131378 
	C295.445129,432.651764 297.941406,439.135742 300.492371,445.596344 
	C300.872650,446.559418 301.811981,447.301727 302.492676,448.146149 
	C303.448608,447.345612 304.803558,446.735291 305.291565,445.711700 
	C307.426483,441.233398 309.402130,436.672638 311.269287,432.074310 
	C320.481049,409.388397 329.744385,386.722534 338.777679,363.965515 
	C344.091980,350.577606 349.029144,337.039612 354.099060,323.555237 
	C355.955750,318.617035 357.367096,313.472382 359.678894,308.764282 
	C360.550262,306.989746 363.373993,305.140076 365.341797,305.102325 
	C380.166351,304.817993 395.000519,304.898834 409.827911,305.119812 
	C411.292786,305.141632 413.411682,306.553741 414.025024,307.877472 
	C414.955078,309.884735 414.565002,311.998199 411.470734,312.612091 
	C408.335205,313.234131 405.372681,314.756256 402.233124,315.324188 
	C395.931488,316.464172 390.114166,321.442871 388.873322,327.735779 
	C388.169373,331.305695 387.667999,335.014221 387.798523,338.634216 
	C388.758728,365.264587 389.813995,391.892334 391.021515,418.512634 
	C391.684906,433.137665 392.568909,447.756195 393.624756,462.358063 
	C394.043549,468.149384 394.902649,473.949097 396.090485,479.634430 
	C397.597290,486.846771 405.513672,492.163544 415.655548,493.362518 
	C422.984161,494.228912 422.984161,494.228882 421.748383,502.105255 
	C393.734955,502.105255 365.685425,502.105255 337.398132,502.105255 
	C337.398132,499.395630 337.398132,497.117615 337.398132,494.670380 
	C341.939056,493.703033 346.415863,492.730774 350.900940,491.798431 
	C357.092499,490.511292 359.100616,488.553711 359.199921,481.953857 
	C359.340210,472.630371 359.225616,463.283661 358.723969,453.973633 
	C357.398315,429.370880 355.814606,404.782013 354.295868,380.189911 
	C354.209045,378.784088 353.784698,377.399078 353.270691,374.716675 
	C351.414001,376.692383 349.953064,377.603394 349.436371,378.892792 
	C341.057373,399.800934 332.958893,420.822540 324.461548,441.681885 
	C317.520844,458.719971 310.075378,475.551819 302.998718,492.535553 
	C301.542297,496.030945 301.090668,499.966034 299.476929,503.366760 
	C298.561676,505.295593 296.437286,507.105591 294.438293,507.863586 
	C293.509613,508.215698 290.840424,506.248535 290.223999,504.796326 
	C284.931213,492.327179 279.886658,479.751617 274.849792,467.175110 
	C270.248566,455.686188 265.690155,444.179291 261.224060,432.637329 
	C257.823700,423.849670 254.593613,414.996063 251.294739,406.169220 
	C247.543884,396.133026 243.832993,386.081635 239.997467,376.077942 
	C239.664856,375.210449 238.532104,374.649719 236.613724,372.877167 
	C236.068161,377.876343 235.566162,381.546509 235.281570,385.233459 
	C233.296173,410.954651 231.293976,436.674957 229.449387,462.406433 
	C229.045120,468.045990 229.046188,473.736359 229.233826,479.390961 
	C229.453903,486.022430 236.864639,492.162445 245.738708,493.386566 
	C247.383224,493.613403 249.060410,493.645538 250.724380,493.681854 
	C258.251099,493.846222 258.251343,493.835175 257.355103,502.070740 
	C212.056061,502.070740 166.709778,502.070740 121.432625,502.070740 
	C120.316139,498.270142 120.640282,496.251953 124.962936,495.442932 
	C131.594681,494.201721 138.456345,492.592529 142.418427,486.275604 
	C143.923676,483.875702 145.561447,480.740479 145.252121,478.167206 
	C144.110123,468.667328 142.468597,459.198792 140.418365,449.849274 
	C139.446823,445.418823 137.449997,441.117767 135.353683,437.048615 
	C130.501678,427.630524 122.731056,422.166626 112.176079,420.310028 
	C99.151619,418.019012 86.461685,417.493958 74.360626,424.142365 
	C66.356094,428.540131 60.998169,435.197052 58.574860,443.755554 
	C55.274303,455.412231 51.639267,467.064575 52.033054,479.465240 
	C52.272194,486.995972 56.393341,492.312683 63.780926,493.943176 
	C66.522217,494.548187 69.948692,494.590271 71.735985,496.286804 
	C73.660202,498.113281 74.028374,501.579010 75.391022,505.158539 
	C49.767181,505.158539 25.678431,505.158539 1.294840,505.579285 
	C1.000000,502.969391 1.000000,499.938812 1.000000,496.454102 
M128.739746,405.747986 
	C125.392441,393.813354 122.005157,381.889709 118.710960,369.940430 
	C116.242966,360.988129 113.902863,352.000580 111.491058,343.032715 
	C109.046310,333.942291 106.610931,324.849182 104.117470,315.772064 
	C102.771919,310.873779 101.313477,306.006439 99.905960,301.125122 
	C99.280159,301.170044 98.654358,301.214966 98.028549,301.259918 
	C88.078362,336.938293 78.128166,372.616669 67.838409,409.512604 
	C74.802933,407.664551 79.928185,406.175476 85.116241,404.952911 
	C98.794090,401.729675 112.100380,403.748291 125.238068,407.985718 
	C126.732216,408.467682 128.978561,410.127533 128.739746,405.747986 
z"/>
<path fill="#090909" opacity="1.000000" stroke="none" 
	d="
M1109.931885,464.147827 
	C1105.010986,460.966217 1105.088989,456.471741 1106.423584,452.047028 
	C1110.152344,439.684479 1114.297852,427.447815 1118.046021,415.090912 
	C1120.985352,405.401093 1123.500610,395.583527 1126.341187,385.862732 
	C1131.280884,368.957855 1136.395752,352.104034 1141.306641,335.190918 
	C1145.708740,320.029816 1149.948486,304.821533 1154.235107,289.627075 
	C1158.561890,274.289612 1162.856689,258.943115 1167.168823,243.601501 
	C1168.604004,238.495163 1169.921631,233.351059 1171.526855,228.298584 
	C1173.020264,223.598251 1177.121704,225.970734 1180.034912,225.808990 
	C1181.278076,225.739990 1183.430786,227.623016 1183.834839,229.008423 
	C1191.371460,254.850082 1198.774414,280.731415 1206.063477,306.644318 
	C1212.224243,328.546204 1218.086304,350.532471 1224.301270,372.418671 
	C1229.335693,390.147736 1234.770874,407.762573 1239.891846,425.467529 
	C1243.717651,438.695038 1247.201416,452.022095 1251.086426,465.231659 
	C1252.909668,471.430664 1255.143311,477.526581 1257.514404,483.541687 
	C1259.781128,489.292267 1264.495728,492.615448 1270.074707,494.814301 
	C1275.766968,497.057922 1276.136230,497.786804 1274.533569,504.848480 
	C1272.715576,504.848480 1270.761108,504.848999 1268.806519,504.848389 
	C1249.977661,504.842438 1231.127319,505.375549 1212.327637,504.632355 
	C1200.646362,504.170563 1190.051270,507.791687 1179.299927,510.842255 
	C1164.335938,515.088135 1149.385376,516.502930 1133.939697,514.547852 
	C1118.214478,512.557434 1103.306885,507.881927 1090.365112,499.053802 
	C1081.046875,492.697601 1072.348755,484.823395 1065.096924,476.180725 
	C1052.149414,460.750092 1040.598145,444.154175 1028.243774,428.215393 
	C1025.323120,424.447449 1021.895691,420.839417 1018.029053,418.110321 
	C1014.858154,415.872223 1015.503296,413.205109 1015.848816,410.661102 
	C1015.987061,409.642914 1018.328491,408.421326 1019.817322,408.164948 
	C1040.441895,404.612823 1050.538452,387.955688 1051.236084,370.644196 
	C1051.639648,360.627716 1051.760986,350.176331 1049.363647,340.581818 
	C1046.603149,329.534271 1037.779663,323.119293 1026.030884,322.133026 
	C1020.401245,321.660431 1014.697754,321.717468 1009.054443,322.024567 
	C1007.789490,322.093414 1005.964478,324.031769 1005.586853,325.430603 
	C1004.999817,327.604797 1005.428833,330.054230 1005.433289,332.386993 
	C1005.522827,379.375549 1005.604980,426.364136 1005.711182,473.352631 
	C1005.729126,481.308411 1008.328857,488.322479 1015.423950,492.320709 
	C1019.332764,494.523407 1024.187988,495.087982 1028.656982,496.233276 
	C1030.211182,496.631622 1031.886841,496.555450 1033.794434,496.720947 
	C1033.794434,499.670502 1033.794434,502.247131 1033.794434,505.149170 
	C1005.359741,505.149170 977.113403,505.149170 948.897583,505.149170 
	C946.791260,497.229279 947.224915,496.970886 954.994202,496.062927 
	C966.730530,494.691345 974.214539,490.066284 974.197083,476.193329 
	C974.138611,429.704468 974.184631,383.215515 974.135376,336.726654 
	C974.124939,326.899078 968.152588,320.104340 958.549561,318.593628 
	C956.579346,318.283691 954.643494,317.614075 952.669128,317.499268 
	C947.726196,317.211792 948.085815,313.883759 948.140015,310.400116 
	C948.211060,305.836700 951.524658,307.150879 953.878906,307.141205 
	C980.705505,307.031006 1007.532593,306.943787 1034.359375,306.985535 
	C1050.226074,307.010254 1063.686646,312.537109 1074.498047,324.506561 
	C1079.141968,329.647919 1081.979858,335.553680 1083.161865,342.073151 
	C1087.553467,366.296661 1080.930298,386.682861 1061.325439,402.337891 
	C1055.705688,406.825500 1054.955811,409.543884 1058.855347,415.426849 
	C1067.626709,428.659393 1076.255493,442.061554 1086.070190,454.505005 
	C1094.965454,465.782684 1104.639038,476.678101 1115.298462,486.264069 
	C1124.919434,494.916168 1137.256592,498.927917 1150.506958,499.343597 
	C1161.225464,499.679901 1171.802124,499.349182 1181.871704,495.088165 
	C1200.305786,487.287628 1206.569336,475.872437 1206.503296,457.220215 
	C1206.474243,449.004089 1204.361084,441.488098 1200.729370,434.334747 
	C1196.317749,425.645630 1188.187744,422.066437 1179.268677,421.101227 
	C1171.561035,420.267151 1163.623169,420.574371 1155.876953,421.315308 
	C1144.544678,422.399292 1136.252441,428.205200 1129.527466,437.792633 
	C1124.506226,444.951141 1120.000854,451.987671 1117.372070,460.313385 
	C1116.372925,463.477600 1114.347412,466.023987 1109.931885,464.147827 
M1151.323853,355.778259 
	C1146.458008,373.184387 1141.592163,390.590515 1136.824707,407.644714 
	C1147.964844,406.871277 1158.123169,406.113159 1168.289062,405.475067 
	C1178.542969,404.831451 1188.477051,406.382324 1198.645020,411.686859 
	C1197.032593,405.131409 1195.872437,400.141876 1194.573730,395.188721 
	C1191.416138,383.146271 1188.252197,371.104950 1184.980225,359.093262 
	C1182.233521,349.009888 1179.197510,339.004089 1176.538696,328.898407 
	C1174.305420,320.410370 1172.498535,311.810608 1170.319824,303.307220 
	C1170.025635,302.158661 1168.661743,301.284149 1167.793091,300.282745 
	C1167.017700,301.397552 1165.873779,302.413391 1165.542358,303.647400 
	C1164.811523,306.368134 1164.730713,309.267242 1163.961548,311.973267 
	C1159.879395,326.332764 1155.666260,340.655060 1151.323853,355.778259 
z"/>
<path fill="#090909" opacity="1.000000" stroke="none" 
	d="
M763.650146,494.223053 
	C763.924377,496.839355 763.924377,499.159027 763.924377,501.934143 
	C735.533203,501.934143 707.166443,501.934143 678.499756,501.934143 
	C678.499756,499.266693 678.499756,496.679565 678.499756,494.090302 
	C683.371643,493.131165 688.236633,492.340240 693.016357,491.193787 
	C700.439819,489.413269 703.875793,485.642609 704.119141,478.041962 
	C704.508362,465.888580 704.421753,453.719086 704.475281,441.556152 
	C704.517090,432.057922 704.362122,422.557709 704.506897,413.061615 
	C704.565979,409.182404 703.078491,407.824097 699.198181,407.800903 
	C674.374146,407.652740 649.549927,407.395477 624.729309,406.970764 
	C621.121033,406.909058 620.018555,408.174591 620.030334,411.517822 
	C620.106934,433.180237 619.967834,454.844269 620.182312,476.504944 
	C620.276306,486.005188 624.291138,490.003540 633.556274,491.287750 
	C637.811646,491.877594 642.335938,492.095215 646.122131,493.827942 
	C647.962524,494.670166 648.386169,498.608093 649.800171,501.975769 
	C619.631714,501.975769 591.062195,501.975769 562.532654,501.975769 
	C561.101196,494.075989 561.210022,494.563843 568.383118,492.963928 
	C574.945190,491.500275 582.691650,491.573822 586.242065,483.995117 
	C587.189209,481.973358 588.048584,479.664337 588.055420,477.484436 
	C588.204529,429.992371 588.379883,382.499146 588.130615,335.008331 
	C588.086731,326.652527 582.985535,316.536072 572.475037,315.893372 
	C568.465454,315.648193 564.549500,313.872467 560.582642,312.792023 
	C559.621155,305.312805 559.800110,305.083588 567.058594,305.064850 
	C591.221191,305.002441 615.383850,304.949982 639.546448,304.897461 
	C646.981750,304.881287 648.887146,307.145721 647.765686,314.536743 
	C642.886780,315.424652 638.056458,316.432373 633.184448,317.161926 
	C624.730652,318.427765 620.902405,324.543701 620.667725,331.768524 
	C620.030884,351.378540 620.449219,371.022858 620.449219,391.414246 
	C622.392029,391.414246 624.156189,391.412720 625.920410,391.414459 
	C650.083191,391.438324 674.247131,391.349762 698.407898,391.583923 
	C703.129272,391.629669 704.666565,390.490631 704.548340,385.489532 
	C704.146912,368.501678 704.229858,351.500488 704.270325,334.504730 
	C704.300964,321.628357 698.577820,318.597137 687.979126,316.514984 
	C687.002808,316.323212 685.991821,316.311890 684.998657,316.201538 
	C677.914490,315.414429 677.858948,315.336212 678.961365,307.217743 
	C680.613159,307.140320 682.371582,306.985931 684.130005,306.986298 
	C708.459351,306.991394 732.788757,307.020966 757.118103,307.036896 
	C764.477600,307.041687 764.477600,307.030975 763.520996,314.843719 
	C758.916016,315.809479 754.195190,316.617584 749.573547,317.809998 
	C741.982788,319.768524 737.369934,326.010315 737.380066,333.889008 
	C737.440125,380.714691 737.510437,427.540405 737.550842,474.366089 
	C737.556824,481.302094 738.281555,488.073792 745.888123,490.803223 
	C750.169006,492.339264 754.904053,492.617523 759.441040,493.426208 
	C760.741089,493.657928 762.063660,493.763184 763.650146,494.223053 
z"/>
<path fill="#090909" opacity="1.000000" stroke="none" 
	d="
M778.454712,353.211273 
	C788.140076,331.744385 804.476929,317.330475 825.223694,308.316559 
	C842.484253,300.817352 860.694397,299.770630 879.514099,303.161713 
	C900.573547,306.956360 917.092163,317.468384 930.365356,333.546570 
	C937.359436,342.018585 942.110168,351.796570 945.288940,362.485779 
	C951.386353,382.989227 952.273865,403.653534 949.250244,424.696106 
	C945.902954,447.991455 938.349976,469.385040 920.068909,485.206451 
	C897.746399,504.525604 871.826660,512.271301 842.390442,507.004395 
	C828.429749,504.506470 815.179138,500.507935 803.193176,492.445770 
	C790.776489,484.093811 782.250183,472.879883 776.686279,459.295410 
	C765.257446,431.391266 765.003357,402.614868 771.129211,373.602264 
	C772.581360,366.724731 775.889038,360.238983 778.454712,353.211273 
M819.964844,337.560181 
	C819.009033,339.111328 817.969910,340.617828 817.110229,342.220520 
	C807.484802,360.164917 803.287231,379.346558 803.267029,399.683777 
	C803.244812,422.061096 804.135925,444.106506 813.851318,464.953888 
	C828.930603,497.311218 861.874023,503.566864 888.563599,485.752014 
	C900.445129,477.821259 906.522339,465.194214 909.516907,451.850220 
	C912.628418,437.985535 914.424683,423.685364 915.257263,409.485352 
	C916.281921,392.010529 914.279907,374.546326 909.519287,357.646454 
	C907.398071,350.116547 904.516357,342.504211 900.427917,335.888336 
	C892.459656,322.994019 879.950623,316.290253 865.045227,314.820496 
	C855.744019,313.903320 846.015930,314.482758 838.193970,320.048187 
	C831.576050,324.756989 826.203979,331.216766 819.964844,337.560181 
z"/>
<path fill="#090909" opacity="1.000000" stroke="none" 
	d="
M455.559998,460.961731 
	C455.669739,459.979065 455.874878,458.996460 455.875427,458.013733 
	C455.898438,416.317627 455.903198,374.621552 455.885986,332.110107 
	C454.318390,328.012726 452.775055,324.730682 451.231720,321.448639 
	C451.329987,321.166229 451.254272,320.942627 450.685486,320.414978 
	C448.722443,319.051636 447.194641,317.686432 445.412720,317.118530 
	C439.971344,315.384399 434.442169,313.920319 428.927490,312.423553 
	C425.362518,311.455963 425.880798,309.653748 427.764862,307.460693 
	C428.385376,306.738403 428.966675,305.982391 429.565918,305.241821 
	C456.752014,305.192932 483.938141,305.144043 511.876099,305.207092 
	C522.902954,307.680847 533.942993,308.133514 542.360291,315.506256 
	C548.224121,320.642395 553.473572,326.479919 558.997498,332.004120 
	C558.997498,332.004120 559.000000,332.000000 558.998779,332.381409 
	C562.400085,341.758057 566.310486,350.562469 566.416199,360.502045 
	C566.592407,377.075378 562.969910,392.408234 552.736938,405.792633 
	C552.736938,405.792633 552.871338,405.872375 552.494019,405.855469 
	C549.435974,408.571960 546.755188,411.305389 544.074402,414.038818 
	C544.074402,414.038788 544.008606,414.005798 543.673584,414.061920 
	C538.458740,416.893646 533.847412,420.410400 528.644775,422.294464 
	C516.893738,426.549896 504.816071,430.366699 493.279633,421.486359 
	C492.147095,420.614594 491.585693,419.000854 490.759247,417.731445 
	C492.026703,416.962097 493.237915,415.671997 494.572937,415.527832 
	C497.701630,415.189972 500.901581,415.216736 504.051483,415.421661 
	C517.845764,416.319214 527.224243,405.929016 529.488831,395.336578 
	C531.898376,384.066528 532.823547,372.374451 533.235046,360.825226 
	C533.447327,354.868317 532.165100,348.371796 529.770691,342.901459 
	C523.147339,327.769714 511.080170,320.873962 494.420166,321.794250 
	C490.243378,322.024994 488.971375,323.441101 488.977844,327.458466 
	C489.057007,376.571228 488.976929,425.684265 489.041626,474.797089 
	C489.057709,487.013031 491.814667,489.874939 503.957550,491.309113 
	C505.113434,491.445618 506.275909,491.530121 507.436859,491.619232 
	C515.554443,492.242218 517.019165,493.837341 516.897705,501.936096 
	C516.897705,501.936096 516.981262,501.981842 516.494446,501.975098 
	C515.180481,502.055359 514.353516,502.217438 513.526245,502.218506 
	C486.538239,502.253540 459.550201,502.279114 432.562195,502.269806 
	C431.618652,502.269501 430.675201,501.899597 429.803375,501.716949 
	C428.937134,494.253784 429.043610,494.787476 436.138885,493.371826 
	C441.893921,492.223572 448.452179,492.083862 452.398315,486.382446 
	C452.284821,486.251373 452.171356,486.120270 452.533997,486.023743 
	C457.869507,478.100189 455.635834,469.421326 455.559998,460.961731 
z"/>
<path fill="#E9EAE9" opacity="1.000000" stroke="none" 
	d="
M517.283325,501.907776 
	C517.019165,493.837341 515.554443,492.242218 507.436859,491.619232 
	C506.275909,491.530121 505.113434,491.445618 503.957550,491.309113 
	C491.814667,489.874939 489.057709,487.013031 489.041626,474.797089 
	C488.976929,425.684265 489.057007,376.571228 488.977844,327.458466 
	C488.971375,323.441101 490.243378,322.024994 494.420166,321.794250 
	C511.080170,320.873962 523.147339,327.769714 529.770691,342.901459 
	C532.165100,348.371796 533.447327,354.868317 533.235046,360.825226 
	C532.823547,372.374451 531.898376,384.066528 529.488831,395.336578 
	C527.224243,405.929016 517.845764,416.319214 504.051483,415.421661 
	C500.901581,415.216736 497.701630,415.189972 494.572937,415.527832 
	C493.237915,415.671997 492.026703,416.962097 490.759247,417.731445 
	C491.585693,419.000854 492.147095,420.614594 493.279633,421.486359 
	C504.816071,430.366699 516.893738,426.549896 528.644775,422.294464 
	C533.847412,420.410400 538.458740,416.893646 543.688293,414.095642 
	C539.791443,417.162384 535.780396,420.664215 531.247925,423.252930 
	C522.397705,428.307678 512.603516,429.254791 502.675171,427.954468 
	C499.197235,427.498993 495.883240,425.791870 491.804901,424.425262 
	C491.555023,426.185303 491.078979,428.008606 491.071442,429.833862 
	C491.012451,444.122101 491.085052,458.410858 491.035309,472.699188 
	C490.982086,487.982544 492.526489,487.632935 508.281525,489.861633 
	C514.151428,490.691986 518.381409,492.939880 518.813538,497.474518 
	C518.948730,498.893585 518.078796,500.408478 517.283325,501.907776 
z"/>
<path fill="#E9EAE9" opacity="1.000000" stroke="none" 
	d="
M452.022369,486.282471 
	C448.452179,492.083862 441.893921,492.223572 436.138885,493.371826 
	C429.043610,494.787476 428.937134,494.253784 429.803375,501.716949 
	C430.675201,501.899597 431.618652,502.269501 432.562195,502.269806 
	C459.550201,502.279114 486.538239,502.253540 513.526245,502.218506 
	C514.353516,502.217438 515.180481,502.055359 516.471802,501.933228 
	C515.691101,502.597504 514.448792,503.901886 513.200928,503.907318 
	C486.383026,504.023956 459.564362,503.947296 432.746368,504.049072 
	C428.935516,504.063538 427.651184,502.470398 427.952301,498.933533 
	C428.217834,495.815033 426.962982,492.578033 432.344421,491.757843 
	C438.909180,490.757294 445.223694,488.114807 452.022369,486.282471 
z"/>
<path fill="#E9EAE9" opacity="1.000000" stroke="none" 
	d="
M553.102417,405.846161 
	C562.969910,392.408234 566.592407,377.075378 566.416199,360.502045 
	C566.310486,350.562469 562.400085,341.758057 558.996704,332.382629 
	C560.056030,333.128479 561.469604,334.080811 562.121399,335.407440 
	C568.479980,348.348633 569.007141,362.263245 567.784241,376.166718 
	C566.943665,385.724304 562.733093,394.419403 557.438782,402.430298 
	C556.504395,403.844055 554.810791,404.756012 553.102417,405.846161 
z"/>
<path fill="#E9EAE9" opacity="1.000000" stroke="none" 
	d="
M559.024292,331.630615 
	C553.473572,326.479919 548.224121,320.642395 542.360291,315.506256 
	C533.942993,308.133514 522.902954,307.680847 512.334045,305.087219 
	C515.470459,305.007690 519.004639,304.690735 522.307007,305.421234 
	C527.380981,306.543579 532.782043,307.547943 537.175903,310.098419 
	C546.094299,315.275177 555.579224,320.281982 559.024292,331.630615 
z"/>
<path fill="#E9EAE9" opacity="1.000000" stroke="none" 
	d="
M429.163147,305.179199 
	C428.966675,305.982391 428.385376,306.738403 427.764862,307.460693 
	C425.880798,309.653748 425.362518,311.455963 428.927490,312.423553 
	C434.442169,313.920319 439.971344,315.384399 445.412720,317.118530 
	C447.194641,317.686432 448.722443,319.051636 450.497681,320.387878 
	C447.425354,319.801849 444.214905,318.903229 441.019897,317.952728 
	C436.687469,316.663849 432.261108,315.592163 428.100586,313.879395 
	C426.709625,313.306854 425.047943,310.911896 425.239563,309.603210 
	C425.478607,307.970825 427.505432,306.600220 429.163147,305.179199 
z"/>
<path fill="#E9EAE9" opacity="1.000000" stroke="none" 
	d="
M455.200684,461.098572 
	C455.635834,469.421326 457.869507,478.100189 452.700562,486.221344 
	C453.207794,478.001373 454.024567,469.618408 455.200684,461.098572 
z"/>
<path fill="#E9EAE9" opacity="1.000000" stroke="none" 
	d="
M451.168549,321.859314 
	C452.775055,324.730682 454.318390,328.012726 455.735962,331.665833 
	C454.108612,328.781250 452.606995,325.525635 451.168549,321.859314 
z"/>
<path fill="#E9EAE9" opacity="1.000000" stroke="none" 
	d="
M544.426636,414.025360 
	C546.755188,411.305389 549.435974,408.571960 552.454285,405.788208 
	C550.120789,408.495880 547.449829,411.253876 544.426636,414.025360 
z"/>
<path fill="#F5F5F4" opacity="1.000000" stroke="none" 
	d="
M128.842682,406.123871 
	C128.978561,410.127533 126.732216,408.467682 125.238068,407.985718 
	C112.100380,403.748291 98.794090,401.729675 85.116241,404.952911 
	C79.928185,406.175476 74.802933,407.664551 67.838409,409.512604 
	C78.128166,372.616669 88.078362,336.938293 98.028549,301.259918 
	C98.654358,301.214966 99.280159,301.170044 99.905960,301.125122 
	C101.313477,306.006439 102.771919,310.873779 104.117470,315.772064 
	C106.610931,324.849182 109.046310,333.942291 111.491058,343.032715 
	C113.902863,352.000580 116.242966,360.988129 118.710960,369.940430 
	C122.005157,381.889709 125.392441,393.813354 128.842682,406.123871 
z"/>
<path fill="#F5F5F5" opacity="1.000000" stroke="none" 
	d="
M1151.411133,355.384247 
	C1155.666260,340.655060 1159.879395,326.332764 1163.961548,311.973267 
	C1164.730713,309.267242 1164.811523,306.368134 1165.542358,303.647400 
	C1165.873779,302.413391 1167.017700,301.397552 1167.793091,300.282715 
	C1168.661743,301.284149 1170.025635,302.158661 1170.319824,303.307220 
	C1172.498535,311.810608 1174.305420,320.410370 1176.538696,328.898407 
	C1179.197510,339.004089 1182.233521,349.009888 1184.980225,359.093262 
	C1188.252197,371.104950 1191.416138,383.146271 1194.573730,395.188721 
	C1195.872437,400.141876 1197.032593,405.131409 1198.645020,411.686859 
	C1188.477051,406.382324 1178.542969,404.831451 1168.289062,405.475067 
	C1158.123169,406.113159 1147.964844,406.871277 1136.824707,407.644714 
	C1141.592163,390.590515 1146.458008,373.184387 1151.411133,355.384247 
z"/>
<path fill="#FCFCFB" opacity="1.000000" stroke="none" 
	d="
M820.122681,337.230896 
	C826.203979,331.216766 831.576050,324.756989 838.193970,320.048187 
	C846.015930,314.482758 855.744019,313.903320 865.045227,314.820496 
	C879.950623,316.290253 892.459656,322.994019 900.427917,335.888336 
	C904.516357,342.504211 907.398071,350.116547 909.519287,357.646454 
	C914.279907,374.546326 916.281921,392.010529 915.257263,409.485352 
	C914.424683,423.685364 912.628418,437.985535 909.516907,451.850220 
	C906.522339,465.194214 900.445129,477.821259 888.563599,485.752014 
	C861.874023,503.566864 828.930603,497.311218 813.851318,464.953888 
	C804.135925,444.106506 803.244812,422.061096 803.267029,399.683777 
	C803.287231,379.346558 807.484802,360.164917 817.110229,342.220520 
	C817.969910,340.617828 819.009033,339.111328 820.122681,337.230896 
z"/>
</svg>