<svg xmlns="http://www.w3.org/2000/svg" xml:space="preserve" viewBox="0 0 1280 800"><path fill="#FDFEFE" d="M1 496V1.025h1279.912v799.847c-426.579 0-853.245 0-1279.912.005 0-97.985 0-195.975.295-294.842 24.383-.876 48.472-.876 74.096-.876-1.363-3.58-1.73-7.046-3.655-8.872-1.787-1.697-5.214-1.739-7.955-2.344-7.388-1.63-11.509-6.947-11.748-14.478-.394-12.4 3.241-24.053 6.542-35.71 2.423-8.558 7.781-15.215 15.786-19.613 12.1-6.648 24.79-6.123 37.815-3.832 10.555 1.857 18.326 7.32 23.178 16.739 2.096 4.069 4.093 8.37 5.064 12.8 2.05 9.35 3.692 18.818 4.834 28.318.31 2.573-1.328 5.709-2.834 8.109-3.962 6.317-10.823 7.926-17.455 9.167-4.323.809-4.647 2.827-3.53 6.628h135.922c.896-8.236.896-8.225-6.63-8.39-1.665-.035-3.342-.068-4.986-.294-8.874-1.225-16.285-7.365-16.505-13.996-.188-5.655-.189-11.345.215-16.985 1.845-25.731 3.847-51.451 5.833-77.173.284-3.686.786-7.357 1.332-12.356 1.918 1.773 3.05 2.333 3.383 3.2 3.836 10.005 7.547 20.056 11.298 30.092 3.299 8.827 6.529 17.68 9.93 26.468a3165 3165 0 0 0 13.625 34.538c5.037 12.577 10.081 25.152 15.374 37.621.616 1.453 3.286 3.42 4.214 3.068 2-.758 4.124-2.568 5.039-4.497 1.614-3.401 2.065-7.336 3.522-10.831 7.076-16.984 14.522-33.816 21.463-50.854 8.497-20.86 16.595-41.881 24.974-62.79.517-1.289 1.978-2.2 3.835-4.175.514 2.682.938 4.067 1.025 5.473 1.519 24.592 3.102 49.18 4.428 73.784.502 9.31.616 18.656.476 27.98-.1 6.6-2.108 8.557-8.3 9.844-4.484.933-8.96 1.905-13.502 2.872v7.435h84.35c1.236-7.876 1.236-7.876-6.092-8.742-10.142-1.2-18.059-6.516-19.566-13.729-1.187-5.685-2.046-11.485-2.465-17.276a1636 1636 0 0 1-2.603-43.845c-1.208-26.62-2.263-53.248-3.223-79.879-.131-3.62.37-7.328 1.074-10.898 1.241-6.293 7.058-11.272 13.36-12.412 3.14-.568 6.102-2.09 9.238-2.712 3.094-.614 3.484-2.727 2.554-4.735-.613-1.323-2.732-2.735-4.197-2.757-14.827-.221-29.662-.302-44.486-.018-1.968.038-4.792 1.888-5.663 3.662-2.312 4.708-3.723 9.853-5.58 14.791-5.07 13.485-10.007 27.023-15.321 40.41-9.034 22.758-18.297 45.423-27.509 68.11-1.867 4.598-3.843 9.158-5.977 13.637-.488 1.023-1.843 1.634-2.8 2.434-.68-.844-1.62-1.587-2-2.55a863 863 0 0 1-7.441-19.465c-7.246-19.733-14.435-39.488-21.652-59.233-6.928-18.951-13.803-37.923-20.867-56.824-1.003-2.684-2.386-5.318-6.32-5.27-15.829.19-31.661.037-47.489.27-1.876.028-4.14 1.266-5.436 2.67-.765.828-.577 4.004.225 4.528 2.254 1.473 4.985 2.71 7.64 2.99 12.568 1.33 22.848 11.778 22.81 24.535-.036 11.792-.64 23.603-1.509 35.368-1.446 19.567-3.213 39.112-5.02 58.65-1.485 16.062-3.143 32.11-4.9 48.145-.534 4.874-6.506 11.022-10.52 11.451-2.918.312-8.594-4.824-10.206-9.239-.057-.155-.055-.33-.104-.488-6.93-22.325-14.045-44.595-20.743-66.99-6.184-20.676-11.868-41.501-17.868-62.233-5.444-18.81-11.119-37.552-16.508-56.376-6.488-22.662-12.766-45.385-19.181-68.068-.902-3.19-2.874-4.976-6.527-4.871-3.236.093-5.584.354-6.588 4.303-2.332 9.175-5.255 18.198-7.83 27.313-5.418 19.181-10.744 38.39-16.15 57.574-4.098 14.54-8.247 29.065-12.403 43.588a9989 9989 0 0 1-10.62 36.851c-2.778 9.57-5.644 19.115-8.407 28.69-4.051 14.037-7.746 28.188-12.2 42.095-2.037 6.358-4.635 12.91-8.556 18.204C20.127 491.856 10.987 495.21 1 496m558.051-164.743c-3.472-10.975-12.957-15.982-21.875-21.159-4.394-2.55-9.795-3.554-14.869-4.677-3.302-.73-6.837-.413-11.183-.326-27.186.049-54.372.098-82.364.022-1.255 1.483-3.281 2.854-3.52 4.486-.192 1.309 1.47 3.704 2.86 4.276 4.161 1.713 8.587 2.785 12.92 4.074 3.195.95 6.405 1.849 9.985 2.825.25.165.325.388.1 1.492 1.502 3.256 3.004 6.511 4.805 10.655-.007 41.697-.012 83.393-.035 125.089 0 .982-.205 1.965-1.034 3.221-.816 8.383-1.633 16.766-2.783 24.754.113.131.227.262-.412.193-6.422 1.933-12.737 4.575-19.302 5.576-5.381.82-4.126 4.057-4.392 7.176-.3 3.536.984 5.13 4.794 5.115 26.818-.102 53.637-.025 80.455-.142 1.248-.005 2.49-1.31 3.78-1.925 0 0-.083-.046.688-.103.41-1.47 1.28-2.985 1.145-4.404-.433-4.535-4.663-6.783-10.532-7.613-15.756-2.23-17.3-1.88-17.247-17.163.05-14.288-.023-28.577.036-42.865.008-1.825.484-3.649.734-5.409 4.078 1.367 7.392 3.074 10.87 3.53 9.929 1.3 19.723.353 28.573-4.702 4.532-2.589 8.543-6.09 12.76-9.247 0 0 .066.033.77.006 2.672-2.758 5.343-5.516 8.093-8.14 0 0-.134-.08.597.028 1.343-1.144 3.036-2.056 3.97-3.47 5.295-8.01 9.506-16.706 10.346-26.263 1.223-13.904.696-27.818-5.663-40.76-.651-1.326-2.065-2.279-3.121-3.407 0 0-.003.004.051-.743m551.225 133.017c4.071 1.75 6.097-.796 7.096-3.96 2.629-8.326 7.134-15.363 12.155-22.521 6.725-9.588 15.018-15.394 26.35-16.478 7.746-.74 15.684-1.048 23.392-.214 8.919.965 17.049 4.545 21.46 13.234 3.632 7.153 5.745 14.67 5.774 22.885.066 18.652-6.197 30.068-24.631 37.868-10.07 4.261-20.647 4.592-31.365 4.256-13.25-.416-25.588-4.428-35.209-13.08-10.659-9.586-20.333-20.481-29.228-31.759-9.815-12.443-18.443-25.846-27.215-39.078-3.9-5.883-3.15-8.602 2.47-13.09 19.605-15.654 26.228-36.04 21.837-60.264-1.182-6.52-4.02-12.425-8.664-17.566-10.811-11.97-24.272-17.497-40.139-17.521-26.826-.042-53.653.045-80.48.155-2.354.01-5.668-1.304-5.739 3.26-.054 3.483-.414 6.81 4.53 7.098 1.973.115 3.91.785 5.88 1.095 9.603 1.51 15.575 8.305 15.585 18.133.05 46.489.004 92.977.062 139.466.018 13.873-7.466 18.498-19.203 19.87-7.77.908-8.203 1.166-6.096 9.086h84.896v-8.428c-1.907-.166-3.583-.09-5.137-.488-4.469-1.145-9.324-1.71-13.233-3.912-7.095-3.999-9.695-11.013-9.713-18.968-.106-46.989-.188-93.977-.278-140.966-.004-2.333-.433-4.782.154-6.956.377-1.4 2.202-3.338 3.467-3.406 5.644-.308 11.347-.365 16.977.108 11.749.986 20.572 7.401 23.333 18.449 2.397 9.594 2.276 20.046 1.872 30.062-.698 17.312-10.794 33.969-31.419 37.52-1.489.257-3.83 1.479-3.968 2.497-.346 2.544-.99 5.211 2.18 7.45 3.867 2.728 7.294 6.336 10.215 10.104 12.354 15.94 23.905 32.535 36.853 47.966 7.252 8.642 15.95 16.517 25.268 22.873 12.942 8.828 27.85 13.503 43.575 15.494 15.445 1.955 30.396.54 45.36-3.706 10.751-3.05 21.346-6.671 33.028-6.21 18.8.744 37.65.21 56.479.216h5.727c1.602-7.061 1.233-7.79-4.46-10.034-5.578-2.199-10.293-5.522-12.56-11.272-2.37-6.015-4.604-12.111-6.428-18.31-3.885-13.21-7.368-26.537-11.194-39.764-5.121-17.705-10.556-35.32-15.59-53.05-6.216-21.886-12.078-43.872-18.239-65.774a8439 8439 0 0 0-22.228-77.636c-.404-1.385-2.557-3.268-3.8-3.199-2.913.162-7.015-2.21-8.508 2.49-1.605 5.052-2.923 10.196-4.358 15.303-4.312 15.341-8.607 30.688-12.934 46.025-4.287 15.195-8.526 30.403-12.928 45.564-4.911 16.913-10.026 33.767-14.966 50.672-2.84 9.72-5.356 19.538-8.295 29.228-3.748 12.357-7.894 24.593-11.622 36.956-1.335 4.425-1.413 8.92 3.852 12.227m-346.9 29.652c-1.312-.163-2.635-.268-3.935-.5-4.537-.808-9.272-1.087-13.553-2.623-7.606-2.73-8.331-9.5-8.337-16.437-.04-46.826-.11-93.651-.17-140.477-.011-7.879 4.602-14.12 12.193-16.079 4.621-1.192 9.342-2 13.947-2.966.957-7.813.957-7.802-6.403-7.807-24.33-.016-48.659-.046-72.988-.05-1.758-.001-3.517.153-5.169.23-1.102 8.12-1.047 8.197 6.038 8.985.993.11 2.004.121 2.98.313 10.599 2.082 16.322 5.113 16.291 17.99-.04 16.995-.123 33.997.278 50.985.119 5-1.419 6.14-6.14 6.094-24.16-.234-48.325-.146-72.488-.17h-5.47c0-20.391-.42-40.035.218-59.645.234-7.225 4.063-13.341 12.516-14.607 4.872-.73 9.703-1.737 14.582-2.625 1.121-7.391-.784-9.656-8.22-9.64-24.162.053-48.325.105-72.487.168-7.259.019-7.438.248-6.476 7.727 3.966 1.08 7.882 2.856 11.892 3.101 10.51.643 15.612 10.76 15.656 19.115.249 47.491.074 94.984-.076 142.476-.006 2.18-.866 4.49-1.813 6.511-3.55 7.579-11.297 7.505-17.859 8.969-7.173 1.6-7.282 1.112-5.85 9.012H649.8c-1.414-3.368-1.837-7.306-3.678-8.148-3.786-1.733-8.31-1.95-12.566-2.54-9.265-1.284-13.28-5.283-13.374-14.783-.214-21.66-.075-43.325-.152-64.987-.011-3.343 1.091-4.609 4.7-4.547 24.82.424 49.644.682 74.468.83 3.88.023 5.368 1.381 5.309 5.26-.145 9.497.01 18.997-.032 28.495-.053 12.163.033 24.333-.356 36.486-.243 7.6-3.68 11.371-11.103 13.152-4.78 1.146-9.644 1.937-14.516 2.896v7.844h85.424c0-2.775 0-5.095-.548-8.008m14.967-140.353c-2.454 6.666-5.762 13.152-7.214 20.03-6.126 29.012-5.872 57.788 5.557 85.692 5.564 13.585 14.09 24.799 26.507 33.15 11.986 8.063 25.237 12.061 39.197 14.56 29.437 5.266 55.356-2.48 77.679-21.799 18.281-15.821 25.834-37.215 29.181-60.51 3.024-21.042 2.136-41.707-3.961-62.21-3.179-10.69-7.93-20.467-14.924-28.94-13.273-16.078-29.791-26.59-50.85-30.384-18.82-3.391-37.03-2.345-54.291 5.155-20.747 9.013-37.084 23.427-46.88 45.256"/><path fill="#090909" d="M1 496.454c9.987-1.244 19.127-4.598 25.122-12.69 3.921-5.295 6.52-11.846 8.556-18.204 4.454-13.907 8.149-28.058 12.2-42.095 2.763-9.575 5.629-19.12 8.407-28.69a9989 9989 0 0 0 10.62-36.851c4.156-14.523 8.305-29.049 12.402-43.588 5.407-19.185 10.733-38.393 16.151-57.574 2.575-9.115 5.498-18.138 7.83-27.313 1.004-3.949 3.352-4.21 6.588-4.303 3.653-.105 5.625 1.681 6.527 4.871 6.415 22.683 12.693 45.406 19.18 68.068 5.39 18.824 11.065 37.567 16.509 56.376 6 20.732 11.684 41.557 17.868 62.234 6.698 22.394 13.812 44.664 20.743 66.989.05.158.047.333.104.488 1.612 4.415 7.288 9.55 10.206 9.239 4.014-.429 9.986-6.577 10.52-11.451 1.757-16.035 3.415-32.083 4.9-48.145 1.807-19.538 3.574-39.083 5.02-58.65.87-11.765 1.473-23.576 1.508-35.368.039-12.757-10.241-23.205-22.81-24.534-2.654-.281-5.385-1.518-7.64-2.991-.801-.524-.989-3.7-.224-4.528 1.297-1.404 3.56-2.642 5.436-2.67 15.828-.233 31.66-.08 47.489-.27 3.934-.048 5.317 2.586 6.32 5.27 7.064 18.901 13.939 37.873 20.867 56.824 7.217 19.745 14.406 39.5 21.652 59.233a863 863 0 0 0 7.441 19.465c.38.963 1.32 1.706 2 2.55.957-.8 2.312-1.41 2.8-2.434 2.134-4.479 4.11-9.04 5.977-13.638 9.212-22.686 18.475-45.351 27.509-68.108 5.314-13.388 10.251-26.926 15.321-40.41 1.857-4.939 3.268-10.084 5.58-14.792.871-1.774 3.695-3.624 5.663-3.662 14.824-.284 29.659-.203 44.486.018 1.465.022 3.584 1.434 4.197 2.757.93 2.008.54 4.121-2.554 4.735-3.136.622-6.098 2.144-9.238 2.712-6.302 1.14-12.119 6.119-13.36 12.412-.704 3.57-1.205 7.278-1.074 10.898.96 26.63 2.015 53.258 3.223 79.879a1636 1636 0 0 0 2.603 43.845c.419 5.791 1.278 11.591 2.465 17.276 1.507 7.213 9.424 12.53 19.566 13.729 7.328.866 7.328.866 6.092 8.742h-84.35v-7.435c4.541-.967 9.018-1.94 13.503-2.872 6.191-1.287 8.2-3.244 8.299-9.844.14-9.324.026-18.67-.476-27.98-1.326-24.603-2.91-49.192-4.428-73.784-.087-1.406-.511-2.79-1.025-5.473-1.857 1.975-3.318 2.886-3.835 4.176-8.379 20.908-16.477 41.93-24.974 62.789-6.941 17.038-14.387 33.87-21.463 50.854-1.457 3.495-1.908 7.43-3.522 10.83-.915 1.93-3.04 3.74-5.039 4.498-.928.352-3.598-1.615-4.214-3.068-5.293-12.469-10.337-25.044-15.374-37.62a3165 3165 0 0 1-13.626-34.539c-3.4-8.787-6.63-17.64-9.93-26.468-3.75-10.036-7.461-20.087-11.297-30.091-.332-.868-1.465-1.428-3.383-3.2-.546 4.998-1.048 8.669-1.332 12.355-1.986 25.722-3.988 51.442-5.833 77.173-.404 5.64-.403 11.33-.215 16.985.22 6.631 7.63 12.771 16.505 13.996 1.644.226 3.321.259 4.985.295 7.527.164 7.527.153 6.631 8.389H121.433c-1.117-3.8-.793-5.819 3.53-6.628 6.632-1.241 13.493-2.85 17.455-9.167 1.506-2.4 3.143-5.536 2.834-8.109-1.142-9.5-2.783-18.968-4.834-28.318-.971-4.43-2.968-8.731-5.064-12.8-4.852-9.418-12.623-14.882-23.178-16.739-13.024-2.291-25.714-2.816-37.815 3.832-8.005 4.398-13.363 11.055-15.786 19.614-3.3 11.656-6.936 23.309-6.542 35.71.24 7.53 4.36 12.847 11.748 14.477 2.741.605 6.168.647 7.955 2.344 1.924 1.826 2.292 5.292 3.655 8.872-25.624 0-49.713 0-74.096.42C1 502.97 1 499.94 1 496.454m127.74-90.706c-3.348-11.935-6.735-23.858-10.029-35.808-2.468-8.952-4.808-17.94-7.22-26.907-2.445-9.09-4.88-18.184-7.374-27.26-1.345-4.9-2.804-9.767-4.211-14.648l-1.877.135-30.19 108.253c6.964-1.848 12.09-3.338 17.277-4.56 13.678-3.223 26.984-1.205 40.122 3.033 1.494.482 3.74 2.142 3.502-2.238M1109.932 464.148c-4.921-3.182-4.843-7.676-3.508-12.101 3.728-12.363 7.874-24.6 11.622-36.956 2.94-9.69 5.455-19.507 8.295-29.228 4.94-16.905 10.055-33.759 14.966-50.672 4.402-15.161 8.641-30.37 12.928-45.564 4.327-15.337 8.622-30.684 12.934-46.025 1.435-5.107 2.753-10.25 4.358-15.303 1.493-4.7 5.595-2.328 8.508-2.49 1.243-.069 3.396 1.814 3.8 3.2a8439 8439 0 0 1 22.228 77.635c6.161 21.902 12.023 43.888 18.238 65.775 5.035 17.729 10.47 35.344 15.59 53.049 3.827 13.227 7.31 26.554 11.195 39.764 1.824 6.199 4.057 12.295 6.428 18.31 2.267 5.75 6.982 9.073 12.56 11.272 5.693 2.244 6.062 2.973 4.46 10.034h-5.727c-18.83-.006-37.68.528-56.48-.216-11.68-.461-22.276 3.16-33.027 6.21-14.964 4.246-29.915 5.66-45.36 3.706-15.726-1.99-30.633-6.666-43.575-15.494-9.318-6.356-18.016-14.23-25.268-22.873-12.948-15.43-24.499-32.027-36.853-47.966-2.92-3.768-6.348-7.376-10.215-10.105-3.17-2.238-2.526-4.905-2.18-7.449.138-1.018 2.48-2.24 3.968-2.496 20.625-3.552 30.721-20.21 31.42-37.52.403-10.017.524-20.469-1.873-30.063-2.76-11.048-11.584-17.463-23.333-18.449-5.63-.473-11.333-.416-16.977-.108-1.265.068-3.09 2.007-3.467 3.406-.587 2.174-.158 4.623-.154 6.956.09 46.989.172 93.977.278 140.966.018 7.955 2.618 14.97 9.713 18.968 3.909 2.202 8.764 2.767 13.233 3.912 1.554.399 3.23.322 5.137.488v8.428h-84.896c-2.107-7.92-1.673-8.178 6.096-9.086 11.737-1.372 19.22-5.997 19.203-19.87-.058-46.489-.012-92.977-.062-139.466-.01-9.828-5.982-16.623-15.585-18.133-1.97-.31-3.907-.98-5.88-1.095-4.944-.287-4.584-3.615-4.53-7.099.071-4.563 3.385-3.25 5.739-3.259 26.827-.11 53.654-.197 80.48-.155 15.867.024 29.328 5.551 40.139 17.52 4.644 5.142 7.482 11.048 8.664 17.567 4.391 24.224-2.232 44.61-21.837 60.265-5.62 4.487-6.37 7.206-2.47 13.089 8.772 13.232 17.4 26.635 27.215 39.078 8.895 11.278 18.569 22.173 29.228 31.76 9.621 8.651 21.959 12.663 35.209 13.079 10.718.336 21.295.005 31.365-4.256 18.434-7.8 24.697-19.216 24.631-37.868-.029-8.216-2.142-15.732-5.774-22.885-4.411-8.69-12.541-12.269-21.46-13.234-7.708-.834-15.646-.527-23.392.214-11.332 1.084-19.625 6.89-26.35 16.478-5.02 7.158-9.526 14.195-12.155 22.52-1 3.165-3.025 5.711-7.44 3.835m41.392-108.37-14.5 51.867c11.14-.774 21.3-1.532 31.465-2.17 10.254-.644 20.188.907 30.356 6.212-1.612-6.556-2.773-11.545-4.071-16.498-3.158-12.043-6.322-24.084-9.594-36.096-2.746-10.083-5.782-20.089-8.441-30.195-2.234-8.488-4.04-17.087-6.22-25.59-.293-1.15-1.657-2.024-2.526-3.025-.775 1.115-1.92 2.13-2.25 3.364-.731 2.721-.812 5.62-1.581 8.326-4.083 14.36-8.296 28.682-12.638 43.805M763.65 494.223c.274 2.616.274 4.936.274 7.711H678.5v-7.844c4.872-.959 9.737-1.75 14.516-2.896 7.424-1.78 10.86-5.551 11.103-13.152.39-12.153.303-24.323.356-36.486.042-9.498-.113-18.998.032-28.494.059-3.88-1.429-5.238-5.309-5.261-24.824-.148-49.648-.406-74.469-.83-3.608-.062-4.71 1.204-4.699 4.547.077 21.662-.062 43.326.152 64.987.094 9.5 4.11 13.499 13.374 14.783 4.256.59 8.78.807 12.566 2.54 1.84.842 2.264 4.78 3.678 8.148h-87.267c-1.432-7.9-1.323-7.412 5.85-9.012 6.562-1.464 14.309-1.39 17.86-8.969.946-2.022 1.806-4.33 1.812-6.51.15-47.493.325-94.986.076-142.477-.044-8.355-5.145-18.472-15.656-19.115-4.01-.245-7.926-2.02-11.892-3.101-.962-7.48-.783-7.708 6.476-7.727 24.162-.063 48.325-.115 72.487-.168 7.436-.016 9.341 2.249 8.22 9.64-4.88.888-9.71 1.895-14.582 2.625-8.453 1.266-12.282 7.382-12.516 14.607-.637 19.61-.219 39.254-.219 59.645h5.471c24.163.024 48.327-.064 72.488.17 4.721.046 6.259-1.093 6.14-6.094-.401-16.988-.318-33.99-.278-50.985.031-12.877-5.692-15.908-16.29-17.99-.977-.192-1.988-.203-2.981-.313-7.085-.788-7.14-.866-6.038-8.984 1.652-.078 3.41-.232 5.169-.232 24.33.005 48.659.035 72.988.05 7.36.006 7.36-.005 6.403 7.808-4.605.965-9.326 1.774-13.947 2.966-7.591 1.959-12.204 8.2-12.194 16.079.06 46.826.13 93.651.17 140.477.007 6.936.732 13.708 8.338 16.437 4.281 1.536 9.016 1.815 13.553 2.623 1.3.232 2.623.337 4.21.797"/><path fill="#090909" d="M778.455 353.211c9.685-21.467 26.022-35.88 46.769-44.894 17.26-7.5 35.47-8.546 54.29-5.155 21.06 3.794 37.578 14.306 50.851 30.385 6.994 8.472 11.745 18.25 14.924 28.939 6.097 20.503 6.985 41.168 3.961 62.21-3.347 23.295-10.9 44.689-29.181 60.51-22.323 19.32-48.242 27.065-77.679 21.798-13.96-2.498-27.21-6.496-39.197-14.558-12.417-8.352-20.943-19.566-26.507-33.15-11.429-27.905-11.683-56.681-5.557-85.694 1.452-6.877 4.76-13.363 7.326-20.39m41.51-15.652c-.956 1.551-1.995 3.058-2.855 4.66-9.625 17.945-13.823 37.127-13.843 57.464-.022 22.377.869 44.423 10.584 65.27 15.08 32.357 48.023 38.613 74.713 20.798 11.881-7.93 17.958-20.558 20.953-33.902 3.111-13.864 4.908-28.165 5.74-42.365 1.025-17.474-.977-34.939-5.738-51.839-2.12-7.53-5.003-15.142-9.091-21.758-7.968-12.894-20.477-19.598-35.383-21.068-9.301-.917-19.03-.337-26.851 5.228-6.618 4.709-11.99 11.169-18.23 17.512M455.56 460.962c.11-.983.315-1.966.315-2.948.023-41.696.028-83.392.011-125.904-1.568-4.097-3.11-7.38-4.654-10.661.098-.283.022-.506-.547-1.034-1.963-1.363-3.49-2.729-5.272-3.296-5.442-1.735-10.97-3.199-16.486-4.695-3.564-.968-3.046-2.77-1.162-4.963.62-.723 1.202-1.479 1.8-2.22 27.187-.048 54.373-.097 82.311-.034 11.027 2.474 22.067 2.927 30.484 10.3 5.864 5.135 11.114 10.973 16.637 16.497 0 0 .003-.004.002.377 3.401 9.377 7.311 18.181 7.417 28.121.176 16.573-3.446 31.906-13.68 45.29 0 0 .135.08-.242.063-3.058 2.717-5.739 5.45-8.42 8.184 0 0-.065-.033-.4.023-5.215 2.832-9.827 6.348-15.03 8.232-11.75 4.256-23.828 8.073-35.364-.808-1.133-.871-1.694-2.485-2.52-3.755 1.267-.769 2.478-2.059 3.813-2.203 3.129-.338 6.329-.311 9.478-.106 13.795.897 23.173-9.493 25.438-20.085 2.41-11.27 3.335-22.963 3.746-34.512.212-5.957-1.07-12.453-3.464-17.924-6.624-15.131-18.69-22.027-35.35-21.107-4.178.231-5.45 1.647-5.443 5.664.079 49.113-.001 98.226.064 147.34.016 12.215 2.773 15.077 14.916 16.511 1.155.137 2.318.221 3.479.31 8.117.623 9.582 2.218 9.46 10.317 0 0 .084.046-.403.04-1.314.08-2.14.241-2.968.243-26.988.035-53.976.06-80.964.05-.943 0-1.887-.37-2.759-.552-.866-7.463-.76-6.93 6.336-8.345 5.755-1.148 12.313-1.288 16.26-6.99-.114-.13-.228-.262.135-.358 5.336-7.924 3.102-16.603 3.026-25.062"/><path fill="#E9EAE9" d="M517.283 501.908c-.264-8.07-1.729-9.666-9.846-10.289-1.161-.089-2.324-.173-3.48-.31-12.142-1.434-14.9-4.296-14.915-16.512-.065-49.113.015-98.226-.064-147.339-.007-4.017 1.265-5.433 5.442-5.664 16.66-.92 28.727 5.976 35.35 21.107 2.395 5.47 3.677 11.967 3.465 17.924-.411 11.55-1.337 23.242-3.746 34.512-2.265 10.592-11.643 20.982-25.438 20.085-3.15-.205-6.35-.232-9.478.106-1.335.144-2.546 1.434-3.814 2.203.827 1.27 1.388 2.884 2.52 3.755 11.537 8.88 23.615 5.064 35.366.808 5.202-1.884 9.814-5.4 15.043-8.198-3.897 3.066-7.908 6.568-12.44 9.157-8.85 5.055-18.644 6.002-28.573 4.701-3.478-.455-6.792-2.162-10.87-3.529-.25 1.76-.726 3.584-.734 5.409-.059 14.288.014 28.577-.036 42.865-.053 15.284 1.491 14.934 17.247 17.163 5.87.83 10.1 3.078 10.532 7.613.135 1.419-.735 2.933-1.53 4.433M452.022 486.282c-3.57 5.802-10.128 5.942-15.883 7.09-7.095 1.415-7.202.882-6.336 8.345.872.183 1.816.553 2.76.553 26.987.01 53.975-.016 80.963-.051.828-.002 1.654-.164 2.946-.286-.78.665-2.023 1.969-3.271 1.974-26.818.117-53.637.04-80.455.142-3.81.015-5.095-1.579-4.794-5.115.266-3.119-.989-6.356 4.392-7.176 6.565-1 12.88-3.643 19.678-5.476M553.102 405.846c9.868-13.438 13.49-28.77 13.314-45.344-.106-9.94-4.016-18.744-7.42-28.12 1.06.746 2.474 1.699 3.125 3.025 6.359 12.942 6.886 26.856 5.663 40.76-.84 9.557-5.05 18.252-10.345 26.263-.935 1.414-2.628 2.326-4.337 3.416M559.024 331.63c-5.55-5.15-10.8-10.988-16.664-16.124-8.417-7.372-19.457-7.825-30.026-10.419 3.136-.08 6.67-.396 9.973.334 5.074 1.123 10.475 2.127 14.869 4.677 8.918 5.177 18.403 10.184 21.848 21.533M429.163 305.18c-.196.802-.778 1.558-1.398 2.28-1.884 2.194-2.402 3.996 1.162 4.964 5.515 1.496 11.044 2.96 16.486 4.695 1.782.567 3.31 1.933 5.085 3.269-3.073-.586-6.283-1.485-9.478-2.435-4.333-1.29-8.759-2.36-12.92-4.074-1.39-.572-3.052-2.967-2.86-4.276.239-1.632 2.265-3.003 3.923-4.424M455.2 461.099c.436 8.322 2.67 17.001-2.5 25.122a334 334 0 0 1 2.5-25.122M451.169 321.86c1.606 2.87 3.15 6.153 4.567 9.806-1.627-2.885-3.129-6.14-4.567-9.807M544.427 414.025c2.328-2.72 5.009-5.453 8.027-8.237-2.333 2.708-5.004 5.466-8.027 8.237"/><path fill="#F5F5F4" d="M128.843 406.124c.136 4.004-2.11 2.344-3.605 1.862-13.138-4.238-26.444-6.256-40.122-3.033-5.188 1.222-10.313 2.712-17.278 4.56l30.19-108.253 1.878-.135c1.407 4.881 2.866 9.749 4.211 14.647 2.494 9.077 4.93 18.17 7.374 27.26 2.412 8.969 4.752 17.956 7.22 26.908 3.294 11.95 6.681 23.873 10.132 36.184"/><path fill="#F5F5F5" d="M1151.411 355.384c4.255-14.729 8.468-29.051 12.55-43.41.77-2.707.85-5.606 1.581-8.327.332-1.234 1.476-2.25 2.251-3.364.869 1.001 2.233 1.876 2.527 3.024 2.179 8.504 3.985 17.103 6.219 25.591 2.659 10.106 5.695 20.112 8.441 30.195 3.272 12.012 6.436 24.053 9.594 36.096 1.298 4.953 2.459 9.942 4.071 16.498-10.168-5.305-20.102-6.856-30.356-6.212-10.166.638-20.324 1.396-31.464 2.17 4.767-17.054 9.633-34.46 14.586-52.26"/><path fill="#FCFCFB" d="M820.123 337.23c6.081-6.013 11.453-12.473 18.071-17.182 7.822-5.565 17.55-6.145 26.851-5.228 14.906 1.47 27.415 8.174 35.383 21.068 4.088 6.616 6.97 14.229 9.091 21.758 4.76 16.9 6.763 34.365 5.738 51.84-.832 14.2-2.629 28.5-5.74 42.364-2.995 13.344-9.072 25.971-20.953 33.902-26.69 17.815-59.633 11.56-74.713-20.798-9.715-20.847-10.606-42.893-10.584-65.27.02-20.337 4.218-39.52 13.843-57.463.86-1.603 1.899-3.11 3.013-4.99"/></svg>