<svg version="1.1" id="Layer_1" xmlns="http://www.w3.org/2000/svg" xmlns:xlink="http://www.w3.org/1999/xlink" x="0px" y="0px"
	 width="100%" viewBox="0 0 1024 704" enable-background="new 0 0 1024 704" xml:space="preserve">
<path fill="#000000" opacity="1.000000" stroke="none" 
	d="
M853.605225,330.547089 
	C847.780029,336.523468 842.286499,342.333099 836.678650,348.030212 
	C833.999634,350.751862 834.216553,352.917450 836.911804,355.611145 
	C841.498291,360.194916 846.458862,364.450653 850.235779,369.805939 
	C853.363770,374.241211 852.839172,375.699432 847.869507,378.040833 
	C840.231323,381.639404 833.889282,380.908051 827.533081,374.650879 
	C817.250366,364.528442 819.007874,366.015961 809.861694,375.053619 
	C802.515503,382.312714 795.462646,389.870361 788.347351,397.359863 
	C786.749695,399.041534 785.373718,400.947327 784.006531,402.830414 
	C782.701599,404.627991 781.583496,406.552826 783.253357,408.748596 
	C784.880127,410.887909 786.924561,412.182129 789.727356,411.451263 
	C794.459595,410.217285 799.000244,411.412018 803.515442,412.544220 
	C809.151184,413.957458 809.475037,415.129272 805.549133,419.208832 
	C802.943726,421.916260 800.275330,424.563141 797.529236,427.344391 
	C805.162354,431.833618 805.948486,431.649628 811.629150,426.816315 
	C832.056274,409.436096 852.575317,392.163910 873.022095,374.806610 
	C877.211792,371.250031 881.199951,367.456970 885.355591,363.859009 
	C887.811218,361.732941 888.602844,359.139862 887.406311,356.239227 
	C885.904175,352.597595 887.589417,351.133118 890.738464,349.981964 
	C899.580688,346.749664 901.978027,347.293640 908.121338,354.424805 
	C912.144897,359.095245 916.175049,363.760284 920.159851,368.463654 
	C931.994202,382.432037 934.661316,398.064087 926.677124,414.487305 
	C918.730225,430.833679 904.779236,438.465668 886.622009,438.522522 
	C881.074768,438.539917 875.769958,437.207886 870.707092,435.976898 
	C869.049316,436.675720 869.234375,438.039825 868.975281,439.097321 
	C866.104797,450.813141 861.351807,461.797150 856.155579,472.625092 
	C852.847351,479.518799 850.941040,486.695923 852.796570,494.398254 
	C853.404175,496.920441 851.973022,497.803650 849.951599,498.062500 
	C845.436951,498.640656 840.891663,498.472076 836.652527,496.798035 
	C832.659790,495.221283 831.820251,491.438538 831.838379,487.661865 
	C831.872498,480.573425 833.718567,473.837677 836.589783,467.389374 
	C840.717896,458.118347 846.079773,449.413269 849.145325,439.648682 
	C850.409119,435.623230 851.187134,431.586945 850.847290,427.370636 
	C850.709106,425.656555 850.332458,423.957764 848.564026,423.231323 
	C846.759216,422.489899 845.916260,424.148193 844.829956,425.081909 
	C838.010498,430.943481 831.278687,436.910431 824.356201,442.647430 
	C820.653198,445.716278 818.831848,448.866089 822.116943,453.262085 
	C823.671753,455.342743 823.248840,456.991211 820.927917,458.073303 
	C818.521606,459.195251 816.093689,460.281189 813.625977,461.258759 
	C810.258728,462.592804 807.686523,461.649780 805.296021,458.823730 
	C800.132751,452.719727 794.576965,446.948639 789.380127,440.871643 
	C785.733276,436.607147 781.356506,433.919647 775.775024,433.333313 
	C772.254272,432.963501 770.219543,431.470276 771.987305,427.806335 
	C773.483582,424.704956 771.589294,423.132111 769.789246,421.410522 
	C757.854919,409.996399 745.372131,399.236603 731.907288,389.642670 
	C727.320801,386.374817 722.823242,382.982239 718.382812,379.718475 
	C721.852417,372.066223 728.756531,368.473083 736.001831,370.360992 
	C739.032593,371.150726 740.283081,369.140411 741.574036,367.235046 
	C752.694275,350.822968 763.782410,334.389099 774.847168,317.939545 
	C777.348999,314.220154 779.722473,310.414459 782.513794,306.093079 
	C776.475342,310.571930 770.939331,314.662140 765.422180,318.777618 
	C763.017517,320.571381 761.774902,323.142029 761.263367,325.970734 
	C760.698608,329.093353 758.872314,330.522705 755.906921,330.925598 
	C752.939941,331.328674 749.988342,331.848633 747.018555,332.227325 
	C742.835754,332.760712 740.525574,331.000061 740.879639,326.645966 
	C741.513062,318.856018 742.273621,311.075897 743.036072,303.297089 
	C743.354065,300.053497 743.813171,296.823730 744.393250,292.070190 
	C735.745972,306.438782 727.863953,319.519440 720.000061,332.610962 
	C716.914001,337.748505 713.841125,342.894379 710.815979,348.067902 
	C709.213257,350.808838 708.986145,353.398895 711.984192,355.473511 
	C714.989380,357.553070 714.436829,359.675720 712.210266,362.067230 
	C705.376038,369.407776 701.804321,369.979401 693.302368,364.624878 
	C683.408813,358.393921 673.003784,353.192627 662.295410,348.515564 
	C653.366516,344.615753 653.014526,342.066315 659.848694,335.109528 
	C661.270386,333.662354 662.819153,332.096375 664.868958,332.069244 
	C669.527527,332.007568 670.142395,328.725250 670.575195,325.346558 
	C670.891663,322.875977 670.757690,320.351166 670.962524,317.861877 
	C671.217163,314.768097 669.820435,312.673340 667.110718,311.525482 
	C660.675110,308.799377 654.358276,305.786102 647.638855,303.739227 
	C644.797668,302.873718 642.777771,303.485840 641.214417,305.936737 
	C640.049561,307.762817 638.807983,309.541382 637.683777,311.391632 
	C634.718811,316.271149 633.971375,319.401855 639.857117,321.726837 
	C642.486206,322.765472 642.508484,324.648346 641.226624,327.005310 
	C636.934082,334.897736 632.713562,336.656128 624.335083,333.826874 
	C617.866028,331.642395 611.366272,329.544800 604.933594,327.258118 
	C599.560181,325.347961 599.234619,324.254761 602.271790,319.327057 
	C604.966797,314.954315 607.833618,311.214020 614.046692,311.821808 
	C618.366699,312.244415 620.135803,308.125244 622.002197,305.100952 
	C629.088989,293.617523 636.018860,282.035919 642.903992,270.429688 
	C652.423157,254.383301 661.776611,238.238235 671.362244,222.231964 
	C673.949341,217.911865 673.704468,214.982635 668.758911,212.901947 
	C665.604431,211.574814 665.296936,209.296356 667.094360,206.431839 
	C668.878662,203.588120 670.883484,200.955185 673.341370,198.681198 
	C675.175415,196.984314 677.223877,196.334671 679.764893,197.164124 
	C688.165527,199.906326 696.357727,203.172577 704.462524,206.676468 
	C707.937500,208.178726 709.285156,210.255157 708.642273,214.458694 
	C702.781799,252.773636 697.190369,291.129761 691.535034,329.475983 
	C691.147339,332.105072 690.852905,334.748779 690.558533,337.390533 
	C690.296814,339.739868 690.924500,341.823547 693.199829,342.811737 
	C695.806458,343.943848 696.774170,341.662628 697.727295,340.023895 
	C706.857178,324.326538 715.920471,308.590454 724.997864,292.862579 
	C732.075012,280.600464 739.297974,268.418915 746.154846,256.034729 
	C749.675171,249.676773 749.377258,249.511795 743.154785,245.758209 
	C737.995728,242.646072 737.826904,241.109222 742.744751,237.632278 
	C755.582153,228.556213 752.576843,229.724258 764.984375,236.390274 
	C770.546082,239.378387 772.916199,242.497040 771.604553,249.343491 
	C769.009827,262.886902 767.611328,276.659454 765.717651,290.337219 
	C765.423035,292.465149 764.593079,294.957886 766.926270,296.235046 
	C768.997131,297.368683 770.706360,295.495422 772.233704,294.313751 
	C782.642334,286.260773 793.113159,278.280670 803.313965,269.970215 
	C807.635742,266.449341 810.998840,266.098480 815.398193,269.974915 
	C821.886414,275.691864 828.873535,280.851746 835.755554,286.108215 
	C838.570312,288.258087 838.559753,290.134064 836.262512,292.666962 
	C830.623169,298.884827 827.903015,299.744019 819.994263,296.844025 
	C817.121826,295.790802 816.058777,297.759583 814.721008,299.373077 
	C808.120361,307.333984 802.204224,315.806152 796.350037,324.315155 
	C783.791870,342.568085 771.326843,360.885040 758.789307,379.152161 
	C756.486694,382.507019 754.418457,385.655701 758.877808,388.999878 
	C763.740784,392.646729 765.696533,392.624481 769.922241,388.165131 
	C791.351990,365.550659 812.761169,342.916595 834.168152,320.280548 
	C835.197632,319.191956 836.090576,317.973297 837.130371,316.895538 
	C839.176514,314.774597 839.719116,312.765442 837.199097,310.540710 
	C836.222595,309.678558 835.610352,308.413757 834.779785,307.374268 
	C832.368713,304.356842 832.823303,301.909302 836.208740,300.048401 
	C838.250305,298.926239 840.339478,297.889893 842.371643,296.751434 
	C845.560425,294.964966 848.306213,295.416260 850.985291,297.933868 
	C858.997253,305.462952 867.313171,312.681274 875.095337,320.437378 
	C879.866760,325.192780 885.002441,328.679260 891.696228,329.850952 
	C893.599182,330.184052 895.617065,330.699341 897.118591,332.377625 
	C897.163757,335.037628 895.034668,336.347412 893.459656,337.936218 
	C891.467896,339.945496 888.953491,341.532501 887.311829,343.775452 
	C881.909607,351.156525 874.564087,350.621887 866.976868,349.162048 
	C863.530151,348.498901 861.760132,346.691193 864.479431,343.280914 
	C866.813477,340.353821 867.058594,337.537933 864.126160,334.945984 
	C861.212463,332.370605 859.239868,327.552551 853.605225,330.547089 
M907.298218,413.758453 
	C914.886841,402.240784 914.321533,391.541412 905.847839,382.287476 
	C902.963928,379.138000 900.076172,378.520294 896.786072,381.327209 
	C886.285645,390.285461 875.829041,399.295074 865.353394,408.282379 
	C863.385315,409.970795 863.228149,411.805878 864.614441,413.998749 
	C869.275513,421.371857 875.549438,425.939606 884.611450,425.954926 
	C894.080627,425.970917 900.899048,420.986786 907.298218,413.758453 
M679.019165,241.866470 
	C677.055847,245.144562 675.082214,248.416580 673.131042,251.701889 
	C667.106628,261.845551 660.997559,271.940521 655.110229,282.163269 
	C652.064880,287.451233 652.452942,288.145844 658.223511,290.445007 
	C661.156372,291.613586 664.114380,292.721741 667.080322,293.804291 
	C672.912170,295.932861 674.726685,295.041016 675.664124,289.039185 
	C677.148560,279.535309 678.424744,269.997742 679.693176,260.461639 
	C680.616333,253.521454 681.709595,246.580444 681.495361,238.697205 
	C680.389099,240.096420 679.887329,240.730988 679.019165,241.866470 
z"/>
<path fill="#000000" opacity="1.000000" stroke="none" 
	d="
M188.340698,422.416656 
	C180.581833,428.034515 174.893372,435.188477 169.352219,442.482544 
	C168.182678,444.022064 168.300949,445.549622 169.220978,447.130676 
	C170.560715,449.433075 171.773514,451.818848 173.244446,454.033539 
	C177.418076,460.317596 177.466049,460.303375 183.927216,456.683777 
	C184.817383,456.185120 185.611740,455.714813 186.708328,456.002319 
	C190.926941,457.108337 195.732895,468.495544 193.097580,472.035522 
	C186.636230,480.714813 179.841034,489.145020 173.221924,497.707764 
	C171.172165,500.359467 169.508011,499.673309 167.621521,497.477356 
	C165.534454,495.047943 163.894669,492.392090 162.548752,489.501404 
	C161.374069,486.978455 161.422653,484.571136 163.234299,482.486755 
	C167.296814,477.812714 165.983871,473.385712 163.052261,468.796478 
	C151.395172,450.548096 139.839691,432.234833 128.177597,413.989655 
	C122.077187,404.445679 115.800369,395.014648 109.665619,385.492401 
	C105.046204,378.322235 103.917999,377.962921 96.989136,382.828278 
	C94.467690,384.598755 92.723320,384.192657 91.114243,381.894196 
	C88.613037,378.321442 86.789719,374.435028 85.499855,370.248810 
	C84.648476,367.485718 86.158752,365.748688 87.694359,364.030365 
	C92.466515,358.690521 97.457413,353.541443 102.111565,348.102753 
	C104.691544,345.087952 106.973595,345.032349 110.271889,347.003723 
	C139.298065,364.352417 168.403244,381.568909 197.484833,398.824860 
	C203.500885,402.394562 209.561569,405.891998 215.514053,409.564758 
	C218.806870,411.596497 221.641830,412.506165 224.788605,409.094910 
	C228.199127,405.397614 225.960495,402.686493 223.747391,399.926300 
	C208.428497,380.820618 193.089447,361.730927 177.698654,342.683167 
	C172.779816,336.595581 167.860504,330.491699 162.618790,324.686584 
	C157.814682,319.366180 157.119476,319.474854 151.266632,323.180542 
	C145.523956,326.816498 144.700485,326.529816 142.313766,320.063751 
	C139.337280,311.999939 139.882401,309.737152 146.229309,303.811371 
	C148.543060,301.651154 151.082916,299.683441 153.121185,297.288788 
	C156.741104,293.035980 160.490952,293.180237 165.047333,295.738312 
	C176.229797,302.016327 187.540634,308.066650 198.830276,314.152069 
	C201.760284,315.731445 204.763000,317.192749 207.811630,318.527100 
	C209.082596,319.083374 210.570282,320.163330 211.958145,318.709412 
	C213.114258,317.498230 212.246552,316.195221 211.900513,314.956909 
	C207.734070,300.047211 203.506958,285.154297 199.399643,270.228394 
	C197.306549,262.622131 197.392639,262.583221 203.923859,258.231415 
	C210.691208,253.722260 217.477448,249.241425 224.162643,244.809692 
	C230.021545,250.805435 231.222885,259.459320 227.169388,265.641907 
	C225.368683,268.388397 226.901886,270.389008 228.142365,272.509155 
	C235.051468,284.317871 243.383835,295.178253 250.914719,306.574493 
	C261.567261,322.694672 272.429504,338.676300 283.079071,354.798431 
	C285.330994,358.207611 287.824768,359.848389 291.791870,357.916107 
	C293.442108,357.112305 294.927521,357.162048 296.407959,358.415161 
	C300.535156,361.908539 300.636261,372.091125 296.333099,375.238068 
	C288.267548,381.136475 280.156403,386.981201 271.897827,392.603882 
	C266.568207,396.232422 265.165649,395.549927 263.394592,389.224243 
	C261.896210,383.872314 260.121490,378.550964 266.410217,374.625183 
	C268.593018,373.262512 267.247711,371.037750 266.297424,369.251038 
	C262.222778,361.589935 257.494873,354.334320 252.568909,347.203827 
	C245.200027,336.537109 237.814789,325.881683 230.100311,314.735748 
	C229.739822,322.830322 231.632324,328.340088 236.401794,333.633087 
	C237.434525,334.779205 238.601257,335.909180 238.116425,337.542664 
	C236.744308,342.165497 235.517944,346.864227 233.147995,351.111786 
	C231.439392,354.174011 228.914230,353.116852 226.623993,352.001892 
	C217.491089,347.555786 208.398743,343.026398 199.289169,338.532379 
	C198.739365,338.261139 198.170242,338.029083 196.319946,337.202393 
	C208.766495,353.448853 220.030563,368.863861 232.236542,383.560120 
	C233.513672,385.097809 234.851837,386.592896 236.025665,388.206665 
	C238.773041,391.983826 241.807724,394.301758 246.428391,390.919464 
	C247.367310,390.232208 248.459473,389.926331 249.717957,390.465790 
	C254.187714,392.381744 257.130371,404.410156 253.435944,407.646332 
	C238.366440,420.846619 224.986496,435.719910 210.926788,449.918610 
	C208.727341,452.139771 206.902603,451.913147 205.318619,449.286865 
	C202.207916,444.129211 197.334259,439.336731 202.129395,432.605133 
	C202.933899,431.475739 201.940048,430.300293 201.029358,429.590759 
	C197.240555,426.638550 193.549789,423.487854 188.340698,422.416656 
M153.947144,399.602570 
	C146.103470,395.019104 138.259811,390.435638 130.416138,385.852173 
	C132.091324,390.621521 134.315582,394.512665 136.737976,398.276337 
	C142.491699,407.215912 148.354477,416.085205 154.141693,425.003326 
	C156.547424,428.710571 158.848953,429.068939 161.783630,425.386902 
	C164.468216,422.018738 167.566895,418.978424 170.513336,415.821869 
	C173.055481,413.098389 172.666855,410.924561 169.481537,409.035065 
	C164.480240,406.068420 159.533051,403.010590 153.947144,399.602570 
z"/>
<path fill="#000000" opacity="1.000000" stroke="none" 
	d="
M481.583282,227.196609 
	C480.644501,214.909470 480.898438,203.072571 480.848022,191.245987 
	C480.830780,187.202454 479.483093,184.421448 475.331696,183.589447 
	C471.694977,182.860580 471.490204,180.744934 472.368073,177.652710 
	C475.112885,167.984161 477.180817,165.837814 487.028412,165.159302 
	C498.005402,164.402954 509.062683,164.247421 519.949646,166.032394 
	C544.567505,170.068588 557.550171,194.189896 549.037109,219.093414 
	C544.841919,231.365829 536.935974,239.953644 525.238831,245.250580 
	C524.026733,245.799469 522.826782,246.381897 521.658142,247.016724 
	C521.242432,247.242569 520.936401,247.670425 520.619568,247.969086 
	C520.237732,249.551331 521.187500,250.603851 521.941528,251.654190 
	C526.800354,258.422333 529.255310,266.176361 531.301880,274.114044 
	C533.718689,283.487762 536.989441,292.305939 546.315491,297.223450 
	C548.753540,298.508972 549.458801,300.602722 548.274475,303.135620 
	C546.179565,307.615723 544.725952,313.028229 539.185242,314.246552 
	C532.932495,315.621521 527.670532,312.795166 523.799927,307.957367 
	C517.056824,299.529358 514.689758,289.168274 511.790527,279.097443 
	C510.363495,274.140656 509.315338,269.075287 508.068604,264.065826 
	C507.587982,262.134766 507.251648,260.051819 504.428741,259.644836 
	C502.529175,261.466339 502.264923,264.010498 502.540161,266.386871 
	C503.445435,274.202576 503.109070,282.033722 503.164581,289.858704 
	C503.185181,292.761475 503.694916,295.080109 506.899780,296.085388 
	C509.649231,296.947815 510.005920,299.008423 509.555237,301.686218 
	C507.904327,311.494843 505.409760,313.759247 495.518280,314.125519 
	C488.693512,314.378204 481.874146,314.877319 475.048431,314.967896 
	C470.629211,315.026581 467.428345,316.825714 464.911133,320.309418 
	C463.944855,321.646698 462.810852,322.915009 461.553314,323.978210 
	C459.286560,325.894806 456.936829,325.733246 456.063293,322.752594 
	C454.453583,317.259949 450.463898,317.865387 446.438751,318.530609 
	C435.105042,320.403778 423.791962,322.401367 412.466705,324.325989 
	C406.920807,325.268494 406.128845,324.674500 406.811493,319.183685 
	C407.449219,314.054047 408.237579,308.945953 413.779877,306.218018 
	C416.451477,304.903015 416.834045,302.204346 416.444580,299.277191 
	C412.494873,269.591064 408.625549,239.894257 404.716736,210.202667 
	C404.478302,208.391418 404.096436,206.599045 403.781525,204.797852 
	C402.328369,196.485458 402.347046,196.388367 394.341187,194.848038 
	C391.429382,194.287811 390.564697,192.817734 390.655975,190.030762 
	C390.918640,182.014130 394.907135,176.951721 402.692596,175.400635 
	C416.404053,172.668915 430.122681,169.935928 444.070740,168.673264 
	C450.262756,168.112732 455.156738,164.462723 461.580017,161.104019 
	C462.838318,171.149109 465.860382,180.331665 461.189758,189.387833 
	C459.160187,193.323135 456.016541,196.725693 453.139709,200.170486 
	C450.271912,203.604431 449.201813,203.192398 447.592560,198.830673 
	C446.264191,195.230225 446.959473,190.134521 442.266083,188.762039 
	C436.990936,187.219452 431.733582,189.164444 426.612488,190.566681 
	C424.119934,191.249191 424.292267,193.539856 424.280182,195.539398 
	C424.230682,203.735809 425.841919,211.734634 427.119904,219.780502 
	C427.671997,223.256332 429.550079,224.064865 432.725922,223.691803 
	C438.675598,222.992920 444.643677,222.430450 450.614441,221.936493 
	C457.122345,221.398087 458.399963,223.057449 456.490631,229.436462 
	C454.093170,237.446426 449.554443,243.019943 440.452820,243.307098 
	C439.790253,243.328003 439.126221,243.440979 438.471741,243.559799 
	C430.117645,245.076584 429.375397,245.906082 430.459900,254.507843 
	C431.936859,266.221924 433.657867,277.905396 435.306580,289.597412 
	C435.491302,290.907471 435.761566,292.232727 436.208008,293.473236 
	C437.291229,296.483215 437.350830,300.476196 441.889465,300.626984 
	C446.587860,300.783081 450.794464,299.763824 453.316406,295.134186 
	C455.795380,290.583435 458.675262,286.290771 462.714447,282.936920 
	C466.619995,279.694092 468.441589,280.154755 469.647980,285.033325 
	C470.763092,289.542999 471.410492,294.169922 472.216858,298.753479 
	C472.476318,300.228424 472.574524,301.734100 473.822540,302.907440 
	C479.691071,298.016327 483.340881,292.698059 482.851135,284.131348 
	C481.777405,265.349640 481.932129,246.497665 481.583282,227.196609 
M526.871704,191.646286 
	C521.639282,185.994431 514.963623,184.015381 507.508148,184.120270 
	C504.460999,184.163147 502.318665,185.433044 502.304199,188.836288 
	C502.241241,203.631851 501.773865,218.436844 503.352997,233.196075 
	C503.611694,235.613937 504.956238,236.566467 507.222504,236.948654 
	C515.480591,238.341293 524.953918,234.227234 528.856201,226.637253 
	C534.838440,215.001785 534.948730,203.358719 526.871704,191.646286 
z"/>
<path fill="#000000" opacity="1.000000" stroke="none" 
	d="
M633.478271,259.317688 
	C628.696899,274.854614 621.252136,288.551880 611.470581,300.965729 
	C601.680420,313.390411 588.991760,319.895905 572.929932,319.391785 
	C564.091858,319.114410 555.493713,317.417511 546.293701,315.881958 
	C547.219666,310.474152 548.387634,305.475739 552.128784,302.051941 
	C555.963501,298.542450 556.948914,294.204407 557.616943,289.611877 
	C561.543213,262.618744 565.380066,235.612595 569.243591,208.610321 
	C569.879578,204.164719 570.258423,199.665100 571.199707,195.285797 
	C571.966797,191.717178 570.782654,190.177277 567.413696,189.108444 
	C558.639526,186.324722 558.610291,185.379242 563.349915,177.439529 
	C566.719666,171.794586 570.868042,169.676651 577.399353,171.108414 
	C585.354614,172.852386 593.631042,173.294952 601.454895,175.443024 
	C621.647644,180.987045 632.873901,195.104919 637.218018,215.113083 
	C640.462952,230.058868 637.729797,244.566803 633.478271,259.317688 
M581.026123,263.325989 
	C579.191101,275.145844 577.346191,286.964203 575.527405,298.786560 
	C575.013062,302.129517 576.486389,303.701965 579.881775,303.935364 
	C584.672546,304.264679 588.101868,301.767334 591.406372,298.872925 
	C600.594299,290.825409 605.736328,280.183136 610.042236,269.125580 
	C616.131348,253.488998 620.154480,237.409073 617.665405,220.442078 
	C616.173218,210.270660 610.629272,202.561188 601.704102,197.516449 
	C595.462463,193.988556 591.881653,195.581268 590.751648,202.414352 
	C587.444580,222.410583 584.349548,242.441879 581.026123,263.325989 
z"/>
<path fill="#000000" opacity="1.000000" stroke="none" 
	d="
M246.304581,236.492722 
	C252.807953,225.040680 262.466858,219.022125 275.076080,217.729279 
	C279.589691,217.266495 282.338257,214.982361 284.041718,210.920227 
	C285.317841,207.877197 286.463898,203.750580 290.057983,203.596542 
	C293.880859,203.432709 294.555420,207.906311 295.998444,210.724197 
	C298.499420,215.607986 300.778564,220.612930 302.965149,225.647675 
	C304.563904,229.328873 299.147034,240.486465 295.353302,241.464935 
	C293.161224,242.030334 291.585541,240.558640 290.004425,239.333939 
	C282.091095,233.204300 273.427155,233.051407 264.490143,236.410950 
	C259.331055,238.350342 255.864883,241.960175 255.210678,247.751099 
	C254.336502,255.489120 256.831055,261.907440 262.952362,266.702637 
	C267.423065,270.204865 272.725403,271.654541 278.356476,271.678528 
	C290.511139,271.730316 302.666321,271.636597 314.821136,271.669159 
	C348.242767,271.758667 357.647125,298.130066 354.643982,319.448395 
	C353.200195,329.697327 349.114502,338.552612 341.944092,345.980133 
	C336.910187,351.194519 330.753723,354.371185 323.582672,355.272461 
	C317.669983,356.015564 313.114563,358.122192 311.310516,364.397125 
	C310.661194,366.655792 309.041473,368.828400 306.513611,368.990631 
	C303.903503,369.158142 303.304688,366.445679 302.255737,364.649963 
	C296.883240,355.453003 291.696228,346.145233 286.188416,337.030884 
	C283.225311,332.127502 283.134460,327.763733 286.919617,323.320068 
	C289.251709,320.582214 290.558685,316.936005 294.263031,315.125519 
	C296.965118,316.491699 297.907867,319.307587 299.519379,321.527924 
	C304.157013,327.917725 309.271301,333.651855 316.730774,337.019531 
	C327.727448,341.984070 341.532959,333.098328 342.823700,320.835052 
	C344.323212,306.588287 337.392792,297.726013 322.409302,295.260681 
	C311.676880,293.494812 300.806152,294.437103 289.996185,294.485077 
	C284.829712,294.507965 279.646362,294.751831 274.550568,293.919800 
	C249.570389,289.840881 235.438354,265.715454 243.981995,241.871414 
	C244.598328,240.151306 245.394196,238.495514 246.304581,236.492722 
z"/>
<path fill="#000000" opacity="1.000000" stroke="none" 
	d="
M385.580048,332.715485 
	C377.679626,335.128723 370.525909,338.845917 362.071960,339.422791 
	C361.374847,331.571350 360.431335,324.288971 367.962463,319.331116 
	C370.306183,317.788177 370.162659,315.304688 369.486725,312.996002 
	C360.370728,281.858795 351.916687,250.524734 341.791260,219.687317 
	C341.635651,219.213440 341.465027,218.742706 341.270142,218.283768 
	C338.316284,211.328033 334.623444,210.641556 329.607758,216.482086 
	C327.023773,219.491043 325.038361,223.021576 322.855164,226.363922 
	C321.814178,227.957642 320.673401,229.501129 318.645844,229.492615 
	C316.250946,229.482574 315.998260,227.307236 315.446228,225.617386 
	C313.742798,220.402740 312.476349,215.008957 310.346924,209.978195 
	C306.959656,201.975723 312.107391,197.113907 316.327148,191.868240 
	C317.879517,189.938446 319.993866,190.173569 321.480286,192.032959 
	C323.893890,195.052139 326.679321,194.915512 329.982971,193.865051 
	C340.922363,190.386673 351.893524,187.004562 362.891815,183.717102 
	C367.510498,182.336563 370.388947,179.040070 373.213318,175.469330 
	C374.599640,173.716644 375.946869,171.219604 378.700531,171.799622 
	C381.363373,172.360504 380.967468,175.162643 381.602997,177.117966 
	C382.631439,180.282135 383.562714,183.478500 384.500702,186.671341 
	C387.649048,197.388367 384.354492,205.485901 374.396240,211.489517 
	C372.001221,210.707428 372.026978,208.034500 370.571014,206.507874 
	C369.109131,204.975037 367.447998,203.864670 365.273224,204.567673 
	C363.009125,205.299530 363.166046,207.337799 363.275116,209.165115 
	C363.635345,215.199997 365.568878,220.877396 367.248108,226.625839 
	C374.663116,252.009338 381.993134,277.417633 389.368195,302.812805 
	C390.549408,306.880280 391.687836,310.967255 397.158234,311.130310 
	C398.574738,311.172516 399.430298,312.372040 399.951843,313.694305 
	C402.004486,318.897949 398.193512,327.951630 392.992340,330.044891 
	C390.678589,330.976135 388.293945,331.731171 385.580048,332.715485 
z"/>
</svg>