<svg xmlns="http://www.w3.org/2000/svg" xml:space="preserve" viewBox="0 0 1024 704"><path d="M853.605 330.547c-5.825 5.976-11.319 11.786-16.926 17.483-2.68 2.722-2.462 4.887.233 7.581 4.586 4.584 9.547 8.84 13.324 14.195 3.128 4.435 2.603 5.893-2.366 8.235-7.639 3.598-13.98 2.867-20.337-3.39-10.283-10.123-8.525-8.635-17.671.403-7.346 7.259-14.4 14.816-21.515 22.306-1.597 1.682-2.973 3.587-4.34 5.47-1.305 1.798-2.424 3.723-.754 5.919 1.627 2.139 3.672 3.433 6.474 2.702 4.733-1.234 9.273-.039 13.788 1.093 5.636 1.413 5.96 2.585 2.034 6.665-2.605 2.707-5.274 5.354-8.02 8.135 7.633 4.49 8.42 4.306 14.1-.528 20.427-17.38 40.946-34.652 61.393-52.01 4.19-3.556 8.178-7.349 12.334-10.947 2.455-2.126 3.247-4.72 2.05-7.62-1.502-3.641.183-5.106 3.332-6.257 8.843-3.232 11.24-2.688 17.383 4.443 4.024 4.67 8.054 9.335 12.039 14.039 11.834 13.968 14.501 29.6 6.517 46.023-7.947 16.347-21.898 23.979-40.055 24.036-5.547.017-10.852-1.315-15.915-2.546-1.658.699-1.473 2.063-1.732 3.12-2.87 11.716-7.623 22.7-12.82 33.528-3.308 6.894-5.214 14.07-3.358 21.773.607 2.522-.824 3.406-2.845 3.664-4.515.579-9.06.41-13.3-1.264-3.992-1.577-4.832-5.36-4.814-9.136.034-7.089 1.88-13.824 4.752-20.273 4.128-9.27 9.49-17.976 12.555-27.74 1.264-4.026 2.042-8.062 1.702-12.278-.138-1.714-.515-3.413-2.283-4.14-1.805-.741-2.648.917-3.734 1.85-6.82 5.862-13.551 11.83-20.474 17.566-3.703 3.07-5.524 6.22-2.24 10.615 1.556 2.08 1.133 3.73-1.188 4.811-2.406 1.122-4.834 2.208-7.302 3.186-3.367 1.334-5.94.39-8.33-2.435-5.163-6.104-10.719-11.875-15.916-17.952-3.647-4.265-8.023-6.952-13.605-7.539-3.52-.37-5.555-1.863-3.788-5.527 1.497-3.101-.398-4.674-2.198-6.395-11.934-11.415-24.417-22.174-37.882-31.768-4.586-3.268-9.084-6.66-13.524-9.925 3.47-7.652 10.374-11.245 17.619-9.357 3.03.79 4.281-1.22 5.572-3.126a17610 17610 0 0 0 33.273-49.295c2.502-3.72 4.875-7.526 7.667-11.847-6.039 4.479-11.575 8.57-17.092 12.685-2.404 1.793-3.647 4.364-4.159 7.193-.564 3.122-2.39 4.552-5.356 4.955-2.967.403-5.919.923-8.888 1.301-4.183.534-6.493-1.227-6.14-5.581.634-7.79 1.395-15.57 2.157-23.349.318-3.244.777-6.473 1.357-11.227-8.647 14.369-16.529 27.45-24.393 40.541a1523 1523 0 0 0-9.184 15.457c-1.603 2.74-1.83 5.33 1.168 7.406 3.005 2.08 2.453 4.202.226 6.593-6.834 7.34-10.406 7.912-18.908 2.558-9.893-6.231-20.298-11.432-31.007-16.11-8.928-3.9-9.28-6.449-2.446-13.405 1.421-1.448 2.97-3.014 5.02-3.04 4.659-.062 5.273-3.345 5.706-6.723.317-2.471.183-4.996.388-7.485.254-3.094-1.143-5.189-3.852-6.337-6.436-2.726-12.753-5.739-19.472-7.786-2.841-.865-4.861-.253-6.425 2.198-1.164 1.826-2.406 3.604-3.53 5.455-2.965 4.88-3.713 8.01 2.173 10.335 2.63 1.038 2.651 2.921 1.37 5.278-4.293 7.893-8.513 9.651-16.892 6.822-6.469-2.185-12.969-4.282-19.401-6.569-5.374-1.91-5.7-3.003-2.662-7.93 2.695-4.374 5.562-8.114 11.775-7.506 4.32.422 6.089-3.697 7.955-6.721 7.087-11.483 14.017-23.065 20.902-34.671 9.52-16.047 18.873-32.192 28.458-48.198 2.587-4.32 2.342-7.25-2.603-9.33-3.155-1.327-3.462-3.606-1.665-6.47 1.785-2.844 3.79-5.477 6.247-7.75 1.834-1.698 3.883-2.347 6.424-1.518 8.4 2.742 16.593 6.009 24.698 9.512 3.475 1.503 4.822 3.58 4.18 7.783-5.861 38.315-11.453 76.67-17.108 115.017-.388 2.63-.682 5.273-.976 7.915-.262 2.349.365 4.433 2.64 5.42 2.607 1.133 3.575-1.148 4.528-2.787 9.13-15.697 18.193-31.434 27.27-47.161 7.078-12.263 14.301-24.444 21.158-36.828 3.52-6.358 3.222-6.523-3-10.277-5.16-3.112-5.328-4.649-.41-8.126 12.837-9.076 9.832-7.908 22.24-1.242 5.561 2.988 7.931 6.107 6.62 12.953-2.595 13.544-3.994 27.316-5.887 40.994-.295 2.128-1.125 4.62 1.208 5.898 2.071 1.134 3.78-.74 5.308-1.921 10.408-8.053 20.88-16.033 31.08-24.344 4.322-3.52 7.685-3.872 12.084.005 6.488 5.717 13.476 10.877 20.358 16.133 2.814 2.15 2.804 4.026.507 6.559-5.64 6.218-8.36 7.077-16.269 4.177-2.872-1.053-3.935.916-5.273 2.53-6.6 7.96-12.517 16.432-18.371 24.941-12.558 18.253-25.023 36.57-37.56 54.837-2.303 3.355-4.372 6.504.088 9.848 4.863 3.647 6.819 3.624 11.044-.835a92840 92840 0 0 0 64.246-67.884c1.03-1.089 1.923-2.308 2.962-3.385 2.047-2.121 2.59-4.13.07-6.355-.977-.862-1.59-2.127-2.42-3.167-2.411-3.017-1.957-5.465 1.429-7.326 2.041-1.122 4.13-2.158 6.163-3.297 3.188-1.786 5.934-1.335 8.613 1.183 8.012 7.529 16.328 14.747 24.11 22.503 4.772 4.756 9.907 8.242 16.601 9.414 1.903.333 3.921.848 5.423 2.527.045 2.66-2.084 3.97-3.66 5.558-1.991 2.01-4.506 3.597-6.147 5.84-5.402 7.38-12.748 6.846-20.335 5.386-3.447-.663-5.217-2.47-2.498-5.881 2.334-2.927 2.58-5.743-.353-8.335-2.914-2.575-4.886-7.393-10.52-4.399m53.692 83.211c7.589-11.517 7.024-22.217-1.45-31.47-2.884-3.15-5.772-3.768-9.062-.96-10.5 8.957-20.957 17.967-31.433 26.954-1.968 1.689-2.125 3.524-.739 5.717 4.662 7.373 10.935 11.94 19.997 11.956 9.47.016 16.288-4.968 22.687-12.197M679.02 241.866c-1.963 3.279-3.937 6.55-5.888 9.836-6.024 10.144-12.133 20.239-18.02 30.461-3.046 5.288-2.658 5.983 3.113 8.282a325 325 0 0 0 8.856 3.36c5.832 2.128 7.647 1.236 8.584-4.766 1.485-9.504 2.76-19.041 4.03-28.577.922-6.94 2.016-13.882 1.801-21.765-1.106 1.4-1.608 2.034-2.476 3.17M188.34 422.417c-7.758 5.618-13.447 12.771-18.988 20.066-1.17 1.54-1.051 3.067-.131 4.648 1.34 2.302 2.553 4.688 4.023 6.903 4.174 6.284 4.222 6.27 10.683 2.65.89-.499 1.685-.97 2.781-.682 4.219 1.106 9.025 12.494 6.39 16.034-6.462 8.679-13.257 17.109-19.876 25.672-2.05 2.651-3.714 1.965-5.6-.23-2.088-2.43-3.727-5.086-5.073-7.977-1.175-2.523-1.126-4.93.685-7.014 4.063-4.674 2.75-9.101-.182-13.69-11.657-18.249-23.212-36.562-34.874-54.807-6.1-9.544-12.378-18.975-18.512-28.498-4.62-7.17-5.748-7.53-12.677-2.664-2.521 1.77-4.266 1.365-5.875-.934-2.501-3.573-4.324-7.459-5.614-11.645-.852-2.763.659-4.5 2.194-6.219 4.773-5.34 9.763-10.489 14.418-15.927 2.58-3.015 4.862-3.07 8.16-1.1 29.026 17.35 58.131 34.566 87.213 51.822 6.016 3.57 12.077 7.067 18.03 10.74 3.292 2.031 6.127 2.941 9.274-.47 3.41-3.697 1.171-6.409-1.042-9.169a19486 19486 0 0 0-46.048-57.243c-4.92-6.087-9.838-12.191-15.08-17.996-4.804-5.32-5.5-5.212-11.352-1.506-5.743 3.635-6.567 3.349-8.953-3.117-2.977-8.064-2.432-10.327 3.915-16.253 2.314-2.16 4.854-4.128 6.892-6.522 3.62-4.253 7.37-4.109 11.926-1.55 11.183 6.277 22.494 12.328 33.783 18.413a122 122 0 0 0 8.982 4.375c1.27.556 2.758 1.636 4.146.182 1.156-1.21.289-2.514-.057-3.752-4.167-14.91-8.394-29.803-12.501-44.729-2.093-7.606-2.007-7.645 4.524-11.997 6.767-4.509 13.553-8.99 20.239-13.421 5.859 5.995 7.06 14.65 3.006 20.832-1.8 2.746-.267 4.747.973 6.867 6.91 11.809 15.242 22.67 22.773 34.065 10.652 16.12 21.515 32.102 32.164 48.224 2.252 3.41 4.746 5.05 8.713 3.118 1.65-.804 3.136-.754 4.616.5 4.127 3.493 4.228 13.675-.075 16.822-8.065 5.898-16.177 11.743-24.435 17.366-5.33 3.628-6.732 2.946-8.503-3.38-1.499-5.352-3.274-10.673 3.015-14.599 2.183-1.362.838-3.587-.113-5.374-4.074-7.661-8.802-14.917-13.728-22.047-7.369-10.667-14.754-21.322-22.469-32.468-.36 8.094 1.532 13.604 6.302 18.897 1.033 1.146 2.2 2.276 1.714 3.91-1.372 4.622-2.598 9.321-4.968 13.569-1.709 3.062-4.234 2.005-6.524.89-9.133-4.446-18.225-8.976-27.335-13.47-.55-.27-1.119-.503-2.97-1.33 12.447 16.247 23.712 31.662 35.918 46.358 1.277 1.538 2.615 3.033 3.789 4.647 2.747 3.777 5.782 6.095 10.402 2.712.94-.687 2.031-.993 3.29-.453 4.47 1.916 7.412 13.944 3.718 17.18-15.07 13.2-28.45 28.074-42.51 42.273-2.199 2.22-4.023 1.994-5.607-.632-3.111-5.158-7.985-9.95-3.19-16.682.805-1.13-.189-2.305-1.1-3.014-3.788-2.952-7.48-6.103-12.688-7.174m-34.394-22.814-23.53-13.75c1.674 4.769 3.899 8.66 6.321 12.423 5.754 8.94 11.616 17.81 17.404 26.727 2.405 3.708 4.707 4.066 7.642.384 2.684-3.368 5.783-6.409 8.73-9.565 2.541-2.724 2.153-4.897-1.032-6.787-5.002-2.967-9.949-6.024-15.535-9.432M481.583 227.197c-.938-12.288-.685-24.124-.735-35.951-.017-4.044-1.365-6.825-5.516-7.657-3.637-.728-3.842-2.844-2.964-5.936 2.745-9.669 4.813-11.815 14.66-12.494 10.977-.756 22.035-.912 32.922.873 24.618 4.037 37.6 28.158 29.087 53.061-4.195 12.273-12.101 20.86-23.798 26.158a55 55 0 0 0-3.58 1.766c-.417.226-.723.653-1.04.952-.381 1.582.568 2.635 1.323 3.685 4.858 6.768 7.313 14.522 9.36 22.46 2.417 9.374 5.687 18.192 15.013 23.11 2.439 1.285 3.144 3.379 1.96 5.912-2.095 4.48-3.549 9.892-9.09 11.11-6.253 1.376-11.514-1.45-15.385-6.289-6.743-8.428-9.11-18.789-12.01-28.86-1.427-4.956-2.475-10.022-3.721-15.031-.481-1.931-.817-4.014-3.64-4.421-1.9 1.821-2.164 4.365-1.889 6.742.905 7.816.57 15.647.625 23.472.02 2.902.53 5.221 3.735 6.226 2.75.863 3.106 2.923 2.655 5.601-1.65 9.809-4.145 12.073-14.037 12.44-6.824.252-13.644.751-20.47.842-4.419.059-7.62 1.858-10.137 5.341-.966 1.338-2.1 2.606-3.358 3.67-2.266 1.916-4.616 1.754-5.49-1.226-1.61-5.493-5.6-4.888-9.624-4.222-11.334 1.873-22.647 3.87-33.972 5.795-5.546.942-6.338.349-5.656-5.142.638-5.13 1.427-10.238 6.969-12.966 2.671-1.315 3.054-4.014 2.665-6.94-3.95-29.687-7.82-59.384-11.728-89.075-.239-1.812-.62-3.604-.935-5.405-1.454-8.313-1.435-8.41-9.44-9.95-2.913-.56-3.777-2.03-3.686-4.817.263-8.017 4.251-13.08 12.037-14.63 13.711-2.732 27.43-5.465 41.378-6.728 6.192-.56 11.086-4.21 17.509-7.569 1.258 10.045 4.28 19.228-.39 28.284-2.03 3.935-5.173 7.338-8.05 10.782-2.868 3.434-3.938 3.022-5.547-1.34-1.329-3.6-.634-8.695-5.327-10.068-5.275-1.543-10.532.402-15.654 1.805-2.492.682-2.32 2.973-2.332 4.972-.05 8.197 1.562 16.196 2.84 24.242.552 3.475 2.43 4.284 5.606 3.91 5.95-.698 11.918-1.26 17.888-1.755 6.508-.538 7.786 1.121 5.877 7.5-2.398 8.01-6.937 13.584-16.038 13.871-.663.021-1.327.134-1.981.253-8.354 1.517-9.097 2.346-8.012 10.948 1.477 11.714 3.198 23.397 4.847 35.09.184 1.31.455 2.635.901 3.875 1.083 3.01 1.143 7.003 5.681 7.154 4.699.156 8.905-.863 11.427-5.493 2.48-4.55 5.36-8.843 9.398-12.197 3.906-3.243 5.728-2.782 6.934 2.096 1.115 4.51 1.762 9.137 2.569 13.72.26 1.475.358 2.981 1.606 4.154 5.868-4.89 9.518-10.209 9.028-18.776-1.074-18.781-.919-37.633-1.268-56.934m45.289-35.55c-5.233-5.653-11.908-7.632-19.364-7.527-3.047.043-5.19 1.313-5.204 4.716-.063 14.796-.53 29.6 1.049 44.36.259 2.418 1.603 3.37 3.87 3.753 8.258 1.392 17.73-2.722 21.633-10.312 5.982-11.635 6.093-23.278-1.984-34.99"/><path d="M633.478 259.318c-4.781 15.537-12.226 29.234-22.007 41.648-9.79 12.424-22.48 18.93-38.541 18.426-8.838-.278-17.436-1.974-26.636-3.51.926-5.408 2.094-10.406 5.835-13.83 3.835-3.51 4.82-7.848 5.488-12.44 3.926-26.993 7.763-54 11.627-81.002.636-4.445 1.014-8.945 1.956-13.324.767-3.569-.417-5.109-3.786-6.178-8.774-2.783-8.804-3.729-4.064-11.668 3.37-5.645 7.518-7.763 14.05-6.332 7.955 1.744 16.231 2.187 24.055 4.335 20.193 5.544 31.419 19.662 35.763 39.67 3.245 14.946.512 29.454-3.74 44.205m-52.452 4.008c-1.835 11.82-3.68 23.638-5.499 35.46-.514 3.344.96 4.916 4.355 5.15 4.79.329 8.22-2.169 11.524-5.063 9.188-8.048 14.33-18.69 18.636-29.747 6.09-15.637 10.112-31.717 7.623-48.684-1.492-10.171-7.036-17.88-15.96-22.926-6.243-3.527-9.823-1.935-10.953 4.898-3.307 19.997-6.402 40.028-9.726 60.912M246.305 236.493c6.503-11.452 16.162-17.47 28.771-18.764 4.514-.463 7.262-2.747 8.966-6.809 1.276-3.043 2.422-7.17 6.016-7.323 3.823-.164 4.497 4.31 5.94 7.127 2.501 4.884 4.78 9.889 6.967 14.924 1.599 3.68-3.818 14.838-7.612 15.817-2.192.565-3.767-.906-5.349-2.131-7.913-6.13-16.577-6.283-25.514-2.923-5.159 1.94-8.625 5.55-9.28 11.34-.873 7.738 1.621 14.156 7.742 18.952 4.471 3.502 9.773 4.952 15.404 4.976 12.155.051 24.31-.042 36.465-.01 33.422.09 42.826 26.461 39.823 47.78-1.444 10.248-5.53 19.104-12.7 26.531-5.034 5.215-11.19 8.391-18.361 9.292-5.913.744-10.468 2.85-12.272 9.125-.65 2.259-2.27 4.431-4.797 4.594-2.61.167-3.21-2.545-4.258-4.341-5.373-9.197-10.56-18.505-16.068-27.62-2.963-4.902-3.054-9.266.732-13.71 2.332-2.738 3.639-6.384 7.343-8.194 2.702 1.366 3.645 4.182 5.256 6.402 4.638 6.39 9.752 12.124 17.212 15.492 10.996 4.964 24.802-3.922 26.093-16.185 1.5-14.247-5.431-23.109-20.415-25.574-10.732-1.766-21.603-.824-32.413-.776-5.166.023-10.35.267-15.445-.565-24.98-4.08-39.113-28.205-30.569-52.049.616-1.72 1.412-3.375 2.323-5.378"/><path d="M385.58 332.715c-7.9 2.414-15.054 6.13-23.508 6.708-.697-7.852-1.64-15.134 5.89-20.092 2.344-1.543 2.2-4.026 1.525-6.335-9.116-31.137-17.57-62.471-27.696-93.309a18 18 0 0 0-.52-1.403c-2.955-6.956-6.648-7.642-11.663-1.802-2.584 3.009-4.57 6.54-6.753 9.882-1.04 1.594-2.182 3.137-4.21 3.129-2.394-.01-2.647-2.186-3.199-3.876-1.703-5.214-2.97-10.608-5.1-15.639-3.386-8.002 1.761-12.864 5.981-18.11 1.553-1.93 3.667-1.694 5.153.165 2.414 3.02 5.2 2.883 8.503 1.832q16.41-5.216 32.909-10.148c4.618-1.38 7.497-4.677 10.321-8.248 1.387-1.752 2.734-4.25 5.488-3.67 2.662.562 2.266 3.364 2.902 5.319 1.028 3.164 1.96 6.36 2.898 9.553 3.148 10.717-.147 18.815-10.105 24.819-2.395-.783-2.369-3.456-3.825-4.982-1.462-1.533-3.123-2.643-5.298-1.94-2.264.732-2.107 2.77-1.998 4.597.36 6.035 2.294 11.712 3.973 17.46 7.415 25.384 14.745 50.793 22.12 76.188 1.181 4.067 2.32 8.154 7.79 8.317 1.417.043 2.272 1.242 2.794 2.564 2.052 5.204-1.758 14.258-6.96 16.35-2.313.932-4.698 1.687-7.412 2.671"/></svg>