<svg xmlns="http://www.w3.org/2000/svg" xml:space="preserve" viewBox="0 0 1024 464"><path d="M1 348.428c9.883-.941 15.558-7.16 19.774-15.196 6.901-13.152 12.024-27.086 17.617-40.806 17.1-41.946 34.102-83.932 51.144-125.902.98-2.412 1.382-5.277 4.999-5.34 3.508-.06 4.289 2.514 5.333 5.001 19.795 47.14 39.596 94.276 59.421 141.403 3.293 7.827 6.603 15.65 10.084 23.396 3.726 8.292 8.342 15.707 18.623 16.86 2.294.256 2.933 1.996 2.77 4.024-.183 2.262-1.914 2.436-3.66 2.435q-31.744-.008-63.49-.032c-1.969-.001-3.677-.325-3.829-2.862-.164-2.748 1.54-3.387 3.757-3.544.166-.012.332-.032.498-.038 16.574-.615 16.77-8.419 12.955-20.073-3.619-11.057-8.476-21.707-12.745-32.554-.865-2.199-2.413-2.9-4.67-2.895-21.164.044-42.327.042-63.49.02-2.005-.003-3.516.415-4.271 2.567-4.186 11.924-10.01 23.266-12.787 35.688-2.401 10.743 1.331 15.914 12.158 17.06.827.088 1.663.095 2.493.165 2.263.19 3.24 1.534 3.12 3.69-.118 2.095-1.464 2.787-3.395 2.783-5.666-.01-11.332.036-16.997.024a3867 3867 0 0 1-34.95-.208C1 352.286 1 350.571 1 348.428m90.55-134.564c-1.425-2.703-1.767-5.944-4.263-9.046L57.66 279.52h60.467c-8.989-22.18-17.654-43.558-26.577-65.656M821.576 164.217c13.277-.104 26.108-.108 38.938-.232 3.282-.031 5.587 1.14 7.607 3.806 31.796 41.965 63.667 83.872 95.537 125.78 1.297 1.706 2.751 3.292 4.21 5.027 1.488-1.45.887-3.027.888-4.399.009-31.83.013-63.66-.125-95.489-.018-4.134-.514-8.327-1.327-12.385-1.919-9.57-7.276-13.762-18.558-14.91-2.504-.254-5.167.13-5.098-3.735.077-4.247 3.175-3.631 5.696-3.64 17.665-.057 35.33-.024 52.994-.015.666 0 1.332.043 1.997.08 2.32.131 3.766 1.095 3.712 3.68-.053 2.54-1.427 3.275-3.79 3.59-15.4 2.057-19.844 7.001-21.012 22.656-1.949 26.13-.609 52.294-.858 78.44-.251 26.328-.021 52.66-.095 78.991-.005 1.964 1.21 4.698-1.558 5.719-3.076 1.134-4.827-1.056-6.533-3.288A190641 190641 0 0 0 871.85 220.1c-4.42-5.773-8.927-11.48-14.472-16.922v8.307c.014 31.33-.12 62.661.138 93.99.07 8.62-.104 17.352 1.681 25.864 2.094 9.983 6.927 14.16 16.99 15.31 1.487.17 3.002.187 4.462.484 1.78.363 2.266 1.802 2.289 3.413.023 1.678-.635 2.96-2.431 3.247-1.144.183-2.32.231-3.482.232q-26.498.018-52.994-.007c-1.16-.001-2.336-.068-3.478-.26-1.826-.309-2.375-1.674-2.352-3.312.023-1.61.538-2.965 2.34-3.368a9.6 9.6 0 0 1 1.48-.224c16.754-1.056 21.234-8.206 21.526-25.09.506-29.322.206-58.657.232-87.987.013-13.999-.005-27.997-.006-41.996 0-9.378-8.813-19.328-18.203-20.525-1.322-.168-2.655-.243-3.979-.397-1.917-.224-3.597-.65-3.757-3.123-.159-2.459 1.269-3.196 3.743-3.518M474 354.301c-15.828 0-31.155.013-46.482-.015-2.426-.005-5.417.569-5.344-3.349.065-3.503 2.825-3.07 5.103-3.215 11.975-.764 16.321-5.199 16.42-17.299.143-17.658.01-35.318.182-52.976.038-3.839-1.124-5.26-5.126-5.23-21.156.165-42.316.18-63.472.008-4.102-.033-5.072 1.496-5.038 5.273.152 17.158.006 34.319.103 51.478.076 13.504 3.835 17.517 17.21 18.773 2.421.228 4.877.336 4.627 3.758-.24 3.295-2.81 2.76-4.872 2.764-20.158.04-40.317.037-60.475.023-2.315-.002-4.936.33-5.01-3.223-.066-3.21 2.288-3.142 4.477-3.33 13.095-1.123 17.185-5.458 17.332-18.75.124-11.328.042-22.658.042-33.986-.001-28.489-.004-56.977-.021-85.465-.001-1.997.034-4.013-.213-5.986-1.443-11.54-4.488-14.431-16.166-15.562-2.451-.238-5.39.047-5.209-3.739.179-3.733 3.102-3.33 5.548-3.334 19.658-.037 39.317-.034 58.975-.018 2.316.002 4.898-.308 5.174 3.143.274 3.438-2.25 3.553-4.584 3.896-.659.097-1.324.15-1.987.218-10.149 1.041-14.565 5.19-14.75 15.285-.32 17.487-.072 34.984-.165 52.476-.017 3.137 1.446 4.015 4.277 4.01 21.658-.038 43.316-.047 64.973.03 3.316.011 4.305-1.47 4.286-4.566-.107-17.325.064-34.653-.194-51.976-.152-10.12-4.123-14.106-14.054-15.29-1.488-.177-2.962-.48-4.452-.627-1.962-.195-2.39-1.425-2.382-3.125.007-1.698.535-2.974 2.365-3.247 1.147-.172 2.322-.218 3.484-.22q28.987-.03 57.976-.02c1.162 0 2.339.045 3.483.228 1.545.245 2.224 1.287 2.232 2.827.008 1.557-.042 3.072-1.96 3.536-.807.195-1.627.389-2.451.453-16.005 1.248-17.191 7.37-17.332 19.744-.452 39.645-.18 79.299-.087 118.949.008 3.469.524 6.984 1.216 10.394 1.288 6.347 5.834 9.656 14.02 10.581 1.322.15 2.662.136 3.99.24 2.232.174 3.289 1.481 3.21 3.641-.078 2.122-1.485 2.778-3.39 2.78-4.996.005-9.993.026-15.49.04"/><path d="M800.241 331.198c-22.443 24.282-49.834 31.726-81.08 24.088-30.752-7.516-49.261-28.473-57.157-58.25-8.05-30.359-5.535-60.138 13.068-86.446 17.872-25.274 43.624-35.782 73.99-32.45 30.968 3.397 53.404 20.231 64.922 49.33 11.184 28.256 10.45 56.889-1.723 84.987-2.943 6.793-7.287 12.678-12.02 18.741m-97.611-123.08c-3.54 5.27-6.53 10.792-8.689 16.809-3.572 9.958-5.463 20.256-6.183 30.726-1.464 21.313.054 42.277 9.109 62.062 10.963 23.952 33.051 34.917 56.665 27.911 17.067-5.063 26.4-17.976 32.09-33.792 7.182-19.963 7.861-40.667 5.615-61.57-1.473-13.706-4.665-26.875-11.907-38.808-17.604-29.008-56-30.99-76.7-3.338M262.603 181.176c3.427 1.452 6.435 2.912 9.568 4.021 5.492 1.944 8.765.736 11.628-4.39 1.195-2.138 2.478-3.465 5.06-2.981 2.853.534 2.302 2.828 2.469 4.73 1.35 15.4 2.717 30.8 3.994 46.208.18 2.156 1.097 4.811-2.573 5.386-3.651.571-4.466-1.663-5.287-4.458-3.63-12.36-9.13-23.625-19.595-31.763-8.22-6.392-17.535-9.732-27.959-8.358-9.122 1.203-16.319 5.61-19.81 14.695-3.845 10.003-.805 18.709 5.535 26.454 5.754 7.03 13.286 12.061 20.878 16.926 11.908 7.63 24.294 14.507 35.244 23.616 17.37 14.45 24.002 33.288 17.55 53.83-5.343 17.011-17.763 26.771-34.812 31.076-14.432 3.643-28.38 1.855-42.095-3.337-2.954-1.119-5.931-2.22-8.975-3.046-4.161-1.129-7.65-.28-9.368 4.195-.787 2.052-1.902 3.381-4.389 3.207-3.074-.216-3.225-2.631-3.515-4.656-1.889-13.166-3.73-26.34-5.387-39.536-.43-3.42-1.786-6.808-.772-10.59 3.903-1.684 6.174-.516 7.835 3.633 5.656 14.128 13.147 26.931 26.693 35.151 9.145 5.549 19.048 7.198 29.322 5.12 20.721-4.19 28.999-29.265 15.635-46.726-5.45-7.12-12.618-12.283-19.986-17.185-12.6-8.383-26.239-15.22-37.612-25.431-15.269-13.71-19.816-33.053-12.329-52.809 6.04-15.934 22.761-26.338 42.138-26.547 7.108-.077 13.922.948 20.915 3.565M568 180.884c25.5 0 50.499.105 75.497-.088 4.918-.038 6.813 1.45 6.841 6.512.064 11.32.679 22.637.985 33.957.06 2.209.662 4.848-3.043 5.075-3.342.205-4.225-1.632-4.761-4.435a73 73 0 0 0-2.557-9.645c-4.339-12.813-12.097-18.532-25.679-18.903-5.829-.16-11.682.225-17.493-.133-4.585-.282-5.566 1.594-5.553 5.813.129 41.332.075 82.663.079 123.995 0 3.496.097 6.964.681 10.45 1.573 9.387 5.532 13.229 15.116 14.16 1.823.178 3.66.208 5.484.377 2.1.195 2.744 1.544 2.665 3.477-.077 1.872-1.113 2.662-2.864 2.729-.999.038-1.998.07-2.998.07q-30.999.011-61.997.012c-.833 0-1.666-.029-2.5-.036-1.977-.016-3.11-.837-3.127-2.983-.016-1.992.799-3.178 2.821-3.394 2.642-.282 5.355-.245 7.917-.851 8.673-2.052 12.033-6.229 12.142-15.186.15-12.332.134-24.665.138-36.998.01-31.832-.103-63.665.09-95.496.029-4.878-1.482-6.504-6.257-6.128-6.953.548-13.927-.182-20.931.82-11.554 1.652-18.1 8.374-21.226 19.077a84 84 0 0 0-2.2 9.727c-.506 3.045-2.342 3.64-4.998 3.513-3.143-.15-3.234-2.161-3.114-4.526.589-11.638 1.275-23.275 1.618-34.921.13-4.415 1.635-6.163 6.227-6.113 17.497.193 34.998.075 52.997.072"/></svg>