<svg version="1.1" id="Layer_1" xmlns="http://www.w3.org/2000/svg" xmlns:xlink="http://www.w3.org/1999/xlink" x="0px" y="0px"
	 width="100%" viewBox="0 0 1024 1024" enable-background="new 0 0 1024 1024" xml:space="preserve">
<path fill="#000000" opacity="1.000000" stroke="none" 
	d="
M588.541016,535.062866 
	C591.038513,502.570068 590.591919,470.417816 591.071594,438.287262 
	C591.150635,432.990692 588.726379,430.230499 583.729614,429.335724 
	C581.928711,429.013214 580.114685,428.745117 578.334229,428.332855 
	C576.641785,427.941040 575.829285,426.776947 575.979736,425.028687 
	C576.130554,423.277191 577.193542,422.201508 578.863403,422.126923 
	C582.186157,421.978546 585.520874,421.966461 588.847107,422.046143 
	C614.481567,422.660095 640.115601,423.295563 665.748718,423.964539 
	C669.237793,424.055573 672.746033,424.734070 676.201416,424.497559 
	C681.893860,424.107880 682.728760,426.868958 682.471252,431.787384 
	C682.018921,440.428925 682.271606,449.105896 682.143738,457.766815 
	C682.110962,459.990112 682.690735,462.802063 679.310486,463.233612 
	C675.747437,463.688538 675.477112,460.806091 674.838318,458.412079 
	C674.409180,456.803711 674.076233,455.168823 673.620300,453.568542 
	C669.768127,440.047943 660.942627,433.052307 646.839722,432.249054 
	C642.189514,431.984161 637.549927,431.423309 632.898193,431.317108 
	C625.052612,431.138000 622.825012,433.202454 622.475647,441.170319 
	C622.176636,447.990082 622.276062,454.827026 622.179871,461.656067 
	C622.118896,465.986664 622.331604,470.351196 621.854126,474.637329 
	C621.386230,478.838043 622.697144,480.179443 626.944641,480.079285 
	C638.624695,479.803833 644.676575,475.371979 647.968201,464.026520 
	C648.292358,462.909332 648.518616,461.762695 648.866516,460.653625 
	C649.657349,458.132355 649.193848,454.312317 653.454285,454.881134 
	C657.740967,455.453461 656.351440,459.013184 656.307190,461.648163 
	C656.024780,478.464172 655.683044,495.279144 655.359924,512.094482 
	C655.347107,512.760620 655.307800,513.426575 655.308960,514.092651 
	C655.313110,516.479370 654.802856,518.406982 651.849854,518.551819 
	C649.100159,518.686646 648.567078,516.799255 648.196777,514.738770 
	C647.637939,511.629303 647.217773,508.491516 646.561462,505.403442 
	C643.917908,492.964966 634.870239,489.588501 624.750061,488.489258 
	C622.117493,488.203278 621.222900,489.828430 621.172180,492.166229 
	C620.876343,505.816132 620.455200,519.465027 620.347778,533.116394 
	C620.305359,538.507263 623.210876,541.422974 628.693604,541.770264 
	C637.177002,542.307617 645.747925,542.631836 654.045105,540.490723 
	C665.949768,537.418884 673.906921,529.438721 679.365723,518.714661 
	C680.196533,517.082458 680.979248,515.425049 681.753479,513.764954 
	C682.833618,511.449005 684.507568,510.478638 687.000549,511.458221 
	C689.439575,512.416565 689.373352,514.424194 688.926392,516.481506 
	C687.337402,523.795471 685.690796,531.096924 684.095703,538.409546 
	C680.716492,553.900635 683.503235,551.443481 668.135498,551.099609 
	C638.511108,550.436768 608.905212,548.973572 579.262878,549.046570 
	C578.597107,549.048218 577.930298,549.020630 577.265564,548.980164 
	C574.904724,548.836670 572.914978,548.229065 572.960999,545.293396 
	C573.002319,542.658264 574.833008,542.123230 576.975342,541.794250 
	C581.554077,541.090881 586.486023,540.947205 588.541016,535.062866 
z"/>
<path fill="#000000" opacity="1.000000" stroke="none" 
	d="
M847.090088,554.026184 
	C854.978882,556.529053 862.521423,557.122070 869.851562,553.678528 
	C881.065857,548.410339 883.787292,533.603699 875.268982,524.561890 
	C867.916077,516.757202 858.041321,512.735962 849.071655,507.372620 
	C842.789490,503.616211 836.470215,499.999725 830.953857,495.060638 
	C819.066345,484.417175 816.383789,471.172485 820.185608,456.417084 
	C823.860901,442.152771 833.823181,434.115692 847.846558,430.559387 
	C859.140747,427.695282 869.921265,428.979675 880.400452,433.847473 
	C882.962952,435.037811 885.579285,436.126556 888.222717,437.124725 
	C891.565979,438.387177 894.525696,438.075012 896.195251,434.424438 
	C897.304688,431.998688 899.134644,431.429016 901.513062,432.001831 
	C904.114441,432.628387 904.169861,434.772247 904.058472,436.775696 
	C903.439453,447.908478 902.749817,459.037445 902.050049,470.165527 
	C901.902527,472.511902 901.202759,474.403656 898.273499,474.436920 
	C895.632385,474.466888 894.387146,473.183929 893.846985,470.693542 
	C891.985779,462.112549 888.841797,454.094055 882.718384,447.585205 
	C875.164612,439.556183 866.181763,435.336548 854.938477,437.970337 
	C847.823547,439.637024 843.126648,443.947662 841.656677,451.252808 
	C840.273987,458.124542 842.657898,463.782043 848.049072,468.037445 
	C855.793762,474.150635 864.641663,478.527496 873.140076,483.442322 
	C880.638123,487.778595 888.408386,491.770111 894.424744,498.163361 
	C913.337036,518.260498 904.450989,551.965637 877.807861,561.390137 
	C863.766418,566.357117 849.974976,564.828552 836.372437,559.560791 
	C833.890930,558.599792 831.415710,557.609375 828.996643,556.503479 
	C825.344849,554.833923 822.220642,554.801208 820.148743,558.886780 
	C819.089478,560.975708 817.366333,561.611145 815.144165,561.089050 
	C812.715942,560.518616 812.749023,558.571960 812.835388,556.734375 
	C813.460510,543.437927 814.132751,530.143738 814.793091,516.848999 
	C814.896118,514.773682 815.740173,513.273254 818.020508,513.169373 
	C820.057983,513.076477 821.639282,513.949707 822.206360,515.988647 
	C822.694885,517.745239 822.897034,519.579407 823.279785,521.367737 
	C826.333618,535.635559 832.144409,547.921936 847.090088,554.026184 
z"/>
<path fill="#000000" opacity="1.000000" stroke="none" 
	d="
M324.075806,429.230835 
	C324.695953,439.654053 325.607788,449.610870 325.232666,459.614014 
	C325.149231,461.839172 325.869446,464.579712 322.502747,465.153809 
	C319.405792,465.681946 318.202179,463.930664 317.245026,461.182953 
	C314.763336,454.058685 311.116821,447.563629 306.043121,441.872070 
	C297.734772,432.551819 285.603882,429.249176 273.904877,433.335144 
	C268.104828,435.360840 264.270020,439.184967 263.295074,445.391815 
	C262.250305,452.043030 263.381927,457.995911 269.208008,462.316925 
	C275.832764,467.230377 283.447235,470.222626 290.855255,473.621216 
	C297.510834,476.674561 304.287354,479.490082 310.803680,482.815857 
	C325.459137,490.295776 333.755768,502.169586 332.863281,518.885986 
	C331.919739,536.558838 322.011139,548.126892 305.634247,554.135193 
	C292.877350,558.815369 279.892639,558.641174 266.894562,554.945496 
	C264.495636,554.263489 262.035614,553.761719 259.691742,552.929077 
	C256.095917,551.651794 253.523605,552.399475 252.054016,556.106384 
	C251.110855,558.485413 249.274078,559.309631 246.829727,558.803223 
	C244.503281,558.321228 244.250275,556.374084 244.140198,554.548462 
	C243.389084,542.091614 242.670685,529.632446 242.030167,517.169434 
	C241.898895,514.615234 242.078033,511.917633 245.496796,511.524445 
	C248.701218,511.155945 249.909897,513.416199 250.567383,515.971497 
	C253.059387,525.656372 256.878143,534.589539 264.756287,541.218140 
	C274.251770,549.207458 284.951050,551.822876 296.900848,547.931763 
	C303.972534,545.629150 308.551208,540.786804 309.615448,533.333374 
	C310.747498,525.404968 308.131744,518.963440 301.074280,514.568237 
	C292.401245,509.166901 282.866608,505.655487 273.511108,501.747955 
	C268.281738,499.563721 263.197662,497.122650 258.470673,493.976593 
	C244.928085,484.963348 240.062164,472.035736 242.216888,456.395172 
	C244.531036,439.597412 255.100296,429.803009 270.839325,425.375732 
	C281.161011,422.472321 291.572693,422.823608 301.739136,426.752197 
	C304.362183,427.765808 307.136200,428.408539 309.868988,429.112610 
	C312.319702,429.744080 314.342621,428.751984 315.205811,426.529602 
	C316.327637,423.641388 317.569611,421.075287 321.175293,422.042694 
	C324.668427,422.979950 323.437195,426.368896 324.075806,429.230835 
z"/>
<path fill="#000000" opacity="1.000000" stroke="none" 
	d="
M441.821106,421.895630 
	C448.728424,421.997986 449.028259,422.303772 449.260895,428.671051 
	C449.564880,436.990936 450.005737,445.308075 450.145599,453.630463 
	C450.191315,456.349609 451.715179,460.229431 447.315125,461.035858 
	C442.766998,461.869354 443.070984,457.683289 442.304901,455.068390 
	C439.393066,445.129517 435.104492,436.378571 424.554016,432.454926 
	C420.434692,430.922943 416.130920,430.640045 411.821136,430.325043 
	C409.263275,430.138062 408.097076,431.354095 408.276581,433.884705 
	C409.692627,453.845764 408.479065,473.869720 409.646118,493.828461 
	C410.318176,505.321747 410.017700,516.811584 410.254852,528.301086 
	C410.467957,538.625305 412.380829,540.770325 422.591309,541.913940 
	C423.903748,542.060974 425.231720,542.312134 426.479919,542.731201 
	C428.220306,543.315552 428.422394,544.866882 428.347870,546.427307 
	C428.272003,548.015503 427.240448,548.771240 425.781647,549.009705 
	C425.127808,549.116638 424.454895,549.128906 423.789825,549.142090 
	C404.969635,549.515442 386.149353,549.884766 367.328949,550.247864 
	C366.496948,550.263855 365.662506,550.236267 364.831299,550.190308 
	C363.066528,550.092590 362.101044,549.154541 361.940674,547.385620 
	C361.775909,545.567932 362.730530,544.525330 364.373779,544.146240 
	C366.805786,543.585327 369.281311,543.213928 371.715820,542.662476 
	C377.379639,541.379395 379.813721,538.463806 379.368286,532.768494 
	C378.353180,519.788086 378.867035,506.791626 378.746735,493.805054 
	C378.566193,474.314697 377.870667,454.848297 376.927765,435.383575 
	C376.760345,431.927368 375.326599,431.213623 372.214569,431.521210 
	C356.098083,433.114014 347.921600,440.250397 344.320557,456.076233 
	C343.877655,458.022736 343.535309,460.005219 342.913391,461.894287 
	C342.291840,463.782166 340.630920,464.134094 338.843414,464.034607 
	C336.849670,463.923706 335.844208,462.844391 335.700226,460.875702 
	C334.896942,449.890259 335.913666,438.912842 335.868805,427.929749 
	C335.854980,424.549225 338.646667,424.821259 340.979218,424.651093 
	C358.593262,423.366119 376.246216,423.332336 393.889221,422.964233 
	C409.708466,422.634216 425.526794,422.259491 441.821106,421.895630 
z"/>
<path fill="#000000" opacity="1.000000" stroke="none" 
	d="
M768.150513,488.724884 
	C775.759827,476.999237 783.201416,465.545654 790.568542,454.044403 
	C791.821045,452.089172 792.895203,449.989685 793.807800,447.852631 
	C796.374878,441.841888 794.236877,437.748016 787.895874,436.327911 
	C786.434326,436.000641 784.960999,435.706543 783.479309,435.493317 
	C781.420349,435.196991 779.966614,434.385834 780.174500,431.999847 
	C780.395508,429.462555 781.994019,428.701782 784.310547,428.748962 
	C788.642273,428.837280 792.979248,428.753815 797.307129,428.921448 
	C804.127441,429.185699 810.943237,429.576324 817.758301,429.960968 
	C819.955566,430.084961 822.223755,430.189667 822.347839,433.298004 
	C822.460876,436.129120 820.768555,437.042480 818.352661,437.385742 
	C814.111023,437.988403 811.007080,440.357758 808.685120,443.841064 
	C796.859253,461.581482 785.036682,479.324036 773.238831,497.083099 
	C772.131531,498.749939 771.346619,500.528748 771.283386,502.650635 
	C770.946045,513.969849 770.386536,525.283569 770.151733,536.604309 
	C769.983948,544.695312 772.237122,547.239746 780.235474,548.784546 
	C782.720520,549.264526 785.518250,549.317566 785.279053,552.922058 
	C785.022888,556.784363 781.935913,556.126465 779.619202,555.962830 
	C762.835327,554.777405 746.031372,554.175476 729.212036,553.885498 
	C727.553162,553.856934 725.901550,553.517700 724.242493,553.366760 
	C722.304321,553.190369 721.096191,552.294922 721.155518,550.223938 
	C721.212280,548.241577 722.393677,547.226929 724.270935,546.938660 
	C726.736694,546.559998 729.212769,546.244446 731.672241,545.829529 
	C736.065002,545.088562 738.443298,542.345825 738.744080,538.015564 
	C739.459717,527.712158 740.275879,517.395935 739.903198,507.064331 
	C739.704468,501.556793 736.183594,497.162292 733.841492,492.426544 
	C725.499695,475.559296 717.009583,458.765411 708.568970,441.947052 
	C706.233337,437.293304 702.887085,433.739349 697.734985,432.236176 
	C695.410583,431.558044 694.460266,430.058838 694.931213,427.722260 
	C695.416687,425.313812 697.294495,425.277435 699.210205,425.343506 
	C715.690613,425.911926 732.171265,426.472260 748.651611,427.042236 
	C749.650024,427.076813 750.664612,427.075562 751.639954,427.259369 
	C753.954895,427.695679 757.125305,427.160950 756.886963,431.015045 
	C756.658020,434.716492 753.705872,434.176758 751.271057,434.316345 
	C750.106995,434.383026 748.928589,434.297485 747.775391,434.436249 
	C743.104675,434.998413 741.006470,437.882935 742.945190,442.067383 
	C750.084106,457.475891 757.498718,472.756775 764.830994,488.075500 
	C765.494507,489.461670 766.212341,491.118896 768.150513,488.724884 
z"/>
<path fill="#000000" opacity="1.000000" stroke="none" 
	d="
M182.208191,559.130615 
	C180.414795,555.487610 181.917618,553.976318 185.131943,553.141418 
	C196.777847,550.116394 197.290298,548.991821 192.233261,538.076233 
	C190.483658,534.299683 188.453461,530.645874 186.851105,526.810730 
	C185.622498,523.870117 183.734039,522.934448 180.641129,523.165894 
	C170.186600,523.948425 159.722305,524.634033 149.251389,525.143738 
	C146.123489,525.296021 144.436264,526.385071 143.570465,529.490723 
	C142.054108,534.929932 139.964005,540.222778 139.135193,545.835571 
	C138.275864,551.655090 139.990814,553.841614 145.706451,554.719604 
	C147.677811,555.022278 149.666718,555.256470 151.607788,555.697327 
	C153.383011,556.100769 153.795288,557.601074 153.823608,559.182861 
	C153.856750,561.034241 152.685135,561.957336 151.022720,562.069885 
	C140.063583,562.812134 129.101044,563.506592 118.136383,564.162292 
	C116.554070,564.256897 115.094086,563.823364 114.819557,561.892578 
	C114.604874,560.382629 114.366333,558.475952 116.003441,557.897766 
	C127.010139,554.010986 128.841171,544.024597 131.929840,534.703125 
	C141.873566,504.693481 151.982056,474.738373 162.013733,444.757812 
	C163.122925,441.442902 164.134445,438.095428 165.213852,434.770386 
	C165.972061,432.434845 167.068130,430.551086 169.961853,430.395996 
	C172.916855,430.237610 174.050659,432.244110 175.093811,434.359619 
	C183.342728,451.088654 191.553833,467.836334 199.789612,484.571838 
	C208.100082,501.459198 216.294296,518.405762 224.810867,535.188599 
	C228.086075,541.642761 231.092728,548.659973 239.506866,550.373657 
	C241.212814,550.721130 241.547592,552.414124 241.409393,554.026123 
	C241.240509,555.996033 239.731689,556.374084 238.194366,556.482788 
	C230.054993,557.057983 221.911346,557.572876 213.769547,558.113953 
	C204.635452,558.720947 195.501694,559.333008 186.367905,559.944519 
	C185.036438,560.033630 183.698776,560.182129 182.208191,559.130615 
M152.125549,502.496765 
	C150.895126,506.891205 148.826599,511.082031 148.432571,516.286438 
	C159.216248,515.625244 169.505829,514.994324 180.712158,514.307190 
	C174.225098,500.704285 168.186600,488.042023 161.713440,474.468262 
	C157.394012,483.929291 155.138794,492.922943 152.125549,502.496765 
z"/>
<path fill="#000000" opacity="1.000000" stroke="none" 
	d="
M542.532227,536.640015 
	C553.870239,531.057007 559.726807,521.295837 564.798035,510.783295 
	C566.015137,508.260254 565.898621,503.627655 570.627502,504.883942 
	C575.675293,506.224915 573.269043,510.346191 572.774414,513.243042 
	C571.123230,522.912170 568.879028,532.481750 567.304443,542.161438 
	C566.482117,547.216248 564.607300,548.682068 559.154907,548.606934 
	C527.833557,548.175293 496.503937,548.346863 465.177094,548.313965 
	C463.844330,548.312561 462.511536,548.319885 461.178833,548.309448 
	C459.413391,548.295593 458.327271,547.427124 458.153809,545.658447 
	C457.988068,543.968262 458.735168,542.651306 460.382080,542.196960 
	C462.623901,541.578491 464.931274,541.200623 467.203796,540.689697 
	C471.456512,539.733521 473.940002,537.314636 473.927216,532.710571 
	C473.840210,501.383636 473.831207,470.056366 473.659119,438.729950 
	C473.624420,432.412292 471.081879,429.800232 464.814758,428.621460 
	C463.346863,428.345337 461.830048,428.336639 460.354370,428.092438 
	C458.606140,427.803101 457.866455,426.622437 457.798767,424.912109 
	C457.730743,423.193085 458.384583,421.938202 460.125946,421.586792 
	C461.584961,421.292358 463.089844,421.087036 464.575195,421.082184 
	C482.404877,421.023987 500.234680,421.008972 518.064453,420.990021 
	C518.896240,420.989136 519.732544,421.014862 520.559082,421.101440 
	C522.640808,421.319397 523.992676,422.358490 524.087036,424.569916 
	C524.184021,426.844879 522.850647,427.859955 520.752625,428.129089 
	C519.103149,428.340729 517.441772,428.495789 515.810181,428.805054 
	C507.559052,430.369049 505.384308,432.810181 505.336823,441.235596 
	C505.224030,461.231262 505.235504,481.227661 505.219940,501.223785 
	C505.212555,510.721893 505.189026,520.220825 505.301849,529.717957 
	C505.389099,537.060730 507.912720,539.811829 515.162292,539.970337 
	C524.292053,540.169861 533.539856,540.902527 542.532227,536.640015 
z"/>
</svg>