<svg xmlns="http://www.w3.org/2000/svg" xml:space="preserve" viewBox="0 0 1024 1024"><path d="M588.541 535.063c2.498-32.493 2.05-64.645 2.53-96.776.08-5.296-2.345-8.057-7.341-8.951-1.801-.323-3.615-.59-5.396-1.003-1.692-.392-2.505-1.556-2.354-3.304.15-1.752 1.214-2.827 2.883-2.902 3.323-.148 6.658-.16 9.984-.08 25.635.613 51.269 1.249 76.902 1.918 3.489.09 6.997.77 10.452.533 5.693-.39 6.528 2.371 6.27 7.29-.452 8.64-.2 17.318-.327 25.979-.033 2.223.547 5.035-2.834 5.467-3.563.455-3.833-2.428-4.472-4.822-.429-1.608-.762-3.243-1.218-4.843-3.852-13.521-12.677-20.517-26.78-21.32-4.65-.265-9.29-.826-13.942-.932-7.845-.179-10.073 1.885-10.422 9.853-.3 6.82-.2 13.657-.296 20.486-.061 4.33.152 8.695-.326 12.981-.468 4.201.843 5.542 5.09 5.442 11.68-.275 17.733-4.707 21.024-16.052.324-1.118.55-2.264.899-3.373.79-2.522.327-6.342 4.587-5.773 4.287.572 2.897 4.132 2.853 6.767-.282 16.816-.624 33.631-.947 50.446-.013.667-.052 1.333-.051 1.999.004 2.386-.506 4.314-3.46 4.459-2.749.135-3.282-1.753-3.652-3.813-.56-3.11-.98-6.247-1.636-9.336-2.643-12.438-11.69-15.814-21.81-16.914-2.634-.286-3.528 1.34-3.579 3.677-.296 13.65-.717 27.299-.824 40.95-.043 5.391 2.863 8.307 8.346 8.654 8.483.538 17.054.862 25.351-1.28 11.905-3.071 19.862-11.051 25.32-21.775.832-1.633 1.614-3.29 2.388-4.95 1.08-2.316 2.755-3.286 5.248-2.307 2.439.959 2.372 2.966 1.925 5.024-1.589 7.313-3.235 14.615-4.83 21.928-3.38 15.49-.593 13.033-15.96 12.69-29.625-.663-59.23-2.126-88.873-2.053a32 32 0 0 1-1.997-.067c-2.361-.143-4.351-.75-4.305-3.687.041-2.635 1.872-3.17 4.014-3.499 4.58-.703 9.511-.847 11.566-6.731M847.09 554.026c7.889 2.503 15.431 3.096 22.762-.347 11.214-5.269 13.935-20.075 5.417-29.117-7.353-7.805-17.228-11.826-26.197-17.19-6.283-3.756-12.602-7.372-18.118-12.311-11.888-10.644-14.57-23.889-10.768-38.644 3.675-14.264 13.637-22.301 27.66-25.858 11.295-2.864 22.075-1.58 32.554 3.288 2.563 1.19 5.18 2.28 7.823 3.278 3.343 1.262 6.303.95 7.972-2.7 1.11-2.426 2.94-2.996 5.318-2.423 2.601.626 2.657 2.77 2.545 4.774-.619 11.132-1.308 22.261-2.008 33.39-.147 2.346-.847 4.238-3.777 4.27-2.64.03-3.886-1.252-4.426-3.742-1.861-8.581-5.005-16.6-11.129-23.109-7.553-8.029-16.536-12.248-27.78-9.615-7.114 1.667-11.811 5.978-13.281 13.283-1.383 6.872 1 12.529 6.392 16.784 7.745 6.114 16.593 10.49 25.091 15.405 7.498 4.337 15.268 8.328 21.285 14.721 18.912 20.097 10.026 53.803-16.617 63.227-14.042 4.967-27.833 3.439-41.436-1.83-2.481-.96-4.956-1.95-7.375-3.057-3.652-1.67-6.776-1.702-8.848 2.384-1.06 2.089-2.783 2.724-5.005 2.202-2.428-.57-2.395-2.517-2.309-4.355.626-13.296 1.298-26.59 1.958-39.885.103-2.075.947-3.576 3.228-3.68 2.037-.093 3.618.78 4.185 2.82.489 1.756.691 3.59 1.074 5.379 3.054 14.268 8.864 26.554 23.81 32.658M324.076 429.23c.62 10.424 1.532 20.38 1.157 30.384-.084 2.225.636 4.966-2.73 5.54-3.097.528-4.3-1.223-5.258-3.971-2.482-7.124-6.128-13.62-11.202-19.31-8.308-9.321-20.44-12.624-32.138-8.538-5.8 2.026-9.635 5.85-10.61 12.057-1.045 6.651.087 12.604 5.913 16.925 6.625 4.913 14.24 7.906 21.647 11.304 6.656 3.054 13.432 5.87 19.949 9.195 14.655 7.48 22.952 19.354 22.06 36.07-.944 17.673-10.853 29.24-27.23 35.25-12.757 4.68-25.741 4.505-38.74.81-2.398-.683-4.858-1.184-7.202-2.017-3.596-1.277-6.168-.53-7.638 3.177-.943 2.38-2.78 3.204-5.224 2.697-2.327-.482-2.58-2.429-2.69-4.255a4218 4218 0 0 1-2.11-37.379c-.131-2.554.048-5.251 3.467-5.645 3.204-.368 4.413 1.892 5.07 4.447 2.492 9.685 6.311 18.619 14.19 25.247 9.495 7.99 20.194 10.605 32.144 6.714 7.072-2.303 11.65-7.145 12.714-14.599 1.132-7.928-1.483-14.37-8.54-18.765-8.674-5.401-18.208-8.913-27.564-12.82-5.23-2.184-10.313-4.625-15.04-7.771-13.543-9.014-18.409-21.941-16.254-37.582 2.314-16.798 12.883-26.592 28.622-31.02 10.322-2.903 20.734-2.551 30.9 1.377 2.623 1.014 5.397 1.657 8.13 2.36 2.45.632 4.474-.36 5.337-2.582 1.122-2.889 2.364-5.455 5.97-4.487 3.492.937 2.261 4.326 2.9 7.188M441.821 421.896c6.907.102 7.207.408 7.44 6.775.304 8.32.745 16.637.885 24.96.045 2.719 1.57 6.598-2.83 7.405-4.549.833-4.245-3.353-5.011-5.968-2.912-9.938-7.2-18.69-17.751-22.613-4.12-1.532-8.423-1.815-12.733-2.13-2.558-.187-3.724 1.03-3.544 3.56 1.416 19.96.202 39.985 1.37 59.943.671 11.494.37 22.984.608 34.473.213 10.324 2.126 12.47 12.336 13.613 1.313.147 2.64.398 3.889.817 1.74.585 1.942 2.136 1.868 3.696-.076 1.589-1.108 2.344-2.566 2.583-.654.107-1.327.119-1.992.132q-28.23.56-56.461 1.106a34 34 0 0 1-2.498-.058c-1.764-.097-2.73-1.035-2.89-2.804-.165-1.818.79-2.86 2.433-3.24 2.432-.56 4.907-.932 7.342-1.484 5.664-1.283 8.098-4.198 7.652-9.894-1.015-12.98-.501-25.976-.621-38.963-.18-19.49-.876-38.957-1.82-58.421-.167-3.457-1.6-4.17-4.712-3.863-16.117 1.593-24.293 8.73-27.894 24.555-.443 1.947-.786 3.93-1.408 5.818s-2.282 2.24-4.07 2.14c-1.993-.11-2.999-1.19-3.143-3.158-.803-10.986.214-21.963.169-32.946-.014-3.38 2.778-3.109 5.11-3.279 17.614-1.285 35.267-1.319 52.91-1.687 15.82-.33 31.638-.705 47.932-1.068M768.15 488.725c7.61-11.726 15.051-23.18 22.419-34.68 1.252-1.956 2.326-4.055 3.239-6.192 2.567-6.011.429-10.105-5.912-11.525a58 58 0 0 0-4.417-.835c-2.059-.296-3.512-1.107-3.305-3.493.222-2.537 1.82-3.298 4.137-3.251 4.331.088 8.668.005 12.996.172 6.82.265 13.636.655 20.451 1.04 2.198.124 4.466.229 4.59 3.337.113 2.831-1.58 3.744-3.995 4.088-4.242.602-7.346 2.972-9.668 6.455a40523 40523 0 0 0-35.446 53.242c-1.107 1.667-1.892 3.446-1.956 5.568-.337 11.319-.896 22.633-1.131 33.953-.168 8.091 2.085 10.636 10.083 12.18 2.486.48 5.283.534 5.044 4.138-.256 3.862-3.343 3.204-5.66 3.04-16.784-1.185-33.588-1.787-50.407-2.077-1.659-.028-3.31-.367-4.97-.518-1.938-.177-3.146-1.072-3.086-3.143.056-1.982 1.238-2.997 3.115-3.285 2.466-.379 4.942-.695 7.401-1.11 4.393-.74 6.771-3.483 7.072-7.813.716-10.304 1.532-20.62 1.16-30.952-.2-5.507-3.72-9.902-6.063-14.637-8.341-16.868-16.831-33.662-25.272-50.48-2.336-4.654-5.682-8.208-10.834-9.71-2.324-.679-3.275-2.178-2.804-4.515.486-2.408 2.363-2.445 4.28-2.378 16.48.568 32.96 1.128 49.44 1.698.999.035 2.014.034 2.989.217 2.315.437 5.485-.098 5.247 3.756-.229 3.701-3.181 3.162-5.616 3.301-1.164.067-2.342-.019-3.496.12-4.67.562-6.769 3.447-4.83 7.631 7.14 15.409 14.554 30.69 21.886 46.008.664 1.387 1.381 3.044 3.32.65M182.208 559.13c-1.793-3.642-.29-5.154 2.924-5.989 11.646-3.025 12.158-4.15 7.101-15.065-1.75-3.776-3.78-7.43-5.382-11.265-1.229-2.94-3.117-3.877-6.21-3.645-10.454.782-20.919 1.468-31.39 1.978-3.128.152-4.815 1.241-5.68 4.347-1.517 5.439-3.607 10.732-4.436 16.345-.86 5.82.856 8.006 6.571 8.884 1.972.302 3.96.536 5.902.977 1.775.404 2.187 1.904 2.216 3.486.033 1.851-1.139 2.774-2.801 2.887a4174 4174 0 0 1-32.887 2.092c-1.582.095-3.042-.339-3.316-2.27-.215-1.51-.454-3.416 1.183-3.994 11.007-3.887 12.838-13.873 15.927-23.195 9.944-30.01 20.052-59.965 30.084-89.945 1.109-3.315 2.12-6.663 3.2-9.988.758-2.335 1.854-4.219 4.748-4.374 2.955-.158 4.089 1.848 5.132 3.964 8.249 16.729 16.46 33.476 24.696 50.212 8.31 16.887 16.504 33.834 25.02 50.617 3.276 6.454 6.283 13.471 14.697 15.185 1.706.347 2.04 2.04 1.902 3.652-.168 1.97-1.677 2.348-3.215 2.457-8.139.575-16.283 1.09-24.424 1.631q-13.702.912-27.402 1.83c-1.332.09-2.67.238-4.16-.813m-30.082-56.634c-1.23 4.394-3.3 8.585-3.693 13.79l32.28-1.98-19-39.839c-4.319 9.461-6.574 18.455-9.587 28.029"/><path d="M542.532 536.64c11.338-5.583 17.195-15.344 22.266-25.857 1.217-2.523 1.1-7.155 5.83-5.9 5.047 1.342 2.641 5.463 2.146 8.36-1.65 9.67-3.895 19.239-5.47 28.918-.822 5.055-2.697 6.521-8.15 6.446-31.32-.432-62.65-.26-93.977-.293-1.333-.001-2.665.006-3.998-.005-1.766-.013-2.852-.882-3.025-2.65-.166-1.69.581-3.008 2.228-3.462 2.242-.619 4.55-.996 6.822-1.507 4.253-.956 6.736-3.375 6.723-7.98-.087-31.326-.096-62.654-.268-93.98-.035-6.318-2.577-8.93-8.844-10.109-1.468-.276-2.985-.284-4.46-.529-1.749-.289-2.489-1.47-2.556-3.18-.068-1.719.586-2.974 2.327-3.325 1.459-.295 2.964-.5 4.45-.505 17.829-.058 35.659-.073 53.488-.092.832 0 1.669.025 2.495.111 2.082.218 3.434 1.257 3.528 3.469.097 2.275-1.236 3.29-3.334 3.56-1.65.21-3.311.366-4.943.675-8.25 1.564-10.426 4.005-10.473 12.43-.113 19.996-.101 39.993-.117 59.989-.007 9.498-.031 18.997.082 28.494.087 7.343 2.61 10.094 9.86 10.252 9.13.2 18.378.933 27.37-3.33"/></svg>