<svg xmlns="http://www.w3.org/2000/svg" xml:space="preserve" viewBox="0 0 1024 736"><path d="M268.753 274.095c-3.293-1.492-8.655.145-7.827-5.856.82-5.954 5.72-3.41 8.776-3.465 14.491-.265 28.99-.121 43.486-.03 6.403.04 12.562 1.316 18.356 4.18 8.074 3.991 13.03 10.147 13.725 19.362.749 9.913-3.292 17.433-11.4 22.93-.687.466-1.457.808-2.166 1.244-.558.343-1.082.741-1.604 1.103.257 1.65 1.644 1.662 2.64 1.96 11.076 3.317 17.572 10.787 18.88 22.126 1.28 11.096-2.947 20.256-11.947 26.963-7.897 5.886-17.1 8.309-26.73 8.487-15.656.29-31.323.039-46.986-.018-2.284-.008-4.876.403-5.125-3.14-.22-3.157 1.538-4.386 4.262-5.153 7.011-1.976 7.644-2.764 7.659-10.076.05-24.16.023-48.321.02-72.482 0-3.213.069-6.471-4.019-8.135m60.835 70.065c-.017-13.384-5.219-20.293-17.755-22.517-4.861-.863-9.945-.494-14.93-.634-2.421-.067-3.675 1.086-3.664 3.622.043 10.652.025 21.304.057 31.956.009 2.806 1.324 4.585 4.067 5.577 14.764 5.342 28.9-2.168 32.225-18.004m-6.968-59.981c-4.637-7.833-17.927-12.574-26.757-9.657-2.503.827-2.627 2.68-2.626 4.749.001 7.161-.09 14.324.013 21.484.157 10.836-1.898 10.18 10.194 9.977 16.34-.274 23.567-9.98 19.176-26.553M680.092 264.703c12.808-.013 25.13.03 37.452-.053 6.243-.041 12.273.976 18.093 3.17 9.42 3.553 15.811 10.007 17.422 20.112 1.746 10.958-1.367 20.485-10.255 27.604-2.19 1.753-4.74 3.076-7.2 4.463-1.906 1.075-2.781 2.252-1.411 4.373 7.408 11.462 14.286 23.283 22.82 33.982 2.673 3.352 6.348 5.363 10.428 6.536 2.918.838 4.078 2.66 3.617 5.583-.49 3.11-2.965 2.682-5.06 2.67-6.16-.037-12.322-.312-18.48-.23-4.13.056-6.712-1.675-8.82-5.205-7.167-12.003-14.585-23.858-21.927-35.756-.785-1.271-1.56-2.6-2.592-3.656-2.688-2.748-6.236-2.428-9.37-1.56-2.686.745-1.592 3.695-1.622 5.701-.114 7.825.237 15.666-.141 23.474-.267 5.507 2.233 8.057 7.24 8.718 3.192.422 5.4 1.363 5.035 5.239-.369 3.915-3.266 3.17-5.59 3.182-10.99.06-21.98.02-32.97-.047-2.272-.014-4.855.34-5.137-3.177-.245-3.053.99-4.702 4.017-5.158 5.395-.812 7.264-3.931 7.213-9.396-.23-24.476-.185-48.956-.07-73.434.021-4.708-1.469-7.745-6.362-8.49-2.852-.435-5.821-.57-5.473-4.79.383-4.633 3.763-3.75 6.66-3.846.664-.022 1.331-.005 2.483-.009m23.062 36.791c.001 1.828.006 3.656.004 5.484-.01 10.456-.01 10.456 10.427 8.978 13.281-1.88 20.017-11.211 17.954-24.87-1.757-11.629-11.176-17.922-23.844-16.19-3.317.453-4.568 1.875-4.51 5.163.12 6.81-.006 13.625-.031 21.435M531.874 329.15c6.873 8.4 13.566 16.487 20.139 24.672 4.263 5.309 9.037 9.835 15.916 11.42 2.86.659 3.74 2.426 3.364 5.137-.399 2.873-2.623 2.608-4.58 2.614-12.832.044-25.665.048-38.497.04-2.033-.001-4.108.02-4.442-2.814-.333-2.831.802-4.38 3.634-4.903 3.927-.726 6.083-2.817 3.131-6.52-9.241-11.59-18.71-23-28.124-34.452-.372-.453-1.093-.62-1.577-.879-2.093 1.2-1.46 3.058-1.47 4.594-.069 9.332.05 18.666-.07 27.997-.063 4.92 1.842 7.984 6.917 8.68 2.931.402 5.107 1.494 4.88 5.038-.242 3.775-2.987 3.388-5.469 3.389-10.999.006-21.998-.02-32.998-.044-2.389-.005-4.768.116-4.973-3.353-.184-3.117 1.155-4.737 4.172-5.003 5.473-.484 7.105-3.676 7.081-8.838-.116-24.998-.083-49.997.051-74.995.026-4.8-2.137-7.2-6.667-7.552-3.236-.251-4.785-1.475-4.658-4.971.137-3.774 2.538-3.678 5.144-3.68 11.166-.011 22.332-.023 33.497-.082 2.56-.014 4.656.292 4.87 3.549.201 3.073-1.045 4.508-4.133 5.014-6.8 1.113-7.694 2.299-7.709 9.15-.021 10.101-.005 20.203-.005 30.158 1.853.467 2.398-.576 3.015-1.238 9.66-10.357 19.338-20.697 28.882-31.16 3.674-4.028 3.076-5.884-2.157-6.978-2.874-.6-4.503-1.637-4.321-4.88.213-3.805 2.847-3.487 5.356-3.491 10-.017 20-.043 29.999.015 2.187.013 4.884-.724 5.226 2.936.297 3.181-.667 4.985-4.08 5.542-6.127 1-11.12 4.126-15.391 8.644-8.238 8.716-16.553 17.361-24.989 25.883-2.625 2.653-2.908 4.702-.31 7.583 3.902 4.325 7.43 8.987 11.346 13.777M586.11 329.454c.788-16.765-.29-33.074-.138-49.385.045-4.847-2.936-6.314-6.932-6.797-2.933-.354-5.225-1.109-4.95-4.798.29-3.903 3.018-3.721 5.772-3.72 23.163.003 46.327.05 69.489-.09 3.65-.021 5.13 1.244 5.2 4.846.113 5.824.478 11.643.744 17.464.093 2.03-.348 3.705-2.75 3.96-2.185.233-4.414.476-5.584-2.069-.139-.301-.285-.612-.35-.934-2.165-10.741-9.462-13.398-19.303-12.673-5.468.402-10.995.13-16.49-.016-3.087-.081-4.574.87-4.521 4.255.147 9.33.127 18.664 0 27.994-.044 3.204 1.134 4.563 4.371 4.455 4.329-.145 8.665-.03 12.997-.07 8.862-.083 9.78-.786 11.98-9.343.378-1.475.548-2.942 2.21-3.621 3.248-1.327 6.131.322 6.178 3.889.124 9.496.016 18.996.068 28.494.015 2.84-1.172 4.27-4.071 4.527-2.9.256-4.071-.888-4.688-3.747-2.037-9.443-2.653-9.814-12.339-9.84-4.332-.013-8.666.043-12.997-.025-2.504-.04-3.663 1.023-3.647 3.565.062 10.33.027 20.66.119 30.99.028 3.217 1.386 5.282 5.038 5.498 7.826.463 15.64.46 23.47.125 9.446-.403 14.604-6.232 18.327-14.053 1.299-2.73 2.533-5.543 6.584-4.605 2.737.633 4.226 1.756 3.365 4.795-1.997 7.048-3.996 14.095-5.897 21.169-.692 2.577-2.348 3.352-4.803 3.353-24.83.005-49.659.048-74.488.074-2.096.003-4.077-.132-4.304-2.952-.213-2.658.552-4.384 3.409-5.189 8.745-2.464 8.778-2.63 8.804-11.578.023-7.832.073-15.664.127-23.948M371.006 373.077c-4.163-.014-7.828-.002-11.492-.05-1.806-.025-3.361-.555-3.536-2.697-.154-1.887-.091-4.13 2.09-4.558 9.499-1.861 11.895-9.583 14.785-17.116 10.195-26.578 20.515-53.108 31.147-79.517 2.137-5.309 5.663-5.86 10.076-5.882 3.155-.015 3.383 2.878 4.13 4.93 7.065 19.393 14.022 38.825 21.042 58.234 3.566 9.86 7.336 19.649 10.743 29.563 1.613 4.69 4.368 7.732 9.256 8.746 2.898.602 5.056 1.896 4.596 5.344-.5 3.742-3.491 2.949-5.838 2.962-11.16.064-22.321.038-33.482.008-2.317-.007-4.923.277-5.26-3.103-.304-3.07 1.294-4.392 4.195-5.072 6.465-1.516 7.016-2.696 4.953-9.034-1.39-4.273-2.864-8.52-4.186-12.815-.868-2.82-2.622-3.895-5.56-3.851-8.66.129-17.324.134-25.984.037-2.75-.03-4.391 1.027-5.217 3.603-1.525 4.755-3.053 9.51-4.68 14.229-1.523 4.415.35 6.62 4.571 7.463 1.303.26 2.621.5 3.884.9 2.546.806 2.31 2.924 2.172 4.947-.146 2.132-1.532 2.78-3.417 2.777-6.163-.011-12.326-.03-18.988-.048m24.532-52.121c-.398 2.35-2.152 4.412-1.76 7.184h25.208l-12.706-35.968c-3.857 10.342-7.161 19.201-10.742 28.784M388.738 470.585c.593-3.851 1.117-7.3 1.72-10.734.279-1.589 1.042-2.827 2.896-2.882 2.072-.062 2.96 1.209 3.312 3.026.189.978.332 1.967.472 2.955.996 7.068 3.719 10.601 9.012 11.684 6.925 1.416 13.04-.84 16.258-5.998 2.966-4.755 2.61-10.862-1.586-15.737-3.019-3.507-6.695-6.448-10.086-9.634-6.557-6.161-9.816-13.388-7.025-22.436 2.746-8.905 9.312-13.417 18.05-15.31 6.96-1.509 13.545.068 19.998 2.522 2.487.945 3.605 2.533 2.816 5.447-.82 3.031-1.013 6.226-1.65 9.314-.373 1.805-.979 3.578-3.452 3.514-2.596-.067-2.636-1.932-2.975-3.779-1.648-8.99-3.855-11.353-10.417-11.365-4.728-.009-8.485 1.837-10.63 6.113-2.29 4.564-1.852 9.213 1.261 13.173 2.554 3.249 5.554 6.207 8.658 8.955 10.845 9.6 12.586 17.447 8.11 27.682-4.58 10.466-16.768 15.94-29.459 13.88-3.75-.608-7.417-1.813-11.072-2.91-3.467-1.04-5.434-3.153-4.21-7.48M570.224 439.244c4.436-4.817 9.514-7.753 15.648-8.867 6.044-1.097 10.783.444 12.78 4.28 2.221 4.272 1.186 10.251-2.785 14.276-5.578 5.653-12.822 8.165-20.26 10.195-5.119 1.398-6.242 3.172-5.056 8.24 1.045 4.466 4.357 6.338 9.176 5.03 3.426-.929 6.34-2.904 9.164-4.979 1.524-1.12 2.948-1.562 4.369.086 1.618 1.877.161 2.993-1.051 4.15-3.654 3.49-7.775 6.248-12.544 7.99-12.76 4.66-22.12-2.886-20.49-16.463 1.086-9.057 4.742-16.91 11.05-23.938m2.03 12.547c-.18 1.096-.762 2.714 1.317 2.069 5.555-1.726 11.12-3.632 14.307-9.038 1.408-2.388 3.114-5.27.26-7.624-2.65-2.185-5.327-.62-7.64 1.157-4.259 3.27-6.276 7.99-8.244 13.436M533.202 480.554c-10.032 1.407-15.37-2.596-16.669-12.103-2.01-14.707 9.582-33.274 23.44-37.386 2.047-.608 4.25-1.046 6.366-.998 8.7.195 12.751 6.862 9.206 14.84-1.939 4.363-5.585 6.932-9.527 9.172a44 44 0 0 1-14.014 5.067c-4.132.74-5.117 3.115-4.637 6.747.505 3.819 2 6.747 6.435 6.844 4.249.094 7.585-2.12 10.904-4.39 1.696-1.159 3.516-3.382 5.504-.746 2 2.651-.854 3.866-2.257 5.168-4.085 3.793-8.894 6.379-14.75 7.785m10.209-33.787c.455-.696 1-1.35 1.349-2.096 1.236-2.64 2.384-5.66-.383-7.705-2.51-1.855-5.123-.167-7.204 1.62-4.582 3.937-6.835 9.072-8.08 15.66 5.748-1.333 10.041-3.598 14.318-7.479M605.945 466.224c2.549-9.334 4.997-18.258 7.536-27.51-1.553-.214-2.506-.385-3.466-.469-1.651-.144-3.57.078-3.37-2.495.157-2.017 1.13-4.024 3.2-3.772 6.187.756 6.452-3.803 7.524-7.742 1.7-6.247 4.209-7.681 11.038-6.116.57 4.493-2.624 8.44-2.33 12.926 2.42 1.065 4.781.368 7.062.608 1.464.155 3.303-.017 3.373 2.066.063 1.891-.635 3.637-2.672 4.34-.61.211-1.315.16-1.977.212-8.554.675-8.566.67-10.87 9.064a2142 2142 0 0 0-5.202 19.255c-.416 1.572-1.18 3.427.452 4.622 1.692 1.24 3.143-.19 4.465-1.133 1.487-1.062 2.867-2.271 4.302-3.406 1.241-.98 2.434-.921 3.544.223 1.27 1.308 1.342 2.701-.021 3.913-3.97 3.529-7.693 7.446-12.905 9.206-7.383 2.493-11.798-1.226-10.712-8.992.207-1.478.614-2.928 1.029-4.8M453.148 446.256c.476-2.622 1.927-4.71 1.08-7.356-.71-.193-1.469-.472-2.253-.597-1.732-.276-4.074.155-3.903-2.613.137-2.225 1.562-3.936 3.899-3.69 5.424.57 6.042-3.22 7.074-7.016 1.982-7.289 4.464-8.768 11.387-6.991.097 4.442-2.779 8.392-2.63 12.88 2.275 1.508 4.657.646 6.904.85 1.638.149 3.614-.107 3.63 2.326.013 2.173-.799 3.927-3.354 4.137-.33.027-.665.02-.996.047-8.82.712-8.909.687-11.452 9.383-1.818 6.216-3.427 12.497-4.977 18.786-.411 1.67-1.208 3.822.832 4.967 1.739.975 3.122-.542 4.416-1.523 1.322-1.001 2.551-2.128 3.794-3.23 1.402-1.242 2.705-1.044 3.933.226 1.375 1.423.853 2.712-.372 3.882-4.225 4.034-8.546 7.973-14.355 9.59-6.185 1.72-10.376-1.798-9.423-8.143 1.31-8.728 4.315-17.05 6.766-25.915M502.385 445.365c-5.836 8.318-9.508 17.127-11.288 26.79-1.408 7.644-2.992 8.444-11.559 6.245 2.623-12.855 7.427-25.239 9.799-38.485-3.236-.264-4.231 1.951-5.645 3.374-1.26 1.268-2.474 2.508-4.235 1.104-2.117-1.686-.753-3.277.492-4.654 2.903-3.209 5.749-6.5 9.788-8.4 2.34-1.1 4.707-1.988 7.013-.067 2.165 1.804 2.395 4.29 1.945 6.853-.286 1.627-.808 3.213-1.59 6.228 2.494-3.487 4.198-5.897 5.932-8.286 1.795-2.471 3.98-4.477 6.894-5.563 3.09-1.152 5.619-.343 7.346 2.42 1.67 2.671 1.53 5.408-.462 7.895-2.065 2.579-4.393 2.433-7.018.69-4.311-2.862-5.241 1.475-7.412 3.856"/></svg>