<svg version="1.1" id="Layer_1" xmlns="http://www.w3.org/2000/svg" xmlns:xlink="http://www.w3.org/1999/xlink" x="0px" y="0px"
	 width="100%" viewBox="0 0 1024 736" enable-background="new 0 0 1024 736" xml:space="preserve">
<path fill="#000000" opacity="1.000000" stroke="none" 
	d="
M268.753052,274.094910 
	C265.460358,272.602844 260.098328,274.239655 260.925659,268.238678 
	C261.746460,262.284851 266.646423,264.829407 269.702332,264.773682 
	C284.193024,264.509460 298.692230,264.652588 313.187836,264.743958 
	C319.590576,264.784302 325.749969,266.060364 331.543610,268.924133 
	C339.618195,272.915375 344.573608,279.071472 345.269226,288.285919 
	C346.017609,298.199249 341.976929,305.719086 333.868500,311.216125 
	C333.181549,311.681824 332.412201,312.024078 331.703156,312.459625 
	C331.144928,312.802551 330.620789,313.200958 330.098999,313.562561 
	C330.356293,315.213531 331.743042,315.224640 332.739838,315.523102 
	C343.815125,318.839691 350.310944,326.310455 351.618835,337.649353 
	C352.898682,348.745087 348.671875,357.904968 339.671844,364.612488 
	C331.775238,370.497620 322.571167,372.920990 312.942322,373.099030 
	C297.285736,373.388672 281.618805,373.137787 265.956421,373.080872 
	C263.671997,373.072571 261.079926,373.483612 260.831451,369.940094 
	C260.610107,366.783905 262.369476,365.555328 265.092560,364.787903 
	C272.104492,362.811646 272.736542,362.024139 272.751556,354.711731 
	C272.801117,330.551361 272.774933,306.390839 272.772461,282.230377 
	C272.772125,279.017426 272.840515,275.758820 268.753052,274.094910 
M329.587738,344.159607 
	C329.570648,330.776459 324.369324,323.867218 311.833466,321.642914 
	C306.971710,320.780304 301.887512,321.148895 296.903137,321.009430 
	C294.481750,320.941681 293.228119,322.095032 293.238556,324.631134 
	C293.282410,335.282837 293.264099,345.934753 293.296387,356.586517 
	C293.304901,359.392700 294.620026,361.171906 297.362640,362.164215 
	C312.127045,367.506195 326.262054,359.995850 329.587738,344.159607 
M322.620209,284.178864 
	C317.982697,276.346313 304.693146,271.605225 295.863190,274.522064 
	C293.359802,275.349030 293.236328,277.201538 293.236725,279.270844 
	C293.238098,286.432312 293.146515,293.595032 293.250183,300.754944 
	C293.407104,311.591003 291.351501,310.935303 303.443909,310.732300 
	C319.784088,310.458008 327.010529,300.751251 322.620209,284.178864 
z"/>
<path fill="#000000" opacity="1.000000" stroke="none" 
	d="
M680.091980,264.703003 
	C692.899963,264.690399 705.222656,264.732819 717.544495,264.650360 
	C723.787415,264.608582 729.817078,265.626038 735.636841,267.820770 
	C745.056519,271.373108 751.448364,277.827301 753.058716,287.932220 
	C754.804932,298.889893 751.692017,308.417084 742.803894,315.536194 
	C740.614929,317.289490 738.064209,318.612305 735.604431,319.999420 
	C733.698486,321.074249 732.822510,322.251312 734.192932,324.371796 
	C741.600647,335.833832 748.479126,347.654816 757.012573,358.354065 
	C759.685608,361.705536 763.360535,363.717163 767.441284,364.889709 
	C770.359375,365.728210 771.518860,367.550140 771.057800,370.473297 
	C770.567322,373.583313 768.092712,373.154816 765.998108,373.142517 
	C759.837646,373.106445 753.675903,372.830750 747.518250,372.913269 
	C743.388489,372.968628 740.805847,371.238373 738.697998,367.708252 
	C731.530762,355.704620 724.113220,343.850342 716.770569,331.951813 
	C715.986206,330.680786 715.211304,329.351227 714.179199,328.296143 
	C711.490784,325.547821 707.942505,325.868378 704.808105,326.736694 
	C702.122925,327.480560 703.216797,330.431488 703.187439,332.437469 
	C703.072876,340.262054 703.424255,348.103027 703.045654,355.910919 
	C702.778625,361.417511 705.279419,363.968353 710.286560,364.629333 
	C713.477600,365.050629 715.686340,365.992249 715.321045,369.867615 
	C714.952148,373.782562 712.055176,373.037689 709.730408,373.050323 
	C698.740662,373.110107 687.750122,373.070770 676.760254,373.002808 
	C674.488892,372.988770 671.906128,373.342590 671.623718,369.825531 
	C671.378723,366.773346 672.614441,365.123962 675.640503,364.668488 
	C681.036255,363.856323 682.904785,360.736908 682.853516,355.271637 
	C682.623840,330.795502 682.669495,306.315857 682.783325,281.838257 
	C682.805176,277.129517 681.315125,274.093292 676.422058,273.347839 
	C673.570496,272.913391 670.601013,272.778503 670.949402,268.558411 
	C671.331909,263.925232 674.712280,264.808624 677.608154,264.712036 
	C678.273499,264.689819 678.940247,264.707214 680.091980,264.703003 
M703.153870,301.494263 
	C703.155396,303.322144 703.159607,305.150055 703.158020,306.977936 
	C703.148926,317.433502 703.148438,317.433502 713.584900,315.955902 
	C726.866333,314.075470 733.602478,304.744781 731.538757,291.086792 
	C729.781555,279.457428 720.363220,273.164490 707.694641,274.895599 
	C704.378357,275.348724 703.127136,276.771484 703.185181,280.058563 
	C703.305664,286.868958 703.178650,293.683746 703.153870,301.494263 
z"/>
<path fill="#000000" opacity="1.000000" stroke="none" 
	d="
M531.874390,329.149353 
	C538.746765,337.549866 545.439941,345.637329 552.012512,353.821625 
	C556.276306,359.131012 561.050232,363.656616 567.928528,365.241791 
	C570.788818,365.900940 571.669189,367.668121 571.292847,370.378693 
	C570.893982,373.251984 568.670349,372.986847 566.713562,372.993439 
	C553.881042,373.036743 541.048401,373.040741 528.215759,373.032959 
	C526.182922,373.031738 524.107849,373.053558 523.774414,370.219421 
	C523.441284,367.388031 524.576416,365.838776 527.407593,365.315552 
	C531.334961,364.589691 533.491211,362.499390 530.539062,358.796753 
	C521.297729,347.206116 511.829468,335.796326 502.415039,324.344452 
	C502.042572,323.891418 501.321503,323.724945 500.837799,323.465179 
	C498.744598,324.665161 499.378448,326.522644 499.367249,328.058685 
	C499.299164,337.391022 499.417175,346.725159 499.297577,356.056458 
	C499.234528,360.975952 501.140198,364.040192 506.214905,364.735901 
	C509.146088,365.137756 511.321503,366.230499 511.094421,369.774261 
	C510.852600,373.548828 508.108002,373.161743 505.626465,373.163025 
	C494.627075,373.168823 483.627716,373.143219 472.628326,373.119415 
	C470.239166,373.114258 467.859833,373.235138 467.655243,369.765991 
	C467.471375,366.648956 468.809662,365.028961 471.827087,364.762512 
	C477.300171,364.279205 478.932220,361.086670 478.908173,355.925171 
	C478.791626,330.927124 478.824646,305.927765 478.959351,280.929718 
	C478.985229,276.130859 476.822052,273.730255 472.292328,273.378296 
	C469.056122,273.126862 467.506683,271.902771 467.633667,268.406891 
	C467.770691,264.632843 470.171661,264.728973 472.777649,264.726440 
	C483.943573,264.715546 495.109619,264.703552 506.275360,264.644592 
	C508.834381,264.631073 510.931305,264.936920 511.144836,268.193542 
	C511.346313,271.266602 510.100067,272.702454 507.012024,273.207977 
	C500.212616,274.321106 499.317810,275.506592 499.303314,282.357544 
	C499.281921,292.459045 499.297791,302.560608 499.297791,312.515747 
	C501.150848,312.982910 501.695526,311.940277 502.312866,311.278320 
	C511.972076,300.920990 521.651367,290.581207 531.195129,280.117981 
	C534.869080,276.090057 534.271118,274.233643 529.037842,273.140076 
	C526.164368,272.539642 524.535278,271.502716 524.716858,268.260284 
	C524.929993,264.454895 527.563843,264.772858 530.073242,264.768677 
	C540.072754,264.752075 550.072388,264.726166 560.071594,264.784210 
	C562.258789,264.796906 564.956421,264.059937 565.298096,267.720428 
	C565.595032,270.901459 564.630676,272.705322 561.218811,273.262360 
	C555.090515,274.262848 550.097351,277.387878 545.826599,281.906372 
	C537.589050,290.621613 529.274353,299.267120 520.838013,307.789490 
	C518.212524,310.441772 517.930481,312.491486 520.528564,315.371826 
	C524.429810,319.696808 527.957581,324.358765 531.874390,329.149353 
z"/>
<path fill="#000000" opacity="1.000000" stroke="none" 
	d="
M586.109741,329.454407 
	C586.898132,312.688599 585.820007,296.380341 585.971985,280.069122 
	C586.017151,275.222046 583.035706,273.754852 579.040039,273.272186 
	C576.107422,272.917969 573.814636,272.162964 574.089722,268.473938 
	C574.380798,264.570892 577.107971,264.752625 579.862488,264.753052 
	C603.025391,264.756561 626.188721,264.803131 649.350891,264.664856 
	C653.000183,264.643036 654.481323,265.907959 654.551270,269.509552 
	C654.664246,275.333679 655.028931,281.152954 655.294800,286.973969 
	C655.387573,289.003845 654.947449,290.679291 652.545044,290.934753 
	C650.360413,291.167084 648.131104,291.409668 646.961060,288.865479 
	C646.822266,288.563751 646.676453,288.253326 646.611572,287.931305 
	C644.446411,277.189911 637.148987,274.532990 627.307861,275.257629 
	C621.839844,275.660248 616.312988,275.387299 610.817261,275.242065 
	C607.731445,275.160553 606.243530,276.111542 606.296814,279.496826 
	C606.443848,288.826263 606.424316,298.160706 606.296875,307.490814 
	C606.253174,310.695251 607.431213,312.054199 610.668457,311.945648 
	C614.996521,311.800568 619.332764,311.916779 623.665039,311.876190 
	C632.526855,311.793152 633.445129,311.090332 635.644348,302.532806 
	C636.023254,301.058380 636.192749,299.590668 637.854370,298.912048 
	C641.103210,297.585144 643.986450,299.233582 644.032959,302.800842 
	C644.156921,312.297394 644.049133,321.796753 644.100708,331.294647 
	C644.116150,334.135590 642.928894,335.565186 640.029724,335.821564 
	C637.129395,336.078064 635.959045,334.934296 635.342163,332.075500 
	C633.304688,322.632446 632.688904,322.261261 623.003418,322.234314 
	C618.670837,322.222260 614.337463,322.277771 610.005920,322.210022 
	C607.502258,322.170868 606.343323,323.233459 606.358765,325.774780 
	C606.421387,336.104858 606.386108,346.435669 606.477722,356.765381 
	C606.506226,359.982086 607.863953,362.047058 611.515991,362.263123 
	C619.342224,362.726074 627.155762,362.723145 634.985107,362.388458 
	C644.432068,361.984619 649.590393,356.155579 653.312561,348.334503 
	C654.611755,345.604675 655.845825,342.792389 659.897400,343.729950 
	C662.633850,344.363159 664.123474,345.486450 663.262207,348.525360 
	C661.264954,355.572632 659.266113,362.620117 657.365417,369.693756 
	C656.673096,372.270508 655.016968,373.046295 652.561768,373.046814 
	C627.732605,373.051910 602.903381,373.094604 578.074219,373.121307 
	C575.978271,373.123566 573.996521,372.988617 573.770203,370.169128 
	C573.556824,367.511475 574.322205,365.784943 577.178833,364.980103 
	C585.923523,362.516296 585.957275,362.350525 585.983215,353.401703 
	C586.005920,345.569641 586.055908,337.737671 586.109741,329.454407 
z"/>
<path fill="#000000" opacity="1.000000" stroke="none" 
	d="
M371.006256,373.077209 
	C366.843201,373.062775 363.178406,373.074738 359.514465,373.026093 
	C357.707764,373.002136 356.152679,372.472443 355.977997,370.330170 
	C355.824066,368.442719 355.886536,366.199463 358.067352,365.772125 
	C367.566681,363.910614 369.962830,356.189392 372.852783,348.655792 
	C383.048401,322.077515 393.367920,295.548492 404.000244,269.138855 
	C406.137390,263.830383 409.662842,263.278656 414.075806,263.257324 
	C417.231415,263.242035 417.459259,266.135071 418.206879,268.187378 
	C425.271179,287.580231 432.227631,307.012360 439.247986,326.421265 
	C442.814392,336.281097 446.583801,346.069885 449.991486,355.983612 
	C451.603882,360.674408 454.358978,363.716095 459.246704,364.730377 
	C462.145233,365.331909 464.302856,366.625946 463.842712,370.074463 
	C463.343414,373.816406 460.351929,373.022980 458.004547,373.036407 
	C446.844513,373.100311 435.683807,373.073578 424.523438,373.043549 
	C422.205688,373.037323 419.599762,373.321472 419.263947,369.941437 
	C418.958832,366.870392 420.556793,365.549042 423.458405,364.868774 
	C429.922668,363.353180 430.474182,362.172729 428.411163,355.835297 
	C427.020081,351.562042 425.546722,347.314514 424.225189,343.020111 
	C423.357178,340.199371 421.603333,339.125305 418.665192,339.169037 
	C410.005127,339.297913 401.341461,339.303162 392.680878,339.205994 
	C389.931061,339.175171 388.290039,340.232574 387.463562,342.809448 
	C385.938721,347.563690 384.411499,352.318512 382.783630,357.038025 
	C381.260956,361.452545 383.133118,363.657104 387.355286,364.500946 
	C388.658478,364.761414 389.976044,365.000519 391.239105,365.400604 
	C393.785065,366.207153 393.549164,368.324860 393.410614,370.348267 
	C393.264679,372.479523 391.878784,373.127899 389.994385,373.124634 
	C383.831207,373.113922 377.668060,373.094604 371.006256,373.077209 
M395.537537,320.955536 
	C395.140015,323.306396 393.385590,325.367981 393.777405,328.139893 
	C402.097778,328.139893 410.146545,328.139893 418.986481,328.139893 
	C414.774597,316.217682 410.754608,304.838715 406.279572,292.171631 
	C402.422729,302.513641 399.118835,311.373016 395.537537,320.955536 
z"/>
<path fill="#000000" opacity="1.000000" stroke="none" 
	d="
M388.738281,470.584778 
	C389.331207,466.734039 389.855194,463.285736 390.457916,459.851257 
	C390.736755,458.262329 391.500092,457.024139 393.354279,456.968964 
	C395.425507,456.907318 396.313843,458.177765 396.665527,459.994537 
	C396.854980,460.973480 396.998383,461.962158 397.137665,462.949951 
	C398.134247,470.018066 400.856506,473.551178 406.150085,474.634003 
	C413.074585,476.050446 419.190338,473.794189 422.408020,468.636047 
	C425.374176,463.881134 425.018768,457.774139 420.822235,452.899139 
	C417.803406,449.392242 414.126740,446.450745 410.736115,443.264923 
	C404.178986,437.103912 400.919891,429.877472 403.710541,420.829346 
	C406.457062,411.924316 413.022949,407.412262 421.760162,405.518707 
	C428.720398,404.010254 435.305664,405.587128 441.759491,408.040924 
	C444.245972,408.986298 445.363708,410.573700 444.575500,413.488007 
	C443.755707,416.519135 443.562317,419.714050 442.924408,422.802124 
	C442.551514,424.607269 441.946320,426.379730 439.473083,426.315948 
	C436.876984,426.248993 436.836548,424.384125 436.498016,422.536957 
	C434.850281,413.546509 432.643005,411.183929 426.081329,411.171997 
	C421.353027,411.163391 417.596436,413.008850 415.451263,417.284973 
	C413.161560,421.849121 413.599121,426.497528 416.712006,430.457703 
	C419.266113,433.707001 422.266083,436.665436 425.369537,439.412598 
	C436.215240,449.013000 437.956268,456.859741 433.479309,467.094513 
	C428.900940,477.561005 416.711517,483.034943 404.021057,480.975494 
	C400.270386,480.366791 396.604126,479.161804 392.948669,478.065033 
	C389.481934,477.024872 387.514618,474.911774 388.738281,470.584778 
z"/>
<path fill="#000000" opacity="1.000000" stroke="none" 
	d="
M570.224243,439.243774 
	C574.659546,434.427032 579.738098,431.490723 585.871765,430.377380 
	C591.916077,429.280182 596.655457,430.820923 598.651123,434.657379 
	C600.873169,438.929016 599.838440,444.908356 595.867493,448.932587 
	C590.289307,454.585663 583.044556,457.097809 575.607544,459.127991 
	C570.488037,460.525513 569.364807,462.299805 570.550964,467.368195 
	C571.596008,471.833771 574.907532,473.706238 579.726746,472.398651 
	C583.152954,471.468994 586.067444,469.493835 588.891052,467.419098 
	C590.414673,466.299591 591.839233,465.857361 593.260010,467.505310 
	C594.877686,469.381561 593.420959,470.498199 592.208801,471.655487 
	C588.554810,475.144135 584.433594,477.903290 579.665466,479.644470 
	C566.905334,484.304169 557.544678,476.759308 559.174194,463.181976 
	C560.261292,454.124603 563.916626,446.272705 570.224243,439.243774 
M572.255371,451.790833 
	C572.075928,452.886993 571.492981,454.505371 573.571838,453.859558 
	C579.126526,452.133942 584.692871,450.228088 587.879333,444.822052 
	C589.286743,442.434235 590.992737,439.551636 588.138306,437.197937 
	C585.488770,435.013153 582.812500,436.577545 580.498291,438.354767 
	C576.240173,441.624756 574.223389,446.344543 572.255371,451.790833 
z"/>
<path fill="#000000" opacity="1.000000" stroke="none" 
	d="
M533.202087,480.554108 
	C523.169556,481.960938 517.832764,477.957581 516.533203,468.451447 
	C514.522522,453.743530 526.114746,435.177124 539.973816,431.064667 
	C542.020325,430.457458 544.222168,430.018982 546.339478,430.066620 
	C555.039429,430.262390 559.090332,436.928894 555.545227,444.906372 
	C553.606140,449.269928 549.960022,451.838715 546.018250,454.079376 
	C541.644226,456.565735 536.917542,458.264587 532.003723,459.145508 
	C527.871521,459.886261 526.887085,462.260895 527.367126,465.893463 
	C527.871826,469.711548 529.366638,472.639557 533.801636,472.737244 
	C538.050537,472.830872 541.387268,470.617340 544.706360,468.347595 
	C546.401855,467.188110 548.221924,464.964966 550.209717,467.600769 
	C552.209351,470.252441 549.356140,471.467072 547.953308,472.769409 
	C543.867798,476.562103 539.058533,479.147522 533.202087,480.554108 
M543.411804,446.767273 
	C543.866760,446.070923 544.411316,445.416534 544.760620,444.670715 
	C545.997009,442.030457 547.145325,439.010590 544.377808,436.965607 
	C541.867310,435.110504 539.254578,436.799377 537.174377,438.586334 
	C532.591736,442.522858 530.339050,447.657898 529.094666,454.245697 
	C534.841675,452.912964 539.135193,450.648071 543.411804,446.767273 
z"/>
<path fill="#000000" opacity="1.000000" stroke="none" 
	d="
M605.944702,466.223694 
	C608.493652,456.890167 610.942200,447.965851 613.480713,438.713745 
	C611.927979,438.499756 610.975220,438.328705 610.014832,438.244995 
	C608.363525,438.101074 606.445251,438.322632 606.645264,435.749878 
	C606.802063,433.733063 607.775574,431.725555 609.845886,431.978302 
	C616.031921,432.733521 616.296570,428.175201 617.368958,424.235718 
	C619.069580,417.988586 621.577576,416.554871 628.407166,418.120453 
	C628.976196,422.612854 625.783447,426.559692 626.077637,431.046234 
	C628.496155,432.110718 630.858398,431.413666 633.138977,431.654327 
	C634.603455,431.808838 636.441833,431.637207 636.511597,433.720337 
	C636.574951,435.611115 635.877380,437.357269 633.839966,438.060333 
	C633.229248,438.271118 632.525269,438.219391 631.862793,438.271637 
	C623.309326,438.946533 623.296631,438.942291 620.993896,447.335693 
	C619.234863,453.747559 617.490051,460.163574 615.790833,466.591461 
	C615.375366,468.163330 614.611572,470.017700 616.243286,471.213257 
	C617.935242,472.452972 619.386353,471.023895 620.708435,470.079803 
	C622.194824,469.018341 623.574890,467.808655 625.009888,466.674377 
	C626.251282,465.693146 627.444275,465.752808 628.554199,466.896759 
	C629.823547,468.205017 629.895935,469.598419 628.532654,470.810455 
	C624.563843,474.338989 620.840149,478.256012 615.627747,480.016174 
	C608.244629,482.509460 603.829712,478.789948 604.916260,471.023621 
	C605.123047,469.545746 605.529846,468.095795 605.944702,466.223694 
z"/>
<path fill="#000000" opacity="1.000000" stroke="none" 
	d="
M453.147522,446.255798 
	C453.623566,443.633545 455.075378,441.546112 454.228577,438.899902 
	C453.518799,438.707245 452.759064,438.428162 451.974792,438.302979 
	C450.243256,438.026642 447.900848,438.458252 448.071655,435.690002 
	C448.208984,433.464691 449.633514,431.753662 451.971008,431.999237 
	C457.394684,432.569061 458.013245,428.779327 459.045227,424.984436 
	C461.027344,417.695374 463.508636,416.215698 470.431763,417.992645 
	C470.529205,422.435425 467.653259,426.384857 467.801086,430.872437 
	C470.076874,432.381042 472.459167,431.519348 474.705566,431.723083 
	C476.344025,431.871704 478.320435,431.615814 478.335449,434.048767 
	C478.348877,436.221680 477.537079,437.975800 474.982361,438.185608 
	C474.651215,438.212830 474.317352,438.206665 473.986115,438.233398 
	C465.166016,438.945282 465.077423,438.919800 462.533844,447.616241 
	C460.715820,453.832214 459.107269,460.112610 457.557434,466.401733 
	C457.145752,468.072266 456.348663,470.224304 458.389160,471.369049 
	C460.127808,472.344482 461.510742,470.826996 462.805023,469.846375 
	C464.126984,468.844788 465.355988,467.717743 466.599365,466.615967 
	C468.000702,465.374298 469.304047,465.571808 470.531769,466.842041 
	C471.906921,468.264862 471.384705,469.554474 470.159790,470.723877 
	C465.934753,474.757507 461.613556,478.696594 455.804688,480.313354 
	C449.619537,482.034851 445.429352,478.515533 446.381805,472.170898 
	C447.691986,463.443146 450.696838,455.120453 453.147522,446.255798 
z"/>
<path fill="#000000" opacity="1.000000" stroke="none" 
	d="
M502.385132,445.365295 
	C496.548828,453.683044 492.876801,462.491974 491.096924,472.155090 
	C489.688904,479.799316 488.105469,480.598602 479.538177,478.399780 
	C482.161072,465.544952 486.965179,453.161194 489.336609,439.915161 
	C486.101196,439.651093 485.106049,441.866028 483.691559,443.289154 
	C482.431854,444.556519 481.218140,445.796936 479.456543,444.393341 
	C477.340179,442.707092 478.703918,441.116455 479.949310,439.739410 
	C482.851868,436.530029 485.697906,433.238617 489.737427,431.338959 
	C492.076874,430.238770 494.443756,429.350677 496.749725,431.271881 
	C498.914795,433.075775 499.144653,435.562134 498.694702,438.124542 
	C498.408905,439.752228 497.886749,441.338379 497.105042,444.352600 
	C499.598999,440.866272 501.303436,438.456116 503.037384,436.067352 
	C504.831573,433.595551 507.016876,431.590424 509.931488,430.504028 
	C513.020996,429.352478 515.549805,430.161224 517.277161,432.924866 
	C518.946167,435.595245 518.807251,438.332184 516.815308,440.819122 
	C514.750000,443.397705 512.422119,443.251678 509.796967,441.509003 
	C505.485535,438.646912 504.555817,442.984192 502.385132,445.365295 
z"/>
</svg>