<svg version="1.1" id="Layer_1" xmlns="http://www.w3.org/2000/svg" xmlns:xlink="http://www.w3.org/1999/xlink" x="0px" y="0px"
	 width="100%" viewBox="0 0 1024 1024" enable-background="new 0 0 1024 1024" xml:space="preserve">
<path fill="#000000" opacity="1.000000" stroke="none" 
	d="
M804.100098,403.000000 
	C804.107361,533.639221 804.115356,663.778442 804.125305,793.917664 
	C804.126038,803.807678 804.132385,803.890442 794.218811,803.865784 
	C745.067810,803.743530 695.917114,803.505066 646.766113,803.438477 
	C587.122559,803.357666 527.478943,803.404907 467.835327,803.402588 
	C426.353058,803.400940 384.867249,803.080261 343.389679,803.523376 
	C313.409485,803.843628 283.431244,802.794312 253.452499,803.801758 
	C244.474915,804.103455 235.468445,803.433228 226.477219,803.495972 
	C222.867111,803.521118 221.810822,801.973999 221.850616,798.705444 
	C221.933792,791.874756 221.847458,785.042053 221.847015,778.210205 
	C221.835403,595.248535 221.825714,412.286896 221.816559,229.325256 
	C221.816238,222.929947 222.007889,222.706116 228.119583,222.705307 
	C418.079834,222.680069 608.040039,222.659866 798.000305,222.642899 
	C803.752869,222.642380 804.145142,223.053635 804.144531,229.537979 
	C804.139526,287.191986 804.117920,344.846008 804.100098,403.000000 
M642.500000,234.920166 
	C616.343750,234.887421 590.187622,234.669891 564.033325,234.547760 
	C508.388977,234.287857 452.741333,234.815918 397.094849,234.905151 
	C345.771576,234.987442 294.447998,234.941971 243.124634,234.893158 
	C234.252960,234.884720 234.260864,234.747528 234.262070,243.375519 
	C234.287109,421.840851 234.308960,600.306213 234.336670,778.771545 
	C234.338562,790.913391 234.357788,790.903015 246.370377,790.901001 
	C425.834900,790.870483 605.299438,790.842712 784.763977,790.815247 
	C791.578491,790.814209 791.586914,790.818542 791.591492,783.841309 
	C791.643372,703.856750 791.739624,623.872253 791.730530,543.887695 
	C791.718994,442.408661 791.594421,340.929596 791.649841,239.450607 
	C791.652283,234.915802 789.754211,234.301498 785.945068,234.322815 
	C738.463745,234.588593 690.981812,234.737457 642.500000,234.920166 
z"/>
<path fill="#000000" opacity="1.000000" stroke="none" 
	d="
M369.923462,276.905426 
	C407.384857,254.332230 447.439606,240.944946 490.789276,237.663940 
	C526.056824,234.994644 560.685486,238.366302 594.447449,248.999557 
	C634.123718,261.495544 669.379395,281.784851 699.954773,310.080353 
	C739.743103,346.901855 766.952393,391.458313 780.649902,443.867310 
	C789.919739,479.335541 791.786316,515.380249 786.588318,551.862366 
	C779.778442,599.658386 761.778259,642.709229 732.244812,680.641907 
	C693.353760,730.593506 643.493347,764.795776 581.793030,780.364746 
	C503.101746,800.221191 429.185974,787.998230 361.373749,743.624756 
	C302.875397,705.345886 264.444031,651.826416 245.701065,584.239380 
	C237.448624,554.481140 234.990417,524.151245 237.102234,493.626099 
	C241.002197,437.254517 260.671173,386.694977 295.823059,342.253265 
	C316.522675,316.083221 341.225220,294.520782 369.923462,276.905426 
M444.326447,768.040405 
	C481.020508,778.196167 518.206665,779.788025 555.654175,773.607239 
	C608.574524,764.872559 655.526611,742.624023 693.600342,705.087708 
	C773.740173,626.079102 797.728638,531.360840 761.378723,424.877899 
	C732.595520,340.560760 671.685486,286.467255 586.953308,259.414948 
	C552.601746,248.447556 517.211670,246.390610 481.671021,250.549637 
	C438.246216,255.631287 398.410339,271.019409 362.544342,296.201904 
	C309.516083,333.434448 274.508148,383.459351 257.214172,445.823212 
	C250.357437,470.549225 248.455582,495.843475 248.954666,521.484619 
	C249.535583,551.329285 255.528793,580.008972 266.184174,607.684631 
	C284.226898,654.547729 313.728638,693.021545 353.625519,723.372314 
	C380.671570,743.946960 410.640106,758.928040 444.326447,768.040405 
z"/>
<path fill="#000000" opacity="1.000000" stroke="none" 
	d="
M572.920715,391.969238 
	C600.285583,407.637177 620.035828,429.537354 630.312927,459.116608 
	C642.175476,493.259369 639.924622,526.802185 622.694336,558.671509 
	C600.861206,599.054199 566.288269,621.724060 520.815125,624.515808 
	C474.973602,627.330078 437.261444,609.119751 410.842285,571.182861 
	C379.037598,525.512451 381.145935,467.231628 415.654114,423.606049 
	C436.377441,397.407349 463.887268,382.182251 497.214447,377.845642 
	C523.856873,374.378876 548.904297,379.386932 572.920715,391.969238 
M528.854492,480.166718 
	C528.836121,475.566162 530.706848,471.784424 535.567322,471.956390 
	C544.728821,472.280518 544.253235,479.140930 543.783386,485.963745 
	C544.999756,481.140198 545.452393,476.498749 545.775330,471.848267 
	C546.671204,458.946960 548.985718,446.371155 555.015442,434.794800 
	C559.731873,425.739868 566.075439,418.125031 575.878906,414.156158 
	C577.513489,413.494385 579.441223,412.589172 581.054382,414.122070 
	C582.650513,415.638763 581.962280,417.526947 581.320007,419.261658 
	C576.350708,432.682739 574.732727,446.366058 577.911438,460.469330 
	C578.353882,462.432465 578.549805,464.641479 576.397888,465.819458 
	C574.327148,466.952972 572.617554,465.749512 570.963806,464.478790 
	C568.815308,462.827911 567.154602,460.337524 564.168640,459.946899 
	C562.212158,464.746796 561.328186,475.722260 562.368774,482.378815 
	C562.634583,484.079254 562.548401,486.496460 565.227356,486.176331 
	C567.640686,485.887878 569.002930,484.458038 568.641174,481.652466 
	C568.145996,477.812561 569.537964,474.724365 573.214050,473.079437 
	C576.105103,471.785767 578.798279,472.463257 581.062927,474.578339 
	C583.872131,477.201996 585.016541,480.342468 583.346619,484.041443 
	C582.663940,485.553406 582.341187,486.683960 583.978516,487.898468 
	C589.640015,492.097992 603.070496,487.770355 605.158997,480.990112 
	C606.446655,476.809967 610.045410,474.319946 613.760498,475.038544 
	C617.503052,475.762451 620.759460,479.678192 620.316162,483.342438 
	C619.792664,487.669586 617.394592,490.391022 612.799988,490.505981 
	C611.083313,490.548950 609.454224,490.433014 608.388794,492.117645 
	C599.579773,506.045563 589.646301,519.314758 582.458252,534.188354 
	C579.914551,539.451782 576.962402,543.602844 571.601807,545.864197 
	C568.945862,546.984558 567.598083,548.669189 567.035156,551.727722 
	C563.015198,573.568665 552.321167,590.458618 530.936157,599.149475 
	C530.016235,599.523254 529.113708,600.004639 528.307129,600.581360 
	C524.950195,602.981689 524.587036,606.448608 525.574036,609.984314 
	C526.683105,613.957336 529.935852,612.089600 532.300354,611.750244 
	C536.243042,611.184326 540.239990,610.538452 544.011292,609.306030 
	C589.703552,594.373657 617.603699,563.400146 624.755981,515.781006 
	C629.982727,480.981964 620.487976,449.463409 595.912231,423.733582 
	C558.660950,384.732910 503.627106,376.897491 456.238373,403.042175 
	C407.220367,430.085663 385.867554,494.823730 409.428406,545.629395 
	C426.546143,582.541565 454.938446,605.121277 495.296906,612.271912 
	C499.806488,613.070862 501.406921,611.441650 501.809631,607.283569 
	C502.337769,601.830261 499.493286,598.920837 494.795959,597.171143 
	C483.202179,592.852539 473.619415,586.013672 467.324310,575.100708 
	C463.619995,568.679138 461.320435,561.700317 460.067474,554.468201 
	C459.292755,549.996521 457.594910,546.859436 453.339569,544.866211 
	C448.635498,542.662659 445.335876,539.030273 444.142456,533.698669 
	C443.789459,532.121582 442.855927,530.621216 441.969147,529.225037 
	C434.556610,517.554443 427.083466,505.922424 419.654144,494.262482 
	C418.458496,492.385986 417.116150,490.891632 414.809601,490.252380 
	C410.293762,489.000854 408.140015,485.852325 408.918060,481.224762 
	C409.543365,477.505951 412.236603,475.211395 415.870483,475.131592 
	C420.552002,475.028839 423.070984,478.102844 423.934296,482.500244 
	C424.291534,484.320038 424.335449,486.289581 426.242615,487.205872 
	C432.044464,489.993225 437.956421,491.028992 443.962463,487.778564 
	C446.502319,486.404053 447.887939,484.764893 447.082001,481.365112 
	C445.882721,476.306213 447.964050,472.977966 452.052094,471.989075 
	C457.837097,470.589752 462.531647,475.304108 461.397125,481.362183 
	C461.106476,482.914246 459.447479,484.892273 463.347198,485.734344 
	C465.234406,477.172668 465.598724,468.902435 463.304962,460.175598 
	C460.438690,460.999786 458.866364,462.473877 457.204254,463.803345 
	C455.445801,465.209808 453.884644,467.664062 451.222260,466.116516 
	C448.669312,464.632599 449.641602,461.961731 449.972687,459.742859 
	C451.996552,446.178864 451.550659,432.863312 446.386932,419.947906 
	C445.618286,418.025421 443.934113,415.887451 446.017181,413.974182 
	C448.147186,412.017792 450.490326,413.505737 452.534088,414.456879 
	C461.011841,418.402313 467.090942,424.863586 471.414429,433.043365 
	C478.423950,446.304871 481.016907,460.590179 481.292450,475.444000 
	C481.360748,479.126007 480.585083,483.072937 483.144806,486.416962 
	C485.782196,485.712860 487.842010,485.092072 486.705811,481.679993 
	C485.468658,477.964630 486.685730,474.731171 489.879211,472.482605 
	C492.269501,470.799561 494.954681,470.768311 497.403961,472.387390 
	C500.876373,474.682861 501.998352,478.061249 500.868286,481.981720 
	C500.180847,484.366577 500.490753,486.011597 503.062958,486.492798 
	C505.971710,487.036987 506.474731,484.754669 506.525818,482.760040 
	C506.798523,472.108734 507.436066,461.434998 506.172333,450.814819 
	C505.553711,445.616364 504.808990,445.432434 500.155426,447.628357 
	C496.964874,449.133881 493.468658,452.297058 490.162872,448.901642 
	C487.110413,445.766418 490.055634,442.191223 491.435638,439.210114 
	C498.083435,424.849548 504.599335,410.435608 510.667938,395.819397 
	C511.329285,394.226593 511.647858,392.151062 514.038940,392.047363 
	C516.022339,392.878754 516.420227,394.817261 517.142334,396.427979 
	C521.227112,405.539978 525.250671,414.679688 529.247620,423.830658 
	C531.979797,430.085876 534.676880,436.357239 537.301331,442.658203 
	C538.228760,444.884827 538.649963,447.306458 536.678406,449.196533 
	C534.598755,451.190186 532.416870,450.022675 530.212952,449.066162 
	C527.866821,448.047852 525.888489,445.974731 522.348877,446.149017 
	C522.037231,458.259399 521.659851,470.176605 521.491211,482.096802 
	C521.462097,484.158020 520.988037,487.467041 524.871948,486.636993 
	C527.681763,486.036438 530.626465,484.995453 528.854492,480.166718 
M447.614319,505.016357 
	C464.237152,498.592102 481.443329,494.557129 499.218079,492.504395 
	C496.546173,491.284882 494.284515,488.412720 491.071075,490.327789 
	C483.786011,494.669281 475.544586,495.801727 467.874756,493.912140 
	C458.090515,491.501556 449.277740,491.176575 440.074097,495.780701 
	C437.229584,497.203674 433.072083,496.001923 428.354126,496.001923 
	C434.576447,505.981018 440.340302,514.704651 445.529022,523.757812 
	C448.275024,528.549011 451.095886,530.653687 456.573975,528.042114 
	C459.533508,526.631165 462.949219,526.196045 466.132385,525.232300 
	C488.134369,518.570801 510.608276,517.225708 533.340393,519.563843 
	C544.223999,520.683350 554.898376,523.122803 565.456238,526.012268 
	C551.690125,520.837463 537.421692,517.983704 522.770020,517.327271 
	C500.074249,516.310425 477.928040,519.491211 456.467957,527.014160 
	C453.142303,528.180054 451.254211,527.561279 449.798828,524.271423 
	C448.119781,520.475891 445.978516,516.884216 444.025940,513.210449 
	C441.240479,507.969543 441.338562,507.690491 447.614319,505.016357 
M555.148071,497.252197 
	C563.636230,499.635895 572.093384,502.083282 580.311462,505.345032 
	C584.597595,507.046173 585.501282,509.118073 583.069458,513.225708 
	C580.029785,518.359924 577.550415,523.825867 574.829102,529.148621 
	C575.369507,529.470154 575.909973,529.791748 576.450378,530.113342 
	C584.231934,519.226807 590.761230,507.509766 598.441895,495.607788 
	C590.487183,496.923370 583.559753,496.543030 577.533997,492.245422 
	C574.870850,490.346039 572.682678,490.319641 569.731201,491.527924 
	C559.765076,495.607819 549.516296,495.943298 539.658691,491.530640 
	C535.407349,489.627533 532.235901,490.019135 528.068176,492.889130 
	C537.406372,493.857697 546.039673,494.516602 555.148071,497.252197 
M546.283386,537.803894 
	C546.435303,536.653198 546.659424,535.506714 546.727234,534.351074 
	C547.108826,527.844116 546.892639,527.489624 540.280029,526.328003 
	C535.871643,525.553711 531.406067,525.111084 526.982910,524.413513 
	C523.616089,523.882507 521.874329,524.935181 522.199341,528.605042 
	C522.579895,532.901917 523.055603,537.207703 523.089233,541.512695 
	C523.118347,545.241882 524.995972,546.012268 528.161377,545.705627 
	C531.955322,545.338013 535.782471,544.710144 539.557922,544.907593 
	C544.303528,545.155884 546.343140,543.273499 546.283386,537.803894 
M488.605499,544.818848 
	C491.251221,545.051453 493.919098,545.141541 496.537598,545.549072 
	C500.747894,546.204346 503.338318,545.072937 503.401825,540.311096 
	C503.457153,536.160583 503.672516,532.011658 503.850555,527.863464 
	C503.960297,525.306885 502.902924,524.188721 500.255615,524.539246 
	C496.800446,524.996704 493.295776,525.125305 489.862793,525.697571 
	C478.277435,527.629028 480.208588,526.489441 480.238708,537.377258 
	C480.257538,544.183960 480.685333,544.518311 488.605499,544.818848 
M487.568939,562.978516 
	C489.938995,564.976257 492.445984,566.840332 495.649139,564.958252 
	C499.374939,562.769226 500.869965,559.060242 501.626770,555.027710 
	C501.865204,553.757324 501.304810,552.550476 499.894043,552.459167 
	C494.183716,552.089478 488.464783,551.852112 482.420441,551.549500 
	C482.575500,556.354126 484.422729,559.571655 487.568939,562.978516 
M534.725403,564.505920 
	C539.693665,561.758240 542.027466,557.384277 543.055542,552.250366 
	C537.406006,552.250366 532.303345,552.230835 527.200928,552.261414 
	C525.493591,552.271667 524.441650,552.924011 524.393738,554.923401 
	C524.269104,560.120178 528.542297,564.554260 534.725403,564.505920 
M482.030212,509.275146 
	C480.897369,507.451874 479.828217,505.584717 478.611450,503.819275 
	C477.651093,502.425903 476.341248,501.810699 474.879730,503.157257 
	C473.877594,504.080566 473.704163,514.467896 474.912170,516.577209 
	C475.570099,506.735443 480.253143,512.469482 483.614990,514.240356 
	C484.733765,511.910614 482.847321,511.142609 482.030212,509.275146 
M553.059692,508.813080 
	C553.139343,507.116547 554.884766,505.476715 553.514832,503.382202 
	C551.490173,505.231476 552.951233,508.439819 550.232300,509.501495 
	C546.937439,507.883362 548.404114,502.585052 543.679260,501.478333 
	C542.847351,505.632111 542.059814,509.564209 541.068604,514.513672 
	C544.387268,511.995300 542.397034,508.124084 545.391968,506.515350 
	C548.250488,508.628510 547.251465,513.217529 550.594177,515.058105 
	C552.508057,513.515320 552.326050,511.373657 553.059692,508.813080 
M519.627319,502.182220 
	C518.526794,504.980774 517.426270,507.779327 516.325806,510.577911 
	C516.475708,511.701385 516.625671,512.824829 516.775574,513.948303 
	C520.694275,500.049652 523.555176,511.423004 527.698608,512.055298 
	C526.453003,507.787842 525.795044,504.393616 524.462524,501.288879 
	C523.126160,498.175110 521.331116,499.036530 519.627319,502.182220 
M496.756714,500.835693 
	C493.779205,498.332733 490.895447,499.940796 487.324860,500.869202 
	C490.164520,504.447662 487.646362,509.469513 491.659180,512.477173 
	C491.558258,509.447906 492.299377,507.491058 495.258911,506.545105 
	C497.742859,505.751160 498.519806,503.858093 496.756714,500.835693 
M505.550201,500.756653 
	C507.563660,503.983093 506.262024,507.736328 506.994049,512.165527 
	C511.326172,508.138916 505.162048,500.997406 512.330383,499.128632 
	C508.605652,498.528137 505.094177,497.480499 501.664520,500.771362 
	C503.184723,500.601959 504.105865,500.499298 505.550201,500.756653 
M462.912231,507.890289 
	C463.866791,507.761536 464.965759,509.434875 465.963043,507.459808 
	C463.500549,505.319916 461.037903,505.962952 458.811279,507.555817 
	C456.757111,509.025269 455.975983,511.446655 456.565796,513.774231 
	C457.353699,516.883484 459.511108,518.801697 463.286652,518.885132 
	C457.080536,513.882568 456.814484,510.251160 462.912231,507.890289 
M569.329529,518.924316 
	C571.468506,516.500732 569.874939,514.593445 568.302856,512.899902 
	C566.584351,511.048462 565.429871,509.369019 568.736267,507.053284 
	C563.744629,508.342438 563.111511,509.899994 565.792969,513.173828 
	C567.507263,515.266907 569.580994,517.036865 566.531616,519.780640 
	C567.296753,519.623291 568.061951,519.466003 569.329529,518.924316 
M533.018066,511.549500 
	C533.979248,512.764404 535.297424,513.007324 535.276672,511.238373 
	C535.233948,507.585022 536.370544,504.063049 535.941345,500.314026 
	C533.546265,503.457367 533.718323,507.330994 533.018066,511.549500 
M454.033966,536.797852 
	C454.914795,537.722961 455.645935,538.898499 457.281860,538.725037 
	C457.990021,537.182007 458.187592,535.698914 456.972290,534.097595 
	C455.569122,534.360168 453.977234,534.192078 454.033966,536.797852 
z"/>
<path fill="#000000" opacity="1.000000" stroke="none" 
	d="
M350.160767,561.130493 
	C351.775238,560.179260 353.089508,559.460632 354.374695,558.693298 
	C356.854980,557.212585 358.693329,557.661438 360.118042,560.278259 
	C366.558441,572.107544 373.211670,583.823853 379.478699,595.743591 
	C383.194519,602.810913 383.859497,610.298340 378.634033,616.925476 
	C373.462769,623.483765 366.514923,626.019897 358.166840,623.620972 
	C357.570282,623.449524 356.881622,623.598511 355.915863,623.598511 
	C354.699127,632.978455 349.371429,638.962646 340.568817,641.872681 
	C332.163849,644.651367 324.783508,642.310242 319.437347,635.763733 
	C309.506195,623.602844 302.638000,609.440613 294.854797,595.890442 
	C293.683777,593.851685 294.298279,592.456726 296.232147,591.379761 
	C297.976166,590.408630 299.741089,589.457214 301.394409,588.344910 
	C304.416077,586.311951 306.939575,586.179077 308.628326,589.933960 
	C310.016235,593.020081 311.995728,592.940247 314.655548,591.431335 
	C325.217224,585.439819 335.801453,579.484131 346.482300,573.709351 
	C349.400543,572.131531 349.898041,570.417053 348.158966,567.794189 
	C346.313416,565.010620 346.716492,562.820190 350.160767,561.130493 
M323.847382,610.358154 
	C320.672028,613.139893 323.170837,615.548584 324.596802,617.716553 
	C326.549133,620.684814 329.540894,622.419434 333.147400,621.283936 
	C339.382935,619.320801 343.108093,616.873718 337.870789,606.810791 
	C336.469727,604.118835 335.131561,603.364441 332.527527,605.057495 
	C329.886414,606.774658 327.150330,608.345764 323.847382,610.358154 
M349.606476,598.870544 
	C350.495026,600.876648 351.689697,602.677368 353.566040,603.859558 
	C356.192169,605.514099 358.900879,605.407166 361.526672,603.816345 
	C363.877350,602.392212 364.303009,600.089600 363.670593,597.726074 
	C362.956665,595.057983 362.413513,591.991028 359.620575,590.667358 
	C357.387390,589.609009 350.217346,595.102356 349.606476,598.870544 
z"/>
<path fill="#000000" opacity="1.000000" stroke="none" 
	d="
M655.855469,574.917358 
	C665.115356,558.067627 685.727844,563.505371 690.808289,574.101379 
	C691.733459,576.031067 692.968933,578.161865 692.891663,580.154480 
	C692.688660,585.390503 695.473694,586.178528 699.744873,585.989990 
	C702.379517,585.873718 705.050842,586.337708 707.691284,586.659607 
	C712.464966,587.241577 716.645508,586.864990 718.536377,581.387451 
	C719.292969,579.195740 721.076294,578.988342 723.035400,579.987122 
	C723.332031,580.138428 723.618774,580.310730 723.922241,580.446350 
	C732.401306,584.236938 732.401550,584.236389 728.499268,592.547729 
	C722.332092,605.683044 722.330322,605.724854 707.836548,605.109741 
	C702.188843,604.870056 696.551270,604.394043 690.908997,604.026672 
	C688.290344,603.856140 685.815369,603.995972 684.868225,607.092590 
	C683.879700,610.324585 686.978271,610.364868 688.500305,611.492126 
	C690.087585,612.667725 692.066589,613.301697 693.719482,614.404358 
	C696.748169,616.424805 699.110596,616.543518 700.896057,612.810120 
	C701.980347,610.542664 703.892334,610.460510 705.962219,611.610168 
	C706.688477,612.013550 707.458252,612.338196 708.205261,612.704712 
	C715.107727,616.091248 715.263367,616.474731 711.579895,623.008606 
	C707.413269,630.399719 703.097595,637.707581 698.996094,645.134155 
	C697.125732,648.520813 694.943481,649.287231 691.841064,646.817078 
	C691.581848,646.610657 691.290649,646.442383 691.006104,646.269958 
	C684.024536,642.037903 684.024353,642.038208 687.171143,634.094543 
	C675.015015,627.559509 662.790161,620.987549 650.795166,614.539124 
	C650.086243,614.868347 649.675842,614.923889 649.512390,615.154541 
	C645.015564,621.500000 641.149475,621.695923 635.314392,616.027588 
	C633.143127,613.918335 634.361267,612.095215 635.437622,610.226685 
	C642.164612,598.549561 648.923584,586.890869 655.855469,574.917358 
M672.572571,585.878418 
	C667.257690,584.942505 663.151306,587.512878 661.734131,593.430359 
	C660.448853,598.797302 666.018921,598.348022 668.583618,600.340027 
	C670.889526,602.130920 673.013733,601.756470 674.576477,598.740051 
	C677.763184,592.589417 677.555542,589.376892 672.572571,585.878418 
z"/>
<path fill="#000000" opacity="1.000000" stroke="none" 
	d="
M404.449341,712.385132 
	C402.446136,715.866211 400.435333,716.113159 397.448883,713.808472 
	C382.560730,702.319031 367.580170,690.948486 352.558197,679.634216 
	C349.595734,677.402893 349.261108,675.338196 351.862213,672.696838 
	C353.026123,671.514954 354.140106,670.246399 355.065186,668.874512 
	C356.949432,666.080078 359.038269,665.542603 361.629730,667.906982 
	C364.154846,670.210876 366.254791,669.784546 368.293488,667.105286 
	C375.449066,657.701355 382.646088,648.328064 389.926300,639.020508 
	C391.807892,636.614929 392.156403,634.776428 389.345490,632.844482 
	C387.188385,631.361877 386.917542,629.451294 388.807953,627.362061 
	C390.145172,625.884216 391.358887,624.287598 392.550446,622.686401 
	C394.587921,619.948486 396.689880,619.987305 399.271912,622.073792 
	C413.253754,633.372070 427.235352,644.672607 441.360443,655.790161 
	C445.001953,658.656372 445.623047,661.133301 442.490997,664.764832 
	C439.893311,667.776794 437.647858,671.123047 435.496674,674.481445 
	C433.164154,678.122925 430.702179,679.451355 427.179138,675.962830 
	C426.361572,675.153259 425.343323,674.521851 424.350983,673.917664 
	C420.067688,671.309875 418.460236,668.271423 422.417755,664.008484 
	C424.256989,662.027283 423.878418,660.165955 421.706879,658.523010 
	C418.388977,656.012939 415.114838,653.441772 411.887299,650.816406 
	C409.699463,649.036743 408.010895,649.473694 406.472443,651.654236 
	C405.609863,652.876892 404.695648,654.073975 403.702423,655.191589 
	C401.495117,657.675476 401.556824,659.776550 404.382965,661.801758 
	C406.814972,663.544617 409.009277,665.619019 411.440887,667.362488 
	C413.915741,669.136841 413.967102,671.039429 412.226349,673.276672 
	C412.022003,673.539246 411.817841,673.802124 411.618042,674.068176 
	C405.585022,682.100708 405.585114,682.100708 397.917999,675.644043 
	C391.798981,670.491150 391.780975,670.477051 386.900208,676.707947 
	C385.384308,678.643188 383.450134,680.324097 382.734497,683.155090 
	C386.513916,687.291687 391.386261,690.190186 395.917877,693.495544 
	C397.900543,694.941589 399.043945,693.362610 399.895630,691.932373 
	C402.684631,687.248901 405.464752,687.704163 409.387695,690.984619 
	C416.527008,696.954651 416.710419,696.729126 411.115021,703.843201 
	C408.954834,706.589661 406.812653,709.350281 404.449341,712.385132 
z"/>
<path fill="#000000" opacity="1.000000" stroke="none" 
	d="
M603.530884,640.511658 
	C610.349243,635.408142 616.941589,630.596985 623.372559,625.579041 
	C626.236145,623.344727 628.311768,623.533752 630.408142,626.507019 
	C633.381592,630.723938 636.512817,634.830139 639.601685,638.965027 
	C641.393372,641.363586 641.459839,643.461914 638.819824,645.346619 
	C637.468933,646.310913 636.275879,647.493958 634.990784,648.552979 
	C629.937561,652.717041 629.813232,652.811157 625.681396,647.689331 
	C623.753235,645.299255 622.115112,645.206177 619.842224,646.968933 
	C617.212585,649.008301 614.567383,651.065186 611.733337,652.793823 
	C608.226257,654.933044 607.914490,656.941284 610.462280,660.334534 
	C615.185547,666.625061 614.974854,666.782288 621.555847,662.278198 
	C621.968018,661.996155 622.402893,661.747192 622.813904,661.463501 
	C629.598328,656.782043 633.963623,658.377319 636.490601,666.326538 
	C637.068054,668.143127 636.395264,669.167603 635.093628,670.138489 
	C632.290771,672.229004 629.547363,674.403809 626.681519,676.403687 
	C624.596191,677.858826 624.228943,679.466675 625.850220,681.388428 
	C628.386414,684.394653 629.826172,690.354126 633.279541,690.071960 
	C638.537170,689.642334 642.700623,684.915894 646.827515,681.358765 
	C648.680237,679.761902 646.915161,677.904114 645.810486,676.554443 
	C643.449280,673.669250 643.564575,671.694153 646.736938,669.173157 
	C656.996887,661.019775 654.502625,661.334961 662.129211,671.098206 
	C664.075745,673.590088 665.848022,676.220642 667.841125,678.672974 
	C669.980591,681.305359 669.680664,683.195740 666.869995,685.245117 
	C654.494751,694.268433 642.230713,703.444336 629.924072,712.561890 
	C628.318542,713.751404 626.773376,715.045044 625.069153,716.073059 
	C622.925476,717.366211 621.280945,721.055908 618.466736,719.337952 
	C614.911011,717.167236 612.982239,713.152649 611.280151,709.367126 
	C610.531799,707.702942 612.430237,706.756226 613.589600,705.925049 
	C615.965820,704.221313 616.326782,702.393066 614.529419,700.035339 
	C607.261292,690.501160 600.004578,680.958008 592.811646,671.367188 
	C591.308411,669.362793 589.639038,668.862549 587.781311,670.497742 
	C584.307678,673.555298 582.182556,671.892578 580.302185,668.683228 
	C579.630127,667.536194 578.881714,666.423157 578.068237,665.371826 
	C575.984131,662.678589 576.558838,660.626221 579.234619,658.658997 
	C587.282532,652.742493 595.243958,646.708130 603.530884,640.511658 
z"/>
<path fill="#000000" opacity="1.000000" stroke="none" 
	d="
M376.785034,390.637024 
	C376.642334,389.062805 375.863037,387.737244 374.815674,386.679565 
	C371.105255,382.932861 370.286469,379.394592 375.903992,376.067596 
	C368.782898,365.594452 361.310638,355.869568 353.716888,346.231934 
	C352.167847,344.266022 350.494385,344.782043 348.992065,346.139801 
	C346.344299,348.532867 344.544830,347.739319 342.419861,345.205566 
	C336.269165,337.871765 336.177643,337.953857 343.881775,332.249207 
	C352.710449,325.711945 361.382568,318.948730 370.414185,312.705292 
	C376.308136,308.630859 382.824554,307.153503 389.672546,311.050629 
	C397.089966,315.271851 401.571655,324.438995 399.546783,332.645386 
	C398.719635,335.997620 399.589722,337.524170 402.647766,338.607025 
	C405.462952,339.603943 408.167633,340.936188 410.864563,342.237549 
	C413.732574,343.621521 416.427490,344.339691 419.139160,341.818420 
	C421.113983,339.982300 422.778992,340.387787 424.546478,342.567078 
	C430.965973,350.482208 430.739410,350.085876 423.095215,356.722870 
	C416.905121,362.097382 411.369080,363.588440 404.235626,358.471466 
	C399.963989,355.407318 394.681274,353.790771 390.036316,351.195496 
	C386.994324,349.495819 384.769958,349.714203 382.705719,352.851837 
	C384.106750,356.355865 386.839386,359.044678 389.193298,361.990234 
	C390.475677,363.594940 392.081390,363.791931 393.543762,362.516296 
	C396.746857,359.722260 398.797058,361.379272 400.989594,363.953400 
	C406.197540,370.067627 406.269135,370.038971 400.067078,374.953979 
	C394.197388,379.605621 388.289612,384.209167 382.401642,388.837708 
	C381.088318,389.870117 379.790924,390.924683 377.553162,391.034607 
	C377.062927,390.942535 376.785034,390.637024 376.785034,390.637024 
M369.798431,335.859894 
	C371.801331,337.467896 371.976166,342.018311 375.773224,340.533661 
	C379.190247,339.197662 382.154480,336.744659 381.888306,332.300964 
	C381.717194,329.444458 380.022003,327.554291 377.513794,326.778107 
	C373.715607,325.602753 371.347748,328.596497 368.796478,330.566803 
	C366.656311,332.219574 368.510468,333.803680 369.798431,335.859894 
z"/>
<path fill="#000000" opacity="1.000000" stroke="none" 
	d="
M624.401001,358.842957 
	C628.036438,364.280151 627.441467,367.827667 622.435669,372.096588 
	C620.691650,373.583832 619.148315,373.353333 617.519897,372.081024 
	C610.703979,366.755554 603.903381,361.410431 597.071655,356.105408 
	C594.622559,354.203644 594.154358,352.250488 596.488647,349.889496 
	C597.771973,348.591431 598.899048,347.136688 600.071411,345.731628 
	C601.451416,344.077606 603.031555,343.530121 604.802307,345.035522 
	C607.276428,347.138916 609.145142,346.602539 611.037964,344.131165 
	C617.410034,335.811493 623.866089,327.555756 630.341736,319.316223 
	C632.237671,316.903870 633.042969,314.822754 629.885742,312.706909 
	C628.058594,311.482483 627.925659,309.763916 629.518677,308.038208 
	C630.305176,307.186249 630.982056,306.229523 631.674255,305.294830 
	C635.446289,300.201263 635.394043,300.259491 640.451904,304.292542 
	C649.294434,311.343445 658.578979,317.891022 666.992615,325.416168 
	C678.461548,335.674011 674.922241,352.566162 660.604126,358.210968 
	C659.833008,358.515015 658.980286,359.049591 658.245300,358.940308 
	C651.169861,357.888641 649.997375,362.470856 649.486572,367.853241 
	C649.267334,370.163483 648.764709,372.445679 648.435608,374.747040 
	C648.171997,376.591370 648.139954,378.347229 649.644836,379.850189 
	C650.982849,381.186401 653.626953,382.222900 652.659119,384.499603 
	C651.377441,387.514893 649.606689,390.422882 646.933716,392.552429 
	C646.072449,393.238556 645.068542,393.206146 644.115601,392.713928 
	C643.528137,392.410522 642.982117,392.021484 642.436462,391.643524 
	C629.191650,382.467438 629.199829,382.468353 632.439697,366.719330 
	C633.343750,362.324921 634.081238,357.893188 635.106750,353.528290 
	C635.578796,351.518982 634.891663,350.361176 633.302246,349.397156 
	C631.137146,348.083954 630.316772,349.824219 629.382446,351.140839 
	C627.664185,353.562195 625.297607,355.545685 624.401001,358.842957 
M647.167847,342.429321 
	C650.732605,343.193237 653.299500,341.809814 654.948730,338.677673 
	C656.518677,335.696045 655.472961,333.171783 653.127625,331.198059 
	C651.450256,329.786438 649.621582,327.299500 647.206482,328.900696 
	C644.332153,330.806366 641.694214,333.658783 641.198792,337.064117 
	C640.755554,340.111420 644.378784,340.749176 647.167847,342.429321 
z"/>
<path fill="#000000" opacity="1.000000" stroke="none" 
	d="
M494.994598,335.171387 
	C489.165863,335.171143 483.835754,335.156128 478.505768,335.173462 
	C475.340240,335.183777 473.926636,333.681641 474.233337,330.501312 
	C474.392792,328.847900 474.496338,327.178009 474.459747,325.519196 
	C474.399414,322.787445 475.634399,321.415070 478.367065,321.654114 
	C482.109344,321.981476 482.824707,319.865112 482.787354,316.725647 
	C482.666595,306.574738 482.570496,296.421417 482.670563,286.271088 
	C482.705231,282.753510 481.613251,281.218689 477.867157,281.038849 
	C471.940430,280.754333 474.167603,275.846252 473.742554,272.608612 
	C473.370636,269.775665 473.744019,267.032776 477.573608,267.041901 
	C489.726349,267.070862 501.951019,266.364075 514.015564,267.433716 
	C535.013489,269.295441 541.808044,286.187317 540.815186,303.962646 
	C540.547302,308.757721 539.449463,313.523895 537.420959,317.978668 
	C532.825500,328.070618 524.596008,332.851440 513.928162,334.159607 
	C507.801392,334.910858 501.665955,335.337708 494.994598,335.171387 
M519.367554,288.325684 
	C515.946472,283.103027 510.969666,281.080780 504.900543,281.228851 
	C502.826935,281.279419 501.237915,281.837738 501.260803,284.266632 
	C501.364014,295.211884 500.849426,306.165649 501.827789,317.100098 
	C502.102570,320.170868 503.743927,320.894928 506.512329,320.746674 
	C514.142822,320.337952 518.816345,317.210297 520.737793,309.879822 
	C522.558472,302.933899 523.010193,295.810913 519.367554,288.325684 
z"/>
<path fill="#000000" opacity="1.000000" stroke="none" 
	d="
M338.183777,501.980530 
	C336.910736,508.882782 332.370422,505.497803 329.026306,505.395630 
	C326.092224,505.305939 323.625580,504.460358 324.440582,500.612549 
	C325.031097,497.824585 323.663910,496.699524 321.034027,496.321594 
	C310.826477,494.854614 300.622864,493.352509 290.441772,491.714294 
	C287.833282,491.294556 286.532959,491.821686 285.770447,494.582825 
	C283.938873,501.215118 279.049072,497.231110 275.425476,497.128479 
	C271.579041,497.019501 272.333771,494.138824 272.623810,491.598511 
	C273.906738,480.361023 275.112640,469.101013 277.597321,458.057220 
	C281.084991,442.555237 295.256683,438.103607 306.910095,448.835724 
	C308.862518,450.633789 310.180573,450.559509 312.009491,449.122253 
	C323.469086,440.116943 343.272430,448.615021 342.576630,465.927124 
	C342.093231,477.954346 339.757111,489.686371 338.183777,501.980530 
M321.966522,477.407623 
	C327.409760,477.944305 329.747162,474.701355 327.720551,469.119904 
	C326.221405,464.991028 322.560425,464.758331 319.007141,465.172241 
	C314.041504,465.750702 313.982269,469.915649 313.792145,473.507996 
	C313.586243,477.398621 316.949738,476.426331 319.187042,476.868896 
	C319.837463,476.997559 320.495300,477.088715 321.966522,477.407623 
M289.766937,468.119080 
	C288.022644,474.557556 293.501434,472.355438 296.163055,473.328217 
	C298.229370,474.083435 300.198853,473.771729 300.579590,470.965118 
	C301.071014,467.342773 300.558136,464.140839 296.347321,463.214111 
	C292.998901,462.477173 290.339233,463.289368 289.766937,468.119080 
z"/>
<path fill="#000000" opacity="1.000000" stroke="none" 
	d="
M547.297363,667.026245 
	C553.814331,666.053040 559.924683,665.300964 565.973572,664.208069 
	C569.552368,663.561462 571.353333,664.760376 571.880188,668.287170 
	C572.936157,675.356628 574.020752,682.422302 575.170593,689.477051 
	C575.701599,692.734436 574.523315,694.329956 571.191528,694.983887 
	C561.079407,696.968628 561.098572,697.066223 559.373535,686.669434 
	C558.274658,680.046631 557.721497,679.639709 553.165466,680.845398 
	C550.666809,681.506592 549.918884,682.872314 550.321106,685.190369 
	C552.477661,697.619507 554.643372,710.046997 556.795288,722.414185 
	C558.449951,723.633911 560.118225,722.720215 561.722107,722.758728 
	C563.901062,722.811035 566.725403,721.037903 567.966736,723.980164 
	C569.440552,727.473450 570.333252,731.284668 569.568237,735.124695 
	C569.293823,736.502136 567.584473,736.796814 566.270813,737.014343 
	C554.622009,738.943359 542.962585,740.808533 531.318298,742.763855 
	C528.528320,743.232300 527.266235,742.005859 526.886658,739.421082 
	C526.645142,737.776550 526.491638,736.103943 526.071289,734.503662 
	C525.034729,730.556946 526.450867,728.234436 530.516724,728.026489 
	C534.957214,727.799438 536.110474,725.779724 535.397278,721.516418 
	C533.641846,711.021423 532.233398,700.468323 530.701294,689.936218 
	C530.287170,687.089172 529.628235,684.699219 525.826843,685.153259 
	C521.863770,685.626648 522.147766,688.255676 522.488831,691.029602 
	C522.549622,691.523743 522.696838,692.006592 522.777893,692.498962 
	C524.283936,701.643982 521.280396,704.830750 512.156799,703.899353 
	C510.041748,703.683411 509.336578,702.294922 509.008850,700.600647 
	C507.555878,693.088379 506.089691,685.576965 504.796631,678.036316 
	C504.046539,673.662231 507.359680,673.323669 510.413025,672.844849 
	C522.564941,670.939148 534.714478,669.018982 547.297363,667.026245 
z"/>
<path fill="#000000" opacity="1.000000" stroke="none" 
	d="
M552.631470,338.386292 
	C541.765564,328.327850 540.524658,316.167633 544.342896,303.222290 
	C548.347839,289.644043 556.913269,280.235870 571.337952,277.361969 
	C586.612610,274.318756 611.746460,285.860260 611.390381,309.827545 
	C611.333557,313.652954 611.520142,317.476837 610.548157,321.252472 
	C603.487854,348.679047 574.500000,357.427246 552.631470,338.386292 
M574.691589,293.811035 
	C565.786133,298.516510 560.153503,309.257111 561.420532,319.116791 
	C562.347961,326.333405 565.476501,330.288116 571.478333,331.830566 
	C577.977295,333.500793 583.190552,331.499420 587.363708,325.550537 
	C590.892395,320.520355 592.622253,314.825012 592.742615,308.722534 
	C592.967957,297.299438 586.778320,291.930206 574.691589,293.811035 
z"/>
<path fill="#000000" opacity="1.000000" stroke="none" 
	d="
M377.207886,391.089600 
	C377.888397,392.998108 377.189819,394.444794 376.320404,395.936249 
	C372.211761,402.984222 368.055756,410.008789 364.151672,417.169830 
	C362.533997,420.137054 360.526794,420.527496 358.123779,418.727203 
	C354.733490,416.187195 348.446960,415.207367 352.195709,408.602753 
	C345.744720,405.213287 345.324615,405.323517 341.912964,411.091431 
	C337.375061,418.763336 337.452087,419.686981 342.924683,423.223785 
	C347.724152,419.092224 352.217773,419.470276 356.865631,424.252136 
	C358.304474,425.732513 358.254028,427.164032 357.316895,428.751404 
	C353.508881,435.201691 349.657532,441.626587 345.874146,448.091217 
	C344.395996,450.616974 342.568634,450.488922 340.462524,449.033478 
	C338.818542,447.897308 337.228607,446.676575 335.537811,445.615906 
	C332.793610,443.894409 331.954773,441.821472 333.940155,438.974762 
	C334.805084,437.734558 335.669037,436.438690 334.282623,434.949677 
	C326.040741,426.097504 317.809082,417.235809 309.598541,408.403687 
	C304.904968,412.434692 298.082764,411.602264 294.664062,407.189545 
	C293.475708,405.655670 294.113434,404.359772 294.832306,403.047913 
	C300.512146,392.682831 306.241089,382.344604 311.908325,371.972656 
	C313.340240,369.352020 315.144196,368.851105 317.595764,370.558899 
	C318.276794,371.033386 318.987183,371.499359 319.746552,371.822388 
	C324.245605,373.736206 326.751831,376.419678 323.468872,381.058868 
	C324.146881,382.908203 325.588379,383.133789 326.820648,383.436584 
	C337.488586,386.057892 348.177124,388.595398 358.851990,391.188934 
	C360.688751,391.635254 362.802856,392.271240 363.692139,390.117767 
	C365.903961,384.761475 369.277679,386.114136 372.894958,388.173370 
	C374.048523,388.830109 375.141510,389.593201 376.523621,390.472351 
	C376.785034,390.637024 377.062927,390.942535 377.207886,391.089600 
M324.686432,403.864532 
	C326.154297,405.096283 326.957428,407.186523 329.292908,407.435791 
	C330.950653,406.279388 332.227966,404.936462 331.857056,402.390808 
	C328.656067,401.377197 325.448517,400.361511 322.139374,399.313660 
	C321.666412,401.715363 323.412628,402.279205 324.686432,403.864532 
z"/>
<path fill="#000000" opacity="1.000000" stroke="none" 
	d="
M487.617249,728.342041 
	C479.728333,742.309143 465.449951,744.013611 451.622101,732.677124 
	C447.110352,736.460571 442.785126,732.782349 438.317078,731.883118 
	C436.190735,731.455078 436.377808,729.409302 436.829803,727.737854 
	C438.523621,721.473511 440.260590,715.220459 442.037170,708.979126 
	C442.677216,706.730469 444.111206,705.672119 446.558472,706.304199 
	C448.490784,706.803345 450.441772,707.251343 452.406128,707.600525 
	C455.274811,708.110596 456.641571,709.569641 456.752319,712.656189 
	C456.845673,715.257446 456.883606,718.005798 458.436768,720.368286 
	C460.600891,723.659973 465.437439,725.067810 467.987396,722.810181 
	C471.043304,720.104492 470.753723,716.649841 468.309296,713.916931 
	C464.996094,710.212708 461.141144,706.991577 457.502472,703.580444 
	C451.389130,697.849609 447.480499,691.277893 448.585632,682.423157 
	C449.583435,674.428528 453.511932,668.664246 460.973938,665.721069 
	C468.659851,662.689697 475.662323,664.359985 481.766907,669.865784 
	C482.503723,670.530334 483.157532,671.287048 484.071564,672.229736 
	C488.541260,668.519287 492.837769,671.443054 497.155914,672.619141 
	C499.245209,673.188049 499.079651,675.029236 498.603485,676.766602 
	C497.153320,682.058350 495.697845,687.348816 494.285828,692.650818 
	C493.576172,695.315552 491.927612,696.056213 489.380432,695.302917 
	C487.307007,694.689697 485.230988,694.055298 483.117798,693.613586 
	C480.055054,692.973572 478.441315,691.446167 478.807648,688.084717 
	C479.187042,684.603516 477.749817,681.954834 474.623108,680.244812 
	C472.096466,678.863037 469.799438,679.088196 467.837036,681.201416 
	C465.751801,683.447021 466.718933,685.647522 468.485840,687.380188 
	C472.996094,691.803101 477.764832,695.963074 482.260315,700.400330 
	C491.036072,709.062378 492.495819,716.670166 487.617249,728.342041 
z"/>
<path fill="#000000" opacity="1.000000" stroke="none" 
	d="
M730.631592,415.756042 
	C726.122864,418.629578 721.899353,421.291412 717.675842,423.953217 
	C715.030701,425.620239 713.026733,425.334351 711.778442,422.177979 
	C711.169373,420.637756 710.436462,419.116272 709.543945,417.724640 
	C707.687927,414.830566 707.662964,412.428497 711.059143,410.756989 
	C713.894287,409.361664 713.842041,407.428162 712.320618,405.056488 
	C711.242981,403.376709 710.269531,401.626892 709.310852,399.874756 
	C706.031921,393.882050 702.203552,393.534607 697.384399,398.699860 
	C696.112427,400.063110 696.232788,401.320343 696.964233,402.774261 
	C697.936584,404.707153 698.817566,406.690063 699.869385,408.578156 
	C701.633362,411.744659 701.332703,413.877960 697.789612,415.837921 
	C690.750122,419.732025 690.907104,419.907837 686.744751,412.852112 
	C685.313721,410.426300 684.497375,407.075287 680.120422,409.516418 
	C672.762512,413.620117 672.317017,413.841370 674.926086,419.094513 
	C676.219788,421.699188 675.895325,423.474243 673.480591,424.999603 
	C671.933716,425.976746 670.438477,427.037659 668.942688,428.093140 
	C666.567810,429.768921 664.672668,429.493835 663.154236,426.884979 
	C658.381592,418.684998 653.587769,410.497101 648.753540,402.333282 
	C647.145203,399.617035 647.754578,397.659241 650.424377,396.114471 
	C651.715576,395.367340 652.922607,394.465576 654.125183,393.576294 
	C656.761597,391.626831 658.958252,391.487671 660.481018,394.909149 
	C661.741699,397.741913 663.681885,397.812988 666.121704,396.310577 
	C675.192566,390.724823 684.297974,385.195129 693.388672,379.641571 
	C695.344604,378.446686 695.890686,377.046692 695.091858,374.633392 
	C693.031311,368.408539 699.115051,367.862488 702.206482,365.685333 
	C705.697021,363.227081 706.570190,367.173859 707.788635,369.261963 
	C715.505615,382.486725 723.133362,395.763519 730.799683,409.017853 
	C732.052551,411.183960 733.815735,413.315186 730.631592,415.756042 
z"/>
<path fill="#000000" opacity="1.000000" stroke="none" 
	d="
M688.530640,499.769623 
	C679.871155,494.432922 676.322083,486.519073 678.873230,477.078369 
	C679.965332,473.036743 676.637512,470.825104 676.322449,467.349304 
	C675.768127,461.234406 675.514343,460.943237 681.560974,459.725525 
	C685.795288,458.872803 690.082214,458.244934 694.271301,457.214630 
	C697.888611,456.324951 700.129822,457.194855 700.746399,461.058289 
	C701.295593,464.499359 704.532288,468.500580 698.577881,470.547852 
	C695.227966,471.699615 692.880310,473.990112 692.283020,477.644379 
	C691.845398,480.321472 692.415771,482.650787 695.151794,483.902008 
	C697.758240,485.094055 699.659546,483.740204 701.313538,481.977020 
	C703.190979,479.975739 703.857544,477.323883 704.727783,474.822723 
	C706.313843,470.264221 707.790222,465.673767 710.473938,461.590607 
	C715.629211,453.746948 725.860901,449.795410 733.953674,452.555023 
	C742.165344,455.355164 746.896973,463.175018 745.996155,473.256165 
	C745.612061,477.554047 747.932190,481.151855 748.162781,485.283997 
	C748.372742,489.046692 747.797302,491.372131 743.505432,491.775909 
	C739.041809,492.195831 734.610535,492.986359 730.177307,493.691498 
	C727.757385,494.076355 726.278381,493.250549 725.923279,490.762787 
	C725.594421,488.458771 725.276062,486.151459 725.038208,483.836853 
	C724.828735,481.798798 725.472290,480.298523 727.691528,479.694641 
	C729.897766,479.094269 731.378784,477.477875 732.508728,475.581665 
	C733.987183,473.100464 734.039978,470.768524 731.195984,469.217529 
	C728.611206,467.807831 726.486816,468.882233 725.407471,471.256195 
	C723.760498,474.878571 722.546570,478.697418 721.139954,482.429535 
	C717.583435,491.865936 712.542969,499.699341 701.541382,501.654297 
	C697.046753,502.452972 692.968933,501.453033 688.530640,499.769623 
z"/>
<path fill="#000000" opacity="1.000000" stroke="none" 
	d="
M445.880249,301.988281 
	C450.409027,302.730957 454.495056,303.550537 458.357147,305.154022 
	C466.960144,308.725830 470.573456,315.751862 470.710968,324.528809 
	C470.840393,332.786407 467.511383,339.409882 459.503906,342.945923 
	C458.895538,343.214539 458.256561,343.686829 457.654114,343.654083 
	C450.499786,343.265106 444.469513,346.628876 438.240631,349.350647 
	C435.938599,350.356537 434.382416,349.562866 433.551575,347.243103 
	C431.532532,341.605896 429.514252,335.968384 427.509430,330.326141 
	C427.170593,329.372589 426.994537,328.418671 427.597076,327.458954 
	C429.884094,323.816559 438.755219,323.433411 441.186249,326.863525 
	C441.855377,327.807648 442.536804,328.791260 443.400787,329.539520 
	C445.530182,331.383575 447.915375,332.396393 450.724030,331.014404 
	C452.652863,330.065369 453.996643,328.638184 453.859741,326.354919 
	C453.669159,323.175903 451.445343,321.647491 448.728516,321.003601 
	C444.205566,319.931763 439.606750,319.183380 435.048340,318.257050 
	C426.386108,316.496735 420.293945,311.943695 417.666443,303.083130 
	C413.917450,290.440796 423.297516,278.443878 436.536987,279.367279 
	C440.548279,279.647003 442.718018,276.143005 446.175140,275.048645 
	C450.360626,273.723694 452.322113,274.215424 453.486053,278.467773 
	C454.670197,282.793854 456.170502,287.037231 457.637268,291.280579 
	C458.522644,293.841949 457.828217,295.439056 455.219147,296.261993 
	C453.475250,296.812042 451.721985,297.382782 450.063812,298.142609 
	C447.527069,299.305115 445.696533,298.943756 444.257935,296.358978 
	C442.816437,293.768921 440.742767,291.915161 437.452881,292.171570 
	C435.324524,292.337463 434.116211,293.609894 433.621002,295.536743 
	C433.125183,297.466064 434.200958,298.799591 435.812897,299.550903 
	C438.856567,300.969666 442.146240,301.535431 445.880249,301.988281 
z"/>
<path fill="#000000" opacity="1.000000" stroke="none" 
	d="
M738.776489,429.438324 
	C741.714172,439.717041 740.754700,441.239380 730.745789,444.194672 
	C724.712952,445.975922 719.282593,445.134796 714.233704,441.473816 
	C712.090027,439.919464 710.802856,437.929016 710.910400,435.162659 
	C711.059814,431.320190 713.089050,430.141785 716.517029,432.016327 
	C717.962280,432.806671 719.232971,434.071899 720.759521,434.519989 
	C722.854248,435.134857 725.642212,435.474182 724.924377,431.875793 
	C723.477661,424.622681 729.734497,426.059021 733.097717,424.579193 
	C737.179199,422.783295 737.463135,426.703369 738.776489,429.438324 
z"/>
<path fill="#000000" opacity="1.000000" stroke="none" 
	d="
M495.525818,502.350494 
	C495.853943,504.973602 494.823212,506.262695 492.531189,505.569153 
	C491.170319,505.157440 490.572418,503.615723 491.312225,502.301697 
	C492.377869,500.408936 493.892273,500.603302 495.525818,502.350494 
z"/>
</svg>