<svg xmlns="http://www.w3.org/2000/svg" xml:space="preserve" viewBox="0 0 1024 1024"><path d="M804.1 403c.007 130.64.015 260.778.025 390.918.001 9.89.007 9.972-9.906 9.948-49.151-.122-98.302-.36-147.453-.428-59.643-.08-119.287-.033-178.93-.035-41.483-.002-82.969-.323-124.446.12-29.98.32-59.959-.729-89.938.279-8.977.301-17.984-.369-26.975-.306-3.61.025-4.666-1.522-4.626-4.79.083-6.831-.004-13.664-.004-20.496q-.017-274.442-.03-548.885c0-6.395.19-6.619 6.303-6.62q284.94-.037 569.88-.062c5.753 0 6.145.41 6.145 6.895-.005 57.654-.027 115.308-.045 173.462M642.5 234.92c-26.156-.033-52.312-.25-78.467-.372-55.644-.26-111.292.268-166.938.357-51.323.082-102.647.037-153.97-.012-8.872-.008-8.864-.145-8.863 8.483.025 178.465.047 356.93.075 535.396.002 12.141.02 12.131 12.033 12.129q269.198-.044 538.394-.086c6.814 0 6.823.004 6.827-6.974.052-79.984.149-159.969.14-239.953-.012-101.48-.137-202.958-.081-304.437.002-4.535-1.896-5.15-5.705-5.128-47.481.266-94.963.414-143.445.597"/><path d="M369.923 276.905c37.462-22.573 77.517-35.96 120.866-39.241 35.268-2.67 69.896.702 103.658 11.336 39.677 12.496 74.932 32.785 105.508 61.08 39.788 36.822 66.997 81.378 80.695 133.787 9.27 35.469 11.136 71.513 5.938 107.995-6.81 47.796-24.81 90.847-54.343 128.78-38.891 49.952-88.752 84.154-150.452 99.723-78.691 19.856-152.607 7.633-220.42-36.74-58.498-38.28-96.929-91.799-115.672-159.386-8.252-29.758-10.71-60.088-8.599-90.613 3.9-56.371 23.57-106.931 58.721-151.373 20.7-26.17 45.402-47.732 74.1-65.348m74.403 491.135c36.695 10.156 73.88 11.748 111.328 5.567 52.92-8.734 99.873-30.983 137.946-68.52 80.14-79.008 104.129-173.726 67.779-280.21-28.783-84.316-89.694-138.41-174.426-165.462-34.351-10.967-69.741-13.024-105.282-8.865-43.425 5.081-83.26 20.47-119.127 45.652-53.028 37.232-88.036 87.257-105.33 149.621-6.857 24.726-8.758 50.02-8.26 75.662.582 29.844 6.575 58.524 17.23 86.2 18.043 46.863 47.545 85.337 87.442 115.687 27.046 20.575 57.014 35.556 90.7 44.668"/><path d="M572.92 391.97c27.366 15.667 47.116 37.567 57.393 67.147 11.862 34.142 9.612 67.685-7.619 99.555-21.833 40.382-56.406 63.052-101.879 65.844-45.841 2.814-83.554-15.396-109.973-53.333-31.804-45.67-29.696-103.951 4.812-147.577 20.723-26.199 48.233-41.424 81.56-45.76 26.643-3.467 51.69 1.54 75.707 14.123m-44.067 88.198c-.018-4.6 1.853-8.383 6.713-8.21 9.162.324 8.686 7.184 8.216 14.007 1.217-4.824 1.67-9.465 1.992-14.116.896-12.901 3.21-25.477 9.24-37.053 4.717-9.055 11.06-16.67 20.864-20.639 1.634-.662 3.562-1.567 5.175-.034 1.597 1.517.908 3.405.266 5.14-4.97 13.42-6.587 27.104-3.409 41.207.443 1.963.639 4.172-1.513 5.35-2.07 1.134-3.78-.07-5.434-1.34-2.149-1.651-3.81-4.141-6.795-4.532-1.957 4.8-2.84 15.775-1.8 22.432.266 1.7.18 4.117 2.858 3.797 2.414-.288 3.776-1.718 3.414-4.524-.495-3.84.897-6.928 4.573-8.573 2.891-1.293 5.584-.616 7.849 1.5 2.81 2.623 3.954 5.763 2.284 9.462-.683 1.512-1.006 2.643.632 3.857 5.661 4.2 19.091-.128 21.18-6.908 1.288-4.18 4.886-6.67 8.601-5.951 3.743.723 7 4.64 6.556 8.303-.523 4.328-2.921 7.049-7.516 7.164-1.717.043-3.346-.073-4.411 1.612-8.81 13.928-18.743 27.197-25.93 42.07-2.544 5.264-5.497 9.415-10.857 11.676-2.656 1.12-4.004 2.805-4.567 5.864-4.02 21.84-14.714 38.73-36.099 47.421-.92.374-1.822.856-2.629 1.432-3.357 2.4-3.72 5.868-2.733 9.403 1.11 3.973 4.362 2.106 6.726 1.766 3.943-.566 7.94-1.212 11.711-2.444 45.693-14.932 73.593-45.906 80.745-93.525 5.227-34.799-4.268-66.318-28.844-92.047-37.251-39.001-92.285-46.837-139.674-20.692-49.018 27.044-70.37 91.782-46.81 142.587 17.118 36.913 45.51 59.492 85.869 66.643 4.51.799 6.11-.83 6.513-4.988.528-5.454-2.317-8.363-7.014-10.113-11.594-4.318-21.177-11.157-27.472-22.07-3.704-6.422-6.004-13.4-7.257-20.633-.774-4.471-2.472-7.609-6.727-9.602-4.705-2.203-8.004-5.836-9.198-11.167-.353-1.577-1.286-3.078-2.173-4.474-7.412-11.67-14.886-23.303-22.315-34.963-1.196-1.876-2.538-3.37-4.844-4.01-4.516-1.251-6.67-4.4-5.892-9.027.625-3.719 3.319-6.014 6.952-6.093 4.682-.103 7.201 2.97 8.064 7.368.358 1.82.401 3.79 2.309 4.706 5.801 2.787 11.713 3.823 17.72.573 2.54-1.375 3.925-3.014 3.119-6.414-1.2-5.059.882-8.387 4.97-9.376 5.785-1.4 10.48 3.315 9.345 9.373-.29 1.552-1.95 3.53 1.95 4.372 1.887-8.561 2.252-16.832-.042-25.558-2.866.824-4.439 2.298-6.1 3.627-1.76 1.407-3.32 3.861-5.983 2.314-2.553-1.484-1.58-4.155-1.25-6.374 2.025-13.564 1.579-26.88-3.585-39.795-.769-1.923-2.453-4.06-.37-5.974 2.13-1.956 4.473-.468 6.517.483 8.478 3.945 14.557 10.407 18.88 18.586 7.01 13.262 9.603 27.547 9.878 42.401.069 3.682-.707 7.629 1.853 10.973 2.637-.704 4.697-1.325 3.56-4.737-1.236-3.715-.02-6.949 3.174-9.197 2.39-1.683 5.076-1.715 7.525-.096 3.472 2.296 4.594 5.674 3.464 9.595-.687 2.385-.377 4.03 2.195 4.51 2.909.545 3.412-1.737 3.463-3.732.273-10.651.91-21.325-.354-31.945-.618-5.199-1.363-5.383-6.017-3.187-3.19 1.506-6.686 4.67-9.992 1.274-3.053-3.136-.107-6.71 1.273-9.692 6.647-14.36 13.163-28.774 19.232-43.39.661-1.593.98-3.669 3.37-3.773 1.984.832 2.382 2.77 3.104 4.381a3113 3113 0 0 1 12.106 27.403c2.732 6.255 5.429 12.526 8.053 18.827.928 2.227 1.349 4.648-.623 6.539-2.08 1.993-4.261.826-6.465-.13-2.346-1.02-4.325-3.092-7.864-2.918-.312 12.11-.69 24.028-.858 35.948-.029 2.061-.503 5.37 3.38 4.54 2.81-.6 5.755-1.642 3.983-6.47m-81.24 24.85c16.623-6.425 33.83-10.46 51.604-12.513-2.672-1.22-4.933-4.091-8.147-2.176-7.285 4.341-15.526 5.474-23.196 3.584-9.784-2.41-18.597-2.735-27.8 1.869-2.845 1.423-7.003.22-11.72.22 6.221 9.98 11.985 18.704 17.174 27.757 2.746 4.791 5.567 6.896 11.045 4.284 2.96-1.41 6.375-1.846 9.558-2.81 22.002-6.661 44.476-8.006 67.208-5.668 10.884 1.12 21.558 3.559 32.116 6.448-13.766-5.175-28.034-8.028-42.686-8.685-22.696-1.017-44.842 2.164-66.302 9.687-3.326 1.166-5.214.547-6.67-2.743-1.678-3.795-3.82-7.387-5.772-11.06-2.786-5.241-2.687-5.52 3.588-8.195m107.534-7.764c8.488 2.384 16.945 4.831 25.163 8.093 4.287 1.701 5.19 3.773 2.758 7.88-3.04 5.135-5.519 10.6-8.24 15.924l1.621.964c7.782-10.886 14.311-22.603 21.992-34.505-7.955 1.315-14.882.935-20.908-3.363-2.663-1.899-4.851-1.925-7.803-.717-9.966 4.08-20.215 4.415-30.072.003-4.252-1.903-7.423-1.512-11.59 1.358 9.337.969 17.97 1.628 27.08 4.363m-8.866 40.552c.152-1.15.376-2.297.444-3.453.382-6.507.166-6.861-6.447-8.023-4.408-.774-8.874-1.217-13.297-1.914-3.367-.531-5.109.521-4.784 4.191.38 4.297.857 8.603.89 12.908.03 3.729 1.907 4.5 5.072 4.193 3.794-.368 7.621-.996 11.397-.798 4.746.248 6.785-1.635 6.725-7.104m-57.678 7.015c2.646.232 5.314.323 7.933.73 4.21.655 6.8-.476 6.864-5.238.055-4.15.27-8.3.449-12.448.11-2.556-.948-3.674-3.595-3.324-3.456.458-6.96.586-10.393 1.159-11.586 1.931-9.654.791-9.624 11.68.019 6.806.446 7.14 8.366 7.44m-1.036 18.16c2.37 1.998 4.877 3.862 8.08 1.98 3.726-2.189 5.221-5.898 5.978-9.93.238-1.27-.322-2.478-1.733-2.569-5.71-.37-11.43-.607-17.474-.91.155 4.805 2.003 8.023 5.149 11.43m47.156 1.527c4.969-2.748 7.302-7.122 8.33-12.256-5.649 0-10.752-.02-15.854.011-1.707.01-2.76.663-2.807 2.662-.125 5.197 4.148 9.631 10.331 9.583m-52.695-55.23c-1.133-1.824-2.202-3.691-3.419-5.457-.96-1.393-2.27-2.008-3.731-.662-1.002.924-1.176 11.31.032 13.42.658-9.842 5.341-4.108 8.703-2.337 1.119-2.33-.768-3.097-1.585-4.965m71.03-.462c.08-1.696 1.825-3.336.455-5.43-2.025 1.848-.564 5.057-3.283 6.118-3.295-1.618-1.828-6.916-6.553-8.023-.832 4.154-1.62 8.086-2.61 13.036 3.318-2.519 1.328-6.39 4.323-7.999 2.858 2.114 1.86 6.703 5.202 8.543 1.914-1.543 1.732-3.684 2.466-6.245m-33.433-6.63-3.301 8.395.45 3.37c3.918-13.898 6.78-2.525 10.923-1.893-1.246-4.267-1.904-7.661-3.236-10.766-1.337-3.114-3.132-2.252-4.836.893m-22.87-1.346c-2.978-2.503-5.862-.895-9.432.033 2.84 3.579.321 8.6 4.334 11.608-.1-3.03.64-4.986 3.6-5.932 2.484-.794 3.26-2.687 1.498-5.71m8.793-.078c2.014 3.226.712 6.98 1.444 11.409 4.332-4.027-1.832-11.169 5.336-13.037-3.724-.6-7.236-1.649-10.665 1.642 1.52-.169 2.44-.272 3.885-.014m-42.638 7.133c.955-.128 2.054 1.545 3.051-.43-2.462-2.14-4.925-1.497-7.152.096-2.054 1.47-2.835 3.89-2.245 6.218.788 3.11 2.945 5.028 6.72 5.111-6.205-5.002-6.472-8.634-.374-10.995m106.418 11.034c2.139-2.423.545-4.33-1.027-6.024-1.719-1.852-2.873-3.531.433-5.847-4.991 1.29-5.624 2.847-2.943 6.12 1.714 2.094 3.788 3.864.739 6.608.765-.158 1.53-.315 2.798-.857m-36.312-7.374c.961 1.214 2.28 1.457 2.259-.312-.043-3.653 1.094-7.175.664-10.924-2.395 3.143-2.223 7.017-2.923 11.236m-78.984 25.248c.88.925 1.612 2.1 3.248 1.927.708-1.543.906-3.026-.31-4.627-1.403.262-2.995.094-2.938 2.7M350.16 561.13c1.615-.95 2.93-1.67 4.215-2.437 2.48-1.48 4.318-1.032 5.743 1.585 6.44 11.83 13.094 23.546 19.36 35.466 3.717 7.067 4.381 14.554-.844 21.181-5.171 6.559-12.12 9.095-20.467 6.696-.597-.171-1.285-.022-2.251-.022-1.217 9.38-6.545 15.364-15.347 18.274-8.405 2.778-15.785.437-21.132-6.11-9.93-12.16-16.799-26.322-24.582-39.873-1.171-2.038-.557-3.433 1.377-4.51 1.744-.971 3.51-1.923 5.162-3.035 3.022-2.033 5.546-2.166 7.234 1.589 1.388 3.086 3.368 3.006 6.028 1.497 10.561-5.991 21.145-11.947 31.826-17.722 2.919-1.577 3.416-3.292 1.677-5.915-1.846-2.783-1.443-4.974 2.002-6.664m-26.314 49.228c-3.175 2.782-.676 5.19.75 7.359 1.952 2.968 4.944 4.702 8.55 3.567 6.236-1.963 9.961-4.41 4.724-14.473-1.401-2.692-2.74-3.447-5.343-1.754-2.642 1.718-5.378 3.289-8.68 5.301m25.758-11.487c.889 2.006 2.084 3.806 3.96 4.989 2.626 1.654 5.335 1.547 7.96-.044 2.351-1.424 2.777-3.726 2.145-6.09-.714-2.668-1.257-5.735-4.05-7.059-2.234-1.058-9.404 4.435-10.015 8.204M655.855 574.917c9.26-16.85 29.873-11.412 34.953-.816.925 1.93 2.16 4.06 2.084 6.053-.203 5.237 2.582 6.025 6.853 5.836 2.635-.116 5.306.348 7.946.67 4.774.582 8.955.205 10.845-5.273.757-2.191 2.54-2.399 4.5-1.4.296.151.583.324.886.46 8.48 3.79 8.48 3.79 4.577 12.1-6.167 13.136-6.169 13.178-20.662 12.563-5.648-.24-11.286-.716-16.928-1.083-2.619-.17-5.094-.031-6.04 3.066-.99 3.232 2.11 3.272 3.631 4.4 1.588 1.175 3.567 1.809 5.22 2.911 3.028 2.02 5.39 2.14 7.176-1.594 1.084-2.267 2.996-2.35 5.066-1.2.726.404 1.496.728 2.243 1.095 6.903 3.386 7.058 3.77 3.375 10.304-4.167 7.39-8.482 14.699-12.584 22.125-1.87 3.387-4.053 4.153-7.155 1.683-.26-.206-.55-.375-.835-.547-6.981-4.232-6.982-4.232-3.835-12.175l-36.376-19.556c-.709.33-1.12.385-1.283.616-4.496 6.345-8.363 6.54-14.198.873-2.17-2.11-.953-3.933.124-5.801 6.727-11.677 13.486-23.336 20.417-35.31m16.718 10.961c-5.315-.935-9.422 1.635-10.839 7.552-1.285 5.367 4.285 4.918 6.85 6.91 2.306 1.79 4.43 1.416 5.992-1.6 3.187-6.15 2.98-9.363-2.003-12.862M404.45 712.385c-2.004 3.481-4.015 3.728-7.001 1.423-14.888-11.489-29.869-22.86-44.89-34.174-2.963-2.231-3.298-4.296-.697-6.937 1.164-1.182 2.278-2.45 3.203-3.822 1.884-2.795 3.973-3.332 6.565-.968 2.525 2.304 4.625 1.878 6.663-.802 7.156-9.404 14.353-18.777 21.633-28.084 1.882-2.406 2.23-4.245-.58-6.177-2.158-1.482-2.428-3.393-.538-5.482 1.337-1.478 2.55-3.074 3.742-4.676 2.038-2.738 4.14-2.699 6.722-.612 13.982 11.298 27.963 22.599 42.088 33.716 3.642 2.866 4.263 5.343 1.131 8.975-2.598 3.012-4.843 6.358-6.994 9.716-2.333 3.642-4.795 4.97-8.318 1.482-.817-.81-1.836-1.441-2.828-2.045-4.283-2.608-5.89-5.647-1.933-9.91 1.839-1.98 1.46-3.842-.711-5.485a355 355 0 0 1-9.82-7.707c-2.188-1.78-3.876-1.342-5.415.838-.862 1.223-1.776 2.42-2.77 3.538-2.207 2.483-2.145 4.585.681 6.61 2.432 1.743 4.626 3.817 7.058 5.56 2.475 1.775 2.526 3.677.785 5.915q-.307.392-.608.791c-6.033 8.033-6.033 8.033-13.7 1.576-6.119-5.153-6.137-5.167-11.018 1.064-1.516 1.935-3.45 3.616-4.166 6.447 3.78 4.137 8.652 7.035 13.184 10.34 1.983 1.447 3.126-.132 3.978-1.563 2.789-4.683 5.569-4.228 9.492-.947 7.139 5.97 7.322 5.744 1.727 12.858-2.16 2.747-4.302 5.507-6.666 8.542M603.53 640.512c6.82-5.104 13.412-9.915 19.843-14.933 2.863-2.234 4.939-2.045 7.035.928 2.974 4.217 6.105 8.323 9.194 12.458 1.791 2.399 1.858 4.497-.782 6.382-1.351.964-2.544 2.147-3.83 3.206-5.052 4.164-5.177 4.258-9.309-.864-1.928-2.39-3.566-2.483-5.839-.72-2.63 2.04-5.275 4.096-8.109 5.825-3.507 2.139-3.819 4.147-1.27 7.54 4.723 6.291 4.512 6.448 11.093 1.944.412-.282.847-.53 1.258-.814 6.784-4.682 11.15-3.087 13.677 4.863.577 1.816-.096 2.84-1.397 3.811-2.803 2.091-5.547 4.266-8.412 6.266-2.086 1.455-2.453 3.063-.832 4.984 2.536 3.007 3.976 8.966 7.43 8.684 5.257-.43 9.42-5.156 13.548-8.713 1.852-1.597.087-3.455-1.018-4.805-2.36-2.885-2.245-4.86.927-7.38 10.26-8.154 7.766-7.839 15.392 1.924 1.947 2.492 3.719 5.123 5.712 7.575 2.14 2.632 1.84 4.523-.971 6.572-12.375 9.023-24.64 18.2-36.946 27.317-1.605 1.19-3.15 2.483-4.855 3.511-2.144 1.293-3.788 4.983-6.602 3.265-3.556-2.17-5.485-6.185-7.187-9.97-.748-1.665 1.15-2.612 2.31-3.443 2.376-1.704 2.737-3.532.94-5.89-7.269-9.534-14.525-19.077-21.718-28.668-1.504-2.004-3.173-2.504-5.03-.87-3.474 3.058-5.6 1.396-7.48-1.814a31 31 0 0 0-2.234-3.311c-2.084-2.693-1.51-4.746 1.167-6.713 8.048-5.917 16.009-11.95 24.296-18.147M376.785 390.637c-.143-1.574-.922-2.9-1.97-3.957-3.71-3.747-4.529-7.285 1.089-10.612-7.121-10.474-14.593-20.198-22.187-29.836-1.55-1.966-3.223-1.45-4.725-.092-2.648 2.393-4.447 1.6-6.572-.934-6.15-7.334-6.242-7.252 1.462-12.957 8.828-6.537 17.5-13.3 26.532-19.544 5.894-4.074 12.41-5.551 19.259-1.654 7.417 4.22 11.899 13.388 9.874 21.594-.827 3.353.043 4.88 3.1 5.962 2.816.997 5.52 2.33 8.218 3.63 2.868 1.385 5.562 2.103 8.274-.419 1.975-1.836 3.64-1.43 5.407.75 6.42 7.914 6.193 7.518-1.45 14.155-6.19 5.374-11.727 6.865-18.86 1.748-4.272-3.064-9.555-4.68-14.2-7.276-3.042-1.7-5.266-1.48-7.33 1.657 1.4 3.504 4.133 6.193 6.487 9.138 1.283 1.605 2.888 1.802 4.35.526 3.204-2.794 5.254-1.137 7.447 1.437 5.208 6.115 5.28 6.086-.923 11.001-5.87 4.652-11.777 9.255-17.665 13.884-1.314 1.032-2.611 2.087-4.849 2.197-.49-.092-.768-.398-.768-.398m-6.987-54.777c2.003 1.608 2.178 6.158 5.975 4.674 3.417-1.336 6.381-3.79 6.115-8.233-.17-2.857-1.866-4.747-4.374-5.523-3.798-1.175-6.166 1.818-8.718 3.789-2.14 1.653-.286 3.237 1.002 5.293M624.401 358.843c3.635 5.437 3.04 8.985-1.965 13.254-1.744 1.487-3.288 1.256-4.916-.016-6.816-5.325-13.617-10.67-20.448-15.976-2.45-1.901-2.918-3.855-.583-6.216 1.283-1.298 2.41-2.752 3.582-4.157 1.38-1.654 2.96-2.202 4.731-.696 2.474 2.103 4.343 1.567 6.236-.905 6.372-8.32 12.828-16.575 19.304-24.815 1.896-2.412 2.701-4.493-.456-6.61-1.827-1.224-1.96-2.942-.367-4.668.786-.852 1.463-1.808 2.155-2.743 3.772-5.094 3.72-5.036 8.778-1.002 8.842 7.05 18.127 13.598 26.54 21.123 11.47 10.258 7.93 27.15-6.388 32.795-.771.304-1.624.839-2.359.73-7.075-1.052-8.248 3.53-8.758 8.912-.22 2.31-.722 4.593-1.051 6.894-.264 1.844-.296 3.6 1.209 5.103 1.338 1.336 3.982 2.373 3.014 4.65-1.282 3.015-3.052 5.923-5.725 8.052-.862.687-1.865.654-2.818.162-.588-.303-1.134-.693-1.68-1.07-13.244-9.177-13.236-9.176-9.996-24.925.904-4.394 1.641-8.826 2.667-13.19.472-2.01-.215-3.168-1.805-4.132-2.165-1.313-2.985.427-3.92 1.744-1.718 2.421-4.084 4.405-4.981 7.702m22.767-16.414c3.565.764 6.131-.62 7.78-3.751 1.57-2.982.525-5.506-1.82-7.48-1.678-1.412-3.506-3.898-5.922-2.297-2.874 1.905-5.512 4.758-6.007 8.163-.443 3.047 3.18 3.685 5.969 5.365M494.995 335.171c-5.83 0-11.16-.015-16.49.002-3.165.01-4.578-1.491-4.272-4.672.16-1.653.263-3.323.227-4.982-.06-2.732 1.174-4.104 3.907-3.865 3.742.327 4.458-1.789 4.42-4.928-.12-10.151-.217-20.305-.116-30.455.034-3.517-1.058-5.052-4.804-5.232-5.927-.285-3.7-5.193-4.124-8.43-.372-2.833.001-5.576 3.83-5.567 12.153.029 24.378-.678 36.443.392 20.997 1.861 27.792 18.753 26.8 36.529-.269 4.795-1.367 9.56-3.395 14.016-4.596 10.092-12.825 14.872-23.493 16.18-6.127.752-12.262 1.179-18.933 1.012m24.373-46.845c-3.422-5.223-8.398-7.245-14.467-7.097-2.074.05-3.663.609-3.64 3.038.103 10.945-.412 21.899.567 32.833.275 3.07 1.916 3.795 4.684 3.647 7.63-.409 12.304-3.537 14.226-10.867 1.82-6.946 2.272-14.07-1.37-21.554M338.184 501.98c-1.273 6.903-5.814 3.518-9.158 3.416-2.934-.09-5.4-.936-4.585-4.783.59-2.788-.777-3.913-3.407-4.291-10.208-1.467-20.411-2.97-30.592-4.608-2.609-.42-3.909.108-4.672 2.869-1.831 6.632-6.72 2.648-10.345 2.545-3.846-.108-3.091-2.99-2.801-5.53 1.283-11.237 2.489-22.497 4.973-33.54 3.488-15.503 17.66-19.954 29.313-9.222 1.953 1.798 3.27 1.724 5.1.286 11.46-9.005 31.262-.507 30.567 16.805-.484 12.027-2.82 23.76-4.393 36.054m-16.217-24.573c5.443.536 7.78-2.707 5.754-8.288-1.5-4.129-5.16-4.362-8.714-3.948-4.965.579-5.025 4.744-5.215 8.336-.206 3.89 3.158 2.918 5.395 3.36.65.13 1.308.22 2.78.54m-32.2-9.289c-1.744 6.439 3.734 4.236 6.396 5.21 2.066.754 4.036.443 4.417-2.364.491-3.622-.022-6.824-4.233-7.75-3.348-.738-6.008.074-6.58 4.904M547.297 667.026c6.517-.973 12.628-1.725 18.677-2.818 3.578-.647 5.38.552 5.906 4.08a1613 1613 0 0 0 3.29 21.19c.532 3.256-.647 4.852-3.978 5.506-10.113 1.985-10.093 2.082-11.818-8.315-1.1-6.622-1.653-7.03-6.209-5.824-2.498.662-3.246 2.027-2.844 4.345 2.157 12.43 4.322 24.857 6.474 37.224 1.655 1.22 3.323.306 4.927.345 2.18.052 5.003-1.721 6.245 1.221 1.474 3.493 2.366 7.305 1.601 11.145-.274 1.377-1.984 1.672-3.297 1.89-11.649 1.928-23.308 3.794-34.953 5.749-2.79.468-4.052-.758-4.431-3.343-.242-1.644-.395-3.317-.816-4.917-1.036-3.947.38-6.27 4.446-6.478 4.44-.227 5.593-2.246 4.88-6.51-1.755-10.495-3.164-21.048-4.696-31.58-.414-2.847-1.073-5.237-4.874-4.783-3.963.474-3.68 3.103-3.338 5.877.06.494.208.977.289 1.469 1.506 9.145-1.498 12.332-10.621 11.4-2.115-.216-2.82-1.604-3.148-3.298-1.453-7.513-2.92-15.024-4.212-22.565-.75-4.374 2.563-4.712 5.616-5.191 12.152-1.906 24.301-3.826 36.884-5.819M552.631 338.386c-10.865-10.058-12.106-22.218-8.288-35.164 4.005-13.578 12.57-22.986 26.995-25.86 15.275-3.043 40.408 8.498 40.052 32.466-.056 3.825.13 7.649-.842 11.424-7.06 27.427-36.048 36.175-57.917 17.134m22.06-44.575c-8.905 4.706-14.537 15.446-13.27 25.306.927 7.216 4.056 11.171 10.057 12.714 6.5 1.67 11.713-.332 15.886-6.28 3.528-5.03 5.258-10.726 5.379-16.828.225-11.424-5.965-16.793-18.051-14.912M377.208 391.09c.68 1.908-.018 3.355-.888 4.846-4.108 7.048-8.264 14.073-12.168 21.234-1.618 2.967-3.625 3.357-6.028 1.557-3.39-2.54-9.677-3.52-5.928-10.124-6.451-3.39-6.871-3.28-10.283 2.488-4.538 7.672-4.46 8.596 1.012 12.133 4.8-4.132 9.293-3.754 13.94 1.028 1.44 1.48 1.389 2.912.452 4.5-3.808 6.45-7.66 12.875-11.443 19.34-1.478 2.525-3.305 2.397-5.411.941-1.644-1.136-3.234-2.356-4.925-3.417-2.744-1.722-3.583-3.795-1.598-6.641.865-1.24 1.729-2.536.343-4.025-8.242-8.852-16.474-17.714-24.684-26.546-4.694 4.03-11.516 3.198-14.935-1.214-1.188-1.534-.55-2.83.168-4.142 5.68-10.365 11.41-20.703 17.076-31.075 1.432-2.621 3.236-3.122 5.688-1.414.68.474 1.391.94 2.15 1.263 4.5 1.914 7.006 4.598 3.723 9.237.678 1.85 2.12 2.075 3.352 2.378 10.668 2.62 21.356 5.158 32.031 7.752 1.837.446 3.95 1.082 4.84-1.071 2.212-5.357 5.586-4.004 9.203-1.945 1.154.657 2.247 1.42 3.629 2.3.261.164.539.47.684.617m-52.522 12.775c1.468 1.231 2.271 3.322 4.607 3.57 1.658-1.156 2.935-2.499 2.564-5.044l-9.718-3.077c-.473 2.401 1.274 2.965 2.547 4.55M487.617 728.342c-7.889 13.967-22.167 15.672-35.995 4.335-4.512 3.784-8.837.105-13.305-.794-2.126-.428-1.94-2.474-1.487-4.145q2.541-9.397 5.207-18.759c.64-2.249 2.074-3.307 4.521-2.675 1.933.5 3.884.947 5.848 1.297 2.869.51 4.236 1.969 4.346 5.055.094 2.601.132 5.35 1.685 7.712 2.164 3.292 7 4.7 9.55 2.442 3.056-2.706 2.767-6.16.322-8.893-3.313-3.704-7.168-6.925-10.807-10.337-6.113-5.73-10.022-12.302-8.916-21.157.997-7.994 4.926-13.759 12.388-16.702 7.686-3.031 14.688-1.361 20.793 4.145.737.664 1.39 1.421 2.305 2.364 4.47-3.71 8.766-.787 13.084.39 2.09.568 1.924 2.41 1.447 4.147-1.45 5.291-2.905 10.582-4.317 15.884-.71 2.665-2.358 3.405-4.906 2.652-2.073-.613-4.149-1.248-6.262-1.69-3.063-.64-4.677-2.167-4.31-5.528.379-3.481-1.058-6.13-4.185-7.84-2.527-1.382-4.824-1.157-6.786.956-2.085 2.246-1.118 4.447.649 6.18 4.51 4.422 9.279 8.582 13.774 13.02 8.776 8.661 10.236 16.27 5.357 27.941M730.632 415.756a2964 2964 0 0 1-12.956 8.197c-2.645 1.667-4.65 1.381-5.898-1.775-.609-1.54-1.342-3.062-2.234-4.453-1.856-2.894-1.881-5.297 1.515-6.968 2.835-1.395 2.783-3.329 1.262-5.7-1.078-1.68-2.051-3.43-3.01-5.182-3.28-5.993-7.107-6.34-11.927-1.175-1.272 1.363-1.151 2.62-.42 4.074.973 1.933 1.854 3.916 2.905 5.804 1.764 3.167 1.464 5.3-2.08 7.26-7.039 3.894-6.882 4.07-11.044-2.986-1.431-2.426-2.248-5.777-6.625-3.336-7.357 4.104-7.803 4.325-5.194 9.579 1.294 2.604.97 4.38-1.445 5.905-1.547.977-3.043 2.038-4.538 3.093-2.375 1.676-4.27 1.4-5.789-1.208-4.772-8.2-9.566-16.388-14.4-24.552-1.609-2.716-1-4.674 1.67-6.219 1.292-.747 2.499-1.648 3.701-2.538 2.637-1.95 4.833-2.088 6.356 1.333 1.26 2.833 3.2 2.904 5.64 1.402 9.072-5.586 18.177-11.116 27.268-16.67 1.956-1.194 2.502-2.594 1.703-5.008-2.06-6.224 4.023-6.77 7.114-8.948 3.491-2.458 4.364 1.489 5.583 3.577 7.717 13.225 15.344 26.502 23.01 39.756 1.254 2.166 3.017 4.297-.167 6.738M688.53 499.77c-8.659-5.337-12.208-13.25-9.657-22.692 1.092-4.041-2.235-6.253-2.55-9.729-.555-6.115-.809-6.406 5.238-7.623 4.234-.853 8.521-1.481 12.71-2.511 3.618-.89 5.859-.02 6.475 3.843.55 3.441 3.786 7.443-2.168 9.49-3.35 1.152-5.698 3.442-6.295 7.096-.438 2.677.133 5.007 2.869 6.258 2.606 1.192 4.508-.162 6.162-1.925 1.877-2.001 2.544-4.653 3.414-7.154 1.586-4.559 3.062-9.15 5.746-13.232 5.155-7.844 15.387-11.796 23.48-9.036 8.211 2.8 12.943 10.62 12.042 20.701-.384 4.298 1.936 7.896 2.167 12.028.21 3.763-.366 6.088-4.658 6.492-4.463.42-8.894 1.21-13.328 1.915-2.42.385-3.899-.44-4.254-2.928-.329-2.304-.647-4.612-.885-6.926-.21-2.038.434-3.538 2.654-4.142 2.206-.6 3.687-2.217 4.817-4.113 1.478-2.482 1.531-4.813-1.313-6.364-2.585-1.41-4.71-.336-5.789 2.038-1.647 3.623-2.86 7.441-4.267 11.174-3.557 9.436-8.597 17.27-19.599 19.224-4.494.799-8.572-.201-13.01-1.884M445.88 301.988c4.529.743 8.615 1.563 12.477 3.166 8.603 3.572 12.216 10.598 12.354 19.375.13 8.257-3.2 14.88-11.207 18.417-.608.269-1.247.74-1.85.708-7.154-.389-13.184 2.975-19.413 5.697-2.302 1.006-3.859.212-4.69-2.108a7130 7130 0 0 1-6.042-16.917c-.338-.953-.514-1.907.088-2.867 2.287-3.642 11.158-4.026 13.59-.595.668.944 1.35 1.927 2.214 2.676 2.13 1.844 4.514 2.856 7.323 1.474 1.929-.949 3.273-2.376 3.136-4.66-.19-3.178-2.415-4.707-5.131-5.35-4.523-1.072-9.122-1.82-13.68-2.747-8.663-1.76-14.755-6.313-17.383-15.174-3.749-12.642 5.632-24.64 18.871-23.716 4.011.28 6.181-3.224 9.638-4.318 4.186-1.325 6.147-.834 7.311 3.419 1.184 4.326 2.685 8.57 4.151 12.813.886 2.56.191 4.158-2.418 4.981-1.744.55-3.497 1.12-5.155 1.88-2.537 1.163-4.367.802-5.806-1.783-1.442-2.59-3.515-4.444-6.805-4.187-2.128.165-3.337 1.438-3.832 3.365-.496 1.93.58 3.263 2.192 4.014 3.044 1.419 6.333 1.984 10.067 2.437M738.776 429.438c2.938 10.279 1.979 11.801-8.03 14.757-6.033 1.78-11.463.94-16.512-2.721-2.144-1.555-3.431-3.545-3.324-6.311.15-3.843 2.18-5.021 5.607-3.147 1.445.79 2.716 2.056 4.243 2.504 2.094.615 4.882.954 4.164-2.644-1.446-7.253 4.81-5.817 8.174-7.297 4.081-1.796 4.365 2.124 5.678 4.86"/><path d="M495.526 502.35c.328 2.624-.703 3.913-2.995 3.22-1.36-.413-1.959-1.954-1.219-3.268 1.066-1.893 2.58-1.699 4.214.048"/></svg>