<svg xmlns="http://www.w3.org/2000/svg" xml:space="preserve" viewBox="0 0 1024 576"><path d="M90.513 313.28c-.175-23.243-.328-46.039-.48-68.835-.008-1.166 0-2.331-.004-3.497-.04-12.564-.203-12.772-12.696-14.787-1.757-.283-3.329-.621-3.45-2.813-.14-2.527 1.64-3.001 3.56-3.219 1.154-.13 2.327-.127 3.491-.127 22.147.004 44.293-.034 66.439.06 6.493.027 12.946.716 19.297 2.21 16.021 3.77 25.401 14.522 25.617 29.44.225 15.586-8.88 27.217-24.68 31.518-.625.17-1.267.279-3.04.663 4.506 1.525 8.063 2.559 11.49 3.92 14.392 5.717 22.274 17.34 22.098 32.385-.174 14.772-8.219 25.896-22.82 31.305-7.855 2.91-16.021 4.653-24.397 4.705-23.977.15-47.956.105-71.934.057-1.95-.003-4.812.922-5.128-2.369-.355-3.701 2.738-2.987 4.887-3.302 9.583-1.403 11.059-3.079 11.268-12.908.17-7.987.336-15.974.482-24.407m58.933 30.716c9.145-9.525 8.307-21.374 6.983-32.946-1.408-12.302-8.783-19.805-19.565-21.609-5.737-.96-6.863-.1-6.883 5.673-.05 14.135-.087 28.27.006 42.405.065 9.866 4.909 13.144 14.199 9.697 1.68-.624 3.153-1.802 5.26-3.22m1.328-74.915c2.804-7.554 2.776-15.418 1.682-23.158-1.64-11.6-7.967-17.546-17.472-17.73-3.252-.063-4.94.744-4.925 4.392.062 14.642-.017 29.284-.14 43.926-.03 3.62 1.719 4.686 5.003 4.26 7.132-.923 12.433-4.401 15.852-11.69M784.623 229.223c25.647 15.232 34.018 38.457 31.834 66.467-1.634 20.951-10.58 38.03-28.692 49.463-11.986 7.565-25.416 10.839-39.45 11.025-21.651.288-43.308.091-64.963.092-.997 0-2.003-.015-2.99-.143-1.589-.207-2.266-1.269-2.249-2.784.015-1.332.715-2.22 2.04-2.434 1.147-.185 2.324-.179 3.479-.322 9.276-1.149 11.738-3.738 11.944-13.2.177-8.159.06-16.324.057-24.486-.005-23.32-.01-46.64-.043-69.96-.003-2.159-.037-4.342-.35-6.47-1.011-6.86-2.926-8.79-9.733-9.991-1.634-.288-3.317-.29-4.964-.514-1.493-.203-2.412-1.058-2.472-2.643-.06-1.576.773-2.528 2.243-2.846 1.132-.246 2.307-.432 3.46-.415 23.64.346 47.297-.923 70.921.674 10.428.704 20.296 3.548 29.928 8.487m-9.083 43.824c-1.189-7.91-2.612-15.748-5.72-23.199-5.203-12.474-14.388-19.69-27.83-21.366-5.851-.73-6.797.105-6.8 5.918-.017 33.65-.017 67.3-.01 100.95 0 1.831-.04 3.681.194 5.49.573 4.444 3.088 6.899 7.683 6.85 6.56-.07 12.389-2.057 17.35-6.522 5.943-5.35 8.837-12.384 11.275-19.704 5.169-15.514 4.386-31.525 3.858-48.417M905.625 347.616c4.1-.447 7.797-.593 11.36-1.361 10.622-2.291 17.495-9.175 21.927-18.752 1.537-3.32 2.778-6.778 4.146-10.176.698-1.735 1.816-2.781 3.827-2.368 2.145.44 2.513 2.05 2.244 3.818-1.728 11.35-3.526 22.69-5.28 34.036-.407 2.627-1.942 3.607-4.519 3.53-3.497-.103-6.998-.025-10.498-.026q-47.995-.01-95.989-.026c-1.333 0-2.667-.001-3.997-.071-1.784-.094-2.772-1.044-2.713-2.868.052-1.604 1.065-2.35 2.555-2.55 1.647-.22 3.317-.311 4.943-.635 6.963-1.389 9.028-3.731 9.088-10.845.11-12.998.066-25.997.067-38.995.002-20.498.005-40.995-.026-61.493-.015-9.345-2.196-11.671-11.58-12.619-2.22-.224-5.286.33-4.969-3.243.29-3.262 3.313-2.854 5.512-2.862 24.497-.094 48.994-.099 73.49-.123 9.666-.01 19.332.055 28.997-.045 3.432-.035 5.125.998 5.245 4.82.309 9.817 1.023 19.622 1.53 29.433.104 2.019.204 4.248-2.555 4.634-2.534.355-3.42-1.362-4.046-3.48-.8-2.712-1.857-5.347-2.738-8.037-3.813-11.636-12.653-16.762-24.072-17.945-6.273-.65-12.663-.079-18.975-.466-4.775-.293-6.2 2.014-6.183 6.225.034 8.666-.019 17.331-.028 25.997-.006 5.5.242 11.013-.073 16.494-.252 4.38 1.623 5.423 5.595 5.222 8.557-.433 14.443-4.496 17.413-12.594 1.263-3.443 2.17-6.98 2.585-10.652.237-2.103.323-4.782 3.435-4.488 3.008.283 2.75 2.938 2.768 5.049.074 8.165.05 16.331.06 24.497.01 10.332.041 20.664.005 30.996-.007 2.078.533 4.782-2.6 5.066-3.447.312-3.424-2.583-3.595-4.836-.304-4.03-1.236-7.905-2.514-11.695-2.896-8.59-10.184-13.311-19.218-12.876-2.797.135-3.864 1.257-3.85 3.942.076 14.496-.132 28.999.239 43.487.193 7.56 2.021 8.86 9.526 8.932 4.331.043 8.664-.018 13.46-.05M519.235 264.732c10.437 4.08 20.675 7.668 30.186 12.93 14.018 7.756 23.32 18.778 23.775 35.543.605 22.268-14.378 40.407-36.936 44.997-14.942 3.04-29.475 1.602-43.628-3.99-2.788-1.103-5.551-2.275-8.37-3.295-4.366-1.579-7.839-.641-10.036 3.75-.888 1.775-1.72 3.87-4.304 3.385-2.86-.536-2.207-2.99-2.213-4.844-.04-12.828.01-25.654-.646-38.475-.108-2.113-.984-5.123 2.288-5.804 3.667-.763 3.744 2.425 4.412 4.734 6.259 21.632 20.177 34.35 42.884 36.706 6.245.648 12.344-.366 17.927-3.308 10.857-5.722 12.921-18.927 4.46-27.852-4.476-4.723-10.307-7.299-16.12-9.79-8.266-3.542-16.668-6.764-24.952-10.266-5.076-2.145-9.859-4.88-14.262-8.215-13.404-10.156-17.703-23.98-14.641-39.887 3.13-16.256 14.132-26.177 29.364-31.133 15.273-4.97 30.558-4 45.383 2.405 2.444 1.057 4.81 2.298 7.217 3.44 5.586 2.648 6.411 2.377 9.517-2.962 1.043-1.792 1.593-4.51 4.491-3.747 2.863.754 2.125 3.441 2.136 5.48.055 11 .032 22-.02 32.998-.01 2.113.332 4.633-2.708 5.09-2.941.441-3.508-1.832-4.186-3.954-5.75-17.982-17.637-29.013-36.497-32.047-6.665-1.072-13.02.096-18.714 3.69-9.006 5.686-10.202 16.761-2.847 24.464 4.633 4.852 10.819 7.062 17.04 9.957M371 220.02c7.33 0 14.16-.05 20.988.025 2.272.025 5.094-.26 5.086 3.22-.008 3.292-2.724 2.692-4.785 2.882-.829.076-1.667.041-2.496.113-6.48.562-8.343 3.476-5.383 9.387 5.069 10.121 10.487 20.069 15.774 30.081 3.41 6.46 6.848 12.905 10.223 19.26 2.069-.196 2.306-1.737 2.876-2.823a8951 8951 0 0 0 20.787-39.863c.763-1.472 1.43-3.019 1.928-4.598 2.055-6.52-.8-10.755-7.65-11.421-1.489-.145-2.996-.115-4.484-.27-1.595-.168-2.27-1.164-2.239-2.744.029-1.489.49-2.661 2.112-2.906a27.4 27.4 0 0 1 3.97-.33c9.993-.04 19.987-.087 29.981-.022 2.18.014 5.009-.68 5.473 2.77.42 3.12-2.07 3.232-4.137 3.862-4.53 1.38-7.887 4.331-10.132 8.408-6.663 12.101-13.217 24.263-19.804 36.406-.873 1.61-1.496 3.392-2.566 4.852-8.612 11.751-10.816 24.945-9.69 39.186.641 8.114.04 16.318.262 24.474.194 7.069 2.147 9.054 9.064 10.116 1.316.202 2.635.4 3.958.542 1.984.214 4.29.052 4.111 3.049-.176 2.979-2.545 2.618-4.474 2.621-18.156.031-36.312.018-54.468.014-4.164-.001-8.328.023-12.492-.04-1.798-.026-3.867.182-3.98-2.554-.108-2.592 1.656-2.859 3.624-3.02 1.82-.149 3.64-.395 5.436-.725 6.032-1.106 8.615-3.55 8.748-9.635.28-12.82.129-25.648.18-38.473.008-2.281-1.038-4.163-2.072-6.066-10.492-19.314-20.936-38.654-31.51-57.923-2.994-5.456-6.391-10.674-13.357-11.712-1.735-.259-2.687-1.28-2.64-3.051.056-2.104 1.45-2.921 3.305-2.961 4.162-.089 8.326-.078 12.49-.088 9.16-.02 18.322-.028 27.983-.043M322.852 334.264c1.048 2.5 1.92 4.66 2.808 6.816 2.023 4.91 5.278 8.504 10.716 9.48 2.25.403 3.225 1.475 2.962 3.712-.25 2.13-1.903 2.04-3.384 2.04-20.817.006-41.635-.012-62.452-.035-1.971-.002-3.767-.313-3.648-2.934.103-2.282 1.76-2.446 3.506-2.644 12.943-1.47 13.783-2.891 9.096-15.26-2.3-6.072-4.687-12.112-6.877-18.222-.96-2.682-2.391-4.053-5.438-4.007-9.658.144-19.318.102-28.977.05-2.427-.013-4.139.66-5.014 3.134-2.66 7.525-5.707 14.926-8.051 22.544-2.065 6.711.54 10.172 7.393 11.008 1.818.222 3.635.454 5.455.656 1.79.2 2.677 1.247 2.724 2.977.051 1.897-1.096 2.692-2.843 2.693-12.156.003-24.312-.006-36.469-.04-1.522-.004-2.522-.735-2.593-2.394-.06-1.45.267-2.75 1.887-3.07 9.87-1.95 13.05-9.74 16.135-17.913 13.46-35.66 27.11-71.25 40.592-106.902 1.38-3.651 2.509-6.648 7.453-6.301 4.795.336 9.017-.483 11.471 5.789 14.19 36.265 28.868 72.34 43.548 108.823m-56.094-39.601-10.948-28.25-1.19-.143-13.87 38.02h29.1c-.198-3.552-2.098-6.038-3.092-9.627M606.803 337.784c.019-33.125.054-65.78.035-98.433-.006-9.954-2.16-12.227-12.06-13.168-2.126-.202-4.76.063-4.619-3.148.136-3.076 2.735-2.97 4.861-2.975 21.325-.045 42.65-.044 63.975-.009 2.13.004 4.699-.154 4.893 2.928.205 3.271-2.414 2.99-4.544 3.163-10.199.831-12.86 3.405-12.894 13.68-.107 32.154-.044 64.309.01 96.463.004 2.148.435 4.301.746 6.441.603 4.152 2.99 6.537 7.176 7.102q3.466.465 6.92 1.007c1.783.28 2.57 1.436 2.485 3.163-.085 1.713-1.322 2.146-2.764 2.234-.83.05-1.665.062-2.497.062-20.992 0-41.984 0-62.976-.013-1.163 0-2.344-.003-3.485-.192-1.341-.222-1.934-1.254-1.958-2.528s.532-2.338 1.859-2.607c1.297-.264 2.65-.24 3.966-.434 9.019-1.335 10.574-3.101 10.87-12.736"/></svg>