<svg xmlns="http://www.w3.org/2000/svg" xml:space="preserve" viewBox="0 0 1024 736"><path d="M697.946 401.677c1.875-.892 3.543-.896 5.212-.995 7.526-.448 9.803-1.97 10.16-9.436.55-11.467.456-22.988.081-34.468-.197-6.049-2.395-7.505-8.688-7.8-1.164-.054-2.337-.067-3.487-.235-1.561-.227-3-.801-3.087-2.672-.088-1.908 1.36-2.68 2.88-2.874 9.2-1.172 17.844-3.705 25.775-8.789 3.116-1.997 4.493.421 4.507 3.496.035 7.499-.065 15 .072 22.497.187 10.153-.653 20.325.594 30.46.974 7.917 2.066 9.033 9.812 9.654.995.08 2.002.093 2.983.258 1.506.252 2.37 1.175 2.357 2.743-.014 1.647-1.087 2.402-2.55 2.515-1.99.154-3.993.172-5.99.175-11 .016-21.998.015-32.997.009q-22.35-.014-44.7-.047c-1.333-.002-2.672.015-3.995-.114-1.61-.158-2.979-.767-2.932-2.706.039-1.604 1.177-2.15 2.569-2.588 6.807-2.14 8.012-3.375 8.119-10.386.2-13.162.177-26.33.017-39.493-.076-6.261-3.265-8.833-9.456-7.601-6.34 1.26-11.679 4.707-16.55 8.87-1.582 1.352-1.591 3.208-1.58 5.057.066 11.164.043 22.33.248 33.493.124 6.805 1.367 8.097 8.093 9.617 1.817.41 3.848.67 3.741 3.16-.11 2.569-2.21 2.642-4.04 2.638-12.827-.03-25.653-.187-38.479-.178-13.144.01-26.293.421-39.432.194-20.11-.348-40.217.12-60.333-.22-13.944-.234-27.962-.057-41.943.284a32 32 0 0 1-4.487-.189c-1.498-.177-2.431-1.082-2.374-2.678.05-1.391 1.03-2.033 2.243-2.304.806-.18 1.649-.208 2.477-.275 8.358-.68 10.7-2.644 10.771-11.096.212-24.995.193-49.993-.018-74.988-.066-7.892-2.936-10.31-10.723-10.61-1.165-.044-2.339-.005-3.495-.13-1.65-.179-3.529-.23-3.744-2.477-.242-2.536 1.72-3.077 3.556-3.278 9.674-1.062 19.042-3.015 27.642-7.928 2.565-1.465 4.56-.283 4.907 2.797.223 1.98.297 3.987.298 5.981.023 28.33.012 56.66.038 84.99.003 2.998.147 5.998.307 8.993.24 4.488 2.62 6.852 7.1 7.574 5.246.846 10.451.621 15.667.064 3.653-.39 6.143-2.082 6.815-6.088.499-2.975.837-5.927.837-8.933-.004-22.164.002-44.328-.004-66.493 0-1.499 0-3.005-.14-4.495-.882-9.307-2.76-11.033-12.192-11.321-.998-.03-2.002-.045-2.99-.169-1.242-.155-2.256-.696-2.397-2.103-.165-1.642.847-2.549 2.26-2.798 3.11-.55 6.264-.847 9.378-1.374 5.433-.92 10.754-2.197 15.702-4.783 7.303-3.817 8.692-2.974 8.684 5.102-.02 21.664-.084 43.328-.077 64.993.003 9.83.013 19.665.245 29.492.156 6.596 2.302 8.483 8.73 9.056 4.472.399 8.908.3 13.35-.12 6.2-.59 7.851-2.08 8.545-8.257 1.381-12.294 1.099-24.6-.04-36.901-.443-4.788-3.22-6.426-7.74-6.574-2.853-.094-7.552 1.504-7.677-2.992-.11-3.924 4.564-2.84 7.264-3.381 6.576-1.317 12.895-3.107 18.734-6.605 6.275-3.759 7.872-2.76 7.889 4.422.035 14.832-.122 29.666.094 44.494.24 16.461 2.793 16.346 17.912 15.882 8.895-.274 10.333-2.374 10.44-11.522.12-10.164.128-20.331.041-30.496-.068-8.034-2.107-9.98-10.04-10.299-2.036-.082-4.933.68-5.266-2.35-.382-3.476 2.798-3.08 4.957-3.427 7.458-1.198 14.604-3.17 21.17-7.114 4.825-2.897 6.534-1.817 6.712 3.812.063 1.984.01 3.97.01 5.988 2.462.605 3.606-1.137 5.027-2.039 6.615-4.2 13.104-8.525 21.132-9.785 12.577-1.973 20.437 4.305 20.668 17.143.218 12.162.048 24.33.127 36.495.075 11.424.404 11.745 11.518 13.68.966.169 1.882.63 3.176.896M287.812 390.691c.03-26.117.066-51.772.061-77.427-.001-6.412.363-13.071-7.996-15.118-.873-.213-1.292-1.044-1.253-1.945.051-1.21.946-1.745 1.969-1.899 1.31-.197 2.65-.27 3.977-.274 16.825-.041 33.651-.118 50.476-.053 5.828.022 11.679.373 17.282 2.168 11.433 3.663 14.755 13.81 7.898 23.73-3.108 4.498-7.44 7.567-11.918 10.492-1.496.977-3.253 1.672-4.316 3.948 2.373 1.15 4.733 2.264 7.065 3.433 9.01 4.518 16.64 10.609 20.938 19.954 8.276 17.997 3.261 42.73-27.224 47.607-6.466 1.034-12.935.982-19.425.988-13.827.012-27.654.038-41.48-.023-1.861-.008-4.086.776-5.819-2.252 5.598-2.411 10.37-5.798 9.765-13.329m66.19-14.323c4.261-16.278-9.348-31.652-20.616-36.725-1.293-.582-2.592-.476-3.885.02-6.059 2.328-12.108 4.681-18.182 6.968-2.136.804-3.15 2.183-3.138 4.512.07 12.657.052 25.314.116 37.971.023 4.619 2.549 7.198 7.049 7.391 4.814.207 9.691.367 14.464-.16 11.927-1.313 20.735-6.857 24.191-19.977m-45.393-67.894c-.684 9.525-.77 19.035.053 28.92 6.244-2.096 11.677-4.12 16.9-6.721 5.103-2.542 10.088-5.274 13.757-9.752 2.605-3.18 4.426-6.805 2.745-11.059-1.655-4.186-5.52-5.255-9.383-5.453-5.813-.298-11.66-.147-17.483.055-2.462.086-5.074.459-6.59 4.01"/><path d="M444.958 337.877c4.467 2.769 6.788 7.343 11.949 9.209 3.436 1.242.285 3.688-1.839 4.65-8.336 3.773-16.72 7.44-25.076 11.17-7.14 3.187-14.186 6.601-21.428 9.534-4.005 1.622-4.2 3.7-2.612 7.27 9.186 20.653 33.12 23.935 48.014 6.573 1.48-1.726 2.605-5.961 5.867-3.237 2.895 2.418-.313 4.891-1.795 6.782-11.46 14.617-26.408 21.087-44.809 17.572-29.289-5.594-34.777-38.787-22.911-56.57 11.715-17.556 35.836-23.428 54.64-12.953m-23.009.616c-13.765-1.48-23.557 14.062-18.235 30 9.887-4.467 19.725-8.921 29.573-13.355 2.333-1.05 2.584-2.578 1.627-4.856-2.39-5.692-6.125-9.857-12.965-11.79M571.051 314.574c2.86-6.436 7.27-8.93 13.067-7.725 4.774.992 8.255 5.477 8.153 10.503-.107 5.247-3.711 9.45-8.94 10.43-7.211 1.349-12.75-4.385-12.28-13.208M723.736 306.792c5.394 1.15 8.869 3.814 9.533 9.192.534 4.316-.871 7.9-4.577 10.31-4.216 2.74-8.536 2.627-12.526-.397-3.611-2.736-5.127-6.464-3.952-10.99 1.314-5.058 4.773-7.545 11.522-8.115"/></svg>