<svg xmlns="http://www.w3.org/2000/svg" xml:space="preserve" viewBox="0 0 736 1024"><path d="M162.862 431.565c15.19-1.106 30.042-1.515 44.684 1.004 9.831 1.692 15.425 8.585 17.688 18.178 1.434 6.078 1.238 12.273.77 18.396-.503 6.595-4.596 10.814-11.993 13.661 13.679 4.74 14.468 15.154 14.155 26.077-.162 5.647.396 11.309-.677 16.936-2.026 10.623-6.482 15.594-17.187 16.097-15.122.711-30.294.343-45.445.416-4.291.02-3.991-3.073-3.981-5.968.075-21.648.16-43.296.205-64.943.022-10.824-.072-21.648-.024-32.472.011-2.443-.404-5.047 1.805-7.382m36.087 74.952c-.1-2.99.063-6.017-.375-8.955-.414-2.77-2.416-4.23-5.305-4.315-2.138-.063-3.001 1.08-3.002 3.07-.004 7.482-.053 14.965.027 22.447.034 3.195 2.173 3.51 4.499 2.549 2.481-1.025 3.859-3.105 3.97-5.852.11-2.658.129-5.318.186-8.944m-1.623-33.903c2.816-5.67 1.73-11.618.893-17.421-.4-2.779-3.175-3.91-5.789-3.561-2.786.372-2.047 3.04-2.116 4.863-.16 4.296-.119 8.602-.085 12.904.043 5.588 1.328 6.308 7.097 3.215M380.905 528.986c.043-30.653.074-60.808.141-90.964.015-6.731.355-7.077 7.04-7.07 10.82.009 21.628-.156 32.453.73 16.163 1.32 24.647 9.628 25.594 26.066.182 3.155.091 6.33.049 9.494-.108 8.026-4.087 13.132-11.826 15.208.133 1.844 1.654 1.625 2.556 1.988 5.986 2.41 9.34 6.961 10.24 13.137 1.422 9.763 1.646 19.6-.035 29.358-1.584 9.192-5.38 13.029-14.673 14.497-11.74 1.854-23.61.677-35.422.915-3.497.07-7.01-.212-10.492.02-4.424.296-6.074-1.604-5.675-5.887.216-2.313.046-4.662.05-7.492m35.464-34.923c-5.409-1.538-6.057-1.166-6.104 3.92-.06 6.478-.03 12.956.034 19.434.017 1.744-.43 3.962 2.17 4.334 2.366.339 4.705-.55 5.17-2.909 1.601-8.112 2.618-16.293-1.27-24.78m-6.097-30.59c-.01 2.148-.089 4.298-.007 6.442.066 1.729-.486 4.06 1.993 4.443 2.387.369 4.91-.339 5.66-2.939 1.576-5.467 1.5-11.11.255-16.613-.569-2.515-3.008-3.484-5.498-3.324-3.094.197-2.16 2.804-2.314 4.583-.185 2.132-.075 4.29-.089 7.409M542.694 499.146c-2.8-1.892-1.352.849-1.355 1.17-.112 11.823-.105 23.648-.134 35.472-.016 6.549-.032 6.546-6.69 6.595-4.158.03-8.335-.167-12.469.169-5.314.432-6.384-2.144-6.297-6.861.248-13.32.113-26.646.118-39.97.005-19.319-.024-38.638.015-57.957.013-6.357.56-6.851 6.803-6.909 3.997-.036 8.026.303 11.983-.098 5.078-.515 6.942 1.943 8.25 6.44 3.928 13.508 8.274 26.894 13.112 40.18 0-7.04-.005-14.078.002-21.116.006-6.495.096-12.991.014-19.485-.052-4.074 1.404-6.227 5.857-5.992 4.484.236 9.001.248 13.484.003 4.928-.27 5.764 2.384 5.75 6.524-.095 27.48-.055 54.96-.06 82.44-.002 5.996-.046 11.992.004 17.987.025 2.97-.917 4.715-4.295 4.645-6.16-.128-12.325-.112-18.485-.005-2.898.05-3.965-1.34-4.681-4.005-3.495-13.01-7.203-25.965-10.926-39.227M315.65 502.67c-7.73-4.489-4.389-11.743-4.975-17.807-.237-2.454 1.857-2.873 3.808-2.881 8.333-.038 16.666-.017 24.998-.054 3.11-.014 4.577 1.459 4.572 4.57-.025 17.166-.046 34.332-.002 51.498.008 2.929-1.195 4.337-4.153 4.272-2.165-.048-4.332.017-6.499.02-4.3.008-9.226 1.194-9.393-5.423-1.001.12-1.457.034-1.624.214-7.415 8.032-16.3 9.978-26.346 6.003-10.923-4.322-17.348-12.47-17.987-24.237-1.156-21.299-1.334-42.644-.005-63.933.887-14.21 10.58-23.719 25.49-25.734 6.752-.913 13.613-1.03 20.257 1.374 10.24 3.703 16.666 10.697 18.781 21.44a74.6 74.6 0 0 1 1.385 16.899c-.094 2.857-1.288 4.303-4.243 4.29q-10.25-.043-20.498.054c-3.18.03-4.48-1.47-4.427-4.6.077-4.498.105-9.006-.13-13.495-.138-2.624-.383-5.896-4.074-5.732-3.35.149-3.406 3.148-3.425 5.691a7460 7460 0 0 0-.205 38.975c-.018 8.146-1.21 16.29.001 24.442.395 2.66.397 5.897 3.892 6.037 3.674.146 4.53-3.181 4.709-5.968.33-5.145.125-10.325.093-15.915M492.258 473.973c15.153.135 12.936-1.057 13 12.541.05 10.432.949 9.652-9.734 9.716-7.551.045-7.675.034-7.454 7.768.132 4.615-1.94 10.321.99 13.566 3.037 3.362 8.84 1.105 13.409 1.206 4.231.094 6.103 1.573 5.886 5.93-.224 4.487-.103 8.995-.007 13.491.064 2.945-1.181 4.227-4.158 4.214-13.993-.06-27.987-.072-41.98-.014-3.262.013-4.378-1.53-4.369-4.603q.146-50.475.185-100.952c.003-4.18 1.85-5.997 6.073-5.967 12.494.09 24.989.076 37.482-.059 4.106-.044 5.721 1.715 5.568 5.717-.165 4.326-.125 8.662-.059 12.992.052 3.387-1.47 4.827-4.861 4.699-3.66-.139-7.33.028-10.993-.024-2.744-.038-3.92 1.237-3.874 3.955.066 3.83.126 7.669-.058 11.492-.16 3.34 1.407 4.533 4.954 4.332M262.63 430.871c4.566.244 4.496 3.244 4.498 6.149.01 15.809.007 31.618 0 47.427-.006 17.14-.165 34.282.06 51.42.065 4.9-1.266 6.977-6.463 6.628-5.964-.4-11.978-.212-17.965-.065-3.484.086-5.176-.99-5.166-4.803q.14-50.922.03-101.844c-.008-3.735 1.557-5.018 5.075-4.959 6.488.11 12.98.031 19.932.047"/></svg>