<svg id="svg" version="1.1" viewBox="0 0 300 143.47826086956525" width="300" height="143.47826086956525" xmlns="http://www.w3.org/2000/svg"><svg xmlns="http://www.w3.org/2000/svg"><defs><clipPath id="clip-1"><rect x="0" y="0" transform="scale(0.14648,0.14656)" width="2048" height="979" fill="none"/></clipPath><linearGradient x1="124.51289" y1="82.3766" x2="126.27319" y2="85.87723" gradientUnits="userSpaceOnUse" id="color-1"><stop offset="0" stop-color="#ecdfd2"/><stop offset="1" stop-color="#ffffff"/></linearGradient><linearGradient x1="96.33135" y1="47.95501" x2="91.54365" y2="42.75095" gradientUnits="userSpaceOnUse" id="color-2"><stop offset="0" stop-color="#d5c7ab"/><stop offset="1" stop-color="#f5efeb"/></linearGradient></defs><g clip-path="url(#clip-1)" fill="none" fill-rule="nonzero" stroke="none" stroke-width="1" stroke-linecap="butt" stroke-linejoin="miter" stroke-miterlimit="10" stroke-dasharray="" stroke-dashoffset="0" font-family="none" font-weight="none" font-size="none" text-anchor="none" style="mix-blend-mode: normal"><path d="M0,0h300v143.47826h-300z" fill="#ffffff"/><path d="M143.87402,35.46844c1.10391,-0.00542 7.11475,-0.19316 7.68164,0.20005c0.01318,0.44011 -0.38818,0.90953 -0.65039,1.28779c0.18896,0.13996 0.22119,0.19023 0.44238,0.26966c0.81445,-0.24739 1.64941,-0.2682 2.50049,-0.30264l-0.91113,1.31358c-0.01465,0.8553 -0.11865,4.40445 0.02783,4.97528c1.19971,-1.17113 5.04053,-4.55921 5.53857,-6.2956c0.05713,-0.1999 -0.31934,-1.14328 -0.4248,-1.44783c2.95313,-0.01319 6.19482,-0.09204 9.12451,0.01524c-3.45703,3.02785 -6.8335,5.96483 -10.09131,9.23185c-0.34277,0.34265 -0.60205,0.56131 -0.88916,0.96492c0.01758,0.19976 0.00879,0.3066 0.11865,0.47557c0.51855,0.39086 0.87891,0.86673 1.29199,1.36341c2.39209,2.83381 4.75049,5.69443 7.07813,8.58158c1.47949,1.8 2.71436,3.59546 4.58203,4.98803c0.45117,0.33649 0.75146,0.52965 0.7749,1.12877c0.12012,0.3491 1.79297,0.61216 2.3833,1.56492l-0.1582,0.19096c-0.92725,0.19331 -6.18896,0.11094 -7.38721,0.10156c-0.63867,-0.67592 -0.96094,-1.07338 -1.27881,-1.94421l-1.8252,-0.01597l-8.84766,-10.92193c-0.32666,0.77308 -0.05713,9.61099 0.1875,11.02643c0.02197,0.12662 0.95361,1.63249 1.12061,1.95081c0.58154,0.3022 1.18213,0.60542 1.75342,0.92154c5.55322,-0.25266 14.3335,-1.0744 19.0708,2.36043c1.57324,1.14035 1.32568,3.31832 -0.04248,4.63791c-3.18604,3.07152 -8.34082,3.74201 -12.5874,3.97797c-9.01758,0.12296 -12.86279,-1.78754 -19.47437,-7.28354c-3.76919,1.07792 -7.59932,2.3087 -11.41406,3.21221c-2.89497,0.68559 -6.01743,1.27035 -8.94346,1.86229c2.30112,0.73293 3.48999,1.12672 5.02456,3.12545c6.15161,4.43449 2.11626,9.55999 -3.42832,11.54597c1.32217,1.92589 9.52778,12.97621 11.07495,14.0616c-0.27715,0.37079 -0.23672,0.20547 -0.18721,0.61568c0.50273,0.43864 6.57246,0.47132 7.20469,0.0724c0.03911,-0.2342 0.06826,-0.29311 -0.02607,-0.51441c0.68921,-0.09658 0.88418,-0.14597 1.54834,0.02609c0.38687,0.91158 1.16924,1.7682 1.79707,2.56575c-2.65327,0.00147 -5.36851,0.03459 -8.01401,-0.08442c6.57568,6.89282 16.52783,10.96854 26.04053,11.38842c1.71094,0.07562 3.62256,-0.0853 5.26318,-0.00586c3.23145,-0.43556 6.39697,-1.46307 8.98828,-3.49814c7.72852,-6.06903 3.52881,-15.60484 4.98047,-17.253l0.25195,0.03503c0.8042,0.88168 0.7793,5.96717 0.76318,7.33454c-0.15381,12.96053 -13.57324,16.75383 -24.40283,16.26287c-4.09131,-0.20752 -8.13428,-0.98119 -12.01318,-2.29873c-10.95601,-3.78232 -16.24336,-10.17728 -23.49082,-18.65789c-2.24312,-2.60327 -4.53208,-5.16654 -6.86587,-7.68891l-1.70801,-0.17513l-0.01084,7.65667c-0.00176,1.41192 -0.06797,2.83014 0.09521,4.2321c0.15981,1.37323 1.29009,1.84514 2.17573,2.72829c-2.88691,0.03825 -7.68149,0.16341 -10.48564,-0.04573c0.61538,-0.58065 1.32114,-1.07733 1.53809,-1.81216c-0.83599,0.02741 -1.70537,0.02184 -2.54458,0.02726c0.22939,-0.47103 0.62944,-1.08056 0.91274,-1.54016c0.12466,-9.0233 0.07324,-18.13894 -0.04937,-27.16444c-0.00425,-0.32022 -0.55869,-1.14841 -0.7563,-1.45867c-2.3209,-0.3913 -6.70239,-0.9809 -6.47212,-4.35476c0.1248,-1.82711 1.9188,-3.48671 3.26104,-4.61446c3.71719,-2.63346 6.53071,-3.70918 10.75312,-5.08095c1.4272,-0.39306 2.74951,-0.65818 4.1959,-0.95217c-0.1355,-7.07484 0.08247,-14.31016 -0.18794,-21.38266c-0.01421,-0.37123 -0.48428,-1.13977 -0.68936,-1.48329c3.70225,0.02785 7.46572,-0.08661 11.15918,0.00191c2.92295,0.0702 5.48994,0.58769 7.54761,2.77474c4.85142,2.72946 3.20303,8.34607 -1.24717,10.47215c1.98691,2.59829 6.87686,9.60879 9.25356,11.10484c0.4166,0.13293 0.2499,0.13058 0.64922,0.04778c0.46113,-0.73146 -0.09551,-17.89345 0.11455,-20.53483c0.10239,-1.28691 -0.16011,-2.7022 -0.76465,-3.86981z" fill="#000000"/><path d="M127.64971,76.98495c6.15161,4.43449 2.11626,9.55999 -3.42832,11.54597c1.32217,1.92589 9.52778,12.97621 11.07495,14.0616c-0.27715,0.37079 -0.23672,0.20547 -0.18721,0.61568c0.50273,0.43864 6.57246,0.47132 7.20469,0.0724c0.03911,-0.2342 0.06826,-0.29311 -0.02607,-0.51441c0.68921,-0.09658 0.88418,-0.14597 1.54834,0.02609c0.38687,0.91158 1.16924,1.7682 1.79707,2.56575c-2.65327,0.00147 -5.36851,0.03459 -8.01401,-0.08442c6.57568,6.89282 16.52783,10.96854 26.04053,11.38842c1.71094,0.07562 3.62256,-0.0853 5.26318,-0.00586c-0.58447,0.15652 -1.4165,0.29458 -2.02441,0.35877c-9.78809,1.03556 -21.13975,-2.59668 -28.42822,-9.23009c-3.07778,-2.80112 -5.69927,-6.50723 -8.31533,-9.82804c-2.50576,-3.18056 -5.35269,-7.01446 -8.24692,-9.88417c-0.03018,-0.02213 -0.06035,-0.04426 -0.09053,-0.06639l-0.26001,-0.35716c0.95127,-1.48065 6.91406,-0.8427 6.91992,-7.94656c-0.12202,-1.23649 -0.3041,-1.63835 -0.82764,-2.71759z" fill="#c6a764"/><path d="M128.47734,79.70254c0.48105,0.53669 0.61465,1.57474 0.51577,2.26106c-0.49526,3.43703 -4.17231,5.24011 -7.17568,6.04265l-0.26001,-0.35716c0.95127,-1.48065 6.91406,-0.8427 6.91992,-7.94656z" fill="url(#color-1)"/><path d="M135.86851,38.24831c4.85142,2.72946 3.20303,8.34607 -1.24717,10.47215c1.98691,2.59829 6.87686,9.60879 9.25356,11.10484c-1.05132,-0.31729 -2.14805,-0.57787 -3.21563,-0.84504c-1.65425,-2.09868 -3.33252,-4.17802 -5.03467,-6.23786c-0.92813,-1.06605 -1.95952,-2.1384 -2.9272,-3.17631c-0.41821,-0.37079 -0.83979,-0.73762 -1.26475,-1.10049c-0.29004,-0.17206 -0.30278,-0.17675 -0.48984,-0.4511c0.35698,-0.41886 1.87778,-0.67093 2.71333,-1.17714c2.07979,-1.25994 2.57681,-2.27645 3.21079,-4.44988c0.03999,-1.84983 -0.05698,-2.56092 -0.99844,-4.13918z" fill="#c6a764"/><path d="M136.86694,42.38749c0.08569,-0.38779 0.05903,-0.63591 0.31099,-0.83302c1.1064,3.11681 -2.90786,6.55002 -5.74526,6.91114c-0.29004,-0.17206 -0.30278,-0.17675 -0.48984,-0.4511c0.35698,-0.41886 1.87778,-0.67093 2.71333,-1.17714c2.07979,-1.25994 2.57681,-2.27645 3.21079,-4.44988z" fill="#ffffff"/><path d="M132.69741,49.5661c0.29062,-0.08867 0.33589,-0.16957 0.61758,0.02682c0.63706,0.44421 2.35869,2.33302 2.65005,2.98784l-0.1519,0.215l-0.18853,-0.05335c-0.92813,-1.06605 -1.95952,-2.1384 -2.9272,-3.17631z" fill="#e1d3b3"/><path d="M115.62217,89.31485c0.56982,0.54973 0.98657,0.98456 1.51187,1.57709l-1.70801,-0.17513l-0.01084,7.65667c-0.00176,1.41192 -0.06797,2.83014 0.09521,4.2321c0.15981,1.37323 1.29009,1.84514 2.17573,2.72829c-2.88691,0.03825 -7.68149,0.16341 -10.48564,-0.04573c0.61538,-0.58065 1.32114,-1.07733 1.53809,-1.81216c1.8501,-0.08764 4.32627,-0.01656 6.22661,-0.02052c-0.40781,-0.40127 -0.71968,-0.72164 -1.09336,-1.15398c0.71514,-0.99101 -0.08423,-11.50376 0.34497,-12.781c0.5395,-0.1445 0.84712,-0.16063 1.40537,-0.20562z" fill="#c6a764"/><path d="M151.57471,49.47025l1.37988,1.7232c-0.32666,0.77308 -0.05713,9.61099 0.1875,11.02643c0.02197,0.12662 0.95361,1.63249 1.12061,1.95081c-1.16309,-0.56615 -2.28662,-1.11236 -3.42627,-1.72951l-0.03955,-0.17557c0.26367,-0.09101 0.52441,-0.19096 0.78076,-0.29985c-0.0293,-0.33942 -0.02344,-0.23449 -0.33398,-0.54533c0.55225,-0.72003 -0.0293,-5.65266 0.10693,-6.94617c0.14648,-1.40357 0.15088,-3.54724 0.22412,-5.00401z" fill="#c6a764"/><path d="M163.62744,62.13136c1.25977,-0.00352 5.46094,-0.07694 6.44092,0.08676c0.12012,0.3491 1.79297,0.61216 2.3833,1.56492l-0.1582,0.19096c-0.92725,0.19331 -6.18896,0.11094 -7.38721,0.10156c-0.63867,-0.67592 -0.96094,-1.07338 -1.27881,-1.94421z" fill="#c6a764"/><path d="M151.34766,37.22594c0.81445,-0.24739 1.64941,-0.2682 2.50049,-0.30264l-0.91113,1.31358c-0.01465,0.8553 -0.11865,4.40445 0.02783,4.97528c-0.41748,0.42355 -1.18213,1.15237 -1.53662,1.58661c0.04541,-1.21979 0.11426,-6.45945 -0.08057,-7.57284z" fill="#c6a764"/><path d="M113.87183,102.30147c-0.18223,-0.30718 -0.35464,-0.65774 -0.34702,-1.01549c0.03589,-1.66312 -0.43037,-12.04646 0.12363,-12.8342c0.68467,-0.06727 1.45005,0.47074 1.97373,0.86307c-0.55825,0.04499 -0.86587,0.06111 -1.40537,0.20562c-0.4292,1.27723 0.37017,11.78999 -0.34497,12.781z" fill="#e7dfd0"/><path d="M151.24365,61.42042c-0.86572,-1.19355 -0.25635,-8.07259 -0.43213,-9.92594c-0.04834,-0.49741 0.01025,-2.19966 0.11279,-2.6745l0.14795,0.01568l0.50244,0.63459c-0.07324,1.45677 -0.07764,3.60044 -0.22412,5.00401c-0.13623,1.2935 0.44531,6.22614 -0.10693,6.94617z" fill="#cab289"/><path d="M150.90527,36.95628c0.18896,0.13996 0.22119,0.19023 0.44238,0.26966c0.19482,1.11339 0.12598,6.35305 0.08057,7.57284c-0.16406,0.11094 -0.30176,0.17748 -0.47461,0.26952c-0.23145,-0.61158 -0.13184,-7.12159 -0.04834,-8.11202z" fill="#cab289"/><path d="M124.35337,58.59409c0.47988,-0.16019 1.18052,-0.11974 1.70581,-0.11886c1.19883,-0.00147 3.05332,-0.04939 4.18184,0.14568c1.10991,0.00528 2.71553,0.32623 3.85342,0.52775c0.35186,0.35994 0.97441,0.95305 1.22622,1.3555c2.19023,2.52267 4.16353,4.766 6.56118,7.10679c-4.62905,1.52858 -9.34702,2.77328 -14.12754,3.72736c-2.0291,0.63547 -11.81777,2.33918 -13.46763,1.83766c-3.1459,-0.09731 -11.79565,-0.80489 -10.17671,-5.87484c0.15498,-1.1446 1.43042,-2.25711 2.32544,-2.9084c0.40474,-0.58945 3.13608,-2.01983 3.91831,-2.33698c1.36978,-0.66888 6.57393,-2.79673 7.7978,-2.24963l-0.09258,0.87113c-0.20303,0.46488 -0.47344,0.89619 -0.33809,1.36092c0.53013,0.40611 1.35513,0.25559 2.08711,0.22833c1.13306,-0.18862 4.13481,0.27171 5.03628,-0.2786c0.046,-0.40992 0.08086,-0.23933 -0.26074,-0.66786c-0.50347,-0.7023 -0.52998,-1.94084 -0.23013,-2.72594z" fill="#ffffff"/><path d="M110.35371,62.05574c1.36978,-0.66888 6.57393,-2.79673 7.7978,-2.24963l-0.09258,0.87113c-0.75264,-0.32711 -3.31362,0.7722 -4.22681,1.07763c-4.16353,1.39287 -12.26191,6.20342 -4.14844,9.48056c3.58271,1.44724 9.3498,1.25745 13.12866,0.78144c1.1458,-0.1615 4.02832,-0.72457 4.94194,-0.67855c-2.0291,0.63547 -11.81777,2.33918 -13.46763,1.83766c-3.1459,-0.09731 -11.79565,-0.80489 -10.17671,-5.87484c0.15498,-1.1446 1.43042,-2.25711 2.32544,-2.9084c0.40474,-0.58945 3.13608,-2.01983 3.91831,-2.33698z" fill="#c6a764"/><path d="M104.10996,67.30112c0.35552,0.7999 -0.18691,0.54006 0.25649,1.02589c0.06812,-0.16971 0.13052,-0.29575 0.1541,-0.47836l0.1437,0.74099c1.24365,2.67655 3.73843,3.24533 6.41367,3.7297c0.93545,0.16942 2.40835,0.19463 3.24302,0.51001c0.03398,0.26058 0.07075,0.15462 -0.03428,0.3466c-3.1459,-0.09731 -11.79565,-0.80489 -10.17671,-5.87484z" fill="#ffffff"/><path d="M110.35371,62.05574c1.36978,-0.66888 6.57393,-2.79673 7.7978,-2.24963c-0.53921,0.6044 -6.15132,2.03698 -7.26475,2.41847c-0.11353,0.03884 -0.41719,-0.08764 -0.53306,-0.16883z" fill="#e7dfd0"/><path d="M106.4354,64.39272c0.0646,0.25442 0.06313,0.42076 -0.11543,0.66419c-1.01191,1.38012 -1.53413,1.77098 -1.65571,3.53273l-0.1437,-0.74099c-0.02358,0.18261 -0.08599,0.30865 -0.1541,0.47836c-0.44341,-0.48583 0.09902,-0.22599 -0.25649,-1.02589c0.15498,-1.1446 1.43042,-2.25711 2.32544,-2.9084z" fill="#e7dfd0"/><path d="M124.35337,58.59409c0.47988,-0.16019 1.18052,-0.11974 1.70581,-0.11886l0.24888,0.55633l0.03501,0.3066c-0.17461,2.27763 0.14385,3.0466 1.52666,4.78051c-1.17217,0.00366 -8.76445,0.119 -9.33882,-0.10083l-0.07046,-0.25926c0.57568,-0.70904 1.19897,-0.78334 1.34751,-1.49209c1.13306,-0.18862 4.13481,0.27171 5.03628,-0.2786c0.046,-0.40992 0.08086,-0.23933 -0.26074,-0.66786c-0.50347,-0.7023 -0.52998,-1.94084 -0.23013,-2.72594z" fill="#c6a764"/><path d="M124.5835,61.32003c-0.50347,-0.7023 -0.52998,-1.94084 -0.23013,-2.72594l0.36079,0.14465c0.1582,0.69116 0.28301,1.9703 -0.13066,2.58129z" fill="#cab289"/><path d="M126.05918,58.47523c1.19883,-0.00147 3.05332,-0.04939 4.18184,0.14568c1.10991,0.00528 2.71553,0.32623 3.85342,0.52775c0.35186,0.35994 0.97441,0.95305 1.22622,1.3555c-2.41758,-1.03747 -6.29443,-1.08876 -8.97759,-1.166l-0.03501,-0.3066z" fill="#c6a764"/><path d="M126.05918,58.47523c1.19883,-0.00147 3.05332,-0.04939 4.18184,0.14568c-0.62593,0.49814 -3.00073,0.39995 -3.93296,0.41065z" fill="#ffffff"/><path d="M159.09668,66.89003l-0.20801,-0.18437c1.5249,-0.7171 10.18945,0.35071 12.26514,1.04494c1.78711,0.81939 2.95166,1.46673 2.4668,3.62506l-0.23291,0.33913c-1.14111,1.71148 -3.11133,2.3871 -5.04053,2.76844c-0.60059,0.11695 -1.20117,0.22702 -1.80469,0.33004c-5.82129,0.99145 -10.84863,-0.67225 -15.49072,-4.20454c-0.62988,-0.47997 -2.7832,-2.22912 -3.03223,-2.85638l0.27539,-0.25823c0.55225,-0.04426 1.125,-0.12384 1.67725,-0.19213c2.00684,-0.27948 3.86133,-0.66668 5.89893,-0.51778c2.7583,0.20151 7.4458,5.14411 9.62695,5.09575l0.10693,-0.17777c-0.5376,-0.84123 -5.29541,-3.84665 -6.5083,-4.81216z" fill="#ffffff"/><path d="M148.29492,67.49414c0.55225,-0.04426 1.125,-0.12384 1.67725,-0.19213c0.75586,2.25418 8.72314,5.79819 11.13721,5.949c2.98389,0.18657 6.53906,0.58872 9.38818,-0.6381c3.95654,-1.57181 2.08447,-3.22291 -0.72949,-4.39155c-0.15234,-0.31216 -0.15674,-0.23464 -0.53174,-0.44113c0.11426,-0.00762 0.87891,0.14773 1.57617,0.11212l0.34131,-0.14172c1.78711,0.81939 2.95166,1.46673 2.4668,3.62506l-0.23291,0.33913c-1.14111,1.71148 -3.11133,2.3871 -5.04053,2.76844c-0.60059,0.11695 -1.20117,0.22702 -1.80469,0.33004c-5.82129,0.99145 -10.84863,-0.67225 -15.49072,-4.20454c-0.62988,-0.47997 -2.7832,-2.22912 -3.03223,-2.85638z" fill="#c6a764"/><path d="M166.54248,74.81329c-5.82129,0.99145 -10.84863,-0.67225 -15.49072,-4.20454c-0.62988,-0.47997 -2.7832,-2.22912 -3.03223,-2.85638l0.27539,-0.25823c4.50293,4.21187 9.62256,7.29819 15.95215,7.06781c0.5918,-0.02594 1.18359,-0.06155 1.77393,-0.10699c0.37939,0.1574 0.28711,0.06229 0.52148,0.35833z" fill="#e7dfd0"/><path d="M166.021,74.45496c1.604,-0.35642 3.10254,-0.50576 4.73291,-1.17655c0.81592,-0.3362 1.93652,-1.43508 2.63379,-1.56361c-1.14111,1.71148 -3.11133,2.3871 -5.04053,2.76844c-0.60059,0.11695 -1.20117,0.22702 -1.80469,0.33004c-0.23437,-0.29604 -0.14209,-0.20093 -0.52148,-0.35833z" fill="#e1d3b3"/><path d="M170.8125,67.89233l0.34131,-0.14172c1.78711,0.81939 2.95166,1.46673 2.4668,3.62506c-0.65186,-0.46561 -0.35303,-2.52941 -2.80811,-3.48334z" fill="#e7dfd0"/><path d="M159.09668,66.89003l-0.20801,-0.18437c1.5249,-0.7171 10.18945,0.35071 12.26514,1.04494l-0.34131,0.14172c-0.69727,0.03561 -1.46191,-0.11974 -1.57617,-0.11212c0.375,0.2065 0.37939,0.12897 0.53174,0.44113c-2.74951,-0.62242 -7.85889,-1.57855 -10.67139,-1.33131z" fill="#cab289"/><path d="M113.45259,76.36869c2.76768,-0.17103 6.77593,-0.3406 8.23901,2.64021c1.03257,4.2233 -2.31372,6.37342 -6.05435,6.63327l-1.67681,-0.06771l-0.38569,-0.068c-0.35493,-0.61085 -0.179,-7.95608 -0.12217,-9.13776z" fill="#ffffff"/><path d="M113.45259,76.36869c2.76768,-0.17103 6.77593,-0.3406 8.23901,2.64021c-2.18511,-1.22477 -3.64351,-1.33454 -6.12568,-1.22726c0.00103,2.38828 -0.08555,5.53219 0.07134,7.86053l-1.67681,-0.06771l-0.38569,-0.068c-0.35493,-0.61085 -0.179,-7.95608 -0.12217,-9.13776z" fill="#c6a764"/><path d="M113.45259,76.36869l0.63516,0.20635c0.13682,0.29414 0.07368,8.58144 -0.12729,8.99941l-0.38569,-0.068c-0.35493,-0.61085 -0.179,-7.95608 -0.12217,-9.13776z" fill="#e7dfd0"/><path d="M126.00483,38.12535c1.54219,0.03239 3.43696,0.61671 4.30986,1.99082c1.33022,2.98784 -0.58564,5.27763 -3.4856,6.01891c-0.74927,0.06888 -1.75913,0.21045 -2.47544,0.05569c-0.32827,-0.63708 -0.37603,-7.30127 -0.06489,-7.89878c0.50771,-0.25809 1.13643,-0.18261 1.71606,-0.16663z" fill="#ffffff"/><path d="M126.00483,38.12535c1.54219,0.03239 3.43696,0.61671 4.30986,1.99082c-1.54087,-0.50005 -2.31797,-0.51778 -3.94512,-0.498c-0.01655,1.10107 -0.17622,5.7488 0.15103,6.41974l0.3085,0.09717c-0.74927,0.06888 -1.75913,0.21045 -2.47544,0.05569c-0.32827,-0.63708 -0.37603,-7.30127 -0.06489,-7.89878c0.50771,-0.25809 1.13643,-0.18261 1.71606,-0.16663z" fill="#c6a764"/><path d="M124.35366,46.19077c-0.32827,-0.63708 -0.37603,-7.30127 -0.06489,-7.89878c0.50771,-0.25809 1.13643,-0.18261 1.71606,-0.16663c-0.42642,0.23639 -1.12837,0.47777 -1.2123,0.94924c-0.38423,2.15862 0.38892,4.72218 -0.09902,6.86409c-0.13345,0.09893 -0.24668,0.18305 -0.33984,0.25208z" fill="#cab289"/><path d="M124.13892,49.94568c0.03018,-0.36097 0.02197,-0.40274 0.16875,-0.72677l0.32227,-0.10992c0.53086,0.05188 1.14258,0.51895 1.61265,0.82013c0.58535,0.49477 1.17598,0.97152 1.70405,1.52711c1.3084,1.28559 4.22183,4.83004 5.2563,6.35994c-2.34229,-0.20884 -4.3062,-0.44289 -6.66577,-0.37357l-1.87397,-0.0151l-0.3356,-0.0658c-0.31113,-0.6022 -0.1916,-6.32374 -0.18867,-7.41602z" fill="#ffffff"/><path d="M124.13892,49.94568c0.03018,-0.36097 0.02197,-0.40274 0.16875,-0.72677l0.32227,-0.10992c0.53086,0.05188 1.14258,0.51895 1.61265,0.82013c0.58535,0.49477 1.17598,0.97152 1.70405,1.52711l-1.67666,-0.15681c-0.0082,1.00288 -0.2439,5.61192 0.23936,6.12237c0.00791,0.00835 0.01846,0.01378 0.02783,0.02081l-1.87397,-0.0151l-0.3356,-0.0658c-0.31113,-0.6022 -0.1916,-6.32374 -0.18867,-7.41602z" fill="#c6a764"/><path d="M124.13892,49.94568l0.66226,0.20576c-0.03413,1.10283 0.09229,6.90572 -0.13799,7.27606l-0.3356,-0.0658c-0.31113,-0.6022 -0.1916,-6.32374 -0.18867,-7.41602z" fill="#cab289"/><path d="M124.13892,49.94568c0.03018,-0.36097 0.02197,-0.40274 0.16875,-0.72677l0.32227,-0.10992c0.53086,0.05188 1.14258,0.51895 1.61265,0.82013c-0.49292,0.24446 -0.89092,0.21016 -1.44141,0.22233z" fill="#e7dfd0"/><path d="M141.94219,60.6277c4.71504,1.53415 7.35615,2.36365 11.8166,4.68598c-0.62988,0.04968 -1.31104,0.08955 -1.93359,0.16282c-1.25244,0.15359 -2.19141,0.29047 -3.42334,0.5512c-0.36182,0.07723 -0.94336,0.17997 -1.26123,0.31759c-0.08936,-0.00425 -0.45703,-0.02902 -0.49951,-0.0595c-1.0103,-0.71387 -3.15586,-3.55164 -3.7604,-4.50205c-0.40898,-0.42164 -0.59443,-0.67592 -0.93853,-1.15603z" fill="#c6a764"/><path d="M146.89453,64.1512c1.91309,-0.02682 3.35889,0.09233 4.93066,1.32531c-1.25244,0.15359 -2.19141,0.29047 -3.42334,0.5512c-0.60498,-0.54958 -1.03271,-1.21041 -1.50732,-1.8765z" fill="#ffffff"/><path d="M142.88071,61.78373c0.59619,0.07093 4.00356,3.96932 4.25991,4.56155c-0.08936,-0.00425 -0.45703,-0.02902 -0.49951,-0.0595c-1.0103,-0.71387 -3.15586,-3.55164 -3.7604,-4.50205z" fill="#e1d3b3"/><path d="M91.80659,61.02413c-1.53413,-0.86072 -3.39727,-1.9892 -4.45371,-3.28886c-8.34902,-10.25056 -0.28726,-23.56795 12.57627,-22.64685c5.70176,0.4083 8.52217,1.40767 12.45747,5.68696c2.06924,1.38056 3.74224,4.77142 4.18521,7.17245c0.74253,4.02531 -0.14619,7.19971 -2.40117,10.54573c-0.12407,0.18407 -0.2499,0.36683 -0.37764,0.54841l0.0501,0.24783c-4.22241,1.37176 -7.03594,2.44748 -10.75312,5.08095c-0.40078,-0.22643 -0.79746,-0.18319 -1.26328,-0.19551c-3.20859,-0.08544 -7.71079,-0.66712 -10.02012,-3.1511z" fill="#000000"/><path d="M112.38662,40.77538c2.06924,1.38056 3.74224,4.77142 4.18521,7.17245c0.74253,4.02531 -0.14619,7.19971 -2.40117,10.54573c-0.12407,0.18407 -0.2499,0.36683 -0.37764,0.54841l0.0501,0.24783c-4.22241,1.37176 -7.03594,2.44748 -10.75312,5.08095c-0.40078,-0.22643 -0.79746,-0.18319 -1.26328,-0.19551c-3.20859,-0.08544 -7.71079,-0.66712 -10.02012,-3.1511c3.1314,1.18051 6.23364,1.83664 9.60791,1.46292c5.8062,-0.41959 11.35444,-3.86849 12.94468,-9.70464c0.33398,-1.22623 0.40752,-2.25037 0.50215,-3.52218c-0.07427,-0.52408 -0.09521,-1.6319 -0.15,-2.2319c-0.23452,-2.56517 -1.02891,-4.11133 -2.32471,-6.25296z" fill="#c6a764"/><path d="M114.86133,49.26023c0.22324,0.99526 -0.06592,3.43498 -0.33354,4.4531c-1.31309,4.99433 -6.25635,8.14353 -11.10996,8.9978c-0.66211,0.11768 -1.13101,0.23977 -1.81348,0.09731c-0.11895,-0.14963 -0.1582,-0.15608 -0.18984,-0.3214c5.8062,-0.41959 11.35444,-3.86849 12.94468,-9.70464c0.33398,-1.22623 0.40752,-2.25037 0.50215,-3.52218z" fill="#e7dfd0"/><path d="M97.53867,38.80215c0.89517,-0.21851 2.56348,-0.12443 3.47637,-0.06917c1.96685,0.30337 4.10815,1.18007 5.29072,2.87631c2.26128,2.7831 2.37188,5.85564 2.123,9.3129c-0.51445,7.14871 -8.27153,10.09624 -14.09941,6.65965c-1.19707,-0.65261 -2.40762,-2.13547 -2.97422,-3.37313c-0.24214,-0.4637 -0.5584,-1.40914 -0.64937,-1.93586c-1.03228,-5.97772 0.1645,-12.04148 6.83291,-13.47069z" fill="#ffffff"/><path d="M97.53867,38.80215c0.89517,-0.21851 2.56348,-0.12443 3.47637,-0.06917c1.96685,0.30337 4.10815,1.18007 5.29072,2.87631c-9.69551,-4.22008 -15.21343,2.93229 -13.09834,12.17323c0.29502,1.28925 0.80669,2.54187 1.12192,3.79932c-1.19707,-0.65261 -2.40762,-2.13547 -2.97422,-3.37313c-0.24214,-0.4637 -0.5584,-1.40914 -0.64937,-1.93586c-1.03228,-5.97772 0.1645,-12.04148 6.83291,-13.47069z" fill="#c6a764"/><path d="M91.35513,54.2087c-0.24214,-0.4637 -0.5584,-1.40914 -0.64937,-1.93586c-1.03228,-5.97772 0.1645,-12.04148 6.83291,-13.47069c0.44868,0.02301 1.02261,-0.00161 1.37021,0.24841c-2.63306,0.64191 -4.86167,1.53576 -6.34072,3.95305c-2.81997,4.60918 -0.66313,10.01153 -1.21304,11.20508z" fill="url(#color-2)"/><path d="M97.53867,38.80215c0.89517,-0.21851 2.56348,-0.12443 3.47637,-0.06917l-0.12026,0.25662c-0.43052,0.13527 -1.59551,0.18349 -1.98589,0.06097c-0.34761,-0.25002 -0.92153,-0.2254 -1.37021,-0.24841z" fill="#cab289"/><path d="M57.24097,31.80234c4.15562,0.13395 8.32178,-0.07445 12.47402,0.09585c3.77754,0.15506 6.74692,0.74113 9.27495,3.7278c4.28452,2.70703 3.5748,8.26942 -0.49878,10.94275c1.00591,0.62301 1.75137,1.22726 2.53052,2.13473c1.91001,1.61226 2.93672,2.91075 3.23291,5.50127c0.76333,6.67621 -5.49668,9.81998 -11.27007,9.9384c-4.55303,0.0935 -9.57715,0.21236 -14.15713,0.05261c0.60498,-0.52013 1.62129,-1.3467 2.14907,-1.89145c-0.66387,-0.00103 -2.84766,0.03928 -3.4021,-0.12941c0.11704,-0.23039 1.03916,-1.31446 1.27881,-1.6064c0.20215,-5.12726 -0.07412,-10.94934 0.0189,-16.16952c0.04204,-2.3638 0.12056,-9.13571 -0.17227,-11.24582c-0.33911,-0.40288 -1.04297,-0.98471 -1.45884,-1.35081z" fill="#000000"/><path d="M81.02168,48.70347c1.91001,1.61226 2.93672,2.91075 3.23291,5.50127c0.76333,6.67621 -5.49668,9.81998 -11.27007,9.9384c-4.55303,0.0935 -9.57715,0.21236 -14.15713,0.05261c0.60498,-0.52013 1.62129,-1.3467 2.14907,-1.89145c-0.66387,-0.00103 -2.84766,0.03928 -3.4021,-0.12941c4.23281,-0.03239 8.98975,-0.14245 13.18872,-0.00513c5.42974,-0.52731 10.81714,-1.95403 11.42988,-8.32789c-0.09346,-2.35515 -0.05757,-3.05789 -1.17129,-5.1384z" fill="#c6a764"/><path d="M82.19297,53.84187c0.0999,-0.44978 0.08789,-0.7766 0.36606,-1.06033c0.39961,0.73732 0.14355,2.98007 -0.12803,3.85398c-0.65625,2.1126 -1.83647,3.153 -3.62036,4.20528c-1.6248,0.95818 -5.98081,1.92325 -7.77642,1.68114c-0.27524,-0.19873 -0.20625,-0.07225 -0.27114,-0.35217c5.42974,-0.52731 10.81714,-1.95403 11.42988,-8.32789z" fill="#ffffff"/><path d="M78.98994,35.62599c4.28452,2.70703 3.5748,8.26942 -0.49878,10.94275l-1.89668,-0.8191l-0.66577,-0.21339c0.1604,-0.72252 1.74844,-1.12702 2.30332,-1.74797c0.9208,-1.03029 1.28071,-1.8938 1.65044,-3.1703c-0.0063,-2.25447 0.03545,-2.93229 -0.89253,-4.99199z" fill="#c6a764"/><path d="M79.88247,40.61798c0.0769,-0.54958 0.12144,-0.86981 0.2748,-1.4021l0.16406,-0.11578c0.7418,2.44426 -1.17729,5.93156 -3.72686,6.64954l-0.66577,-0.21339c0.1604,-0.72252 1.74844,-1.12702 2.30332,-1.74797c0.9208,-1.03029 1.28071,-1.8938 1.65044,-3.1703z" fill="#ffffff"/><path d="M65.14688,47.89976c3.47974,-0.44919 7.70068,-0.16634 10.07505,2.73781c2.52817,5.95618 -3.13711,8.17504 -7.96963,7.98686l-2.08931,-0.02829c-0.11528,-2.81974 -0.19351,-7.94333 -0.01611,-10.69638z" fill="#ffffff"/><path d="M65.14688,47.89976c3.47974,-0.44919 7.70068,-0.16634 10.07505,2.73781c-3.16685,-0.67665 -4.71577,-1.1128 -7.99116,-0.8638c-0.00425,2.73415 -0.09785,6.17513 0.02153,8.85066l-2.08931,-0.02829c-0.11528,-2.81974 -0.19351,-7.94333 -0.01611,-10.69638z" fill="#c6a764"/><path d="M65.17104,35.74221c0.04014,-0.18642 0.07749,-0.20899 0.17974,-0.37357c1.29404,-0.31202 2.64302,-0.11197 3.96138,0.01553c1.78667,0.40699 3.2811,0.94954 4.19663,2.68872c0.82339,4.58295 -2.29644,6.03781 -6.27319,6.04499l-2.15625,-0.00806c-0.01436,-1.58061 -0.13799,-7.19604 0.0917,-8.36761z" fill="#ffffff"/><path d="M65.17104,35.74221c0.04014,-0.18642 0.07749,-0.20899 0.17974,-0.37357c1.29404,-0.31202 2.64302,-0.11197 3.96138,0.01553c1.78667,0.40699 3.2811,0.94954 4.19663,2.68872c-1.95469,-0.89971 -4.17598,-0.91759 -6.29458,-0.88065c-0.00923,1.83151 -0.1188,5.1466 0.02139,6.92565l-2.15625,-0.00806c-0.01436,-1.58061 -0.13799,-7.19604 0.0917,-8.36761z" fill="#c6a764"/><path d="M65.17104,35.74221c0.04014,-0.18642 0.07749,-0.20899 0.17974,-0.37357c1.29404,-0.31202 2.64302,-0.11197 3.96138,0.01553c-0.3145,0.39409 -0.33999,0.47088 -0.96108,0.50093c-0.69521,0.03371 -2.67129,0.18012 -3.18003,-0.14289z" fill="#cab289"/><path d="M224.04639,35.46331l6.57568,-0.03254c-0.43652,1.34084 -0.45264,1.60464 -0.27979,2.94607c0.39697,-0.44377 0.43945,-0.52408 0.67822,-1.0725c0.54639,-0.23273 1.49414,-0.17074 2.1123,-0.13791c-0.92285,2.00826 -0.28125,4.35769 0.00293,6.52115l0.96387,7.26243c0.4585,3.45169 0.91406,7.62912 1.68311,11.049c0.16553,0.73952 1.21729,0.91319 1.29199,1.96634c-0.58008,0.24533 -6.57568,0.16883 -7.65527,0.17074c-0.52588,-0.38119 -0.33105,-0.97767 -0.26367,-1.59086c0.05859,-0.18671 0.04102,-0.08881 -0.06152,-0.33415c-0.49072,-0.09174 -0.89502,-0.13747 -1.39014,-0.18979l-0.4292,-0.04851c-0.05713,-0.06111 -0.12451,-0.13439 -0.20508,-0.21969c-0.03955,-1.17831 -0.17725,-2.78134 -0.31348,-3.91407c-0.42627,-3.5427 -0.95947,-7.0766 -1.35498,-10.61285c-0.12305,-1.23019 -0.2666,-3.25603 -0.54492,-4.39653l-0.10107,-0.04441c-0.67676,0.9639 -2.04492,3.80899 -2.63086,4.95271l-5.05078,9.77719c-0.71924,1.38495 -1.80908,3.68222 -2.58252,4.92003c-0.71484,-1.10064 -1.26855,-2.18559 -1.91748,-3.3126c-2.53125,-4.3917 -4.82959,-9.05804 -7.4165,-13.40957c-0.60205,1.17347 -1.35645,14.16273 -0.99609,16.2935c0.0791,0.47074 1.13232,1.68554 1.53223,2.14617c-2.68506,0.03473 -5.37012,0.03972 -8.05371,0.01524c0.5127,-0.73571 0.75439,-1.10752 1.41211,-1.73566l-0.09082,-0.32594l-2.51514,-0.05467c0.36621,-0.53962 0.7749,-1.1704 0.87598,-1.82198c0.86865,-5.56063 1.21289,-11.24802 1.78125,-16.85042c0.21387,-2.10806 0.46143,-4.4043 0.4541,-6.49419l-0.80713,-1.41983l7.13379,-0.02858l1.07373,1.84104c0.44824,-0.25471 0.78076,-0.50679 1.29053,-0.46913c1.58789,0.63591 6.79395,12.7467 8.13428,13.5935z" fill="#000000"/><path d="M231.02051,37.30435c0.54639,-0.23273 1.49414,-0.17074 2.1123,-0.13791c-0.92285,2.00826 -0.28125,4.35769 0.00293,6.52115l0.96387,7.26243c0.4585,3.45169 0.91406,7.62912 1.68311,11.049c0.16553,0.73952 1.21729,0.91319 1.29199,1.96634c-0.58008,0.24533 -6.57568,0.16883 -7.65527,0.17074c-0.52588,-0.38119 -0.33105,-0.97767 -0.26367,-1.59086c0.05859,-0.18671 0.04102,-0.08881 -0.06152,-0.33415c-0.49072,-0.09174 -0.89502,-0.13747 -1.39014,-0.18979c0.7002,-0.00674 1.4707,-0.03327 2.16357,0.02242l4.78271,-0.00528l-1.08252,-1.10518c-1.06201,-2.1658 -2.8667,-19.22785 -3.22559,-22.55642c0.39697,-0.44377 0.43945,-0.52408 0.67822,-1.0725z" fill="#c6a764"/><path d="M230.34229,38.37684c0.39697,-0.44377 0.43945,-0.52408 0.67822,-1.0725c-0.49072,3.26922 3.13184,22.68012 2.54736,23.62892c-1.06201,-2.1658 -2.8667,-19.22785 -3.22559,-22.55642z" fill="#e7dfd0"/><path d="M227.7041,62.0213c0.7002,-0.00674 1.4707,-0.03327 2.16357,0.02242c0.91113,0.41461 3.33838,-0.16077 4.17627,0.28124l-0.01611,0.18774c-0.62109,0.15535 -4.14551,0.12574 -4.87207,0.03254c0.05859,-0.18671 0.04102,-0.08881 -0.06152,-0.33415c-0.49072,-0.09174 -0.89502,-0.13747 -1.39014,-0.18979z" fill="#e7dfd0"/><path d="M203.86963,43.22404c0.29883,0.65994 1.13086,2.0704 1.2876,2.48896c-0.60205,1.17347 -1.35645,14.16273 -0.99609,16.2935c0.0791,0.47074 1.13232,1.68554 1.53223,2.14617c-2.68506,0.03473 -5.37012,0.03972 -8.05371,0.01524c0.5127,-0.73571 0.75439,-1.10752 1.41211,-1.73566l-0.09082,-0.32594l1.42236,0.01216c0.65479,-0.10362 1.23633,0.06873 1.89697,-0.17807l0.08936,-0.23288l-0.28711,-0.45608c0.30029,-0.42457 0.24463,-0.85486 0.24902,-1.38129c0.14063,-0.90601 0.22559,-2.55007 0.30762,-3.51192c0.54053,-4.12423 0.5127,-8.84934 1.23047,-13.1342z" fill="#c6a764"/><path d="M198.96094,62.1063l1.42236,0.01216c0.71191,0.03693 1.54248,-0.00645 2.14746,0.31085l-0.13184,0.09116l-0.00293,-0.14201l-0.07764,-0.02052l-0.14209,0.20034c-0.82178,0.05511 -2.33789,0.11314 -3.12451,-0.12604z" fill="#cab289"/><path d="M206.95752,37.27767c0.44824,-0.25471 0.78076,-0.50679 1.29053,-0.46913c1.58789,0.63591 6.79395,12.7467 8.13428,13.5935c-0.24023,0.49272 -0.74561,1.45501 -0.90234,1.93659c-0.18164,-0.9362 -4.70801,-8.83161 -5.50195,-10.37909c-0.11719,-0.22775 -0.49512,-0.39936 -0.78516,-0.44553c-0.3457,-0.37386 -1.92627,-3.60161 -2.23535,-4.23635z" fill="#c6a764"/><path d="M202.1748,55.07426c-0.07324,-1.05198 1.08105,-12.2871 1.28467,-12.43967l0.41016,0.58945c-0.71777,4.28486 -0.68994,9.00997 -1.23047,13.1342c-0.02637,-0.51251 -0.00439,-0.8874 -0.24463,-1.3404z" fill="#cab289"/><path d="M209.19287,41.51402c0.29004,0.04617 0.66797,0.21778 0.78516,0.44553c0.79395,1.54748 5.32031,9.44289 5.50195,10.37909l-0.12598,0.07636c-0.46582,-0.14289 -5.45215,-9.58872 -6.16113,-10.90098z" fill="#e1d3b3"/><path d="M202.1748,55.07426l0.21973,-0.05642c0.24023,0.453 0.21826,0.82789 0.24463,1.3404c-0.08203,0.96185 -0.16699,2.60591 -0.30762,3.51192l-0.00879,-0.11871c-0.06885,-0.79741 0.03662,-0.87113 -0.41895,-1.55672z" fill="#e7dfd0"/><path d="M201.90381,58.19472c0.45557,0.68559 0.3501,0.75931 0.41895,1.55672l0.00879,0.11871c-0.00439,0.52643 0.05127,0.95672 -0.24902,1.38129c-0.52441,-0.99995 -0.28711,-1.90244 -0.17871,-3.05672z" fill="#e1d3b3"/><path d="M187.68311,35.46273c1.26123,-0.01304 6.69727,-0.13879 7.5249,0.08119c0.10547,0.59751 -0.19629,0.95437 -0.51562,1.52491l0.28418,0.27289c1.05762,-0.12296 2.18848,-0.27303 3.25342,-0.18891l-1.26709,1.43127c-0.17871,3.22775 -0.03369,6.50195 -0.07764,9.7404c-0.06006,4.61637 0.70898,9.29091 -3.12598,12.73894c-2.66455,2.39458 -7.21436,3.38574 -10.73291,3.28476c-1.78564,-0.05129 -6.81592,-0.95745 -7.57178,-2.73869c-1.53955,-0.6595 -2.74951,-1.18373 -3.95361,-2.38901c-1.10156,-1.10767 -1.87646,-2.49922 -2.23535,-4.02032c-0.50537,-2.06453 -0.36328,-5.83586 -0.36035,-8.1129l0.01904,-9.83654l-0.01025,-0.34162l-0.97119,-1.45926c1.02686,-0.0066 7.2832,-0.17982 7.7373,0.19126c0.01318,0.51031 -0.22119,0.85471 -0.4585,1.30962l0.31494,0.32345l0.12158,-0.06727c0.9082,-0.33796 1.81641,-0.25911 2.78613,-0.22394l-1.04736,1.38583l0.00586,9.23258c0.00293,3.51676 -0.28857,7.20997 0.73828,10.53078c0.2915,0.10596 0.5874,0.19932 0.88623,0.27992c2.05664,0.55838 4.95557,0.58183 6.8291,-0.51983c1.28174,-0.7533 2.07275,-1.98144 2.41992,-3.41006c0.38672,-1.58808 0.39844,-15.88505 0.11279,-17.52706c-0.09082,-0.52921 -0.43213,-1.03747 -0.70605,-1.49238z" fill="#000000"/><path d="M194.729,53.3172c-0.13184,-0.91099 -0.0791,-4.50601 -0.07324,-5.60415c0.02051,-3.50591 -0.05859,-7.14973 0.03662,-10.64421l0.28418,0.27289c1.05762,-0.12296 2.18848,-0.27303 3.25342,-0.18891l-1.26709,1.43127c-0.17871,3.22775 -0.03369,6.50195 -0.07764,9.7404c-0.06006,4.61637 0.70898,9.29091 -3.12598,12.73894c-2.66455,2.39458 -7.21436,3.38574 -10.73291,3.28476c-1.78564,-0.05129 -6.81592,-0.95745 -7.57178,-2.73869c1.93213,0.52291 3.22705,0.76224 5.24268,0.88564c0.4541,0.02785 1.76953,0.05335 2.14014,0.10171c6.66357,-0.94309 10.40186,-2.30884 11.8916,-9.27963z" fill="#c6a764"/><path d="M194.729,53.3172c0.40137,1.53576 0.09082,2.9893 -0.69434,4.34597c-1.53516,2.65721 -4.2832,4.09624 -7.16455,4.85203c-0.90674,0.23801 -3.26074,0.64411 -4.03271,0.08163c6.66357,-0.94309 10.40186,-2.30884 11.8916,-9.27963z" fill="#e7dfd0"/><path d="M175.6582,37.20689c0.9082,-0.33796 1.81641,-0.25911 2.78613,-0.22394l-1.04736,1.38583l0.00586,9.23258c0.00293,3.51676 -0.28857,7.20997 0.73828,10.53078c-1.05469,-0.51808 -2.01416,-1.28383 -2.47412,-2.38959c0.47168,-0.70391 -0.15967,-10.61842 0.0498,-12.2021c0.10986,-0.81705 0.15967,-5.52149 -0.05859,-6.33356z" fill="#c6a764"/><path d="M175.66699,55.74255c-0.29297,-0.59912 -0.49512,-1.60933 -0.5083,-2.23439c-0.04395,-2.31573 -0.37793,-15.08955 0.06299,-16.55745l0.31494,0.32345l0.12158,-0.06727c0.21826,0.81207 0.16846,5.51651 0.05859,6.33356c-0.20947,1.58368 0.42188,11.49819 -0.0498,12.2021z" fill="#cab289"/><path d="M146.23242,77.10161c5.96484,-0.03063 12.07617,-0.07577 18.03369,-0.00117c0.0791,0.7001 0.10693,1.10049 0.09668,1.8041l0.44092,-0.09702c0.70898,-0.05335 0.77783,-0.17396 1.31836,0.1023c0.5625,0.97269 0.20654,2.90166 0.22119,4.27885c-3.26367,-1.31519 -7.37549,-0.98617 -10.95996,-0.98251l0.0249,4.9105c1.27148,-0.01597 6.24316,-0.14993 7.22461,0.02213l0.15088,0.43498c0.0835,0.56732 0.0293,0.97811 0.38672,1.28105c0.6665,-0.03385 0.81738,-0.15007 1.33887,0.13249c0.59473,0.9853 0.20801,2.89976 0.2168,4.29746c-3.46582,-1.56126 -5.55469,-1.00904 -9.31934,-1.07382c-0.01025,2.28774 -0.02197,4.65725 -0.02783,6.9384c-0.00879,3.33122 -0.30029,3.69482 1.97607,6.15359c-3.27539,0.0979 -6.72217,0.00894 -10.01074,-0.02697c0.53027,-0.48979 1.37695,-1.1808 1.68457,-1.79516l-2.87988,-0.00997c0.35889,-0.52145 0.71338,-1.08056 1.06201,-1.61153c0.13477,-7.4704 0.07178,-15.76707 -0.01318,-23.2445z" fill="#000000"/><path d="M163.17041,88.85481c0.6665,-0.03385 0.81738,-0.15007 1.33887,0.13249c0.59473,0.9853 0.20801,2.89976 0.2168,4.29746c-3.46582,-1.56126 -5.55469,-1.00904 -9.31934,-1.07382c-0.01025,2.28774 -0.02197,4.65725 -0.02783,6.9384c-0.00879,3.33122 -0.30029,3.69482 1.97607,6.15359c-3.27539,0.0979 -6.72217,0.00894 -10.01074,-0.02697c0.53027,-0.48979 1.37695,-1.1808 1.68457,-1.79516l5.37598,-0.0425c-0.38818,-0.53039 -0.62256,-0.87596 -0.94922,-1.44387c-0.39404,-1.32706 -0.20654,-9.58974 -0.19336,-11.42799c1.95996,-0.16326 5.12402,-0.03547 7.1499,0.06375c0.57275,0.02799 1.88086,0.70039 2.32471,0.70274c0.20215,0.08808 0.18604,0.05173 0.43066,0.02741c0.34131,-0.57186 0.09668,-1.81656 0.00293,-2.50552z" fill="#c6a764"/><path d="M153.26221,90.56644c0.70752,0.67738 0.5332,1.91886 0.55518,2.87675c0.02637,1.13742 0.24902,8.01808 -0.27246,8.48105c-0.0293,0.02506 -0.06006,0.0469 -0.08936,0.0702c-0.39404,-1.32706 -0.20654,-9.58974 -0.19336,-11.42799z" fill="#cab289"/><path d="M164.26611,77.10044c0.0791,0.7001 0.10693,1.10049 0.09668,1.8041l0.44092,-0.09702c0.70898,-0.05335 0.77783,-0.17396 1.31836,0.1023c0.5625,0.97269 0.20654,2.90166 0.22119,4.27885c-3.26367,-1.31519 -7.37549,-0.98617 -10.95996,-0.98251l0.0249,4.9105c1.27148,-0.01597 6.24316,-0.14993 7.22461,0.02213c-2.55762,0.14392 -7.06348,-0.15462 -9.20068,0.12574c-0.28711,-0.72882 -0.19189,-2.09311 -0.17578,-2.90459c0.37354,-1.02193 0.0791,-3.12355 0.47461,-3.56776c1.18506,0.13732 8.30566,0.35628 8.90771,-0.13087l1.57471,0.61158c0,-1.38788 -0.01172,-2.78691 0.05273,-4.17245z" fill="#c6a764"/><path d="M153.25635,84.35994c0.37354,-1.02193 0.0791,-3.12355 0.47461,-3.56776c0.04102,1.22843 0.44092,5.81006 -0.29883,6.47235c-0.28711,-0.72882 -0.19189,-2.09311 -0.17578,-2.90459z" fill="#cab289"/><path d="M164.36279,78.90454l0.44092,-0.09702c0.03369,0.7382 0.13037,1.53268 -0.11279,2.21988l-0.15381,0.0488c-0.27539,-0.58051 -0.18604,-1.49941 -0.17432,-2.17167z" fill="#e7dfd0"/><path d="M153.2417,80.43034c1.71826,0.00718 8.18115,-0.16063 9.39697,0.23097c-0.60205,0.48715 -7.72266,0.2682 -8.90771,0.13087c-0.39551,0.44421 -0.10107,2.54582 -0.47461,3.56776z" fill="#cab289"/><path d="M162.78369,87.57377c0.0835,0.56732 0.0293,0.97811 0.38672,1.28105c0.09375,0.68896 0.33838,1.93366 -0.00293,2.50552c-0.24463,0.02433 -0.22852,0.06067 -0.43066,-0.02741c0.00146,-1.2532 0.01758,-2.5064 0.04688,-3.75916z" fill="#e7dfd0"/><path d="M166.3667,77.14836c5.47705,-0.15843 12.68994,-0.17865 18.1582,-0.01011c0.03369,0.51646 0.07324,1.03249 0.11719,1.54822l0.20361,0.16385c0.7251,-0.11226 0.73389,-0.23669 1.28613,0.02623c0.55957,0.95335 0.21387,2.88188 0.25195,4.22184c-3.71338,-1.32003 -7.01807,-0.84724 -10.96875,-0.89077c-0.02344,1.6212 -0.07031,3.29179 -0.03809,4.90933c1.31689,-0.02697 5.65137,-0.16458 6.88184,0.05408l0.375,0.13117c0.32813,0.72706 0.14941,3.10332 0.1875,4.01387l0.37354,0.034c0.66357,-1.01622 -0.54053,-1.99126 0.71045,-2.6956c0.44238,0.02066 0.26807,-0.04485 0.65039,0.3296c0.33545,0.75887 0.17432,3.38324 0.1626,4.34436c-3.07031,-1.48065 -5.9165,-1.14944 -9.3252,-1.14064c0.01758,2.21197 0.00586,4.43552 -0.02197,6.64778c-0.03369,2.56619 -0.18457,4.2595 1.77246,6.18261c0.09521,0.09453 0.19189,0.18832 0.29004,0.28168c-2.8374,-0.00366 -7.19824,0.18114 -9.88037,-0.03913c0.38672,-0.42047 1.29053,-1.34817 1.53955,-1.79839l-2.89014,-0.00454l1.00488,-1.54235c0.12744,-6.78891 0.00146,-13.60318 0.06299,-20.39384c0.01611,-1.82975 0.11719,-2.80713 -0.90381,-4.37323z" fill="#000000"/><path d="M182.82129,91.31607l0.37354,0.034c0.66357,-1.01622 -0.54053,-1.99126 0.71045,-2.6956c0.44238,0.02066 0.26807,-0.04485 0.65039,0.3296c0.33545,0.75887 0.17432,3.38324 0.1626,4.34436c-3.07031,-1.48065 -5.9165,-1.14944 -9.3252,-1.14064c0.01758,2.21197 0.00586,4.43552 -0.02197,6.64778c-0.03369,2.56619 -0.18457,4.2595 1.77246,6.18261c0.09521,0.09453 0.19189,0.18832 0.29004,0.28168c-2.8374,-0.00366 -7.19824,0.18114 -9.88037,-0.03913c0.38672,-0.42047 1.29053,-1.34817 1.53955,-1.79839l5.3833,-0.01949c-0.41455,-0.50078 -0.6958,-0.8043 -0.97412,-1.4021c0.57129,-0.60249 0.4541,-10.24675 0.22266,-11.47533c1.88965,-0.17807 4.5791,-0.07167 6.50684,0.03532c0.79248,0.04382 1.86768,0.8701 2.58984,0.71534z" fill="#c6a764"/><path d="M184.8457,78.85032c0.7251,-0.11226 0.73389,-0.23669 1.28613,0.02623c0.55957,0.95335 0.21387,2.88188 0.25195,4.22184c-3.71338,-1.32003 -7.01807,-0.84724 -10.96875,-0.89077c-0.02344,1.6212 -0.07031,3.29179 -0.03809,4.90933c1.31689,-0.02697 5.65137,-0.16458 6.88184,0.05408c-1.20703,0.07548 -8.00244,0.09936 -8.84033,-0.05877c0.80127,-0.27655 0.479,-5.22838 0.47607,-6.25545c1.42969,0.22335 6.02051,-0.01172 7.39893,-0.40816c1.20117,0.02902 2.03467,0.38295 3.14502,0.79126c0.24756,0.13512 0.14209,0.1042 0.46582,0.05188c0.30176,-0.66331 0.07178,-1.72233 -0.05859,-2.44148z" fill="#c6a764"/><path d="M173.28809,80.44675c2.66895,0.01905 5.33789,0.01964 8.00537,0.00191c-1.37842,0.39643 -5.96924,0.63151 -7.39893,0.40816c0.00293,1.02706 0.3252,5.9789 -0.47607,6.25545c-0.26367,-0.68896 -0.14062,-5.55681 -0.13037,-6.66551z" fill="#cab289"/><path d="M173.50195,102.04074c-0.27686,-0.92418 -0.31641,-10.39873 -0.08643,-11.34519l0.30908,-0.13014c0.23145,1.22858 0.34863,10.87284 -0.22266,11.47533z" fill="#e1d3b3"/><path d="M184.5249,77.13825c0.03369,0.51646 0.07324,1.03249 0.11719,1.54822l0.20361,0.16385c0.13037,0.71915 0.36035,1.77816 0.05859,2.44148c-0.32373,0.05232 -0.21826,0.08324 -0.46582,-0.05188c-0.00439,-1.42716 0.01318,-2.66922 0.08643,-4.10166z" fill="#cab289"/><path d="M134.71611,77.11436l0.06709,-0.00308c0.98613,-0.04045 7.29404,-0.17807 7.69014,0.18569c-0.11748,0.57274 -0.20654,0.51808 -0.65317,1.0212c0.12861,0.26702 0.2335,0.60689 0.44443,0.74612c0.83818,-0.54211 1.58013,-0.38324 2.57769,-0.31979c-0.33398,0.47323 -0.66709,0.95335 -1.00649,1.42203l0.00029,22.62574c-0.66416,-0.17206 -0.85913,-0.12267 -1.54834,-0.02609c0.09434,0.2213 0.06519,0.28021 0.02607,0.51441c-0.63223,0.39893 -6.70195,0.36624 -7.20469,-0.0724c-0.04951,-0.41021 -0.08994,-0.24489 0.18721,-0.61568c0.5436,-1.04553 0.35332,-7.26287 0.35273,-8.91045l-0.0126,-15.16165z" fill="#000000"/><path d="M142.2646,79.06429c0.83818,-0.54211 1.58013,-0.38324 2.57769,-0.31979c-0.33398,0.47323 -0.66709,0.95335 -1.00649,1.42203l0.00029,22.62574c-0.66416,-0.17206 -0.85913,-0.12267 -1.54834,-0.02609l-0.15527,-0.11563l0.20522,-0.24431c0.14604,-1.13552 0.00293,-5.04504 0.00747,-6.54607l0.03545,-11.36087c0.00161,-1.14504 0.07632,-4.44973 -0.11602,-5.43503z" fill="#c6a764"/><path d="M141.82017,78.31817c0.12861,0.26702 0.2335,0.60689 0.44443,0.74612c0.19233,0.9853 0.11763,4.28999 0.11602,5.43503l-0.03545,11.36087c-0.00454,1.50103 0.13857,5.41055 -0.00747,6.54607l-0.20522,0.24431c-0.271,-0.32975 -0.35991,-0.5682 -0.36372,-1.00171c-0.06123,-6.85765 -0.05273,-13.71895 -0.06445,-20.57719c-0.00146,-0.92008 -0.0126,-1.84089 0.11587,-2.75349z" fill="#cab289"/><path d="M224.85645,42.82965c0.27832,1.1405 0.42188,3.16634 0.54492,4.39653c-0.01025,0.00176 -0.02197,0.00117 -0.03223,0.00542c-0.88184,0.35159 -7.74902,15.05906 -9.07324,17.15862c-0.38672,-0.62653 -0.6416,-1.24617 -0.9375,-1.91681c1.88672,-4.59805 9.12158,-15.93224 9.49805,-19.64377z" fill="#c6a764"/><path d="M168.91406,36.90909l0.01025,0.34162c-0.89355,0.5723 -10.83398,9.48202 -11.29102,10.26903c-0.41309,-0.49668 -0.77344,-0.97255 -1.29199,-1.36341c0.6416,-0.3211 1.8208,-1.57049 2.41699,-2.07831c2.04785,-1.74504 5.41406,-5.57704 7.53076,-6.97562c0.87451,-0.06888 1.75049,-0.13337 2.625,-0.19331z" fill="#c6a764"/></g></svg></svg>