<svg xmlns="http://www.w3.org/2000/svg" width="300" height="143.478"><svg xmlns="http://www.w3.org/2000/svg"><defs><linearGradient id="b" x1="124.513" x2="126.273" y1="82.377" y2="85.877" gradientUnits="userSpaceOnUse"><stop offset="0" stop-color="#ecdfd2"/><stop offset="1" stop-color="#fff"/></linearGradient><linearGradient id="c" x1="96.331" x2="91.544" y1="47.955" y2="42.751" gradientUnits="userSpaceOnUse"><stop offset="0" stop-color="#d5c7ab"/><stop offset="1" stop-color="#f5efeb"/></linearGradient><clipPath id="a"><path fill="none" d="M0 0h299.991v143.482H0z"/></clipPath></defs><g fill="none" stroke-miterlimit="10" clip-path="url(#a)" font-family="none" font-size="none" font-weight="none" style="mix-blend-mode:normal" text-anchor="none"><path fill="#fff" d="M0 0h300v143.478H0z"/><path fill="#000" d="M143.874 35.468c1.104-.005 7.115-.193 7.682.2.013.44-.389.91-.65 1.288.188.14.22.19.442.27.814-.247 1.65-.268 2.5-.303l-.911 1.314c-.015.855-.119 4.404.028 4.975 1.2-1.171 5.04-4.559 5.538-6.295.058-.2-.319-1.144-.424-1.448 2.953-.013 6.194-.092 9.124.015-3.457 3.028-6.833 5.965-10.091 9.232-.343.342-.602.561-.89.965.018.2.01.306.12.475.518.391.878.867 1.291 1.364a493 493 0 0 1 7.078 8.581c1.48 1.8 2.715 3.596 4.582 4.988.452.337.752.53.775 1.13.12.348 1.793.611 2.384 1.564l-.159.191c-.927.193-6.189.11-7.387.102-.638-.676-.96-1.074-1.279-1.945l-1.825-.016-8.847-10.922c-.327.774-.058 9.611.187 11.027.022.126.954 1.632 1.12 1.95.582.303 1.183.606 1.754.922 5.553-.252 14.334-1.074 19.07 2.36 1.574 1.141 1.327 3.319-.042 4.639-3.186 3.071-8.34 3.742-12.587 3.978-9.018.122-12.863-1.788-19.474-7.284-3.77 1.078-7.6 2.309-11.414 3.212-2.895.686-6.018 1.27-8.944 1.862 2.301.733 3.49 1.127 5.025 3.126 6.151 4.434 2.116 9.56-3.429 11.546 1.323 1.926 9.528 12.976 11.075 14.061-.277.371-.236.206-.187.616.503.439 6.573.471 7.205.073.039-.235.068-.294-.026-.515.689-.096.884-.146 1.548.026.387.912 1.17 1.768 1.797 2.566-2.653.001-5.368.035-8.014-.084 6.576 6.892 16.528 10.968 26.04 11.388 1.712.076 3.623-.085 5.264-.006 3.231-.435 6.397-1.463 8.988-3.498 7.729-6.069 3.529-15.605 4.98-17.253l.253.035c.804.882.779 5.967.763 7.335-.154 12.96-13.574 16.753-24.403 16.262a44.3 44.3 0 0 1-12.013-2.298C136.535 113.456 131.247 107.06 124 98.58a292 292 0 0 0-6.866-7.69l-1.708-.174-.01 7.656c-.003 1.412-.069 2.83.094 4.233.16 1.373 1.29 1.845 2.176 2.728-2.887.038-7.681.163-10.486-.046.616-.58 1.322-1.077 1.539-1.812-.836.027-1.706.022-2.545.027.23-.47.63-1.08.913-1.54.124-9.023.073-18.139-.05-27.164-.004-.32-.558-1.149-.756-1.46-2.32-.39-6.702-.98-6.472-4.354.125-1.827 1.919-3.487 3.261-4.614 3.717-2.634 6.53-3.71 10.753-5.081 1.427-.393 2.75-.658 4.196-.952-.136-7.075.082-14.31-.188-21.383-.014-.371-.484-1.14-.69-1.483 3.703.028 7.466-.087 11.16.002 2.923.07 5.49.587 7.547 2.774 4.852 2.73 3.204 8.346-1.247 10.472 1.987 2.599 6.877 9.61 9.254 11.105.416.133.25.13.65.048.46-.731-.096-17.893.114-20.535.102-1.287-.16-2.702-.765-3.87"/><path fill="#c6a764" d="M127.65 76.985c6.151 4.434 2.116 9.56-3.429 11.546 1.323 1.926 9.528 12.976 11.075 14.062-.277.37-.236.205-.187.615.503.439 6.573.472 7.205.073.039-.235.068-.294-.026-.515.689-.096.884-.146 1.548.026.387.912 1.17 1.768 1.797 2.566-2.653.001-5.368.035-8.014-.084 6.576 6.892 16.528 10.968 26.04 11.388 1.712.076 3.623-.085 5.264-.006-.585.157-1.417.295-2.025.359-9.788 1.035-21.14-2.597-28.428-9.23-3.078-2.801-5.699-6.507-8.315-9.828-2.506-3.18-5.353-7.015-8.247-9.884l-.09-.067-.26-.357c.95-1.48 6.913-.843 6.92-7.946-.123-1.237-.305-1.639-.828-2.718"/><path fill="url(#b)" d="M128.477 79.703c.481.536.615 1.574.516 2.26-.495 3.438-4.172 5.24-7.176 6.043l-.26-.357c.952-1.48 6.914-.843 6.92-7.946"/><path fill="#c6a764" d="M135.869 38.248c4.85 2.73 3.203 8.346-1.248 10.472 1.987 2.599 6.877 9.61 9.254 11.105-1.051-.317-2.148-.578-3.216-.845a347 347 0 0 0-5.034-6.238c-.929-1.066-1.96-2.138-2.928-3.176q-.627-.556-1.264-1.1c-.29-.172-.303-.177-.49-.451.357-.42 1.878-.671 2.713-1.178 2.08-1.26 2.577-2.276 3.21-4.45.04-1.85-.056-2.56-.998-4.139"/><path fill="#fff" d="M136.867 42.387c.086-.387.059-.635.31-.833 1.107 3.117-2.907 6.55-5.744 6.912-.29-.172-.303-.177-.49-.451.357-.42 1.878-.671 2.713-1.178 2.08-1.26 2.577-2.276 3.211-4.45"/><path fill="#e1d3b3" d="M132.697 49.566c.291-.089.336-.17.618.027.637.444 2.359 2.333 2.65 2.988l-.152.215-.188-.054c-.929-1.066-1.96-2.138-2.928-3.176"/><path fill="#c6a764" d="M115.622 89.315c.57.55.987.984 1.512 1.577l-1.708-.175-.01 7.656c-.003 1.412-.069 2.83.094 4.233.16 1.373 1.29 1.845 2.176 2.728-2.887.038-7.681.163-10.486-.046.616-.58 1.322-1.077 1.539-1.812 1.85-.088 4.326-.017 6.226-.02-.408-.402-.72-.722-1.093-1.155.715-.99-.084-11.503.345-12.78.54-.145.847-.161 1.405-.206M151.575 49.47l1.38 1.723c-.327.774-.058 9.611.187 11.027.022.126.954 1.632 1.12 1.95-1.162-.565-2.286-1.112-3.426-1.729l-.04-.175q.397-.137.782-.3c-.03-.34-.024-.235-.334-.546.552-.72-.03-5.652.107-6.946.146-1.403.15-3.547.224-5.004M163.627 62.131c1.26-.003 5.461-.077 6.441.087.12.35 1.793.612 2.384 1.565l-.159.191c-.927.193-6.188.11-7.387.102-.638-.676-.96-1.074-1.279-1.945M151.348 37.226c.814-.247 1.65-.268 2.5-.303l-.911 1.314c-.015.855-.119 4.404.028 4.975-.418.424-1.182 1.153-1.537 1.587.046-1.22.114-6.46-.08-7.573"/><path fill="#e7dfd0" d="M113.872 102.301c-.182-.307-.355-.657-.347-1.015.036-1.663-.43-12.046.123-12.834.685-.067 1.45.47 1.974.863-.558.045-.866.061-1.405.205-.43 1.278.37 11.79-.345 12.781"/><path fill="#cab289" d="M151.244 61.42c-.866-1.193-.257-8.072-.432-9.926-.049-.497.01-2.2.112-2.674l.148.016.503.634c-.074 1.457-.078 3.6-.224 5.004-.137 1.294.445 6.226-.107 6.946M150.905 36.956c.19.14.221.19.443.27.194 1.113.126 6.353.08 7.573-.164.11-.302.177-.474.27-.232-.612-.132-7.122-.049-8.113"/><path fill="#fff" d="M124.353 58.594c.48-.16 1.18-.12 1.706-.119 1.199-.001 3.054-.05 4.182.146 1.11.005 2.716.326 3.853.528.352.36.975.953 1.227 1.355 2.19 2.523 4.163 4.766 6.56 7.107a120 120 0 0 1-14.127 3.727c-2.029.636-11.817 2.34-13.467 1.838-3.146-.097-11.796-.805-10.177-5.875.155-1.144 1.43-2.257 2.325-2.908.405-.59 3.136-2.02 3.919-2.337 1.37-.67 6.574-2.797 7.798-2.25l-.093.871c-.203.465-.474.896-.338 1.361.53.406 1.355.256 2.087.229 1.133-.19 4.135.271 5.036-.28.046-.409.081-.238-.26-.667-.504-.702-.53-1.94-.23-2.726"/><path fill="#c6a764" d="M110.354 62.056c1.37-.67 6.574-2.797 7.798-2.25l-.093.871c-.753-.327-3.314.772-4.227 1.078-4.163 1.393-12.262 6.203-4.148 9.48 3.582 1.448 9.35 1.258 13.128.782 1.146-.162 4.029-.725 4.942-.679-2.029.636-11.817 2.34-13.467 1.838-3.146-.097-11.796-.805-10.177-5.875.155-1.144 1.43-2.257 2.325-2.908.405-.59 3.136-2.02 3.919-2.337"/><path fill="#fff" d="M104.11 67.301c.355.8-.187.54.256 1.026.069-.17.131-.296.155-.478l.143.74c1.244 2.677 3.739 3.246 6.414 3.73.935.17 2.408.195 3.243.51.034.26.07.155-.034.347-3.146-.097-11.796-.805-10.177-5.875"/><path fill="#e7dfd0" d="M110.354 62.056c1.37-.67 6.574-2.797 7.798-2.25-.54.605-6.152 2.037-7.265 2.419-.114.038-.417-.088-.533-.17M106.435 64.393c.065.254.064.42-.115.664-1.012 1.38-1.534 1.77-1.656 3.533l-.143-.741c-.024.182-.086.308-.155.478-.443-.486.1-.226-.256-1.026.155-1.144 1.43-2.257 2.325-2.908"/><path fill="#c6a764" d="M124.353 58.594c.48-.16 1.18-.12 1.706-.119l.25.557.034.306c-.175 2.278.144 3.047 1.527 4.78-1.172.004-8.765.12-9.34-.1l-.07-.26c.576-.708 1.2-.783 1.348-1.492 1.133-.188 4.135.272 5.036-.278.046-.41.081-.24-.26-.668-.504-.702-.53-1.94-.23-2.726"/><path fill="#cab289" d="M124.584 61.32c-.504-.702-.53-1.94-.23-2.726l.36.145c.158.69.283 1.97-.13 2.581"/><path fill="#c6a764" d="M126.06 58.475c1.198-.001 3.052-.05 4.181.146 1.11.005 2.716.326 3.853.528.352.36.975.953 1.227 1.355-2.418-1.037-6.295-1.089-8.978-1.166l-.035-.306z"/><path fill="#fff" d="M126.06 58.475c1.198-.001 3.052-.05 4.181.146-.626.498-3 .4-3.933.41zM159.097 66.89l-.208-.184c1.525-.717 10.19.35 12.265 1.045 1.787.819 2.951 1.466 2.467 3.625l-.233.339c-1.141 1.711-3.112 2.387-5.04 2.768q-.9.175-1.806.33c-5.82.992-10.848-.672-15.49-4.204-.63-.48-2.783-2.23-3.032-2.857l.275-.258c.552-.044 1.125-.124 1.677-.192 2.007-.28 3.861-.667 5.9-.518 2.757.202 7.445 5.144 9.626 5.096l.107-.178c-.538-.841-5.295-3.846-6.508-4.812"/><path fill="#c6a764" d="M148.295 67.494c.552-.044 1.125-.124 1.677-.192.756 2.254 8.723 5.798 11.137 5.949 2.984.187 6.54.589 9.389-.638 3.956-1.572 2.084-3.223-.73-4.392-.152-.312-.157-.234-.532-.44.115-.008.88.147 1.576.111l.342-.141c1.787.819 2.951 1.466 2.467 3.625l-.233.339c-1.141 1.711-3.112 2.387-5.04 2.768q-.9.175-1.806.33c-5.82.992-10.848-.672-15.49-4.204-.63-.48-2.783-2.23-3.032-2.857z"/><path fill="#e7dfd0" d="M166.542 74.813c-5.82.992-10.848-.672-15.49-4.204-.63-.48-2.783-2.23-3.032-2.857l.275-.258c4.503 4.212 9.622 7.298 15.952 7.068a54 54 0 0 0 1.774-.107c.38.157.287.062.521.358"/><path fill="#e1d3b3" d="M166.021 74.455c1.604-.356 3.103-.506 4.733-1.177.816-.336 1.936-1.435 2.634-1.563-1.141 1.711-3.112 2.387-5.04 2.768q-.9.175-1.806.33c-.234-.296-.142-.2-.521-.358"/><path fill="#e7dfd0" d="m170.813 67.892.34-.141c1.788.819 2.952 1.466 2.468 3.625-.652-.466-.353-2.53-2.809-3.484"/><path fill="#cab289" d="m159.097 66.89-.208-.184c1.525-.717 10.19.35 12.265 1.045l-.342.141c-.697.036-1.461-.12-1.576-.112.375.207.38.13.532.441-2.75-.622-7.859-1.578-10.671-1.331"/><path fill="#fff" d="M113.453 76.369c2.767-.171 6.776-.34 8.239 2.64 1.032 4.223-2.314 6.373-6.055 6.633l-1.677-.068-.385-.068c-.355-.61-.18-7.956-.122-9.137"/><path fill="#c6a764" d="M113.453 76.369c2.767-.171 6.776-.34 8.239 2.64-2.186-1.225-3.644-1.335-6.126-1.227 0 2.388-.086 5.532.071 7.86l-1.677-.068-.385-.068c-.355-.61-.18-7.956-.122-9.137"/><path fill="#e7dfd0" d="m113.453 76.369.635.206c.137.294.073 8.581-.128 9l-.385-.069c-.355-.61-.18-7.956-.122-9.137"/><path fill="#fff" d="M126.005 38.125c1.542.033 3.437.617 4.31 1.991 1.33 2.988-.586 5.278-3.486 6.02-.75.068-1.759.21-2.475.055-.329-.637-.376-7.302-.065-7.899.507-.258 1.136-.183 1.716-.167"/><path fill="#c6a764" d="M126.005 38.125c1.542.033 3.437.617 4.31 1.991-1.541-.5-2.318-.518-3.945-.498-.017 1.101-.177 5.749.15 6.42l.31.097c-.75.069-1.76.21-2.476.056-.329-.637-.376-7.302-.065-7.899.507-.258 1.136-.183 1.716-.167"/><path fill="#cab289" d="M124.354 46.19c-.329-.636-.376-7.3-.065-7.898.507-.258 1.136-.183 1.716-.167-.427.237-1.129.478-1.212.95-.385 2.158.388 4.722-.1 6.864z"/><path fill="#fff" d="M124.139 49.946c.03-.361.022-.403.169-.727l.322-.11c.53.052 1.143.519 1.613.82.585.495 1.176.972 1.704 1.527 1.308 1.286 4.221 4.83 5.256 6.36-2.342-.209-4.306-.443-6.666-.373l-1.874-.015-.335-.066c-.312-.603-.192-6.324-.19-7.416"/><path fill="#c6a764" d="M124.139 49.946c.03-.361.022-.403.169-.727l.322-.11c.53.052 1.143.519 1.613.82.585.495 1.176.972 1.704 1.527l-1.677-.157c-.008 1.003-.244 5.612.24 6.123q.012.012.027.02l-1.874-.015-.335-.065c-.312-.603-.192-6.324-.19-7.416"/><path fill="#cab289" d="m124.139 49.946.662.205c-.034 1.103.092 6.906-.138 7.276l-.335-.065c-.312-.603-.192-6.324-.19-7.416"/><path fill="#e7dfd0" d="M124.139 49.946c.03-.361.022-.403.169-.727l.322-.11c.53.052 1.143.519 1.613.82-.493.245-.891.21-1.442.222z"/><path fill="#c6a764" d="M141.942 60.628c4.715 1.534 7.356 2.363 11.817 4.686-.63.05-1.311.09-1.934.162-1.252.154-2.191.291-3.423.552-.362.077-.943.18-1.261.317-.09-.004-.457-.029-.5-.06-1.01-.713-3.156-3.55-3.76-4.501-.41-.422-.595-.676-.939-1.156"/><path fill="#fff" d="M146.895 64.151c1.913-.027 3.358.093 4.93 1.326-1.252.153-2.191.29-3.423.55-.605-.549-1.033-1.21-1.507-1.876"/><path fill="#e1d3b3" d="M142.88 61.784c.597.07 4.004 3.969 4.26 4.561-.089-.004-.456-.029-.499-.06-1.01-.713-3.156-3.55-3.76-4.501"/><path fill="#000" d="M91.807 61.024c-1.535-.86-3.398-1.99-4.454-3.289-8.35-10.25-.287-23.568 12.576-22.647 5.702.409 8.522 1.408 12.458 5.687 2.069 1.38 3.742 4.772 4.185 7.173.742 4.025-.146 7.2-2.401 10.546q-.186.275-.378.548l.05.248c-4.222 1.372-7.036 2.447-10.753 5.08-.4-.226-.797-.182-1.263-.195-3.209-.085-7.711-.667-10.02-3.15"/><path fill="#c6a764" d="M112.387 40.775c2.069 1.38 3.742 4.772 4.185 7.173.742 4.025-.146 7.2-2.401 10.546q-.186.275-.378.548l.05.248c-4.222 1.372-7.036 2.447-10.753 5.08-.4-.226-.797-.182-1.263-.195-3.209-.085-7.711-.667-10.02-3.15 3.131 1.18 6.233 1.836 9.608 1.462 5.806-.42 11.354-3.868 12.944-9.705.334-1.226.408-2.25.502-3.522-.074-.524-.095-1.632-.15-2.232-.234-2.565-1.029-4.111-2.324-6.253"/><path fill="#e7dfd0" d="M114.861 49.26c.224.995-.066 3.435-.333 4.453-1.313 4.995-6.257 8.144-11.11 8.998-.662.118-1.131.24-1.814.097-.119-.15-.158-.156-.19-.321 5.807-.42 11.355-3.868 12.945-9.705.334-1.226.408-2.25.502-3.522"/><path fill="#fff" d="M97.539 38.802c.895-.218 2.563-.124 3.476-.069 1.967.303 4.108 1.18 5.29 2.876 2.262 2.783 2.373 5.856 2.124 9.313-.515 7.149-8.272 10.096-14.1 6.66-1.197-.653-2.407-2.136-2.974-3.373-.242-.464-.558-1.41-.65-1.936-1.032-5.978.165-12.042 6.834-13.47"/><path fill="#c6a764" d="M97.539 38.802c.895-.218 2.563-.124 3.476-.069 1.967.303 4.108 1.18 5.29 2.876-9.695-4.22-15.213 2.933-13.098 12.174.295 1.289.807 2.541 1.122 3.799-1.197-.653-2.407-2.136-2.974-3.373-.242-.464-.558-1.41-.65-1.936-1.032-5.978.165-12.042 6.834-13.47"/><path fill="url(#c)" d="M91.355 54.209c-.242-.464-.558-1.41-.65-1.936-1.032-5.978.165-12.042 6.834-13.47.448.022 1.022-.002 1.37.248-2.633.641-4.862 1.535-6.34 3.953-2.82 4.609-.664 10.011-1.214 11.205"/><path fill="#cab289" d="M97.539 38.802c.895-.218 2.563-.124 3.476-.069l-.12.257c-.43.135-1.596.183-1.986.06-.348-.25-.922-.225-1.37-.248"/><path fill="#000" d="M57.241 31.802c4.156.134 8.322-.074 12.474.096 3.778.155 6.747.741 9.275 3.728 4.284 2.707 3.575 8.27-.499 10.943 1.006.623 1.752 1.227 2.53 2.134 1.91 1.613 2.937 2.911 3.234 5.502.763 6.676-5.497 9.82-11.27 9.938-4.554.094-9.578.213-14.158.053.605-.52 1.622-1.347 2.15-1.892-.664 0-2.848.04-3.403-.13.117-.23 1.04-1.314 1.28-1.606.201-5.127-.075-10.949.018-16.169.042-2.364.12-9.136-.172-11.246-.34-.403-1.043-.985-1.459-1.35"/><path fill="#c6a764" d="M81.022 48.703c1.91 1.613 2.936 2.911 3.233 5.502.763 6.676-5.497 9.82-11.27 9.938-4.554.094-9.578.213-14.158.053.605-.52 1.622-1.347 2.15-1.892-.664 0-2.848.04-3.403-.13 4.233-.031 8.99-.142 13.19-.004 5.429-.528 10.816-1.954 11.429-8.328-.093-2.355-.058-3.058-1.171-5.139"/><path fill="#fff" d="M82.193 53.842c.1-.45.088-.777.366-1.06.4.737.144 2.98-.128 3.854-.656 2.112-1.836 3.153-3.62 4.205-1.625.958-5.981 1.923-7.777 1.68-.275-.198-.206-.071-.27-.351 5.429-.528 10.816-1.954 11.429-8.328"/><path fill="#c6a764" d="M78.99 35.626c4.284 2.707 3.575 8.27-.499 10.943l-1.897-.82-.665-.213c.16-.722 1.748-1.127 2.303-1.748.92-1.03 1.28-1.894 1.65-3.17-.006-2.254.036-2.932-.892-4.992"/><path fill="#fff" d="M79.882 40.618c.077-.55.122-.87.275-1.402l.164-.116c.742 2.444-1.177 5.932-3.727 6.65l-.665-.214c.16-.722 1.748-1.127 2.303-1.748.92-1.03 1.28-1.894 1.65-3.17M65.147 47.9c3.48-.45 7.7-.167 10.075 2.738 2.528 5.956-3.137 8.175-7.97 7.986l-2.089-.028c-.115-2.82-.194-7.943-.016-10.696"/><path fill="#c6a764" d="M65.147 47.9c3.48-.45 7.7-.167 10.075 2.738-3.167-.677-4.716-1.113-7.991-.864-.004 2.734-.098 6.175.021 8.85l-2.089-.028c-.115-2.82-.194-7.943-.016-10.696"/><path fill="#fff" d="M65.171 35.742c.04-.186.078-.209.18-.373 1.294-.312 2.643-.112 3.961.015 1.787.407 3.281.95 4.197 2.689.823 4.583-2.297 6.038-6.273 6.045l-2.157-.008c-.014-1.58-.138-7.196.092-8.368"/><path fill="#c6a764" d="M65.171 35.742c.04-.186.078-.209.18-.373 1.294-.312 2.643-.112 3.961.015 1.787.407 3.281.95 4.197 2.689-1.955-.9-4.176-.918-6.295-.88-.009 1.83-.119 5.146.022 6.925l-2.157-.008c-.014-1.58-.138-7.196.092-8.368"/><path fill="#cab289" d="M65.171 35.742c.04-.186.078-.209.18-.373 1.294-.312 2.643-.112 3.961.015-.314.394-.34.471-.96.501-.696.034-2.672.18-3.18-.143"/><path fill="#000" d="m224.046 35.463 6.576-.032c-.436 1.34-.453 1.604-.28 2.946.397-.444.44-.524.679-1.073.546-.232 1.494-.17 2.112-.138-.923 2.009-.281 4.358.003 6.522l.964 7.262c.458 3.452.914 7.63 1.683 11.049.165.74 1.217.913 1.292 1.966-.58.246-6.576.17-7.656.171-.525-.381-.33-.978-.263-1.59.058-.187.04-.09-.062-.335-.49-.092-.895-.137-1.39-.19l-.43-.048-.204-.22a51 51 0 0 0-.314-3.914c-.426-3.543-.96-7.077-1.355-10.613-.123-1.23-.266-3.256-.545-4.396l-.1-.045c-.677.964-2.046 3.81-2.631 4.953l-5.051 9.777c-.72 1.385-1.81 3.682-2.583 4.92-.715-1.1-1.268-2.185-1.917-3.312-2.532-4.392-4.83-9.058-7.417-13.41-.602 1.173-1.356 14.163-.996 16.293.08.471 1.132 1.686 1.532 2.147q-4.028.052-8.053.015c.512-.736.754-1.108 1.412-1.736l-.091-.326-2.515-.054c.366-.54.775-1.17.876-1.822.868-5.561 1.213-11.248 1.781-16.85.214-2.109.461-4.405.454-6.495l-.807-1.42 7.134-.028 1.074 1.84c.448-.254.78-.506 1.29-.468 1.588.635 6.794 12.746 8.134 13.593z"/><path fill="#c6a764" d="M231.02 37.304c.547-.232 1.495-.17 2.113-.138-.923 2.009-.281 4.358.003 6.522l.964 7.262c.458 3.452.914 7.63 1.683 11.049.165.74 1.217.913 1.292 1.966-.58.246-6.576.17-7.656.171-.525-.381-.33-.978-.263-1.59.058-.187.04-.09-.062-.335-.49-.092-.895-.137-1.39-.19.7-.006 1.47-.033 2.164.023l4.782-.006-1.082-1.105c-1.062-2.166-2.867-19.228-3.226-22.556.397-.444.44-.524.678-1.073"/><path fill="#e7dfd0" d="M230.342 38.377c.397-.444.44-.524.679-1.073-.491 3.27 3.131 22.68 2.547 23.63-1.062-2.167-2.867-19.229-3.226-22.557M227.704 62.021c.7-.006 1.47-.033 2.164.023.91.414 3.338-.161 4.176.281l-.016.188c-.621.155-4.146.125-4.872.032.058-.186.04-.089-.062-.334-.49-.092-.895-.137-1.39-.19"/><path fill="#c6a764" d="M203.87 43.224c.298.66 1.13 2.07 1.287 2.489-.602 1.173-1.356 14.163-.996 16.294.08.47 1.132 1.685 1.532 2.146q-4.028.052-8.053.015c.512-.736.754-1.108 1.412-1.736l-.091-.326 1.422.012c.655-.103 1.237.07 1.897-.178l.09-.232-.287-.457c.3-.424.244-.854.249-1.38.14-.907.225-2.55.307-3.513.54-4.124.513-8.85 1.23-13.134"/><path fill="#cab289" d="m198.96 62.106 1.423.012c.712.037 1.543-.006 2.148.311l-.132.091-.003-.142-.078-.02-.142.2c-.822.055-2.338.113-3.124-.126z"/><path fill="#c6a764" d="M206.958 37.278c.448-.255.78-.507 1.29-.47 1.588.636 6.794 12.747 8.134 13.594-.24.493-.745 1.455-.902 1.937-.182-.937-4.708-8.832-5.502-10.38-.117-.227-.495-.399-.785-.445-.346-.374-1.926-3.602-2.235-4.236"/><path fill="#cab289" d="M202.175 55.074c-.073-1.052 1.08-12.287 1.284-12.44l.41.59c-.717 4.285-.69 9.01-1.23 13.134-.026-.512-.004-.887-.244-1.34z"/><path fill="#e1d3b3" d="M209.193 41.514c.29.046.668.218.785.446.794 1.547 5.32 9.442 5.502 10.379l-.126.076c-.466-.143-5.452-9.589-6.161-10.901"/><path fill="#e7dfd0" d="m202.175 55.074.22-.056c.24.453.218.828.244 1.34-.082.962-.167 2.606-.307 3.512l-.01-.119c-.068-.797.037-.87-.418-1.556z"/><path fill="#e1d3b3" d="M201.904 58.195c.455.685.35.759.419 1.556l.009.12c-.005.526.05.956-.25 1.38-.524-1-.287-1.902-.178-3.056"/><path fill="#000" d="M187.683 35.463c1.261-.013 6.697-.14 7.525.08.105.598-.196.955-.516 1.526l.285.273c1.057-.123 2.188-.273 3.253-.19l-1.267 1.432c-.179 3.228-.034 6.502-.078 9.74-.06 4.617.71 9.291-3.126 12.74-2.664 2.394-7.214 3.385-10.733 3.284-1.785-.051-6.816-.957-7.571-2.739-1.54-.659-2.75-1.183-3.954-2.389a8.46 8.46 0 0 1-2.235-4.02c-.506-2.064-.364-5.836-.36-8.113l.018-9.836-.01-.342-.971-1.46c1.027-.006 7.283-.179 7.737.192.013.51-.221.855-.458 1.31l.315.323.121-.067c.908-.338 1.817-.26 2.786-.224l-1.047 1.386.006 9.232c.003 3.517-.289 7.21.738 10.531q.439.16.886.28c2.057.558 4.956.582 6.83-.52 1.281-.753 2.072-1.981 2.42-3.41.386-1.588.398-15.885.112-17.527-.09-.53-.432-1.037-.706-1.492"/><path fill="#c6a764" d="M194.729 53.317c-.132-.91-.08-4.506-.073-5.604.02-3.506-.059-7.15.036-10.644l.285.273c1.057-.123 2.188-.273 3.253-.19l-1.267 1.432c-.179 3.228-.034 6.502-.078 9.74-.06 4.617.71 9.291-3.126 12.74-2.664 2.394-7.214 3.385-10.733 3.284-1.785-.051-6.816-.957-7.571-2.738 1.932.522 3.227.762 5.242.885.454.028 1.77.053 2.14.102 6.664-.943 10.402-2.309 11.892-9.28"/><path fill="#e7dfd0" d="M194.729 53.317c.401 1.536.09 2.99-.694 4.346-1.535 2.657-4.284 4.096-7.165 4.852-.907.238-3.26.644-4.033.082 6.664-.943 10.402-2.309 11.892-9.28"/><path fill="#c6a764" d="M175.658 37.207c.908-.338 1.817-.26 2.786-.224l-1.047 1.386.006 9.232c.003 3.517-.289 7.21.738 10.531-1.055-.518-2.014-1.284-2.474-2.39.472-.703-.16-10.618.05-12.202.11-.817.16-5.521-.059-6.333"/><path fill="#cab289" d="M175.667 55.743c-.293-.6-.495-1.61-.508-2.235-.044-2.316-.378-15.09.063-16.557l.315.323.121-.067c.218.812.169 5.516.059 6.333-.21 1.584.422 11.499-.05 12.203"/><path fill="#000" d="M146.232 77.102c5.965-.031 12.077-.076 18.034-.002.08.7.107 1.1.097 1.805l.44-.097c.71-.054.779-.174 1.32.102.562.973.206 2.901.22 4.279-3.263-1.316-7.375-.986-10.96-.983l.025 4.91c1.272-.015 6.243-.15 7.225.023l.15.435c.084.567.03.978.387 1.28.667-.033.818-.15 1.34.133.594.986.207 2.9.216 4.298-3.466-1.561-5.555-1.01-9.32-1.074-.01 2.288-.021 4.657-.027 6.938-.009 3.332-.3 3.695 1.976 6.154-3.275.098-6.722.009-10.01-.027.53-.49 1.376-1.18 1.684-1.795l-2.88-.01c.359-.522.713-1.08 1.062-1.612.135-7.47.072-15.767-.013-23.244z"/><path fill="#c6a764" d="M163.17 88.855c.667-.034.818-.15 1.34.132.594.986.207 2.9.216 4.298-3.466-1.561-5.555-1.01-9.32-1.074-.01 2.288-.021 4.657-.027 6.938-.009 3.332-.3 3.695 1.976 6.154-3.275.098-6.722.009-10.01-.027.53-.49 1.376-1.18 1.684-1.795l5.376-.043c-.388-.53-.623-.876-.95-1.444-.393-1.327-.206-9.59-.193-11.428 1.96-.163 5.124-.035 7.15.064.573.028 1.881.7 2.325.703.202.088.186.052.43.027.342-.572.097-1.816.003-2.505"/><path fill="#cab289" d="M153.262 90.566c.708.678.533 1.92.555 2.877.027 1.138.25 8.018-.272 8.481q-.045.037-.09.07c-.393-1.327-.206-9.59-.193-11.428"/><path fill="#c6a764" d="M164.266 77.1c.08.7.107 1.1.097 1.805l.44-.097c.71-.054.779-.174 1.32.102.562.973.206 2.901.22 4.279-3.263-1.316-7.375-.986-10.96-.983l.025 4.91c1.272-.015 6.243-.15 7.225.023-2.558.144-7.064-.155-9.2.126-.288-.73-.193-2.094-.177-2.905.374-1.022.08-3.124.475-3.568 1.185.138 8.306.356 8.908-.13l1.574.61c0-1.387-.011-2.786.053-4.172"/><path fill="#cab289" d="M153.256 84.36c.374-1.022.08-3.124.475-3.568.041 1.229.44 5.81-.299 6.473-.287-.73-.192-2.094-.176-2.905"/><path fill="#e7dfd0" d="m164.363 78.905.44-.097c.034.738.131 1.532-.112 2.22l-.154.048c-.275-.58-.186-1.5-.174-2.171"/><path fill="#cab289" d="M153.242 80.43c1.718.008 8.18-.16 9.397.231-.602.487-7.723.269-8.908.131-.396.444-.101 2.546-.475 3.568z"/><path fill="#e7dfd0" d="M162.784 87.574c.083.567.029.978.386 1.28.094.69.339 1.934-.003 2.506-.244.025-.228.061-.43-.027q.002-1.88.047-3.76"/><path fill="#000" d="M166.367 77.148c5.477-.158 12.69-.178 18.158-.01q.051.775.117 1.548l.204.164c.725-.112.734-.236 1.286.027.56.953.214 2.881.252 4.221-3.714-1.32-7.018-.847-10.969-.89-.023 1.62-.07 3.291-.038 4.909 1.317-.027 5.651-.165 6.882.054l.375.131c.328.727.15 3.104.187 4.014l.374.034c.663-1.016-.54-1.991.71-2.696.443.021.268-.044.65.33.336.759.175 3.383.163 4.344-3.07-1.48-5.916-1.149-9.325-1.14a324 324 0 0 1-.022 6.648c-.034 2.566-.184 4.26 1.773 6.182q.142.142.29.282c-2.838-.004-7.199.181-9.88-.04.386-.42 1.29-1.347 1.539-1.798l-2.89-.004 1.005-1.543c.127-6.788.001-13.603.062-20.393.017-1.83.118-2.808-.903-4.374"/><path fill="#c6a764" d="m182.821 91.316.374.034c.663-1.016-.54-1.991.71-2.696.443.021.268-.044.65.33.336.759.175 3.383.163 4.344-3.07-1.48-5.916-1.149-9.325-1.14a324 324 0 0 1-.022 6.648c-.034 2.566-.184 4.26 1.773 6.182q.142.142.29.282c-2.838-.004-7.199.181-9.88-.04.386-.42 1.29-1.347 1.539-1.798l5.383-.02c-.414-.5-.696-.803-.974-1.401.571-.603.454-10.247.223-11.476 1.89-.178 4.579-.071 6.506.036.793.044 1.868.87 2.59.715M184.846 78.85c.725-.112.734-.236 1.286.027.56.953.214 2.881.252 4.221-3.714-1.32-7.018-.847-10.969-.89-.023 1.62-.07 3.291-.038 4.909 1.317-.027 5.651-.165 6.882.054-1.207.076-8.003.1-8.84-.059.8-.276.478-5.228.476-6.255 1.43.223 6.02-.012 7.398-.408 1.202.029 2.035.383 3.145.79.248.136.143.105.466.053.302-.664.072-1.723-.058-2.442"/><path fill="#cab289" d="M173.288 80.447q4.004.029 8.005.002c-1.378.396-5.969.631-7.398.408.002 1.027.325 5.979-.477 6.255-.263-.689-.14-5.557-.13-6.665"/><path fill="#e1d3b3" d="M173.502 102.04c-.277-.923-.316-10.398-.086-11.344l.309-.13c.231 1.228.348 10.872-.223 11.475"/><path fill="#cab289" d="M184.525 77.138q.051.775.117 1.548l.204.164c.13.72.36 1.778.058 2.442-.323.052-.218.083-.466-.052-.004-1.427.014-2.67.087-4.102"/><path fill="#000" d="m134.716 77.114.067-.003c.986-.04 7.294-.178 7.69.186-.117.573-.206.518-.653 1.021.129.267.234.607.445.746.838-.542 1.58-.383 2.577-.32-.334.474-.667.954-1.006 1.423v22.625c-.664-.172-.859-.122-1.548-.026.094.221.065.28.026.515-.632.399-6.702.366-7.205-.073-.05-.41-.09-.245.187-.615.544-1.046.354-7.263.353-8.91l-.013-15.163z"/><path fill="#c6a764" d="M142.265 79.064c.838-.542 1.58-.383 2.577-.32-.334.474-.667.954-1.006 1.423v22.625c-.664-.172-.859-.122-1.548-.026l-.156-.115.206-.245c.146-1.135.003-5.045.007-6.546l.036-11.36c.001-1.146.076-4.45-.116-5.436"/><path fill="#cab289" d="M141.82 78.318c.129.267.234.607.445.746.192.986.117 4.29.116 5.435l-.036 11.361c-.004 1.501.139 5.41-.007 6.546l-.206.245c-.27-.33-.36-.569-.363-1.002-.061-6.858-.053-13.72-.065-20.577-.001-.92-.012-1.841.116-2.754"/><path fill="#c6a764" d="M224.856 42.83c.279 1.14.422 3.166.545 4.396-.01.002-.022.001-.032.006-.882.351-7.749 15.059-9.073 17.158-.387-.626-.642-1.246-.938-1.917 1.887-4.598 9.122-15.932 9.498-19.643M168.914 36.91l.01.34c-.893.573-10.834 9.483-11.29 10.27-.414-.497-.774-.973-1.293-1.364.642-.32 1.821-1.57 2.417-2.078 2.048-1.745 5.414-5.577 7.531-6.976q1.313-.102 2.625-.193"/></g></svg></svg>