<svg xmlns="http://www.w3.org/2000/svg" width="300" height="200"><svg xmlns="http://www.w3.org/2000/svg"><defs><clipPath id="a"><path fill="none" d="M0 0h299.991v200H0z"/></clipPath></defs><g fill="none" stroke-miterlimit="10" clip-path="url(#a)" font-family="none" font-size="none" font-weight="none" style="mix-blend-mode:normal" text-anchor="none"><path fill="#fff" d="M0 0h300v200H0z"/><path fill="#742314" d="M71.405 74.392c-.88-.789-2.718-2.506-2.215-3.82.684-.198 6.675-.14 7.714-.099 7.878.315 19.385-2.111 22.2 7.792 1.048 4.048.053 8.465-3.889 10.512l-.294.156 1.103.66c1.842.997 3.565 3.102 4.226 5.053a11.35 11.35 0 0 1-.158 8.752c-1.132 2.582-3.302 4.322-5.904 5.298-1.368.504-2.795.83-4.247.967-5.26.508-11.268-.128-16.599.115-.934.042-2.807.119-3.657.013-.027-.153-.064-.329-.08-.482-.01-.456.073-.279-.163-.582l-.538-.013-.018-.11c-.03-.204-.083-.746.031-.888.84-1.042 1.61-1.565 2.457-2.688.205-10.012-.306-20.745.03-30.636"/><path fill="#fccd6a" d="M71.405 74.392c-.88-.789-2.718-2.506-2.215-3.82.684-.198 6.675-.14 7.714-.099 7.878.315 19.385-2.111 22.2 7.792 1.048 4.048.053 8.465-3.889 10.512l-.294.156c-.555-.053-.712-.294-1.127-.688 1.638-.746 2.212-1.366 3.417-2.737l-.6-.473c3.716-6.376.394-12.765-6.84-13.506-6.479-.665-13.37.056-19.873-.215.745.79 1.649 1.694 2.281 2.557l.03 19.11c0 3.938.08 8.25-.044 12.16-.839 1.177-1.537 1.88-2.62 2.833-.218.346-.296.554-.641.74l-.018-.11c-.03-.204-.083-.746.031-.888.84-1.042 1.61-1.565 2.457-2.688.205-10.012-.306-20.745.03-30.636"/><path fill="#ebaf43" d="M97.211 85.508c1.273-1.61 1.618-3.551 1.73-5.551.037-.67-.128-1.135.164-1.692 1.047 4.048.052 8.465-3.89 10.512l-.294.156c-.555-.053-.712-.294-1.127-.688 1.638-.746 2.212-1.366 3.417-2.737M100.25 94.646a11.35 11.35 0 0 1-.158 8.752c-1.132 2.582-3.302 4.322-5.904 5.298-1.368.504-2.795.83-4.247.967-5.26.508-11.268-.128-16.599.115-.934.042-2.807.119-3.657.013-.027-.153-.064-.329-.08-.482.14-.215.253-.398.549-.407 4.02-.132 8.11.003 12.133-.017 3.432-.017 6.254.18 9.603-.6 5.038-1.171 8.42-4.788 8.45-10.059.004-1.168-.218-2.439-.09-3.58"/><path fill="#fed679" d="M96.024 89.593c1.842.997 3.565 3.102 4.226 5.053-.128 1.141.094 2.412.09 3.58-.03 5.27-3.412 8.888-8.45 10.06-3.35.779-6.171.582-9.603.599-4.023.02-8.113-.115-12.133.017-.296.01-.408.192-.548.407-.012-.456.071-.279-.164-.582l-.538-.013c.345-.186.423-.394.64-.74 3.022.158 6.318.084 9.412.057 5.876-.136 12.799 1.107 17.672-3.033 3.067-2.606 3.8-7.231 2.461-10.89-.508-1.39-1.725-2.425-2.679-3.5-.162-.325-.33-.468-.599-.71l-.136-.121zM96.61 85.035l.601.473c-1.205 1.37-1.779 1.991-3.417 2.737-.591.201-1.575.516-2.002-.011 2.294-1.058 2.964-1.22 4.818-3.199"/><path fill="#fac663" d="M96.41 90.609c-2.245-1.258-2.622-1.466-5.066-2.031l-.008-.22.456-.124c.427.527 1.41.212 2.002.011.415.394.572.635 1.127.688l1.103.66-.349.184.136.121c.268.242.437.385.6.71"/><path fill="#fed679" d="M81.044 90.73c2.343.082 5.21-.294 7.142 1.307 2.836 2.35 2.828 7.813.562 10.518-2.198 2.01-4.952 1.738-7.678 1.239-.22-3.58-.051-9.406-.026-13.063"/><path fill="#fff" d="M81.772 91.598c1.733-.038 6.496-.223 6.819 2.27 1.547 2.166 1.542 6.963-.933 8.57-1.723 1.12-3.289.99-5.218.943-.018-.708-.012-2.086-.09-2.739-.046.562.062 2.426-.367 2.734-.356-1.675-.129-9.421-.211-11.778"/><path fill="#ebaf43" d="M81.772 91.598c1.733-.038 6.496-.223 6.819 2.27-2.258-1.57-3.583-1.423-6.265-1.331.01 2.555.103 5.592.024 8.105-.046.562.062 2.426-.367 2.734-.356-1.675-.129-9.421-.211-11.778"/><path fill="#fed679" d="M81.02 75.197c2.691-.06 5.153-.466 7.149 1.67 1.812 2.743 1.774 7.308-1.088 9.426-1.055.78-5.274 1.322-6.074.647z"/><path fill="#fff" d="M82.328 76.955c2.227-.08 3.444-.278 5.34.942 1.539 1.775 1.236 5.943-.584 7.515-1.164 1.006-3.268.924-4.738.962z"/><path fill="#fac663" d="M88.169 76.866c1.812 2.744 1.774 7.31-1.088 9.427-1.055.78-5.274 1.322-6.074.647 1.26-.414 6.87.477 7.081-2.174-.75.532-.763 1.037-2.14 1.472-1.022.323-3.386.633-4.313.16l.184-.268.527.244c1.47-.038 3.574.044 4.738-.962 1.82-1.572 2.123-5.74.584-7.515.001-.106-.094-.657-.116-.795z"/><path fill="#ebaf43" d="M81.79 76.049c2.207-.045 3.906-.244 5.762 1.053.022.138.117.689.116.795-1.896-1.22-3.113-1.022-5.34-.942l.018 9.419-.527-.244c.125-.777-.015-2.94-.03-3.859a547 547 0 0 1 .001-6.222"/><path fill="#742314" d="M104.308 74.178c-.792-.66-2.88-2.553-2.02-3.643 2.87-.213 6.57-.068 9.501-.06 4.812.015 11.703-.575 15.79 2.205 1.958 1.161 3.796 3.2 4.452 5.38.316.602.342.735.492 1.384 1.173 5.304-1.044 10.281-6.074 12.55 2.221 3.323 4.094 6.567 6.167 9.939 1.614 2.58 1.981 3.375 4.389 5.183l.358.182c.387.109.423.047.628.297l-.06.337c.815.279 10.59.024 12.18.098l1.568-.024.375-.031c.278.277.29.373.442.746l.372-.082c.163.415.18.432.104.857-.605.472-2.884.36-3.706.29-3.444-.298-7.535.33-10.897-.047l-.125-.15.118-.894c-.263-.186-.23-.11-.67-.042l.03.839c-.259.55-8.83.303-9.75.046-1.283-.358-2.467-1.089-3.435-1.978-.253-.16-.204-.158-.373-.44-1.058-.95-6.91-11.465-7.182-12.773-.627-.094-.976-.04-1.605.014.009 1.742.165 10.029-.17 11.226 1.02.87 1.713 1.625 2.18 2.872.38.333.385.43.495.931l-.106.283c-.945.192-14.34.21-15.009-.061-.088-.285-.09-.264-.051-.559l-.13-.229-.49-.02c-.204-1.591 1.14-2.31 2.213-3.443.096-3.568.031-7.489.033-11.081z"/><path fill="#fccd6a" d="M104.308 74.178c-.792-.66-2.88-2.553-2.02-3.643 2.87-.213 6.57-.068 9.501-.06 4.812.015 11.703-.575 15.79 2.205l-.292.193c-.514-.212-.627-.281-1.175-.25-1.084-.317-3.138-1.098-4.172-1.193-2.003-.184-4.452-.131-6.481-.129q-6.332.048-12.664-.023c1.004.934 1.471 1.445 2.345 2.501l.02 18.92c-.002 4.095.074 8.52-.057 12.591-.46.82-1.8 2.113-2.533 2.745l2.423.009c-.547.323-1.472.023-1.926.17-.6.195.02.307-.97.59-.205-1.591 1.138-2.31 2.212-3.443.096-3.568.031-7.489.033-11.081z"/><path fill="#fed679" d="M131.42 79.173c.151-1.09-.326-1.962-.745-2.968.624.515.738 1.112 1.176 1.878l.18-.022c.316.601.342.734.492 1.383 1.173 5.304-1.044 10.281-6.074 12.55-.317-.398-.385-.488-.596-.948-.176.15-.374.31-.538.47-.282-.41-.394-.434-.429-.888 5.183-2.693 6.888-5.479 6.534-11.455"/><path fill="#ebaf43" d="M125.852 91.046c3.453-1.211 6.172-5.48 6.36-8.994.046-.843.014-1.652.104-2.482l.207-.126c1.173 5.304-1.044 10.281-6.074 12.55-.317-.398-.385-.488-.597-.948M104.993 108.044c3.42-.016 8.016-.15 11.349.076.22.19.561.454.697.69l.348-.351c.38.333.385.43.495.931l-.106.283c-.945.192-14.34.21-15.009-.061-.088-.285-.09-.264-.051-.559l-.13-.229-.49-.02c.99-.283.37-.395.971-.59.454-.147 1.38.153 1.926-.17"/><path fill="#fed679" d="M104.993 108.044c3.42-.016 8.016-.15 11.349.076.22.19.561.454.697.69-1.881.075-13.663-.107-14.323.243l-.13-.229-.49-.02c.99-.283.37-.395.971-.59.454-.147 1.38.153 1.926-.17"/><path fill="#ebaf43" d="m151.679 108.006.375-.031c.278.277.29.373.442.746l.372-.082c.163.415.18.432.104.857-.605.472-2.884.36-3.706.29-3.444-.298-7.535.33-10.897-.047l-.125-.15.118-.894c-.263-.186-.23-.11-.67-.042l-.092-.115.163-.306c1.525-.359 11.562.22 12.348-.202z"/><path fill="#fed679" d="m151.679 108.006.375-.031c.278.277.29.373.442.746-.464.255-13.242.221-14.134-.026-.263-.186-.23-.11-.67-.042l-.092-.115.163-.306c1.525-.359 11.562.22 12.348-.202zM114.08 92.541c.683-.004 1.493-.027 2.174.01.589.031.616.239.896.65l-.217.272.206.68c-.074.119-.067.161-.157.194-.627-.094-.976-.04-1.605.014.009 1.742.165 10.029-.17 11.226 1.02.87 1.713 1.625 2.18 2.872l-.348.351c-.136-.236-.478-.5-.697-.69-.148-.596-1.634-1.897-2.265-2.79-.098-4.194-.016-8.58.003-12.789"/><path fill="#ebaf43" d="M114.692 93.318c.8.093 1.435.126 2.24.155l.207.68c-.074.119-.067.161-.157.194-.627-.094-.976-.04-1.605.014.009 1.742.165 10.029-.17 11.226-.823-.818-.505-10.508-.515-12.27"/><path fill="#fed679" d="M124.164 107.12c-.317-.97-.814-1.314-1.252-2.18l.095-.06c.587.73 1.268 1.827 2.142 2.075l.237-.058c3.688 1.613 3.595.951 6.962 1.2 1.422.087 2.794.04 4.206.122.483.029.722.274 1.046.319l.092.115.03.839c-.259.55-8.83.303-9.75.046-1.283-.358-2.467-1.089-3.435-1.978-.253-.16-.204-.158-.373-.44"/><path fill="#ebaf43" d="M124.537 107.56c.93.117 2.059.93 3.028 1.098 2.45.425 5.113.194 7.603.22.342.003 2.12-.137 2.312.05.118.115.19.393.242.564-.259.55-8.83.303-9.75.046-1.283-.358-2.467-1.089-3.435-1.978"/><path fill="#fac663" d="M125.315 91.516c.164-.16.362-.32.537-.47.212.46.28.55.597.947 2.221 3.324 4.094 6.568 6.167 9.94 1.614 2.58 1.981 3.375 4.389 5.183l.358.182c.387.109.423.047.628.297l-.06.337c.815.279 10.59.024 12.18.098-.786.421-10.823-.157-12.348.202l-.163.306c-.324-.045-.563-.29-1.046-.319-1.412-.083-2.784-.035-4.206-.122 1.081-.105 3.245.135 4.129-.215l.052-.22-.385-.372c-1.807-.938-3-2.957-3.963-4.671q-3.46-5.534-6.866-11.103"/><path fill="#fccd6a" d="M117.15 93.2c1.762 3.988 4.265 7.978 6.325 11.846.334.625 1.667 1.433 1.91 1.85l-.236.06c-.874-.25-1.555-1.346-2.142-2.076l-.095.06c.438.866.935 1.21 1.252 2.18-1.058-.95-6.91-11.465-7.182-12.773.09-.033.083-.076.157-.195l-.206-.679z"/><path fill="#fac663" d="M126.113 72.623c.547-.032.66.038 1.174.25l.293-.193c1.957 1.161 3.795 3.2 4.45 5.38l-.18.023c-.437-.766-.55-1.363-1.175-1.878.42 1.006.896 1.878.745 2.968-.971-3.542-2.19-4.754-5.308-6.55"/><path fill="#fed679" d="M114.036 75.205c1.943-.021 4.796-.241 6.353 1.092 3.057 2.617 2.476 8.282.205 11.166-1.745 1.8-4.233 1.637-6.525 1.625-.06-4.6-.022-9.275-.033-13.883"/><path fill="#fff" d="M115.372 76.947c2.303-.036 3.237-.092 5.276 1.093 2.09 2.58 1.285 9.098-2.43 9.983-1.058.252-1.719.271-2.79.283.005-3.232.17-8.27-.056-11.359"/><path fill="#ebaf43" d="M114.789 76.056c1.429-.04 5.805-.279 5.86 1.984-2.04-1.185-2.974-1.129-5.277-1.093-.152 2.03.134 10.497-.39 11.376-.427-1.232-.264-10.506-.193-12.267"/><path fill="#742314" d="M159.048 76.816c.34-.48 1.708-1.752 2.23-2.164 5.357-4.231 12.55-5.228 19.17-4.56 1.298.13 2.618.369 3.907.614 1.003.191 2.275.362 3.124.938.037.024-.147.431.182.834.49.69.186 8.043.242 9.53-.88-.5-1.244-.722-2.023-1.362-.568-.366-.84-.56-1.354-.998-9.455-5.35-17.847-.32-18.164 10.452.018 1.629.09 2.55.229 4.157.866 3.412 1.575 5.866 4.835 7.896 2.13 1.326 5.148 1.635 7.568 1.008l.187-.049c.01-.974.03-1.968.03-2.94-.06-2.208-.012-4.668-.015-6.895-.883-.716-3.075-2.766-2.567-3.95.19-.057 3.345.038 3.822.06 3.67.162 6.813-.071 10.433-.576-.148.68-.378 1.413-.573 2.086.29.174.394.141.73.131-.22.5-.63 1.371-.668 1.906-.314 4.359-.043 8.78-.128 13.152-.013.664-.004 1.355.03 2.013-8.648 2.666-20.705 4.133-28.253-2.143-.39-.253-.696-.537-1.039-.846a20.18 20.18 0 0 1-6.591-14.028c-.27-5.147 1.166-10.382 4.656-14.266"/><path fill="#fccd6a" d="M159.048 76.816c-.055.378-.104.796-.202 1.162-.672 1.37-1.72 2.605-2.313 4.094-1.736 4.36-1.828 9.634-.451 14.11 4.491 13.654 20.917 14.239 32.36 10.469q.246-.082.49-.171l-.058-9.459c-.01-1.937-.357-5.266.8-6.76l.035-.31c-.621-.25-3.05.222-3.879.226-2.823.011-5.657-.015-8.48-.014 1.021.754 1.79 1.313 2.49 2.407.123 1.41.48 10.43-.15 11.052-.08.077-.264.151-.358.196-.193-.576.186-2.288-.122-3.646-.06-2.208-.011-4.668-.014-6.895-.884-.716-3.075-2.766-2.567-3.95.19-.057 3.345.038 3.822.06 3.67.162 6.813-.071 10.433-.576-.148.68-.378 1.413-.573 2.086.29.174.394.141.73.131-.22.5-.63 1.371-.668 1.906-.314 4.359-.043 8.78-.128 13.152-.013.664-.004 1.355.03 2.013-8.648 2.666-20.705 4.133-28.253-2.143-.39-.253-.696-.537-1.039-.846a20.18 20.18 0 0 1-6.591-14.028c-.27-5.147 1.166-10.382 4.656-14.266"/><path fill="#ebaf43" d="M189.561 107.171c.239-2.778-.237-14.415.34-15.623.375-.38.631-.398 1.14-.52-.22.5-.63 1.371-.668 1.906-.314 4.359-.043 8.78-.128 13.152-.013.664-.004 1.355.03 2.013-8.648 2.666-20.705 4.133-28.253-2.143 1.046.014 3.473 1.576 4.733 2.003 7.418 2.515 15.518 1.703 22.806-.788"/><path fill="#fac663" d="M159.048 76.816c.34-.48 1.708-1.752 2.23-2.164 5.357-4.231 12.55-5.228 19.17-4.56 1.298.13 2.618.369 3.907.614 1.003.191 2.275.362 3.124.938.037.024-.147.431.182.834.49.69.186 8.043.242 9.53-.88-.5-1.244-.722-2.023-1.362-.568-.366-.84-.56-1.354-.998-.048-.565-.85-.99-1.3-1.316.413.095.707.217 1.097.366l.102-.157-.309-.563c.867.602 1.677 1.264 2.504 1.922-.078-2.539-.016-5.34-.008-7.9-3.526-.941-7.49-1.403-11.125-1.274-7.338.26-11.62 2.06-16.64 7.252.097-.366.146-.784.201-1.162"/><path fill="#ebaf43" d="M187.661 72.478c.49.69.186 8.043.242 9.53-.88-.5-1.244-.722-2.023-1.362.236.03.505.08.744.068 1.358-.071.103-7.094 1.037-8.236M165.803 88.022c.277-9.546 9.02-14.266 17.423-9.69.45.326 1.252.751 1.3 1.316-9.455-5.35-17.847-.32-18.164 10.452-.104.065-.03.033-.24.02-.048-.477-.028-.544-.299-.914z"/><path fill="#fed679" d="M165.078 91.323c-.122-3.687.068-7.034 2.004-10.297 3.86-6.504 11.128-6.516 17.034-3.048l.31.563-.103.157c-.39-.15-.684-.27-1.097-.366-8.403-4.576-17.146.144-17.423 9.69-.248.96-.22 3.004-.513 3.44z"/><path fill="#fac663" d="m165.803 88.022.02 1.184c.271.37.25.437.3.913.209.014.135.046.24-.02.017 1.63.089 2.551.228 4.158.866 3.412 1.575 5.866 4.835 7.896 2.13 1.326 5.148 1.635 7.568 1.008l.187-.049c.01-.974.03-1.968.03-2.94.307 1.358-.072 3.07.121 3.646-8.654 2.19-13.813-4.584-14.254-12.495l.212.139c.293-.436.265-2.48.513-3.44"/><path fill="#ebaf43" d="M165.823 89.206c.271.37.25.437.3.913.209.014.135.046.24-.02.017 1.63.089 2.551.228 4.158-1.055-1.058-.807-3.625-.768-5.051"/><path fill="#742314" d="M205.427 71.46c5.342-2.352 14.108-1.686 19.632-.185.79.292.662.378.656 1.242.083.087.217.24.307.304.305 1.195.014 7.386.087 9.093-.58-.294-.876-.423-1.383-.837-.514-.468-1.257-.94-1.834-1.416-4.298-2.475-7.793-2.843-12.4-1.005-5.52 3.73-6.214 9.028-5.664 15.16.63 1.774.461 2.55 1.48 4.715 2.743 4.566 6.166 5.349 11.23 4.718q.057-5.01.013-10.02c-.543-.47-1.088-.827-1.63-1.267-.248-.201-.152-.468-.13-.813-.752-.75-.724-.914-.988-1.952a63.3 63.3 0 0 0 14.55-.38c-.262.64-.432 1.064-.615 1.73l.07.138.324.123c-.158.622-.521 1.082-.553 1.554-.132 1.96-.094 4.152-.07 6.117.04 3.218-.04 6.468.004 9.674-8.39 2.515-17.121 3.705-25.433-.394-1.041-.513-2.98-1.846-3.762-2.661l-.107-.08c-1.416-1.044-3.552-4.254-4.357-5.865-2.754-5.503-2.691-11.262-.799-16.993a37 37 0 0 1 .715-1.526c2.16-4.253 6.11-7.716 10.657-9.174"/><path fill="#fed679" d="M206.839 100.653c-1.462-1.298-2.695-4.453-3.072-6.375-.882-4.595-.605-9.876 2.001-13.89 3.77-5.81 11.54-5.868 16.878-2.23l.623.45c-.29.31-.33.386-.706.554.16.203.235.261.33.5-4.299-2.476-7.794-2.844-12.4-1.006-5.522 3.73-6.215 9.028-5.665 15.16.63 1.774.461 2.55 1.48 4.715-.206.61 1.04 2.088 1.438 2.65-.28-.211-.578-.492-.907-.528"/><path fill="#ebaf43" d="M209.549 78.038c3.653-2.263 8.73-1.915 12.268.406.221-.059.6-.206.829-.287l.623.452c-.29.308-.33.385-.706.553.16.203.235.261.33.5-4.299-2.476-7.794-2.844-12.4-1.006-5.522 3.73-6.215 9.028-5.665 15.16l-.107.14-.213-.208c-.638-1.986-.47-6.76.15-8.869.863-2.937 2.226-5.263 4.89-6.84"/><path fill="#fccd6a" d="m222.646 78.157.623.452c-.29.308-.33.385-.706.553l-.746-.718c.221-.059.6-.206.829-.287"/><path fill="#fac663" d="M205.427 71.46c5.342-2.352 14.108-1.686 19.632-.185.79.292.662.378.656 1.242.083.087.217.24.307.304.305 1.195.014 7.386.087 9.093-.58-.294-.876-.423-1.383-.837-.514-.468-1.257-.94-1.834-1.416-.094-.238-.17-.296-.33-.499.377-.168.417-.245.707-.553q.728.593 1.478 1.16c.234-1.31-.104-5.864.098-7.828-6.057-1.654-13.294-1.734-19.316.183-5.086 2.174-8.556 4.778-10.72 10.103q-.209.514-.361 1.048l-.393-1.115a37 37 0 0 1 .715-1.526c2.16-4.253 6.11-7.716 10.657-9.174"/><path fill="#ebaf43" d="M226.022 72.821c.305 1.195.014 7.386.087 9.093-.58-.294-.876-.423-1.383-.836l-.053-.313.475-.17c.697-.817-.177-6.212.368-7.526.085-.206.224-.176.506-.248M228.809 90.685l.323.123c-.158.622-.521 1.082-.553 1.554-.132 1.96-.094 4.152-.07 6.117.04 3.218-.04 6.468.004 9.674-8.39 2.515-17.121 3.705-25.433-.394-1.041-.513-2.98-1.846-3.762-2.661.459.046 2.952 1.737 3.696 2.049 8.107 3.4 16.872 2.845 24.894-.007l-.033-9.24c-.023-1.88-.1-3.867-.02-5.743.032-.775.388-1.025.954-1.472"/><path fill="#fed679" d="m228.045 90.342.693.204.07.139c-.565.447-.92.697-.953 1.472-.08 1.876-.003 3.863.02 5.742l.033 9.242c-8.022 2.85-16.787 3.406-24.894.006-.744-.312-3.237-2.003-3.696-2.05l-.107-.078c-.019-.617-.2-.726-.697-1.14-.596-.498-.745-.775-1.153-1.43l-.01-.17c.869.856 3.164 3.322 4.412 3.274.766.287 2.187 1.095 3.207 1.505 6.24 2.506 16.091 1.929 22.2-.598l-.012-9.373c-.005-1.73-.091-3.868.15-5.571.065-.458.422-.841.737-1.174"/><path fill="#fccd6a" d="M214.803 89.198a63.3 63.3 0 0 0 14.55-.382c-.262.64-.432 1.065-.615 1.73l-.693-.204c.08-.225.052-.171.046-.424l-.293-.113c-1.173.198-2.36.316-3.55.353-1.07.04-7.886-.12-8.266.116.708.657 1.723 1.491 2.231 2.259.077 1.221.233 10.565-.09 11.07l-.6.272c-3.823 1.031-8.198-.03-10.684-3.222.33.036.627.317.907.528-.399-.562-1.644-2.04-1.437-2.65 2.742 4.566 6.165 5.349 11.23 4.718q.055-5.01.012-10.02c-.543-.47-1.088-.827-1.63-1.267-.248-.201-.152-.468-.13-.813-.752-.75-.724-.914-.988-1.951M199.211 105.019c-1.416-1.045-3.552-4.255-4.357-5.866-2.754-5.503-2.691-11.262-.799-16.993l.393 1.115c-1.594 5.07-1.354 10.949 1.103 15.718 1.76 3.415 3.398 4.507 6.212 6.56-1.248.048-3.543-2.418-4.412-3.275l.01.17c.408.656.557.933 1.153 1.43.497.415.678.524.697 1.14"/><path fill="#742314" d="M139.097 73.808c-.834-.551-2.33-2.225-1.743-3.26 1.266-.098 14.72-.154 15.016.07.059 1.187-.833 1.072.352 1.712.054.615-1.597 2.24-2.014 2.917-.042 10.078.102 20.403-.074 30.45.67.719 1.565 1.576 1.88 2.475.07.198.206.318.354.467l-.372.082c-.152-.373-.164-.47-.442-.746l-.375.03-1.568.025c-1.59-.074-11.365.18-12.18-.098l.06-.337c-.205-.25-.241-.188-.628-.297.895-.643 1.53-1.31 2.21-2.165.206-10.023-.114-20.179-.002-30.212.006-.573-.157-.684-.474-1.113"/><path fill="#fac663" d="M139.097 73.808c-.834-.551-2.33-2.225-1.743-3.26 1.266-.098 14.72-.154 15.016.07.059 1.187-.833 1.072.352 1.712.054.615-1.597 2.24-2.014 2.917-.042 10.078.102 20.403-.074 30.45.67.719 1.565 1.576 1.88 2.475.07.198.206.318.354.467l-.372.082c-.152-.373-.164-.47-.442-.746l-.375.03c-.381-.556-1.6-1.769-2.281-2.71-.136-3.713-.047-7.901-.051-11.672a1583 1583 0 0 1 .026-19.736c.678-1.022 1.311-1.669 2.137-2.565l-13.623-.009c.811.763 1.642 1.48 2.284 2.387-.971-.456-1.039-1.13-2.035-1.568l-.088.076c.302.493.994 1.267 1.049 1.6"/><path fill="#fccd6a" d="M139.097 73.808c-.055-.333-.747-1.107-1.049-1.6l.088-.076c.996.438 1.064 1.112 2.035 1.568.356.776.181 28.3.143 31.539-.641.827-1.44 1.776-2.323 2.356-.205-.25-.241-.188-.628-.297.895-.643 1.53-1.31 2.21-2.165.206-10.023-.114-20.179-.002-30.212.006-.573-.157-.684-.474-1.113"/></g></svg></svg>