<svg id="svg" version="1.1" viewBox="0 0 300 200" width="300" height="200" xmlns="http://www.w3.org/2000/svg"><svg xmlns="http://www.w3.org/2000/svg"><defs><clipPath id="clip-1"><rect x="0" y="0" transform="scale(0.14648,0.14652)" width="2048" height="1365" fill="none"/></clipPath></defs><g clip-path="url(#clip-1)" fill="none" fill-rule="nonzero" stroke="none" stroke-width="1" stroke-linecap="butt" stroke-linejoin="miter" stroke-miterlimit="10" stroke-dasharray="" stroke-dashoffset="0" font-family="none" font-weight="none" font-size="none" text-anchor="none" style="mix-blend-mode: normal"><path d="M0,0h300v200h-300z" fill="#ffffff"/><path d="M71.40483,74.39223c-0.88052,-0.78916 -2.71816,-2.50608 -2.21484,-3.82051c0.68379,-0.19722 6.67471,-0.13993 7.71431,-0.09846c7.87764,0.31443 19.38457,-2.1115 22.20059,7.79179c1.04678,4.04835 0.052,8.46491 -3.8896,10.51209l-0.29399,0.15604l1.10273,0.65993c1.84175,0.99648 3.56514,3.10227 4.22549,5.05275c1.12002,2.82095 1.06318,5.97304 -0.15776,8.75179c-1.13203,2.58212 -3.30205,4.32264 -5.90347,5.29817c-1.36816,0.50447 -2.79565,0.82974 -4.24731,0.96762c-5.26055,0.50769 -11.26802,-0.12879 -16.59888,0.11429c-0.93413,0.04249 -2.80693,0.11883 -3.65669,0.01348c-0.02754,-0.15355 -0.06489,-0.32908 -0.07954,-0.4819c-0.01172,-0.45612 0.07163,-0.27897 -0.16406,-0.58242l-0.53818,-0.01275l-0.01729,-0.10989c-0.03018,-0.20425 -0.0835,-0.74593 0.03076,-0.88777c0.84082,-1.04264 1.61074,-1.56557 2.45728,-2.6885c0.20479,-10.01216 -0.30674,-20.74462 0.03047,-30.63575z" fill="#742314"/><path d="M71.40483,74.39223c-0.88052,-0.78916 -2.71816,-2.50608 -2.21484,-3.82051c0.68379,-0.19722 6.67471,-0.13993 7.71431,-0.09846c7.87764,0.31443 19.38457,-2.1115 22.20059,7.79179c1.04678,4.04835 0.052,8.46491 -3.8896,10.51209l-0.29399,0.15604c-0.55547,-0.05333 -0.71235,-0.29465 -1.12749,-0.68821c1.63828,-0.74564 2.21206,-1.36645 3.41748,-2.73656l-0.60103,-0.47326c3.71704,-6.37626 0.39492,-12.76469 -6.83906,-13.50637c-6.47871,-0.66432 -13.37109,0.0567 -19.87354,-0.21524c0.74487,0.79004 1.64897,1.69407 2.28164,2.55751l0.03047,19.1096c-0.00117,3.93875 0.07896,8.24952 -0.04468,12.16c-0.83877,1.17685 -1.53691,1.88059 -2.62031,2.83326c-0.21768,0.34593 -0.2959,0.55414 -0.64116,0.74022l-0.01729,-0.10989c-0.03018,-0.20425 -0.0835,-0.74593 0.03076,-0.88777c0.84082,-1.04264 1.61074,-1.56557 2.45728,-2.6885c0.20479,-10.01216 -0.30674,-20.74462 0.03047,-30.63575z" fill="#fccd6a"/><path d="M97.21128,85.50842c1.27222,-1.6104 1.61748,-3.55165 1.72896,-5.55165c0.03735,-0.6696 -0.127,-1.13436 0.16465,-1.69172c1.04678,4.04835 0.052,8.46491 -3.8896,10.51209l-0.29399,0.15604c-0.55547,-0.05333 -0.71235,-0.29465 -1.12749,-0.68821c1.63828,-0.74564 2.21206,-1.36645 3.41748,-2.73656z" fill="#ebaf43"/><path d="M100.24951,94.64586c1.12002,2.82095 1.06318,5.97304 -0.15776,8.75179c-1.13203,2.58212 -3.30205,4.32264 -5.90347,5.29817c-1.36816,0.50447 -2.79565,0.82974 -4.24731,0.96762c-5.26055,0.50769 -11.26802,-0.12879 -16.59888,0.11429c-0.93413,0.04249 -2.80693,0.11883 -3.65669,0.01348c-0.02754,-0.15355 -0.06489,-0.32908 -0.07954,-0.4819c0.13975,-0.21524 0.2521,-0.39795 0.54785,-0.40762c4.02041,-0.13128 8.1104,0.00308 12.13286,-0.017c3.43213,-0.01714 6.254,0.18007 9.60352,-0.59897c5.0376,-1.17172 8.41978,-4.78916 8.44907,-10.05934c0.00498,-1.16806 -0.21753,-2.43941 -0.08965,-3.58051z" fill="#ebaf43"/><path d="M96.02402,89.59311c1.84175,0.99648 3.56514,3.10227 4.22549,5.05275c-0.12788,1.1411 0.09463,2.41245 0.08965,3.58051c-0.0293,5.27018 -3.41147,8.88762 -8.44907,10.05934c-3.34951,0.77905 -6.17139,0.58183 -9.60352,0.59897c-4.02246,0.02007 -8.11245,-0.11429 -12.13286,0.017c-0.29575,0.00967 -0.40811,0.19238 -0.54785,0.40762c-0.01172,-0.45612 0.07163,-0.27897 -0.16406,-0.58242l-0.53818,-0.01275c0.34526,-0.18608 0.42349,-0.39429 0.64116,-0.74022c3.02095,0.1581 6.31758,0.0841 9.41089,0.057c5.87622,-0.13626 12.79907,1.1074 17.67261,-3.03311c3.06709,-2.60586 3.79937,-7.23077 2.46108,-10.88967c-0.5083,-1.38989 -1.72573,-2.42549 -2.6792,-3.49934c-0.16201,-0.32586 -0.33076,-0.46886 -0.59883,-0.71048l-0.13623,-0.12161z" fill="#fed679"/><path d="M96.61025,85.03516l0.60103,0.47326c-1.20542,1.37011 -1.7792,1.99092 -3.41748,2.73656c-0.59092,0.20147 -1.575,0.51619 -2.00215,-0.01128c2.29468,-1.05773 2.96411,-1.21993 4.8186,-3.19853z" fill="#fed679"/><path d="M96.41016,90.60879c-2.24487,-1.25758 -2.62236,-1.46564 -5.06587,-2.03092l-0.00806,-0.21919l0.45542,-0.12498c0.42715,0.52747 1.41123,0.21275 2.00215,0.01128c0.41514,0.39355 0.57202,0.63487 1.12749,0.68821l1.10273,0.65993l-0.34893,0.18359l0.13623,0.12161c0.26807,0.24161 0.43682,0.38462 0.59883,0.71048z" fill="#fac663"/><path d="M81.04424,90.73055c2.34287,0.08161 5.21016,-0.2948 7.14214,1.30637c2.83579,2.35033 2.82744,7.81289 0.56162,10.51839c-2.19844,2.00967 -4.95205,1.73788 -7.67812,1.23853c-0.21973,-3.57905 -0.05112,-9.40571 -0.02563,-13.0633z" fill="#fed679"/><path d="M81.77183,91.59839c1.73276,-0.03824 6.49658,-0.223 6.8187,2.26916c1.54746,2.16659 1.54292,6.96366 -0.93237,8.5707c-1.72295,1.11883 -3.28872,0.98974 -5.21821,0.94242c-0.01831,-0.7074 -0.01201,-2.08527 -0.08965,-2.73817c-0.04673,0.56132 0.06211,2.42579 -0.36738,2.73333c-0.35581,-1.67516 -0.12847,-9.42081 -0.21108,-11.77744z" fill="#ffffff"/><path d="M81.77183,91.59839c1.73276,-0.03824 6.49658,-0.223 6.8187,2.26916c-2.25776,-1.5704 -3.58213,-1.423 -6.2644,-1.3307c0.00894,2.5556 0.10283,5.59253 0.02417,8.10564c-0.04673,0.56132 0.06211,2.42579 -0.36738,2.73333c-0.35581,-1.67516 -0.12847,-9.42081 -0.21108,-11.77744z" fill="#ebaf43"/><path d="M81.0208,75.19722c2.69048,-0.05949 5.15259,-0.46623 7.14785,1.66916c1.81274,2.74403 1.77437,7.30901 -1.0875,9.42623c-1.05469,0.78007 -5.27432,1.32205 -6.07397,0.64777z" fill="#fed679"/><path d="M82.32847,76.95502c2.22656,-0.08029 3.44341,-0.27839 5.33994,0.94212c1.53823,1.77524 1.2356,5.943 -0.58447,7.51531c-1.1644,1.00571 -3.26821,0.92352 -4.73774,0.96132z" fill="#ffffff"/><path d="M88.16865,76.86637c1.81274,2.74403 1.77437,7.30901 -1.0875,9.42623c-1.05469,0.78007 -5.27432,1.32205 -6.07397,0.64777c1.26021,-0.41392 6.86997,0.47678 7.0812,-2.17436c-0.75,0.53245 -0.76289,1.03663 -2.13984,1.47194c-1.02231,0.32322 -3.38657,0.63297 -4.31323,0.16073l0.1834,-0.26886l0.52749,0.24396c1.46953,-0.0378 3.57334,0.0444 4.73774,-0.96132c1.82007,-1.57231 2.12271,-5.74007 0.58447,-7.51531c0.00073,-0.10623 -0.09448,-0.6567 -0.11646,-0.79546z" fill="#fac663"/><path d="M81.78999,76.0485c2.20679,-0.04469 3.90645,-0.24352 5.76196,1.05319c0.02197,0.13875 0.11719,0.68923 0.11646,0.79546c-1.89653,-1.22051 -3.11338,-1.02242 -5.33994,-0.94212l0.01772,9.41875l-0.52749,-0.24396c0.12524,-0.777 -0.01479,-2.93934 -0.029,-3.85846c-0.01172,-2.07429 -0.01157,-4.14857 0.00029,-6.22286z" fill="#ebaf43"/><path d="M104.30771,74.17832c-0.7916,-0.66066 -2.87886,-2.5537 -2.02046,-3.64352c2.87153,-0.21245 6.57129,-0.06755 9.50215,-0.05905c4.81187,0.01377 11.70293,-0.57612 15.79043,2.20469c1.95718,1.16088 3.79512,3.19897 4.45078,5.38022c0.31626,0.60147 0.34277,0.73465 0.49219,1.3833c1.17305,5.30447 -1.04414,10.28147 -6.07368,12.54916c2.22085,3.32366 4.09351,6.56747 6.16714,9.93978c1.61353,2.58037 1.9812,3.37524 4.38867,5.18286l0.35845,0.18271c0.38643,0.10842 0.42261,0.04659 0.62754,0.2967l-0.05918,0.33714c0.81416,0.27824 10.58877,0.02374 12.17959,0.09817l1.56738,-0.02476l0.375,-0.03077c0.27832,0.27663 0.29004,0.37348 0.44238,0.74652l0.37207,-0.08234c0.1626,0.41465 0.18018,0.43179 0.104,0.85685c-0.60498,0.47194 -2.88428,0.36029 -3.70605,0.28923c-3.44399,-0.29758 -7.53516,0.33011 -10.89741,-0.04601l-0.12466,-0.15062l0.11792,-0.89363c-0.26323,-0.18579 -0.22939,-0.11077 -0.67031,-0.0422l0.03003,0.83927c-0.25854,0.54945 -8.82993,0.30315 -9.75015,0.0463c-1.28276,-0.3581 -2.46606,-1.08908 -3.43418,-1.97832c-0.25356,-0.16029 -0.20405,-0.15751 -0.37295,-0.44088c-1.05791,-0.94857 -6.90952,-11.46432 -7.18242,-12.77172c-0.62725,-0.09436 -0.97559,-0.04059 -1.60474,0.01333c0.0085,1.74227 0.16509,10.02901 -0.17065,11.22579c1.02012,0.87033 1.71387,1.62549 2.18071,2.87209c0.38042,0.33363 0.38481,0.43004 0.49512,0.93172l-0.1062,0.28293c-0.94482,0.19209 -14.34023,0.21011 -15.00923,-0.06125c-0.08833,-0.28469 -0.0895,-0.26418 -0.05142,-0.55897l-0.13008,-0.22857l-0.4894,-0.01993c-0.20449,-1.5915 1.13936,-2.31106 2.21265,-3.44366c0.09653,-3.56835 0.03135,-7.48879 0.0334,-11.08103z" fill="#742314"/><path d="M104.30771,74.17832c-0.7916,-0.66066 -2.87886,-2.5537 -2.02046,-3.64352c2.87153,-0.21245 6.57129,-0.06755 9.50215,-0.05905c4.81187,0.01377 11.70293,-0.57612 15.79043,2.20469l-0.29312,0.19253c-0.51372,-0.21187 -0.62622,-0.28147 -1.17422,-0.25026c-1.08428,-0.31678 -3.13857,-1.09802 -4.17202,-1.19267c-2.00332,-0.18359 -4.45283,-0.13114 -6.48149,-0.12864c-4.22139,0.03121 -8.44292,0.0233 -12.66401,-0.02359c1.00444,0.93407 1.47144,1.44513 2.34521,2.50139l0.02051,18.92059c-0.00308,4.09377 0.07354,8.51985 -0.05742,12.59033c-0.46099,0.82081 -1.80103,2.11311 -2.5333,2.74476l2.42285,0.00864c-0.54668,0.32396 -1.47173,0.023 -1.92539,0.1704c-0.60088,0.19502 0.0189,0.3074 -0.97134,0.59062c-0.20449,-1.5915 1.13936,-2.31106 2.21265,-3.44366c0.09653,-3.56835 0.03135,-7.48879 0.0334,-11.08103z" fill="#fccd6a"/><path d="M131.42007,79.17348c0.15103,-1.0907 -0.32593,-1.96293 -0.74487,-2.9685c0.62417,0.51531 0.7374,1.11194 1.17568,1.87839l0.17974,-0.02271c0.31626,0.60147 0.34277,0.73465 0.49219,1.3833c1.17305,5.30447 -1.04414,10.28147 -6.07368,12.54916c-0.31758,-0.39678 -0.38467,-0.48718 -0.59663,-0.94725c-0.17593,0.15048 -0.37324,0.30989 -0.5373,0.47018c-0.28213,-0.40952 -0.39375,-0.43414 -0.4292,-0.88806c5.18262,-2.69304 6.88813,-5.47883 6.53408,-11.45451z" fill="#fed679"/><path d="M125.85249,91.04586c3.45293,-1.21084 6.17183,-5.47985 6.35991,-8.99385c0.04526,-0.84308 0.01318,-1.65172 0.10371,-2.48249l0.20669,-0.12557c1.17305,5.30447 -1.04414,10.28147 -6.07368,12.54916c-0.31758,-0.39678 -0.38467,-0.48718 -0.59663,-0.94725z" fill="#ebaf43"/><path d="M104.99282,108.04352c3.41968,-0.01538 8.0165,-0.15004 11.34888,0.07604c0.21973,0.19077 0.56147,0.45407 0.69712,0.6904l0.34849,-0.35136c0.38042,0.33363 0.38481,0.43004 0.49512,0.93172l-0.1062,0.28293c-0.94482,0.19209 -14.34023,0.21011 -15.00923,-0.06125c-0.08833,-0.28469 -0.0895,-0.26418 -0.05142,-0.55897l-0.13008,-0.22857l-0.4894,-0.01993c0.99023,-0.28322 0.37046,-0.3956 0.97134,-0.59062c0.45366,-0.1474 1.37871,0.15355 1.92539,-0.1704z" fill="#ebaf43"/><path d="M104.99282,108.04352c3.41968,-0.01538 8.0165,-0.15004 11.34888,0.07604c0.21973,0.19077 0.56147,0.45407 0.69712,0.6904c-1.88115,0.07531 -13.66274,-0.10652 -14.32324,0.24308l-0.13008,-0.22857l-0.4894,-0.01993c0.99023,-0.28322 0.37046,-0.3956 0.97134,-0.59062c0.45366,-0.1474 1.37871,0.15355 1.92539,-0.1704z" fill="#fed679"/><path d="M151.67871,108.00571l0.375,-0.03077c0.27832,0.27663 0.29004,0.37348 0.44238,0.74652l0.37207,-0.08234c0.1626,0.41465 0.18018,0.43179 0.104,0.85685c-0.60498,0.47194 -2.88428,0.36029 -3.70605,0.28923c-3.44399,-0.29758 -7.53516,0.33011 -10.89741,-0.04601l-0.12466,-0.15062l0.11792,-0.89363c-0.26323,-0.18579 -0.22939,-0.11077 -0.67031,-0.0422l-0.09185,-0.11487c0.05435,-0.10212 0.10869,-0.20425 0.16304,-0.30637c1.52534,-0.35853 11.56187,0.21993 12.34849,-0.20103z" fill="#ebaf43"/><path d="M151.67871,108.00571l0.375,-0.03077c0.27832,0.27663 0.29004,0.37348 0.44238,0.74652c-0.46436,0.25407 -13.24233,0.22095 -14.13413,-0.02652c-0.26323,-0.18579 -0.22939,-0.11077 -0.67031,-0.0422l-0.09185,-0.11487c0.05435,-0.10212 0.10869,-0.20425 0.16304,-0.30637c1.52534,-0.35853 11.56187,0.21993 12.34849,-0.20103z" fill="#fed679"/><path d="M114.07954,92.5411c0.6832,-0.00366 1.49326,-0.02696 2.17485,0.00967c0.58828,0.03165 0.61611,0.23927 0.89604,0.64967l-0.21753,0.27253l0.20581,0.67927c-0.07412,0.11927 -0.06709,0.16176 -0.15674,0.19516c-0.62725,-0.09436 -0.97559,-0.04059 -1.60474,0.01333c0.0085,1.74227 0.16509,10.02901 -0.17065,11.22579c1.02012,0.87033 1.71387,1.62549 2.18071,2.87209l-0.34849,0.35136c-0.13564,-0.23634 -0.47739,-0.49963 -0.69712,-0.6904c-0.14751,-0.59575 -1.63389,-1.8967 -2.26421,-2.78872c-0.098,-4.19458 -0.01685,-8.58154 0.00205,-12.78974z" fill="#fed679"/><path d="M114.69229,93.31795c0.79907,0.09348 1.43496,0.12615 2.24063,0.15502l0.20581,0.67927c-0.07412,0.11927 -0.06709,0.16176 -0.15674,0.19516c-0.62725,-0.09436 -0.97559,-0.04059 -1.60474,0.01333c0.0085,1.74227 0.16509,10.02901 -0.17065,11.22579c-0.82266,-0.81758 -0.50508,-10.5074 -0.51431,-12.26857z" fill="#ebaf43"/><path d="M124.1644,107.11912c-0.31699,-0.96938 -0.8146,-1.31326 -1.252,-2.17875l0.09463,-0.06051c0.58711,0.73011 1.26812,1.82667 2.14204,2.07546l0.23657,-0.05846c3.68862,1.61348 3.59487,0.95136 6.9627,1.20029c1.42178,0.08703 2.7936,0.03912 4.20586,0.12234c0.48267,0.02828 0.72173,0.27311 1.04561,0.31839l0.09185,0.11487l0.03003,0.83927c-0.25854,0.54945 -8.82993,0.30315 -9.75015,0.0463c-1.28276,-0.3581 -2.46606,-1.08908 -3.43418,-1.97832c-0.25356,-0.16029 -0.20405,-0.15751 -0.37295,-0.44088z" fill="#fed679"/><path d="M124.53735,107.56c0.93003,0.11678 2.0584,0.92982 3.02739,1.09788c2.44951,0.42491 5.11362,0.19443 7.60371,0.21949c0.34131,0.00352 2.11919,-0.1367 2.31196,0.0507c0.11792,0.11458 0.19028,0.39326 0.24126,0.56396c-0.25854,0.54945 -8.82993,0.30315 -9.75015,0.0463c-1.28276,-0.3581 -2.46606,-1.08908 -3.43418,-1.97832z" fill="#ebaf43"/><path d="M125.31519,91.51604c0.16406,-0.16029 0.36138,-0.31971 0.5373,-0.47018c0.21196,0.46007 0.27905,0.55048 0.59663,0.94725c2.22085,3.32366 4.09351,6.56747 6.16714,9.93978c1.61353,2.58037 1.9812,3.37524 4.38867,5.18286l0.35845,0.18271c0.38643,0.10842 0.42261,0.04659 0.62754,0.2967l-0.05918,0.33714c0.81416,0.27824 10.58877,0.02374 12.17959,0.09817c-0.78662,0.42095 -10.82314,-0.15751 -12.34849,0.20103c-0.05435,0.10212 -0.10869,0.20425 -0.16304,0.30637c-0.32388,-0.04527 -0.56294,-0.29011 -1.04561,-0.31839c-1.41226,-0.08322 -2.78408,-0.03531 -4.20586,-0.12234c1.08105,-0.10549 3.24448,0.13465 4.12852,-0.2148l0.052,-0.22022l-0.38438,-0.3726c-1.80718,-0.93714 -2.99971,-2.95663 -3.96313,-4.67077c-2.30757,-3.68923 -4.59639,-7.39018 -6.86616,-11.10271z" fill="#fac663"/><path d="M117.15044,93.20044c1.76177,3.9874 4.26445,7.97729 6.3249,11.84513c0.33325,0.62549 1.66655,1.43341 1.9103,1.85128l-0.23657,0.05846c-0.87393,-0.24879 -1.55493,-1.34535 -2.14204,-2.07546l-0.09463,0.06051c0.4374,0.86549 0.93501,1.20938 1.252,2.17875c-1.05791,-0.94857 -6.90952,-11.46432 -7.18242,-12.77172c0.08965,-0.03341 0.08262,-0.0759 0.15674,-0.19516l-0.20581,-0.67927z" fill="#fccd6a"/><path d="M126.1125,72.62271c0.548,-0.03121 0.6605,0.03839 1.17422,0.25026l0.29312,-0.19253c1.95718,1.16088 3.79512,3.19897 4.45078,5.38022l-0.17974,0.02271c-0.43828,-0.76645 -0.55151,-1.36308 -1.17568,-1.87839c0.41895,1.00557 0.8959,1.8778 0.74487,2.9685c-0.97104,-3.54286 -2.18979,-4.75399 -5.30757,-6.55077z" fill="#fac663"/><path d="M114.03633,75.20542c1.94312,-0.02183 4.79561,-0.2419 6.35244,1.09128c3.05684,2.61773 2.47661,8.28249 0.20522,11.16674c-1.74521,1.79897 -4.23296,1.63692 -6.52544,1.62462c-0.05874,-4.6 -0.02168,-9.27546 -0.03223,-13.88264z" fill="#fed679"/><path d="M115.37241,76.94711c2.30288,-0.03604 3.23687,-0.09231 5.27578,1.0926c2.0896,2.57963 1.28496,9.09832 -2.43091,9.983c-1.05776,0.25187 -1.71812,0.27165 -2.78862,0.28337c0.00483,-3.23238 0.1689,-8.26916 -0.05625,-11.35897z" fill="#ffffff"/><path d="M114.78896,76.05582c1.42881,-0.04 5.80488,-0.27853 5.85923,1.98388c-2.03892,-1.18491 -2.9729,-1.12864 -5.27578,-1.0926c-0.15278,2.02945 0.13403,10.4967 -0.39009,11.37553c-0.427,-1.23194 -0.26426,-10.50549 -0.19336,-12.26681z" fill="#ebaf43"/><path d="M159.04834,76.81582c0.33984,-0.47985 1.70801,-1.75165 2.22949,-2.16381c5.35693,-4.23136 12.54932,-5.22755 19.17041,-4.56059c1.29785,0.1307 2.61768,0.36952 3.90674,0.6148c1.00342,0.19092 2.2749,0.36205 3.12451,0.93729c0.03662,0.02432 -0.14795,0.4315 0.18164,0.83429c0.49072,0.6907 0.18604,8.04308 0.2417,9.53084c-0.88037,-0.5011 -1.24365,-0.72278 -2.02295,-1.36293c-0.56836,-0.36615 -0.84082,-0.55985 -1.35352,-0.99736c-9.45557,-5.35018 -17.84766,-0.31971 -18.16406,10.45158c0.01758,1.62886 0.08936,2.55033 0.22852,4.15663c0.86572,3.41216 1.57471,5.86623 4.83545,7.89641c2.12988,1.32601 5.14746,1.63516 7.56738,1.0085l0.1875,-0.04938c0.01025,-0.97363 0.03076,-1.96791 0.0293,-2.93978c-0.06006,-2.20806 -0.01172,-4.66799 -0.01465,-6.89553c-0.8833,-0.71604 -3.07471,-2.76586 -2.56641,-3.94886c0.19043,-0.05788 3.34424,0.03736 3.82178,0.05861c3.66943,0.16264 6.81299,-0.07077 10.43262,-0.57524c-0.14795,0.67897 -0.37793,1.41245 -0.57275,2.08586c0.29004,0.17348 0.39404,0.1411 0.72949,0.13128c-0.21973,0.50022 -0.62988,1.37055 -0.66797,1.90593c-0.31348,4.35853 -0.04248,8.77963 -0.12744,13.15165c-0.01318,0.66374 -0.00439,1.35546 0.0293,2.01289c-8.64697,2.66564 -20.7041,4.13348 -28.25244,-2.14242c-0.38965,-0.25333 -0.6958,-0.53729 -1.03857,-0.84645c-3.97705,-3.61158 -6.3501,-8.66051 -6.5918,-14.02755c-0.26953,-5.14769 1.16602,-10.38271 4.65674,-14.26667z" fill="#742314"/><path d="M159.04834,76.81582c-0.05566,0.37846 -0.104,0.79619 -0.20215,1.16234c-0.67236,1.36938 -1.71973,2.60513 -2.31299,4.09407c-1.73584,4.35927 -1.82812,9.63341 -0.45117,14.10901c4.49121,13.65509 20.9165,14.23971 32.35986,10.4696c0.16406,-0.05451 0.32813,-0.1115 0.49072,-0.17114l-0.05859,-9.45875c-0.01025,-1.937 -0.35742,-5.26593 0.7998,-6.76059l0.03516,-0.30974c-0.62109,-0.24996 -3.0498,0.22286 -3.87891,0.22623c-2.82275,0.01158 -5.65723,-0.0148 -8.47998,-0.01392c1.021,0.75385 1.79004,1.31341 2.49023,2.40674c0.12305,1.40996 0.479,10.43062 -0.15088,11.05187c-0.0791,0.07766 -0.26367,0.1515 -0.35742,0.19692c-0.19336,-0.5767 0.18604,-2.2885 -0.12158,-3.64615c-0.06006,-2.20806 -0.01172,-4.66799 -0.01465,-6.89553c-0.8833,-0.71604 -3.07471,-2.76586 -2.56641,-3.94886c0.19043,-0.05788 3.34424,0.03736 3.82178,0.05861c3.66943,0.16264 6.81299,-0.07077 10.43262,-0.57524c-0.14795,0.67897 -0.37793,1.41245 -0.57275,2.08586c0.29004,0.17348 0.39404,0.1411 0.72949,0.13128c-0.21973,0.50022 -0.62988,1.37055 -0.66797,1.90593c-0.31348,4.35853 -0.04248,8.77963 -0.12744,13.15165c-0.01318,0.66374 -0.00439,1.35546 0.0293,2.01289c-8.64697,2.66564 -20.7041,4.13348 -28.25244,-2.14242c-0.38965,-0.25333 -0.6958,-0.53729 -1.03857,-0.84645c-3.97705,-3.61158 -6.3501,-8.66051 -6.5918,-14.02755c-0.26953,-5.14769 1.16602,-10.38271 4.65674,-14.26667z" fill="#fccd6a"/><path d="M189.56104,107.17099c0.23877,-2.77832 -0.2373,-14.41465 0.33984,-15.62271c0.375,-0.37963 0.63135,-0.39824 1.13965,-0.51985c-0.21973,0.50022 -0.62988,1.37055 -0.66797,1.90593c-0.31348,4.35853 -0.04248,8.77963 -0.12744,13.15165c-0.01318,0.66374 -0.00439,1.35546 0.0293,2.01289c-8.64697,2.66564 -20.7041,4.13348 -28.25244,-2.14242c1.0459,0.01333 3.47314,1.57524 4.73291,2.0022c7.41797,2.51487 15.51855,1.70374 22.80615,-0.78769z" fill="#ebaf43"/><path d="M159.04834,76.81582c0.33984,-0.47985 1.70801,-1.75165 2.22949,-2.16381c5.35693,-4.23136 12.54932,-5.22755 19.17041,-4.56059c1.29785,0.1307 2.61768,0.36952 3.90674,0.6148c1.00342,0.19092 2.2749,0.36205 3.12451,0.93729c0.03662,0.02432 -0.14795,0.4315 0.18164,0.83429c0.49072,0.6907 0.18604,8.04308 0.2417,9.53084c-0.88037,-0.5011 -1.24365,-0.72278 -2.02295,-1.36293c-0.56836,-0.36615 -0.84082,-0.55985 -1.35352,-0.99736c-0.04834,-0.56527 -0.85107,-0.99077 -1.30078,-1.31634c0.41309,0.09538 0.70752,0.21685 1.09717,0.36586l0.10254,-0.15707l-0.30908,-0.56308c0.86719,0.60249 1.67725,1.26462 2.50342,1.92249c-0.07764,-2.53905 -0.01611,-5.34037 -0.00732,-7.89934c-3.52588,-0.94227 -7.49121,-1.40396 -11.12549,-1.27473c-7.3374,0.26081 -11.61914,2.05993 -16.64062,7.25201c0.09814,-0.36615 0.14648,-0.78388 0.20215,-1.16234z" fill="#fac663"/><path d="M187.66113,72.4778c0.49072,0.6907 0.18604,8.04308 0.2417,9.53084c-0.88037,-0.5011 -1.24365,-0.72278 -2.02295,-1.36293c0.23584,0.03048 0.50537,0.08044 0.74414,0.06799c1.35791,-0.07092 0.10254,-7.09363 1.03711,-8.2359z" fill="#ebaf43"/><path d="M165.80273,88.02227c0.27686,-9.54623 9.02051,-14.26652 17.42285,-9.69026c0.44971,0.32557 1.25244,0.75106 1.30078,1.31634c-9.45557,-5.35018 -17.84766,-0.31971 -18.16406,10.45158c-0.104,0.06491 -0.03076,0.03267 -0.24023,0.01919c-0.04834,-0.47634 -0.02783,-0.54286 -0.29883,-0.91341z" fill="#ebaf43"/><path d="M165.07764,91.32308c-0.12158,-3.68689 0.06885,-7.03429 2.00391,-10.29758c3.85986,-6.50374 11.12842,-6.5156 17.03467,-3.04777l0.30908,0.56308l-0.10254,0.15707c-0.38965,-0.14901 -0.68408,-0.27048 -1.09717,-0.36586c-8.40234,-4.57626 -17.146,0.14403 -17.42285,9.69026c-0.24756,0.95985 -0.21973,3.00381 -0.5127,3.43956z" fill="#fed679"/><path d="M165.80273,88.02227l0.02051,1.18344c0.271,0.37055 0.25049,0.43707 0.29883,0.91341c0.20947,0.01348 0.13623,0.04571 0.24023,-0.01919c0.01758,1.62886 0.08936,2.55033 0.22852,4.15663c0.86572,3.41216 1.57471,5.86623 4.83545,7.89641c2.12988,1.32601 5.14746,1.63516 7.56738,1.0085l0.1875,-0.04938c0.01025,-0.97363 0.03076,-1.96791 0.0293,-2.93978c0.30762,1.35766 -0.07178,3.06945 0.12158,3.64615c-8.6543,2.18989 -13.81348,-4.58432 -14.25439,-12.49538l0.2124,0.13875c0.29297,-0.43575 0.26514,-2.47971 0.5127,-3.43956z" fill="#fac663"/><path d="M165.82324,89.20571c0.271,0.37055 0.25049,0.43707 0.29883,0.91341c0.20947,0.01348 0.13623,0.04571 0.24023,-0.01919c0.01758,1.62886 0.08936,2.55033 0.22852,4.15663c-1.05469,-1.05773 -0.80713,-3.62462 -0.76758,-5.05084z" fill="#ebaf43"/><path d="M205.42676,71.45963c5.34229,-2.35136 14.10791,-1.68586 19.63184,-0.18432c0.79102,0.29143 0.66211,0.37817 0.65625,1.2419c0.0835,0.08689 0.2168,0.23941 0.30762,0.30403c0.30469,1.19502 0.01318,7.38564 0.08643,9.09289c-0.58008,-0.29451 -0.87598,-0.42344 -1.38281,-0.83663c-0.51416,-0.46828 -1.25684,-0.94125 -1.83398,-1.41626c-4.29785,-2.4756 -7.79297,-2.84337 -12.3999,-1.00498c-5.521,3.73026 -6.21387,9.02784 -5.66455,15.15897c0.62988,1.77524 0.46143,2.55077 1.48096,4.71604c2.74219,4.56527 6.16553,5.34842 11.22949,4.7178c0.03662,-3.34007 0.04248,-6.68059 0.01318,-10.02081c-0.54346,-0.46916 -1.08838,-0.82579 -1.63037,-1.26579c-0.24756,-0.20161 -0.15234,-0.46886 -0.13037,-0.81392c-0.75146,-0.75048 -0.72363,-0.91326 -0.9873,-1.95106c4.84717,0.43282 9.72949,0.30491 14.54883,-0.38139c-0.26074,0.64073 -0.43066,1.06491 -0.61377,1.73026l0.07031,0.13861l0.32373,0.12293c-0.1582,0.62168 -0.52148,1.0822 -0.55371,1.55385c-0.13184,1.96044 -0.09375,4.15253 -0.06885,6.11692c0.03955,3.21861 -0.04102,6.46828 0.00293,9.67443c-8.38916,2.51443 -17.12109,3.70505 -25.43262,-0.39399c-1.0415,-0.51355 -2.97949,-1.8463 -3.76172,-2.66125l-0.10693,-0.07927c-1.4165,-1.0444 -3.55225,-4.2548 -4.35791,-5.86579c-2.75391,-5.50271 -2.69092,-11.26183 -0.79834,-16.99267c0.22705,-0.51414 0.46436,-1.02271 0.71484,-1.52571c2.15918,-4.25333 6.10986,-7.71634 10.65674,-9.1748z" fill="#742314"/><path d="M206.83887,100.65289c-1.46191,-1.29832 -2.69531,-4.45304 -3.07178,-6.37524c-0.88184,-4.59473 -0.60498,-9.87546 2.00098,-13.88894c3.77051,-5.81055 11.54004,-5.86872 16.87793,-2.23165l0.62256,0.45172c-0.29004,0.30828 -0.32959,0.3852 -0.70605,0.5537c0.15967,0.20293 0.23584,0.26051 0.32959,0.49875c-4.29785,-2.4756 -7.79297,-2.84337 -12.3999,-1.00498c-5.521,3.73026 -6.21387,9.02784 -5.66455,15.15897c0.62988,1.77524 0.46143,2.55077 1.48096,4.71604c-0.20654,0.60982 1.03857,2.08777 1.43701,2.64952c-0.27979,-0.21084 -0.57715,-0.49216 -0.90674,-0.52791z" fill="#fed679"/><path d="M209.54883,78.03824c3.65332,-2.26359 8.73047,-1.91531 12.26807,0.40615c0.22119,-0.05905 0.60059,-0.20615 0.8291,-0.28733l0.62256,0.45172c-0.29004,0.30828 -0.32959,0.3852 -0.70605,0.5537c0.15967,0.20293 0.23584,0.26051 0.32959,0.49875c-4.29785,-2.4756 -7.79297,-2.84337 -12.3999,-1.00498c-5.521,3.73026 -6.21387,9.02784 -5.66455,15.15897l-0.10693,0.14125l-0.2124,-0.20835c-0.63867,-1.98652 -0.47021,-6.76044 0.14941,-8.86872c0.86279,-2.93714 2.22656,-5.2633 4.89111,-6.84117z" fill="#ebaf43"/><path d="M222.646,78.15707l0.62256,0.45172c-0.29004,0.30828 -0.32959,0.3852 -0.70605,0.5537l-0.74561,-0.7181c0.22119,-0.05905 0.60059,-0.20615 0.8291,-0.28733z" fill="#fccd6a"/><path d="M205.42676,71.45963c5.34229,-2.35136 14.10791,-1.68586 19.63184,-0.18432c0.79102,0.29143 0.66211,0.37817 0.65625,1.2419c0.0835,0.08689 0.2168,0.23941 0.30762,0.30403c0.30469,1.19502 0.01318,7.38564 0.08643,9.09289c-0.58008,-0.29451 -0.87598,-0.42344 -1.38281,-0.83663c-0.51416,-0.46828 -1.25684,-0.94125 -1.83398,-1.41626c-0.09375,-0.23824 -0.16992,-0.29582 -0.32959,-0.49875c0.37646,-0.1685 0.41602,-0.24542 0.70605,-0.5537c0.48633,0.39546 0.97852,0.78227 1.47803,1.16015c0.23438,-1.3096 -0.104,-5.86388 0.09814,-7.82813c-6.05713,-1.65421 -13.29346,-1.73377 -19.31543,0.18315c-5.08594,2.17407 -8.55615,4.77788 -10.71973,10.1033c-0.13916,0.34242 -0.26074,0.69201 -0.36182,1.04747l-0.39258,-1.11458c0.22705,-0.51414 0.46436,-1.02271 0.71484,-1.52571c2.15918,-4.25333 6.10986,-7.71634 10.65674,-9.1748z" fill="#fac663"/><path d="M226.02246,72.82125c0.30469,1.19502 0.01318,7.38564 0.08643,9.09289c-0.58008,-0.29451 -0.87598,-0.42344 -1.38281,-0.83663l-0.05273,-0.31238l0.47461,-0.16923c0.69727,-0.81832 -0.17725,-6.21319 0.36768,-7.52733c0.08496,-0.20557 0.22412,-0.17597 0.50684,-0.24733z" fill="#ebaf43"/><path d="M228.80859,90.68498l0.32373,0.12293c-0.1582,0.62168 -0.52148,1.0822 -0.55371,1.55385c-0.13184,1.96044 -0.09375,4.15253 -0.06885,6.11692c0.03955,3.21861 -0.04102,6.46828 0.00293,9.67443c-8.38916,2.51443 -17.12109,3.70505 -25.43262,-0.39399c-1.0415,-0.51355 -2.97949,-1.8463 -3.76172,-2.66125c0.4585,0.04645 2.95166,1.737 3.6958,2.04908c8.10645,3.40044 16.87207,2.84469 24.89355,-0.00645l-0.03223,-9.24103c-0.02344,-1.87912 -0.09961,-3.86637 -0.02051,-5.74256c0.03223,-0.77495 0.38818,-1.02476 0.95361,-1.47194z" fill="#ebaf43"/><path d="M228.04541,90.34198l0.69287,0.2044l0.07031,0.13861c-0.56543,0.44718 -0.92139,0.697 -0.95361,1.47194c-0.0791,1.87619 -0.00293,3.86344 0.02051,5.74256l0.03223,9.24103c-8.02148,2.85114 -16.78711,3.40689 -24.89355,0.00645c-0.74414,-0.31209 -3.2373,-2.00264 -3.6958,-2.04908l-0.10693,-0.07927c-0.01904,-0.61626 -0.20068,-0.72571 -0.69727,-1.14051c-0.59619,-0.49729 -0.74561,-0.77377 -1.15283,-1.42974l-0.01025,-0.17026c0.86865,0.857 3.16406,3.32308 4.41211,3.27531c0.76611,0.28645 2.18701,1.09495 3.20654,1.50462c6.24023,2.50608 16.09131,1.92864 22.19971,-0.59839l-0.01172,-9.37275c-0.00439,-1.72908 -0.09082,-3.86828 0.15088,-5.57128c0.06445,-0.45802 0.42188,-0.84088 0.73682,-1.17363z" fill="#fed679"/><path d="M214.80322,89.19751c4.84717,0.43282 9.72949,0.30491 14.54883,-0.38139c-0.26074,0.64073 -0.43066,1.06491 -0.61377,1.73026l-0.69287,-0.2044c0.0791,-0.22535 0.05127,-0.17114 0.04541,-0.42447l-0.29297,-0.11223c-1.17334,0.19751 -2.35986,0.31546 -3.54932,0.35311c-1.0708,0.03927 -7.88672,-0.12073 -8.26611,0.11604c0.70752,0.65641 1.72266,1.4907 2.23096,2.25817c0.07617,1.22183 0.23291,10.56527 -0.09082,11.06974l-0.59912,0.27223c-3.82324,1.0315 -8.19873,-0.02886 -10.68457,-3.22168c0.32959,0.03575 0.62695,0.31707 0.90674,0.52791c-0.39844,-0.56176 -1.64355,-2.03971 -1.43701,-2.64952c2.74219,4.56527 6.16553,5.34842 11.22949,4.7178c0.03662,-3.34007 0.04248,-6.68059 0.01318,-10.02081c-0.54346,-0.46916 -1.08838,-0.82579 -1.63037,-1.26579c-0.24756,-0.20161 -0.15234,-0.46886 -0.13037,-0.81392c-0.75146,-0.75048 -0.72363,-0.91326 -0.9873,-1.95106z" fill="#fccd6a"/><path d="M199.21143,105.01861c-1.4165,-1.0444 -3.55225,-4.2548 -4.35791,-5.86579c-2.75391,-5.50271 -2.69092,-11.26183 -0.79834,-16.99267l0.39258,1.11458c-1.59375,5.07077 -1.35352,10.94886 1.10303,15.71839c1.75928,3.41524 3.39844,4.50681 6.2124,6.56029c-1.24805,0.04777 -3.54346,-2.41832 -4.41211,-3.27531l0.01025,0.17026c0.40723,0.65597 0.55664,0.93245 1.15283,1.42974c0.49658,0.4148 0.67822,0.52425 0.69727,1.14051z" fill="#fccd6a"/><path d="M139.09687,73.80821c-0.8335,-0.55165 -2.32983,-2.22476 -1.74258,-3.25934c1.26606,-0.09846 14.71992,-0.15473 15.01582,0.07004c0.05859,1.18637 -0.8335,1.07136 0.35156,1.7115c0.0542,0.61495 -1.59668,2.23868 -2.01416,2.91663c-0.04102,10.07839 0.10254,20.40278 -0.07324,30.44982c0.66943,0.71883 1.56445,1.57597 1.87939,2.47516c0.07031,0.19839 0.20654,0.31824 0.35449,0.46711l-0.37207,0.08234c-0.15234,-0.37304 -0.16406,-0.46989 -0.44238,-0.74652l-0.375,0.03077l-1.56738,0.02476c-1.59082,-0.07443 -11.36543,0.18007 -12.17959,-0.09817l0.05918,-0.33714c-0.20493,-0.25011 -0.24111,-0.18828 -0.62754,-0.2967c0.89458,-0.64308 1.52915,-1.3096 2.2103,-2.16571c0.20537,-10.02315 -0.11426,-20.17875 -0.00264,-30.21172c0.00645,-0.57304 -0.15688,-0.68425 -0.47417,-1.11282z" fill="#742314"/><path d="M139.09687,73.80821c-0.8335,-0.55165 -2.32983,-2.22476 -1.74258,-3.25934c1.26606,-0.09846 14.71992,-0.15473 15.01582,0.07004c0.05859,1.18637 -0.8335,1.07136 0.35156,1.7115c0.0542,0.61495 -1.59668,2.23868 -2.01416,2.91663c-0.04102,10.07839 0.10254,20.40278 -0.07324,30.44982c0.66943,0.71883 1.56445,1.57597 1.87939,2.47516c0.07031,0.19839 0.20654,0.31824 0.35449,0.46711l-0.37207,0.08234c-0.15234,-0.37304 -0.16406,-0.46989 -0.44238,-0.74652l-0.375,0.03077c-0.38086,-0.55722 -1.59961,-1.76923 -2.28076,-2.71092c-0.13623,-3.71311 -0.04687,-7.90081 -0.05127,-11.67179c-0.03223,-6.57861 -0.02344,-13.15751 0.02637,-19.73612c0.67822,-1.02198 1.31104,-1.66842 2.13721,-2.56513l-13.62305,-0.00879c0.81094,0.76264 1.64209,1.47927 2.28398,2.38725c-0.97163,-0.4567 -1.03872,-1.13055 -2.03555,-1.56791l-0.0873,0.07546c0.30117,0.49289 0.9936,1.26696 1.04854,1.60044z" fill="#fac663"/><path d="M139.09687,73.80821c-0.05493,-0.33348 -0.74736,-1.10755 -1.04854,-1.60044l0.0873,-0.07546c0.99683,0.43736 1.06392,1.11121 2.03555,1.56791c0.3561,0.77612 0.1812,28.30051 0.14268,31.53861c-0.64102,0.82696 -1.44053,1.77626 -2.32295,2.35634c-0.20493,-0.25011 -0.24111,-0.18828 -0.62754,-0.2967c0.89458,-0.64308 1.52915,-1.3096 2.2103,-2.16571c0.20537,-10.02315 -0.11426,-20.17875 -0.00264,-30.21172c0.00645,-0.57304 -0.15688,-0.68425 -0.47417,-1.11282z" fill="#fccd6a"/></g></svg></svg>