<svg xmlns="http://www.w3.org/2000/svg" width="300" height="200"><svg xmlns="http://www.w3.org/2000/svg"><defs><clipPath id="a"><path fill="none" d="M0 0h299.991v200H0z"/></clipPath></defs><g fill="none" stroke-miterlimit="10" clip-path="url(#a)" font-family="none" font-size="none" font-weight="none" style="mix-blend-mode:normal" text-anchor="none"><path fill="#fff" d="M0 0h300v200H0z"/><path fill="#722613" d="M97.195 87.334c.796-3.44 2.1-7.219 5.31-9.15 4.47-2.69 9.624-.633 11.98 3.778 3.023 5.372 3.298 11.819 1.936 17.727-1.19 5.167-5.551 9.634-11.156 8.14-4.67-1.286-7.218-6.96-8.12-11.296a27 27 0 0 1 .05-9.199"/><path fill="#edbd60" d="M97.195 87.334c.796-3.44 2.1-7.219 5.31-9.15 4.47-2.69 9.624-.633 11.98 3.778 3.023 5.372 3.298 11.819 1.936 17.727-1.19 5.167-5.551 9.634-11.156 8.14-4.67-1.286-7.218-6.96-8.12-11.296.013-.352.19-.506.412-.79.875 4.701 2.096 8.316 6.749 10.445 5.684 1.299 8.885-1.941 10.743-6.954q.198-.765.361-1.539c1.092-5.227 1.078-11.596-1.864-16.224-3.54-5.57-10.688-5.256-13.864.425-1.26 2.254-1.7 3.882-2.134 6.39z"/><path fill="#fdfaec" d="m115.049 99.234.204.11c-.22 2.123-1.912 4.55-3.533 5.874a7.95 7.95 0 0 1-5.982 1.751c-.578-.063-1.234-.145-1.432-.78 5.684 1.298 8.885-1.942 10.743-6.955"/><path fill="#fcc957" d="M97.145 96.533a27 27 0 0 1 .05-9.199l.353.952c-.218 2.319-.237 5.13.009 7.456-.221.285-.399.438-.412.791"/><path fill="#edbd60" d="M102.934 83.492c.759-2.624 2.084-4.78 5.154-3.56 3.61 1.632 3.445 11.28 3.322 14.444-.124 3.18-1.157 11.903-5.981 9.742-4.323-1.936-4.062-17.525-2.495-20.626"/><path fill="#fdfaec" d="M102.934 83.492c.759-2.624 2.084-4.78 5.154-3.56-.483.212-1.046.174-1.58.182-1.71.027-2.692 1.978-3.347 3.378z"/><path fill="#fff" d="M107.417 81.064c2.072.206 2.724 2.069 2.983 3.994.73 5.437 1.23 12.446-1.35 17.442-.51.987-1.465 1.375-2.47 1.579-2.25-.506-2.774-2.18-3.068-4.305-.566-4.085-1.782-17.698 3.905-18.71"/><path fill="#722613" d="M123.152 78.54c3.477-2.834 8.249-1.59 11.034 1.599 5.226 5.985 5.768 20.99-.519 26.126a8.16 8.16 0 0 1-6.066 1.782c-1.479-.17-3.361-.989-4.387-2.054-1.004-.82-1.98-2.205-2.623-3.325-3.834-6.682-3.824-19.035 2.56-24.128"/><path fill="#edbd60" d="M123.152 78.54c3.477-2.834 8.249-1.59 11.034 1.599 5.226 5.985 5.768 20.99-.519 26.126a8.16 8.16 0 0 1-6.066 1.782c-1.479-.17-3.361-.989-4.387-2.054.802-.29 1.322-.02 2.06.32l.076.117.59-.148c5.134 1.008 8.335-2.083 10.063-6.624.077-.64.392-1.546.517-2.236.896-4.956 1.073-10.418-1.402-15.002-2.421-4.483-6.794-6.382-11.464-3.706z"/><path fill="#fdfaec" d="M136.003 99.658c.237.745-.263 1.743-.61 2.429-1.781 3.526-6.113 6.105-10.043 4.343l.59-.148c5.134 1.008 8.335-2.083 10.063-6.624"/><path fill="#edbd60" d="m123.152 78.54.502.174c-3.073 2.347-4.48 5.966-4.918 9.707-.734 6.253.229 15.584 7.203 17.861l-.59.148-.075-.117c-.738-.34-1.258-.61-2.06-.32-1.004-.82-1.98-2.205-2.623-3.325-3.834-6.682-3.824-19.035 2.56-24.128"/><path fill="#edbd60" d="M124.17 83.18c.768-2.391 2.135-4.5 4.981-3.235 3.646 1.575 3.462 11.343 3.33 14.49-.131 3.135-1.193 11.805-5.894 9.711-4.265-1.9-4.116-17.827-2.416-20.965"/><path fill="#fdfaec" d="M124.17 83.18c.768-2.391 2.135-4.5 4.981-3.235-.962.36-1.996-.315-3.178.799-.652.614-1.19 2.206-1.687 2.476z"/><path fill="#fff" d="M128.057 81.036c1.466-.078 2.472.587 2.877 2.031 1.598 5.694 1.591 12.837-.254 18.465-.394 1.2-1.293 2.051-2.423 2.5-1.319-.018-2.359-.445-2.806-1.714-1.641-4.659-2.573-18.896 2.606-21.282"/><path fill="#722613" d="m220.096 78.172.13-.482c.82-.392 7.985-.21 9.236-.07.854.089 1.695.275 2.508.554 9.811 3.465 10.687 23.896 1.49 28.387-2.845 1.389-9.17.863-12.559.96-.098-.605.123-.732-.158-1.359l-.537-.198c-.06-.433-.044-.75-.037-1.18.584-1.25 1.797-.098 1.71-2.724-.223-6.888.095-13.833-.203-20.712-.01-.244-1.645-1.357-1.58-3.176"/><path fill="#edbd60" d="m220.096 78.172.13-.482c.82-.392 7.985-.21 9.236-.07.854.089 1.695.275 2.508.554 9.811 3.465 10.687 23.896 1.49 28.387-2.845 1.389-9.17.863-12.559.96-.098-.605.123-.732-.158-1.359l-.537-.198.306.007c8.212-.368 14.216 1.85 17.431-8.062.13-2.079.777-3.105.687-5.982-.131-4.259-.367-7.862-3.54-11.198-3.374-3.546-9.791-2.76-14.61-2.735z"/><path fill="#fdfaec" d="M237.943 97.91c.216.631.055.894-.152 1.533-2.49 7.711-8.811 7.133-15.448 6.949-1.452-.04-1.261-.31-1.442 1.129-.098-.605.123-.732-.158-1.359l-.537-.198.306.007c8.212-.368 14.216 1.85 17.431-8.062"/><path fill="#edbd60" d="m220.096 78.172.383-.178c.002.378-.093 1.144.26 1.29 2.234.917 1.6 3.825 1.6 6.354l-.005 9.822a323 323 0 0 0 .054 6.839c.007.37-.225 1.16-.448 1.447-1.056 1.359-1.525.43-1.428 2.225l-.306-.007c-.06-.433-.044-.75-.037-1.18.584-1.25 1.797-.098 1.71-2.724-.223-6.888.095-13.833-.203-20.712-.01-.244-1.645-1.357-1.58-3.176M226.465 80.361c1.274-.135 2.424-.153 3.614.415 3.134.789 4.051 8.178 3.952 10.992-.117 3.326-.236 7.961-2.657 10.552-1.24 1.326-3.26 1.302-4.9 1.304z"/><path fill="#fae7ad" d="M226.465 80.361c1.274-.135 2.424-.153 3.614.415l-.147.116c-.773-.008-2.938-.068-3.467-.531"/><path fill="#fff" d="M227.609 81.737c3.152-.02 4.556.772 5.275 4.071.981 4.508 1.074 11.57-1.333 15.602-1.081 1.53-2.225 1.652-3.94 1.951-.219-6.573-.046-14.973-.002-21.624"/><path fill="#722613" d="M60.214 77.508c3.675-.016 11.759-.807 14.3 2.07 3.527 3.995 3.499 8.826-.315 12.645 5.727 4.003 5.058 14.186-2.444 15.07-2.207.261-8.28.41-10.57.111-.3-.343-.223-.52-.276-1.048l-.031-.117-.37-.171c-.145-.107-.215-.137-.254-.306-.512-2.225 1.443-1.413 1.514-2.214.193-2.173.21-21.985-.019-22.555-1.502-.661-.313-.653-1.283-1.49l-.23-.187c-.07-.717-.054-1.087-.022-1.808"/><path fill="#edbd60" d="M60.214 77.508c3.675-.016 11.759-.807 14.3 2.07 3.527 3.995 3.499 8.826-.315 12.645 5.727 4.003 5.058 14.186-2.444 15.07-2.207.261-8.28.41-10.57.111-.3-.343-.223-.52-.276-1.048l-.031-.117-.37-.171.068-.13c1.447-.023 2.92.003 4.365-.005 4.966-.026 9.609.622 11.597-4.961.8-4.979-.244-7.817-5.075-9.55l-.139-.044c.106-.3 1.494-.58 2.089-1.07 1.139-.937 1.486-1.486 2.108-2.8 2.219-8.71-4.397-10.104-11.031-9.491-1.2.11-2.478-.178-3.784.01-.267.34-.209.894-.223 1.365l-.017.11-.23-.186c-.07-.717-.054-1.087-.022-1.808"/><path fill="#fdfaec" d="M76.538 100.972c.618 1.868-2.454 4.665-4.183 4.991-3.297.622-8.073.615-11.446.393l-.031-.117-.37-.171.068-.13c1.447-.023 2.92.003 4.365-.005 4.966-.026 9.609.622 11.597-4.961M75.521 87.509c.57 1.91-2.289 3.75-4.058 3.913l-.139-.044c.106-.3 1.494-.58 2.089-1.07 1.139-.937 1.486-1.486 2.108-2.8"/><path fill="#edbd60" d="M60.483 79.392c1.397.19 1.838.633 1.865 2.067.125 6.691.035 13.393.066 20.086.002.554-.012.982-.07 1.524-.134 1.231-1.446 1.197-1.8 2.03l.032.838-.067.131c-.146-.107-.216-.137-.255-.306-.512-2.225 1.443-1.413 1.514-2.214.193-2.173.21-21.985-.019-22.555-1.502-.661-.313-.653-1.283-1.49zM66.46 92.807c.627-.457 2.577-.15 3.308.137 3.073 1.111 3.491 7.495 1.263 9.605-1.348 1.275-2.862 1.143-4.557 1.112.068-3.379.099-7.495-.014-10.854"/><path fill="#fdfaec" d="M66.46 92.807c.627-.457 2.577-.15 3.308.137-.708.184-2.7.24-3.308-.137"/><path fill="#fff" d="M67.613 94.118c4.62.104 4.345 1.326 4.066 5.832-.053.855-.43 1.63-.871 2.353-.767.586-1.934 1.262-2.928.94-.418-.542-.262-7.945-.267-9.125"/><path fill="#edbd60" d="M66.492 80.335c1.225-.125 1.896-.177 3.06.198 2.701 1.09 2.86 6.96.895 8.822-1.261 1.195-2.347 1.178-3.955 1.18z"/><path fill="#fae7ad" d="M66.492 80.335c1.225-.125 1.896-.177 3.06.198-.57.375-2.487.285-3.06-.198"/><path fill="#fff" d="M67.628 81.67c3.183.151 3.712.412 3.617 3.966-.038 1.385-.244 2.343-1.058 3.47-.946.837-1.298.808-2.567.96q-.058-4.198.008-8.395"/><path fill="#722613" d="M78.358 77.503c3.397-.011 7.194-.182 10.501.17 4.837.513 7.07 6.035 6.453 10.322-.412 2.863-1.634 4.345-3.91 5.875.616 1.016 1.094 2.337 1.595 3.431.94 2.055 1.628 4.269 2.712 6.253.152.278.937.575 1.155.838.192.228.105.56.094.852.566.384.621.538.93 1.118.014.511.06.31-.248.765-1.136.591-5.022.471-6.267.253-.187-.379-.203-.437-.3-.851l-.036-.35-.345-.242c-.91-2.026-1.647-4.302-2.443-6.38-.458-1.196-1.121-3.467-1.79-4.442-.462-.135-.312-.16-.724-.042-.216.82-.177 8.444.138 8.999.778.26.808.234.977.994l-.401-.134c0 .287-.014.782.009 1.05-2.573-.101-5.384-.045-7.978-.035l-.113-.05c-.714-1.254.395-1.619 1.349-2.23.74-1.288-.14-15.382.23-18.005.086-.618.013-3.733-.071-4.526-1.411-1.236-1.64-1.728-1.517-3.633"/><path fill="#edbd60" d="M78.358 77.503c3.397-.011 7.194-.182 10.501.17 4.837.513 7.07 6.035 6.453 10.322-.412 2.863-1.634 4.345-3.91 5.875.616 1.016 1.094 2.337 1.595 3.431.94 2.055 1.628 4.269 2.712 6.253.152.278.937.575 1.155.838.192.228.105.56.094.852l-.234.601c.097-2.08-.859-1.008-1.716-2.535-1.531-2.728-3.122-8.14-4.772-10.57l-.062-.126c.243-.487 1.053-.684 1.603-1.175 1.168-1.043 1.606-1.905 2.155-3.324.644-4.764.135-9.632-5.93-10.048-1.327-.092-8.73-.32-9.376.203-.294 1.461 1.74 1.387 1.757 2.36.112 6.814-.01 13.664.05 20.49.01.933.152 2.56-.804 3.092-1.226.638-.84.677-1.15 1.735l-.112-.05c-.714-1.254.395-1.619 1.349-2.23.74-1.288-.14-15.382.23-18.005.086-.618.013-3.733-.071-4.526-1.411-1.236-1.64-1.728-1.517-3.633"/><path fill="#fdfaec" d="m93.932 88.115.188.077c-.08 1.693-1.993 4.321-3.884 4.548l-.062-.126c.243-.487 1.053-.684 1.603-1.175 1.168-1.043 1.606-1.905 2.155-3.324"/><path fill="#edbd60" d="M86.449 104.932c-.587-.725-1.557-.639-1.66-1.202-.335-1.822-.388-8.342-.223-9.964l.015-.142c.44-.26 1.086-.169 1.631-.156.805 1.298 4.52 11.026 4.82 12.535l-.34-.066c-.91-2.026-1.647-4.302-2.443-6.38-.458-1.196-1.121-3.467-1.79-4.442-.462-.135-.312-.16-.724-.042-.216.82-.177 8.444.138 8.999.778.26.808.234.977.994z"/><path fill="#edbd60" d="m96.724 105.845.234-.6c.566.383.621.537.93 1.117.014.511.06.31-.248.765-1.136.591-5.022.471-6.267.253-.187-.379-.203-.437-.3-.851l-.036-.35-.345-.242.34.066c1.917-.154 3.832.028 5.671-.076z"/><path fill="#fdfaec" d="M91.033 106.003c1.916-.154 3.83.029 5.67-.076l.293.209c-.872.634-5.12-.064-5.922.393l-.037-.35-.345-.242z"/><path fill="#edbd60" d="M84.678 80.317c1.221-.085 2.065-.2 3.156.37 2.695 1.291 2.544 7.817.44 9.653-1.276 1.113-2.178 1.053-3.754 1.001.018-1.569-.174-10.213.158-11.024"/><path fill="#fae7ad" d="M84.678 80.317c1.221-.085 2.065-.2 3.156.37-.37.207-2.575.02-3.044-.024z"/><path fill="#fff" d="M85.658 81.715c.646-.007 2.15-.066 2.626.307 1.973 1.547.99 6.117-.057 7.813-.98.95-1.211.973-2.543 1.12-.101-3.005-.039-6.217-.026-9.24"/><path fill="#722613" d="M149.68 77.523c1.356-.016 6.232-.167 7.319.07.281.414.147 1.12.183 1.157.548.56 1.172 1.251.59 2.103-.306.14-1.583.71-1.732.911-1.77 2.388-3.077 5.072-4.836 7.488.72 2.034 4.82 14.142 6.419 14.88.24.112.52.157.78.204l.036 1.58-.384.085c-2.269-.179-6.044-.072-8.398-.04l-.092.068c-.961-1.259.744-2.03.81-2.243.341-1.11-2.59-8.206-2.896-9.147-.457.683-.955 1.365-1.432 2.036-.02 1.177-.234 6.578.142 7.353.366.104.506.118.738.428.092 1.278 1.372 1.853.688 2.955-.948.135-7.276.142-8.238.027-.293-.384-.204-.53-.23-1.085l-.167-.305-.273-.035-.188-.258c-.236-1.792.88-1.358 1.586-2.317.265-.84.252-21.98.067-22.298-.39-.668-.784-.193-1.187-1.528l-.442-.14c-.25-.612-.09-1.27-.065-1.962 2.012-.007 6.723-.148 8.522.047.387.472.119 1.059.22 1.193.713.962 1.027.581.712 1.978-.71.515-1.803.217-1.847 1.059-.133 2.53-.112 5.831-.023 8.347 1.273-2.254 2.725-4.76 4.106-6.93 2.45-3.843-.81-1.538-.489-5.68"/><path fill="#edbd60" d="M149.68 77.523c1.356-.016 6.232-.167 7.319.07.281.414.147 1.12.183 1.157.548.56 1.172 1.251.59 2.103-.306.14-1.583.71-1.732.911-1.77 2.388-3.077 5.072-4.836 7.488.72 2.034 4.82 14.142 6.419 14.88.24.112.52.157.78.204l.036 1.58-.384.085c.047-2.385-1.287-1.084-2.16-3.038-2.088-4.673-3.755-9.76-5.741-14.432l.25-.097c1.75-2.012 3.103-5.586 4.938-7.7.318-.365.617-.709.81-1.157.331-.034.312-.04.608-.2.22-.439.279-.484.213-.944-.567-.75-6.331-.652-6.983-.152-.355 1.135 1.356 1.19 1.673 2.403.044.165.064.536-.008.672-1.884 3.566-4.639 7.967-6.795 11.27.033-3.05-.085-8.83.084-11.96.024-.45 1.353-1.126 1.866-1.74.117-.498.115-.295-.088-.812-1.179-.287-6.07-.091-7.525-.078-.295.003-.36.203-.467.385.02.486.067.565.27 1.012l-.015.179-.442-.14c-.25-.612-.09-1.27-.065-1.962 2.012-.007 6.723-.148 8.522.047.387.472.119 1.059.22 1.193.713.962 1.027.581.712 1.978-.71.515-1.803.217-1.847 1.059-.133 2.53-.112 5.831-.023 8.347 1.273-2.254 2.725-4.76 4.106-6.93 2.45-3.843-.81-1.538-.489-5.68"/><path fill="#edbd60" d="M146.87 92.605c.605.441 3.63 8.879 4.022 10.22.607 2.073-1.503.72-1.235 3.136l-.092.068c-.961-1.259.744-2.03.81-2.243.341-1.11-2.59-8.206-2.896-9.147-.457.683-.955 1.365-1.432 2.036-.02 1.177-.234 6.578.142 7.353.366.104.506.118.738.428l-.025.9c-.39-1.498-2.056-.519-2.063-3.32-.005-2.066.075-4.294.085-6.365.238-.651 1.49-2.407 1.946-3.066"/><path fill="#fdfaec" d="M146.87 92.605c.187 1.194-.933 2.556-1.946 3.066.238-.651 1.49-2.407 1.946-3.066"/><path fill="#edbd60" d="M139 79.433c1.37.227 1.688.64 1.719 1.983.102 4.383-.016 8.773.028 13.157.01 2.648.087 5.917-.067 8.577-.076 1.319-2.568 1.142-1.703 2.797l.003.1-.273-.034-.188-.258c-.236-1.792.88-1.358 1.586-2.317.265-.84.252-21.98.067-22.298-.39-.668-.784-.193-1.187-1.528z"/><path fill="#edbd60" d="M146.927 104.456c.092 1.278 1.372 1.853.688 2.955-.948.135-7.276.142-8.238.027-.293-.384-.204-.53-.23-1.085l-.167-.305-.003-.101 7.796.008.129-.6z"/><path fill="#fdfaec" d="m146.773 105.955.13.238c-.615.43-6.655.185-7.756.16l-.167-.305-.003-.101zM150.154 88.53c.332-1.634 3.82-6.515 4.9-8.167.171-.262.792-.622 1.098-.786-.193.448-.492.792-.81 1.158-1.835 2.113-3.189 5.687-4.938 7.7z"/><path fill="#722613" d="M186.312 77.51c5.043-.05 10.497.212 15.492-.136-.001 1.094-.06 1.268.526 2.151.107.163.189 1.394.163 1.6-.107.86.351 5.356.023 5.78-2.522.522-2.187-3.244-3.66-4.457-1.243-1.024-3.623-.745-5.176-.726.006 2.12-.03 5.88.082 8.1.012.228.36.292.54.346 2.296-.344 2.113-2.285 2.548-4.017.368-.263.85-.174 1.336-.16.13.087.231.104.268.26.067.284.148.449.314.688.862 1.253.45 9.29.438 11.251-.648.032-.898.15-1.42-.105-.225-.752-.123-.795-.637-1.227l-.292.012c-1.11-2.115.449-2.607-3.16-2.794q-.028 4.673.042 9.344c2.276-.054 3.433.08 5.223-1.551 1.574-1.434 1.268-4.398 2.861-4.47.205-.01.699.07.913.106-.01 1.533.612.412.573 1.992-.068 2.74-.459 5.306-.534 8.065-1.526-.044-15.397-.055-15.635-.162-.123-.429-.132-.54-.154-.987l-.065-.31c-.313-.03-.375-.109-.625-.296-.494-1.03.77-1.693 1.522-2.288.171-.552.056-22.254-.024-22.488a10 10 0 0 0-.817-.22c-.562-.867-.773-2.27-.665-3.3"/><path fill="#edbd60" d="M186.312 77.51c5.043-.05 10.497.212 15.492-.136-.001 1.094-.06 1.268.526 2.151.107.163.189 1.394.163 1.6-.107.86.351 5.356.023 5.78-2.522.522-2.187-3.244-3.66-4.457-1.243-1.024-3.623-.745-5.176-.726.006 2.12-.03 5.88.082 8.1.012.228.36.292.54.346 2.296-.344 2.113-2.285 2.548-4.017.368-.263.85-.174 1.336-.16.13.087.231.104.268.26.067.284.148.449.314.688.862 1.253.45 9.29.438 11.251-.648.032-.898.15-1.42-.105-.225-.752-.123-.795-.637-1.227l-.292.012c-1.11-2.115.449-2.607-3.16-2.794q-.028 4.673.042 9.344c2.276-.054 3.433.08 5.223-1.551 1.574-1.434 1.268-4.398 2.861-4.47.205-.01.699.07.913.106l-.35.398c-.167-.074-.434-.113-.623-.152-.978.345-1.409 3.472-2.713 4.654-1.892 1.716-4.038 1.353-6.458 1.282-.063-3.63-.01-7.415-.013-11.058.817-.02 1.75.073 2.575.134 2.139 1.692 1.242 2.828 2.105 3.948l.647-.188c.374-.584.087-8.713.242-10.242-2.754.478.691 4.331-5.57 4.318.049-3.163-.143-6.898.053-10.01.717.267 4.131.201 4.884.024 1.953.837 2.259 3.054 3.544 4.787l.309-.07c.312-1.073.047-5.928.048-7.423-3.296.194-6.678.057-9.981.093-1.455.016-3.282-.1-4.684.085-.28.454-.235.246-.197.764.466.71 1.793 1.274 1.794 1.938.009 7.419.11 15.028-.061 22.425-.022.955-1.963 1.2-1.785 2.416.318.322.143.244.509.35l-.09.125c-.313-.03-.375-.109-.625-.296-.494-1.03.77-1.693 1.522-2.288.171-.552.056-22.254-.024-22.488a10 10 0 0 0-.817-.22c-.562-.867-.773-2.27-.665-3.3"/><path fill="#edbd60" d="M202.736 97.505c-.01 1.533.612.412.573 1.992-.068 2.74-.459 5.306-.534 8.065-1.526-.044-15.397-.055-15.635-.162-.123-.429-.132-.54-.154-.987l-.065-.31.09-.125q4.551-.078 9.102-.055c1.203 0 3.95-.056 5.042.097l.315-.126c.208-.387.799-7.007.916-7.991z"/><path fill="#fdfaec" d="M187.01 105.978q4.552-.078 9.103-.055c1.203 0 3.95-.056 5.042.097l.24.154c-.767.37-12.81.365-14.41.239l-.064-.31z"/><path fill="#fae7ad" d="M192.631 80.589c.621-.702 3.955-.354 4.884.024-.753.177-4.167.243-4.884-.024"/><path fill="#722613" d="m158.553 77.49 10.395.024c1.232.001 3.703-.096 4.778.03 1.02 1.563 1.443 7.412 1.212 9.185-.25.345-1.046.586-1.377.261-.418-.407-.679-1.094-.919-1.624-1.44-4.112-2.527-3.682-6.663-3.673-.005 1.21-.097 7.746.096 8.425 1.02.368 2.234-.399 2.517-1.417.225-.81.341-2.047.877-2.698 1.2-.354 2.268 1.673 2.123 2.616-.214 1.384.246 8.622-.169 9.377-.482.216-.586.177-1.135.16-.734-.684.327-.621-1.148-1.406-.762-2.47-.491-2.54-3.16-2.675-.003 1.59-.114 8.721.145 9.84.55.463.511.198 1.04.397-.035.345-.073 1.065-.205 1.347l-.253.287c-2.466 0-5.573-.09-7.984.055l-.284-.084-.035-1.58c.458-.144 1.399-.286 1.567-.72.448-1.15.26-3.802.257-5l-.031-8.531c.001-1.342.136-8.15-.027-9.093-1.45-.323-.417-.65-1.41-1.472-.432-.477-.26-1.39-.207-2.032"/><path fill="#edbd60" d="m158.553 77.49 10.395.024c1.232.001 3.703-.096 4.778.03 1.02 1.563 1.443 7.412 1.212 9.185-.25.345-1.046.586-1.377.261-.418-.407-.679-1.094-.919-1.624-1.44-4.112-2.527-3.682-6.663-3.673-.005 1.21-.097 7.746.096 8.425 1.02.368 2.234-.399 2.517-1.417.225-.81.341-2.047.877-2.698 1.2-.354 2.268 1.673 2.123 2.616-.214 1.384.246 8.622-.169 9.377-.482.216-.586.177-1.135.16-.734-.684.327-.621-1.148-1.406-.762-2.47-.491-2.54-3.16-2.675-.003 1.59-.114 8.721.145 9.84.55.463.511.198 1.04.397-.035.345-.073 1.065-.205 1.347l-.012-.124c-.117-1.11-.832-.897-1.532-1.559-.935-.882-.485-9.537-.485-11.28 6.17-.039 2.687 3.143 4.986 4.101l.28-.162c.47-1.005.279-8.527.227-10.02l-.224-.168c-2.056.44.646 4.132-5.278 4.241q.015-5.163-.023-10.327c1.271-.17 3.538-.244 4.731.153 2.89.951 2.513 4.909 3.966 4.927.521-.644.142-2.05.137-2.88a154 154 0 0 0-.105-4.72c-3.867.58-10.636-.231-14.562.18-.318.46-.243.745-.306 1.366 1.013.108 1.53.372 1.958 1.337l-.548.269c-1.45-.323-.417-.65-1.41-1.472-.432-.477-.26-1.39-.207-2.032"/><path fill="#fae7ad" d="M164.899 80.361c1.271-.17 3.538-.244 4.731.153-.692.431-3.994.364-4.731-.153"/><path fill="#fcc957" d="m160.17 80.993.548-.27-.017 14.896c0 2.477.05 4.989-.072 7.458-.08 1.643-1.838.667-1.9 2.5a14 14 0 0 0-.006.424l-.284-.084-.035-1.58c.458-.144 1.399-.286 1.567-.72.448-1.15.26-3.802.257-5l-.031-8.531c.001-1.342.136-8.15-.027-9.093"/><path fill="#722613" d="M203.83 77.516c1.2-.008 7.973-.213 8.492.22.01.17.077 1.078.139 1.14.558.564.962.642.665 1.646-1.124 1.06-1.885.119-1.887 2.716-.004 6.688.003 13.403.031 20.09 2.064-.03 2.177.062 3.892-1.207 1.831-1.354 1.532-6.313 3.888-5.354.11.389.09.463.07.874.573.58.838.676.785 1.748-.057 1.163-.256 2.454-.39 3.618q-.24 2.266-.393 4.54c-3.034-.048-5.967-.12-9.005-.077-.999.014-4.683.091-5.439-.055-.268-.324-.241-.595-.284-1.03l-.435-.309c-.062-.23-.214-1.287-.041-1.392 2.432-1.48 1.71-2.75 1.695-5.738l-.005-8c0-1.862.066-7.55-.121-9.675-.049-.557-.857-.047-1.137-1.734l-.158.007-.336-.103c-.178-.564-.07-1.318-.026-1.925"/><path fill="#edbd60" d="M203.83 77.516c1.2-.008 7.973-.213 8.492.22.01.17.077 1.078.139 1.14.558.564.962.642.665 1.646-1.124 1.06-1.885.119-1.887 2.716-.004 6.688.003 13.403.031 20.09 2.064-.03 2.177.062 3.892-1.207 1.831-1.354 1.532-6.313 3.888-5.354.11.389.09.463.07.874.573.58.838.676.785 1.748-.057 1.163-.256 2.454-.39 3.618q-.24 2.266-.393 4.54c-3.034-.048-5.967-.12-9.005-.077-.999.014-4.683.091-5.439-.055-.268-.324-.241-.595-.284-1.03 4.065-.087 8.303.232 12.39.074.515-.02.879-.024 1.15-.476.222-1.024.22-2.616.35-3.72.146-1.226.788-4.215.25-5.253l-.288-.086c-.657.352-.646.957-.847 1.624-1.38 4.578-2.883 5.175-7.323 5.15.236-7.618-.113-15.498.19-23.124.023-.59 1.095-.95 1.568-1.215.308-.412.287-.53.3-1.053-.411-.525-2.302-.344-2.945-.278-1.36.14-3.789-.47-4.936.19-.268.543-.14.636-.061 1.326l-.336-.103c-.178-.564-.07-1.318-.026-1.925"/><path fill="#edbd60" d="M204.35 79.537c1.097.05 1.617.606 1.645 1.685.179 6.923.056 13.869.08 20.795.002.668-.366 1.797-.884 2.187-.965.725-1.1.47-1.008 1.77l-.224.102c-.062-.23-.214-1.287-.041-1.392 2.432-1.48 1.71-2.75 1.695-5.738l-.005-8c0-1.862.066-7.55-.121-9.674-.049-.558-.857-.048-1.137-1.735"/><path fill="#fdfaec" d="M204.183 105.975c3.973-.108 9.819-.176 13.75.008-.27.452-.634.457-1.15.476-4.086.158-8.324-.16-12.389-.075l-.435-.308z"/><path fill="#722613" d="M175.541 77.501c2.827.003 5.933-.06 8.736.024.038.499.043 1.395.295 1.775l.416.145c.64 1.702-1.739 1.679-1.758 2.228-.253 7.324-.09 14.722-.08 22.047.002.357.57.515.829.594.4.67.808 2.122.85 2.903l-.13.187c-1.178.126-7.643.307-8.357-.08-.199-.409-.175-.505-.196-.974l-.015-.161-.498-.115c-.1-.58-.206-.923-.055-1.491.512-.726 1.938-.27 1.785-1.897-.21-2.208.45-20.748-.133-21.746-.422-.081-.57-.08-.93-.298-.049-.434-.04-.53-.213-.92-.902-.46-.602-1.274-.546-2.22"/><path fill="#edbd60" d="M175.541 77.501c2.827.003 5.933-.06 8.736.024.038.499.043 1.395.295 1.775l.416.145c.64 1.702-1.739 1.679-1.758 2.228-.253 7.324-.09 14.722-.08 22.047.002.357.57.515.829.594.4.67.808 2.122.85 2.903l-.13.187c-1.178.126-7.643.307-8.357-.08-.199-.409-.175-.505-.196-.974l-.015-.161-.498-.115.263-.124c2.32-.01 5.87-.123 8.07.046-.176-2.193-.595-.848-1.74-2.497-.118-.168-.247-.855-.235-1.068.152-2.91-.262-20.569.212-21.981.425-.84.778-.822 1.64-.99.23-.337.216-1.049-.011-1.397-.828-.176-6.504-.035-7.985-.096-.007.551-.054.89.138 1.407l.318.119-.216.229c-.902-.46-.602-1.274-.546-2.22"/><path fill="#fdfaec" d="m183.965 105.996.101.206c-.429.407-7.018.314-7.92.148l-.015-.161-.498-.115.262-.124c2.32-.01 5.872-.123 8.07.046"/><path fill="#fae7ad" d="M182.203 80.45c.425-.84.778-.822 1.64-.99l.09.302c-.36.316-1.07.478-1.655.946z"/><path fill="#edbd60" d="M176.303 79.493c.887.168 1.503.602 1.504 1.585.015 7.331.138 14.695-.035 22.02-.03 1.246-1.396 1.075-1.857 1.853-.014.338-.031.66-.02.999l-.262.124c-.1-.58-.206-.922-.055-1.491.512-.726 1.938-.27 1.785-1.897-.21-2.208.45-20.748-.133-21.746-.422-.08-.57-.08-.93-.298-.049-.433-.04-.53-.213-.92zM167.165 104.312c.152 1.669.806 1.16.693 3.167-2.871.004-5.85.052-8.71.012l-.135-.053c-1.456.083-7.57.136-8.777-.005-.336-.375-.255-.504-.33-1.073l-.341-.33.092-.07c2.354-.03 6.13-.138 8.398.04l.384-.083.284.084c2.411-.145 5.518-.054 7.984-.055l.253-.287c.132-.282.17-1.002.205-1.347"/><path fill="#edbd60" d="M167.165 104.312c.152 1.669.806 1.16.693 3.167-2.871.004-5.85.052-8.71.012.003-.223-.022-.54.032-.754.235-.927 6.588.193 7.61-.528l-.083-.263.253-.287c.132-.282.17-1.002.205-1.347"/><path fill="#fdfaec" d="m158.055 106 .384-.083.284.084c2.411-.145 5.518-.054 7.984-.055l.083.263c-1.022.721-7.375-.4-7.61.528-.054.214-.03.53-.032.754l-.135-.053c-.044-.473-.022-.586-.258-.978-.74-.26-7.37-.022-8.849-.1l-.341-.33.092-.07c2.354-.03 6.13-.138 8.398.04"/><path fill="#edbd60" d="m86.449 104.932.4.134c.415.68.847 1.264.705 2.076-.78.694-6.716.18-8.135.328-.016.002-.25-.025-.268-.026-.237-.367-.149-.338-.129-.877.614-.63 6.577.21 7.5-.35l-.064-.235c-.023-.268-.008-.763-.01-1.05"/></g></svg></svg>