<svg id="svg" version="1.1" viewBox="0 0 300 200" width="300" height="200" xmlns="http://www.w3.org/2000/svg"><svg xmlns="http://www.w3.org/2000/svg"><defs><clipPath id="clip-1"><rect x="0" y="0" transform="scale(0.14648,0.14652)" width="2048" height="1365" fill="none"/></clipPath></defs><g clip-path="url(#clip-1)" fill="none" fill-rule="nonzero" stroke="none" stroke-width="1" stroke-linecap="butt" stroke-linejoin="miter" stroke-miterlimit="10" stroke-dasharray="" stroke-dashoffset="0" font-family="none" font-weight="none" font-size="none" text-anchor="none" style="mix-blend-mode: normal"><path d="M0,0h300v200h-300z" fill="#ffffff"/><path d="M97.19517,87.33407c0.79629,-3.44088 2.09927,-7.21875 5.3105,-9.15048c4.46997,-2.68894 9.62373,-0.63282 11.97905,3.77875c3.02344,5.37128 3.29795,11.81817 1.93638,17.72659c-1.19077,5.16747 -5.55132,9.6337 -11.15596,8.13934c-4.67007,-1.28571 -7.21816,-6.95883 -8.12051,-11.29495c-0.50933,-3.04674 -0.49219,-6.15824 0.05054,-9.19927z" fill="#722613"/><path d="M97.19517,87.33407c0.79629,-3.44088 2.09927,-7.21875 5.3105,-9.15048c4.46997,-2.68894 9.62373,-0.63282 11.97905,3.77875c3.02344,5.37128 3.29795,11.81817 1.93638,17.72659c-1.19077,5.16747 -5.55132,9.6337 -11.15596,8.13934c-4.67007,-1.28571 -7.21816,-6.95883 -8.12051,-11.29495c0.01348,-0.35282 0.19116,-0.50667 0.41221,-0.79106c0.87539,4.70198 2.09663,8.31692 6.74883,10.44586c5.68403,1.29861 8.88486,-1.94125 10.74316,-6.9537c0.13198,-0.51033 0.25254,-1.02344 0.36138,-1.53905c1.09219,-5.22784 1.07783,-11.59634 -1.86416,-16.22476c-3.53994,-5.56908 -10.68823,-5.25568 -13.86357,0.42505c-1.25977,2.25392 -1.70127,3.88205 -2.13442,6.39033z" fill="#edbd60"/><path d="M115.04883,99.23443l0.20464,0.11004c-0.22134,2.12264 -1.9125,4.5493 -3.53379,5.87326c-1.67271,1.37348 -3.83291,2.00601 -5.98198,1.7515c-0.57759,-0.06286 -1.23354,-0.1452 -1.43203,-0.7811c5.68403,1.29861 8.88486,-1.94125 10.74316,-6.9537z" fill="#fdfaec"/><path d="M97.14463,96.53333c-0.50933,-3.04674 -0.49219,-6.15824 0.05054,-9.19927l0.35288,0.95194c-0.21812,2.31897 -0.23687,5.12982 0.00879,7.45626c-0.22104,0.2844 -0.39873,0.43824 -0.41221,0.79106z" fill="#fcc957"/><path d="M102.93413,83.49201c0.75879,-2.62359 2.08345,-4.77993 5.15361,-3.56088c3.61069,1.63297 3.44502,11.28103 3.32183,14.44484c-0.12393,3.18066 -1.15679,11.90271 -5.98096,9.74227c-4.3229,-1.93582 -4.06201,-17.52527 -2.49448,-20.62623z" fill="#edbd60"/><path d="M102.93413,83.49201c0.75879,-2.62359 2.08345,-4.77993 5.15361,-3.56088c-0.48267,0.21304 -1.04619,0.17465 -1.57896,0.18286c-1.71021,0.02652 -2.69297,1.97846 -3.34731,3.37817z" fill="#fdfaec"/><path d="M107.41655,81.06374c2.07202,0.20659 2.72417,2.06916 2.98315,3.99443c0.73125,5.43634 1.23062,12.44542 -1.35059,17.44205c-0.50991,0.98696 -1.46367,1.37524 -2.46943,1.57832c-2.24941,-0.50549 -2.77354,-2.17949 -3.06797,-4.30476c-0.56572,-4.08454 -1.78125,-17.69802 3.90483,-18.71004z" fill="#ffffff"/><path d="M123.1519,78.54007c3.47666,-2.8337 8.24868,-1.58989 11.03364,1.59897c5.22612,5.98447 5.76826,20.98916 -0.51812,26.12615c-1.70068,1.38476 -3.88682,2.02696 -6.06592,1.78198c-1.4792,-0.16938 -3.36152,-0.98872 -4.38794,-2.05465c-1.004,-0.8189 -1.98003,-2.20484 -2.62251,-3.32469c-3.83364,-6.6822 -3.82427,-19.03531 2.56084,-24.12777z" fill="#722613"/><path d="M123.1519,78.54007c3.47666,-2.8337 8.24868,-1.58989 11.03364,1.59897c5.22612,5.98447 5.76826,20.98916 -0.51812,26.12615c-1.70068,1.38476 -3.88682,2.02696 -6.06592,1.78198c-1.4792,-0.16938 -3.36152,-0.98872 -4.38794,-2.05465c0.80215,-0.28864 1.32246,-0.01993 2.06074,0.32l0.07559,0.11722l0.58945,-0.1474c5.13486,1.00718 8.33599,-2.08381 10.06333,-6.62476c0.07749,-0.64029 0.39229,-1.54535 0.51694,-2.23546c0.8959,-4.95604 1.07358,-10.41788 -1.402,-15.0019c-2.42109,-4.48308 -6.79336,-6.38198 -11.46357,-3.70608z" fill="#edbd60"/><path d="M136.00269,99.65758c0.23701,0.74564 -0.2625,1.7433 -0.60894,2.42901c-1.78213,3.52674 -6.11338,6.1052 -10.04385,4.34315l0.58945,-0.1474c5.13486,1.00718 8.33599,-2.08381 10.06333,-6.62476z" fill="#fdfaec"/><path d="M123.1519,78.54007l0.50215,0.17407c-3.07339,2.34667 -4.47949,5.96557 -4.91821,9.70667c-0.73345,6.25319 0.2291,15.58432 7.20352,17.86154l-0.58945,0.1474l-0.07559,-0.11722c-0.73828,-0.33993 -1.25859,-0.60864 -2.06074,-0.32c-1.004,-0.8189 -1.98003,-2.20484 -2.62251,-3.32469c-3.83364,-6.6822 -3.82427,-19.03531 2.56084,-24.12777z" fill="#edbd60"/><path d="M124.17085,83.18051c0.76714,-2.39165 2.13369,-4.5011 4.98062,-3.23531c3.646,1.57436 3.46187,11.34271 3.32974,14.48996c-0.13169,3.13495 -1.19341,11.80454 -5.89424,9.71092c-4.2646,-1.89963 -4.11592,-17.82696 -2.41611,-20.96557z" fill="#edbd60"/><path d="M124.17085,83.18051c0.76714,-2.39165 2.13369,-4.5011 4.98062,-3.23531c-0.96255,0.36059 -1.99614,-0.31502 -3.17827,0.79883c-0.65215,0.61436 -1.19048,2.2063 -1.68765,2.4759z" fill="#fdfaec"/><path d="M128.05737,81.03619c1.46543,-0.07839 2.47178,0.58681 2.87695,2.03077c1.59785,5.69377 1.59111,12.83707 -0.25444,18.46476c-0.39375,1.20059 -1.29272,2.05158 -2.423,2.50051c-1.31865,-0.01788 -2.35884,-0.44557 -2.80576,-1.71399c-1.64121,-4.65919 -2.57271,-18.89612 2.60625,-21.28205z" fill="#ffffff"/><path d="M220.0957,78.17201l0.13037,-0.48176c0.82031,-0.39179 7.98486,-0.21114 9.23584,-0.07062c0.854,0.08938 1.69482,0.27546 2.50781,0.55487c9.81152,3.46476 10.6875,23.89597 1.48975,28.38696c-2.84473,1.38857 -9.16992,0.86227 -12.55811,0.95912c-0.09814,-0.60454 0.12305,-0.73201 -0.1582,-1.35824l-0.5376,-0.19824c-0.06006,-0.43311 -0.04395,-0.74974 -0.03662,-1.17963c0.58447,-1.25011 1.79736,-0.0989 1.71094,-2.7241c-0.22412,-6.88879 0.09375,-13.83385 -0.20361,-20.71194c-0.01025,-0.24396 -1.64502,-1.35736 -1.58057,-3.17641z" fill="#722613"/><path d="M220.0957,78.17201l0.13037,-0.48176c0.82031,-0.39179 7.98486,-0.21114 9.23584,-0.07062c0.854,0.08938 1.69482,0.27546 2.50781,0.55487c9.81152,3.46476 10.6875,23.89597 1.48975,28.38696c-2.84473,1.38857 -9.16992,0.86227 -12.55811,0.95912c-0.09814,-0.60454 0.12305,-0.73201 -0.1582,-1.35824l-0.5376,-0.19824l0.30615,0.00659c8.21191,-0.36777 14.21631,1.84982 17.43164,-8.06139c0.13037,-2.07897 0.77637,-3.1052 0.68701,-5.98256c-0.13184,-4.25846 -0.36768,-7.86168 -3.54053,-11.19736c-3.37354,-3.54623 -9.79102,-2.75971 -14.61035,-2.73582z" fill="#edbd60"/><path d="M237.94336,97.9093c0.21533,0.63179 0.0542,0.89465 -0.15234,1.53333c-2.49023,7.71179 -8.81104,7.13319 -15.44824,6.94901c-1.45166,-0.04029 -1.26123,-0.30989 -1.44141,1.12894c-0.09814,-0.60454 0.12305,-0.73201 -0.1582,-1.35824l-0.5376,-0.19824l0.30615,0.00659c8.21191,-0.36777 14.21631,1.84982 17.43164,-8.06139z" fill="#fdfaec"/><path d="M220.0957,78.17201l0.38379,-0.17846c0.00146,0.37861 -0.09375,1.14418 0.25928,1.28952c2.23389,0.9178 1.60107,3.82608 1.60107,6.35516l-0.00586,9.82154c-0.00146,2.26242 0.00732,4.5726 0.0542,6.83927c0.00732,0.36967 -0.22559,1.15971 -0.44824,1.44674c-1.05615,1.35912 -1.5249,0.43004 -1.42822,2.22491l-0.30615,-0.00659c-0.06006,-0.43311 -0.04395,-0.74974 -0.03662,-1.17963c0.58447,-1.25011 1.79736,-0.0989 1.71094,-2.7241c-0.22412,-6.88879 0.09375,-13.83385 -0.20361,-20.71194c-0.01025,-0.24396 -1.64502,-1.35736 -1.58057,-3.17641z" fill="#edbd60"/><path d="M226.46484,80.36103c1.27441,-0.13495 2.42432,-0.15326 3.61377,0.41524c3.13477,0.78828 4.05176,8.17773 3.95215,10.99165c-0.11719,3.32645 -0.23584,7.96103 -2.65723,10.55223c-1.23926,1.32557 -3.25928,1.30154 -4.8999,1.30432z" fill="#edbd60"/><path d="M226.46484,80.36103c1.27441,-0.13495 2.42432,-0.15326 3.61377,0.41524l-0.14648,0.11604c-0.77344,-0.00821 -2.93848,-0.06842 -3.46729,-0.53128z" fill="#fae7ad"/><path d="M227.60889,81.7367c3.15234,-0.02022 4.55566,0.77201 5.2749,4.07165c0.98145,4.50725 1.07373,11.56923 -1.33301,15.60161c-1.08105,1.52996 -2.2251,1.65245 -3.93896,1.95106c-0.21973,-6.57348 -0.04687,-14.97275 -0.00293,-21.62432z" fill="#ffffff"/><path d="M60.21445,77.50828c3.67456,-0.01597 11.75859,-0.80718 14.29907,2.06989c3.52749,3.99502 3.49922,8.82608 -0.31436,12.64513c5.72725,4.00308 5.05737,14.18535 -2.44424,15.07048c-2.20679,0.26037 -8.27959,0.40923 -10.56914,0.11062c-0.30059,-0.34359 -0.22383,-0.52073 -0.277,-1.04879l-0.03105,-0.11619l-0.36885,-0.17143c-0.14561,-0.10681 -0.21548,-0.137 -0.25444,-0.30593c-0.51211,-2.22505 1.44243,-1.41275 1.51348,-2.21421c0.19277,-2.17304 0.21035,-21.98505 -0.0189,-22.55458c-1.50161,-0.66154 -0.31333,-0.65333 -1.28335,-1.49099l-0.23057,-0.18667c-0.06826,-0.71678 -0.05347,-1.0863 -0.02065,-1.80733z" fill="#722613"/><path d="M60.21445,77.50828c3.67456,-0.01597 11.75859,-0.80718 14.29907,2.06989c3.52749,3.99502 3.49922,8.82608 -0.31436,12.64513c5.72725,4.00308 5.05737,14.18535 -2.44424,15.07048c-2.20679,0.26037 -8.27959,0.40923 -10.56914,0.11062c-0.30059,-0.34359 -0.22383,-0.52073 -0.277,-1.04879l-0.03105,-0.11619l-0.36885,-0.17143l0.06738,-0.1307c1.44624,-0.02198 2.91899,0.00381 4.3645,-0.00396c4.96626,-0.02637 9.60923,0.62212 11.59717,-4.96147c0.8001,-4.97846 -0.24434,-7.81656 -5.07451,-9.54945l-0.13931,-0.04469c0.10547,-0.30022 1.49385,-0.58007 2.08843,-1.06945c1.13921,-0.93729 1.48638,-1.4863 2.10894,-2.79941c2.21836,-8.71106 -4.39746,-10.10447 -11.03188,-9.49231c-1.19912,0.11062 -2.4772,-0.17714 -3.7834,0.01084c-0.26675,0.33993 -0.20874,0.89333 -0.22295,1.36425l-0.01758,0.11062l-0.23057,-0.18667c-0.06826,-0.71678 -0.05347,-1.0863 -0.02065,-1.80733z" fill="#edbd60"/><path d="M76.53794,100.97187c0.61758,1.86769 -2.45347,4.66535 -4.1833,4.99136c-3.29692,0.62168 -8.07275,0.6148 -11.44585,0.39238l-0.03105,-0.11619l-0.36885,-0.17143l0.06738,-0.1307c1.44624,-0.02198 2.91899,0.00381 4.3645,-0.00396c4.96626,-0.02637 9.60923,0.62212 11.59717,-4.96147z" fill="#fdfaec"/><path d="M75.52148,87.50886c0.56865,1.9096 -2.2894,3.7493 -4.05806,3.91355l-0.13931,-0.04469c0.10547,-0.30022 1.49385,-0.58007 2.08843,-1.06945c1.13921,-0.93729 1.48638,-1.4863 2.10894,-2.79941z" fill="#fdfaec"/><path d="M60.48325,79.39165c1.39629,0.18945 1.83823,0.6337 1.86504,2.06696c0.12495,6.69143 0.03501,13.39311 0.06562,20.08674c0.00249,0.5537 -0.01157,0.98168 -0.07046,1.5241c-0.13345,1.23062 -1.44521,1.19648 -1.79868,2.02872l0.03149,0.83912l-0.06738,0.1307c-0.14561,-0.10681 -0.21548,-0.137 -0.25444,-0.30593c-0.51211,-2.22505 1.44243,-1.41275 1.51348,-2.21421c0.19277,-2.17304 0.21035,-21.98505 -0.0189,-22.55458c-1.50161,-0.66154 -0.31333,-0.65333 -1.28335,-1.49099z" fill="#edbd60"/><path d="M66.46025,92.80747c0.62651,-0.45788 2.57637,-0.15018 3.30776,0.13641c3.0731,1.1115 3.49146,7.49538 1.26255,9.60484c-1.34751,1.27516 -2.86128,1.14286 -4.55625,1.11253c0.06782,-3.37875 0.09844,-7.49538 -0.01406,-10.85377z" fill="#edbd60"/><path d="M66.46025,92.80747c0.62651,-0.45788 2.57637,-0.15018 3.30776,0.13641c-0.70825,0.18418 -2.7,0.24044 -3.30776,-0.13641z" fill="#fdfaec"/><path d="M67.61294,94.1181c4.62012,0.10344 4.34517,1.3263 4.06611,5.83238c-0.05288,0.8548 -0.43022,1.6296 -0.87144,2.35282c-0.76641,0.58579 -1.93374,1.26183 -2.92778,0.93949c-0.41792,-0.54227 -0.26147,-7.94476 -0.26689,-9.12469z" fill="#ffffff"/><path d="M66.49219,80.33495c1.22446,-0.12542 1.89565,-0.177 3.06021,0.19795c2.70059,1.08967 2.85908,6.96029 0.89487,8.82168c-1.26167,1.19546 -2.34771,1.1789 -3.95479,1.18022z" fill="#edbd60"/><path d="M66.49219,80.33495c1.22446,-0.12542 1.89565,-0.177 3.06021,0.19795c-0.5707,0.37509 -2.48745,0.28527 -3.06021,-0.19795z" fill="#fae7ad"/><path d="M67.62773,81.67092c3.18325,0.15004 3.71265,0.41084 3.61699,3.96469c-0.03735,1.38505 -0.24404,2.34344 -1.05747,3.46945c-0.94658,0.83751 -1.29829,0.8085 -2.56699,0.96044c-0.03853,-2.7981 -0.03604,-5.59648 0.00747,-8.39458z" fill="#ffffff"/><path d="M78.35801,77.50256c3.39712,-0.01099 7.19385,-0.18168 10.50146,0.16967c4.83691,0.51385 7.0686,6.03531 6.45234,10.32293c-0.41147,2.863 -1.63359,4.34462 -3.91011,5.87516c0.61582,1.01597 1.09438,2.33626 1.59507,3.43077c0.93999,2.05495 1.62788,4.26872 2.71187,6.25245c0.15205,0.27839 0.93706,0.57538 1.15562,0.8381c0.19175,0.22842 0.10459,0.56103 0.09375,0.85275c0.56587,0.38403 0.62109,0.53758 0.93076,1.11736c0.01362,0.51121 0.05977,0.31048 -0.24917,0.76484c-1.1354,0.59179 -5.02192,0.47179 -6.26704,0.25333c-0.18677,-0.37861 -0.20273,-0.43736 -0.29883,-0.85128l-0.03706,-0.3496l-0.34468,-0.24161c-0.91011,-2.02681 -1.64736,-4.30256 -2.44336,-6.38051c-0.45806,-1.1956 -1.12104,-3.4674 -1.78872,-4.44176c-0.46333,-0.13538 -0.31304,-0.16 -0.7251,-0.0419c-0.21592,0.81905 -0.17666,8.44381 0.1377,8.99824c0.77856,0.2611 0.80859,0.23487 0.9772,0.99429l-0.40078,-0.13348c0.00088,0.28703 -0.01406,0.78212 0.00894,1.04923c-2.57314,-0.10051 -5.38403,-0.04469 -7.97798,-0.03458l-0.11323,-0.04952c-0.71396,-1.2548 0.39551,-1.61919 1.34927,-2.23048c0.74077,-1.28806 -0.13901,-15.38227 0.22925,-18.00469c0.08687,-0.61875 0.01377,-3.73304 -0.07061,-4.52645c-1.41094,-1.2359 -1.63887,-1.72806 -1.51655,-3.63326z" fill="#722613"/><path d="M78.35801,77.50256c3.39712,-0.01099 7.19385,-0.18168 10.50146,0.16967c4.83691,0.51385 7.0686,6.03531 6.45234,10.32293c-0.41147,2.863 -1.63359,4.34462 -3.91011,5.87516c0.61582,1.01597 1.09438,2.33626 1.59507,3.43077c0.93999,2.05495 1.62788,4.26872 2.71187,6.25245c0.15205,0.27839 0.93706,0.57538 1.15562,0.8381c0.19175,0.22842 0.10459,0.56103 0.09375,0.85275l-0.23437,0.60059c0.09741,-2.07971 -0.85825,-1.00821 -1.71563,-2.53538c-1.53149,-2.72806 -3.12158,-8.13919 -4.77158,-10.56996l-0.0624,-0.12527c0.24302,-0.48718 1.05249,-0.6841 1.60298,-1.17568c1.16792,-1.04308 1.60562,-1.90505 2.15537,-3.3241c0.64365,-4.76366 0.13418,-9.6315 -5.92998,-10.04806c-1.32729,-0.09114 -8.72974,-0.31985 -9.37603,0.20308c-0.29399,1.46168 1.74009,1.38696 1.7562,2.35956c0.11265,6.81509 -0.01011,13.6652 0.05127,20.4904c0.00835,0.93304 0.15146,2.56103 -0.80464,3.09216c-1.22607,0.63839 -0.84067,0.67736 -1.14932,1.73524l-0.11323,-0.04952c-0.71396,-1.2548 0.39551,-1.61919 1.34927,-2.23048c0.74077,-1.28806 -0.13901,-15.38227 0.22925,-18.00469c0.08687,-0.61875 0.01377,-3.73304 -0.07061,-4.52645c-1.41094,-1.2359 -1.63887,-1.72806 -1.51655,-3.63326z" fill="#edbd60"/><path d="M93.93237,88.11458l0.18794,0.0778c-0.07983,1.69304 -1.99365,4.32103 -3.88389,4.54725l-0.0624,-0.12527c0.24302,-0.48718 1.05249,-0.6841 1.60298,-1.17568c1.16792,-1.04308 1.60562,-1.90505 2.15537,-3.3241z" fill="#fdfaec"/><path d="M86.44893,104.93231c-0.58667,-0.72557 -1.55654,-0.63912 -1.66011,-1.20278c-0.33472,-1.82183 -0.38818,-8.34125 -0.22295,-9.96366l0.01538,-0.14168c0.43975,-0.25949 1.08545,-0.16879 1.63081,-0.15648c0.80449,1.29846 4.51948,11.02593 4.82065,12.53568l-0.34072,-0.06593c-0.91011,-2.02681 -1.64736,-4.30256 -2.44336,-6.38051c-0.45806,-1.1956 -1.12104,-3.4674 -1.78872,-4.44176c-0.46333,-0.13538 -0.31304,-0.16 -0.7251,-0.0419c-0.21592,0.81905 -0.17666,8.44381 0.1377,8.99824c0.77856,0.2611 0.80859,0.23487 0.9772,0.99429z" fill="#edbd60"/><path d="M96.72363,105.84498l0.23438,-0.60059c0.56587,0.38403 0.62109,0.53758 0.93076,1.11736c0.01362,0.51121 0.05977,0.31048 -0.24917,0.76484c-1.1354,0.59179 -5.02192,0.47179 -6.26704,0.25333c-0.18677,-0.37861 -0.20273,-0.43736 -0.29883,-0.85128l-0.03706,-0.3496l-0.34468,-0.24161l0.34072,0.06593c1.91631,-0.15429 3.83086,0.02813 5.67056,-0.07648z" fill="#edbd60"/><path d="M91.03271,106.00337c1.91631,-0.15429 3.83086,0.02813 5.67056,-0.07648l0.29312,0.20879c-0.87217,0.63414 -5.12007,-0.06403 -5.92266,0.39297l-0.03706,-0.3496l-0.34468,-0.24161z" fill="#fdfaec"/><path d="M84.67793,80.31692c1.22139,-0.08498 2.06514,-0.20015 3.15557,0.36938c2.69517,1.29216 2.54414,7.81744 0.4396,9.65407c-1.27471,1.11253 -2.1769,1.05216 -3.75337,1.00103c0.01875,-1.56908 -0.17373,-10.21377 0.1582,-11.02447z" fill="#edbd60"/><path d="M84.67793,80.31692c1.22139,-0.08498 2.06514,-0.20015 3.15557,0.36938c-0.36958,0.20806 -2.57476,0.02037 -3.04395,-0.02344z" fill="#fae7ad"/><path d="M85.65791,81.71531c0.64658,-0.00718 2.1501,-0.06652 2.62646,0.30696c1.97256,1.54667 0.98936,6.11634 -0.05757,7.81304c-0.97998,0.95048 -1.21128,0.9726 -2.54253,1.12c-0.10137,-3.00527 -0.03882,-6.21773 -0.02637,-9.24z" fill="#ffffff"/><path d="M149.6792,77.52322c1.35645,-0.01641 6.23291,-0.16718 7.31982,0.06945c0.28125,0.41465 0.14648,1.11985 0.18311,1.15707c0.54785,0.56117 1.17188,1.25128 0.59033,2.10315c-0.30615,0.13963 -1.5835,0.70974 -1.73291,0.9115c-1.76953,2.38799 -3.07617,5.07179 -4.83545,7.48718c0.7207,2.03414 4.81934,14.14227 6.41895,14.88117c0.24023,0.1115 0.52002,0.15663 0.78076,0.20352l0.03516,1.58037l-0.38379,0.08425c-2.26904,-0.17846 -6.04395,-0.07179 -8.39795,-0.04l-0.09229,0.06828c-0.96094,-1.25905 0.74414,-2.03018 0.81006,-2.24337c0.34131,-1.10989 -2.58984,-8.20615 -2.896,-9.14696c-0.45703,0.68322 -0.95508,1.36513 -1.43218,2.0359c-0.01934,1.17685 -0.23394,6.57817 0.14209,7.35326c0.36577,0.10447 0.5064,0.1178 0.73784,0.42799c0.09229,1.2781 1.37256,1.85275 0.68848,2.95487c-0.94775,0.13495 -7.27661,0.14168 -8.23843,0.02711c-0.29312,-0.38418 -0.20391,-0.52996 -0.23013,-1.08454l-0.16641,-0.30564l-0.27349,-0.03429l-0.18779,-0.25846c-0.23643,-1.79209 0.88022,-1.35766 1.58613,-2.31722c0.26528,-0.84029 0.25225,-21.98037 0.0668,-22.29802c-0.38979,-0.66784 -0.78384,-0.19253 -1.18682,-1.52821l-0.4418,-0.14022c-0.24961,-0.61172 -0.0895,-1.26989 -0.06519,-1.96117c2.01167,-0.00747 6.72246,-0.14799 8.52188,0.04703c0.38672,0.47194 0.11865,1.05846 0.21973,1.19326c0.71338,0.96176 1.02686,0.58051 0.71191,1.97788c-0.70898,0.51443 -1.80278,0.2167 -1.84687,1.05861c-0.13257,2.53055 -0.11162,5.83106 -0.02285,8.34725c1.27354,-2.25407 2.7252,-4.76044 4.10654,-6.92982c2.44922,-3.84352 -0.81006,-1.53846 -0.48926,-5.68117z" fill="#722613"/><path d="M149.6792,77.52322c1.35645,-0.01641 6.23291,-0.16718 7.31982,0.06945c0.28125,0.41465 0.14648,1.11985 0.18311,1.15707c0.54785,0.56117 1.17188,1.25128 0.59033,2.10315c-0.30615,0.13963 -1.5835,0.70974 -1.73291,0.9115c-1.76953,2.38799 -3.07617,5.07179 -4.83545,7.48718c0.7207,2.03414 4.81934,14.14227 6.41895,14.88117c0.24023,0.1115 0.52002,0.15663 0.78076,0.20352l0.03516,1.58037l-0.38379,0.08425c0.04688,-2.38476 -1.2876,-1.08396 -2.16064,-3.03766c-2.0874,-4.6737 -3.75439,-9.76073 -5.74072,-14.43253l0.25049,-0.09656c1.74902,-2.01216 3.10254,-5.58608 4.93799,-7.69919c0.31787,-0.36586 0.6167,-0.70974 0.81006,-1.15795c0.33105,-0.03443 0.31201,-0.04029 0.60791,-0.20059c0.21973,-0.43795 0.27832,-0.48381 0.2124,-0.94344c-0.56689,-0.75062 -6.33105,-0.65231 -6.98291,-0.15194c-0.35449,1.13538 1.35645,1.19077 1.67285,2.40249c0.04395,0.16557 0.06445,0.53641 -0.00732,0.67209c-1.88379,3.5663 -4.63916,7.96733 -6.79526,11.26945c0.03325,-3.04894 -0.08511,-8.82945 0.08364,-11.95971c0.02432,-0.44982 1.35322,-1.12557 1.86592,-1.73875c0.11719,-0.49817 0.11572,-0.29538 -0.08789,-0.81231c-1.17861,-0.28747 -6.07031,-0.09158 -7.52446,-0.07839c-0.29517,0.00264 -0.35947,0.20264 -0.46772,0.38462c0.02109,0.48659 0.06782,0.56571 0.27085,1.01289l-0.01523,0.17817l-0.4418,-0.14022c-0.24961,-0.61172 -0.0895,-1.26989 -0.06519,-1.96117c2.01167,-0.00747 6.72246,-0.14799 8.52188,0.04703c0.38672,0.47194 0.11865,1.05846 0.21973,1.19326c0.71338,0.96176 1.02686,0.58051 0.71191,1.97788c-0.70898,0.51443 -1.80278,0.2167 -1.84687,1.05861c-0.13257,2.53055 -0.11162,5.83106 -0.02285,8.34725c1.27354,-2.25407 2.7252,-4.76044 4.10654,-6.92982c2.44922,-3.84352 -0.81006,-1.53846 -0.48926,-5.68117z" fill="#edbd60"/><path d="M146.86963,92.60484c0.60498,0.44161 3.62988,8.87897 4.02246,10.21934c0.60645,2.07429 -1.50293,0.72059 -1.23486,3.1367l-0.09229,0.06828c-0.96094,-1.25905 0.74414,-2.03018 0.81006,-2.24337c0.34131,-1.10989 -2.58984,-8.20615 -2.896,-9.14696c-0.45703,0.68322 -0.95508,1.36513 -1.43218,2.0359c-0.01934,1.17685 -0.23394,6.57817 0.14209,7.35326c0.36577,0.10447 0.5064,0.1178 0.73784,0.42799l-0.0249,0.89934c-0.38965,-1.49685 -2.0562,-0.51795 -2.06294,-3.31912c-0.00498,-2.06637 0.07544,-4.29436 0.08511,-6.36542c0.23774,-0.65114 1.4896,-2.4063 1.94561,-3.06593z" fill="#edbd60"/><path d="M146.86963,92.60484c0.1875,1.19385 -0.93281,2.55604 -1.94561,3.06593c0.23774,-0.65114 1.4896,-2.4063 1.94561,-3.06593z" fill="#fdfaec"/><path d="M139.00034,79.43341c1.36934,0.22623 1.68735,0.64 1.71855,1.98286c0.10195,4.38242 -0.01626,8.77289 0.02827,13.15678c0.00967,2.64747 0.08672,5.91678 -0.06724,8.57729c-0.07632,1.31853 -2.56772,1.14139 -1.70259,2.79634l0.00293,0.1011l-0.27349,-0.03429l-0.18779,-0.25846c-0.23643,-1.79209 0.88022,-1.35766 1.58613,-2.31722c0.26528,-0.84029 0.25225,-21.98037 0.0668,-22.29802c-0.38979,-0.66784 -0.78384,-0.19253 -1.18682,-1.52821z" fill="#edbd60"/><path d="M146.92676,104.45597c0.09229,1.2781 1.37256,1.85275 0.68848,2.95487c-0.94775,0.13495 -7.27661,0.14168 -8.23843,0.02711c-0.29312,-0.38418 -0.20391,-0.52996 -0.23013,-1.08454l-0.16641,-0.30564l-0.00293,-0.1011l7.79561,0.00806l0.12891,-0.59941z" fill="#edbd60"/><path d="M146.77295,105.95473l0.13037,0.23868c-0.61553,0.42974 -6.65566,0.18505 -7.75664,0.16l-0.16641,-0.30564l-0.00293,-0.1011z" fill="#fdfaec"/><path d="M150.15381,88.5307c0.33252,-1.63473 3.82031,-6.5159 4.8999,-8.16806c0.17139,-0.26125 0.79248,-0.62212 1.09863,-0.78564c-0.19336,0.44821 -0.49219,0.79209 -0.81006,1.15795c-1.83545,2.11311 -3.18896,5.68703 -4.93799,7.69919z" fill="#fdfaec"/><path d="M186.31201,77.51092c5.04346,-0.05099 10.49707,0.2107 15.49219,-0.13656c-0.00146,1.09407 -0.06006,1.26813 0.52588,2.15106c0.10693,0.16264 0.18896,1.39326 0.1626,1.59971c-0.10693,0.86007 0.35156,5.35546 0.02344,5.77978c-2.52246,0.52161 -2.18701,-3.24425 -3.65918,-4.45685c-1.24365,-1.02432 -3.62402,-0.74491 -5.17676,-0.72601c0.00586,2.12029 -0.03076,5.88 0.08203,8.09905c0.01172,0.22886 0.36035,0.29304 0.53906,0.34667c2.29688,-0.3433 2.11377,-2.28469 2.54883,-4.0167c0.36768,-0.26315 0.84961,-0.17421 1.33594,-0.15956c0.13037,0.08689 0.23145,0.10344 0.26807,0.25934c0.06738,0.28454 0.14795,0.44894 0.31348,0.68864c0.86279,1.25231 0.44971,9.28908 0.43799,11.25084c-0.64746,0.03194 -0.89795,0.14989 -1.41943,-0.10505c-0.22559,-0.75209 -0.12305,-0.79546 -0.63721,-1.22711l-0.2915,0.01231c-1.11035,-2.11516 0.44824,-2.60718 -3.16113,-2.79399c-0.01758,3.11443 -0.00439,6.22916 0.04248,9.34344c2.27637,-0.05363 3.43359,0.08044 5.22363,-1.55121c1.57324,-1.43341 1.26709,-4.39795 2.86084,-4.4696c0.20508,-0.00923 0.69873,0.07018 0.9126,0.10579c-0.01025,1.53304 0.6123,0.41245 0.57275,1.99238c-0.06738,2.7389 -0.4585,5.30608 -0.5332,8.06491c-1.52637,-0.0444 -15.39697,-0.0548 -15.63574,-0.1619c-0.12305,-0.42886 -0.13184,-0.54051 -0.15381,-0.98769l-0.06445,-0.30945c-0.31348,-0.03062 -0.375,-0.10916 -0.62549,-0.29568c-0.49365,-1.03092 0.77051,-1.69348 1.52197,-2.28835c0.17139,-0.55179 0.05566,-22.25392 -0.02344,-22.48791c-0.29736,-0.0948 -0.51416,-0.15062 -0.81738,-0.22081c-0.5625,-0.86637 -0.77344,-2.26989 -0.66504,-3.29949z" fill="#722613"/><path d="M186.31201,77.51092c5.04346,-0.05099 10.49707,0.2107 15.49219,-0.13656c-0.00146,1.09407 -0.06006,1.26813 0.52588,2.15106c0.10693,0.16264 0.18896,1.39326 0.1626,1.59971c-0.10693,0.86007 0.35156,5.35546 0.02344,5.77978c-2.52246,0.52161 -2.18701,-3.24425 -3.65918,-4.45685c-1.24365,-1.02432 -3.62402,-0.74491 -5.17676,-0.72601c0.00586,2.12029 -0.03076,5.88 0.08203,8.09905c0.01172,0.22886 0.36035,0.29304 0.53906,0.34667c2.29688,-0.3433 2.11377,-2.28469 2.54883,-4.0167c0.36768,-0.26315 0.84961,-0.17421 1.33594,-0.15956c0.13037,0.08689 0.23145,0.10344 0.26807,0.25934c0.06738,0.28454 0.14795,0.44894 0.31348,0.68864c0.86279,1.25231 0.44971,9.28908 0.43799,11.25084c-0.64746,0.03194 -0.89795,0.14989 -1.41943,-0.10505c-0.22559,-0.75209 -0.12305,-0.79546 -0.63721,-1.22711l-0.2915,0.01231c-1.11035,-2.11516 0.44824,-2.60718 -3.16113,-2.79399c-0.01758,3.11443 -0.00439,6.22916 0.04248,9.34344c2.27637,-0.05363 3.43359,0.08044 5.22363,-1.55121c1.57324,-1.43341 1.26709,-4.39795 2.86084,-4.4696c0.20508,-0.00923 0.69873,0.07018 0.9126,0.10579l-0.3501,0.39795c-0.16699,-0.07399 -0.43359,-0.11297 -0.62256,-0.1515c-0.97852,0.34476 -1.40918,3.47121 -2.71289,4.65319c-1.89258,1.71663 -4.03857,1.35341 -6.4585,1.28293c-0.06299,-3.62974 -0.01025,-7.41553 -0.01318,-11.05802c0.81738,-0.02125 1.75049,0.07209 2.5752,0.13333c2.13867,1.6926 1.24219,2.82828 2.10498,3.94842l0.64746,-0.18857c0.37354,-0.58403 0.08643,-8.71297 0.2417,-10.24117c-2.75391,0.47722 0.69141,4.33084 -5.56934,4.31766c0.04834,-3.16352 -0.14355,-6.89773 0.05273,-10.01011c0.71631,0.26681 4.13086,0.20103 4.88379,0.02374c1.95264,0.83678 2.25879,3.05436 3.54346,4.78696c0.10254,-0.0233 0.20508,-0.04645 0.30908,-0.06974c0.31201,-1.07341 0.04688,-5.92821 0.04834,-7.4233c-3.2959,0.19458 -6.67822,0.05773 -9.98145,0.09333c-1.45459,0.01568 -3.28125,-0.10022 -4.68311,0.08498c-0.28125,0.45363 -0.23584,0.24571 -0.19775,0.7644c0.46582,0.70886 1.79297,1.27399 1.79443,1.93802c0.00879,7.41832 0.10986,15.02711 -0.06152,22.42447c-0.02197,0.9556 -1.96289,1.19941 -1.78418,2.41656c0.31787,0.32132 0.14209,0.24396 0.5083,0.34945l-0.08936,0.12527c-0.31348,-0.03062 -0.375,-0.10916 -0.62549,-0.29568c-0.49365,-1.03092 0.77051,-1.69348 1.52197,-2.28835c0.17139,-0.55179 0.05566,-22.25392 -0.02344,-22.48791c-0.29736,-0.0948 -0.51416,-0.15062 -0.81738,-0.22081c-0.5625,-0.86637 -0.77344,-2.26989 -0.66504,-3.29949z" fill="#edbd60"/><path d="M202.73584,97.50491c-0.01025,1.53304 0.6123,0.41245 0.57275,1.99238c-0.06738,2.7389 -0.4585,5.30608 -0.5332,8.06491c-1.52637,-0.0444 -15.39697,-0.0548 -15.63574,-0.1619c-0.12305,-0.42886 -0.13184,-0.54051 -0.15381,-0.98769l-0.06445,-0.30945l0.08936,-0.12527c3.03369,-0.05143 6.06885,-0.0696 9.10254,-0.05465c1.20264,0.00029 3.94922,-0.05656 5.04199,0.09714l0.31494,-0.12659c0.20801,-0.38637 0.79834,-7.00703 0.91553,-7.99092z" fill="#edbd60"/><path d="M187.01074,105.97788c3.03369,-0.05143 6.06885,-0.0696 9.10254,-0.05465c1.20264,0.00029 3.94922,-0.05656 5.04199,0.09714l0.24023,0.15385c-0.76758,0.3707 -12.81006,0.36498 -14.40967,0.23839l-0.06445,-0.30945z" fill="#fdfaec"/><path d="M192.63135,80.58901c0.62109,-0.70212 3.95508,-0.35443 4.88379,0.02374c-0.75293,0.17729 -4.16748,0.24308 -4.88379,-0.02374z" fill="#fae7ad"/><path d="M158.55322,77.48923l10.39453,0.02462c1.23193,0.00161 3.70313,-0.09612 4.77832,0.03004c1.01953,1.56293 1.44287,7.4126 1.21143,9.18462c-0.24902,0.34549 -1.0459,0.58681 -1.37695,0.26183c-0.41748,-0.40733 -0.67822,-1.09421 -0.91846,-1.62418c-1.43994,-4.11253 -2.52686,-3.68234 -6.66357,-3.67355c-0.00439,1.2107 -0.09668,7.74681 0.09668,8.42535c1.01953,0.36777 2.23389,-0.39897 2.5166,-1.41729c0.22559,-0.81055 0.34131,-2.0463 0.87744,-2.69744c1.19971,-0.35443 2.26758,1.67267 2.12256,2.61582c-0.21387,1.38403 0.24609,8.62212 -0.16846,9.37714c-0.48193,0.21553 -0.58594,0.17729 -1.13525,0.15897c-0.73389,-0.68293 0.32666,-0.62022 -1.14844,-1.40513c-0.76172,-2.46945 -0.49072,-2.53949 -3.15967,-2.67458c-0.00293,1.58989 -0.11426,8.72059 0.14502,9.83912c0.54932,0.46374 0.51123,0.19795 1.04004,0.39751c-0.03516,0.3452 -0.07324,1.06447 -0.20508,1.3474l-0.25342,0.28674c-2.46533,0.00044 -5.57227,-0.08982 -7.9834,0.05436l-0.28418,-0.08396l-0.03516,-1.58037c0.4585,-0.14359 1.39893,-0.28527 1.56738,-0.71927c0.44824,-1.14989 0.26074,-3.80234 0.25635,-4.99971l-0.03076,-8.53128c0.00146,-1.34198 0.13623,-8.14945 -0.02637,-9.09304c-1.4502,-0.32264 -0.41748,-0.64952 -1.41064,-1.47165c-0.43213,-0.47722 -0.25928,-1.39048 -0.20654,-2.03209z" fill="#722613"/><path d="M158.55322,77.48923l10.39453,0.02462c1.23193,0.00161 3.70313,-0.09612 4.77832,0.03004c1.01953,1.56293 1.44287,7.4126 1.21143,9.18462c-0.24902,0.34549 -1.0459,0.58681 -1.37695,0.26183c-0.41748,-0.40733 -0.67822,-1.09421 -0.91846,-1.62418c-1.43994,-4.11253 -2.52686,-3.68234 -6.66357,-3.67355c-0.00439,1.2107 -0.09668,7.74681 0.09668,8.42535c1.01953,0.36777 2.23389,-0.39897 2.5166,-1.41729c0.22559,-0.81055 0.34131,-2.0463 0.87744,-2.69744c1.19971,-0.35443 2.26758,1.67267 2.12256,2.61582c-0.21387,1.38403 0.24609,8.62212 -0.16846,9.37714c-0.48193,0.21553 -0.58594,0.17729 -1.13525,0.15897c-0.73389,-0.68293 0.32666,-0.62022 -1.14844,-1.40513c-0.76172,-2.46945 -0.49072,-2.53949 -3.15967,-2.67458c-0.00293,1.58989 -0.11426,8.72059 0.14502,9.83912c0.54932,0.46374 0.51123,0.19795 1.04004,0.39751c-0.03516,0.3452 -0.07324,1.06447 -0.20508,1.3474l-0.01172,-0.1241c-0.11719,-1.11077 -0.83203,-0.89773 -1.53223,-1.55912c-0.93457,-0.88234 -0.48486,-9.53773 -0.48486,-11.28117c6.16992,-0.0381 2.68652,3.14344 4.98633,4.10227l0.27979,-0.16278c0.47021,-1.0044 0.27832,-8.52615 0.22705,-10.01978l-0.22412,-0.16733c-2.05664,0.44015 0.646,4.13143 -5.27783,4.24103c0.01025,-3.44234 0.00293,-6.88484 -0.02344,-10.32703c1.27148,-0.17055 3.5376,-0.2441 4.73145,0.15282c2.89014,0.95106 2.51221,4.90857 3.96533,4.92659c0.52148,-0.6441 0.14209,-2.04938 0.1377,-2.87897c-0.01025,-1.5704 -0.04687,-3.15121 -0.10547,-4.72073c-3.86719,0.57919 -10.63623,-0.23121 -14.56201,0.17978c-0.31787,0.46081 -0.24316,0.74462 -0.30615,1.36645c1.01367,0.10711 1.5293,0.37158 1.9585,1.33641l-0.54785,0.26916c-1.4502,-0.32264 -0.41748,-0.64952 -1.41064,-1.47165c-0.43213,-0.47722 -0.25928,-1.39048 -0.20654,-2.03209z" fill="#edbd60"/><path d="M164.89893,80.36147c1.27148,-0.17055 3.5376,-0.2441 4.73145,0.15282c-0.69287,0.43077 -3.99463,0.36337 -4.73145,-0.15282z" fill="#fae7ad"/><path d="M160.17041,80.99297l0.54785,-0.26916l-0.01758,14.89568c0,2.47648 0.0498,4.98813 -0.07178,7.45758c-0.08057,1.64293 -1.83838,0.66652 -1.8999,2.50007c-0.00439,0.1411 -0.00586,0.28234 -0.00586,0.42344l-0.28418,-0.08396l-0.03516,-1.58037c0.4585,-0.14359 1.39893,-0.28527 1.56738,-0.71927c0.44824,-1.14989 0.26074,-3.80234 0.25635,-4.99971l-0.03076,-8.53128c0.00146,-1.34198 0.13623,-8.14945 -0.02637,-9.09304z" fill="#fcc957"/><path d="M203.83008,77.51604c1.19971,-0.00806 7.97314,-0.21289 8.4917,0.22051c0.01025,0.16982 0.07764,1.0778 0.13916,1.14037c0.55811,0.56264 0.9624,0.64059 0.66504,1.64557c-1.12354,1.05934 -1.88525,0.1181 -1.88672,2.71516c-0.00439,6.68864 0.00293,13.40293 0.03076,20.08967c2.06396,-0.02945 2.17676,0.06242 3.89209,-1.20586c1.83105,-1.35443 1.53223,-6.31326 3.8877,-5.35429c0.10986,0.38857 0.08936,0.46242 0.07031,0.87399c0.57275,0.57963 0.83789,0.67619 0.78516,1.74813c-0.05713,1.16249 -0.25635,2.45407 -0.38965,3.61758c-0.16113,1.51092 -0.29297,3.02491 -0.39404,4.54095c-3.03369,-0.04835 -5.96631,-0.12073 -9.00439,-0.0781c-0.99902,0.01407 -4.68311,0.09143 -5.43896,-0.05451c-0.26807,-0.32425 -0.2417,-0.59531 -0.28418,-1.03106l-0.43506,-0.30813c-0.06152,-0.22989 -0.21387,-1.28659 -0.04102,-1.39209c2.43164,-1.48044 1.71094,-2.75077 1.69482,-5.73758l-0.00439,-8.00059c0,-1.86154 0.06592,-7.5496 -0.12158,-9.67429c-0.04834,-0.55751 -0.85693,-0.04791 -1.13672,-1.73407l-0.1582,0.00659l-0.33545,-0.10286c-0.17871,-0.56366 -0.07031,-1.31824 -0.02637,-1.92513z" fill="#722613"/><path d="M203.83008,77.51604c1.19971,-0.00806 7.97314,-0.21289 8.4917,0.22051c0.01025,0.16982 0.07764,1.0778 0.13916,1.14037c0.55811,0.56264 0.9624,0.64059 0.66504,1.64557c-1.12354,1.05934 -1.88525,0.1181 -1.88672,2.71516c-0.00439,6.68864 0.00293,13.40293 0.03076,20.08967c2.06396,-0.02945 2.17676,0.06242 3.89209,-1.20586c1.83105,-1.35443 1.53223,-6.31326 3.8877,-5.35429c0.10986,0.38857 0.08936,0.46242 0.07031,0.87399c0.57275,0.57963 0.83789,0.67619 0.78516,1.74813c-0.05713,1.16249 -0.25635,2.45407 -0.38965,3.61758c-0.16113,1.51092 -0.29297,3.02491 -0.39404,4.54095c-3.03369,-0.04835 -5.96631,-0.12073 -9.00439,-0.0781c-0.99902,0.01407 -4.68311,0.09143 -5.43896,-0.05451c-0.26807,-0.32425 -0.2417,-0.59531 -0.28418,-1.03106c4.06494,-0.08601 8.30273,0.23311 12.38965,0.07531c0.51563,-0.01993 0.87891,-0.02403 1.1499,-0.47619c0.22266,-1.02418 0.21973,-2.61582 0.3501,-3.71985c0.14648,-1.22681 0.78809,-4.21568 0.25049,-5.25392l-0.28857,-0.08542c-0.65625,0.35194 -0.646,0.95648 -0.84668,1.62359c-1.37988,4.57802 -2.88281,5.17582 -7.32275,5.15106c0.23584,-7.61875 -0.11279,-15.4989 0.18896,-23.12498c0.02344,-0.58989 1.0957,-0.9496 1.56885,-1.21465c0.30762,-0.41216 0.28711,-0.53026 0.30029,-1.05333c-0.41162,-0.52454 -2.30273,-0.34344 -2.9458,-0.27766c-1.35937,0.13934 -3.78809,-0.47062 -4.93506,0.18901c-0.26807,0.54374 -0.14062,0.63692 -0.06152,1.32689l-0.33545,-0.10286c-0.17871,-0.56366 -0.07031,-1.31824 -0.02637,-1.92513z" fill="#edbd60"/><path d="M204.3501,79.53744c1.09717,0.04952 1.61719,0.60571 1.64502,1.68484c0.17871,6.92249 0.05566,13.86857 0.0791,20.79473c0.00293,0.66813 -0.36475,1.79663 -0.8833,2.18652c-0.96533,0.72586 -1.1001,0.47048 -1.00781,1.77114l-0.22412,0.10139c-0.06152,-0.22989 -0.21387,-1.28659 -0.04102,-1.39209c2.43164,-1.48044 1.71094,-2.75077 1.69482,-5.73758l-0.00439,-8.00059c0,-1.86154 0.06592,-7.5496 -0.12158,-9.67429c-0.04834,-0.55751 -0.85693,-0.04791 -1.13672,-1.73407z" fill="#edbd60"/><path d="M204.18311,105.97465c3.97266,-0.10769 9.81885,-0.17538 13.75049,0.00864c-0.271,0.45216 -0.63428,0.45626 -1.1499,0.47619c-4.08691,0.1578 -8.32471,-0.16132 -12.38965,-0.07531l-0.43506,-0.30813z" fill="#fdfaec"/><path d="M175.54102,77.50139c2.82715,0.00264 5.93262,-0.05963 8.73633,0.02344c0.03809,0.49875 0.04248,1.39531 0.29443,1.77509l0.41602,0.14476c0.64014,1.70242 -1.73877,1.67883 -1.75781,2.22813c-0.25342,7.32381 -0.08936,14.72249 -0.0791,22.04747c0.00146,0.35678 0.56836,0.51429 0.82764,0.59414c0.40137,0.66945 0.80859,2.1219 0.85107,2.90227l-0.13037,0.1874c-1.17773,0.12601 -7.64355,0.30725 -8.35693,-0.08029c-0.19922,-0.40864 -0.17578,-0.50447 -0.19629,-0.97377l-0.01465,-0.16147l-0.49805,-0.11429c-0.09961,-0.58081 -0.20654,-0.92278 -0.05566,-1.49172c0.5127,-0.72601 1.93799,-0.2696 1.78564,-1.8967c-0.20947,-2.20777 0.44971,-20.74769 -0.1333,-21.74564c-0.42187,-0.08117 -0.56982,-0.08088 -0.93018,-0.29861c-0.04834,-0.43311 -0.03955,-0.52938 -0.2124,-0.91985c-0.90234,-0.4589 -0.60205,-1.27399 -0.54639,-2.22037z" fill="#722613"/><path d="M175.54102,77.50139c2.82715,0.00264 5.93262,-0.05963 8.73633,0.02344c0.03809,0.49875 0.04248,1.39531 0.29443,1.77509l0.41602,0.14476c0.64014,1.70242 -1.73877,1.67883 -1.75781,2.22813c-0.25342,7.32381 -0.08936,14.72249 -0.0791,22.04747c0.00146,0.35678 0.56836,0.51429 0.82764,0.59414c0.40137,0.66945 0.80859,2.1219 0.85107,2.90227l-0.13037,0.1874c-1.17773,0.12601 -7.64355,0.30725 -8.35693,-0.08029c-0.19922,-0.40864 -0.17578,-0.50447 -0.19629,-0.97377l-0.01465,-0.16147l-0.49805,-0.11429l0.26221,-0.12454c2.32031,-0.00967 5.87109,-0.12249 8.06982,0.04659c-0.17578,-2.19297 -0.59473,-0.84791 -1.74023,-2.49714c-0.11719,-0.16864 -0.24609,-0.85553 -0.23437,-1.06857c0.15234,-2.90989 -0.26221,-20.56864 0.2124,-21.9811c0.4248,-0.83985 0.77783,-0.82139 1.64063,-0.98886c0.22852,-0.33773 0.21533,-1.04967 -0.01172,-1.39751c-0.82764,-0.17641 -6.50391,-0.03473 -7.98486,-0.09612c-0.00732,0.55106 -0.0542,0.88908 0.1377,1.40733l0.31787,0.11853l-0.21533,0.22886c-0.90234,-0.4589 -0.60205,-1.27399 -0.54639,-2.22037z" fill="#edbd60"/><path d="M183.96533,105.99634l0.10107,0.20557c-0.4292,0.40733 -7.01807,0.31443 -7.92041,0.14813l-0.01465,-0.16147l-0.49805,-0.11429l0.26221,-0.12454c2.32031,-0.00967 5.87109,-0.12249 8.06982,0.04659z" fill="#fdfaec"/><path d="M182.20313,80.44952c0.4248,-0.83985 0.77783,-0.82139 1.64063,-0.98886l0.08936,0.30168c-0.36035,0.3159 -1.06934,0.47736 -1.65527,0.94549z" fill="#fae7ad"/><path d="M176.30273,79.49289c0.8877,0.16791 1.50293,0.60161 1.50439,1.58535c0.01465,7.33114 0.1377,14.69436 -0.03516,22.0189c-0.03076,1.24718 -1.396,1.07619 -1.85742,1.85392c-0.01318,0.33758 -0.03076,0.66051 -0.01904,0.99868l-0.26221,0.12454c-0.09961,-0.58081 -0.20654,-0.92278 -0.05566,-1.49172c0.5127,-0.72601 1.93799,-0.2696 1.78564,-1.8967c-0.20947,-2.20777 0.44971,-20.74769 -0.1333,-21.74564c-0.42187,-0.08117 -0.56982,-0.08088 -0.93018,-0.29861c-0.04834,-0.43311 -0.03955,-0.52938 -0.2124,-0.91985z" fill="#edbd60"/><path d="M167.16504,104.31209c0.15234,1.66857 0.80566,1.16073 0.69287,3.16674c-2.87109,0.00454 -5.84912,0.05231 -8.70996,0.01245l-0.13477,-0.05363c-1.45605,0.08366 -7.57031,0.1367 -8.77734,-0.00513c-0.33545,-0.37451 -0.25488,-0.50359 -0.32959,-1.07282l-0.34131,-0.33055l0.09229,-0.06828c2.354,-0.03179 6.12891,-0.13846 8.39795,0.04l0.38379,-0.08425l0.28418,0.08396c2.41113,-0.14418 5.51807,-0.05392 7.9834,-0.05436l0.25342,-0.28674c0.13184,-0.28293 0.16992,-1.0022 0.20508,-1.3474z" fill="#edbd60"/><path d="M167.16504,104.31209c0.15234,1.66857 0.80566,1.16073 0.69287,3.16674c-2.87109,0.00454 -5.84912,0.05231 -8.70996,0.01245c0.00293,-0.22359 -0.02197,-0.54051 0.03223,-0.75414c0.23438,-0.92762 6.5874,0.19326 7.60986,-0.52806l-0.0835,-0.26286l0.25342,-0.28674c0.13184,-0.28293 0.16992,-1.0022 0.20508,-1.3474z" fill="#edbd60"/><path d="M158.05518,106.00088l0.38379,-0.08425l0.28418,0.08396c2.41113,-0.14418 5.51807,-0.05392 7.9834,-0.05436l0.0835,0.26286c-1.02246,0.72132 -7.37549,-0.39956 -7.60986,0.52806c-0.0542,0.21363 -0.0293,0.53055 -0.03223,0.75414l-0.13477,-0.05363c-0.04395,-0.47238 -0.02197,-0.58535 -0.25781,-0.97729c-0.74121,-0.25993 -7.37109,-0.02242 -8.84912,-0.10066l-0.34131,-0.33055l0.09229,-0.06828c2.354,-0.03179 6.12891,-0.13846 8.39795,0.04z" fill="#fdfaec"/><path d="M86.44893,104.93231l0.40078,0.13348c0.41396,0.68059 0.84653,1.26403 0.70386,2.07604c-0.77944,0.69436 -6.71543,0.18095 -8.13486,0.3285c-0.01523,0.00161 -0.24961,-0.02491 -0.26821,-0.02681c-0.23643,-0.36689 -0.14824,-0.33802 -0.12803,-0.87634c0.61362,-0.63018 6.57612,0.2107 7.49897,-0.35033l-0.06357,-0.23531c-0.023,-0.26711 -0.00806,-0.7622 -0.00894,-1.04923z" fill="#edbd60"/></g></svg></svg>