<svg xmlns="http://www.w3.org/2000/svg" width="300" height="200"><svg xmlns="http://www.w3.org/2000/svg"><defs><clipPath id="a"><path fill="none" d="M0 0h299.991v200H0z"/></clipPath></defs><g fill="none" stroke-miterlimit="10" clip-path="url(#a)" font-family="none" font-size="none" font-weight="none" style="mix-blend-mode:normal" text-anchor="none"><path fill="#fff" d="M0 0h300v200H0z"/><path fill="#184379" d="M190.99 76.045c2.806-1.488 1.36-2.107 5.708-2.027.59 1.304 2.222 5.49 2.44 6.76l4.253 11.778c.79 2.181 1.56 4.362 2.41 6.52.565 1.434 2.346 1.41 2.418 2.712l-.037.076a3.5 3.5 0 0 0-.268.753c-.492.398-.989.299-1.715.35-3.104.104-6.919-.004-10.093.016-.111-.625-.03-.93-.403-1.295l-.458.018c.2-.601.301-.64.81-1.009l.12-.085c.142-.489-.857-3.272-1.064-3.905-2.116.052-4.343.015-6.468.013-.365 1.294-.851 2.397-.263 3.61.876.127 1.347.24 2.203.478l-.019 2.424-1.683 1.541c-1.28.009-8.198.38-8.831-.301-.287-.31-.344-.808-.424-1.208-.358.516-.974 1.065-1.44 1.514-3.974.014-7.946.03-11.92.023-1.886-.004-1.525-1.104-1.46-2.613.89-.485 1.181-.902 1.965-1.451.171-.121.527-.038 1.006-.288.128-.686.04-5.465.036-6.588-.015-4.667.065-9.385-.037-14.049-.007-.328-.078-.279-.404-.57-1.484-.118-2.249 3.275-2.508 4.408l-1.604 1.626c-.752.021-1.66.11-2.332-.195-.668-.662-.633-8.557-.084-9.202 1.543-.38.681-.515 1.683-1.414 2.009-.148 20.573-.25 21.65.082.219 2.171.099 6.686.1 8.987-.558.714-.991 1.101-1.65 1.714-1.84.085-2.926.175-3.305-2.065-.315-1.848-.76-2.85-2.53-3.66q.035 6.548-.003 13.094c-.004 1.9-.114 5.497.142 7.258 1.272 1.011 2.895.305 2.798 1.902l.062.978c.216-.987 2.044-1.453 2.888-3.81z"/><path fill="#184379" d="M181.854 101.644c.148-.877 2.123-1.487 2.61-2.846 2.201-6.14 4.46-12.274 6.711-18.396.342-.928 1.814-5.155 2.186-5.697.852-.624 2.139-.45 3.227-.441.598 1.517 1.901 5.275 2.55 6.515l4.253 11.777c.79 2.181 1.56 4.362 2.41 6.52.565 1.434 2.346 1.41 2.418 2.712l-.037.076a3.5 3.5 0 0 0-.268.753c-.492.398-.989.299-1.715.35-3.104.104-6.919-.004-10.093.016-.111-.625-.03-.93-.403-1.295l-.458.018c.2-.6.301-.64.81-1.009l.12-.085c.142-.489-.857-3.272-1.064-3.905-2.116.052-4.343.015-6.468.013-.365 1.294-.851 2.397-.263 3.61.586.378 1.352.497 2.044.652.02.676.138 1.334-.224 1.853l-.457.128c-2.285.01-5.395.106-7.606-.047-.283-.303-.25-.83-.283-1.272"/><path fill="#e1ae41" d="m189.078 94.926 7.923-.031q.65 2.168 1.405 4.304c.177.536.174.316.033.835-.539.618-1.567.795-2.356.992.02.616.061 1.353.023 1.957-.111-.625-.03-.93-.403-1.295l-.458.018c.2-.601.301-.64.81-1.009l.12-.085c.142-.489-.857-3.272-1.064-3.905-2.116.052-4.343.015-6.468.013-.365 1.294-.851 2.397-.263 3.61-1.223-.85.22-4.239.698-5.404"/><path fill="#fff" d="m189.078 94.926 7.923-.031q.65 2.168 1.405 4.304c-.012.44-.076.653-.446.844-.524-.347-1.456-3.424-1.78-4.306-.899.085-6.465.218-7.03-.134z"/><path fill="#e1ae41" d="M189.989 92.098c.95-2.841 1.976-5.892 3.02-8.692.284.286.24.513.323.976.793 2.393 1.658 4.682 2.468 7.047l.174.515-.13.152c-1.839.082-3.995.015-5.855.002"/><path fill="#fff" d="M192.592 85.566c.121-.503.158-.87.479-1.27l.26.086c.794 2.393 1.659 4.682 2.469 7.047-.091.267-.046.167-.257.384l-.385-.017c-.684-.634-1.894-4.836-2.566-6.23M191.823 87.444c.252.283 1.257 3.575 1.453 4.18-.426.309-.55.2-1.162.197l-1.733-.007q.734-2.18 1.442-4.37"/><path fill="#e1ae41" d="M190.99 76.045c2.806-1.488 1.36-2.107 5.708-2.027.59 1.304 2.222 5.49 2.44 6.76-.649-1.24-1.952-4.997-2.55-6.514-1.088-.01-2.375-.183-3.227.441-.372.542-1.844 4.769-2.186 5.697-2.251 6.122-4.51 12.256-6.71 18.396-.488 1.36-2.463 1.969-2.61 2.846.032.442 0 .969.282 1.272 2.21.153 5.32.057 7.606.046l.457-.127c.362-.52.244-1.177.224-1.853-.692-.155-1.458-.274-2.044-.652.876.127 1.347.24 2.203.478l-.019 2.424-1.683 1.541c-1.28.009-8.198.38-8.831-.302-.287-.309-.344-.807-.424-1.207-.358.516-.974 1.065-1.44 1.514-3.974.014-7.946.03-11.92.023-1.886-.004-1.525-1.104-1.46-2.613.89-.485 1.181-.902 1.965-1.451.171-.121.527-.038 1.006-.288.128-.686.04-5.465.036-6.588-.015-4.667.065-9.385-.037-14.049-.007-.328-.078-.279-.404-.57-1.484-.118-2.249 3.275-2.508 4.408l-1.604 1.626c-.752.021-1.66.11-2.332-.195-.668-.662-.633-8.557-.084-9.202 1.543-.38.681-.515 1.683-1.414 2.009-.148 20.573-.25 21.65.082-.405.058-1.288.061-1.737.075l-19.822-.013c.002 1.584-.09 4.751.016 6.227-.011.728.01 2.008-.057 2.69l1.814-.001c.958-.875.763-4.834 3.118-5.596 1.037-.232 1.415-.264 2.482-.297.313 2.19.023 5.463.042 8.348.024 3.719.134 9.914-.177 13.773-.076.938-2.76.67-3.043 1.725.012.523-.054 1.04.24 1.431 2.927.232 8.826.05 12.11.073.557-.169.491-.701.566-1.205l.062.978c.216-.987 2.044-1.453 2.888-3.81z"/><path fill="#fff" d="M167.51 77.929c1.036-.232 1.414-.264 2.48-.297l-.015.134c-.431 3.57.504 20.708-.548 22.266l-.238.074c-.188-.321-.04-4.85-.04-5.656l-.003-16.128c-.541.127-1.864.562-2.253.42.16-.403.303-.498.616-.813M179.164 102.982c-.157.402-.305.64-.671.814-1.68.147-11.322.39-12.25-.188-.358-.668-.371-1.068-.177-1.797.368-.368.182-.265.747-.333.012.523-.054 1.04.24 1.431 2.927.232 8.826.05 12.11.073M189.743 102.962c-.142.598-.02.465-.408.828-2.29.208-5.578.154-7.904-.066-.517-.05-.581-2.049.144-2.376l.28.296c.032.442 0 .969.282 1.272 2.21.153 5.32.057 7.606.046M164.39 83.525c-.575.663-1.23 1.057-2.094.74a1.73 1.73 0 0 1-.517-.948c-.239-1.062-.142-7.197.206-7.77l.192.02c.645 1.025-.022 6.778.4 7.96zM192.111 75.657l.222.112.076.266c-.356 1.424-1.18 3.372-1.71 4.795l-2.924 7.942c-.706 1.897-3.328 9.795-4.275 11.07l-.084.016-.094-.122z"/><path fill="#e1ae41" d="M184.178 74.547c.218 2.171.098 6.686.1 8.987-.559.714-.992 1.101-1.652 1.714-1.84.085-2.925.175-3.304-2.065-.315-1.848-.76-2.85-2.53-3.66q.035 6.548-.003 13.094c-.004 1.9-.114 5.497.142 7.258-.822-1.588-.168-18.682-.354-22.081l.192-.164c3.798.068 4.401 2.592 5.15 5.86l1.818.019.252-.122c.222-.358.136-.794.115-1.243 0-2.253-.083-5.426.074-7.597"/><path fill="#fff" d="M176.769 77.63c3.798.068 4.401 2.592 5.15 5.86l1.818.019c-.59 1.207-1.285.866-2.504.696-1.444-3.148-.085-4.728-4.25-5.744-.273-.331-.182-.296-.214-.83"/><path fill="#203f67" d="m162.618 74.61 19.822.012c.449-.014 1.332-.017 1.738-.075-.157 2.171-.074 5.344-.074 7.597-.145-.71-.333-.773-.572-1.381-.346-.874-.306-2.136-.303-3.089-.104-.88-.118-1.338-.104-2.228-3.93-.338-8.605-.222-12.547-.133-2.243.05-5.635-.177-7.775.209.003.783.139 4.952-.169 5.314-.107-1.476-.014-4.643-.016-6.227"/><path fill="#184379" d="M89.147 100.418c2.457-7.505 5.314-14.908 7.973-22.347.799-2.233 1.555-3.064 3.865-3.959.502-.194 2.081-.29 2.488.024 3.44 8.227 5.98 17.432 9.618 25.62.234.528 1.251 1 1.78 1.246l.054.137c.068.176.113.313.17.49.709.17.868-.115 1.385-.665.409-.168.695-.248 1.018-.554q-.085-6.861-.084-13.722c-.007-2.279.045-4.91-.094-7.157-.482-.887-1.6-1.206-2.537-1.595-.052-.738.01-1.5.053-2.241q.12-.055.241-.108c.41-.172.604-.314.927-.183-.008.293-.048.713-.038.986.065 1.776 2.684.66 2.7 2.65.05 6.342.013 12.686-.005 19.029-.003.844-.257 1.613-.263 2.246l.483.043c-.564.276-1.864.647-2.113.828l.034 1.236-.015.512c3.197-.234 9.16-.036 12.57-.029l.025-2.028c-.573-.058-1.127-.198-1.69-.323l.161-.116c.567.088 1.121.16 1.677.301l-.048 2.51-1.588 1.545-11.854.092c-1.634.002-1.083-1.896-2.558-.098l-7.8.03c-.765.002-3.196.124-3.809-.046-2.904-.805.202-3.403 1.082-4.044l.2-.144c-.412-1.26-.826-2.617-1.262-3.86l-6.262.019c-.866 2.687-1.323 3.318 1.795 4.084.261.434.178 1.734.179 2.32a108 108 0 0 1-1.675 1.657c-3.397-.02-14.168 1.436-6.783-4.386"/><path fill="#e1ae41" d="M114.836 75.695q.12-.055.241-.108c.41-.172.605-.314.928-.183-.009.293-.05.713-.039.986.065 1.776 2.684.66 2.7 2.65.05 6.342.013 12.686-.005 19.029-.003.844-.257 1.613-.263 2.246l.483.043c-.564.276-1.864.647-2.113.828l.034 1.236-.015.512c3.197-.234 9.16-.036 12.57-.029l.025-2.028c-.573-.058-1.127-.198-1.69-.323l.161-.116c.567.088 1.121.16 1.677.301l-.048 2.51-1.588 1.545-11.854.092c-1.634.002-1.083-1.896-2.558-.098l-7.8.03c-.765.002-3.196.124-3.809-.046-2.904-.805.202-3.403 1.082-4.044l.2-.144c-.412-1.26-.826-2.617-1.262-3.86l-6.262.019c-.866 2.687-1.323 3.318 1.795 4.084-4.258.011-2.239-3.49-1.393-6.017 2.426.024 5.442-.083 7.785.039l1.434 4.318c.102.65.137.403-.074.974-.558.542-1.447.667-2.21.834l.018 1.911c.56.181 6.673.08 7.682.085 1.059-.1 2.955-.055 4.08-.06.094-.618.098-1.28.122-1.909l.055.137c.068.176.113.313.17.49.709.17.868-.115 1.385-.665.409-.168.695-.248 1.018-.554q-.086-6.861-.084-13.722c-.007-2.279.045-4.91-.094-7.157-.482-.887-1.6-1.206-2.537-1.595-.052-.738.01-1.5.053-2.241"/><path fill="#fff" d="M116.787 102.934c1.552.08 11.518-.1 12.027.302l-.236.357c-.502.18-1.281.277-1.818.27-3.435-.038-6.927.154-10.35-.092l-.293-.246c-.256-.596-.38-1.461.24-1.858.368.226.263.22.445.755zM110.669 102.97c1.024.035 2.91-.011 3.82.138l.004.164c-.853.704-2.573.63-3.645.618-2.709-.03-5.438.06-8.14-.077l-.379-.284c-.263-.528-.48-1.435.161-1.757.424.418.336.485.496 1.114.56.181 6.673.08 7.683.085M103.073 95.787c-1.22.002-5.841.112-6.801-.011-.228-.35-.169-.201-.127-.69.452-.269 6.455-.025 7.673-.237l1.434 4.318c-.104.565-.075.646-.448.927-.6-.422-1.413-3.38-1.73-4.307"/><path fill="#e1ae41" d="M89.147 100.418c2.457-7.505 5.314-14.908 7.973-22.347.799-2.233 1.555-3.064 3.865-3.959.502-.194 2.081-.29 2.488.024-.444.034-3.04.09-3.205.52-3.019 7.772-5.807 15.718-8.567 23.599-.622 1.777-2.864 2.599-2.98 3.568l.073 1.1c2.514-.148 6-.01 8.648-.038l-.016-2.058c.261.434.178 1.734.179 2.32a108 108 0 0 1-1.675 1.657c-3.397-.02-14.168 1.436-6.783-4.386"/><path fill="#fff" d="M88.794 102.923c1.457.093 7.12-.037 8.115.219l.06.15c-1.002 1.056-5.594.445-7.036.601-1.689.183-2.436-.552-1.728-2.214l.254-.096.261.24zM99.278 75.432c.046.05.122.244.155.318-.294 1.17-.935 2.716-1.372 3.901l-2.346 6.44c-1.356 3.743-2.675 7.502-4.021 11.249-.402 1.118-.765 1.95-1.59 2.823l-.092-.102c2.433-5.495 4.204-11.745 6.43-17.373.77-1.95 1.826-5.644 2.836-7.256"/><path fill="#e1ae41" d="M96.94 92.077c1.044-2.935 2.1-5.866 2.925-8.87q.382 1.115.718 2.244 1.066 3.144 2.201 6.264c.1.13.065.114.092.307-.742.234-4.87.078-5.937.055"/><path fill="#fff" d="M99.407 85.69c.112-.497.144-.827.433-1.247.375.112.496.562.743 1.008q1.066 3.144 2.201 6.264c-.358.149-.359.124-.727.06-.632-.537-2-4.79-2.65-6.085M98.686 88c.488.295 1.54 3.115 1.265 3.78l-.598.061-2.025.015q.656-1.937 1.358-3.857"/><path fill="#184379" d="M225.387 75.047c.096-.209.214-.526.504-.551 2.818-.24 6.596-.1 9.395-.068l.069 2.293c-1.24 1.34-1.242 1.403-2.953 1.976-.155 2.484-.065 6.027-.066 8.583l.01 16.042c-.737.834-1.054 1.14-1.92 1.84-1.125.013-1.613.004-2.742-.146-.72-.684-1.287-1.448-1.852-2.258-3.365-4.825-6.511-9.81-9.915-14.607.013 2.14-.491 10.707.68 11.83.638.612 1.6.716 2.43.88l.024 2.043c-2.075.01-7.12-.158-8.896.061l-.309-.114-.04-.411c-.017-.497-.035-.657.05-1.14.444-.498 1.184-.56 1.864-.968.375-.334.633-.863.893-1.31.078-2.414.337-20.116-.184-21.035-.551-.969-1.664-1.182-2.649-1.469l-.04-2 8.557.018c2.534 4.053 5.934 8.627 8.241 12.676l.207-.016c.312-.405.146-6.615.137-7.626-1.202-1.224-2.458-1.136-3.118-2.287-.074-.743.137-1.07.615-1.695.413-.177.624-.306 1.008-.541"/><path fill="#e1ae41" d="M231.327 103.193c.334.012.366-.01.68-.088.537-.8-.298-21.569.244-24.653l.15.245c-.154 2.484-.064 6.027-.065 8.583l.01 16.042c-.737.834-1.054 1.14-1.92 1.84-1.125.013-1.613.004-2.742-.146-.72-.684-1.287-1.448-1.852-2.258-3.365-4.825-6.511-9.81-9.915-14.607-.094-.646-.269-4.082.011-4.617l.185.314c2.386 3.9 5.442 8.122 8.002 11.955 1.29 1.933 3.722 5.706 5.064 7.358.699.01 1.456.004 2.148.032"/><path fill="#fff" d="M216.113 83.849c2.386 3.898 5.442 8.121 8.002 11.954 1.29 1.933 3.722 5.706 5.064 7.358.699.01 1.456.004 2.148.032l.228.248c-.01.884-2.156.564-2.862.537-1.19-1.195-3.378-4.628-4.406-6.12-2.737-3.972-5.296-8.098-8.275-11.906-.027-.644-.128-1.538.1-2.103"/><path fill="#e1ae41" d="M226.882 79.57c-1.202-1.224-2.458-1.136-3.118-2.287-.074-.743.137-1.07.615-1.695.413-.177.624-.305 1.008-.541-.938 3.592 2.02 1.886 2.423 3.309.956 3.385-.211 8.03.454 11.505-.358-.421-1.442-2.149-1.726-2.65l.207-.015c.312-.405.146-6.615.137-7.626"/><path fill="#fff" d="M225.387 75.047c.555.273.504.934.571 1.534 1.021.204 2.083.335 2.685 1.301.693 1.11.315 11.238.303 13.224l-.682-1.245c-.665-3.476.502-8.12-.454-11.505-.403-1.423-3.36.283-2.423-3.31"/><path fill="#e1ae41" d="M225.387 75.047c.096-.209.214-.526.504-.551 2.818-.24 6.596-.1 9.395-.068l.069 2.293c-1.24 1.34-1.242 1.403-2.953 1.976l-.151-.245c.567-1.404 1.547-1.488 2.862-1.886l.05-1.99-9.145.005c.016.71-.016 1.29-.06 2-.067-.6-.016-1.26-.571-1.534"/><path fill="#184379" d="M145.145 75.449c2.987-1.721 5.732-1.867 9.015-.976q.637.177 1.261.397c.324-.234.698-.518 1.027-.732.739.01 1.617-.003 2.343.057q.032 4.572.017 9.146c-.545.51-1.229 1.117-1.736 1.645-.647.027-2.042.181-2.49-.23-.419-.386-.69-1.083-.858-1.587-.974-2.909-1.74-4.221-5.023-4.219-.365 0-.396-.01-.766.162-.73.812-.175 2.37.168 3.29 3.294 3.376 8.845 3.666 11.202 8.837 2.488 4.524-1.095 10.736-5.287 12.824-3.01 1.499-5.45 1.826-8.67.71-.83-.27-1.342-.669-1.95-.455-1.036 1.375-3.594 1.293-3.584-.668.012-2.492-.201-5.934.097-8.454.025-.209 1.36-1.455 1.675-1.827.893-.118 1.805-.15 2.706-.196.687 2.96.803 3.424 2.54 6.017l.678.484c1.804.695 4.728 1.502 4.413-1.587-.228-2.246-4.117-3.876-5.828-4.822a26 26 0 0 1-2.92-1.85c-4.127-2.967-4.809-8.823-1.718-12.776.708-.967 2.667-2.504 3.688-3.19"/><path fill="#e1ae41" d="M142.067 78.589c.237-.314.44-.726.738-.77-.035.268-.062.462-.067.735-1.087 2.409-1.366 4.967-.468 7.522 1.762 5.015 8.375 5.484 11.063 9.063 2.506 3.974-2.825 6.94-5.823 4.535 1.804.695 4.728 1.502 4.413-1.587-.228-2.246-4.117-3.876-5.828-4.822a26 26 0 0 1-2.92-1.85c-4.127-2.967-4.809-8.823-1.718-12.776z"/><path fill="#fff" d="M142.067 78.589c.237-.314.44-.726.738-.77-.035.268-.062.462-.067.735-1.087 2.409-1.366 4.967-.468 7.522 1.762 5.015 8.375 5.484 11.063 9.063.237.93.323 1.451.44 2.407-.46 1.183-.767 1.65-1.453 2.686.19-.527.835-2.149.766-2.698-.637-4.98-9.643-5.014-11.567-10.607-1.134-3.299-.629-5.553.548-8.338"/><path fill="#e1ae41" d="M159.305 91.239c2.488 4.524-1.095 10.736-5.287 12.824-3.01 1.499-5.45 1.826-8.67.71-.83-.27-1.342-.669-1.95-.455-1.036 1.375-3.594 1.293-3.584-.668.012-2.492-.201-5.934.097-8.454.025-.209 1.36-1.455 1.675-1.827.893-.118 1.805-.15 2.706-.196.687 2.96.803 3.424 2.54 6.017-1.635-1.397-2.347-3.826-2.73-5.88l-2.157.185-.008 6.532c-.002.69.024 2.593-.057 3.157l1.952.111.676-1.236.238.1c3.553 1.468 6.72 1.811 10.355.306 1.377-1.15 2.46-1.301 3.53-3.237 1.534-2.778 1.402-5.09.674-7.99"/><path fill="#fff" d="M143.242 104.045c-.657.012-1.355.091-1.92-.201-.461-.638-.422-9.225.056-9.85l.18.102c.607 2.547-.1 6.588.322 9.088l1.952.111.676-1.236.238.1c3.553 1.468 6.72 1.811 10.355.306l.203.224c-.297.488-2.269 1.13-2.846 1.251-3.056.642-5.38.261-8.167-.951-.344.376-.65.739-1.049 1.056"/><path fill="#e1ae41" d="M145.145 75.449c2.987-1.721 5.732-1.867 9.015-.976q.637.177 1.261.397c.324-.234.698-.518 1.027-.732.739.01 1.617-.003 2.343.057q.032 4.572.017 9.146c-.545.51-1.229 1.117-1.736 1.645-.647.027-2.042.181-2.49-.23-.419-.386-.69-1.083-.858-1.587-.974-2.909-1.74-4.221-5.023-4.219-.365 0-.396-.01-.766.162-.73.812-.175 2.37.168 3.29-1.51-1.593-.686-4.543 1.563-5.2 3.401-.589 5.004 1.106 5.91 4.127.525 1.761.612 1.948 2.378 1.88l.484-.198c.29-.753.106-7.432.089-8.719-1.563-.034-1.737-.261-2.599 1.05-3.823-1.612-7.125-1.642-10.733.446z"/><path fill="#fff" d="M149.666 77.202c3.401-.589 5.004 1.106 5.91 4.127.525 1.761.612 1.949 2.378 1.88-.042.263-.066.275-.167.528-2.298.795-2.648-.73-3.26-2.589-.727-2.21-2.363-3.389-4.706-3.113-.48.056-1.044.28-1.51.252.374-.476.851-.748 1.355-1.085"/><path fill="#e1ae41" d="M141.457 78.639c.708-.967 2.667-2.504 3.688-3.19l.05.339c-.725.557-2.504 2.794-2.457 2.766.005-.273.032-.467.067-.734-.299.043-.501.455-.738.769z"/><path fill="#184379" d="m116.75 74.544 8.494-.026c5.407-.013 11.204-.239 13.328 5.94a8.93 8.93 0 0 1-.67 6.833c-2.212 4.12-6.82 6.641-11.48 6.405-.004 1.017-.048 2.043-.04 3.057.011 1.758-.397 2.998 1.471 3.685l-.162.116c.564.125 1.118.265 1.691.323l-.025 2.028c-3.41-.007-9.373-.205-12.57.03l.015-.513-.034-1.236c.25-.181 1.549-.552 2.113-.828.188-.275.418-.589.524-.908.368-1.11.233-21.197-.064-21.678-.545-.884-1.631-1.05-2.556-1.29z"/><path fill="#e1ae41" d="M138.572 80.458a8.93 8.93 0 0 1-.67 6.833c-2.212 4.12-6.82 6.641-11.48 6.405-.004 1.017-.048 2.043-.04 3.057.011 1.758-.397 2.998 1.471 3.685l-.162.116c-1.903-.397-1.58-2.578-1.59-4.092-.01-1.554.033-3.152.054-4.705l3.21-.015c1.685-.101 2.865-.38 4.421-.99 4.577-2.662 5.232-5.224 4.786-10.294"/><path fill="#fff" d="m133.786 90.752.17.16c-1.275 1.19-6.324 2.358-7.5 1.57l-.1-.247c.368-.592 2.161-.331 3.01-.493 1.684-.101 2.864-.38 4.42-.99"/><path fill="#e1ae41" d="M126.14 77.616c.74-.012 2.035-.1 2.662.15 1.45.486 1.85.962 2.568 2.294.99 1.58.79 6.247-.773 7.562-1.403 1.18-2.752 1.123-4.435 1.073q-.065-5.54-.021-11.079"/><path fill="#fff" d="M131.37 80.06c.264 1.49.87 6.628-.948 7.385-.096-.587.665-2.137.676-2.854.062-4.115-.572-5.689-4.664-6.208l-.07-.18.176-.295c.587-.261 1.537-.135 2.262-.142 1.45.486 1.85.962 2.568 2.294"/><path fill="#fff" d="M126.402 79.539c4.129.427 3.79 5.46 2.792 8.374-.774.769-1.685.605-2.783.61q.018-4.493-.01-8.984"/><path fill="#184379" d="M88.009 98.19c-1.624 2.987-4.557 5.772-7.853 6.765a11.6 11.6 0 0 1-8.81-.957c-7.346-3.968-8.235-15.296-4.56-22.127 1.65-3.067 5.79-6.52 9.129-7.463 2.382-.674 5.989-.618 8.21.654l.524.079c1.009-.856 1.599-.806 2.883-.731.406 1.013.178 7.449.15 9.039-.47.73-1.12 1.318-1.74 1.93-.724.011-1.872.065-2.564.014-.874-2.09-1.608-5.052-3.903-5.984-2.075-.842-3.859.092-4.415 2.243-1.178 4.555-1.206 9.632.139 14.144.67 1.473 1.735 2.955 3.319 3.473 3.623 1.184 5.835-1.224 7.834-3.69.588.598 2.033 1.752 1.657 2.61"/><path fill="#e1ae41" d="M88.009 98.19c-1.624 2.987-4.557 5.772-7.853 6.765a11.6 11.6 0 0 1-8.81-.957c-7.346-3.968-8.235-15.296-4.56-22.127 1.65-3.067 5.79-6.52 9.129-7.463 2.382-.674 5.989-.618 8.21.654-3.9-.976-6.97-1.506-10.667.728-3.609 2.18-4.991 5.327-6.092 9.167-.709 2.47-.086 4.654-.457 6.723.32 2.413.696 4.079 1.911 6.262 2.923 5.25 9.472 6.879 14.794 4.4 2.487-1.947 2.223-1.778 4.395-4.153"/><path fill="#fff" d="m83.614 102.342.072.223c-.664 1.086-3.253 1.457-4.41 1.592-7.882.918-12.81-4.979-13.194-12.518-.211-4.127.187-8.87 3.01-12.138-.024.209-.708 1.73-.872 2.02-.99 1.74-1.994 8.428-1.311 10.159.32 2.413.696 4.079 1.911 6.262 2.923 5.25 9.472 6.879 14.794 4.4"/><path fill="#e1ae41" d="M87.532 74.41c.406 1.013.178 7.449.15 9.039-.47.73-1.12 1.318-1.74 1.93-.724.011-1.872.065-2.564.014-.874-2.09-1.608-5.052-3.903-5.984-2.075-.842-3.859.092-4.415 2.243-1.178 4.555-1.206 9.632.139 14.144-2.108-3.557-1.866-16.839 2.942-18.34 4.394-1.009 5.81 2.616 6.975 6.07l1.802.007.335-.088c.446-.735.07-7.396.279-9.035"/><path fill="#fff" d="M78.14 77.456c4.395-1.009 5.81 2.616 6.976 6.07l1.802.007c.077.111.06.163.083.32-.14.19-.249.417-.463.48-3.397.988-2.682-4.806-6.042-5.92-1.645-.545-2.684-.12-4.033.453.585-.538 1.05-.921 1.678-1.41"/><path fill="#e1ae41" d="M207.73 77.95q-.025-.627-.012-1.252c.02-.672.079-.896.524-1.314.492.016.276-.056.678.21.058 2.514.503 1.406 2.233 2.473 1.022.63.677 4.528.67 5.691l-.02 11.841c-.006 1.225-.202 3.684-.083 4.733-.68.408-1.42.47-1.864.968-.085.483-.067.643-.05 1.14l.04.411.31.114c1.775-.219 6.82-.05 8.895-.061l-.025-2.044c.302.45.204 1.849.16 2.435-.403.405-1.12 1.087-1.457 1.502a263 263 0 0 0-9.288.078c-.328-.363-.622-.701-.983-1.035-.21.187-.742.874-.889.882-2.91.156-5.849.064-8.774.101-.888.011-2.733.118-3.434-.22-.392-.188-.471-2.251-.011-2.522.272-.16.581-.266.895-.375l.458-.018c.374.365.292.67.403 1.295 3.174-.02 6.989.088 10.093-.015.726-.052 1.223.047 1.715-.35a3.5 3.5 0 0 1 .268-.754l.037-.076c.312.048.523-.074.823-.189.275-.766.738-.814 1.452-1.093.115-2.161.256-20.263-.109-21.008-.444-.908-1.782-1.26-2.656-1.549"/><path fill="#fff" d="m195.245 101.706.458-.018c.374.365.292.67.403 1.295 3.174-.02 6.989.088 10.093-.015.524.015.846-.04 1.255.27l-.023.274c-.853.502-11.44.584-12.005.069-.26-.58-.186-1.22-.181-1.875M209.246 101.662l.315-.021c.145.334.165.44.246.799l.04.411.308.114c1.562.046 7.361-.177 8.357.254l.056.36.077-.091c-.97.702-7.675.368-9.199.278-.896-.053-.357-1.665-.2-2.104"/></g></svg></svg>