<svg id="svg" version="1.1" viewBox="0 0 300 200" width="300" height="200" xmlns="http://www.w3.org/2000/svg"><svg xmlns="http://www.w3.org/2000/svg"><defs><clipPath id="clip-1"><rect x="0" y="0" transform="scale(0.14648,0.14652)" width="2048" height="1365" fill="none"/></clipPath></defs><g clip-path="url(#clip-1)" fill="none" fill-rule="nonzero" stroke="none" stroke-width="1" stroke-linecap="butt" stroke-linejoin="miter" stroke-miterlimit="10" stroke-dasharray="" stroke-dashoffset="0" font-family="none" font-weight="none" font-size="none" text-anchor="none" style="mix-blend-mode: normal"><path d="M0,0h300v200h-300z" fill="#ffffff"/><path d="M190.99072,76.04454c2.80518,-1.48747 1.35938,-2.10652 5.70703,-2.02608c0.59033,1.30359 2.22217,5.48938 2.44043,6.76029l4.25244,11.77758c0.78955,2.1811 1.56006,4.36161 2.41113,6.51985c0.56396,1.43399 2.34521,1.40982 2.41699,2.7115l-0.03662,0.07663c-0.14941,0.32161 -0.17725,0.41128 -0.26807,0.75297c-0.49219,0.39751 -0.98877,0.29832 -1.71533,0.35033c-3.104,0.10315 -6.91846,-0.00484 -10.09277,0.01568c-0.11133,-0.62505 -0.0293,-0.93055 -0.40283,-1.29524l-0.4585,0.01817c0.20068,-0.60117 0.30176,-0.64044 0.81006,-1.00923l0.12012,-0.08527c0.14209,-0.4885 -0.85693,-3.27165 -1.06348,-3.90476c-2.1167,0.05201 -4.34326,0.01509 -6.46875,0.01289c-0.36475,1.29421 -0.85107,2.39736 -0.26221,3.60996c0.87598,0.12733 1.34619,0.24044 2.20313,0.47853l-0.01904,2.42374l-1.68311,1.54125c-1.28027,0.0085 -8.19873,0.37949 -8.83154,-0.30183c-0.28711,-0.30916 -0.34424,-0.80703 -0.42334,-1.20733c-0.35889,0.5156 -0.97412,1.06491 -1.43994,1.51429c-3.97412,0.01377 -7.94678,0.03033 -11.9209,0.02242c-1.88525,-0.00381 -1.5249,-1.10418 -1.46045,-2.6126c0.89063,-0.48527 1.18213,-0.90183 1.96582,-1.45172c0.17139,-0.12059 0.52734,-0.0378 1.00635,-0.28762c0.12744,-0.6863 0.03955,-5.46535 0.03516,-6.58784c-0.01465,-4.66681 0.06592,-9.38491 -0.03662,-14.04879c-0.00732,-0.32864 -0.07764,-0.27883 -0.4043,-0.5707c-1.48389,-0.11722 -2.24854,3.27502 -2.50781,4.40791l-1.604,1.62652c-0.75146,0.0211 -1.65967,0.10945 -2.33203,-0.19487c-0.66797,-0.66168 -0.63281,-8.55766 -0.0835,-9.20176c1.54248,-0.37963 0.68115,-0.51516 1.68311,-1.41465c2.0083,-0.14755 20.57227,-0.2504 21.65039,0.0822c0.21826,2.17143 0.09814,6.68601 0.09961,8.98696c-0.55811,0.71399 -0.9917,1.1011 -1.65088,1.71399c-1.83984,0.08557 -2.92529,0.17509 -3.30469,-2.06505c-0.31494,-1.84821 -0.76025,-2.85026 -2.52979,-3.65963c0.02344,4.36469 0.02344,8.72938 -0.00293,13.09392c-0.00439,1.89963 -0.11426,5.49656 0.14209,7.25758c1.27148,1.01158 2.89453,0.30564 2.79785,1.90271l0.06152,0.97773c0.2168,-0.98696 2.04492,-1.45304 2.88867,-3.80923z" fill="#184379"/><path d="M181.85449,101.6444c0.14795,-0.87736 2.12256,-1.48718 2.61035,-2.84615c2.2002,-6.14051 4.45898,-12.27429 6.71045,-18.39663c0.34131,-0.92777 1.81348,-5.15429 2.18555,-5.69626c0.85254,-0.62476 2.13867,-0.45084 3.22705,-0.44161c0.59766,1.51751 1.90137,5.27487 2.55029,6.51502l4.25244,11.77758c0.78955,2.1811 1.56006,4.36161 2.41113,6.51985c0.56396,1.43399 2.34521,1.40982 2.41699,2.7115l-0.03662,0.07663c-0.14941,0.32161 -0.17725,0.41128 -0.26807,0.75297c-0.49219,0.39751 -0.98877,0.29832 -1.71533,0.35033c-3.104,0.10315 -6.91846,-0.00484 -10.09277,0.01568c-0.11133,-0.62505 -0.0293,-0.93055 -0.40283,-1.29524l-0.4585,0.01817c0.20068,-0.60117 0.30176,-0.64044 0.81006,-1.00923l0.12012,-0.08527c0.14209,-0.4885 -0.85693,-3.27165 -1.06348,-3.90476c-2.1167,0.05201 -4.34326,0.01509 -6.46875,0.01289c-0.36475,1.29421 -0.85107,2.39736 -0.26221,3.60996c0.58594,0.37817 1.35205,0.49729 2.04346,0.65231c0.02051,0.67546 0.1377,1.33363 -0.22412,1.85245l-0.45703,0.12791c-2.28516,0.0104 -5.39502,0.10652 -7.60547,-0.04659c-0.28271,-0.30286 -0.25049,-0.83033 -0.28271,-1.2715z" fill="#184379"/><path d="M189.07764,94.92586l7.92334,-0.03092c0.43359,1.44557 0.90234,2.88073 1.40479,4.30432c0.17725,0.53538 0.17432,0.3156 0.03369,0.83487c-0.53906,0.61802 -1.56738,0.79531 -2.35693,0.99165c0.02051,0.61597 0.06152,1.3537 0.02344,1.95751c-0.11133,-0.62505 -0.0293,-0.93055 -0.40283,-1.29524l-0.4585,0.01817c0.20068,-0.60117 0.30176,-0.64044 0.81006,-1.00923l0.12012,-0.08527c0.14209,-0.4885 -0.85693,-3.27165 -1.06348,-3.90476c-2.1167,0.05201 -4.34326,0.01509 -6.46875,0.01289c-0.36475,1.29421 -0.85107,2.39736 -0.26221,3.60996c-1.22314,-0.8504 0.21973,-4.23868 0.69727,-5.40396z" fill="#e1ae41"/><path d="M189.07764,94.92586l7.92334,-0.03092c0.43359,1.44557 0.90234,2.88073 1.40479,4.30432c-0.01172,0.44059 -0.07617,0.65231 -0.44531,0.84366c-0.52441,-0.34711 -1.45605,-3.42418 -1.77979,-4.30579c-0.89941,0.08498 -6.46582,0.21773 -7.02979,-0.13392z" fill="#ffffff"/><path d="M189.98877,92.09817c0.95068,-2.84161 1.97607,-5.89216 3.02051,-8.6926c0.28418,0.28615 0.24023,0.51385 0.32227,0.97641c0.79395,2.39326 1.6582,4.6822 2.46826,7.04703l0.17432,0.51458l-0.13037,0.15267c-1.83838,0.08176 -3.99463,0.01524 -5.85498,0.0019z" fill="#e1ae41"/><path d="M192.5918,85.56615c0.12158,-0.5033 0.1582,-0.87092 0.479,-1.26945l0.26074,0.08527c0.79395,2.39326 1.6582,4.6822 2.46826,7.04703c-0.09082,0.26681 -0.04541,0.16733 -0.25635,0.38418l-0.38525,-0.01744c-0.68408,-0.63414 -1.89404,-4.8359 -2.56641,-6.2296z" fill="#ffffff"/><path d="M191.82275,87.44396c0.25195,0.28264 1.25684,3.57553 1.45313,4.18095c-0.42627,0.30784 -0.55078,0.19985 -1.16162,0.19634l-1.73291,-0.00762c0.48926,-1.45377 0.96973,-2.91033 1.44141,-4.36967z" fill="#ffffff"/><path d="M190.99072,76.04454c2.80518,-1.48747 1.35938,-2.10652 5.70703,-2.02608c0.59033,1.30359 2.22217,5.48938 2.44043,6.76029c-0.64893,-1.24015 -1.95264,-4.99751 -2.55029,-6.51502c-1.08838,-0.00923 -2.37451,-0.18315 -3.22705,0.44161c-0.37207,0.54198 -1.84424,4.7685 -2.18555,5.69626c-2.25146,6.12234 -4.51025,12.25612 -6.71045,18.39663c-0.48779,1.35897 -2.4624,1.96879 -2.61035,2.84615c0.03223,0.44117 0,0.96864 0.28271,1.2715c2.21045,0.15311 5.32031,0.057 7.60547,0.04659l0.45703,-0.12791c0.36182,-0.51883 0.24463,-1.177 0.22412,-1.85245c-0.69141,-0.15502 -1.45752,-0.27414 -2.04346,-0.65231c0.87598,0.12733 1.34619,0.24044 2.20313,0.47853l-0.01904,2.42374l-1.68311,1.54125c-1.28027,0.0085 -8.19873,0.37949 -8.83154,-0.30183c-0.28711,-0.30916 -0.34424,-0.80703 -0.42334,-1.20733c-0.35889,0.5156 -0.97412,1.06491 -1.43994,1.51429c-3.97412,0.01377 -7.94678,0.03033 -11.9209,0.02242c-1.88525,-0.00381 -1.5249,-1.10418 -1.46045,-2.6126c0.89063,-0.48527 1.18213,-0.90183 1.96582,-1.45172c0.17139,-0.12059 0.52734,-0.0378 1.00635,-0.28762c0.12744,-0.6863 0.03955,-5.46535 0.03516,-6.58784c-0.01465,-4.66681 0.06592,-9.38491 -0.03662,-14.04879c-0.00732,-0.32864 -0.07764,-0.27883 -0.4043,-0.5707c-1.48389,-0.11722 -2.24854,3.27502 -2.50781,4.40791l-1.604,1.62652c-0.75146,0.0211 -1.65967,0.10945 -2.33203,-0.19487c-0.66797,-0.66168 -0.63281,-8.55766 -0.0835,-9.20176c1.54248,-0.37963 0.68115,-0.51516 1.68311,-1.41465c2.0083,-0.14755 20.57227,-0.2504 21.65039,0.0822c-0.40576,0.05788 -1.28906,0.06154 -1.7373,0.07458l-19.82227,-0.01231c0.00146,1.58418 -0.09082,4.75121 0.01611,6.22725c-0.01172,0.72791 0.00879,2.00777 -0.05713,2.68967l1.81348,-0.00132c0.95801,-0.87531 0.76318,-4.83341 3.11865,-5.59619c1.03711,-0.23194 1.41504,-0.26315 2.48145,-0.29641c0.31348,2.18901 0.02344,5.46256 0.04248,8.34813c0.02344,3.71839 0.1333,9.91341 -0.17725,13.7726c-0.07617,0.93788 -2.75977,0.67048 -3.04248,1.72542c0.01172,0.52293 -0.0542,1.04044 0.24023,1.43077c2.92676,0.23209 8.82568,0.05011 12.10986,0.07282c0.55664,-0.16879 0.49072,-0.70125 0.56543,-1.20454l0.06152,0.97773c0.2168,-0.98696 2.04492,-1.45304 2.88867,-3.80923z" fill="#e1ae41"/><path d="M167.50928,77.92864c1.03711,-0.23194 1.41504,-0.26315 2.48145,-0.29641l-0.01611,0.13363c-0.43066,3.56923 0.50391,20.70784 -0.54785,22.26579l-0.2373,0.07458c-0.18896,-0.32147 -0.03955,-4.85055 -0.04102,-5.6567l-0.00293,-16.12762c-0.54053,0.12689 -1.86328,0.56176 -2.25293,0.41963c0.15967,-0.40205 0.30322,-0.49773 0.6167,-0.81289z" fill="#ffffff"/><path d="M179.16357,102.98198c-0.15674,0.4019 -0.30469,0.64029 -0.6709,0.81363c-1.68018,0.14696 -11.32178,0.38945 -12.25049,-0.1874c-0.35742,-0.66828 -0.37061,-1.06799 -0.17578,-1.79707c0.36768,-0.36777 0.18164,-0.2652 0.74707,-0.33275c0.01172,0.52293 -0.0542,1.04044 0.24023,1.43077c2.92676,0.23209 8.82568,0.05011 12.10986,0.07282z" fill="#ffffff"/><path d="M189.74268,102.96249c-0.14209,0.59722 -0.02051,0.46418 -0.40723,0.82769c-2.28955,0.20806 -5.57812,0.15385 -7.9043,-0.06667c-0.51709,-0.04894 -0.58154,-2.0485 0.14355,-2.37553l0.27979,0.29641c0.03223,0.44117 0,0.96864 0.28271,1.2715c2.21045,0.15311 5.32031,0.057 7.60547,0.04659z" fill="#ffffff"/><path d="M164.39063,83.52484c-0.57568,0.66315 -1.23047,1.05758 -2.09473,0.74066c-0.29443,-0.29538 -0.42627,-0.54374 -0.51709,-0.94872c-0.23877,-1.06198 -0.14209,-7.19678 0.20654,-7.77055l0.19189,0.02154c0.64453,1.02374 -0.02197,6.77744 0.3999,7.95839z" fill="#ffffff"/><path d="M192.11133,75.65714l0.22119,0.11136l0.07617,0.26608c-0.35596,1.42418 -1.1792,3.37216 -1.70947,4.79531l-2.92383,7.94256c-0.70605,1.89641 -3.32812,9.79487 -4.27588,11.07004l-0.0835,0.01568l-0.09375,-0.12205z" fill="#ffffff"/><path d="M184.17773,74.54696c0.21826,2.17143 0.09814,6.68601 0.09961,8.98696c-0.55811,0.71399 -0.9917,1.1011 -1.65088,1.71399c-1.83984,0.08557 -2.92529,0.17509 -3.30469,-2.06505c-0.31494,-1.84821 -0.76025,-2.85026 -2.52979,-3.65963c0.02344,4.36469 0.02344,8.72938 -0.00293,13.09392c-0.00439,1.89963 -0.11426,5.49656 0.14209,7.25758c-0.82178,-1.5874 -0.16846,-18.68176 -0.35449,-22.08088l0.19189,-0.16337c3.79834,0.06725 4.40186,2.59194 5.15039,5.85934l1.81787,0.01875l0.25195,-0.12132c0.22266,-0.3578 0.13623,-0.79458 0.11572,-1.24352c0,-2.25231 -0.0835,-5.42579 0.07324,-7.59678z" fill="#e1ae41"/><path d="M176.76855,77.63048c3.79834,0.06725 4.40186,2.59194 5.15039,5.85934l1.81787,0.01875c-0.59033,1.20762 -1.28467,0.86652 -2.50342,0.69656c-1.44434,-3.14813 -0.08496,-4.72791 -4.25098,-5.74403c-0.27246,-0.33128 -0.18164,-0.29568 -0.21387,-0.83062z" fill="#ffffff"/><path d="M162.61816,74.60923l19.82227,0.01231c0.44824,-0.01304 1.33154,-0.0167 1.7373,-0.07458c-0.15674,2.17099 -0.07324,5.34447 -0.07324,7.59678c-0.14502,-0.7096 -0.33398,-0.77304 -0.57275,-1.38081c-0.3457,-0.87414 -0.30615,-2.13597 -0.30322,-3.08864c-0.104,-0.88044 -0.11719,-1.33802 -0.104,-2.22813c-3.92871,-0.33861 -8.60449,-0.22198 -12.54639,-0.13333c-2.24268,0.0504 -5.63525,-0.17685 -7.77539,0.20879c0.00293,0.78344 0.13916,4.95282 -0.16846,5.31487c-0.10693,-1.47604 -0.01465,-4.64308 -0.01611,-6.22725z" fill="#203f67"/><path d="M89.14746,100.41773c2.45684,-7.50432 5.31372,-14.90784 7.97285,-22.34667c0.79834,-2.23355 1.55449,-3.06359 3.8644,-3.95897c0.502,-0.19443 2.0814,-0.28996 2.48862,0.02432c3.44048,8.22637 5.98008,17.4315 9.61729,25.62037c0.23408,0.52689 1.25186,1 1.77949,1.24557l0.05479,0.13714c0.06841,0.17538 0.11323,0.31209 0.16934,0.49011c0.70957,0.16864 0.86836,-0.11531 1.38574,-0.66549c0.40854,-0.16821 0.69463,-0.24835 1.01807,-0.55399c-0.05654,-4.57392 -0.08467,-9.14813 -0.08423,-13.72249c-0.00674,-2.27868 0.04541,-4.91018 -0.09375,-7.15678c-0.48237,-0.88703 -1.60078,-1.20542 -2.53667,-1.59502c-0.05273,-0.73817 0.01011,-1.50022 0.05244,-2.24103c0.07998,-0.03707 0.1604,-0.07282 0.24141,-0.10755c0.40884,-0.17187 0.60425,-0.31385 0.92725,-0.18315c-0.00806,0.29319 -0.04893,0.71326 -0.03853,0.98579c0.06548,1.77597 2.68374,0.66022 2.69956,2.64952c0.05054,6.34212 0.01318,12.68674 -0.00498,19.02916c-0.00249,0.84425 -0.25693,1.61348 -0.2625,2.24659l0.48325,0.04322c-0.56455,0.2756 -1.86401,0.64659 -2.11333,0.8274l0.03354,1.23619l-0.01406,0.51223c3.19614,-0.23385 9.16025,-0.03604 12.56982,-0.02886l0.02476,-2.02842c-0.57319,-0.05832 -1.12749,-0.19795 -1.69087,-0.32249l0.1623,-0.11604c0.56689,0.08718 1.12075,0.15912 1.67651,0.30066l-0.04805,2.50945l-1.58833,1.54505l-11.85352,0.0926c-1.63359,0.00234 -1.08296,-1.89597 -2.55806,-0.09817l-7.80073,0.02974c-0.76465,0.00264 -3.19512,0.1244 -3.80801,-0.04557c-2.90449,-0.80527 0.20142,-3.40352 1.08193,-4.04454l0.19951,-0.14388c-0.41133,-1.25949 -0.82603,-2.617 -1.26196,-3.85905l-6.26221,0.01788c-0.86514,2.68733 -1.3229,3.31795 1.79575,4.08425c0.26118,0.43443 0.17769,1.73436 0.17871,2.32044c-0.55239,0.5581 -1.11094,1.11033 -1.67534,1.65626c-3.39668,-0.01919 -14.16724,1.43648 -6.78223,-4.38579z" fill="#184379"/><path d="M114.83584,75.6948c0.07998,-0.03707 0.1604,-0.07282 0.24141,-0.10755c0.40884,-0.17187 0.60425,-0.31385 0.92725,-0.18315c-0.00806,0.29319 -0.04893,0.71326 -0.03853,0.98579c0.06548,1.77597 2.68374,0.66022 2.69956,2.64952c0.05054,6.34212 0.01318,12.68674 -0.00498,19.02916c-0.00249,0.84425 -0.25693,1.61348 -0.2625,2.24659l0.48325,0.04322c-0.56455,0.2756 -1.86401,0.64659 -2.11333,0.8274l0.03354,1.23619l-0.01406,0.51223c3.19614,-0.23385 9.16025,-0.03604 12.56982,-0.02886l0.02476,-2.02842c-0.57319,-0.05832 -1.12749,-0.19795 -1.69087,-0.32249l0.1623,-0.11604c0.56689,0.08718 1.12075,0.15912 1.67651,0.30066l-0.04805,2.50945l-1.58833,1.54505l-11.85352,0.0926c-1.63359,0.00234 -1.08296,-1.89597 -2.55806,-0.09817l-7.80073,0.02974c-0.76465,0.00264 -3.19512,0.1244 -3.80801,-0.04557c-2.90449,-0.80527 0.20142,-3.40352 1.08193,-4.04454l0.19951,-0.14388c-0.41133,-1.25949 -0.82603,-2.617 -1.26196,-3.85905l-6.26221,0.01788c-0.86514,2.68733 -1.3229,3.31795 1.79575,4.08425c-4.25815,0.01128 -2.23901,-3.49055 -1.39351,-6.0167c2.42607,0.02388 5.44233,-0.08337 7.7855,0.03839l1.43394,4.31839c0.10181,0.64982 0.13682,0.40293 -0.07456,0.97377c-0.55723,0.54227 -1.44697,0.66769 -2.20898,0.83414l0.01699,1.91165c0.56104,0.18066 6.6731,0.07985 7.68281,0.0841c1.05835,-0.10007 2.95488,-0.05495 4.07886,-0.05978c0.09448,-0.61758 0.09902,-1.28029 0.12275,-1.90842l0.05479,0.13714c0.06841,0.17538 0.11323,0.31209 0.16934,0.49011c0.70957,0.16864 0.86836,-0.11531 1.38574,-0.66549c0.40854,-0.16821 0.69463,-0.24835 1.01807,-0.55399c-0.05654,-4.57392 -0.08467,-9.14813 -0.08423,-13.72249c-0.00674,-2.27868 0.04541,-4.91018 -0.09375,-7.15678c-0.48237,-0.88703 -1.60078,-1.20542 -2.53667,-1.59502c-0.05273,-0.73817 0.01011,-1.50022 0.05244,-2.24103z" fill="#e1ae41"/><path d="M116.78745,102.93421c1.55171,0.08073 11.51792,-0.10066 12.02666,0.30183l-0.23657,0.35678c-0.50186,0.18095 -1.28086,0.27707 -1.81743,0.27106c-3.43477,-0.03839 -6.92681,0.15326 -10.34927,-0.09245c-0.09785,-0.0819 -0.1957,-0.16396 -0.29341,-0.24601c-0.25605,-0.59634 -0.38101,-1.46168 0.23936,-1.85832c0.36782,0.22637 0.26367,0.22037 0.44473,0.75487z" fill="#ffffff"/><path d="M110.66851,102.97055c1.02422,0.03443 2.90991,-0.01172 3.82002,0.13788l0.00469,0.16352c-0.85371,0.70403 -2.573,0.62974 -3.64556,0.61788c-2.7085,-0.0296 -5.4375,0.06066 -8.13984,-0.07678c0,0 -0.34497,-0.25875 -0.37837,-0.28381c-0.26323,-0.52806 -0.48105,-1.4356 0.16099,-1.75678c0.42319,0.41788 0.33516,0.4841 0.49526,1.11399c0.56104,0.18066 6.6731,0.07985 7.68281,0.0841z" fill="#ffffff"/><path d="M103.07344,95.7874c-1.21978,0.00161 -5.8415,0.1115 -6.80171,-0.01172c-0.22734,-0.34945 -0.16875,-0.20088 -0.12627,-0.69055c0.45132,-0.26813 6.4541,-0.02418 7.67285,-0.23663l1.43394,4.31839c-0.1043,0.56484 -0.07529,0.64586 -0.44824,0.92733c-0.59971,-0.42227 -1.4127,-3.38007 -1.73057,-4.30681z" fill="#ffffff"/><path d="M89.14746,100.41773c2.45684,-7.50432 5.31372,-14.90784 7.97285,-22.34667c0.79834,-2.23355 1.55449,-3.06359 3.8644,-3.95897c0.502,-0.19443 2.0814,-0.28996 2.48862,0.02432c-0.44473,0.03311 -3.0394,0.0904 -3.20581,0.51897c-3.01831,7.77216 -5.80679,15.71824 -8.56641,23.59956c-0.62227,1.77685 -2.8645,2.59897 -2.98096,3.56762l0.07368,1.10051c2.51455,-0.14799 6.00015,-0.0104 8.648,-0.03795l-0.01553,-2.05832c0.26118,0.43443 0.17769,1.73436 0.17871,2.32044c-0.55239,0.5581 -1.11094,1.11033 -1.67534,1.65626c-3.39668,-0.01919 -14.16724,1.43648 -6.78223,-4.38579z" fill="#e1ae41"/><path d="M88.79385,102.92308c1.45723,0.09333 7.12075,-0.03663 8.11553,0.21875l0.05962,0.14945c-1.0021,1.057 -5.59409,0.44542 -7.03564,0.6019c-1.68896,0.1833 -2.43677,-0.55267 -1.72793,-2.21407l0.25342,-0.09626l0.26133,0.23971z" fill="#ffffff"/><path d="M99.27759,75.43223c0.04688,0.05055 0.12217,0.24337 0.15527,0.31736c-0.29341,1.17084 -0.93501,2.71619 -1.37168,3.90168l-2.34609,6.43927c-1.3563,3.74344 -2.67466,7.50227 -4.02144,11.24908c-0.4021,1.11868 -0.76479,1.95121 -1.58877,2.823l-0.09331,-0.10139c2.43369,-5.49553 4.20439,-11.7452 6.43008,-17.37363c0.77065,-1.94916 1.82651,-5.64322 2.83594,-7.25538z" fill="#ffffff"/><path d="M96.93926,92.07707c1.04458,-2.93509 2.10088,-5.86564 2.92559,-8.87018c0.25503,0.74286 0.49438,1.49114 0.71777,2.2441c0.71089,2.09597 1.44492,4.18403 2.20181,6.26388c0.09888,0.1304 0.06489,0.11458 0.09111,0.30667c-0.74121,0.23487 -4.8687,0.07883 -5.93628,0.05553z" fill="#e1ae41"/><path d="M99.40693,85.69011c0.11206,-0.49685 0.14399,-0.8274 0.43315,-1.24674c0.37471,0.11179 0.4957,0.56117 0.74253,1.00762c0.71089,2.09597 1.44492,4.18403 2.20181,6.26388c-0.3583,0.14916 -0.35903,0.1244 -0.72759,0.06081c-0.63223,-0.53773 -2.0001,-4.78974 -2.6499,-6.08557z" fill="#ffffff"/><path d="M98.68564,87.99927c0.48838,0.29538 1.54058,3.11619 1.26504,3.78066l-0.59766,0.06154l-2.02515,0.01436c0.43667,-1.29114 0.88931,-2.5767 1.35776,-3.85656z" fill="#ffffff"/><path d="M225.38672,75.04689c0.09668,-0.20879 0.21387,-0.5263 0.50391,-0.55092c2.81836,-0.24 6.59619,-0.10022 9.39551,-0.06755l0.06885,2.29275c-1.23926,1.34051 -1.24219,1.40322 -2.95312,1.97553c-0.15527,2.48454 -0.06445,6.02696 -0.06592,8.58344l0.01025,16.04161c-0.73682,0.83399 -1.05469,1.14081 -1.92041,1.83956c-1.125,0.01377 -1.61279,0.00513 -2.74219,-0.14564c-0.71924,-0.68381 -1.28613,-1.44777 -1.85156,-2.25729c-3.36475,-4.82564 -6.51123,-9.80952 -9.91553,-14.60762c0.01318,2.14051 -0.49072,10.70755 0.68115,11.83106c0.63721,0.61099 1.59961,0.7156 2.42871,0.87839l0.0249,2.04366c-2.07568,0.0104 -7.12061,-0.15766 -8.896,0.0611l-0.30908,-0.11399l-0.03955,-0.41114c-0.01758,-0.497 -0.03516,-0.65714 0.0498,-1.13993c0.44385,-0.49744 1.18359,-0.56 1.86328,-0.96747c0.375,-0.33407 0.63281,-0.86359 0.89355,-1.30974c0.07764,-2.41465 0.33691,-20.11663 -0.18457,-21.03575c-0.55078,-0.96879 -1.66406,-1.18198 -2.64844,-1.46886l-0.04102,-1.99971l8.55762,0.01773c2.53418,4.05289 5.93408,8.62667 8.24121,12.67546l0.20654,-0.01568c0.31201,-0.40498 0.14648,-6.61509 0.1377,-7.62564c-1.20264,-1.22462 -2.45801,-1.13597 -3.11865,-2.28703c-0.07324,-0.74359 0.1377,-1.07004 0.61523,-1.69538c0.41309,-0.177 0.62402,-0.30535 1.00781,-0.54095z" fill="#184379"/><path d="M231.32666,103.19282c0.33398,0.0126 0.36621,-0.01055 0.67969,-0.08777c0.5376,-0.80044 -0.29736,-21.56879 0.24463,-24.65304l0.15088,0.24469c-0.15527,2.48454 -0.06445,6.02696 -0.06592,8.58344l0.01025,16.04161c-0.73682,0.83399 -1.05469,1.14081 -1.92041,1.83956c-1.125,0.01377 -1.61279,0.00513 -2.74219,-0.14564c-0.71924,-0.68381 -1.28613,-1.44777 -1.85156,-2.25729c-3.36475,-4.82564 -6.51123,-9.80952 -9.91553,-14.60762c-0.09375,-0.64571 -0.26807,-4.08176 0.01172,-4.61714l0.18457,0.31487c2.38623,3.8989 5.44189,8.12147 8.00244,11.95443c1.29053,1.93275 3.72217,5.70593 5.06396,7.3578c0.69873,0.00952 1.45605,0.0041 2.14746,0.03209z" fill="#e1ae41"/><path d="M216.11279,83.8485c2.38623,3.8989 5.44189,8.12147 8.00244,11.95443c1.29053,1.93275 3.72217,5.70593 5.06396,7.3578c0.69873,0.00952 1.45605,0.0041 2.14746,0.03209l0.22852,0.2485c-0.01025,0.88352 -2.15625,0.56396 -2.8623,0.537c-1.18945,-1.19575 -3.37793,-4.62813 -4.40625,-6.12073c-2.73633,-3.97201 -5.29541,-8.09729 -8.2749,-11.90564c-0.02637,-0.6441 -0.12744,-1.53758 0.10107,-2.10344z" fill="#ffffff"/><path d="M226.88232,79.57026c-1.20264,-1.22462 -2.45801,-1.13597 -3.11865,-2.28703c-0.07324,-0.74359 0.1377,-1.07004 0.61523,-1.69538c0.41309,-0.177 0.62402,-0.30535 1.00781,-0.54095c-0.9375,3.59209 2.02002,1.88586 2.42285,3.30872c0.95654,3.38505 -0.21094,8.0296 0.4541,11.50579c-0.35742,-0.42168 -1.44141,-2.14916 -1.72559,-2.64982l0.20654,-0.01568c0.31201,-0.40498 0.14648,-6.61509 0.1377,-7.62564z" fill="#e1ae41"/><path d="M225.38672,75.04689c0.55518,0.27355 0.50391,0.93363 0.57129,1.53421c1.021,0.20425 2.08301,0.33495 2.68506,1.3011c0.69287,1.10886 0.31494,11.2378 0.30322,13.22388l-0.68262,-1.24469c-0.66504,-3.47619 0.50244,-8.12073 -0.4541,-11.50579c-0.40283,-1.42286 -3.36035,0.28337 -2.42285,-3.30872z" fill="#ffffff"/><path d="M225.38672,75.04689c0.09668,-0.20879 0.21387,-0.5263 0.50391,-0.55092c2.81836,-0.24 6.59619,-0.10022 9.39551,-0.06755l0.06885,2.29275c-1.23926,1.34051 -1.24219,1.40322 -2.95312,1.97553l-0.15088,-0.24469c0.56689,-1.4041 1.54688,-1.48806 2.8623,-1.88601l0.0498,-1.99004l-9.14502,0.00454c0.01611,0.71136 -0.01611,1.28996 -0.06006,2.00059c-0.06738,-0.60059 -0.01611,-1.26066 -0.57129,-1.53421z" fill="#e1ae41"/><path d="M145.14521,75.44864c2.98711,-1.72059 5.73223,-1.86696 9.01494,-0.97612c0.4248,0.11824 0.84521,0.2507 1.26123,0.39707c0.32373,-0.23311 0.69727,-0.5178 1.02686,-0.73187c0.73828,0.00938 1.61719,-0.00249 2.34229,0.05685c0.02197,3.04879 0.02783,6.09773 0.01758,9.14652c-0.54492,0.50989 -1.229,1.11648 -1.73584,1.64498c-0.64746,0.02681 -2.04199,0.18139 -2.49023,-0.23048c-0.41895,-0.38579 -0.68994,-1.08234 -0.8584,-1.58637c-0.97412,-2.90916 -1.73877,-4.22139 -5.02295,-4.21919c-0.36475,0.00029 -0.39551,-0.01084 -0.76611,0.16234c-0.72949,0.81201 -0.17432,2.36967 0.16846,3.28952c3.29443,3.37568 8.84473,3.66652 11.20166,8.83678c2.48877,4.52469 -1.09424,10.73612 -5.28662,12.82418c-3.01025,1.49875 -5.45068,1.82637 -8.67085,0.71004c-0.82954,-0.27033 -1.34136,-0.66886 -1.94854,-0.4548c-1.03667,1.37451 -3.59458,1.29289 -3.58491,-0.66813c0.01216,-2.49158 -0.20083,-5.93436 0.09771,-8.45363c0.02476,-0.20894 1.35864,-1.45509 1.67432,-1.8274c0.89355,-0.11795 1.80557,-0.14916 2.70659,-0.19546c0.68657,2.95985 0.80229,3.42359 2.53916,6.01656l0.67822,0.4841c1.80469,0.69465 4.72852,1.50212 4.41357,-1.58681c-0.22852,-2.24659 -4.11768,-3.87619 -5.82788,-4.82183c-1.1373,-0.62916 -1.8791,-1.10344 -2.92002,-1.85143c-4.1272,-2.96601 -4.80908,-8.82183 -1.71797,-12.77509c0.70781,-0.96674 2.66631,-2.50359 3.68774,-3.19033z" fill="#184379"/><path d="M142.06699,78.58857c0.23701,-0.31341 0.43945,-0.72586 0.7377,-0.76894c-0.03442,0.26696 -0.06211,0.46168 -0.06665,0.73451c-1.0875,2.40864 -1.36611,4.96689 -0.46802,7.5219c1.76235,5.0148 8.37451,5.48425 11.0625,9.06256c2.50635,3.97421 -2.82422,6.93978 -5.82275,4.53553c1.80469,0.69465 4.72852,1.50212 4.41357,-1.58681c-0.22852,-2.24659 -4.11768,-3.87619 -5.82788,-4.82183c-1.1373,-0.62916 -1.8791,-1.10344 -2.92002,-1.85143c-4.1272,-2.96601 -4.80908,-8.82183 -1.71797,-12.77509z" fill="#e1ae41"/><path d="M142.06699,78.58857c0.23701,-0.31341 0.43945,-0.72586 0.7377,-0.76894c-0.03442,0.26696 -0.06211,0.46168 -0.06665,0.73451c-1.0875,2.40864 -1.36611,4.96689 -0.46802,7.5219c1.76235,5.0148 8.37451,5.48425 11.0625,9.06256c0.2373,0.93055 0.32373,1.45172 0.44092,2.40747c-0.45996,1.18286 -0.76758,1.64967 -1.45312,2.6863c0.19043,-0.52777 0.83496,-2.1493 0.76611,-2.69788c-0.63721,-4.98007 -9.64321,-5.01436 -11.56699,-10.60718c-1.13452,-3.2989 -0.6293,-5.55326 0.54756,-8.33875z" fill="#ffffff"/><path d="M159.30469,91.23868c2.48877,4.52469 -1.09424,10.73612 -5.28662,12.82418c-3.01025,1.49875 -5.45068,1.82637 -8.67085,0.71004c-0.82954,-0.27033 -1.34136,-0.66886 -1.94854,-0.4548c-1.03667,1.37451 -3.59458,1.29289 -3.58491,-0.66813c0.01216,-2.49158 -0.20083,-5.93436 0.09771,-8.45363c0.02476,-0.20894 1.35864,-1.45509 1.67432,-1.8274c0.89355,-0.11795 1.80557,-0.14916 2.70659,-0.19546c0.68657,2.95985 0.80229,3.42359 2.53916,6.01656c-1.63418,-1.39751 -2.34653,-3.82637 -2.72886,-5.87912l-2.15815,0.18374l-0.00732,6.53275c-0.00264,0.68938 0.02388,2.59267 -0.05728,3.15619l1.95205,0.11165l0.67559,-1.23634c0.07925,0.03385 0.15879,0.06725 0.23848,0.10022c3.55327,1.46813 6.72026,1.81099 10.35454,0.30593c1.37695,-1.14916 2.46094,-1.30125 3.53027,-3.23692c1.53369,-2.77788 1.40186,-5.09026 0.67383,-7.98945z" fill="#e1ae41"/><path d="M143.24238,104.04484c-0.65713,0.01231 -1.35513,0.09114 -1.9207,-0.20088c-0.46084,-0.63751 -0.42129,-9.22505 0.05625,-9.85084l0.17959,0.10315c0.60703,2.54667 -0.10005,6.58784 0.32241,9.08733l1.95205,0.11165l0.67559,-1.23634c0.07925,0.03385 0.15879,0.06725 0.23848,0.10022c3.55327,1.46813 6.72026,1.81099 10.35454,0.30593l0.20361,0.22403c-0.29736,0.48747 -2.26904,1.12996 -2.84619,1.25128c-3.05566,0.64132 -5.38037,0.26081 -8.1668,-0.95179c-0.3438,0.37626 -0.64951,0.73919 -1.04883,1.05626z" fill="#ffffff"/><path d="M145.14521,75.44864c2.98711,-1.72059 5.73223,-1.86696 9.01494,-0.97612c0.4248,0.11824 0.84521,0.2507 1.26123,0.39707c0.32373,-0.23311 0.69727,-0.5178 1.02686,-0.73187c0.73828,0.00938 1.61719,-0.00249 2.34229,0.05685c0.02197,3.04879 0.02783,6.09773 0.01758,9.14652c-0.54492,0.50989 -1.229,1.11648 -1.73584,1.64498c-0.64746,0.02681 -2.04199,0.18139 -2.49023,-0.23048c-0.41895,-0.38579 -0.68994,-1.08234 -0.8584,-1.58637c-0.97412,-2.90916 -1.73877,-4.22139 -5.02295,-4.21919c-0.36475,0.00029 -0.39551,-0.01084 -0.76611,0.16234c-0.72949,0.81201 -0.17432,2.36967 0.16846,3.28952c-1.51025,-1.59326 -0.68555,-4.54286 1.56299,-5.19971c3.40137,-0.58901 5.00391,1.10535 5.90918,4.12689c0.52588,1.76103 0.6123,1.94842 2.37891,1.87956l0.4834,-0.1978c0.29004,-0.75297 0.10693,-7.43136 0.08936,-8.71839c-1.56299,-0.03399 -1.7373,-0.26183 -2.59863,1.0504c-3.82324,-1.61275 -7.125,-1.64293 -10.7335,0.44498z" fill="#e1ae41"/><path d="M149.66602,77.2022c3.40137,-0.58901 5.00391,1.10535 5.90918,4.12689c0.52588,1.76103 0.6123,1.94842 2.37891,1.87956c-0.04248,0.26344 -0.06592,0.27531 -0.16699,0.52821c-2.29834,0.79473 -2.64844,-0.72923 -3.25928,-2.58857c-0.72803,-2.21055 -2.36426,-3.3893 -4.70654,-3.11341c-0.48047,0.05641 -1.04443,0.27985 -1.51025,0.2526c0.37354,-0.47692 0.85107,-0.74857 1.35498,-1.08527z" fill="#ffffff"/><path d="M141.45747,78.63897c0.70781,-0.96674 2.66631,-2.50359 3.68774,-3.19033l0.04951,0.33919c-0.72451,0.55692 -2.50386,2.79443 -2.45669,2.7663c0.00454,-0.27282 0.03223,-0.46755 0.06665,-0.73451c-0.29824,0.04308 -0.50068,0.45553 -0.7377,0.76894z" fill="#e1ae41"/><path d="M116.74937,74.54432l8.49448,-0.02681c5.40674,-0.01231 11.20444,-0.23824 13.32861,5.94095c0.69551,2.2759 0.45396,4.73553 -0.6709,6.83267c-2.21162,4.12 -6.82017,6.64117 -11.47969,6.40454c-0.00381,1.01744 -0.04761,2.04308 -0.04072,3.05773c0.01201,1.75736 -0.39609,2.99722 1.47231,3.68498l-0.1623,0.11604c0.56338,0.12454 1.11768,0.26418 1.69087,0.32249l-0.02476,2.02842c-3.40957,-0.00718 -9.37368,-0.20498 -12.56982,0.02886l0.01406,-0.51223l-0.03354,-1.23619c0.24932,-0.18081 1.54878,-0.55179 2.11333,-0.8274c0.18809,-0.27502 0.41763,-0.58916 0.52339,-0.90828c0.36782,-1.1096 0.23306,-21.19707 -0.06328,-21.6778c-0.54551,-0.88454 -1.63184,-1.05114 -2.55674,-1.29011z" fill="#184379"/><path d="M138.57246,80.45846c0.69551,2.2759 0.45396,4.73553 -0.6709,6.83267c-2.21162,4.12 -6.82017,6.64117 -11.47969,6.40454c-0.00381,1.01744 -0.04761,2.04308 -0.04072,3.05773c0.01201,1.75736 -0.39609,2.99722 1.47231,3.68498l-0.1623,0.11604c-1.90342,-0.39722 -1.57983,-2.57802 -1.58994,-4.09275c-0.01011,-1.5537 0.03252,-3.15165 0.05391,-4.70491l3.2105,-0.01524c1.68442,-0.10066 2.86406,-0.38022 4.42061,-0.9893c4.57632,-2.66227 5.23213,-5.22462 4.78623,-10.29377z" fill="#e1ae41"/><path d="M133.78623,90.75223l0.17065,0.16c-1.27573,1.18901 -6.32505,2.3578 -7.50059,1.57011l-0.10005,-0.24689c0.36738,-0.59282 2.16094,-0.33143 3.00937,-0.49392c1.68442,-0.10066 2.86406,-0.38022 4.42061,-0.9893z" fill="#ffffff"/><path d="M126.14092,77.61641c0.73901,-0.0126 2.03379,-0.09993 2.66147,0.14916c1.44976,0.48689 1.85024,0.96234 2.56743,2.29451c0.98994,1.57978 0.79014,6.24703 -0.77314,7.56234c-1.40244,1.17993 -2.75156,1.12234 -4.43481,1.07267c-0.04351,-3.69275 -0.05054,-7.38579 -0.02095,-11.07868z" fill="#e1ae41"/><path d="M131.36982,80.06007c0.26426,1.48938 0.87041,6.62813 -0.94746,7.38476c-0.09653,-0.58711 0.66504,-2.13714 0.67573,-2.85392c0.06196,-4.11502 -0.57173,-5.68864 -4.66362,-6.20747l-0.06987,-0.18081l0.1752,-0.29451c0.58755,-0.26125 1.53735,-0.13553 2.2626,-0.14256c1.44976,0.48689 1.85024,0.96234 2.56743,2.29451z" fill="#ffffff"/><path d="M126.40151,79.5389c4.12939,0.42696 3.79131,5.45934 2.79199,8.37421c-0.77388,0.76864 -1.68486,0.60454 -2.78247,0.60908c0.01187,-2.99443 0.00864,-5.98886 -0.00952,-8.9833z" fill="#ffffff"/><path d="M88.00898,98.1893c-1.62437,2.98784 -4.55669,5.77275 -7.85288,6.76542c-2.94756,0.85875 -6.11528,0.51473 -8.81001,-0.95663c-7.34634,-3.96835 -8.23462,-15.29597 -4.55947,-22.12747c1.64956,-3.06623 5.79009,-6.51897 9.12803,-7.463c2.38271,-0.67385 5.98887,-0.61714 8.2103,0.65392l0.52368,0.07927c1.00913,-0.85568 1.59888,-0.80586 2.8834,-0.73084c0.40591,1.01275 0.17798,7.44864 0.14956,9.03868c-0.47007,0.73084 -1.12002,1.31795 -1.7395,1.92952c-0.72437,0.01201 -1.87207,0.06608 -2.56362,0.0148c-0.87422,-2.09026 -1.60869,-5.05245 -3.90337,-5.98388c-2.07539,-0.84249 -3.85913,0.09216 -4.41533,2.24308c-1.17788,4.55487 -1.20557,9.63223 0.13901,14.14388c0.67046,1.47253 1.73569,2.95473 3.31919,3.47253c3.62285,1.18476 5.83535,-1.22344 7.83413,-3.68967c0.5877,0.59853 2.03306,1.75223 1.65688,2.6104z" fill="#184379"/><path d="M88.00898,98.1893c-1.62437,2.98784 -4.55669,5.77275 -7.85288,6.76542c-2.94756,0.85875 -6.11528,0.51473 -8.81001,-0.95663c-7.34634,-3.96835 -8.23462,-15.29597 -4.55947,-22.12747c1.64956,-3.06623 5.79009,-6.51897 9.12803,-7.463c2.38271,-0.67385 5.98887,-0.61714 8.2103,0.65392c-3.90015,-0.97553 -6.96973,-1.50535 -10.66714,0.72835c-3.60879,2.18022 -4.99102,5.32703 -6.09229,9.16689c-0.70854,2.47004 -0.08569,4.65451 -0.45688,6.72308c0.32051,2.41289 0.69683,4.07897 1.91162,6.26168c2.92251,5.25084 9.47139,6.87941 14.7939,4.40044c2.48716,-1.94681 2.2229,-1.77788 4.39482,-4.15267z" fill="#e1ae41"/><path d="M83.61416,102.34198l0.07148,0.22271c-0.66343,1.08615 -3.25298,1.45714 -4.4105,1.59194c-7.88115,0.9181 -12.80874,-4.97846 -13.19355,-12.51766c-0.21064,-4.12733 0.1875,-8.86916 3.01069,-12.13802c-0.02402,0.20879 -0.70811,1.73099 -0.87261,2.02007c-0.98979,1.73934 -1.99336,8.42813 -1.31104,10.15883c0.32051,2.41289 0.69683,4.07897 1.91162,6.26168c2.92251,5.25084 9.47139,6.87941 14.7939,4.40044z" fill="#ffffff"/><path d="M87.53203,74.40996c0.40591,1.01275 0.17798,7.44864 0.14956,9.03868c-0.47007,0.73084 -1.12002,1.31795 -1.7395,1.92952c-0.72437,0.01201 -1.87207,0.06608 -2.56362,0.0148c-0.87422,-2.09026 -1.60869,-5.05245 -3.90337,-5.98388c-2.07539,-0.84249 -3.85913,0.09216 -4.41533,2.24308c-1.17788,4.55487 -1.20557,9.63223 0.13901,14.14388c-2.10762,-3.55663 -1.86563,-16.83897 2.94199,-18.33993c4.39438,-1.00879 5.81001,2.61612 6.97529,6.06901l1.8019,0.00762l0.33472,-0.08791c0.44648,-0.7348 0.07075,-7.3959 0.27935,-9.03487z" fill="#e1ae41"/><path d="M78.14077,77.45612c4.39438,-1.00879 5.81001,2.61612 6.97529,6.06901l1.8019,0.00762c0.0772,0.11136 0.05962,0.16308 0.08262,0.32029c-0.13975,0.19033 -0.24844,0.417 -0.46304,0.47941c-3.39697,0.98813 -2.68154,-4.80498 -6.04146,-5.91868c-1.64502,-0.54535 -2.68418,-0.12103 -4.03301,0.45201c0.58447,-0.53729 1.05029,-0.92103 1.67769,-1.40967z" fill="#ffffff"/><path d="M207.72949,77.94916c-0.01611,-0.4167 -0.02051,-0.83385 -0.01172,-1.2507c0.02051,-0.67282 0.0791,-0.8967 0.52441,-1.31487c0.49219,0.01597 0.27539,-0.05597 0.67822,0.21099c0.05713,2.51311 0.50244,1.40498 2.23242,2.47194c1.02246,0.63062 0.67676,4.52821 0.6709,5.69158l-0.02051,11.84103c-0.00586,1.2252 -0.20215,3.68352 -0.0835,4.73333c-0.67969,0.40747 -1.41943,0.47004 -1.86328,0.96747c-0.08496,0.48278 -0.06738,0.64293 -0.0498,1.13993l0.03955,0.41114l0.30908,0.11399c1.77539,-0.21875 6.82031,-0.0507 8.896,-0.0611l-0.0249,-2.04366c0.30176,0.44923 0.20361,1.84864 0.15967,2.43487c-0.40283,0.40484 -1.11914,1.08659 -1.45752,1.50183c-3.09521,-0.02857 -6.19189,-0.00249 -9.28711,0.0781c-0.32812,-0.36322 -0.62256,-0.70139 -0.98291,-1.03473c-0.21094,0.18652 -0.74268,0.87355 -0.88916,0.88147c-2.91064,0.15663 -5.84912,0.06462 -8.77441,0.10125c-0.8877,0.01114 -2.7334,0.11766 -3.43359,-0.21963c-0.39258,-0.18886 -0.47168,-2.25172 -0.01172,-2.5222c0.27246,-0.16015 0.58154,-0.26652 0.89502,-0.37495l0.4585,-0.01817c0.37354,0.36469 0.2915,0.67018 0.40283,1.29524c3.17432,-0.02051 6.98877,0.08747 10.09277,-0.01568c0.72656,-0.05201 1.22314,0.04718 1.71533,-0.35033c0.09082,-0.34168 0.11865,-0.43136 0.26807,-0.75297l0.03662,-0.07663c0.31201,0.04835 0.52295,-0.0737 0.82324,-0.18828c0.27539,-0.76601 0.73828,-0.81436 1.45166,-1.09304c0.11572,-2.16147 0.25635,-20.263 -0.1084,-21.0085c-0.44385,-0.90769 -1.78271,-1.26051 -2.65576,-1.54872z" fill="#e1ae41"/><path d="M195.24463,101.70623l0.4585,-0.01817c0.37354,0.36469 0.2915,0.67018 0.40283,1.29524c3.17432,-0.02051 6.98877,0.08747 10.09277,-0.01568c0.52441,0.01495 0.84668,-0.04 1.25537,0.26989l-0.02344,0.27399c-0.85254,0.50286 -11.43896,0.58418 -12.00439,0.06901c-0.26074,-0.57919 -0.18604,-1.21934 -0.18164,-1.87429z" fill="#ffffff"/><path d="M209.24561,101.66198l0.31494,-0.02125c0.14502,0.33421 0.16553,0.44 0.24609,0.79912l0.03955,0.41114l0.30908,0.11399c1.56152,0.04586 7.36084,-0.17656 8.35693,0.25436l0.05566,0.35912l0.07764,-0.09055c-0.97119,0.70183 -7.67578,0.3685 -9.19922,0.2781c-0.89648,-0.05319 -0.35742,-1.66535 -0.20068,-2.10403z" fill="#ffffff"/></g></svg></svg>