<svg id="svg" version="1.1" viewBox="0 0 300 200" width="300" height="200" xmlns="http://www.w3.org/2000/svg"><svg xmlns="http://www.w3.org/2000/svg"><defs><clipPath id="clip-1"><rect x="0" y="0" transform="scale(0.14648,0.14652)" width="2048" height="1365" fill="none"/></clipPath></defs><g clip-path="url(#clip-1)" fill="none" fill-rule="nonzero" stroke="none" stroke-width="1" stroke-linecap="butt" stroke-linejoin="miter" stroke-miterlimit="10" stroke-dasharray="" stroke-dashoffset="0" font-family="none" font-weight="none" font-size="none" text-anchor="none" style="mix-blend-mode: normal"><path d="M0,0h300v200h-300z" fill="#ffffff"/><path d="M197.98242,73.91648c2.57373,0.29143 5.12842,0.75883 7.73291,1.02491c1.10596,3.45758 1.94824,7.72938 2.85059,11.31971c0.9873,-3.21319 1.80469,-7.25934 2.93262,-10.32132c2.2749,0.28703 5.03174,0.83927 7.32275,1.24923c0.05127,1.34388 0.29736,1.86315 -0.96533,2.55473c-0.68408,1.42125 0.09521,12.67853 -0.22119,14.99004c-0.36035,2.63751 1.35352,2.05143 1.22461,5.09436c-2.37598,-0.47077 -4.66113,-1.01407 -7.06934,-1.47018c-0.03076,-1.46667 -0.27393,-1.66037 1.00049,-2.46022c0.54346,-0.77832 0.34863,-11.6696 0.35449,-13.72864l-0.05566,-0.26623c-0.03223,0.03473 -4.26855,14.4233 -4.67285,15.69495l-1.36963,-0.20777c-0.42334,-2.05348 -1.14111,-4.52571 -1.65967,-6.59692c-0.94189,-3.77949 -1.85156,-7.56674 -2.73193,-11.36132c-0.00439,0.10828 -0.01025,0.21656 -0.01318,0.32484c-0.11719,4.56381 0.05273,9.39077 0.16699,13.95883c0.02051,0.81744 1.27441,0.34476 1.17773,3.15121c-1.8208,-0.34374 -4.26855,-0.81846 -6.07178,-0.95795c-0.02197,-0.68982 -0.14795,-1.41744 0.21387,-1.95795c0.40137,-0.20396 0.47314,-0.22491 0.79541,-0.52894c0.78516,-1.6989 -0.00146,-12.99311 0.25342,-15.55429c0.04541,-0.45201 -0.16406,-1.36293 -0.62695,-1.62432c-0.84814,-0.47971 -0.62256,-1.47634 -0.56836,-2.32674z" fill="#000000"/><path d="M176.19434,71.74769c2.42139,0.1222 5.23975,0.43678 7.70801,0.62315c1.05322,3.1115 2.04932,7.67473 2.85059,10.94564c1.02246,-3.4019 1.8252,-6.99429 2.91357,-10.3493c2.49609,0.29758 4.99512,0.57832 7.49561,0.84249c0.03955,1.30022 0.29297,1.82784 -0.91992,2.457c-0.64893,0.73084 -0.18896,13.49231 -0.31934,15.42198c-0.04687,0.70491 0.84961,1.81011 1.229,2.35502c0.20068,0.28791 0.0835,1.3181 0.05859,1.6904c-2.09473,-0.16762 -4.94385,-0.63282 -7.08105,-0.92132c-0.05273,-1.59209 -0.28125,-1.64396 1.00928,-2.56088c0.40869,-0.88044 0.28418,-11.68205 0.31641,-13.43253l-0.07324,-0.20029c-0.31787,0.68059 -1.01953,3.40425 -1.26123,4.25729c-0.76611,2.69377 -1.5498,5.38242 -2.35254,8.06579c-0.2373,0.79912 -0.76025,2.74066 -1.18652,3.3641c-0.52002,-0.01407 -0.78369,0.01421 -1.25391,-0.23062c-0.40576,-0.92718 -1.31396,-4.61319 -1.59814,-5.71136c-1.03418,-3.8904 -2.00537,-7.79678 -2.9165,-11.71766c-0.03809,1.64835 0.00293,13.92425 0.32227,14.61553c1.30811,0.88293 1.13965,1.14549 1.08691,2.67458c-1.79736,-0.27004 -4.32129,-0.43473 -6.16406,-0.60469c-0.01025,-1.79018 -0.26221,-1.49114 0.96094,-2.46505c0.12305,-0.09817 0.30469,-1.15194 0.28711,-1.39048c-0.15088,-1.99795 0.27832,-13.86286 -0.19043,-15.17744c-1.17334,-0.88791 -0.98291,-1.09978 -0.92139,-2.55136z" fill="#000000"/><path d="M87.88433,75.66125c3.42568,-0.26227 5.61094,1.7622 6.13564,5.14623c0.68643,4.42593 0.67603,10.38359 -1.71504,14.29333c-1.96509,3.21319 -6.1043,3.57319 -9.50933,4.27414c-1.3998,0.29421 -2.79434,0.61319 -4.18286,0.95707l0.00688,-2.16557c0.30117,-0.18549 1.13101,-0.62432 1.12764,-0.99722c-0.02007,-2.27062 0.52134,-16.16293 -0.14868,-17.37568c-0.42451,-0.16938 -0.473,-0.20059 -0.80039,-0.51971c-0.31274,-0.5707 -0.20449,-1.32205 -0.17827,-1.99722c3.06885,-0.61817 6.15732,-1.22388 9.2644,-1.61538z" fill="#000000"/><path d="M86.50269,78.71531c3.49951,-0.53495 2.75215,6.64278 2.75845,8.65407c0.0082,2.63399 0.07617,6.47165 -2.28296,8.10315c-0.64102,0.23839 -1.74419,0.40498 -2.44805,0.5348c0.07485,-5.58447 0.00601,-11.31707 0.00308,-16.91311z" fill="#ffffff"/><path d="M234.0835,80.38491c3.50391,0.8381 8.42725,1.70315 11.41553,3.69993c1.50879,1.12 2.68945,3.13099 2.78027,5.01465c0.16406,3.39531 0.04541,6.36029 -3.86279,6.78593c4.84277,3.84454 2.22656,9.03165 5.1709,11.72762l-0.01465,1.93978c-1.64355,-0.69919 -3.19043,-1.35795 -4.87061,-1.97289c-0.2168,-0.46344 -0.40576,-1.03179 -0.58447,-1.51839c-0.55811,-1.98784 -0.81006,-4.0233 -1.19531,-6.04879c-0.43799,-2.29934 -0.78223,-3.54051 -3.10107,-4.37055c-0.03223,2.47253 -0.04102,4.9452 -0.02637,7.41773c0.31201,0.33744 0.68848,0.69509 1.01807,1.02359v2.0715c-2.28516,-0.76718 -4.5835,-1.56527 -6.89795,-2.23355c-0.0249,-1.50418 -0.28418,-1.76322 1.09131,-2.53758c0.51709,-0.88352 0.18896,-9.15927 0.2666,-10.78212c0.08936,-1.91121 -0.01172,-4.88923 -0.12158,-6.86271c-0.01172,-0.22139 -0.36621,-0.56557 -0.5083,-0.72454c-0.78076,-0.76835 -0.60791,-1.56571 -0.55957,-2.6296z" fill="#000000"/><path d="M239.79346,84.75238l0.45557,0.1389c1.32275,0.40762 2.25,0.67429 2.99121,2.03385c0.80713,1.4778 0.49365,4.09875 -0.00293,5.65788c-1.27734,1.04527 -2.02295,0.61289 -3.44092,0.15736z" fill="#ffffff"/><path d="M77.25835,77.54784c0.17139,0.0022 0.10181,0.00777 0.29077,0.15399c0.0498,0.83136 0.08657,1.11399 -0.08877,1.92147c-0.43696,0.5033 -1.05469,0.43092 -1.0979,1.40835c-0.09976,2.2567 -0.04424,4.52806 -0.03369,6.78857l0.00029,13.06198c-1.3374,0.27619 -2.65811,0.66154 -3.97559,1.02418c-1.87368,-3.05875 -5.70747,-10.40615 -7.19619,-13.67414c0.18633,1.95692 -0.04233,12.00015 0.36475,12.91062c1.30898,0.4041 1.04268,1.27179 1.00649,2.4567c-1.93652,0.61817 -3.86807,1.25172 -5.79463,1.90051l-0.27261,-0.0737c-0.19644,-0.51941 -0.1478,-1.4148 -0.15088,-2.0044c1.27324,-0.69114 1.37666,-1.5096 1.23853,-2.88147c-0.23936,-2.37963 0.47109,-15.55985 -0.24902,-16.8485c-0.41089,-0.19062 -0.43491,-0.20674 -0.77256,-0.51267c-0.29854,-0.51033 -0.19292,-1.2885 -0.17285,-1.90549c1.96201,-0.48059 3.92798,-0.9452 5.89761,-1.39341c2.0228,3.79897 4.6853,8.48718 6.42876,12.32527c0.00381,-1.62359 0.1689,-10.12484 -0.23188,-11.05685c-1.26724,-0.58227 -1.04385,-1.06916 -1.01968,-2.38154c1.93623,-0.43839 3.87949,-0.84498 5.82905,-1.21949z" fill="#000000"/><path d="M131.77529,71.0526c2.054,-0.07516 4.10845,-0.1348 6.16333,-0.17919c0.00879,0.7156 0.12363,1.79897 -0.44517,2.18623c-0.93647,0.63736 -0.7834,1.38066 -0.79424,2.64015l-0.01348,16.87751c-1.36465,0.03692 -2.72842,0.10476 -4.08999,0.20322c-2.3792,-4.58168 -4.72822,-9.17919 -7.04663,-13.79194c0.11001,1.49245 -0.16392,11.2441 0.40518,11.73612c0.34893,0.30183 0.80244,0.36571 0.92607,0.88718c0.10723,0.4526 0.02139,1.05363 -0.0022,1.52176c-2.05562,0.16015 -4.11006,0.33363 -6.16333,0.52073l-0.30527,-0.06711l0.02065,-1.97597l0.23467,0.00498c0.72847,-0.31297 0.74048,-0.16689 1.15269,-0.70945c0.30088,-1.52967 0.08188,-14.27604 -0.05273,-16.60791c-0.00352,-0.06344 -0.32666,-0.28703 -0.41763,-0.33128c-0.82852,-0.40264 -0.65757,-1.3433 -0.63252,-2.23692c1.99966,-0.12982 3.99844,-0.27179 5.99648,-0.42608c2.10923,4.20176 4.30078,8.1556 6.37456,12.40674c-0.01157,-1.16601 0.18179,-9.64923 -0.33398,-10.11868c-0.404,-0.36762 -0.81475,-0.40791 -0.94731,-1.02286c-0.10034,-0.46549 -0.04058,-1.03956 -0.02915,-1.51722z" fill="#000000"/><path d="M120.43022,91.61128l0.23467,0.00498l0.04995,2.0381l-0.30527,-0.06711z" fill="#919196"/><path d="M107.90684,73.01348c2.1501,-0.33172 4.70259,-0.56894 6.89165,-0.81817c1.32686,5.44308 2.96235,13.33817 4.54717,18.87297c0.09595,0.33495 0.72715,0.44557 1.08457,0.543l-0.02065,1.97597c-2.44307,0.38344 -5.04434,0.55414 -7.51479,0.88103c-0.0791,-3.60923 1.73467,-1.35546 0.65962,-6.14681c-1.45649,0.19795 -3.3772,0.45055 -4.8353,0.51546c-0.26382,1.10608 -0.74385,2.40938 -0.34658,3.43795c1.2356,1.14637 1.10332,0.79136 1.04106,2.56015c-2.08608,0.28088 -4.16924,0.58271 -6.24917,0.90549l-0.34336,-0.00806c0.02051,-0.67223 0.02681,-1.34491 0.01904,-2.01744l0.31831,-0.1052c0.32373,-0.17084 0.75952,-0.42418 0.86602,-0.78462c0.69814,-2.3644 1.27324,-5.07531 1.86313,-7.45744c0.71807,-3.02725 1.60562,-6.03443 2.29072,-9.06711c0.27656,-1.22418 -0.48135,-1.62403 -0.27144,-3.28718z" fill="#000000"/><path d="M102.84009,93.71502l0.31831,-0.1052c-0.01172,0.70242 -0.03735,1.43209 0.00601,2.1307l-0.34336,-0.00806c0.02051,-0.67223 0.02681,-1.34491 0.01904,-2.01744z" fill="#59595d"/><path d="M111.26646,77.19458c0.25151,0.31311 1.6314,7.4107 1.78345,8.33832l-1.90269,0.20352l-1.90342,0.25187c0.70693,-2.92366 1.38105,-5.85509 2.02266,-8.7937z" fill="#ffffff"/><path d="M159.20508,70.86667l7.14697,0.19985c0.02637,2.66388 -1.02539,2.30608 -1.06934,2.74549c-0.42773,3.97729 -0.08936,8.72938 -0.14502,12.64469c-0.07031,4.86315 4.24658,4.03414 4.47363,2.40059c0.31348,-2.26916 0.69727,-13.50491 -0.04102,-15.06755c-1.14697,-0.81919 -0.9126,-1.16952 -0.85254,-2.54857c2.17529,0.13245 4.43994,0.23663 6.60205,0.46652c0.0835,3.14242 -1.10596,1.62799 -1.22607,3.27092c-0.31494,3.01846 0.68994,13.01055 -0.65771,15.3096c-3.22412,5.49919 -14.23535,3.217 -13.03711,-4.75458c0.22266,-1.48733 -0.06445,-11.85011 -0.09668,-11.95253c-1.27881,-0.99077 -1.16602,-1.14549 -1.09717,-2.71443z" fill="#000000"/><path d="M219.88037,77.40879c4.11768,0.70696 8.72607,1.79253 12.854,2.67429c0.03516,2.29978 0.01611,4.65201 0.01904,6.95619c-1.02539,-0.25114 -2.01855,-0.57407 -3.0249,-0.88879c0.0249,-3.56234 -0.83496,-3.96645 -4.10449,-4.62711c-0.0293,2.10989 0.01611,4.25436 -0.01172,6.38418c1.31396,0.32278 2.70996,0.6022 4.03857,0.88777l-0.04834,3.33773c-1.46045,-0.49348 -2.50342,-0.80322 -3.99902,-1.16278l-0.0249,7.34359l0.13037,0.21201c3.45264,1.42227 4.29199,0.4589 4.28174,-3.18388c0.88037,0.31385 1.88232,0.59121 2.78613,0.86198l-0.01465,7.40352c-4.26123,-1.34183 -8.67187,-2.4381 -13.00049,-3.56894c-0.01611,-1.12571 -0.20654,-2.01143 0.95801,-2.36908c0.32959,-0.13861 0.30762,-1.01187 0.30762,-1.31853c-0.02051,-5.17861 0.15527,-10.39399 -0.08057,-15.56322c-0.02197,-0.48718 -0.36328,-0.76967 -0.70166,-1.09802c-0.56396,-0.54711 -0.39697,-1.53289 -0.36475,-2.28088z" fill="#000000"/><path d="M149.5752,70.35209c2.44775,-0.24234 2.6543,0.18462 4.87793,0.89363c0.20068,0.06418 0.42188,-0.25304 0.5874,-0.41788c0.48779,-0.1096 1.91748,-0.03648 2.4873,-0.02374c0.05127,2.09641 -0.00439,4.3389 -0.01904,6.44571l-2.8623,-0.09172c-0.22119,-1.62476 -1.14111,-4.93216 -3.87158,-3.91341c-0.74121,0.27619 -1.11035,1.44894 -1.3125,2.19824c1.15283,3.6756 4.37842,3.37949 6.66943,5.70784c4.15723,4.22476 2.96631,11.18315 -3.72363,11.53128c-1.81787,-0.0844 -2.52686,-0.34374 -4.08398,-1.26755l-0.69873,0.85055l-2.55249,-0.06623c0.06548,-2.4378 0.04541,-4.98359 0.05698,-7.43092l3.11514,0.04659c0.00586,1.41597 0.01904,3.44264 1.35498,4.36249c1.16748,0.80381 3.21387,0.75531 3.93604,-0.65568c2.0332,-3.96645 -3.74561,-5.51868 -5.99268,-7.38872c-2.66499,-2.0107 -3.26572,-5.69861 -1.59214,-8.54608c0.82896,-1.40952 2.11216,-1.86315 3.62388,-2.23443z" fill="#000000"/><path d="M58.95381,81.62828c0.55181,0.15004 0.36797,1.11648 0.271,1.56088c-0.10327,0.41978 -1.22886,1.64879 -1.23193,2.02344c-0.0457,5.69026 -0.03794,11.39663 0.00132,17.09055c0.00278,0.40806 0.00205,0.87048 0.22354,1.21377c0.44619,0.12015 0.45923,0.12601 0.7897,0.4378c0.30615,0.57026 0.19233,1.32308 0.16128,1.99516c-2.27739,0.74535 -4.9998,1.88293 -7.28481,2.74974c-0.20684,-2.24205 -0.05361,-1.77495 1.28071,-3.48791c0.00161,-2.15326 0.17549,-18.27766 -0.25386,-18.96938c-1.38882,-0.51048 -1.10259,-1.27941 -1.05967,-2.58769c2.26787,-0.58037 4.81362,-1.38271 7.10273,-2.02637z" fill="#000000"/><path d="M95.70513,74.42139c2.42153,-0.34154 4.85874,-0.57641 7.30664,-0.93158c0.07515,2.21919 0.22983,1.43062 -1.0396,2.87458c-0.30879,0.99399 -0.34658,15.80791 -0.07324,16.90403c0.41777,0.42271 0.23848,0.28615 0.94116,0.44659c0.00776,0.67253 0.00146,1.3452 -0.01904,2.01744c-1.5624,0.42242 -5.1627,0.80923 -7.08589,1.19238c-0.13389,-3.35678 1.27236,-1.47443 1.26284,-4.42388c-0.01611,-4.88278 -0.00308,-9.77465 -0.03984,-14.65436c-0.00747,-1.01026 -0.47725,-0.99282 -1.09146,-1.46725c-0.2915,-0.51546 -0.1856,-1.33407 -0.16157,-1.95795z" fill="#000000"/></g></svg></svg>