<svg xmlns="http://www.w3.org/2000/svg" width="300" height="200"><svg xmlns="http://www.w3.org/2000/svg"><defs><clipPath id="a"><path fill="none" d="M0 0h299.991v200H0z"/></clipPath></defs><g fill="none" stroke-miterlimit="10" clip-path="url(#a)" font-family="none" font-size="none" font-weight="none" style="mix-blend-mode:normal" text-anchor="none"><path fill="#fff" d="M0 0h300v200H0z"/><path fill="#000" d="M197.982 73.916c2.574.292 5.129.76 7.733 1.025 1.106 3.458 1.949 7.73 2.85 11.32.988-3.213 1.806-7.26 2.934-10.321 2.274.287 5.031.84 7.322 1.249.052 1.344.298 1.863-.965 2.555-.684 1.421.095 12.678-.221 14.99-.36 2.637 1.353 2.051 1.224 5.094-2.376-.47-4.66-1.014-7.069-1.47-.03-1.467-.274-1.66 1-2.46.544-.779.35-11.67.355-13.729l-.056-.266c-.032.035-4.268 14.423-4.672 15.695l-1.37-.208c-.423-2.053-1.141-4.526-1.66-6.597a719 719 0 0 1-2.732-11.361q-.007.162-.013.325c-.117 4.563.053 9.39.167 13.958.02.818 1.275.345 1.178 3.152-1.821-.344-4.269-.819-6.072-.958-.022-.69-.148-1.418.214-1.958.401-.204.473-.225.795-.53.785-1.698-.001-12.992.254-15.553.045-.452-.164-1.363-.627-1.625-.848-.48-.623-1.476-.569-2.326M176.194 71.748c2.422.122 5.24.436 7.708.623 1.054 3.111 2.05 7.675 2.85 10.945 1.023-3.401 1.826-6.994 2.915-10.349q3.745.447 7.495.843c.04 1.3.293 1.828-.92 2.457-.649.73-.189 13.492-.32 15.422-.046.705.85 1.81 1.23 2.355.2.288.083 1.318.058 1.69-2.094-.168-4.943-.633-7.08-.921-.053-1.592-.282-1.644 1.009-2.561.408-.88.284-11.682.316-13.433l-.073-.2c-.318.68-1.02 3.404-1.261 4.257a618 618 0 0 1-2.353 8.066c-.237.8-.76 2.74-1.186 3.364-.52-.014-.784.014-1.254-.23-.406-.928-1.314-4.614-1.598-5.712a383 383 0 0 1-2.917-11.717c-.038 1.648.003 13.924.322 14.615 1.308.883 1.14 1.146 1.087 2.675-1.797-.27-4.321-.435-6.164-.605-.01-1.79-.262-1.491.961-2.465.123-.098.305-1.152.287-1.39-.15-1.998.278-13.863-.19-15.178-1.174-.888-.983-1.1-.922-2.551M87.884 75.661c3.426-.262 5.611 1.762 6.136 5.146.686 4.426.676 10.384-1.715 14.294-1.965 3.213-6.104 3.573-9.51 4.274q-2.1.441-4.182.957l.007-2.166c.3-.185 1.13-.624 1.127-.997-.02-2.27.522-16.163-.148-17.375-.425-.17-.473-.201-.8-.52-.314-.57-.205-1.322-.18-1.997 3.07-.619 6.158-1.224 9.265-1.616"/><path fill="#fff" d="M86.503 78.715c3.5-.535 2.752 6.643 2.758 8.654.008 2.634.076 6.472-2.283 8.104-.64.238-1.744.405-2.448.534.075-5.584.006-11.317.003-16.913z"/><path fill="#000" d="M234.084 80.385c3.503.838 8.427 1.703 11.415 3.7 1.509 1.12 2.69 3.13 2.78 5.014.164 3.396.046 6.36-3.862 6.786 4.842 3.845 2.226 9.032 5.17 11.728l-.014 1.94c-1.644-.7-3.19-1.358-4.87-1.973-.218-.464-.407-1.032-.585-1.518-.558-1.988-.81-4.024-1.196-6.05-.438-2.299-.782-3.54-3.1-4.37a391 391 0 0 0-.027 7.418c.312.337.688.695 1.018 1.024v2.071c-2.285-.767-4.583-1.565-6.898-2.234-.025-1.504-.284-1.763 1.091-2.537.517-.884.19-9.16.267-10.782.09-1.911-.012-4.89-.122-6.863-.011-.221-.366-.566-.508-.724-.78-.769-.608-1.566-.56-2.63"/><path fill="#fff" d="m239.793 84.752.456.14c1.323.407 2.25.674 2.991 2.033.807 1.478.494 4.099-.003 5.658-1.277 1.045-2.023.613-3.44.157z"/><path fill="#000" d="M77.258 77.548c.172.002.102.008.291.154.05.831.087 1.114-.089 1.921-.437.504-1.054.431-1.098 1.409-.1 2.256-.044 4.528-.033 6.788v13.062c-1.337.276-2.658.662-3.976 1.024-1.873-3.058-5.707-10.406-7.196-13.674.187 1.957-.042 12 .365 12.91 1.309.405 1.043 1.273 1.007 2.458a385 385 0 0 0-5.795 1.9l-.273-.074c-.196-.519-.148-1.414-.15-2.004 1.273-.691 1.376-1.51 1.238-2.882-.24-2.38.471-15.56-.25-16.848-.41-.19-.434-.207-.772-.513-.298-.51-.193-1.288-.173-1.905a368 368 0 0 1 5.898-1.394c2.023 3.8 4.685 8.488 6.429 12.326.004-1.624.169-10.125-.232-11.057-1.267-.582-1.044-1.07-1.02-2.382a181 181 0 0 1 5.83-1.22M131.775 71.053q3.081-.113 6.164-.18c.008.716.123 1.8-.446 2.187-.936.637-.783 1.38-.794 2.64l-.013 16.877a91 91 0 0 0-4.09.204q-3.57-6.874-7.047-13.792c.11 1.492-.164 11.244.405 11.736.35.302.803.365.926.887.108.452.022 1.054-.002 1.522q-3.083.24-6.163.52l-.305-.067.02-1.976.235.005c.728-.313.74-.167 1.153-.71.3-1.529.081-14.275-.053-16.607-.004-.064-.327-.287-.418-.331-.828-.403-.657-1.344-.632-2.237q3-.195 5.996-.426c2.11 4.201 4.301 8.155 6.375 12.406-.012-1.166.182-9.649-.334-10.118-.404-.368-.815-.408-.948-1.023-.1-.466-.04-1.04-.029-1.517"/><path fill="#919196" d="m120.43 91.611.235.005.05 2.038-.305-.067z"/><path fill="#000" d="M107.907 73.013c2.15-.331 4.702-.568 6.891-.818 1.327 5.443 2.963 13.338 4.548 18.873.096.335.727.446 1.084.543l-.02 1.976c-2.443.384-5.045.554-7.515.881-.08-3.609 1.734-1.355.66-6.147-1.457.198-3.378.451-4.836.516-.264 1.106-.744 2.41-.346 3.438 1.235 1.146 1.103.791 1.04 2.56q-3.128.42-6.249.906l-.343-.009q.03-1.008.02-2.017l.317-.105c.324-.171.76-.424.866-.785.699-2.364 1.274-5.075 1.864-7.457.718-3.027 1.605-6.035 2.29-9.067.277-1.225-.481-1.624-.271-3.288"/><path fill="#59595d" d="m102.84 93.715.318-.105c-.011.702-.037 1.432.006 2.13l-.343-.008q.03-1.008.02-2.017"/><path fill="#fff" d="M111.266 77.195c.252.313 1.632 7.41 1.784 8.338l-1.903.203-1.903.252a405 405 0 0 0 2.022-8.793"/><path fill="#000" d="m159.205 70.867 7.147.2c.026 2.663-1.025 2.306-1.07 2.745-.427 3.977-.089 8.73-.144 12.645-.07 4.863 4.246 4.034 4.473 2.4.314-2.269.698-13.505-.04-15.067-1.148-.82-.913-1.17-.853-2.549 2.175.133 4.44.237 6.602.467.083 3.142-1.106 1.628-1.226 3.27-.315 3.02.69 13.011-.658 15.31-3.224 5.5-14.235 3.217-13.037-4.754.223-1.488-.065-11.85-.097-11.953-1.279-.99-1.166-1.145-1.097-2.714M219.88 77.409c4.118.707 8.726 1.792 12.854 2.674.036 2.3.016 4.652.02 6.956-1.026-.25-2.02-.574-3.025-.889.024-3.562-.835-3.966-4.105-4.627-.03 2.11.016 4.255-.012 6.385 1.314.322 2.71.602 4.039.887l-.048 3.338a42 42 0 0 0-4-1.163l-.024 7.344.13.212c3.453 1.422 4.292.459 4.282-3.184.88.314 1.882.591 2.786.862l-.015 7.403c-4.261-1.341-8.672-2.438-13-3.568-.016-1.126-.207-2.012.958-2.37.33-.138.307-1.011.307-1.318-.02-5.179.156-10.394-.08-15.563-.022-.487-.364-.77-.702-1.098-.564-.547-.397-1.533-.365-2.281M149.575 70.352c2.448-.242 2.655.185 4.878.894.2.064.422-.253.588-.418.487-.11 1.917-.037 2.487-.024.051 2.097-.005 4.339-.02 6.446l-2.862-.092c-.22-1.625-1.14-4.932-3.871-3.913-.741.276-1.11 1.449-1.313 2.198 1.153 3.676 4.379 3.38 6.67 5.708 4.157 4.225 2.966 11.183-3.724 11.531-1.818-.084-2.527-.344-4.084-1.268l-.699.851-2.552-.066c.065-2.438.045-4.984.057-7.431l3.115.046c.006 1.416.02 3.443 1.355 4.363 1.168.804 3.214.755 3.936-.656 2.033-3.966-3.745-5.518-5.993-7.388-2.665-2.011-3.265-5.699-1.592-8.547.83-1.409 2.112-1.863 3.624-2.234M58.954 81.628c.552.15.368 1.117.27 1.561-.102.42-1.228 1.649-1.231 2.024-.046 5.69-.038 11.396.001 17.09.003.408.002.87.224 1.214.446.12.459.126.79.438.306.57.192 1.323.16 1.995-2.277.745-5 1.883-7.284 2.75-.207-2.242-.054-1.775 1.28-3.488.002-2.154.176-18.278-.253-18.97-1.39-.51-1.103-1.28-1.06-2.587 2.268-.58 4.814-1.383 7.103-2.027M95.705 74.421c2.422-.341 4.859-.576 7.307-.931.075 2.219.23 1.43-1.04 2.874-.309.994-.346 15.808-.073 16.904.418.423.238.287.941.447q.012 1.01-.019 2.017c-1.562.423-5.163.81-7.086 1.193-.134-3.357 1.273-1.475 1.263-4.424-.016-4.883-.003-9.775-.04-14.654-.007-1.01-.477-.993-1.091-1.468-.292-.515-.186-1.334-.162-1.958"/></g></svg></svg>